<svg xmlns="http://www.w3.org/2000/svg" viewBox="0 0 181.29 74.68"><defs><style>.cls-1{fill:#fff;}.cls-2{fill:none;stroke:#fff;stroke-miterlimit:10;stroke-width:3px;}</style></defs><title>Asset 3</title><g id="Layer_2" data-name="Layer 2"><g id="Layer_1-2" data-name="Layer 1"><path class="cls-1" d="M12.45,51.55a6.23,6.23,0,1,1-6.23-6.22,6.22,6.22,0,0,1,6.23,6.22"/><path class="cls-1" d="M16.91,50a4.07,4.07,0,0,1,1.54-2.73,4.61,4.61,0,0,1,3-.63,16.39,16.39,0,0,1,3.06.67,16.08,16.08,0,0,0,3,.68,8.93,8.93,0,0,0,2.82-.29,6.36,6.36,0,0,0,2-.81,3.46,3.46,0,0,0,1.2-1.21,3,3,0,0,0,.4-1.53,3.28,3.28,0,0,0-.64-2,6.75,6.75,0,0,0-1.73-1.61A17.38,17.38,0,0,0,29,39.12c-1-.46-2.09-.93-3.26-1.41a16.52,16.52,0,0,1-6.64-4.53,9.92,9.92,0,0,1-2.18-6.46,9.79,9.79,0,0,1,4.44-8.61,14.37,14.37,0,0,1,4.75-2,39.87,39.87,0,0,1,5.72-.65c3.64-.3,5.65-.42,7.65.49a3,3,0,0,1,1.35,1,3.74,3.74,0,0,1-.06,3.81,4.23,4.23,0,0,1-2.05,1.76c-1.73.69-2.58-.32-6.41-.38a11.38,11.38,0,0,0-2.65.28,6.75,6.75,0,0,0-2,.78,3.89,3.89,0,0,0-1.27,1.21A2.85,2.85,0,0,0,25.9,26a3,3,0,0,0,.5,1.71,5.54,5.54,0,0,0,1.43,1.43,16.12,16.12,0,0,0,2.25,1.33c.88.43,1.88.88,3,1.34a33.34,33.34,0,0,1,4.1,2,14.58,14.58,0,0,1,3.11,2.43,9.43,9.43,0,0,1,2,3.08,10.92,10.92,0,0,1,.69,4,10.76,10.76,0,0,1-1.21,5.34,9.72,9.72,0,0,1-3.27,3.5,14.27,14.27,0,0,1-4.81,1.92,27.73,27.73,0,0,1-5.79.58,38.33,38.33,0,0,1-5.94-.53c-1.73-.24-2.71-.44-3.57-1.19A4.12,4.12,0,0,1,17,50.77a3.5,3.5,0,0,1-.08-.77"/><path class="cls-1" d="M27.88,56.37a40.6,40.6,0,0,1-6.17-.55,7.79,7.79,0,0,1-4.42-1.58,5.66,5.66,0,0,1-1.91-3.13A4.76,4.76,0,0,1,15.27,50v-.22a5.66,5.66,0,0,1,2.22-3.82,6.08,6.08,0,0,1,4-.94,16.64,16.64,0,0,1,3.4.72l.8.21a10,10,0,0,0,1.9.42,7.51,7.51,0,0,0,2.33-.24,5.06,5.06,0,0,0,1.52-.6,1.93,1.93,0,0,0,.66-.64,1.39,1.39,0,0,0,.19-.72,1.65,1.65,0,0,0-.32-1,5.3,5.3,0,0,0-1.33-1.22,17,17,0,0,0-2.37-1.3c-1-.45-2.06-.91-3.2-1.38a18.24,18.24,0,0,1-7.29-5,11.51,11.51,0,0,1-2.55-7.5,12,12,0,0,1,1.4-5.9,11.66,11.66,0,0,1,3.76-4.08,16.31,16.31,0,0,1,5.29-2.26,40,40,0,0,1,6-.68c3.83-.32,6.11-.45,8.46.62a4.75,4.75,0,0,1,2,1.63,5.37,5.37,0,0,1,0,5.55,5.61,5.61,0,0,1-6.5,2.59,17.91,17.91,0,0,0-3.42-.39A9.17,9.17,0,0,0,30,24a5.32,5.32,0,0,0-1.53.58,2.26,2.26,0,0,0-.74.69,1.23,1.23,0,0,0-.19.69,1.35,1.35,0,0,0,.23.8,4,4,0,0,0,1,1,12.74,12.74,0,0,0,2,1.18c.85.42,1.83.85,2.9,1.3A34.62,34.62,0,0,1,38,32.42a16.32,16.32,0,0,1,3.46,2.7,11.16,11.16,0,0,1,2.32,3.62,12.43,12.43,0,0,1,.81,4.64,12.55,12.55,0,0,1-1.41,6.14,11.58,11.58,0,0,1-3.82,4.08A15.83,15.83,0,0,1,34,55.75a29.56,29.56,0,0,1-6.13.62m-9.33-6.25c0,.11,0,.21,0,.32a2.56,2.56,0,0,0,.86,1.32c.47.41,1,.57,2.71.81a37.69,37.69,0,0,0,5.72.51,25.82,25.82,0,0,0,5.45-.55,12.59,12.59,0,0,0,4.26-1.69,8.14,8.14,0,0,0,2.73-2.92,9.28,9.28,0,0,0,1-4.54A9.32,9.32,0,0,0,40.74,40a8.06,8.06,0,0,0-1.64-2.56,13.4,13.4,0,0,0-2.77-2.15,32.06,32.06,0,0,0-3.89-1.92c-1.13-.47-2.17-.93-3.08-1.38a16.68,16.68,0,0,1-2.5-1.47A7.28,7.28,0,0,1,25,28.62,4.66,4.66,0,0,1,24.25,26,4.47,4.47,0,0,1,25,23.54a5.5,5.5,0,0,1,1.8-1.72,8.21,8.21,0,0,1,2.5-1,11.92,11.92,0,0,1,3.05-.32,20.35,20.35,0,0,1,4,.45c1,.19,1.3.24,1.78,0A2.6,2.6,0,0,0,39.32,20a2.15,2.15,0,0,0,.13-2.06,1.58,1.58,0,0,0-.67-.49c-1.62-.74-3.37-.63-6.84-.34a37.38,37.38,0,0,0-5.48.61,13,13,0,0,0-4.22,1.79,8.57,8.57,0,0,0-2.73,3,8.76,8.76,0,0,0-1,4.3,8.17,8.17,0,0,0,1.82,5.42,15,15,0,0,0,6,4.06c1.17.48,2.29,1,3.31,1.42a20.26,20.26,0,0,1,2.85,1.57,8.3,8.3,0,0,1,2.14,2,4.92,4.92,0,0,1,1,2.95A4.61,4.61,0,0,1,35,46.48a5.09,5.09,0,0,1-1.75,1.8,8.34,8.34,0,0,1-2.51,1,10.62,10.62,0,0,1-3.31.33,12.2,12.2,0,0,1-2.51-.52l-.8-.21a16.44,16.44,0,0,0-2.72-.61,3.15,3.15,0,0,0-2,.32,2.43,2.43,0,0,0-.85,1.51"/><path class="cls-1" d="M76.43,56.64h-.49a5.37,5.37,0,0,1-4.53-2.48L60.94,37.89h-.15V51.25a5.4,5.4,0,0,1-5.39,5.39h-.88a5.39,5.39,0,0,1-5.39-5.39V6.1A5.39,5.39,0,0,1,54.52.7h.88a5.4,5.4,0,0,1,5.39,5.4V36.31h.15l9.66-15a5.39,5.39,0,1,1,8.81,6.19l-4.49,5.9a5.39,5.39,0,0,0-.09,6.43l6,8.23a5.39,5.39,0,0,1-4.36,8.56"/><path class="cls-1" d="M76.42,57.34h-.48a6,6,0,0,1-5.12-2.8L61.49,40.06V51.24a6.1,6.1,0,0,1-6.09,6.1h-.88a6.1,6.1,0,0,1-6.09-6.1V6.1A6.1,6.1,0,0,1,54.52,0h.88a6.1,6.1,0,0,1,6.09,6.1V34.15L70,20.94a6.1,6.1,0,1,1,10,7l-4.5,5.89a4.68,4.68,0,0,0-.07,5.6l6,8.23a6.1,6.1,0,0,1-4.94,9.67M60.08,37.19h1.24L72,53.78a4.66,4.66,0,0,0,3.94,2.15h.48a4.68,4.68,0,0,0,3.8-7.43l-6-8.24a6.06,6.06,0,0,1,.1-7.27l4.5-5.9a4.69,4.69,0,0,0-3.73-7.53,4.65,4.65,0,0,0-3.94,2.15L61.32,37H60.08V6.1A4.69,4.69,0,0,0,55.4,1.41h-.88A4.7,4.7,0,0,0,49.83,6.1V51.24a4.7,4.7,0,0,0,4.69,4.69h.88a4.69,4.69,0,0,0,4.68-4.69Z"/><path class="cls-1" d="M102,56.86a19.15,19.15,0,1,1,19.15-19.15A19.17,19.17,0,0,1,102,56.86m0-28a8.83,8.83,0,1,0,8.83,8.83A8.84,8.84,0,0,0,102,28.88"/><path class="cls-1" d="M145.16,56.86a19.15,19.15,0,1,1,19.15-19.15,19.17,19.17,0,0,1-19.15,19.15m0-28A8.83,8.83,0,1,0,154,37.71a8.84,8.84,0,0,0-8.83-8.83"/><path class="cls-1" d="M174.16,55.68h0a5.63,5.63,0,0,1-5.63-5.63V7.29a5.63,5.63,0,1,1,11.26,0V50.05a5.63,5.63,0,0,1-5.63,5.63"/><path class="cls-2" d="M174.16,55.68h0a5.63,5.63,0,0,1-5.63-5.63V7.29a5.63,5.63,0,1,1,11.26,0V50.05A5.63,5.63,0,0,1,174.16,55.68Z"/><path class="cls-1" d="M120.68,66.43a.87.87,0,0,1,.64.27.9.9,0,0,1,.27.66A.91.91,0,0,1,120,68a.92.92,0,0,1-.27-.67.87.87,0,0,1,.27-.64.84.84,0,0,1,.64-.26M120,68.76h1.43v5.68H120Z"/><path class="cls-1" d="M126.16,69.56l-.89.88a1.46,1.46,0,0,0-1-.54.61.61,0,0,0-.38.11.29.29,0,0,0-.13.25.32.32,0,0,0,.08.21,1.48,1.48,0,0,0,.43.26l.52.27a2.92,2.92,0,0,1,1.13.83,1.6,1.6,0,0,1,.31,1,1.64,1.64,0,0,1-.55,1.26,2.13,2.13,0,0,1-1.49.5,2.38,2.38,0,0,1-2-1l.88-1a2.08,2.08,0,0,0,.59.47,1.27,1.27,0,0,0,.59.18.74.74,0,0,0,.46-.13.41.41,0,0,0,.17-.32c0-.22-.21-.43-.62-.64l-.48-.24q-1.38-.69-1.38-1.74a1.54,1.54,0,0,1,.52-1.15,1.93,1.93,0,0,1,1.33-.47,2.33,2.33,0,0,1,1,.24,2.31,2.31,0,0,1,.83.7"/><polygon class="cls-1" points="130.54 66.67 131.97 66.67 131.97 68.76 132.81 68.76 132.81 69.99 131.97 69.99 131.97 74.44 130.54 74.44 130.54 69.99 130.54 68.76 130.54 66.67"/><path class="cls-1" d="M133.58,66.57H135v2.77a3.3,3.3,0,0,1,.84-.54,2.18,2.18,0,0,1,.86-.18,1.92,1.92,0,0,1,1.42.58,2,2,0,0,1,.5,1.49v3.75H137.2V72a6.48,6.48,0,0,0-.09-1.34,1,1,0,0,0-.32-.52.93.93,0,0,0-.56-.17,1.08,1.08,0,0,0-.75.29,1.56,1.56,0,0,0-.43.78,6.76,6.76,0,0,0-.06,1.17v2.28h-1.41Z"/><path class="cls-1" d="M145.67,72h-4.58a1.53,1.53,0,0,0,.53,1,1.67,1.67,0,0,0,1.1.36,1.86,1.86,0,0,0,1.37-.56l1.2.57a2.9,2.9,0,0,1-1.07.94,3.45,3.45,0,0,1-1.49.3,2.93,2.93,0,0,1-2.17-.84,2.86,2.86,0,0,1-.84-2.11,3,3,0,0,1,.83-2.16,2.82,2.82,0,0,1,2.1-.85,2.91,2.91,0,0,1,2.18.85,3.12,3.12,0,0,1,.84,2.27Zm-1.43-1.12a1.46,1.46,0,0,0-.55-.77,1.62,1.62,0,0,0-1-.3,1.66,1.66,0,0,0-1,.34,1.83,1.83,0,0,0-.52.73Z"/><path class="cls-1" d="M146.14,69h.51a10.57,10.57,0,0,1,0-1.32,1.07,1.07,0,0,1,.39-.75,1.62,1.62,0,0,1,.95-.27,3.07,3.07,0,0,1,1,.13L149,67.91a.64.64,0,0,0-.2,0c-.11,0-.43-.07-.59.12a.42.42,0,0,0-.08.32V69H149v1.2h-.91v4.47h-1.42V70.21h-.51Z"/><path class="cls-1" d="M149.81,68.76h1.43V71.5a3.81,3.81,0,0,0,.11,1.1,1.07,1.07,0,0,0,.36.49,1,1,0,0,0,.6.17,1.08,1.08,0,0,0,.6-.17,1,1,0,0,0,.37-.5,3.75,3.75,0,0,0,.09-1V68.76h1.42v2.41a6.05,6.05,0,0,1-.23,2,2.23,2.23,0,0,1-.85,1,2.56,2.56,0,0,1-1.42.35,2.52,2.52,0,0,1-1.51-.41A2.26,2.26,0,0,1,150,73a7.14,7.14,0,0,1-.16-1.87Z"/><polygon class="cls-1" points="156.39 66.67 157.82 66.67 157.82 68.76 158.66 68.76 158.66 69.99 157.82 69.99 157.82 74.44 156.39 74.44 156.39 69.99 155.66 69.99 155.66 68.76 156.39 68.76 156.39 66.67"/><path class="cls-1" d="M159.42,68.76h1.44V71.5a3.47,3.47,0,0,0,.11,1.1,1,1,0,0,0,.35.49,1.14,1.14,0,0,0,1.2,0,1,1,0,0,0,.37-.5,3.75,3.75,0,0,0,.09-1V68.76h1.42v2.41a5.8,5.8,0,0,1-.23,2,2.17,2.17,0,0,1-.85,1,2.54,2.54,0,0,1-1.41.35,2.48,2.48,0,0,1-1.51-.41,2.15,2.15,0,0,1-.81-1.17,6.61,6.61,0,0,1-.17-1.87Z"/><path class="cls-1" d="M165.5,68.76h1.22v.72a1.48,1.48,0,0,1,.53-.64,1.25,1.25,0,0,1,.72-.22,1.48,1.48,0,0,1,.58.14L168.1,70a1.05,1.05,0,0,0-.41-.13.65.65,0,0,0-.55.41,3.57,3.57,0,0,0-.23,1.6v2.57H165.5Z"/><path class="cls-1" d="M174.94,72h-4.58a1.48,1.48,0,0,0,.53,1,1.66,1.66,0,0,0,1.1.36,1.86,1.86,0,0,0,1.37-.56l1.2.57a3,3,0,0,1-1.07.94,3.45,3.45,0,0,1-1.49.3,3,3,0,0,1-2.18-.84,2.86,2.86,0,0,1-.84-2.11,3,3,0,0,1,.84-2.16,2.82,2.82,0,0,1,2.1-.85,2.92,2.92,0,0,1,2.18.85,3.12,3.12,0,0,1,.84,2.27Zm-1.43-1.12a1.46,1.46,0,0,0-.55-.77,1.62,1.62,0,0,0-1-.3,1.64,1.64,0,0,0-1,.34,1.84,1.84,0,0,0-.53.73Z"/></g></g></svg>