<svg xmlns="http://www.w3.org/2000/svg" viewBox="0 0 71 84.38"><defs><style>.cls-1{fill:blue;}</style></defs><title>Asset 8</title><g id="Layer_2" data-name="Layer 2"><g id="Layer_1-2" data-name="Layer 1"><path class="cls-1" d="M67.25,53.27l3.68-9.53a1,1,0,0,0-.29-1.15l-3.85-3.33a32.12,32.12,0,0,0-.23-8.92l3.71-3.55a1,1,0,0,0,.23-1.16l-4.1-9.37a1,1,0,0,0-1-.61L60.25,16a29.1,29.1,0,0,0-6.47-6.16l.15-5.13a1,1,0,0,0-.66-1L43.74.07a1,1,0,0,0-1.15.29L39.26,4.21a32.12,32.12,0,0,0-8.92.23L26.79.74A1,1,0,0,0,25.63.5L16.26,4.6a1,1,0,0,0-.61,1L16,10.75a28.87,28.87,0,0,0-6.16,6.47l-5.13-.15a1,1,0,0,0-1,.66L.07,27.27a1,1,0,0,0,.29,1.14l3.85,3.33a32.12,32.12,0,0,0,.23,8.92L.73,44.21A1,1,0,0,0,.5,45.37l4.1,9.37a1,1,0,0,0,1,.61L10.75,55a28.87,28.87,0,0,0,6.47,6.16l-.15,5.13a1,1,0,0,0,.66,1L25,70.08V76c0,2.34,4.26,4.14,4.26,4.14h5.17v3.26a1,1,0,0,0,2.06,0V80.26H41.7S46,78.29,46,76V70.24l8.78-3.84a1,1,0,0,0,.61-1L55,60.25a29.1,29.1,0,0,0,6.16-6.47l5.13.15A1,1,0,0,0,67.25,53.27ZM43.9,62.08v2.4H40.65V50.93a2.07,2.07,0,0,1,2.06-2.09,4.13,4.13,0,0,0,4.11-4.15v-.57a4.1,4.1,0,1,0-2.06,0v.57a2.08,2.08,0,0,1-2.07,2.09,4.13,4.13,0,0,0-4.1,4.15V64.48H36.53V34.35a4.1,4.1,0,1,0-2.06,0V64.48H32.59V50.93a4.14,4.14,0,0,0-4.11-4.15,2.08,2.08,0,0,1-2.07-2.09v-.57a4,4,0,0,0,1.86-1.06,4.1,4.1,0,1,0-3.92,1.06v.57a4.14,4.14,0,0,0,4.11,4.15,2.08,2.08,0,0,1,2.07,2.09V64.48H27.1v-2.4A15.83,15.83,0,0,0,22,50.43,19.91,19.91,0,0,1,35.5,15.86h.19A19.9,19.9,0,0,1,50.8,48.53a20.9,20.9,0,0,1-1.71,1.81A16.13,16.13,0,0,0,43.9,62.08Zm.35-20.48a2,2,0,1,1,2.87,0,2,2,0,0,1-1.44.6,1.94,1.94,0,0,1-1.43-.6ZM34.13,31.82a2,2,0,1,1,2.87,0,2,2,0,0,1-2.87,0ZM24,41.6a2,2,0,1,1,1.43.61A2,2,0,0,1,24,41.6ZM41.71,78.2H29.29A2.2,2.2,0,0,1,27.1,76v-.36h9a1.07,1.07,0,0,0,1.06-.9,1,1,0,0,0-1-1.16h-9V71h2.63a1.05,1.05,0,0,0,1.06-.9,1,1,0,0,0-1-1.16H27.1v-2.4H43.9v2.4H35.69a1.05,1.05,0,0,0-1,.8,1,1,0,0,0,1,1.26H43.9v2.57H41.53a1.05,1.05,0,0,0-1,.8,1,1,0,0,0,1,1.26h2.4V76A2.2,2.2,0,0,1,41.71,78.2ZM60.66,51.73a1,1,0,0,0-.89.45A27.18,27.18,0,0,1,53.32,59a1,1,0,0,0-.42.91l.37,5L46,68v-6a14.09,14.09,0,0,1,4.53-10.24A22,22,0,1,0,20.63,52,13.81,13.81,0,0,1,25,62.1v5.81l-5.91-2.28.15-5a1,1,0,0,0-.46-.89A27.18,27.18,0,0,1,12,53.32a1,1,0,0,0-.9-.42l-5,.37L2.64,45.21l3.59-3.44a1,1,0,0,0,.3-.93,30.5,30.5,0,0,1-.25-9.39,1,1,0,0,0-.34-.92L2.21,27.32l3.17-8.19,5,.15a1,1,0,0,0,.89-.46A27,27,0,0,1,17.69,12a1,1,0,0,0,.41-.9l-.36-5,8.05-3.53,3.44,3.59a1,1,0,0,0,.93.3,30.24,30.24,0,0,1,9.4-.24,1.05,1.05,0,0,0,.91-.35l3.21-3.73,8.19,3.17-.14,5a1,1,0,0,0,.45.89A27,27,0,0,1,59,17.69a1,1,0,0,0,.91.41l5-.36,3.52,8.05-3.59,3.44a1,1,0,0,0-.3.93,30.55,30.55,0,0,1,.25,9.4,1,1,0,0,0,.34.91l3.73,3.21-3.17,8.19Z"/></g></g></svg>