.
<svg xmlns="http://www.w3.org/2000/svg" viewBox="0 0 168.89 70.16"><defs><style>.cls-1{fill:blue;}</style></defs><title>Asset 4</title><g id="Layer_2" data-name="Layer 2"><g id="Layer_1-2" data-name="Layer 1"><path class="cls-1" d="M11.69,48.43a5.85,5.85,0,1,1-5.84-5.85,5.85,5.85,0,0,1,5.84,5.85"/><path class="cls-1" d="M15.89,47a3.8,3.8,0,0,1,1.44-2.56,4.31,4.31,0,0,1,2.82-.59,14,14,0,0,1,2.87.63,15.11,15.11,0,0,0,2.82.63,8.41,8.41,0,0,0,2.66-.27,6.07,6.07,0,0,0,1.89-.76,3.32,3.32,0,0,0,1.13-1.14,2.85,2.85,0,0,0,.37-1.43,3.15,3.15,0,0,0-.59-1.87,6.67,6.67,0,0,0-1.63-1.52,17.33,17.33,0,0,0-2.46-1.34q-1.41-.64-3.06-1.32a15.62,15.62,0,0,1-6.23-4.26,9.28,9.28,0,0,1-2.06-6.07A9.72,9.72,0,0,1,17,20.31,9.55,9.55,0,0,1,20,17a13.66,13.66,0,0,1,4.47-1.9,34.55,34.55,0,0,1,5.38-.61c3.41-.29,5.31-.4,7.18.45a2.89,2.89,0,0,1,1.27,1,3.53,3.53,0,0,1,0,3.58,4,4,0,0,1-1.93,1.65c-1.63.65-2.43-.29-6-.35a9.7,9.7,0,0,0-2.49.26,6.49,6.49,0,0,0-1.9.73A3.72,3.72,0,0,0,24.75,23a2.69,2.69,0,0,0-.42,1.48A2.76,2.76,0,0,0,24.8,26a5.34,5.34,0,0,0,1.34,1.35,14.5,14.5,0,0,0,2.12,1.24c.83.41,1.77.83,2.81,1.26a30.7,30.7,0,0,1,3.85,1.9,13.56,13.56,0,0,1,2.92,2.28A8.81,8.81,0,0,1,39.71,37a10.27,10.27,0,0,1,.65,3.79,10.1,10.1,0,0,1-1.14,5,9.23,9.23,0,0,1-3.07,3.29,13.63,13.63,0,0,1-4.52,1.8,26.47,26.47,0,0,1-5.44.55,37,37,0,0,1-5.58-.5,5.85,5.85,0,0,1-3.35-1.12A3.83,3.83,0,0,1,16,47.7a2.63,2.63,0,0,1-.07-.73"/><path class="cls-1" d="M26.19,53a39,39,0,0,1-5.79-.51A7.3,7.3,0,0,1,16.25,51,5.26,5.26,0,0,1,14.45,48,4.71,4.71,0,0,1,14.34,47l0-.2a5.31,5.31,0,0,1,2.08-3.6,5.72,5.72,0,0,1,3.76-.87,14.8,14.8,0,0,1,3.2.67l.75.19a10.15,10.15,0,0,0,1.79.41,7.27,7.27,0,0,0,2.18-.23,4.9,4.9,0,0,0,1.44-.57,1.88,1.88,0,0,0,.62-.6,1.29,1.29,0,0,0,.17-.67,1.59,1.59,0,0,0-.3-1,4.85,4.85,0,0,0-1.25-1.15,16.08,16.08,0,0,0-2.23-1.22c-.92-.42-1.93-.86-3-1.29a17.25,17.25,0,0,1-6.85-4.71,10.85,10.85,0,0,1-2.4-7,10.79,10.79,0,0,1,4.85-9.37,15.24,15.24,0,0,1,5-2.12A35.26,35.26,0,0,1,29.75,13c3.6-.3,5.74-.42,8,.59a4.39,4.39,0,0,1,1.91,1.52,5.06,5.06,0,0,1,0,5.22,5.22,5.22,0,0,1-6.1,2.43,17.12,17.12,0,0,0-3.21-.36,8.66,8.66,0,0,0-2.11.22,4.87,4.87,0,0,0-1.44.55,2.11,2.11,0,0,0-.7.65,1.18,1.18,0,0,0-.18.65,1.34,1.34,0,0,0,.21.75,4,4,0,0,0,1,.95,13.13,13.13,0,0,0,1.89,1.11c.79.39,1.71.8,2.72,1.21a34.57,34.57,0,0,1,4,2A15.26,15.26,0,0,1,39,33a10.39,10.39,0,0,1,2.19,3.4,11.82,11.82,0,0,1,.76,4.36,11.75,11.75,0,0,1-1.33,5.77A10.78,10.78,0,0,1,37,50.35a14.81,14.81,0,0,1-5,2,28.12,28.12,0,0,1-5.76.58m-8.76-5.87a1.54,1.54,0,0,0,0,.3,2.32,2.32,0,0,0,.8,1.24c.44.39,1,.54,2.55.76a35,35,0,0,0,5.37.48,24.76,24.76,0,0,0,5.12-.51,11.76,11.76,0,0,0,4-1.59A7.67,7.67,0,0,0,37.88,45a8.74,8.74,0,0,0,.93-4.27,8.68,8.68,0,0,0-.54-3.22,7.25,7.25,0,0,0-1.54-2.4,12.31,12.31,0,0,0-2.6-2,31,31,0,0,0-3.65-1.81c-1.07-.44-2.05-.87-2.9-1.29a15.69,15.69,0,0,1-2.35-1.39,6.82,6.82,0,0,1-1.71-1.73,4.34,4.34,0,0,1-.74-2.46,4.25,4.25,0,0,1,.67-2.32,5.23,5.23,0,0,1,1.69-1.61,7.84,7.84,0,0,1,2.35-.92,11.09,11.09,0,0,1,2.86-.3,18.42,18.42,0,0,1,3.75.42c.95.18,1.22.22,1.68,0a2.44,2.44,0,0,0,1.16-1,2.07,2.07,0,0,0,.12-1.94,1.44,1.44,0,0,0-.63-.45c-1.53-.7-3.16-.6-6.43-.33a33.31,33.31,0,0,0-5.14.58,12.39,12.39,0,0,0-4,1.68,7.9,7.9,0,0,0-2.56,2.77,8.26,8.26,0,0,0-.92,4,7.79,7.79,0,0,0,1.7,5.1A14.13,14.13,0,0,0,24.75,34c1.09.45,2.14.91,3.1,1.34a19.43,19.43,0,0,1,2.68,1.47,8.14,8.14,0,0,1,2,1.89,4.6,4.6,0,0,1,.9,2.78,4.4,4.4,0,0,1-.58,2.19,4.78,4.78,0,0,1-1.64,1.68,7.57,7.57,0,0,1-2.36,1,10.41,10.41,0,0,1-3.11.32,11.79,11.79,0,0,1-2.36-.5l-.75-.19a15.72,15.72,0,0,0-2.55-.58,2.91,2.91,0,0,0-1.86.31,2.24,2.24,0,0,0-.8,1.41"/><path class="cls-1" d="M71.8,53.21h-.46a5.08,5.08,0,0,1-4.26-2.33L57.24,35.6h-.13V48.14A5.07,5.07,0,0,1,52,53.21h-.82a5.07,5.07,0,0,1-5.07-5.07V5.73A5.07,5.07,0,0,1,51.22.66H52a5.07,5.07,0,0,1,5.07,5.07V34.11h.13L66.32,20a5.06,5.06,0,1,1,8.28,5.82l-4.22,5.54a5.07,5.07,0,0,0-.08,6l5.6,7.73a5.07,5.07,0,0,1-4.1,8"/><path class="cls-1" d="M71.79,53.87h-.45a5.7,5.7,0,0,1-4.81-2.63L57.77,37.63V48.14A5.74,5.74,0,0,1,52,53.87h-.82a5.74,5.74,0,0,1-5.73-5.73V5.73A5.74,5.74,0,0,1,51.22,0H52a5.74,5.74,0,0,1,5.73,5.73V32.08l8-12.4a5.73,5.73,0,1,1,9.37,6.57L70.9,31.79a4.38,4.38,0,0,0-.06,5.26l5.6,7.73a5.73,5.73,0,0,1-4.65,9.09M56.44,34.94h1.17l10,15.59a4.39,4.39,0,0,0,3.7,2h.45a4.41,4.41,0,0,0,3.57-7l-5.59-7.74A5.69,5.69,0,0,1,69.85,31l4.23-5.54a4.41,4.41,0,0,0-3.5-7.07,4.37,4.37,0,0,0-3.7,2L57.6,34.77H56.44v-29A4.41,4.41,0,0,0,52,1.32h-.82a4.42,4.42,0,0,0-4.41,4.41V48.14a4.42,4.42,0,0,0,4.41,4.41H52a4.41,4.41,0,0,0,4.4-4.41Z"/><path class="cls-1" d="M95.81,53.42a18,18,0,1,1,18-18,18,18,0,0,1-18,18m0-26.29a8.3,8.3,0,1,0,8.29,8.3,8.3,8.3,0,0,0-8.29-8.3"/><path class="cls-1" d="M136.37,53.42a18,18,0,1,1,18-18,18,18,0,0,1-18,18m0-26.29a8.3,8.3,0,1,0,8.29,8.3,8.31,8.31,0,0,0-8.29-8.3"/><path class="cls-1" d="M163.61,52.31h0A5.29,5.29,0,0,1,158.32,47V6.85a5.29,5.29,0,1,1,10.57,0V47a5.28,5.28,0,0,1-5.28,5.29"/><path class="cls-1" d="M163.61,52.31h0A5.29,5.29,0,0,1,158.32,47V6.85a5.29,5.29,0,1,1,10.57,0V47A5.28,5.28,0,0,1,163.61,52.31Z"/><path class="cls-1" d="M113.37,62.4a.87.87,0,0,1,.85.87.84.84,0,0,1-1.45.61.89.89,0,0,1,0-1.23.86.86,0,0,1,.61-.25m-.67,2.2H114v5.33H112.7Z"/><path class="cls-1" d="M118.51,65.34l-.82.83a1.44,1.44,0,0,0-.92-.5.52.52,0,0,0-.35.1.27.27,0,0,0-.13.23.3.3,0,0,0,.08.2,1.38,1.38,0,0,0,.4.25l.49.24a3,3,0,0,1,1.06.78,1.59,1.59,0,0,1,.29.94,1.53,1.53,0,0,1-.52,1.18,2,2,0,0,1-1.4.48,2.21,2.21,0,0,1-1.86-.92l.82-.89a1.94,1.94,0,0,0,.55.44,1.26,1.26,0,0,0,.56.17.65.65,0,0,0,.43-.13.35.35,0,0,0,.16-.29c0-.21-.19-.41-.58-.6l-.45-.23c-.87-.43-1.3-1-1.3-1.63a1.44,1.44,0,0,1,.49-1.08,1.78,1.78,0,0,1,1.25-.45,2.21,2.21,0,0,1,1,.23,2.18,2.18,0,0,1,.77.65"/><polygon class="cls-1" points="122.63 62.63 123.97 62.63 123.97 64.6 124.77 64.6 124.77 65.75 123.97 65.75 123.97 69.93 122.63 69.93 122.63 65.75 122.63 64.6 122.63 62.63"/><path class="cls-1" d="M125.49,62.54h1.32v2.6a3.1,3.1,0,0,1,.79-.51,2.14,2.14,0,0,1,.81-.17,1.77,1.77,0,0,1,1.33.55,1.92,1.92,0,0,1,.47,1.4v3.52h-1.32V67.59a5.6,5.6,0,0,0-.09-1.25.79.79,0,0,0-.83-.65,1,1,0,0,0-.69.27,1.42,1.42,0,0,0-.41.73,6,6,0,0,0-.06,1.1v2.14h-1.32Z"/><path class="cls-1" d="M136.84,67.65h-4.29a1.39,1.39,0,0,0,.49.9,1.54,1.54,0,0,0,1,.34,1.78,1.78,0,0,0,1.29-.52l1.13.52a2.66,2.66,0,0,1-1,.89,3.16,3.16,0,0,1-1.39.29,2.77,2.77,0,0,1-2.05-.8,2.69,2.69,0,0,1-.79-2,2.74,2.74,0,0,1,.79-2,2.62,2.62,0,0,1,2-.81,2.74,2.74,0,0,1,2.05.81,2.92,2.92,0,0,1,.79,2.13Zm-1.33-1.05a1.38,1.38,0,0,0-.53-.73,1.55,1.55,0,0,0-.9-.28,1.58,1.58,0,0,0-1,.32,1.81,1.81,0,0,0-.5.69Z"/><path class="cls-1" d="M137.29,64.83h.47c0-.7,0-1.11,0-1.24a1,1,0,0,1,.37-.7,1.51,1.51,0,0,1,.89-.26,3,3,0,0,1,1,.12l-.1,1a.74.74,0,0,0-.19,0c-.11,0-.41-.07-.55.11a.34.34,0,0,0-.08.3v.67H140V66h-.85v4.2h-1.34V66h-.47Z"/><path class="cls-1" d="M140.73,64.6h1.35v2.57a3.47,3.47,0,0,0,.11,1,.84.84,0,0,0,.33.45.93.93,0,0,0,.56.16,1,1,0,0,0,.57-.16.89.89,0,0,0,.34-.47,3.3,3.3,0,0,0,.09-1V64.6h1.33v2.26a5.49,5.49,0,0,1-.22,1.91,2,2,0,0,1-.79,1,2.45,2.45,0,0,1-1.33.34,2.3,2.3,0,0,1-1.42-.4,2,2,0,0,1-.76-1.09,6.32,6.32,0,0,1-.16-1.76Z"/><polygon class="cls-1" points="146.92 62.63 148.26 62.63 148.26 64.6 149.05 64.6 149.05 65.75 148.26 65.75 148.26 69.93 146.92 69.93 146.92 65.75 146.23 65.75 146.23 64.6 146.92 64.6 146.92 62.63"/><path class="cls-1" d="M149.76,64.6h1.35v2.57a3.47,3.47,0,0,0,.11,1,.84.84,0,0,0,.33.45.93.93,0,0,0,.56.16,1,1,0,0,0,.57-.16.89.89,0,0,0,.34-.47,3.3,3.3,0,0,0,.09-1V64.6h1.33v2.26a5.49,5.49,0,0,1-.22,1.91,2,2,0,0,1-.79,1,2.45,2.45,0,0,1-1.33.34,2.3,2.3,0,0,1-1.42-.4,2,2,0,0,1-.76-1.09,6.32,6.32,0,0,1-.16-1.76Z"/><path class="cls-1" d="M155.47,64.6h1.15v.67a1.31,1.31,0,0,1,.5-.6,1.16,1.16,0,0,1,.67-.21,1.32,1.32,0,0,1,.55.14l-.42,1.15a.93.93,0,0,0-.39-.12A.62.62,0,0,0,157,66a3.58,3.58,0,0,0-.21,1.5v2.42h-1.33Z"/><path class="cls-1" d="M164.34,67.65H160a1.4,1.4,0,0,0,.5.9,1.52,1.52,0,0,0,1,.34,1.78,1.78,0,0,0,1.29-.52l1.12.52a2.64,2.64,0,0,1-1,.89,3.21,3.21,0,0,1-1.4.29,2.77,2.77,0,0,1-2.05-.8,2.68,2.68,0,0,1-.78-2,2.78,2.78,0,0,1,.78-2,2.65,2.65,0,0,1,2-.81,2.72,2.72,0,0,1,2,.81,2.88,2.88,0,0,1,.79,2.13ZM163,66.6a1.36,1.36,0,0,0-.52-.73,1.58,1.58,0,0,0-.91-.28,1.6,1.6,0,0,0-1,.32,1.7,1.7,0,0,0-.49.69Z"/></g></g></svg>