<svg id="Layer_4" data-name="Layer 4" xmlns="http://www.w3.org/2000/svg" viewBox="0 0 1170 405.96"><defs><style>.cls-1{fill:#1b2c38;}.cls-2{fill:#27c7cd;}.cls-3{fill:#ffcb05;}.cls-4,.cls-8{fill:#fff;}.cls-5{fill:none;}.cls-6{fill:#8c97a3;}.cls-7{fill:#949fac;}.cls-8{stroke:#282d33;stroke-width:4.03px;}</style></defs><title>01-slide</title><path class="cls-1" d="M293.58,442.89V415.94h-2.7v26.95a64,64,0,0,0,62.88,64v-2.7A61.3,61.3,0,0,1,293.58,442.89Z" transform="translate(-25.56 -105.82)"/><path class="cls-1" d="M382.77,497.38l1.2,2.42c.84-.44,1.69-.9,2.52-1.37l-1.38-2.32C384.34,496.55,383.56,497,382.77,497.38Z" transform="translate(-25.56 -105.82)"/><path class="cls-1" d="M374.15,501l.82,2.57c.9-.3,1.81-.63,2.7-1l-1-2.5C375.83,500.44,375,500.74,374.15,501Z" transform="translate(-25.56 -105.82)"/><path class="cls-1" d="M399.72,488.36c.68-.67,1.35-1.36,2-2.06l-2-1.81q-.91,1-1.86,1.92Z" transform="translate(-25.56 -105.82)"/><path class="cls-1" d="M390.73,492.47l1.55,2.21c.78-.56,1.54-1.15,2.29-1.74l-1.72-2.09C392.16,491.41,391.45,492,390.73,492.47Z" transform="translate(-25.56 -105.82)"/><path class="cls-1" d="M358.44,504.05c-.88.05-1.77.08-2.66.1v2.7c1,0,1.91-.05,2.86-.11Z" transform="translate(-25.56 -105.82)"/><path class="cls-1" d="M368.31,505.41l-.61-2.63c-.86.19-1.74.36-2.61.51l.41,2.67C366.44,505.8,367.38,505.62,368.31,505.41Z" transform="translate(-25.56 -105.82)"/><path class="cls-1" d="M415,453.83l2.65.52c.17-.93.32-1.88.45-2.83l-2.68-.32C415.34,452.08,415.2,453,415,453.83Z" transform="translate(-25.56 -105.82)"/><path class="cls-1" d="M416,442.89c0,.55,0,1.1,0,1.64l2.69.12c0-.59,0-1.17,0-1.76v-1.07H416Z" transform="translate(-25.56 -105.82)"/><rect class="cls-1" x="390.45" y="326.43" width="2.7" height="2.77"/><path class="cls-1" d="M405.52,477.17c-.5.74-1,1.46-1.54,2.17l2.14,1.65c.57-.77,1.12-1.55,1.66-2.34Z" transform="translate(-25.56 -105.82)"/><rect class="cls-1" x="390.45" y="316.87" width="2.7" height="2.77"/><path class="cls-1" d="M413.49,460.34c-.25.85-.52,1.7-.81,2.53l2.54.93c.31-.91.6-1.82.87-2.74Z" transform="translate(-25.56 -105.82)"/><path class="cls-1" d="M410.15,469.06c-.38.8-.78,1.6-1.19,2.38l2.37,1.3c.44-.84.87-1.7,1.28-2.56Z" transform="translate(-25.56 -105.82)"/><polygon class="cls-2" points="354.6 73.06 343.09 79.71 331.59 86.35 331.59 73.06 331.59 59.78 343.09 66.42 354.6 73.06"/><rect class="cls-3" x="304.05" y="41.41" width="15.46" height="15.46"/><rect class="cls-3" x="20.38" y="54.52" width="19" height="19"/><rect class="cls-1" x="342.91" y="46.01" width="2.7" height="2.7"/><rect class="cls-1" x="320.83" y="46.01" width="3.5" height="2.7"/><rect class="cls-1" x="331.87" y="46.01" width="3.5" height="2.7"/><rect class="cls-1" x="310.6" y="46.01" width="2.7" height="2.7"/><rect class="cls-1" x="310.6" y="23.93" width="2.7" height="3.5"/><rect class="cls-1" x="310.6" y="34.97" width="2.7" height="3.5"/><rect class="cls-1" x="310.6" y="13.7" width="2.7" height="2.7"/><rect class="cls-1" x="331.87" y="13.7" width="3.5" height="2.7"/><rect class="cls-1" x="320.83" y="13.7" width="3.5" height="2.7"/><rect class="cls-1" x="342.91" y="13.7" width="2.7" height="2.7"/><rect class="cls-1" x="342.91" y="23.93" width="2.7" height="3.5"/><rect class="cls-1" x="342.91" y="34.97" width="2.7" height="3.5"/><circle class="cls-3" cx="378.44" cy="16.71" r="4.42"/><path class="cls-1" d="M35.76,237.46l1.62-2.16c-.76-.54-1.55-1.05-2.35-1.52l-1.3,2.37C34.42,236.56,35.1,237,35.76,237.46Z" transform="translate(-25.56 -105.82)"/><path class="cls-1" d="M33.76,289.64l1.3,2.37c.81-.48,1.59-1,2.35-1.52l-1.62-2.16C35.13,288.79,34.45,289.23,33.76,289.64Z" transform="translate(-25.56 -105.82)"/><path class="cls-1" d="M48.5,268.49l2.64.57c.17-.92.3-1.85.39-2.77l-2.69-.19C48.76,266.9,48.65,267.7,48.5,268.49Z" transform="translate(-25.56 -105.82)"/><path class="cls-1" d="M25.61,293l.58,2.64c.91-.23,1.8-.49,2.68-.79l-.95-2.53C27.16,292.58,26.39,292.81,25.61,293Z" transform="translate(-25.56 -105.82)"/><path class="cls-1" d="M28.83,230.94c-.89-.3-1.78-.57-2.69-.79l-.58,2.63c.78.2,1.56.43,2.32.69Z" transform="translate(-25.56 -105.82)"/><path class="cls-1" d="M45.68,248.91c.36.72.7,1.45,1,2.19l2.53-.94c-.35-.86-.74-1.71-1.16-2.55Z" transform="translate(-25.56 -105.82)"/><path class="cls-1" d="M46.7,274.67c-.31.74-.64,1.47-1,2.19l2.37,1.3c.42-.84.81-1.69,1.16-2.55Z" transform="translate(-25.56 -105.82)"/><path class="cls-1" d="M44.36,241.88c-.58-.73-1.19-1.43-1.83-2.11l-1.91,1.91c.55.58,1.08,1.19,1.58,1.82Z" transform="translate(-25.56 -105.82)"/><path class="cls-1" d="M48.49,257.27c.15.8.26,1.59.35,2.39l2.69-.19c-.09-.93-.23-1.85-.4-2.77Z" transform="translate(-25.56 -105.82)"/><path class="cls-1" d="M42.22,282.28c-.5.63-1,1.24-1.58,1.82L42.56,286c.63-.68,1.25-1.39,1.82-2.12Z" transform="translate(-25.56 -105.82)"/><path class="cls-3" d="M633.17,342.06H609.6V315a33.11,33.11,0,1,1,66.21,0v9.21H652.24V315a9.54,9.54,0,1,0-19.07,0Z" transform="translate(-25.56 -105.82)"/><path class="cls-3" d="M704.24,511.79a52.09,52.09,0,0,1-52-52.06V323.61H675.8V459.73a28.46,28.46,0,1,0,56.91,0V379.57h23.57v80.16A52.1,52.1,0,0,1,704.24,511.79Z" transform="translate(-25.56 -105.82)"/><path class="cls-2" d="M212.32,108.39h-.51a98.46,98.46,0,0,0-97.88,98.33v93.57h38.42V206.72a59.68,59.68,0,1,1,119.36,0V290h38.42V206.72A98.43,98.43,0,0,0,212.32,108.39Z" transform="translate(-25.56 -105.82)"/><path class="cls-2" d="M923.37,185.28l-14.14,11.36-.88-11.32L899,186.75l-1.26-10.44-6.35,3.17-1.89-1.42-5.63-5.43-1.61,7.21,4.32,4.19L868.48,201l-5,.66-.22-9.34,3.32-14L859.9,175l-.79-6.09,8.16-8.27,6.21,1.23,2.56,3.74,9.16,1.73-7.06-8.78L871,154l.56-2.35,9.14-.79-1.13-5.94,10.31-3.12,6.82,6.15,15,1.92s6.23-.33,13.35-.65a56.95,56.95,0,0,0-68.45-30.43L853,121.28,843.74,128a.81.81,0,0,0-.32.79l1.23,7.17a1,1,0,0,0,.54.66.91.91,0,0,0,.85-.06l5.2-3.46,3.11,9.93-16.6,4.9-7.12-2.4a.89.89,0,0,0-.92.21l-3.21,3.32a.79.79,0,0,0-.19.78l2.15,7.53-6-6.46-.69-2.21c-.24.52-.5,1-.73,1.57A57.12,57.12,0,1,0,930,180.36ZM880.85,124l-7.34,9.77-10.87,2.63-.79-14.44C872.32,121.56,878.53,123.17,880.85,124Zm-56.07,72.19-.14-6.43,5-11.07a.67.67,0,0,0,.08-.39l-.91-10.69,9.47-8.27,9,18.63Z" transform="translate(-25.56 -105.82)"/><polygon class="cls-1" points="548.52 199.31 546.36 199.31 546.36 202.01 547.84 202.01 560.24 208.75 547.84 215.5 546.36 215.5 546.36 218.2 548.53 218.2 565.89 208.75 548.52 199.31"/><rect class="cls-3" x="460.75" y="198.2" width="86.84" height="21.11"/><path class="cls-1" d="M478.41,324h5.53v-2.7h-5.63V307.82h5.63v-2.7H478.3a2.58,2.58,0,0,0-1.76.79,3.31,3.31,0,0,0-.93,2.34v12.64A3,3,0,0,0,478.41,324Z" transform="translate(-25.56 -105.82)"/><rect class="cls-1" x="459.4" y="199.2" width="2.7" height="19.1"/><circle class="cls-3" cx="587.56" cy="119.93" r="27.11"/><polygon class="cls-1" points="562.86 120.23 575.25 110.41 573.58 108.29 558.52 120.23 573.58 132.17 575.25 130.05 562.86 120.23"/><polygon class="cls-1" points="616.6 120.23 601.53 108.29 599.86 110.41 612.25 120.23 599.86 130.05 601.54 132.17 616.6 120.23"/><rect class="cls-1" x="595.88" y="224.7" width="35.42" height="2.7" transform="translate(199.44 646.15) rotate(-73.76)"/><rect class="cls-1" x="264.01" y="140.5" width="2.7" height="7.29"/><path class="cls-1" d="M245,133.39l-1.08,2.47c2.16,1,4.29,2.07,6.35,3.25l1.37-2.33C249.48,135.55,247.26,134.41,245,133.39Z" transform="translate(-25.56 -105.82)"/><path class="cls-1" d="M261.17,143.16l-1.63,2.15c1.86,1.46,3.68,3,5.41,4.63l1.88-1.94C265,146.3,263.12,144.68,261.17,143.16Z" transform="translate(-25.56 -105.82)"/><path class="cls-1" d="M227,127.67l-.48,2.66c2.33.44,4.66,1,6.94,1.66l.78-2.58C231.87,128.72,229.44,128.14,227,127.67Z" transform="translate(-25.56 -105.82)"/><path class="cls-1" d="M272.53,158.13c1.48,1.85,2.89,3.78,4.2,5.76l2.27-1.46c-1.37-2.07-2.84-4.08-4.39-6Z" transform="translate(-25.56 -105.82)"/><rect class="cls-1" x="264.01" y="103.28" width="2.7" height="7.29"/><rect class="cls-1" x="264.01" y="121.89" width="2.7" height="7.29"/><path class="cls-1" d="M291.77,197.67c-.28-2.46-.67-4.93-1.17-7.35l-2.64.58c.48,2.32.86,4.68,1.12,7Z" transform="translate(-25.56 -105.82)"/><path class="cls-1" d="M287.48,179.29c-.85-2.33-1.81-4.63-2.86-6.87l-2.43,1.18c1,2.15,1.93,4.35,2.74,6.57Z" transform="translate(-25.56 -105.82)"/><path class="cls-1" d="M504.45,191.76a51.74,51.74,0,0,0-51.67,51.69V353h2.7V243.45a49,49,0,1,1,97.91,0v149h2.7v-149A51.73,51.73,0,0,0,504.45,191.76Z" transform="translate(-25.56 -105.82)"/><rect class="cls-1" x="637.1" y="294.23" width="2.7" height="7.41"/><path class="cls-1" d="M665.79,475.57a41.67,41.67,0,0,0,3.59,6.84l2.23-1.53a38.36,38.36,0,0,1-3.3-6.28Z" transform="translate(-25.56 -105.82)"/><rect class="cls-1" x="637.1" y="256.52" width="2.7" height="7.41"/><rect class="cls-1" x="637.1" y="237.66" width="2.7" height="7.41"/><rect class="cls-1" x="637.1" y="275.37" width="2.7" height="7.41"/><path class="cls-1" d="M665.58,463.86a40.65,40.65,0,0,1-.21-4.13v-3.1h-2.7v3.1a41.74,41.74,0,0,0,.24,4.48Z" transform="translate(-25.56 -105.82)"/><rect class="cls-1" x="637.1" y="313.09" width="2.7" height="7.41"/><rect class="cls-1" x="637.1" y="331.95" width="2.7" height="7.41"/><path class="cls-1" d="M678.89,489.24l-1.81,2a41.41,41.41,0,0,0,6.28,4.48l1.3-2.36A40.34,40.34,0,0,1,678.89,489.24Z" transform="translate(-25.56 -105.82)"/><rect class="cls-1" x="717.58" y="344.09" width="2.7" height="7.41"/><rect class="cls-1" x="717.58" y="325.23" width="2.7" height="7.41"/><rect class="cls-1" x="717.58" y="306.37" width="2.7" height="7.41"/><path class="cls-1" d="M742.17,468.43a39,39,0,0,1-2.21,6.73l2.45,1.13a41.11,41.11,0,0,0,2.41-7.33Z" transform="translate(-25.56 -105.82)"/><path class="cls-1" d="M713,497.66l.54,2.65a42.34,42.34,0,0,0,7.34-2.42l-1.14-2.45A38,38,0,0,1,713,497.66Z" transform="translate(-25.56 -105.82)"/><path class="cls-1" d="M694.22,500.13a40.76,40.76,0,0,0,7.63,1.15l.08-2.7a39.31,39.31,0,0,1-7-1.05Z" transform="translate(-25.56 -105.82)"/><rect class="cls-1" x="717.58" y="287.51" width="2.7" height="7.41"/><path class="cls-1" d="M734.16,484.6a40.27,40.27,0,0,1-5,5l1.68,2.11a42.6,42.6,0,0,0,5.45-5.46Z" transform="translate(-25.56 -105.82)"/><path class="cls-1" d="M642.7,292.32A22.7,22.7,0,0,0,620,315V410.2h2.7V315a20,20,0,1,1,39.93,0v8.2h2.7V315A22.71,22.71,0,0,0,642.7,292.32Z" transform="translate(-25.56 -105.82)"/><path class="cls-1" d="M898.73,415.14a19.25,19.25,0,1,1-38.49,0V285.25h-2.7V415.14a21.94,21.94,0,1,0,43.88,0V226.83h-2.69Z" transform="translate(-25.56 -105.82)"/><path class="cls-1" d="M848,267.57a12.27,12.27,0,0,0-12.25,12.27v48.22h2.69V279.84a9.57,9.57,0,1,1,19.13,0v3.71h2.7v-3.71A12.28,12.28,0,0,0,848,267.57Z" transform="translate(-25.56 -105.82)"/><path class="cls-1" d="M914.15,202.24a15.44,15.44,0,0,0-15.42,15.42v9.6h2.7v-9.6a12.71,12.71,0,1,1,25.42,0V366.19h2.7V217.66A15.43,15.43,0,0,0,914.15,202.24Z" transform="translate(-25.56 -105.82)"/><path class="cls-1" d="M997.19,379.41a33.8,33.8,0,1,1-67.59,0V365.22h-2.7v14.19a36.5,36.5,0,1,0,73,0V315.75h-2.71Z" transform="translate(-25.56 -105.82)"/><path class="cls-3" d="M268.8,382.27h44c.31-4.16,1.24-9.57,3.86-13,16.22-20.89,17.26-40.79,17.26-42.2a43.07,43.07,0,1,0-86.13,0c0,1.41,1,21.3,17.25,42.2C267.62,372.7,268.52,378.11,268.8,382.27Z" transform="translate(-25.56 -105.82)"/><path class="cls-4" d="M261.54,326.86h-4.72a34,34,0,0,1,34-33.84v4.72A29.23,29.23,0,0,0,261.54,326.86Z" transform="translate(-25.56 -105.82)"/><rect class="cls-1" x="273.76" y="335.45" width="2.7" height="46.08" transform="translate(-84.77 -51.36) rotate(-10.21)"/><rect class="cls-1" x="283.5" y="357.14" width="46.08" height="2.7" transform="translate(-126.16 490.83) rotate(-79.79)"/><polygon class="cls-1" points="283.57 231.54 278.4 233.39 272.44 231.26 271.2 231.26 265.25 233.39 259.3 231.26 258.06 231.26 252.12 233.39 246.95 231.54 246.04 234.08 251.49 236.04 252.74 236.04 258.68 233.9 264.63 236.04 265.87 236.04 271.82 233.9 277.77 236.04 279.02 236.04 284.48 234.08 283.57 231.54"/><rect class="cls-1" x="238.26" y="274.6" width="53.99" height="2.7"/><rect class="cls-1" x="238.26" y="285.48" width="53.99" height="2.7"/><rect class="cls-1" x="238.26" y="296.36" width="53.99" height="2.7"/><rect class="cls-1" x="245.88" y="308.25" width="38.76" height="2.7"/><rect class="cls-1" x="242.41" y="276.34" width="2.7" height="21.27"/><rect class="cls-1" x="263.91" y="159.09" width="2.7" height="10.1"/><rect class="cls-1" x="275.23" y="270.36" width="2.7" height="6.52" transform="matrix(0.97, -0.26, 0.26, 0.97, -86.95, -24.92)"/><rect class="cls-1" x="261.96" y="275.86" width="2.7" height="6.53" transform="translate(-129.84 63.2) rotate(-30)"/><rect class="cls-1" x="250.57" y="284.6" width="2.7" height="6.53" transform="translate(-155.33 156.62) rotate(-45)"/><rect class="cls-1" x="241.82" y="296" width="2.7" height="6.52" transform="translate(-163.14 254.44) rotate(-60.01)"/><rect class="cls-1" x="236.32" y="309.27" width="2.7" height="6.53" transform="matrix(0.26, -0.97, 0.97, 0.26, -151.31, 355.35)"/><rect class="cls-1" x="206.97" y="219.6" width="6.52" height="2.7"/><rect class="cls-1" x="234.41" y="339.67" width="6.52" height="2.7" transform="translate(-105.74 -32.67) rotate(-15)"/><rect class="cls-1" x="239.91" y="352.94" width="6.52" height="2.7" transform="translate(-170.08 63.12) rotate(-29.98)"/><rect class="cls-1" x="248.65" y="364.34" width="6.52" height="2.7" transform="translate(-210.36 179.44) rotate(-45)"/><rect class="cls-1" x="328.38" y="362.43" width="2.7" height="6.52" transform="translate(-187.56 234.36) rotate(-44.99)"/><rect class="cls-1" x="337.13" y="351.03" width="2.7" height="6.52" transform="translate(-163.16 364.41) rotate(-59.99)"/><rect class="cls-1" x="342.63" y="337.76" width="2.7" height="6.52" transform="translate(-100.04 479.14) rotate(-74.99)"/><rect class="cls-1" x="317.03" y="219.61" width="6.52" height="2.7"/><rect class="cls-1" x="340.72" y="311.19" width="6.52" height="2.7" transform="translate(-94.73 -6.16) rotate(-15)"/><rect class="cls-1" x="335.22" y="297.92" width="6.52" height="2.7" transform="translate(-129.85 103.5) rotate(-30)"/><rect class="cls-1" x="326.48" y="286.52" width="6.52" height="2.7" transform="translate(-132.54 211.7) rotate(-45.01)"/><rect class="cls-1" x="315.08" y="277.77" width="6.52" height="2.7" transform="translate(-108.11 309.46) rotate(-60)"/><rect class="cls-1" x="301.81" y="272.28" width="6.52" height="2.7" transform="translate(-63.76 391.64) rotate(-75)"/><polygon class="cls-1" points="400.79 217.04 394.04 229.44 387.29 217.04 387.29 215.55 384.59 215.55 384.59 217.72 394.04 235.09 403.49 217.72 403.49 215.55 400.79 215.55 400.79 217.04"/><rect class="cls-5" x="387.19" y="113.98" width="13.7" height="99.1"/><path class="cls-1" d="M410.05,321.6h19.1V217.11h-19.1Zm2.7-101.79h13.7V318.9h-13.7Z" transform="translate(-25.56 -105.82)"/><rect class="cls-1" x="392.69" y="112.82" width="2.7" height="98.5"/><path class="cls-1" d="M412.85,198V192.4h13.51V198h2.7v-5.52a3,3,0,0,0-3.13-2.81H413.3a3.48,3.48,0,0,0-2.36.93,2.65,2.65,0,0,0-.79,1.87V198Z" transform="translate(-25.56 -105.82)"/><rect class="cls-6" x="383.48" y="96.24" width="21.11" height="12.5"/><path class="cls-6" d="M984.83,227.32A36.76,36.76,0,0,0,945,255.7q4.47,4.1,9,8.38Z" transform="translate(-25.56 -105.82)"/><path class="cls-5" d="M955.8,238.82a35.49,35.49,0,0,0-9.15,15.83l-.16.59.45.41c1.93,1.77,4,3.66,6.16,5.73l.77.74,28.28-33.71-2.23.06A35.26,35.26,0,0,0,955.8,238.82Z" transform="translate(-25.56 -105.82)"/><path class="cls-1" d="M985,226a38.09,38.09,0,0,0-41.29,29.42l-.17.77.58.53c2.74,2.51,5.68,5.25,9,8.36l1,1,33.38-39.8Zm-31.1,36.14-.77-.74c-2.2-2.07-4.23-4-6.16-5.73l-.45-.41.16-.59a35.38,35.38,0,0,1,33.27-26.18l2.23-.06Z" transform="translate(-25.56 -105.82)"/><path class="cls-6" d="M1018.26,259.25l-37.54,31.51q4.8,5,9.4,10.06a36.75,36.75,0,0,0,28.14-41.57Z" transform="translate(-25.56 -105.82)"/><path class="cls-5" d="M1017.28,261.84l-34.6,29,.74.77c2.4,2.54,4.6,4.9,6.74,7.23l.42.45.59-.16A35.27,35.27,0,0,0,1007,290a35.63,35.63,0,0,0,10.35-26.09Z" transform="translate(-25.56 -105.82)"/><path class="cls-5" d="M1017.34,263.92l-.06-2.08-34.6,29,.74.77c2.4,2.54,4.6,4.9,6.74,7.23l.42.45.59-.16A35.27,35.27,0,0,0,1007,290,35.63,35.63,0,0,0,1017.34,263.92Z" transform="translate(-25.56 -105.82)"/><path class="cls-1" d="M1019.6,259l-.37-2.36-40.48,34,1,1.05c3.36,3.53,6.43,6.81,9.38,10l.53.57.76-.17A38.11,38.11,0,0,0,1019.6,259Zm-28.43,40.12-.59.16-.42-.45c-2.14-2.33-4.34-4.69-6.74-7.23l-.74-.77,34.6-29,.06,2.08A35.63,35.63,0,0,1,1007,290,35.27,35.27,0,0,1,991.17,299.16Z" transform="translate(-25.56 -105.82)"/><path class="cls-5" d="M1049.82,195.75l-.11-.73-.74-.11A54.66,54.66,0,0,0,998.9,213.8l-33,39.32,25.69,25.69,39.32-33A55,55,0,0,0,1049.82,195.75Z" transform="translate(-25.56 -105.82)"/><path class="cls-1" d="M1052.2,193.61l-.17-.92-.92-.16a57.8,57.8,0,0,0-10.34-.94,57.2,57.2,0,0,0-43.94,20.47l-34.58,41.22,29.2,29.19,41.21-34.58A57.49,57.49,0,0,0,1052.2,193.61Zm-60.6,85.2-25.69-25.69,33-39.32A54.66,54.66,0,0,1,1049,194.91l.74.11.11.73a55,55,0,0,1-18.9,50.08Z" transform="translate(-25.56 -105.82)"/><path class="cls-3" d="M968.43,288.94c-3.49,3.49-21.08,8.43-21.08,8.43-.23.24,4.94-17.59,8.43-21.08a8.94,8.94,0,1,1,12.65,12.65Z" transform="translate(-25.56 -105.82)"/><path class="cls-5" d="M967.48,277.24a7.6,7.6,0,0,0-10.74,0c-2.52,2.52-6.23,14.07-6.94,16.36l-.58,1.83,1.84-.57c3.25-1,14-4.5,16.42-6.88a7.6,7.6,0,0,0,0-10.74Z" transform="translate(-25.56 -105.82)"/><path class="cls-1" d="M972.4,282.61a10.3,10.3,0,0,0-17.57-7.28c-3,3-9.34,20.46-8.73,22.56l.34.83h1.47l.14-.14.26-.08c8.44-2.41,18.41-5.94,21.08-8.61A10.23,10.23,0,0,0,972.4,282.61Zm-21.34,12.25-1.84.57.58-1.83c.71-2.29,4.42-13.84,6.94-16.36A7.59,7.59,0,0,1,967.48,288C965.1,290.36,954.31,293.85,951.06,294.86Z" transform="translate(-25.56 -105.82)"/><path class="cls-4" d="M1038.09,206.63a95.77,95.77,0,0,1,11.27,13.57,56.36,56.36,0,0,0,1.51-26.35,56.36,56.36,0,0,0-26.35,1.51A95.21,95.21,0,0,1,1038.09,206.63Z" transform="translate(-25.56 -105.82)"/><path class="cls-5" d="M1049.7,195l-.73-.11a54.82,54.82,0,0,0-19.18.51l-2.17.45,1.76,1.34a98.08,98.08,0,0,1,18.13,18.13l1.34,1.76.45-2.17a55,55,0,0,0,.52-19.18Z" transform="translate(-25.56 -105.82)"/><path class="cls-1" d="M1052.2,193.61l-.17-.92-.92-.16a56.37,56.37,0,0,0-10.24-.93,57.73,57.73,0,0,0-16.73,2.47l-2.71.82,2.33,1.59A94.55,94.55,0,0,1,1048.24,221l1.6,2.33.81-2.7A57.91,57.91,0,0,0,1052.2,193.61Zm-2.9,21.32-.45,2.17-1.34-1.76a98.08,98.08,0,0,0-18.13-18.13l-1.76-1.34,2.17-.45a54.82,54.82,0,0,1,19.18-.51l.73.11.12.73A55,55,0,0,1,1049.3,214.93Z" transform="translate(-25.56 -105.82)"/><path class="cls-7" d="M1031.22,231.31a12.59,12.59,0,1,1,0-17.81A12.59,12.59,0,0,1,1031.22,231.31Z" transform="translate(-25.56 -105.82)"/><rect class="cls-1" x="984.89" y="237.85" width="2.7" height="41.27" transform="translate(80.59 667.37) rotate(-45.01)"/><path class="cls-1" d="M589.35,399.71v2.5h2.7v-2.5a10.18,10.18,0,0,1,9.16-10.11v-2.71A12.87,12.87,0,0,0,589.35,399.71Z" transform="translate(-25.56 -105.82)"/><path class="cls-1" d="M573.4,369.89v2.71a9.45,9.45,0,0,1,8.42,9.38v34.43h2.7V382A12.14,12.14,0,0,0,573.4,369.89Z" transform="translate(-25.56 -105.82)"/><path class="cls-1" d="M589.36,420.18a2.42,2.42,0,1,1-4.84,0v-9h-2.7v9a5.12,5.12,0,1,0,10.24,0V403.64h-2.7Z" transform="translate(-25.56 -105.82)"/><path class="cls-1" d="M560.48,382v10.5h2.7V382a9.46,9.46,0,0,1,8.43-9.38v-2.71A12.15,12.15,0,0,0,560.48,382Z" transform="translate(-25.56 -105.82)"/><path class="cls-1" d="M603,386.89v2.71a10.18,10.18,0,0,1,9.15,10.11v11.05h2.7V399.71A12.87,12.87,0,0,0,603,386.89Z" transform="translate(-25.56 -105.82)"/><path class="cls-2" d="M561.29,472.3a20.14,20.14,0,0,1-20-18.34h40.07A20.14,20.14,0,0,1,561.29,472.3Z" transform="translate(-25.56 -105.82)"/><path class="cls-5" d="M622.31,447V425.48h1.31v-7.22h-13v7.22H612V447l-14.53,29.47a2.61,2.61,0,0,0-.28,2.12l.25.52.48,0a2.71,2.71,0,0,0,.66.08h37.16a1.84,1.84,0,0,0,1.13-.32l.22-.18.1-.26a2.7,2.7,0,0,0-.34-2Z" transform="translate(-25.56 -105.82)"/><path class="cls-1" d="M639.26,475.25,625,446.34V428.18h1.31V415.56H608v12.62h1.32v18.16L595,475.25a5,5,0,0,0-.1,4.83,4.13,4.13,0,0,0,3.63,1.82h37.16a4.13,4.13,0,0,0,3.63-1.82A5,5,0,0,0,639.26,475.25Zm-2.08,3.19-.1.26-.22.18a1.84,1.84,0,0,1-1.13.32H598.57a2.71,2.71,0,0,1-.66-.08l-.48,0-.25-.52a2.61,2.61,0,0,1,.28-2.12L612,447V425.48h-1.32v-7.22h13v7.22h-1.31V447l14.53,29.47A2.7,2.7,0,0,1,637.18,478.44Z" transform="translate(-25.56 -105.82)"/><polygon class="cls-3" points="579.74 367.65 591.59 343.63 603.43 367.65 579.74 367.65"/><path class="cls-5" d="M567.32,425.86l-1.05-.24V408.68h1.84V401.4H554.46v7.28h1.84v16.94l-1,.24a27,27,0,1,0,12.06,0Z" transform="translate(-25.56 -105.82)"/><path class="cls-1" d="M569.69,423.69l-.72-.21v-12.1h1.84V398.7h-19v12.68h1.85v12.1l-.73.21a29.72,29.72,0,1,0,16.81,0Zm-8.4,55.51a27,27,0,0,1-6-53.34l1-.24V408.68h-1.84V401.4h13.65v7.28h-1.84v16.94l1.05.24a27,27,0,0,1-6,53.34Z" transform="translate(-25.56 -105.82)"/><path class="cls-5" d="M540.41,380.21a3.76,3.76,0,1,0,3.76,3.76A3.77,3.77,0,0,0,540.41,380.21Z" transform="translate(-25.56 -105.82)"/><path class="cls-1" d="M546.87,384a6.46,6.46,0,1,0-6.46,6.46A6.47,6.47,0,0,0,546.87,384Zm-6.46,3.76a3.76,3.76,0,1,1,3.76-3.76A3.77,3.77,0,0,1,540.41,387.73Z" transform="translate(-25.56 -105.82)"/><rect class="cls-1" x="572.68" y="244.19" width="2.7" height="2.48"/><rect class="cls-1" x="589.22" y="354.99" width="2.7" height="2.48" transform="translate(-38.87 583.59) rotate(-59.99)"/><rect class="cls-1" x="589.14" y="365.18" width="2.48" height="2.7" transform="translate(-129.72 238.17) rotate(-29.98)"/><rect class="cls-1" x="572.28" y="264.79" width="2.7" height="2.48"/><rect class="cls-1" x="606.87" y="365.63" width="2.7" height="2.48" transform="translate(-39.25 604.22) rotate(-59.99)"/><rect class="cls-1" x="607.18" y="355.22" width="2.48" height="2.7" transform="translate(-122.34 245.85) rotate(-29.98)"/><path class="cls-1" d="M131.79,206.72v41h2.7v-41a77.89,77.89,0,0,1,76.82-77.78v-2.7A80.6,80.6,0,0,0,131.79,206.72Z" transform="translate(-25.56 -105.82)"/><path class="cls-1" d="M950.58,186.3l2.63.59c.21-.87.44-1.74.68-2.6l-2.59-.76C951,184.44,950.8,185.37,950.58,186.3Z" transform="translate(-25.56 -105.82)"/><path class="cls-1" d="M954.55,174.33c-.38.88-.74,1.76-1.08,2.65l2.54.94c.32-.84.66-1.67,1-2.49Z" transform="translate(-25.56 -105.82)"/><path class="cls-1" d="M948.94,195.92l2.69.24q.15-1.33.33-2.67l-2.67-.42C949.16,194,949,195,948.94,195.92Z" transform="translate(-25.56 -105.82)"/><rect class="cls-1" x="922.99" y="106.6" width="2.7" height="2.78"/><path class="cls-1" d="M1014.69,132.57l-.26-2.69c-.95.11-1.9.23-2.84.37l.43,2.67C1012.91,132.78,1013.8,132.67,1014.69,132.57Z" transform="translate(-25.56 -105.82)"/><path class="cls-1" d="M948.55,205.61h2.7v-2.74l-2.69-.07C948.55,203.07,948.55,205.61,948.55,205.61Z" transform="translate(-25.56 -105.82)"/><path class="cls-1" d="M959,165.65c-.49.82-1,1.65-1.42,2.48l2.38,1.26c.43-.78.88-1.56,1.34-2.33Z" transform="translate(-25.56 -105.82)"/><path class="cls-1" d="M984.21,140.19l1.44,2.29c.76-.47,1.54-.92,2.32-1.36l-1.28-2.37C985.86,139.21,985,139.7,984.21,140.19Z" transform="translate(-25.56 -105.82)"/><path class="cls-1" d="M992.87,135.67l1.12,2.46c.83-.36,1.66-.71,2.49-1l-1-2.52C994.63,134.92,993.75,135.29,992.87,135.67Z" transform="translate(-25.56 -105.82)"/><path class="cls-1" d="M1005.44,134.23l-.62-2.63c-.93.23-1.85.48-2.77.74l.79,2.58C1003.7,134.67,1004.57,134.44,1005.44,134.23Z" transform="translate(-25.56 -105.82)"/><path class="cls-1" d="M976.23,145.81l1.72,2.08q1-.85,2.13-1.65l-1.59-2.19C977.73,144.62,977,145.21,976.23,145.81Z" transform="translate(-25.56 -105.82)"/><path class="cls-1" d="M964.52,157.62c-.59.74-1.17,1.51-1.73,2.28l2.2,1.56c.53-.72,1.07-1.44,1.63-2.14Z" transform="translate(-25.56 -105.82)"/><path class="cls-1" d="M971.06,150.38c-.69.67-1.36,1.35-2,2l2,1.84c.62-.65,1.26-1.29,1.9-1.91Z" transform="translate(-25.56 -105.82)"/><path class="cls-1" d="M1023.25,129.43v2.7a71.58,71.58,0,0,1,70.51,71.46v200.9h2.7V203.59A74.28,74.28,0,0,0,1023.25,129.43Z" transform="translate(-25.56 -105.82)"/><path class="cls-3" d="M1083.68,302.38a11.5,11.5,0,1,0,11.49-11.49A11.49,11.49,0,0,0,1083.68,302.38Z" transform="translate(-25.56 -105.82)"/><path class="cls-1" d="M1095.17,328a25.64,25.64,0,1,1,25.64-25.64A25.66,25.66,0,0,1,1095.17,328Zm0-46.56a20.92,20.92,0,1,0,20.93,20.92A21,21,0,0,0,1095.17,281.46Z" transform="translate(-25.56 -105.82)"/><path class="cls-1" d="M1095.17,327a24.63,24.63,0,1,1,24.63-24.63A24.66,24.66,0,0,1,1095.17,327Zm0-46.56a21.93,21.93,0,1,0,21.93,21.93A21.95,21.95,0,0,0,1095.17,280.45Z" transform="translate(-25.56 -105.82)"/><path class="cls-7" d="M544.06,245.21a39.95,39.95,0,1,1-39.94-39.94A39.95,39.95,0,0,1,544.06,245.21Z" transform="translate(-25.56 -105.82)"/><polygon class="cls-4" points="478.55 182.72 439.34 142.2 478.55 142.2 517.76 142.2 478.55 182.72"/><polygon class="cls-5" points="478.55 180.78 514.58 143.55 442.53 143.55 478.55 180.78"/><polygon class="cls-5" points="478.55 180.78 514.58 143.55 442.53 143.55 478.55 180.78"/><path class="cls-1" d="M543.32,246.67H464.91a1.34,1.34,0,0,0-1.24.83,1.32,1.32,0,0,0,.27,1.46l39.21,40.52a1.35,1.35,0,0,0,1,.41,1.38,1.38,0,0,0,1-.41L544.29,249a1.34,1.34,0,0,0,.28-1.46A1.37,1.37,0,0,0,543.32,246.67Zm-39.2,39.93-36-37.23h72.05Z" transform="translate(-25.56 -105.82)"/><polygon class="cls-4" points="493.85 146.87 478.55 182.72 463.24 146.82 461.27 142.2 493.85 146.87"/><path class="cls-1" d="M517.78,253.08l-13.66,32-15.65-36.68L486,249.48l16.89,39.59a1.36,1.36,0,0,0,2.49,0l14.9-34.93Z" transform="translate(-25.56 -105.82)"/><polygon class="cls-4" points="439.34 142.32 478.55 142.32 517.76 142.32 506.97 126.48 450.13 126.48 439.34 142.32"/><polygon class="cls-5" points="450.85 127.83 441.9 140.97 515.21 140.97 506.26 127.83 450.85 127.83"/><path class="cls-1" d="M533.65,231.54a1.37,1.37,0,0,0-1.11-.59H475.7a1.37,1.37,0,0,0-1.12.59l-10.79,15.84a1.36,1.36,0,0,0-.07,1.4,1.34,1.34,0,0,0,1.19.71h78.41a1.34,1.34,0,0,0,1.2-.72,1.36,1.36,0,0,0-.08-1.39Zm-66.19,15.25,9-13.14h55.41l8.95,13.14Z" transform="translate(-25.56 -105.82)"/><polygon class="cls-1" points="491.63 136.58 479.76 125.6 477.35 125.6 461.09 140.65 462.92 142.63 478.55 128.16 489.79 138.56 491.63 136.58"/><path class="cls-4" d="M486.69,248.14l-8-11.53Z" transform="translate(-25.56 -105.82)"/><rect class="cls-1" x="481.35" y="236.37" width="2.7" height="12.01" transform="translate(-77.71 211.98) rotate(-34.69)"/><polygon class="cls-4" points="495.98 142.32 506.95 126.48 506.97 126.48 517.76 142.32 495.98 142.32"/><polygon class="cls-5" points="498.56 140.97 515.21 140.97 506.95 128.85 498.56 140.97"/><path class="cls-1" d="M533.65,231.55a1.37,1.37,0,0,0-1.14-.6,1.34,1.34,0,0,0-1.11.59l-11,15.83a1.36,1.36,0,0,0-.08,1.4,1.33,1.33,0,0,0,1.19.72h21.78a1.34,1.34,0,0,0,1.2-.72,1.36,1.36,0,0,0-.08-1.39Zm-9.53,15.24,8.4-12.12,8.25,12.12Z" transform="translate(-25.56 -105.82)"/><rect class="cls-1" x="511.84" y="218.28" width="8.89" height="2.7" transform="translate(-29.62 323.64) rotate(-45.01)"/><rect class="cls-1" x="514.94" y="215.19" width="2.7" height="8.89" transform="translate(-29.71 323.44) rotate(-44.99)"/><path class="cls-5" d="M648.34,219a35.75,35.75,0,0,0-4.62-12l-.51-.83,7.94-9.38-7.9-7.91-9.14,7.73-.85-.58a35.43,35.43,0,0,0-11.72-5.18l-.95-.23-1-12.26H608.39l-1,11.93-1,.2a35.39,35.39,0,0,0-12,4.61l-.84.51-9.38-7.94-7.91,7.91,7.73,9.13-.58.85a35.73,35.73,0,0,0-5.18,11.72l-.23.95-12.25,1v11.18l11.93,1,.19,1a35.41,35.41,0,0,0,4.62,11.95l.51.84-7.95,9.38,7.91,7.91,9.14-7.73.84.58a35.57,35.57,0,0,0,11.73,5.18l.95.23,1,12.25h11.18l1-11.93,1-.19a35.46,35.46,0,0,0,12-4.62l.83-.51,9.39,7.95,7.9-7.91-7.73-9.14.58-.84A35.48,35.48,0,0,0,648,234.16l.23-.95,12.26-1V221l-11.93-1Z" transform="translate(-25.56 -105.82)"/><path class="cls-1" d="M650.62,216.79a38.27,38.27,0,0,0-3.76-9.7l-.33-.61,8.29-9.8L643.4,185.26l-9.48,8-.62-.39a38.3,38.3,0,0,0-9.51-4.19l-.67-.19-1.07-12.8H605.9l-1,12.37-.71.17a38.27,38.27,0,0,0-9.7,3.76l-.61.33-9.79-8.29-11.43,11.42,8,9.48-.38.62a38,38,0,0,0-4.2,9.51l-.19.67-12.79,1.07V233l12.37,1,.17.71a37.88,37.88,0,0,0,3.75,9.7l.34.61-8.29,9.79,11.42,11.42,9.47-8,.62.38a38.19,38.19,0,0,0,9.52,4.2l.67.19,1.06,12.79h16.15l1-12.37.71-.17a37.81,37.81,0,0,0,9.69-3.75l.61-.34,9.8,8.29L653.61,256l-8-9.47.39-.62a38.21,38.21,0,0,0,4.19-9.52l.19-.67,12.8-1.06V218.53l-12.37-1Zm9.84,15.4-12.26,1-.23.95a35.48,35.48,0,0,1-5.18,11.73l-.58.84,7.73,9.14-7.9,7.91-9.39-7.95-.83.51a35.46,35.46,0,0,1-12,4.62l-1,.19-1,11.93H606.68l-1-12.25-.95-.23A35.57,35.57,0,0,1,593,255.42l-.84-.58L583,262.57l-7.91-7.91,7.95-9.38-.51-.84a35.41,35.41,0,0,1-4.62-11.95l-.19-1-11.93-1V219.3l12.25-1,.23-.95a35.73,35.73,0,0,1,5.18-11.72l.58-.85-7.73-9.13,7.91-7.91,9.38,7.94.84-.51a35.39,35.39,0,0,1,12-4.61l1-.2,1-11.93h11.18l1,12.26.95.23a35.43,35.43,0,0,1,11.72,5.18l.85.58,9.14-7.73,7.9,7.91-7.94,9.38.51.83a35.75,35.75,0,0,1,4.62,12l.19,1,11.93,1Z" transform="translate(-25.56 -105.82)"/><path class="cls-2" d="M892.43,414.85v-4.7l-3.9-.32a9.86,9.86,0,0,0-.68-1.76l2.61-3.09-3.32-3.32-3,2.53a9.5,9.5,0,0,0-1.72-.77l-.34-4H877.4l-.33,3.9a9.86,9.86,0,0,0-1.76.68l-3.08-2.61-3.33,3.32,2.53,3a8.82,8.82,0,0,0-.76,1.72l-4,.34v4.69l3.9.33a9.12,9.12,0,0,0,.67,1.76l-2.61,3.08,3.32,3.33,3-2.53a8.82,8.82,0,0,0,1.72.76l.34,4h4.7l.32-3.9a8.88,8.88,0,0,0,1.76-.67l3.09,2.61,3.32-3.32-2.53-3a9.5,9.5,0,0,0,.77-1.72Zm-12.9,1.93a4.49,4.49,0,1,1,4.49-4.49A4.49,4.49,0,0,1,879.53,416.78Z" transform="translate(-25.56 -105.82)"/><rect class="cls-1" x="454.06" y="167.33" width="15.49" height="2.7" transform="translate(-9.56 270.17) rotate(-45.01)"/><rect class="cls-1" x="460.46" y="160.94" width="2.7" height="15.49" transform="translate(-9.57 270.14) rotate(-45)"/><rect class="cls-1" x="987.98" y="172.05" width="15.49" height="2.7" transform="translate(143.47 649.05) rotate(-45)"/><rect class="cls-1" x="994.38" y="165.65" width="2.7" height="15.49" transform="translate(143.46 649.03) rotate(-45)"/><rect class="cls-1" x="1122.35" y="216.83" width="15.49" height="2.7" transform="translate(151.15 757.18) rotate(-45)"/><rect class="cls-1" x="1128.74" y="210.44" width="2.7" height="15.49" transform="translate(151.14 757.16) rotate(-45)"/><rect class="cls-1" x="1096.85" y="108.58" width="8.93" height="2.7" transform="translate(219.21 705.06) rotate(-45)"/><rect class="cls-1" x="1099.97" y="105.47" width="2.7" height="8.93" transform="translate(219.32 705.19) rotate(-45)"/><rect class="cls-1" x="944.81" y="118.01" width="8.93" height="2.7" transform="translate(168.22 600.57) rotate(-45.01)"/><rect class="cls-1" x="947.92" y="114.9" width="2.7" height="8.93" transform="translate(168.14 600.46) rotate(-45.01)"/><rect class="cls-1" x="970.82" y="321.33" width="8.93" height="2.7" transform="translate(32.04 678.55) rotate(-45.01)"/><rect class="cls-1" x="973.93" y="318.21" width="2.7" height="8.93" transform="translate(31.96 678.38) rotate(-45)"/><rect class="cls-1" x="410.41" y="326.16" width="3.05" height="2.7"/><rect class="cls-1" x="400.28" y="326.16" width="3.05" height="2.7"/><rect class="cls-1" x="420.53" y="326.16" width="3.05" height="2.7"/><rect class="cls-1" x="440.78" y="326.16" width="3.05" height="2.7"/><rect class="cls-1" x="430.66" y="326.16" width="3.05" height="2.7"/><rect class="cls-1" x="389.5" y="325.15" width="4.71" height="4.71"/><rect class="cls-1" x="390.5" y="326.16" width="2.7" height="2.7"/><rect class="cls-1" x="390.5" y="305.91" width="2.7" height="3.05"/><rect class="cls-1" x="390.5" y="265.41" width="2.7" height="3.05"/><rect class="cls-1" x="390.5" y="295.78" width="2.7" height="3.05"/><rect class="cls-1" x="390.5" y="316.04" width="2.7" height="3.05"/><rect class="cls-1" x="390.5" y="275.53" width="2.7" height="3.05"/><rect class="cls-1" x="390.5" y="285.66" width="2.7" height="3.05"/><rect class="cls-1" x="389.5" y="254.62" width="4.71" height="4.71"/><rect class="cls-1" x="390.5" y="255.63" width="2.7" height="2.7"/><rect class="cls-1" x="430.66" y="255.63" width="3.05" height="2.7"/><rect class="cls-1" x="410.41" y="255.63" width="3.05" height="2.7"/><rect class="cls-1" x="400.28" y="255.63" width="3.05" height="2.7"/><rect class="cls-1" x="420.53" y="255.63" width="3.05" height="2.7"/><rect class="cls-1" x="440.78" y="255.63" width="3.05" height="2.7"/><rect class="cls-1" x="461.03" y="295.78" width="2.7" height="3.05"/><rect class="cls-1" x="461.03" y="305.91" width="2.7" height="3.05"/><rect class="cls-1" x="461.03" y="285.66" width="2.7" height="3.05"/><rect class="cls-1" x="461.03" y="275.53" width="2.7" height="3.05"/><rect class="cls-4" x="384.52" y="249.1" width="17.93" height="17.93"/><rect class="cls-5" x="385.87" y="250.45" width="15.23" height="15.23"/><path class="cls-1" d="M408.73,374.2h20.63V353.57H408.73Zm2.7-17.93h15.23V371.5H411.43Z" transform="translate(-25.56 -105.82)"/><rect class="cls-5" x="453.14" y="250.45" width="15.23" height="15.23"/><path class="cls-1" d="M476,374.2h20.63V353.57H476Zm2.7-17.93h15.23V371.5H478.71Z" transform="translate(-25.56 -105.82)"/><rect class="cls-5" x="453.14" y="318.81" width="15.23" height="15.23"/><path class="cls-1" d="M476,442.56h20.63V421.94H476Zm2.7-17.92h15.23v15.22H478.71Z" transform="translate(-25.56 -105.82)"/><rect class="cls-4" x="384.52" y="317.47" width="17.93" height="17.92"/><path class="cls-1" d="M430.37,443.57H407.72V420.93h22.65Zm-17.93-4.72h13.21v-13.2H412.44Z" transform="translate(-25.56 -105.82)"/><path class="cls-1" d="M408.73,442.56V421.94h20.63v20.62Zm2.7-2.7h15.23V424.64H411.43Z" transform="translate(-25.56 -105.82)"/><polygon class="cls-3" points="808.42 274.54 861.18 274.54 861.18 234.94 833.52 234.94 820.91 222.33 820.91 234.94 808.42 234.94 808.42 274.54"/><path class="cls-4" d="M874.62,365.18h0Z" transform="translate(-25.56 -105.82)"/><rect class="cls-1" x="821.55" y="258.01" width="26.5" height="2.7"/><path class="cls-4" d="M874.62,355.85h0Z" transform="translate(-25.56 -105.82)"/><rect class="cls-1" x="821.55" y="248.68" width="26.5" height="2.7"/><path class="cls-4" d="M872.36,315.53a3.25,3.25,0,0,0,3.14,3.36h6.08v12.63l14.9-12.63h17.61a3.26,3.26,0,0,0,3.15-3.36v-38.2a3.26,3.26,0,0,0-3.15-3.36H875.5a3.25,3.25,0,0,0-3.14,3.36Z" transform="translate(-25.56 -105.82)"/><path class="cls-5" d="M914.09,275.32H875.5a1.91,1.91,0,0,0-1.79,2v38.2a1.91,1.91,0,0,0,1.79,2h7.43V328.6L896,317.54h18.1a1.92,1.92,0,0,0,1.8-2v-38.2A1.92,1.92,0,0,0,914.09,275.32Z" transform="translate(-25.56 -105.82)"/><path class="cls-1" d="M914.09,272.62H875.5a4.6,4.6,0,0,0-4.49,4.71v38.2a4.6,4.6,0,0,0,4.49,4.71h4.73v14.19L897,320.24h17.11a4.61,4.61,0,0,0,4.5-4.71v-38.2A4.61,4.61,0,0,0,914.09,272.62Zm1.8,42.91a1.92,1.92,0,0,1-1.8,2H896L882.93,328.6V317.54H875.5a1.91,1.91,0,0,1-1.79-2v-38.2a1.91,1.91,0,0,1,1.79-2h38.59a1.92,1.92,0,0,1,1.8,2Z" transform="translate(-25.56 -105.82)"/><polygon class="cls-3" points="879.44 190.43 871 195.31 862.56 200.18 862.56 190.43 862.56 180.69 871 185.56 879.44 190.43"/><rect class="cls-1" x="435.48" y="355.65" width="2.7" height="4.78"/><rect class="cls-1" x="451.71" y="467.33" width="2.7" height="4.78" transform="translate(-205.8 521.5) rotate(-60.01)"/><rect class="cls-1" x="451.06" y="479.39" width="4.78" height="2.7" transform="translate(-205.1 185.05) rotate(-29.98)"/><path class="cls-4" d="M463.2,482.5v0Z" transform="translate(-25.56 -105.82)"/><rect class="cls-1" x="436.28" y="377.69" width="2.7" height="4.79"/><rect class="cls-1" x="471.19" y="477.65" width="2.7" height="4.78" transform="translate(-204.96 543.68) rotate(-60.02)"/><rect class="cls-1" x="469.75" y="467.68" width="4.78" height="2.7" transform="translate(-196.86 193.25) rotate(-30.01)"/><polygon class="cls-4" points="437.35 375.99 440.8 382.1 444.25 388.2 437.24 388.14 430.22 388.08 433.78 382.03 437.35 375.99"/><polygon class="cls-5" points="437.32 378.69 432.57 386.75 441.92 386.83 437.32 378.69"/><path class="cls-1" d="M462.93,479.11l-9.5,16.12,18.71.17Zm0,5.4,4.6,8.14-9.35-.08Z" transform="translate(-25.56 -105.82)"/><rect class="cls-1" x="459.65" y="496.62" width="6.23" height="2.7" transform="translate(-64.96 850.35) rotate(-89.48)"/><rect class="cls-4" x="322.43" y="306.71" width="90.6" height="39" rx="1.46"/><rect class="cls-5" x="323.78" y="308.06" width="87.9" height="36.3"/><path class="cls-1" d="M437.13,411.18H349.45a2.81,2.81,0,0,0-2.81,2.81v36.08a2.81,2.81,0,0,0,2.81,2.81h87.68a2.81,2.81,0,0,0,2.81-2.81V414A2.81,2.81,0,0,0,437.13,411.18Zm.11,39h-87.9v-36.3h87.9Z" transform="translate(-25.56 -105.82)"/><path class="cls-4" d="M355.37,422.48h0Z" transform="translate(-25.56 -105.82)"/><rect class="cls-2" x="329.8" y="314.3" width="6.87" height="4.71"/><path class="cls-4" d="M366.87,422.48h0Z" transform="translate(-25.56 -105.82)"/><rect class="cls-2" x="341.3" y="314.3" width="6.87" height="4.71"/><path class="cls-4" d="M378.36,422.48h0Z" transform="translate(-25.56 -105.82)"/><rect class="cls-2" x="352.8" y="314.3" width="6.87" height="4.71"/><path class="cls-4" d="M389.86,422.48h0Z" transform="translate(-25.56 -105.82)"/><rect class="cls-2" x="364.29" y="314.3" width="6.87" height="4.71"/><path class="cls-4" d="M401.35,422.48h0Z" transform="translate(-25.56 -105.82)"/><rect class="cls-2" x="375.79" y="314.3" width="6.87" height="4.71"/><path class="cls-4" d="M412.85,422.48h0Z" transform="translate(-25.56 -105.82)"/><rect class="cls-2" x="387.29" y="314.3" width="6.87" height="4.71"/><path class="cls-4" d="M424.34,422.48h0Z" transform="translate(-25.56 -105.82)"/><rect class="cls-2" x="398.78" y="314.3" width="6.87" height="4.71"/><path class="cls-4" d="M355.37,432h0Z" transform="translate(-25.56 -105.82)"/><rect class="cls-2" x="329.8" y="323.85" width="6.87" height="4.71"/><path class="cls-4" d="M366.87,432h0Z" transform="translate(-25.56 -105.82)"/><rect class="cls-2" x="341.3" y="323.85" width="6.87" height="4.71"/><path class="cls-4" d="M378.36,432h0Z" transform="translate(-25.56 -105.82)"/><rect class="cls-2" x="352.8" y="323.85" width="6.87" height="4.71"/><path class="cls-4" d="M389.86,432h0Z" transform="translate(-25.56 -105.82)"/><rect class="cls-2" x="364.29" y="323.85" width="6.87" height="4.71"/><path class="cls-4" d="M401.35,432h0Z" transform="translate(-25.56 -105.82)"/><rect class="cls-2" x="375.79" y="323.85" width="6.87" height="4.71"/><path class="cls-4" d="M412.85,432h0Z" transform="translate(-25.56 -105.82)"/><rect class="cls-2" x="387.29" y="323.85" width="6.87" height="4.71"/><path class="cls-4" d="M424.34,432h0Z" transform="translate(-25.56 -105.82)"/><rect class="cls-2" x="398.78" y="323.85" width="6.87" height="4.71"/><path class="cls-4" d="M355.37,441.58h0Z" transform="translate(-25.56 -105.82)"/><rect class="cls-2" x="329.8" y="333.41" width="6.87" height="4.71"/><path class="cls-4" d="M366.87,441.58h0Z" transform="translate(-25.56 -105.82)"/><rect class="cls-2" x="341.3" y="333.41" width="6.87" height="4.71"/><path class="cls-4" d="M378.36,441.58h0Z" transform="translate(-25.56 -105.82)"/><rect class="cls-2" x="352.8" y="333.41" width="41.46" height="4.71"/><path class="cls-4" d="M424.34,441.58h0Z" transform="translate(-25.56 -105.82)"/><rect class="cls-2" x="398.78" y="333.41" width="6.87" height="4.71"/><rect class="cls-1" x="1150.75" y="308.94" width="19.25" height="2.7"/><rect class="cls-1" x="1137.26" y="308.94" width="5.07" height="2.7"/><rect class="cls-1" x="1137.79" y="298.33" width="19.25" height="2.7"/><rect class="cls-1" x="1124.29" y="298.33" width="5.07" height="2.7"/><rect class="cls-5" x="334.97" y="250.45" width="27.79" height="27.79"/><path class="cls-1" d="M357.84,386.77H391v-33.2H357.84Zm2.7-30.5h27.79v27.8H360.54Z" transform="translate(-25.56 -105.82)"/><rect class="cls-1" x="353.88" y="368.82" width="41.11" height="2.7" transform="translate(-177.64 267.36) rotate(-45)"/><rect class="cls-1" x="373.08" y="349.62" width="2.7" height="41.11" transform="translate(-177.64 267.36) rotate(-45)"/><path class="cls-5" d="M817.69,274a2.14,2.14,0,0,0-2.15-2.14H695A2.14,2.14,0,0,0,692.9,274V347.2H817.69Z" transform="translate(-25.56 -105.82)"/><path class="cls-1" d="M815.54,269.14H695A4.84,4.84,0,0,0,690.2,274V349.9H820.39V274A4.85,4.85,0,0,0,815.54,269.14ZM692.9,274a2.14,2.14,0,0,1,2.14-2.14h120.5a2.14,2.14,0,0,1,2.15,2.14V347.2H692.9Z" transform="translate(-25.56 -105.82)"/><rect class="cls-2" x="675.96" y="174.79" width="107.41" height="57.73"/><path class="cls-5" d="M692.91,359.23a3.42,3.42,0,0,0,2.82,3h120c1.2,0,2-1.47,2-2.84v-9.58H692.91Z" transform="translate(-25.56 -105.82)"/><path class="cls-1" d="M690.21,359.23c0,2.83,2.79,5.71,5.52,5.71h120c2.91,0,4.65-2.82,4.65-5.54V347.13H690.21Zm127.52.17c0,1.37-.75,2.84-2,2.84h-120a3.42,3.42,0,0,1-2.82-3v-9.41H817.73Z" transform="translate(-25.56 -105.82)"/><path class="cls-1" d="M742.43,364.79l-2.69-.22c0,1,0,2.17,0,3.42a41.5,41.5,0,0,1-.25,6.95c-.1.53-.19.9-.26,1.15l.21.36-.66.55a6,6,0,0,1-.74.45l-.18.1c-.47.26-1.26.63-2.23,1.07l1.07,2.48c1.07-.48,1.91-.89,2.46-1.19l.19-.1c1.63-.9,2.21-1.44,2.79-4.35a41.88,41.88,0,0,0,.3-7.59C742.43,366.74,742.41,365.67,742.43,364.79Z" transform="translate(-25.56 -105.82)"/><path class="cls-4" d="M775.26,380.28c-1.13-.49-2.5-1.11-3.3-1.55-1.41-.78-1.69-.87-2.22-3.53-.57-2.91-.1-8.71-.32-11.38Z" transform="translate(-25.56 -105.82)"/><path class="cls-1" d="M774.32,382.44c-1.08-.46-2.56-1.13-3.49-1.64l-.13-.07c-2.12-1.18-2.67-2-3.27-5.07a41.55,41.55,0,0,1-.32-7.67c0-1.56,0-3.05,0-4l4.69-.38c.1,1.15.08,2.74.05,4.43a39.79,39.79,0,0,0,.24,6.68,7.85,7.85,0,0,0,.41,1.61,2.79,2.79,0,0,1,.52.26l.11.06c.59.32,1.72.85,3.1,1.45Z" transform="translate(-25.56 -105.82)"/><path class="cls-1" d="M773.8,381.11c-1.08-.48-1.93-.89-2.49-1.19l-.12-.07c-1.73-1-2.19-1.48-2.77-4.39a40.8,40.8,0,0,1-.3-7.45c0-1.14,0-2.21,0-3.08l2.69-.21c0,1,0,2.11,0,3.31a40.5,40.5,0,0,0,.25,6.91,6.45,6.45,0,0,0,.53,1.9l1.09,1.92.34-1c.47.24,1.1.53,1.85.87Z" transform="translate(-25.56 -105.82)"/><path class="cls-4" d="M731.74,380.05h0Z" transform="translate(-25.56 -105.82)"/><rect class="cls-1" x="707.18" y="272.88" width="45.15" height="2.7"/><path class="cls-4" d="M756.6,329.67a2.65,2.65,0,0,1,2.65-2.65h44.41a2.65,2.65,0,0,1,2.65,2.65v64.74a2.65,2.65,0,0,1-2.65,2.64H759.25a2.65,2.65,0,0,1-2.65-2.64Z" transform="translate(-25.56 -105.82)"/><path class="cls-5" d="M803.66,328.37H759.25a1.3,1.3,0,0,0-1.3,1.3v64.74a1.3,1.3,0,0,0,1.3,1.29h44.41a1.3,1.3,0,0,0,1.3-1.29V329.67A1.3,1.3,0,0,0,803.66,328.37Z" transform="translate(-25.56 -105.82)"/><path class="cls-1" d="M803.66,325.67H759.25a4,4,0,0,0-4,4v64.74a4,4,0,0,0,4,4h44.41a4,4,0,0,0,4-4V329.67A4,4,0,0,0,803.66,325.67Zm1.3,68.74a1.3,1.3,0,0,1-1.3,1.29H759.25a1.3,1.3,0,0,1-1.3-1.29V329.67a1.3,1.3,0,0,1,1.3-1.3h44.41a1.3,1.3,0,0,1,1.3,1.3Z" transform="translate(-25.56 -105.82)"/><rect class="cls-6" x="737.54" y="228.12" width="36.71" height="55.71"/><rect class="cls-4" x="766.87" y="239.11" width="26.65" height="52.46" rx="1.67"/><rect class="cls-5" x="768.22" y="240.46" width="23.95" height="49.76"/><path class="cls-1" d="M817.41,343.58H794.1a3,3,0,0,0-3,3v49.12a3,3,0,0,0,3,3h23.31a3,3,0,0,0,3-3V346.6A3,3,0,0,0,817.41,343.58Zm.32,52.46h-24V346.28h24Z" transform="translate(-25.56 -105.82)"/><rect class="cls-1" x="769.8" y="280.29" width="22.53" height="2.7"/><polygon class="cls-4" points="746.51 197.82 746.51 187.29 735.97 187.29 735.97 182.57 751.22 182.57 751.22 197.82 746.51 197.82"/><rect class="cls-4" x="756.96" y="296.94" width="17.85" height="4.71" transform="translate(-12.82 523.54) rotate(-45.01)"/><polygon class="cls-4" points="725.44 223.6 710.2 223.6 710.19 208.35 714.91 208.35 714.91 218.89 725.44 218.89 725.44 223.6"/><rect class="cls-4" x="737.73" y="316.17" width="17.85" height="4.71" transform="translate(-32.1 515.45) rotate(-45)"/><rect class="cls-4" x="1011.05" y="178.22" width="116.1" height="93.01"/><rect class="cls-5" x="1012.4" y="179.57" width="113.4" height="90.31"/><path class="cls-1" d="M1035.26,378.4h118.8V282.69h-118.8Zm2.7-93h113.4V375.7H1038Z" transform="translate(-25.56 -105.82)"/><rect class="cls-2" x="1018.12" y="194.13" width="101.95" height="29.36"/><rect class="cls-3" x="1018.12" y="228.9" width="30.45" height="16.4"/><path class="cls-4" d="M1043.68,357.51h0Z" transform="translate(-25.56 -105.82)"/><rect class="cls-1" x="1019.13" y="250.34" width="28.43" height="2.7"/><path class="cls-4" d="M1074.13,366.83h0Z" transform="translate(-25.56 -105.82)"/><rect class="cls-1" x="1019.13" y="259.66" width="28.43" height="2.7"/><path class="cls-4" d="M1079.44,357.51h0Z" transform="translate(-25.56 -105.82)"/><rect class="cls-1" x="1054.88" y="250.34" width="28.43" height="2.7"/><rect class="cls-4" x="1045.41" y="206.31" width="47.38" height="4.71"/><path class="cls-4" d="M1109.88,366.83h0Z" transform="translate(-25.56 -105.82)"/><rect class="cls-1" x="1054.88" y="259.66" width="28.43" height="2.7"/><path class="cls-4" d="M1115.19,357.51h0Z" transform="translate(-25.56 -105.82)"/><rect class="cls-1" x="1090.63" y="250.34" width="28.43" height="2.7"/><path class="cls-4" d="M1145.64,366.83h0Z" transform="translate(-25.56 -105.82)"/><rect class="cls-1" x="1090.63" y="259.66" width="28.43" height="2.7"/><rect class="cls-3" x="1053.87" y="228.9" width="30.45" height="16.4"/><rect class="cls-3" x="1089.62" y="228.9" width="30.45" height="16.4"/><rect class="cls-4" x="1011.05" y="164.66" width="116.1" height="13.55"/><rect class="cls-5" x="1012.4" y="166.01" width="113.4" height="10.85"/><path class="cls-1" d="M1035.26,285.39h118.8V269.14h-118.8Zm2.7-13.55h113.4v10.85H1038Z" transform="translate(-25.56 -105.82)"/><path class="cls-4" d="M1041.92,277.17h0Z" transform="translate(-25.56 -105.82)"/><rect class="cls-1" x="1017.36" y="169.99" width="2.39" height="2.7"/><path class="cls-4" d="M1049.54,277.17h0Z" transform="translate(-25.56 -105.82)"/><rect class="cls-1" x="1024.99" y="169.99" width="2.39" height="2.7"/><path class="cls-4" d="M1057.17,277.17h0Z" transform="translate(-25.56 -105.82)"/><rect class="cls-1" x="1032.61" y="169.99" width="2.39" height="2.7"/><rect class="cls-1" x="1029.45" y="186.45" width="36.88" height="2.7"/><rect class="cls-1" x="1019.13" y="186.45" width="2.8" height="2.7"/><path class="cls-8" d="M173.8,208.58" transform="translate(-25.56 -105.82)"/><path class="cls-5" d="M209.72,248a39.51,39.51,0,1,0-2,0v1.37h2Z" transform="translate(-25.56 -105.82)"/><path class="cls-1" d="M238.54,238.39a42.2,42.2,0,1,0-29.84,12.35h0A41.91,41.91,0,0,0,238.54,238.39Zm-30.84,11V248a39.51,39.51,0,1,1,2,0v1.37Z" transform="translate(-25.56 -105.82)"/><path class="cls-7" d="M187.54,230.87a31.38,31.38,0,1,1,22.19,9.18A31.21,31.21,0,0,1,187.54,230.87Z" transform="translate(-25.56 -105.82)"/><path class="cls-4" d="M235.62,208H230.9a21.2,21.2,0,0,0-21.19-21.17v-4.72A25.93,25.93,0,0,1,235.62,208Z" transform="translate(-25.56 -105.82)"/><rect class="cls-3" x="64.8" y="90.82" width="52.99" height="23.89"/><rect class="cls-4" x="117.88" y="94.43" width="8.16" height="16.67"/><polygon class="cls-1" points="118.89 95.78 124.7 95.78 124.69 109.75 118.89 109.75 118.89 112.45 127.39 112.45 127.4 93.08 118.89 93.08 118.89 95.78"/><path class="cls-1" d="M86.63,215.2a10.42,10.42,0,0,1,0-13.23l.3-.37h2.43v-2.7H85.81l-.39.4a13.13,13.13,0,0,0,0,18.57l.39.4h3.56v-2.7H86.93Z" transform="translate(-25.56 -105.82)"/><rect class="cls-1" x="129.14" y="107.72" width="12.91" height="2.7"/><rect class="cls-1" x="129.14" y="95.11" width="12.91" height="2.7"/><rect class="cls-4" x="71.92" y="95.78" width="36.54" height="4.71"/><path class="cls-1" d="M778.31,195.37v-.29c0-.38,0-.76,0-1.14a40.51,40.51,0,1,0-69.85,27.91l.28.3V256.7h2.7V221.59a1.36,1.36,0,0,0-.39-1,37.8,37.8,0,1,1,64.56-26.7c0,.57,0,1.14,0,1.71a1.32,1.32,0,0,0,.18.73l11.49,19.9H780.5a1.36,1.36,0,0,0-1.35,1.35v15.46a9.22,9.22,0,0,1-9.2,9.21H753.23a1.34,1.34,0,0,0-1.35,1.35v13h2.7V245H770a11.92,11.92,0,0,0,11.9-11.91V219h7.75a1.35,1.35,0,0,0,1.17-2Z" transform="translate(-25.56 -105.82)"/><path class="cls-3" d="M691.59,257.71V221.59a39.15,39.15,0,1,1,66.87-27.65c0,.59,0,1.18-.05,1.77l5.47,9.47,7.19,12.45H762v15.46a10.56,10.56,0,0,1-10.56,10.56H734.7v14.06Z" transform="translate(-25.56 -105.82)"/><polygon class="cls-1" points="707.84 92.69 705.93 94.59 715.76 104.43 705.93 114.25 707.84 116.16 719.57 104.43 707.84 92.69"/><rect class="cls-1" x="676.9" y="103.07" width="39.65" height="2.7"/><polygon class="cls-1" points="706.86 90.15 708.77 88.24 698.94 78.41 708.77 68.58 706.86 66.67 695.13 78.41 706.86 90.15"/><rect class="cls-1" x="698.14" y="77.06" width="39.66" height="2.7"/><rect class="cls-7" x="749.9" y="313.82" width="43.61" height="43.61"/><rect class="cls-1" x="808.94" y="373.76" width="2.7" height="2.7"/><rect class="cls-1" x="774.37" y="373.76" width="2.31" height="2.7"/><rect class="cls-1" x="783.01" y="373.76" width="2.31" height="2.7"/><rect class="cls-1" x="800.3" y="373.76" width="2.31" height="2.7"/><rect class="cls-1" x="791.65" y="373.76" width="2.31" height="2.7"/><rect class="cls-1" x="765.33" y="373.76" width="2.7" height="2.7"/><rect class="cls-1" x="765.33" y="356.47" width="2.7" height="2.31"/><rect class="cls-1" x="765.33" y="365.12" width="2.7" height="2.31"/><rect class="cls-1" x="765.33" y="347.83" width="2.7" height="2.31"/><rect class="cls-1" x="765.33" y="339.19" width="2.7" height="2.31"/><rect class="cls-1" x="765.33" y="330.15" width="2.7" height="2.7"/><rect class="cls-1" x="783.01" y="330.15" width="2.31" height="2.7"/><rect class="cls-1" x="774.36" y="330.15" width="2.31" height="2.7"/><rect class="cls-1" x="800.29" y="330.15" width="2.31" height="2.7"/><rect class="cls-1" x="791.65" y="330.15" width="2.31" height="2.7"/><rect class="cls-1" x="808.94" y="330.15" width="2.7" height="2.7"/><rect class="cls-1" x="808.94" y="365.12" width="2.7" height="2.31"/><rect class="cls-1" x="808.94" y="339.19" width="2.7" height="2.31"/><rect class="cls-1" x="808.94" y="356.48" width="2.7" height="2.31"/><rect class="cls-1" x="808.94" y="347.83" width="2.7" height="2.31"/><path class="cls-3" d="M986.29,379.31a23.93,23.93,0,1,1-23.92-23.92A23.92,23.92,0,0,1,986.29,379.31Z" transform="translate(-25.56 -105.82)"/><rect class="cls-1" x="935.05" y="245.39" width="2.7" height="7.56"/><rect class="cls-1" x="943.54" y="358.62" width="2.7" height="7.55" transform="translate(-4.86 668.94) rotate(-45.03)"/><rect class="cls-1" x="908.71" y="272.54" width="7.55" height="2.7"/><rect class="cls-1" x="941.68" y="395.44" width="7.55" height="2.7" transform="translate(-29.22 678.93) rotate(-45)"/><rect class="cls-1" x="934.84" y="293.03" width="4.71" height="9.57"/><rect class="cls-1" x="935.85" y="294.03" width="2.7" height="7.56"/><rect class="cls-1" x="978.5" y="392.45" width="2.7" height="7.55" transform="translate(-18.64 703.34) rotate(-45.01)"/><rect class="cls-1" x="957.35" y="271.74" width="7.55" height="2.7"/><rect class="cls-1" x="975.51" y="360.49" width="7.55" height="2.7" transform="translate(5.36 692.53) rotate(-44.99)"/><path class="cls-4" d="M1013.91,506.56v-7.7a22.7,22.7,0,0,0,9.16-18.22V441.12l-.43-8.73a8.47,8.47,0,0,0-8.46-8.47c-4.68,0-8.47,1.68-8.47,6.35v-2.12a8.47,8.47,0,0,0-16.94,0v-4.23a8.47,8.47,0,0,0-16.93,0v4.35c0-2-.08-48.36-.08-48.36a8.76,8.76,0,1,0-17.52,0l0,85.58-.18-4.17v-17.5a12.92,12.92,0,0,0-12.94-12.93h-4.3c-.19,0,.17,0,0,0v16.19s0,0,0,0V468.6l24.51,29.15s6.36,4,10.27,5v3.83Z" transform="translate(-25.56 -105.82)"/><path class="cls-1" d="M1024.42,480.64V441.06l-.42-8.67a9.83,9.83,0,0,0-9.81-9.82,12.47,12.47,0,0,0-6.7,1.63l-.94.61-.5-1A9.82,9.82,0,0,0,991,420.6l-1.05.88-.52-1.27a9.83,9.83,0,0,0-14.65-4.38l-1.58,1.09-.06-37a10.11,10.11,0,1,0-20.22,0l0,55.49-1.71-1.71a14.25,14.25,0,0,0-10.07-4.15H935.4l-.08,2.54h.11v14.05l-.09,0,.08,1.12V469.1l25,29.68.18.11a57.5,57.5,0,0,0,9,4.62l.66.25v1.79h2.7v-3.88l-1-.25c-3.37-.82-8.93-4.23-9.55-4.62l-.14-.08-24.06-28.61v-20l.12,0-.12-1.06V432.24h3a11.6,11.6,0,0,1,11.59,11.58v17.56l.13,3.18,2.75-.05,0-84.6a7.41,7.41,0,1,1,14.82,0s.07,40.21.08,47.35h2.7v-3.34a7.12,7.12,0,0,1,14.23,0v3.23h2.77a7.12,7.12,0,0,1,14.17,1v1.11h2.78c.45-2.65,2.81-4,7-4a7.19,7.19,0,0,1,7.12,7.19l.42,8.66v39.52a21.23,21.23,0,0,1-8.62,17.14l-.54.4v7.37h2.7v-6l.37-.3A24,24,0,0,0,1024.42,480.64Z" transform="translate(-25.56 -105.82)"/><polygon class="cls-1" points="159.8 309.28 162.14 307.93 107.93 214.03 53.71 307.93 56.05 309.28 107.93 219.43 159.8 309.28"/><rect class="cls-1" x="106.58" y="150.87" width="2.7" height="157.72"/><rect class="cls-3" x="40.19" y="172.84" width="135.47" height="105.76"/><polygon class="cls-4" points="91.33 182.29 166.2 182.29 166.2 269.14 49.65 269.14 49.65 182.29 63.34 182.29 91.33 182.29"/><rect class="cls-5" x="51" y="183.64" width="113.85" height="84.14"/><path class="cls-1" d="M73.87,376.31H193.12V286.77H73.87Zm2.7-86.84H190.42v84.14H76.57Z" transform="translate(-25.56 -105.82)"/><polygon class="cls-6" points="59.82 192.46 59.82 231.38 77.61 207.7 95.08 230.96 106.39 215.91 120.78 235.07 123.94 239.28 156.03 239.28 156.03 192.46 59.82 192.46"/><path class="cls-4" d="M167.2,316.11a8.23,8.23,0,1,1-8.23-8.23A8.22,8.22,0,0,1,167.2,316.11Z" transform="translate(-25.56 -105.82)"/><rect class="cls-5" x="90.89" y="172.93" width="34.08" height="8.2"/><path class="cls-1" d="M113.75,289.37h39.48V276.1H113.75Zm2.7-10.62h34.08V287H116.45Z" transform="translate(-25.56 -105.82)"/><path class="cls-3" d="M386.07,257.87v-6.39l-5.68-.47a17.38,17.38,0,0,0-2.24-5.8l3.79-4.48-4.52-4.52-4.34,3.68a17.46,17.46,0,0,0-5.69-2.52l-.49-5.85h-6.39L360,237.2a17.17,17.17,0,0,0-5.8,2.24l-4.48-3.79-4.52,4.51,3.68,4.35a17.28,17.28,0,0,0-2.52,5.69l-5.85.48v6.39l5.68.48a17.46,17.46,0,0,0,2.24,5.8l-3.79,4.48,4.51,4.52,4.35-3.68a17.35,17.35,0,0,0,5.69,2.51l.48,5.86h6.39l.48-5.68a17.46,17.46,0,0,0,5.8-2.24l4.48,3.79,4.52-4.52-3.68-4.34a17.23,17.23,0,0,0,2.51-5.69Z" transform="translate(-25.56 -105.82)"/><path class="cls-4" d="M371.75,254.28a8.44,8.44,0,1,1-8.44-8.44A8.44,8.44,0,0,1,371.75,254.28Z" transform="translate(-25.56 -105.82)"/><path class="cls-5" d="M363.31,247.19a7.09,7.09,0,1,0,7.09,7.09A7.1,7.1,0,0,0,363.31,247.19Z" transform="translate(-25.56 -105.82)"/><path class="cls-1" d="M363.31,244.49a9.79,9.79,0,1,0,9.79,9.79A9.8,9.8,0,0,0,363.31,244.49Zm0,16.88a7.09,7.09,0,1,1,7.09-7.09A7.1,7.1,0,0,1,363.31,261.37Z" transform="translate(-25.56 -105.82)"/><path class="cls-3" d="M1138.37,456.86a42.9,42.9,0,1,1-42.9-42.89A42.9,42.9,0,0,1,1138.37,456.86Z" transform="translate(-25.56 -105.82)"/><path class="cls-4" d="M1078.67,458.58c.42,10.37,7.91,18.64,17.1,18.64s16.68-8.27,17.1-18.64Z" transform="translate(-25.56 -105.82)"/><path class="cls-5" d="M1095.77,475.87c7.57,0,14.09-6.21,15.49-14.77l.19-1.17h-31.36l.19,1.17C1081.69,469.66,1088.2,475.87,1095.77,475.87Z" transform="translate(-25.56 -105.82)"/><path class="cls-1" d="M1077.32,458.63c.46,11.18,8.56,19.94,18.45,19.94s18-8.76,18.45-19.94l.06-1.4h-37Zm34.13,1.3-.19,1.17c-1.4,8.56-7.92,14.77-15.49,14.77s-14.08-6.21-15.49-14.77l-.19-1.17Z" transform="translate(-25.56 -105.82)"/><path class="cls-4" d="M1107.48,163.31a25.65,25.65,0,1,1-25.64-25.63A25.64,25.64,0,0,1,1107.48,163.31Z" transform="translate(-25.56 -105.82)"/><path class="cls-5" d="M1081.84,139a24.29,24.29,0,1,0,24.29,24.28A24.32,24.32,0,0,0,1081.84,139Z" transform="translate(-25.56 -105.82)"/><path class="cls-1" d="M1108.83,163.31a27,27,0,1,0-27,27A27,27,0,0,0,1108.83,163.31Zm-27,24.3a24.29,24.29,0,1,1,24.29-24.3A24.33,24.33,0,0,1,1081.84,187.61Z" transform="translate(-25.56 -105.82)"/><path class="cls-3" d="M1081.84,181.14a17.82,17.82,0,1,1,17.82-17.83A17.85,17.85,0,0,1,1081.84,181.14Z" transform="translate(-25.56 -105.82)"/><polygon class="cls-1" points="1045.29 59.08 1051.57 65.36 1066.68 50.26 1064.77 48.35 1051.57 61.55 1047.19 57.17 1045.29 59.08"/><path class="cls-1" d="M1080.35,437.46a5.53,5.53,0,0,1,5.44,4.53h2.73a8.23,8.23,0,0,0-16.34,0h2.73A5.53,5.53,0,0,1,1080.35,437.46Z" transform="translate(-25.56 -105.82)"/><path class="cls-1" d="M1110.6,437.46A5.53,5.53,0,0,1,1116,442h2.73a8.23,8.23,0,0,0-16.34,0h2.73A5.53,5.53,0,0,1,1110.6,437.46Z" transform="translate(-25.56 -105.82)"/><rect class="cls-3" x="40.19" y="325.54" width="254.48" height="32.71"/><rect class="cls-1" x="48.19" y="325.54" width="2.7" height="10.87"/><rect class="cls-1" x="58.03" y="325.54" width="2.7" height="4.92"/><rect class="cls-1" x="67.86" y="325.54" width="2.7" height="10.87"/><rect class="cls-1" x="77.7" y="325.54" width="2.7" height="4.92"/><rect class="cls-1" x="87.54" y="325.54" width="2.7" height="10.87"/><rect class="cls-1" x="97.37" y="325.54" width="2.7" height="4.92"/><rect class="cls-1" x="107.21" y="325.54" width="2.7" height="10.87"/><rect class="cls-1" x="117.04" y="325.54" width="2.7" height="4.92"/><rect class="cls-1" x="126.88" y="325.54" width="2.7" height="10.87"/><rect class="cls-1" x="136.72" y="325.54" width="2.7" height="4.92"/><rect class="cls-1" x="146.55" y="325.54" width="2.7" height="10.87"/><rect class="cls-1" x="156.39" y="325.54" width="2.7" height="4.92"/><rect class="cls-1" x="166.22" y="325.54" width="2.7" height="10.87"/><rect class="cls-1" x="176.76" y="325.54" width="2.7" height="4.92"/><rect class="cls-1" x="186.6" y="325.54" width="2.7" height="10.87"/><rect class="cls-1" x="196.43" y="325.54" width="2.7" height="4.92"/><rect class="cls-1" x="206.27" y="325.54" width="2.7" height="10.87"/><rect class="cls-1" x="216.11" y="325.54" width="2.7" height="4.92"/><rect class="cls-1" x="225.94" y="325.54" width="2.7" height="10.87"/><rect class="cls-1" x="235.78" y="325.54" width="2.7" height="4.92"/><rect class="cls-1" x="245.62" y="325.54" width="2.7" height="10.87"/><rect class="cls-1" x="255.45" y="325.54" width="2.7" height="4.92"/><rect class="cls-1" x="265.29" y="325.54" width="2.7" height="10.87"/><rect class="cls-1" x="275.12" y="325.54" width="2.7" height="4.92"/><rect class="cls-1" x="284.96" y="325.54" width="2.7" height="10.87"/></svg>