<svg xmlns="http://www.w3.org/2000/svg" viewBox="0 0 570 472.38"><defs><style>.cls-1,.cls-11{fill:#fff;}.cls-12,.cls-2,.cls-6,.cls-9{fill:none;}.cls-11,.cls-2,.cls-3{stroke:#282d33;}.cls-12,.cls-2,.cls-3,.cls-9{stroke-miterlimit:10;}.cls-2,.cls-3{stroke-width:1.27px;}.cls-3,.cls-5{fill:#282d33;}.cls-4{fill:#ffcb05;}.cls-7{fill:#1b2c38;}.cls-8{fill:#636c78;}.cls-12,.cls-9{stroke:#1b2c38;}.cls-9{stroke-width:2.56px;}.cls-10{fill:#27c7cd;}.cls-11{stroke-width:6.54px;}.cls-12{stroke-width:4.03px;}</style></defs><title>02-slide</title><g id="Layer_4" data-name="Layer 4"><path class="cls-1" d="M720.25,303.61l32.9,10.7a46.65,46.65,0,0,1-13.5,16Z" transform="translate(-207.75 -77.87)"/><path class="cls-2" d="M761.66,266.92a56.61,56.61,0,0,0-33.17-28.33,53.32,53.32,0,0,0-14.34-2.71l-1.33-.06v55.57l52.85,17.18.34-1.3A56.82,56.82,0,0,0,761.66,266.92Z" transform="translate(-207.75 -77.87)"/><path class="cls-3" d="M762.94,266.28a58.07,58.07,0,0,0-34-29,55.41,55.41,0,0,0-16.81-2.84l-.73,0v58.06l55.22,17.94.21-.7A58.18,58.18,0,0,0,762.94,266.28Zm3.07,41-.34,1.3-52.85-17.18V235.82l1.33.06a53.32,53.32,0,0,1,14.34,2.71A57,57,0,0,1,766,307.27Z" transform="translate(-207.75 -77.87)"/><path class="cls-4" d="M710.86,340.05a47.25,47.25,0,0,1-33.39-80.67,45.55,45.55,0,0,1,26-13.38v49.26l2.67,3.61,26.18,36a47.44,47.44,0,0,1-21.48,5.14Z" transform="translate(-207.75 -77.87)"/><path class="cls-5" d="M492.65,476.22a71.53,71.53,0,0,1-143.06.85h-2.44a74,74,0,0,0,148-.85V382.37h-2.45Z" transform="translate(-207.75 -77.87)"/><path class="cls-4" d="M605.18,135.9a146.49,146.49,0,1,1-207.18,0A146.49,146.49,0,0,1,605.18,135.9Z" transform="translate(-207.75 -77.87)"/><path class="cls-5" d="M306.35,309.88h2.44v-1.22c0-.4,0-.8,0-1.2l-2.44,0Z" transform="translate(-207.75 -77.87)"/><rect class="cls-5" x="30.42" y="229.57" width="2.55" height="2.44"/><rect class="cls-5" x="38.94" y="229.57" width="2.55" height="2.44"/><rect class="cls-5" x="47.46" y="229.57" width="2.55" height="2.44"/><rect class="cls-5" x="55.99" y="229.57" width="2.55" height="2.44"/><rect class="cls-5" x="90.07" y="229.57" width="2.55" height="2.44"/><rect class="cls-5" x="64.51" y="229.57" width="2.55" height="2.44"/><rect class="cls-5" x="81.55" y="229.57" width="2.55" height="2.44"/><rect class="cls-5" x="73.03" y="229.57" width="2.55" height="2.44"/><path class="cls-4" d="M691.73,426a60.89,60.89,0,0,1,0,86.11c-22.65,22.64-63.48,22.64-86.12,0A60.89,60.89,0,1,1,691.73,426Z" transform="translate(-207.75 -77.87)"/><path class="cls-5" d="M474.88,441.72a20.24,20.24,0,0,1-40.46.85H432a22.7,22.7,0,0,0,22.68,21.84,22.72,22.72,0,0,0,22.68-22.69V341.9h-2.45Z" transform="translate(-207.75 -77.87)"/><path class="cls-5" d="M476,480.2a55.86,55.86,0,1,1-89.6-51.88,55.19,55.19,0,0,1,34.16-11.77,59.07,59.07,0,0,1,6.22.34l.3-2.42a59.54,59.54,0,0,0-6.53-.36,58.31,58.31,0,0,0-57.71,51.06,58.37,58.37,0,0,0,50.6,65.1,59.28,59.28,0,0,0,7.28.45,58.39,58.39,0,0,0,57.71-50.22Z" transform="translate(-207.75 -77.87)"/><path class="cls-5" d="M459.83,478.17A39.6,39.6,0,0,1,420.72,512a40.65,40.65,0,0,1-4.93-.3,39.56,39.56,0,0,1-34.42-43.32l-2.43-.3a42,42,0,0,0,83.32,10.43Z" transform="translate(-207.75 -77.87)"/><path class="cls-5" d="M566.56,507.05a17.52,17.52,0,0,1-35-.85V341.9H529.1V506.2a20,20,0,0,0,39.91.85Z" transform="translate(-207.75 -77.87)"/><rect class="cls-5" x="302.49" y="320.06" width="2.44" height="98.44"/><path class="cls-5" d="M580.66,517.89a33.36,33.36,0,0,0-31.73-43.6l-1.38,0,.16,2.44,1.22,0a30.91,30.91,0,1,1-27.1,45.74l-2.18,1.11a33.1,33.1,0,0,0,19,15.79A33.49,33.49,0,0,0,549,541a33.41,33.41,0,0,0,31.69-23.11Z" transform="translate(-207.75 -77.87)"/><rect class="cls-5" x="701.74" y="121.26" width="2.44" height="9.73" transform="translate(-91 456.22) rotate(-45.01)"/><rect class="cls-5" x="698.1" y="124.91" width="9.74" height="2.44" transform="translate(-91.05 456.15) rotate(-45)"/><rect class="cls-5" x="222.38" y="167.95" width="2.44" height="9.73" transform="translate(-264.46 130.89) rotate(-45.01)"/><rect class="cls-5" x="218.74" y="171.6" width="9.74" height="2.44" transform="translate(-264.46 130.88) rotate(-45)"/><circle class="cls-4" cx="63.91" cy="396.84" r="46.43"/><polygon class="cls-5" points="88.52 448 90.55 446.64 64.39 407.42 61.85 407.42 35.7 446.64 37.73 448 63.13 409.92 88.52 448"/><rect class="cls-5" x="61.9" y="409.52" width="2.44" height="37.4"/><path class="cls-5" d="M276.53,482.19a6.61,6.61,0,0,0,.66-4.25l-2.37.74a4.13,4.13,0,0,1-.46,2.38,4.2,4.2,0,0,1-2.48,2.08,4.54,4.54,0,0,1-1.27.19,4.24,4.24,0,0,1-3.69-2.17l-2.36.74a6.63,6.63,0,0,0,3,3.11,6.54,6.54,0,0,0,3.08.77,6.84,6.84,0,0,0,2-.31A6.68,6.68,0,0,0,276.53,482.19Z" transform="translate(-207.75 -77.87)"/><rect class="cls-6" x="240.46" y="458.77" width="68.63" height="16.15" transform="translate(-354.59 48.85) rotate(-20.63)"/><path class="cls-5" d="M312.89,463.73,305.48,444,236.67,470l7.41,19.68Zm-8.84-16.54,5.69,15.11-64.23,24.18-5.69-15.11Z" transform="translate(-207.75 -77.87)"/><rect class="cls-6" x="308.89" y="442.38" width="8.97" height="19.86" transform="translate(-347.01 61.54) rotate(-20.63)"/><path class="cls-5" d="M324.22,461.45l-8.72-23.17-13,4.89,8.72,23.16Zm-10.14-20,7,18.59-8.39,3.16-7-18.59Z" transform="translate(-207.75 -77.87)"/><rect class="cls-6" x="224.16" y="478.38" width="16.75" height="8.71" transform="translate(-362.91 35) rotate(-20.63)"/><path class="cls-5" d="M245.06,485.29l-4.79-12.73L220,480.19l4.79,12.72Zm-6.22-9.58,3.07,8.16-15.68,5.9-3.07-8.16Z" transform="translate(-207.75 -77.87)"/><path class="cls-1" d="M265,473.07l50-18.83Z" transform="translate(-207.75 -77.87)"/><rect class="cls-5" x="264.18" y="462.43" width="51.73" height="2.44" transform="translate(-352.51 54.05) rotate(-20.63)"/><rect class="cls-1" x="63.18" y="363.97" width="4.14" height="4.15"/><rect class="cls-1" x="96.38" y="398.21" width="4.14" height="4.15"/><rect class="cls-1" x="82.63" y="414.03" width="4.14" height="4.15"/><rect class="cls-1" x="36.98" y="418.7" width="4.14" height="4.15"/><path class="cls-7" d="M248.74,449.23a10,10,0,0,1-2.71-19.6c-.47,0-.95-.07-1.44-.07A13.88,13.88,0,1,0,258.35,442,10,10,0,0,1,248.74,449.23Z" transform="translate(-207.75 -77.87)"/><path class="cls-1" d="M305.27,255.13l7.93-7.93,30-30,7.93-7.93a15.38,15.38,0,0,1,20-18.89l-9.27,9.27,1.93,7.21,7.21,1.93,9.27-9.27a15.37,15.37,0,0,1-18.9,20l-7.93,7.93-30,30.05-7.93,7.92a15.37,15.37,0,0,1-20,18.9l9.27-9.27-1.94-7.21-7.2-1.93-9.27,9.27a15.38,15.38,0,0,1,18.89-20Z" transform="translate(-207.75 -77.87)"/><polygon class="cls-5" points="175.41 207.95 170.46 191.19 169.08 189.81 167.35 191.54 168.29 192.48 171.79 204.33 159.94 200.83 159 199.89 157.27 201.62 158.65 203 175.41 207.95"/><rect class="cls-6" x="330.37" y="192.32" width="11.99" height="93.39" transform="translate(-278.25 229.99) rotate(-45)"/><path class="cls-5" d="M377.08,267.8l-69.49-69.49-11.94,11.93,69.5,69.5Zm-69.49-66,66,66-8.48,8.48-66-66Z" transform="translate(-207.75 -77.87)"/><rect class="cls-5" x="334.23" y="191.61" width="2.44" height="93" transform="translate(-277.87 229.07) rotate(-45)"/><path class="cls-5" d="M302,192.84l-3.47-3.46a2.32,2.32,0,0,0-1.68-.68,2.92,2.92,0,0,0-2.06.89l-7.87,7.87a2.9,2.9,0,0,0-.87,1.79,2.37,2.37,0,0,0,.66,1.95l3.46,3.46,1.73-1.73-3.5-3.5,8.37-8.36,3.5,3.5Z" transform="translate(-207.75 -77.87)"/><rect class="cls-4" x="291.27" y="197.72" width="18.59" height="11" transform="translate(-263.42 194.16) rotate(-45)"/><path class="cls-6" d="M387.33,330.73H294.81a1.46,1.46,0,0,0-1.46,1.46v56h95.44v-56A1.46,1.46,0,0,0,387.33,330.73Z" transform="translate(-207.75 -77.87)"/><path class="cls-5" d="M387.33,328.29H294.81a3.91,3.91,0,0,0-3.91,3.9v58.48H391.24V332.19A3.91,3.91,0,0,0,387.33,328.29Zm1.46,59.94H293.35v-56a1.46,1.46,0,0,1,1.46-1.46h92.52a1.46,1.46,0,0,1,1.46,1.46Z" transform="translate(-207.75 -77.87)"/><path class="cls-8" d="M292.13,389.39v8.26a3.61,3.61,0,0,0,3.21,3.35h92.18c1.58,0,2.53-1.63,2.53-3.21v-8.4Z" transform="translate(-207.75 -77.87)"/><path class="cls-6" d="M295.34,399.78h92.18c.8,0,1.3-1,1.3-2v-7.17H293.36v7A2.45,2.45,0,0,0,295.34,399.78Z" transform="translate(-207.75 -77.87)"/><path class="cls-5" d="M290.91,397.65a4.8,4.8,0,0,0,4.43,4.57h92.18c2.34,0,3.75-2.25,3.75-4.43v-9.62H290.91Zm2.45-7h95.46v7.17c0,.95-.5,2-1.3,2H295.34a2.45,2.45,0,0,1-2-2.13Z" transform="translate(-207.75 -77.87)"/><path class="cls-5" d="M331.38,402l-2.44-.2c0,.74,0,1.62,0,2.54a31.08,31.08,0,0,1-.19,5.31,7.4,7.4,0,0,1-.29,1.18l-.1.26-.24.15-.27.16-.26.14c-.35.19-.93.47-1.62.78l1,2.24c.78-.35,1.42-.66,1.84-.89l.13-.07c1.29-.71,1.78-1.17,2.24-3.47a31.93,31.93,0,0,0,.24-5.87C331.38,403.46,331.37,402.67,331.38,402Z" transform="translate(-207.75 -77.87)"/><path class="cls-5" d="M356.11,412.35c-.73-.33-1.33-.62-1.73-.84l-.1-.05a2.32,2.32,0,0,1-.28-.16l-.25-.15-.1-.29a9.52,9.52,0,0,1-.29-1.18,32.75,32.75,0,0,1-.19-5.25c0-.9,0-1.77,0-2.5l-2.44.2c0,.65,0,1.45,0,2.27a31,31,0,0,0,.24,5.75c.45,2.29.85,2.74,2.22,3.5l.09.05c.5.27,1.23.61,1.85.89Z" transform="translate(-207.75 -77.87)"/><rect class="cls-5" x="116.09" y="334.55" width="34.51" height="2.44"/><rect class="cls-4" x="95.44" y="287.28" width="12.3" height="15.35"/><rect class="cls-1" x="115.71" y="266.65" width="12.3" height="35.98"/><rect class="cls-6" x="116.93" y="267.88" width="9.86" height="33.53"/><path class="cls-5" d="M322.24,381.72H337V343.3H322.24Zm2.45-36h9.85v33.54h-9.85Z" transform="translate(-207.75 -77.87)"/><rect class="cls-4" x="135.98" y="276.39" width="12.3" height="26.24"/><rect class="cls-1" x="156.26" y="258.32" width="12.3" height="44.31"/><path class="cls-4" d="M340.65,323.24H318a1.63,1.63,0,0,0-1.64,1.64v9.41a1.63,1.63,0,0,0,1.64,1.64h9.09l.6,1,1.63,2.83L331,337l.6-1h9.09a1.64,1.64,0,0,0,1.64-1.64v-9.41A1.64,1.64,0,0,0,340.65,323.24Z" transform="translate(-207.75 -77.87)"/><rect class="cls-1" x="115.46" y="249.73" width="12.22" height="4.15"/><path class="cls-1" d="M299.24,380.5h0Z" transform="translate(-207.75 -77.87)"/><rect class="cls-5" x="92.34" y="301.41" width="81.99" height="2.44"/><path class="cls-6" d="M609.84,359.77a20.53,20.53,0,0,0-2.63-6.82l-.46-.75,4.56-5.4-4-4L602,347.22l-.77-.52a20.15,20.15,0,0,0-6.68-3l-.86-.2-.58-7.05h-5.71l-.57,6.88-.91.17a20.24,20.24,0,0,0-6.82,2.63l-.75.46-5.4-4.57-4,4,4.46,5.26-.52.77a20.33,20.33,0,0,0-3,6.68l-.2.86-7.05.59V366l6.87.58.18.91a20.27,20.27,0,0,0,2.63,6.82l.46.75-4.57,5.4,4,4,5.26-4.46.77.53a20.13,20.13,0,0,0,6.68,3l.86.21.59,7.05h5.7l.57-6.88.92-.17a20.27,20.27,0,0,0,6.81-2.63l.76-.46,5.39,4.56,4-4-4.46-5.27.53-.76a20.52,20.52,0,0,0,3-6.68l.21-.86,7-.59v-5.71l-6.88-.57Z" transform="translate(-207.75 -77.87)"/><path class="cls-5" d="M611.9,357.81A22.78,22.78,0,0,0,610,353l-.27-.51,4.89-5.78-7.21-7.21-5.58,4.71-.52-.3a22.94,22.94,0,0,0-4.78-2.11l-.55-.16-.62-7.54H585.16l-.6,7.27-.59.16a22.83,22.83,0,0,0-4.87,1.88l-.51.27-5.77-4.89L565.61,346l4.71,5.57-.3.52a23.17,23.17,0,0,0-2.11,4.78l-.17.55-7.54.63v10.2l7.28.61.15.58a22.86,22.86,0,0,0,1.89,4.87l.27.51-4.89,5.77,7.22,7.22,5.57-4.72.52.31a22.62,22.62,0,0,0,4.78,2.1l.55.17.63,7.54h10.2l.61-7.28.58-.15a22.34,22.34,0,0,0,4.87-1.89l.51-.26,5.77,4.88,7.22-7.21-4.72-5.58.31-.52a23.06,23.06,0,0,0,2.1-4.77l.17-.55,7.54-.63V359l-7.28-.6Zm5,9.15-7,.59-.21.86a20.52,20.52,0,0,1-3,6.68l-.53.76,4.46,5.27-4,4-5.39-4.56-.76.46a20.27,20.27,0,0,1-6.81,2.63l-.92.17-.57,6.88h-5.7l-.59-7.05-.86-.21a20.13,20.13,0,0,1-6.68-3l-.77-.53-5.26,4.46-4-4,4.57-5.4-.46-.75a20.27,20.27,0,0,1-2.63-6.82l-.18-.91-6.87-.58v-5.7l7.05-.59.2-.86a20.33,20.33,0,0,1,3-6.68l.52-.77-4.46-5.26,4-4,5.4,4.57.75-.46a20.24,20.24,0,0,1,6.82-2.63l.91-.17.57-6.88h5.71l.58,7.05.86.2a20.15,20.15,0,0,1,6.68,3l.77.52,5.27-4.45,4,4-4.56,5.4.46.75a20.53,20.53,0,0,1,2.63,6.82l.17.91,6.88.57Z" transform="translate(-207.75 -77.87)"/><circle class="cls-9" cx="382.01" cy="285.74" r="11.33"/><path class="cls-5" d="M410.93,122.28l-1.07-2.2a19.8,19.8,0,0,0-2.22,1.41l1.53,1.91A15.4,15.4,0,0,1,410.93,122.28Z" transform="translate(-207.75 -77.87)"/><path class="cls-5" d="M406.41,148.36l-1.91,1.53a18.24,18.24,0,0,0,1.87,1.86l1.52-1.91A17.23,17.23,0,0,1,406.41,148.36Z" transform="translate(-207.75 -77.87)"/><path class="cls-5" d="M416.1,120.46a14.56,14.56,0,0,1,2.08-.24v-2.45a19.28,19.28,0,0,0-2.62.3Z" transform="translate(-207.75 -77.87)"/><path class="cls-5" d="M402.4,134.23,400,133.7a20.43,20.43,0,0,0-.29,2.61l2.45,0A15.88,15.88,0,0,1,402.4,134.23Z" transform="translate(-207.75 -77.87)"/><path class="cls-5" d="M403.48,143.73a17,17,0,0,1-.69-2l-2.39.54a20,20,0,0,0,.88,2.5Z" transform="translate(-207.75 -77.87)"/><path class="cls-5" d="M411.47,155a21.73,21.73,0,0,0,2.5.87l.54-2.39a17.86,17.86,0,0,1-2-.69Z" transform="translate(-207.75 -77.87)"/><path class="cls-5" d="M404.19,129.06a19,19,0,0,1,1.11-1.78l-1.91-1.52A18.62,18.62,0,0,0,402,128Z" transform="translate(-207.75 -77.87)"/><path class="cls-5" d="M434,145.23a17,17,0,0,1-1.11,1.77l1.91,1.53a18.5,18.5,0,0,0,1.4-2.23Z" transform="translate(-207.75 -77.87)"/><path class="cls-5" d="M434.67,130.5a15.8,15.8,0,0,1,.7,2l2.38-.55a18.28,18.28,0,0,0-.88-2.48Z" transform="translate(-207.75 -77.87)"/><path class="cls-5" d="M431.74,125.87l1.9-1.53a18.24,18.24,0,0,0-1.87-1.86l-1.52,1.92A17.23,17.23,0,0,1,431.74,125.87Z" transform="translate(-207.75 -77.87)"/><path class="cls-5" d="M424.16,118.42l-.53,2.39a17,17,0,0,1,2,.68l1.06-2.2A18.49,18.49,0,0,0,424.16,118.42Z" transform="translate(-207.75 -77.87)"/><path class="cls-5" d="M427.2,152l1.07,2.2a19.92,19.92,0,0,0,2.23-1.41L429,150.88A18.17,18.17,0,0,1,427.2,152Z" transform="translate(-207.75 -77.87)"/><path class="cls-5" d="M422.58,156.19l-.55-2.38A16,16,0,0,1,420,154v2.45A19.28,19.28,0,0,0,422.58,156.19Z" transform="translate(-207.75 -77.87)"/><path class="cls-5" d="M435.77,140.06l2.38.54a19.44,19.44,0,0,0,.3-2.68L436,138A16.29,16.29,0,0,1,435.77,140.06Z" transform="translate(-207.75 -77.87)"/><path class="cls-1" d="M607.4,529V515.13C607.4,509,613,504,620,504h55.12c6.94,0,12.56,5,12.56,11.12V529Z" transform="translate(-207.75 -77.87)"/><path class="cls-5" d="M675.08,502.79H620c-7.6,0-13.78,5.53-13.78,12.34v13h2.44v-13c0-5.46,5.09-9.9,11.34-9.9h55.12c6.25,0,11.34,4.44,11.34,9.9v13h2.44v-13C688.86,508.32,682.68,502.79,675.08,502.79Z" transform="translate(-207.75 -77.87)"/><polygon class="cls-1" points="450.32 426.26 439.76 432.35 429.21 426.26 429.21 403.22 439.76 403.22 450.32 403.22 450.32 426.26"/><polygon class="cls-6" points="449.1 425.55 449.1 404.44 430.44 404.44 430.44 425.55 439.76 430.94 449.1 425.55"/><path class="cls-5" d="M635.74,504.83l11.78,6.8,11.77-6.8v-25H635.74Zm2.45-22.52h18.66v21.11l-9.33,5.39-9.33-5.39Z" transform="translate(-207.75 -77.87)"/><path class="cls-1" d="M672.35,474.16a24.66,24.66,0,0,1-24.67,24.67h0A24.67,24.67,0,0,1,623,474.16V452.73c0-13.63,11-12.61,24.68-12.61h0c13.63,0,24.67-1,24.67,12.61Z" transform="translate(-207.75 -77.87)"/><path class="cls-6" d="M652.86,441.33H642.49c-11.36,0-18.27.76-18.27,11.4v21.43a23.46,23.46,0,0,0,46.91,0V452.73C671.13,442.09,664.23,441.33,652.86,441.33Z" transform="translate(-207.75 -77.87)"/><path class="cls-5" d="M652.86,438.88l-5.18,0-5.19,0c-9.71,0-20.71,0-20.71,13.85v21.43a25.9,25.9,0,0,0,51.79,0V452.73C673.57,438.88,662.57,438.88,652.86,438.88Zm18.27,35.28a23.46,23.46,0,0,1-46.91,0V452.73c0-10.64,6.91-11.4,18.27-11.4h10.37c11.37,0,18.27.76,18.27,11.4Z" transform="translate(-207.75 -77.87)"/><rect class="cls-5" x="427.3" y="387.31" width="4.5" height="4.15"/><rect class="cls-5" x="428.15" y="388.16" width="2.79" height="2.44"/><rect class="cls-5" x="448.05" y="387.31" width="4.5" height="4.15"/><rect class="cls-5" x="448.9" y="388.16" width="2.79" height="2.44"/><path class="cls-10" d="M659.06,484.72a7.25,7.25,0,0,0-7.23-6.75h-8.3a7.26,7.26,0,0,0-7.24,6.75Z" transform="translate(-207.75 -77.87)"/><path class="cls-6" d="M651.83,479.2h-8.3a6.05,6.05,0,0,0-5.22,3l-.75,1.29h20.23l-.74-1.29A6.05,6.05,0,0,0,651.83,479.2Z" transform="translate(-207.75 -77.87)"/><path class="cls-5" d="M660.28,484.63a8.5,8.5,0,0,0-8.45-7.88h-8.3a8.51,8.51,0,0,0-8.46,7.88l-.09,1.31h25.4Zm-22.72-1.13.75-1.29a6.05,6.05,0,0,1,5.22-3h8.3a6.05,6.05,0,0,1,5.22,3l.74,1.29Z" transform="translate(-207.75 -77.87)"/><path class="cls-10" d="M669.49,436.7v-1.61a4.11,4.11,0,0,0-4.06-4.15h-35.5a4.11,4.11,0,0,0-4.06,4.15v1.61a8.75,8.75,0,0,0-8.37,8.83l2.08,29.05,4,4.15s1.83-23.37,4.35-31l19.74,3.64,19.74-3.64c2.51,7.65,4.35,31,4.35,31l4-4.15,2.07-29.05A8.74,8.74,0,0,0,669.49,436.7Z" transform="translate(-207.75 -77.87)"/><path class="cls-6" d="M669.44,437.92l-1.18,0v-2.79a2.88,2.88,0,0,0-2.83-2.93h-35.5a2.88,2.88,0,0,0-2.84,2.93v2.79l-1.18,0a7.51,7.51,0,0,0-7.19,7.53l2,28.6,1.83,1.89.18-1.85c.7-7.58,2.16-21.14,4-26.76l.33-1,20.57,3.79,20.56-3.79.34,1c1.85,5.63,3.31,19.18,4,26.76l.17,1.85,1.83-1.89,2-28.53A7.52,7.52,0,0,0,669.44,437.92Z" transform="translate(-207.75 -77.87)"/><path class="cls-5" d="M671.37,435.71l-.64-.15,0-.66a5.29,5.29,0,0,0-5.27-5.18h-35.5a5.3,5.3,0,0,0-5.28,5.18l0,.66-.65.15a9.91,9.91,0,0,0-7.7,9.76l2.11,29.64,6.2,6.42.22-2.72c.16-2.08,1.69-20.54,3.78-28.92l.19-.78,18.9,3.48,18.89-3.48.19.78c2.1,8.38,3.62,26.84,3.79,28.94l.21,2.7,6.21-6.42,2.1-29.46v-.12A9.93,9.93,0,0,0,671.37,435.71Zm3.22,38.34-1.83,1.89-.17-1.85c-.7-7.58-2.16-21.13-4-26.76l-.34-1-20.56,3.79-20.57-3.79-.33,1c-1.85,5.62-3.31,19.18-4,26.76l-.18,1.85-1.83-1.89-2-28.6a7.51,7.51,0,0,1,7.19-7.53l1.18,0v-2.79a2.88,2.88,0,0,1,2.84-2.93h35.5a2.88,2.88,0,0,1,2.83,2.93v2.79l1.18,0a7.52,7.52,0,0,1,7.19,7.6Z" transform="translate(-207.75 -77.87)"/><path class="cls-1" d="M624.66,464.23c-2.46,0-6.62,1.35-6.85,3.56l-.81,7.83c-.23,2.21,3.55,4.42,6,4.9Z" transform="translate(-207.75 -77.87)"/><path class="cls-6" d="M619.07,467.74l0,.1-.83,8,0,.11c.18,1.06,2,2.12,2.55,2.42l1.12.61,1.41-13.52-1.22.36C621.48,466,619.47,466.7,619.07,467.74Z" transform="translate(-207.75 -77.87)"/><path class="cls-5" d="M616.6,467.66l-.82,7.84c-.33,3.16,4.28,5.69,7,6.22L624,482l1.84-17.59L626,463h-1.38C622.05,463,616.94,464.42,616.6,467.66ZM621.89,479l-1.12-.61c-.55-.3-2.37-1.36-2.55-2.42l0-.11.83-8,0-.1c.4-1,2.41-1.71,3-1.89l1.22-.36Z" transform="translate(-207.75 -77.87)"/><path class="cls-1" d="M670.37,464.78c2.46,0,6.66,1.51,7,3.73l1,7.85c.29,2.22-3.43,4.33-5.84,4.75Z" transform="translate(-207.75 -77.87)"/><path class="cls-6" d="M676.07,468.5c-.36-1.05-2.39-1.8-3-2l-1.29-.43,1.78,13.58,1.08-.57c.55-.28,2.33-1.28,2.5-2.35l0-.12-1.06-8Z" transform="translate(-207.75 -77.87)"/><path class="cls-5" d="M679.56,476.2l-1-7.85c-.43-3.28-5.6-4.76-8.15-4.79l-1.41,0,2.5,19,1.25-.22C675.41,481.85,680,479.41,679.56,476.2Zm-2.43.53c-.17,1.07-2,2.07-2.5,2.35l-1.08.57-1.78-13.58,1.29.43c.62.2,2.65.95,3,2l0,.08,1.06,8Z" transform="translate(-207.75 -77.87)"/><polygon class="cls-4" points="436.87 442.77 433.95 437.72 436.87 432.66 442.7 432.66 445.62 437.72 442.7 442.77 436.87 442.77"/><polygon class="cls-6" points="442 433.88 437.57 433.88 435.36 437.72 437.57 441.55 442 441.55 444.21 437.72 442 433.88"/><path class="cls-5" d="M651.16,509.31h-7.25l-3.62,6.28,3.62,6.27h7.25l3.63-6.27Zm-1.41,10.11h-4.42l-2.22-3.83,2.22-3.84h4.42l2.21,3.84Z" transform="translate(-207.75 -77.87)"/><polygon class="cls-4" points="434.99 451.98 436.87 442.78 442.7 442.78 444.58 451.98 434.99 451.98"/><polygon class="cls-5" points="441.71 444 443.22 451.39 445.61 450.9 443.7 441.56 435.87 441.56 433.96 450.9 436.36 451.39 437.87 444 441.71 444"/><polygon class="cls-1" points="428.08 440.37 439.75 432.66 429 426.45 428.08 440.37"/><polygon class="cls-6" points="430.09 428.49 429.46 438 437.43 432.73 430.09 428.49"/><path class="cls-5" d="M649.83,510.46l-14.16-8.18-1.22,18.34Zm-12-4.1,7.34,4.24-8,5.26Z" transform="translate(-207.75 -77.87)"/><polygon class="cls-1" points="451.49 440.37 439.82 432.66 450.57 426.45 451.49 440.37"/><polygon class="cls-6" points="442.14 432.73 450.11 438 449.48 428.49 442.14 432.73"/><path class="cls-5" d="M659.41,502.28l-14.16,8.18,15.37,10.16Zm-9.52,8.32,7.34-4.24.63,9.5Z" transform="translate(-207.75 -77.87)"/><path class="cls-6" d="M565,96.25a3.6,3.6,0,1,0,3.6,3.59A3.59,3.59,0,0,0,565,96.25Z" transform="translate(-207.75 -77.87)"/><path class="cls-5" d="M571,99.84a6,6,0,1,0-6,6A6,6,0,0,0,571,99.84Zm-6,3.6a3.6,3.6,0,1,1,3.6-3.6A3.6,3.6,0,0,1,565,103.44Z" transform="translate(-207.75 -77.87)"/><rect class="cls-5" x="406.83" width="15.83" height="2.44"/><rect class="cls-6" x="331.68" y="109.9" width="7.76" height="7.76" transform="translate(-189.93 192.73) rotate(-45)"/><path class="cls-5" d="M335.56,104.84l-8.95,8.94,8.95,9,8.94-9Zm-5.49,8.94,5.49-5.49,5.49,5.49-5.49,5.49Z" transform="translate(-207.75 -77.87)"/><rect class="cls-5" x="141.06" y="34.69" width="29.42" height="2.44"/><circle class="cls-6" cx="10.56" cy="230.38" r="8.12"/><path class="cls-5" d="M218.31,297.69a10.56,10.56,0,1,0,10.56,10.56A10.57,10.57,0,0,0,218.31,297.69Zm0,18.67a8.12,8.12,0,1,1,8.12-8.11A8.12,8.12,0,0,1,218.31,316.36Z" transform="translate(-207.75 -77.87)"/><rect class="cls-5" x="502.23" y="413.41" width="2.39" height="2.44"/><rect class="cls-5" x="510.43" y="413.41" width="2.39" height="2.44"/><rect class="cls-5" x="526.82" y="413.41" width="2.39" height="2.44"/><rect class="cls-5" x="518.63" y="413.41" width="2.39" height="2.44"/><rect class="cls-5" x="477.65" y="413.41" width="2.39" height="2.44"/><rect class="cls-5" x="494.04" y="413.41" width="2.39" height="2.44"/><rect class="cls-5" x="485.84" y="413.41" width="2.39" height="2.44"/><rect class="cls-5" x="558.22" y="370.84" width="2.44" height="2.39"/><rect class="cls-5" x="558.22" y="387.23" width="2.44" height="2.39"/><rect class="cls-5" x="558.22" y="379.03" width="2.44" height="2.39"/><path class="cls-5" d="M765.78,475.44l2.4.46a20.58,20.58,0,0,0,.23-2.61H766A19.28,19.28,0,0,1,765.78,475.44Z" transform="translate(-207.75 -77.87)"/><path class="cls-5" d="M750.79,491l.32,2.43a20.46,20.46,0,0,0,2.57-.62l-.82-2.31A16.42,16.42,0,0,1,750.79,491Z" transform="translate(-207.75 -77.87)"/><rect class="cls-5" x="535.02" y="413.41" width="2.39" height="2.44"/><path class="cls-5" d="M757.85,488.1l1.28,2.08a23.25,23.25,0,0,0,2.1-1.6l-1.68-1.78A19.58,19.58,0,0,1,757.85,488.1Z" transform="translate(-207.75 -77.87)"/><path class="cls-5" d="M764.18,480.73a17.8,17.8,0,0,1-1,1.87l2,1.4a22.75,22.75,0,0,0,1.28-2.32Z" transform="translate(-207.75 -77.87)"/><path class="cls-6" d="M767.19,428.35a8.12,8.12,0,1,0,8.12,8.12A8.13,8.13,0,0,0,767.19,428.35Z" transform="translate(-207.75 -77.87)"/><path class="cls-5" d="M767.19,425.91a10.56,10.56,0,1,0,10.56,10.56A10.58,10.58,0,0,0,767.19,425.91Zm0,18.68a8.12,8.12,0,1,1,8.12-8.12A8.12,8.12,0,0,1,767.19,444.59Z" transform="translate(-207.75 -77.87)"/><rect class="cls-5" x="387.36" y="195.52" width="2.44" height="5.51"/><rect class="cls-5" x="585.19" y="277.5" width="2.44" height="5.51" transform="translate(-234.12 419) rotate(-45.01)"/><rect class="cls-5" x="371.8" y="211.08" width="5.51" height="2.44"/><rect class="cls-5" x="583.66" y="298.87" width="5.51" height="2.44" transform="translate(-248.17 424.75) rotate(-45.01)"/><rect class="cls-5" x="387.36" y="223.58" width="2.44" height="5.51"/><rect class="cls-5" x="605.04" y="297.34" width="2.44" height="5.51" transform="translate(-242.41 438.64) rotate(-44.99)"/><rect class="cls-5" x="399.86" y="211.08" width="5.51" height="2.44"/><rect class="cls-5" x="603.51" y="279.03" width="5.51" height="2.44" transform="translate(-228.41 432.75) rotate(-44.99)"/><path class="cls-5" d="M736,192.55h2.44v-1.22c0-.4,0-.8,0-1.2l-2.44,0Z" transform="translate(-207.75 -77.87)"/><rect class="cls-5" x="460.1" y="112.24" width="2.55" height="2.44"/><rect class="cls-5" x="468.62" y="112.24" width="2.55" height="2.44"/><rect class="cls-5" x="477.15" y="112.24" width="2.55" height="2.44"/><rect class="cls-5" x="485.67" y="112.24" width="2.55" height="2.44"/><rect class="cls-5" x="519.75" y="112.24" width="2.55" height="2.44"/><rect class="cls-5" x="494.19" y="112.24" width="2.55" height="2.44"/><rect class="cls-5" x="511.23" y="112.24" width="2.55" height="2.44"/><rect class="cls-5" x="502.71" y="112.24" width="2.55" height="2.44"/><rect class="cls-6" x="715.48" y="365.84" width="7.76" height="7.76" transform="translate(-258.49 539.08) rotate(-45)"/><path class="cls-5" d="M719.36,378.67l8.94-8.94-8.94-9-9,9Zm5.48-8.94-5.48,5.48-5.49-5.48,5.49-5.49Z" transform="translate(-207.75 -77.87)"/><polyline class="cls-5" points="468.93 293.08 498.35 293.08 498.35 290.63 468.93 290.63"/></g><g id="Layer_5" data-name="Layer 5"><path class="cls-10" d="M503.89,141a87.19,87.19,0,0,0-87.22,87.19c0,48.2,87.22,122.55,87.22,122.55s87.21-74.35,87.21-122.55A87.18,87.18,0,0,0,503.89,141Z" transform="translate(-207.75 -77.87)"/><path class="cls-6" d="M587.05,228.23a83.16,83.16,0,0,0-166.32,0c0,15.88,10.46,37,31.1,62.93,20.4,25.58,43.69,46.83,50.34,52.74l1.7,1.52,1.71-1.53a502,502,0,0,0,39-39.11C572.35,273.38,587.05,246.91,587.05,228.23Z" transform="translate(-207.75 -77.87)"/><path class="cls-6" d="M502.73,343.26c-6.63-5.89-29.87-27.1-50.23-52.63-20.52-25.73-30.92-46.72-30.92-62.4a82.31,82.31,0,0,1,164.61,0c0,18.46-14.61,44.74-42.27,76A500.78,500.78,0,0,1,505,343.26l-1.14,1Z" transform="translate(-207.75 -77.87)"/><path class="cls-6" d="M587.9,228.23a84,84,0,0,0-168,0c0,16.08,10.52,37.43,31.28,63.46,20.45,25.64,43.78,46.93,50.44,52.85l2.28,2,2.27-2a500.79,500.79,0,0,0,39.05-39.19C573.13,273.78,587.9,247.12,587.9,228.23Z" transform="translate(-207.75 -77.87)"/><path class="cls-6" d="M588.75,228.23a84.87,84.87,0,0,0-169.73,0c0,16.27,10.59,37.81,31.48,64,20.48,25.69,43.86,47,50.53,53l2.85,2.52,2.84-2.54a502,502,0,0,0,39.12-39.25C573.91,274.19,588.75,247.33,588.75,228.23Z" transform="translate(-207.75 -77.87)"/><path class="cls-6" d="M589.61,228.23a85.72,85.72,0,0,0-171.44,0c0,16.47,10.65,38.18,31.66,64.52,20.53,25.74,43.95,47.13,50.64,53.06l3.41,3,3.41-3.05a504.32,504.32,0,0,0,39.19-39.33C574.69,274.6,589.61,247.54,589.61,228.23Z" transform="translate(-207.75 -77.87)"/><path class="cls-5" d="M550.46,306.49c27.57-31.65,42.14-58.71,42.14-78.26a88.71,88.71,0,0,0-177.42,0c0,19.55,14.57,46.61,42.14,78.26a476.5,476.5,0,0,0,45.6,45.43l1,.82,1-.82A487.66,487.66,0,0,0,550.46,306.49ZM507.29,345.8l-3.41,3.05-3.41-3c-6.69-5.93-30.11-27.32-50.64-53.06-21-26.34-31.66-48.05-31.66-64.52a85.72,85.72,0,0,1,171.44,0c0,19.31-14.92,46.37-43.13,78.24A504.32,504.32,0,0,1,507.29,345.8Z" transform="translate(-207.75 -77.87)"/><path class="cls-1" d="M503.9,292.28a64,64,0,1,1,64-64A64.05,64.05,0,0,1,503.9,292.28Z" transform="translate(-207.75 -77.87)"/></g><g id="Layer_6" data-name="Layer 6"><path class="cls-11" d="M550.88,260" transform="translate(-207.75 -77.87)"/><path class="cls-6" d="M492.66,168.8a60.87,60.87,0,0,0-39,26h0a61.34,61.34,0,0,0,101.19,69.34l1.62,1.08L558,263l-1.62-1.15a61.35,61.35,0,0,0-63.69-93.09Z" transform="translate(-207.75 -77.87)"/><path class="cls-5" d="M540.85,174.81a65.2,65.2,0,1,0,17.93,90.4l.06-.09a65.12,65.12,0,0,0-18-90.31Zm15.5,87.08L558,263l-1.53,2.22-1.62-1.08a61.34,61.34,0,0,1-101.19-69.34h0a61.34,61.34,0,0,1,102.72,67Z" transform="translate(-207.75 -77.87)"/><path class="cls-12" d="M546.29,256.73a50,50,0,1,1,7.48-37.51A49.78,49.78,0,0,1,546.29,256.73Z" transform="translate(-207.75 -77.87)"/><path class="cls-7" d="M496.94,194.73,496,190a39.64,39.64,0,0,0-24.54,16.78l-.05.08a39.65,39.65,0,0,0-6.12,29.06L470,235a34.83,34.83,0,0,1,5.4-25.44l.05-.07A34.73,34.73,0,0,1,496.94,194.73Z" transform="translate(-207.75 -77.87)"/><rect class="cls-7" x="585.48" y="257.83" width="33.49" height="73.02" transform="translate(-185.16 553.13) rotate(-56.2)"/><path class="cls-1" d="M627.15,303.88l-33.61-22.51Z" transform="translate(-207.75 -77.87)"/><rect class="cls-1" x="607.08" y="272.39" width="6.54" height="40.46" transform="translate(-180.13 559.11) rotate(-56.2)"/><rect class="cls-6" x="566.14" y="273.15" width="22" height="8.81" transform="translate(-182.41 524.71) rotate(-56.18)"/><path class="cls-5" d="M575.74,294.48l16.52-24.68-13.71-9.18L562,285.29Zm-8.38-10.24L579.6,266l7.32,4.9-12.24,18.28Z" transform="translate(-207.75 -77.87)"/><path class="cls-6" d="M635.27,314.07,628,324.87l2.88,1.93.6-.18a16.36,16.36,0,0,0,11.71-17.48l-.07-.62-2.88-1.93Z" transform="translate(-207.75 -77.87)"/><path class="cls-5" d="M632.07,311.93l-9.37,14,7.41,5,.79-.16A20.2,20.2,0,0,0,646.79,307l-.15-.78-7.43-5Zm11.16-2.79a16.36,16.36,0,0,1-11.71,17.48l-.6.18L628,324.87l7.23-10.8,5-7.48,2.88,1.93Z" transform="translate(-207.75 -77.87)"/><rect class="cls-5" x="562.22" y="272.83" width="3.85" height="8.14" transform="translate(-187.56 513.75) rotate(-56.2)"/><rect class="cls-5" x="565.16" y="257.11" width="3.85" height="11.32" transform="translate(-174.48 509.99) rotate(-56.2)"/></g><g id="Layer_3" data-name="Layer 3"><polygon class="cls-10" points="377.64 73.78 371.06 54.03 408.36 16.71 414.95 36.48 377.64 73.78"/><polygon class="cls-10" points="377.64 73.78 397.4 80.37 434.7 43.06 414.95 36.48 377.64 73.78"/><polygon class="cls-6" points="412.8 35.97 407.54 20.2 373.21 54.54 378.46 70.3 412.8 35.97"/><path class="cls-5" d="M624.85,114.85,616.94,91.1l-40.28,40.29,7.91,23.74Zm-9.56-16.78,5.26,15.77-34.33,34.33L581,132.41Z" transform="translate(-207.75 -77.87)"/><path class="cls-5" d="M577.63,131.62l38.93-38.94,7.32,21.94L585,153.55Zm2.35.55,5.86,17.58,35.69-35.68-5.86-17.58Z" transform="translate(-207.75 -77.87)"/><polygon class="cls-6" points="415.46 38.63 381.12 72.96 396.89 78.22 431.22 43.88 415.46 38.63"/><path class="cls-5" d="M622.19,112.19l-40.28,40.28,23.75,7.92,40.28-40.29Zm-17.55,43.89-15.76-5.25,34.33-34.33L639,121.75Z" transform="translate(-207.75 -77.87)"/><path class="cls-5" d="M583.49,152.1l38.94-38.93,21.93,7.31-38.93,38.93Zm3.81-.9,17.57,5.86,35.68-35.68L623,115.52Z" transform="translate(-207.75 -77.87)"/><path class="cls-5" d="M628.35,107a1.86,1.86,0,0,0-1.33.55L500.67,233.92a1.88,1.88,0,0,0,2.66,2.66L629.68,110.23a1.88,1.88,0,0,0-1.33-3.21Z" transform="translate(-207.75 -77.87)"/><path class="cls-5" d="M502,236.28a1,1,0,0,1-1-1,1,1,0,0,1,.3-.73L627.63,108.17a1,1,0,0,1,.72-.3,1,1,0,0,1,1,1,1,1,0,0,1-.3.72L502.73,236A1,1,0,0,1,502,236.28Z" transform="translate(-207.75 -77.87)"/><path class="cls-5" d="M502,235.42a.15.15,0,0,1-.12,0,.17.17,0,0,1,0-.24L628.23,108.78a.14.14,0,0,1,.12-.06.17.17,0,0,1,.12,0,.18.18,0,0,1,.06.13.17.17,0,0,1,0,.12L502.13,235.37A.17.17,0,0,1,502,235.42Z" transform="translate(-207.75 -77.87)"/><path class="cls-5" d="M502,235.42a.15.15,0,0,1-.12,0,.17.17,0,0,1,0-.24L628.23,108.78a.14.14,0,0,1,.12-.06.17.17,0,0,1,.12,0,.18.18,0,0,1,.06.13.17.17,0,0,1,0,.12L502.13,235.37A.17.17,0,0,1,502,235.42Z" transform="translate(-207.75 -77.87)"/></g></svg>