<svg xmlns="http://www.w3.org/2000/svg" viewBox="0 0 670 562.34"><defs><style>.cls-1{fill:#ffcb05;}.cls-2{fill:#1b2c38;}.cls-3{fill:#27c7cd;}.cls-4,.cls-6{fill:#fff;}.cls-5{fill:none;}.cls-6{stroke:#282d33;stroke-width:4px;}</style></defs><title>03-slide</title><g id="Layer_4" data-name="Layer 4"><path class="cls-1" d="M693.63,385.53H668.26V168.39a38.81,38.81,0,1,0-77.62,0v95.76H565.27V168.39a64.18,64.18,0,1,1,128.36,0Z" transform="translate(-213.99 -103.25)"/><path class="cls-1" d="M702.39,425.18a34,34,0,0,1-33.95-33.94v-9.19h25.38v9.19a8.56,8.56,0,1,0,17.12,0V341.12h25.37v50.12A34,34,0,0,1,702.39,425.18Z" transform="translate(-213.99 -103.25)"/><rect class="cls-2" x="464.42" y="277.2" width="5.08" height="5.08"/><rect class="cls-2" x="465.69" y="278.47" width="2.54" height="2.54"/><path class="cls-2" d="M586.58,137.63a52.78,52.78,0,0,0-4.18,6.86l2.29,1.09a50.68,50.68,0,0,1,3.91-6.42Z" transform="translate(-213.99 -103.25)"/><path class="cls-2" d="M622,118.67l-.31-2.51a52.19,52.19,0,0,0-7.83,1.77l.81,2.41A49.84,49.84,0,0,1,622,118.67Z" transform="translate(-213.99 -103.25)"/><path class="cls-2" d="M595.46,128l1.68,1.9a50.84,50.84,0,0,1,6.1-4.41L602,123.33A51,51,0,0,0,595.46,128Z" transform="translate(-213.99 -103.25)"/><path class="cls-2" d="M634.59,118.38A51.56,51.56,0,0,1,642,119.7l.69-2.44a52.94,52.94,0,0,0-7.9-1.41Z" transform="translate(-213.99 -103.25)"/><path class="cls-2" d="M654.84,122.09l-1.17,2.25a49.42,49.42,0,0,1,6.3,4.12l1.59-2A51.43,51.43,0,0,0,654.84,122.09Z" transform="translate(-213.99 -103.25)"/><rect class="cls-2" x="362.7" y="136.34" width="2.54" height="7.78"/><path class="cls-2" d="M675.35,142.33a53.11,53.11,0,0,0-4.48-6.66l-2,1.62a52,52,0,0,1,4.2,6.24Z" transform="translate(-213.99 -103.25)"/><path class="cls-2" d="M576.81,164.74l2.54.11a50.15,50.15,0,0,1,1.08-7.44l-2.46-.62A53.08,53.08,0,0,0,576.81,164.74Z" transform="translate(-213.99 -103.25)"/><rect class="cls-2" x="362.7" y="74.4" width="2.54" height="7.79"/><rect class="cls-2" x="362.7" y="95.04" width="2.54" height="7.79"/><rect class="cls-2" x="465.69" y="175.24" width="2.54" height="7.79"/><rect class="cls-2" x="465.69" y="195.89" width="2.54" height="7.79"/><rect class="cls-2" x="465.69" y="257.82" width="2.54" height="7.79"/><rect class="cls-2" x="465.69" y="216.54" width="2.54" height="7.78"/><rect class="cls-2" x="465.69" y="237.18" width="2.54" height="7.78"/><path class="cls-2" d="M681.87,162.31a53.88,53.88,0,0,0-1.52-7.89l-2.43.73a50,50,0,0,1,1.42,7.39Z" transform="translate(-213.99 -103.25)"/><rect class="cls-2" x="465.69" y="113.31" width="2.54" height="7.79"/><rect class="cls-2" x="465.69" y="72.02" width="2.54" height="7.79"/><rect class="cls-2" x="465.69" y="154.6" width="2.54" height="7.78"/><rect class="cls-2" x="465.69" y="92.66" width="2.54" height="7.79"/><rect class="cls-2" x="465.69" y="133.95" width="2.54" height="7.79"/><rect class="cls-2" x="361.43" y="155.82" width="5.08" height="5.08"/><rect class="cls-2" x="362.7" y="157.09" width="2.54" height="2.54"/><rect class="cls-2" x="145.12" y="39.34" width="22.05" height="2.54"/><rect class="cls-2" x="132.24" y="39.34" width="5.66" height="2.54"/><rect class="cls-2" x="116.57" y="52.66" width="22.05" height="2.54"/><rect class="cls-2" x="103.69" y="52.66" width="5.66" height="2.54"/><path class="cls-2" d="M626.62,606.66l1,2.36a15.35,15.35,0,0,0,2.75-1.84l-1.81-1.8A12.73,12.73,0,0,1,626.62,606.66Z" transform="translate(-213.99 -103.25)"/><path class="cls-2" d="M607.5,602.66a14.43,14.43,0,0,0,1.84,2.74l1.8-1.8a12.39,12.39,0,0,1-1.29-1.92Z" transform="translate(-213.99 -103.25)"/><path class="cls-2" d="M608.86,592.27l-2.36-1a14.77,14.77,0,0,0-.63,3.23h2.55A11.34,11.34,0,0,1,608.86,592.27Z" transform="translate(-213.99 -103.25)"/><path class="cls-2" d="M622,580.92l0,2.55a13.05,13.05,0,0,1,2.24.44l1-2.36A15.14,15.14,0,0,0,622,580.92Z" transform="translate(-213.99 -103.25)"/><path class="cls-2" d="M614.81,584.91l-1-2.35a14.92,14.92,0,0,0-2.74,1.84l1.81,1.8A11.85,11.85,0,0,1,614.81,584.91Z" transform="translate(-213.99 -103.25)"/><path class="cls-2" d="M633.94,588.87a14.81,14.81,0,0,0-1.85-2.74l-1.8,1.81a11.78,11.78,0,0,1,1.3,1.92Z" transform="translate(-213.99 -103.25)"/><path class="cls-2" d="M617.2,607.64l-1,2.36a15.37,15.37,0,0,0,3.24.64v-2.55A12.39,12.39,0,0,1,617.2,607.64Z" transform="translate(-213.99 -103.25)"/><path class="cls-2" d="M632.58,599.32l2.36,1a15,15,0,0,0,.64-3.28L633,597A12.77,12.77,0,0,1,632.58,599.32Z" transform="translate(-213.99 -103.25)"/><rect class="cls-2" x="259.36" y="168.82" width="2.54" height="6.29"/><rect class="cls-2" x="461.22" y="277.09" width="2.54" height="6.29" transform="translate(-276.67 305.93) rotate(-45.01)"/><rect class="cls-2" x="240.33" y="187.85" width="6.29" height="2.54"/><rect class="cls-2" x="459.34" y="303.23" width="6.29" height="2.54" transform="translate(-293.84 312.96) rotate(-45)"/><rect class="cls-2" x="259.36" y="203.14" width="2.54" height="6.29"/><rect class="cls-2" x="485.48" y="301.36" width="2.54" height="6.29" transform="translate(-286.77 330) rotate(-44.99)"/><rect class="cls-2" x="274.65" y="187.85" width="6.29" height="2.54"/><rect class="cls-2" x="483.61" y="278.97" width="6.29" height="2.54" transform="translate(-269.55 323.11) rotate(-45.01)"/><path class="cls-2" d="M452.84,567.22l-1.35,2.14c.76.47,1.53.93,2.3,1.36L455,568.5C454.28,568.08,453.56,567.65,452.84,567.22Z" transform="translate(-213.99 -103.25)"/><path class="cls-2" d="M437,554.72l-1.82,1.76c.63.63,1.27,1.26,1.92,1.87l1.71-1.87C438.17,555.9,437.56,555.31,437,554.72Z" transform="translate(-213.99 -103.25)"/><path class="cls-2" d="M444.54,561.44l-1.6,2c.69.54,1.4,1.09,2.12,1.62l1.48-2.06C445.87,562.47,445.2,562,444.54,561.44Z" transform="translate(-213.99 -103.25)"/><path class="cls-2" d="M425.79,541c-.46-.7-.91-1.41-1.36-2.13l-2.18,1.29c.47.76.95,1.52,1.44,2.27Z" transform="translate(-213.99 -103.25)"/><path class="cls-2" d="M431.83,549.11c-.54-.64-1.07-1.3-1.6-2l-2,1.55c.55.69,1.11,1.39,1.69,2.07Z" transform="translate(-213.99 -103.25)"/><path class="cls-2" d="M480.47,580.64c.87.17,1.76.33,2.64.47l.37-2.51c-.82-.13-1.65-.28-2.49-.44Z" transform="translate(-213.99 -103.25)"/><path class="cls-2" d="M461.76,572l-1.09,2.29c.81.37,1.62.73,2.44,1.08l1-2.35Z" transform="translate(-213.99 -103.25)"/><path class="cls-2" d="M470.38,578c.85.28,1.7.54,2.56.78l.67-2.44-2.42-.74Z" transform="translate(-213.99 -103.25)"/><rect class="cls-2" x="195.3" y="376.91" width="2.54" height="2.6"/><rect class="cls-2" x="195.3" y="387.19" width="2.54" height="2.6"/><path class="cls-2" d="M490.8,582c.89.07,1.79.12,2.67.16l.08-2.54-2.53-.15Z" transform="translate(-213.99 -103.25)"/><path class="cls-2" d="M412.3,503.15c-.09-.83-.17-1.67-.23-2.51l-2.54.15c.07.89.15,1.78.25,2.66Z" transform="translate(-213.99 -103.25)"/><rect class="cls-2" x="369.01" y="366.73" width="2.54" height="2.6"/><path class="cls-2" d="M420.75,532.19c-.38-.75-.74-1.52-1.1-2.28l-2.32,1c.37.81.76,1.61,1.16,2.42Z" transform="translate(-213.99 -103.25)"/><rect class="cls-2" x="195.3" y="366.62" width="2.54" height="2.6"/><path class="cls-2" d="M414,513.14c-.19-.83-.36-1.65-.53-2.47l-2.49.45c.17.87.35,1.74.55,2.62Z" transform="translate(-213.99 -103.25)"/><path class="cls-2" d="M416.78,522.87c-.29-.8-.56-1.6-.82-2.41l-2.42.75c.27.85.56,1.7.86,2.54Z" transform="translate(-213.99 -103.25)"/><path class="cls-2" d="M580.84,513.24l2.47.6c.19-.87.38-1.74.55-2.62l-2.49-.46C581.2,511.59,581,512.42,580.84,513.24Z" transform="translate(-213.99 -103.25)"/><path class="cls-2" d="M578.82,520.56c-.26.8-.54,1.6-.82,2.39l2.37.89c.31-.84.6-1.69.87-2.53Z" transform="translate(-213.99 -103.25)"/><path class="cls-2" d="M575.12,530c-.35.76-.72,1.52-1.09,2.27l2.25,1.17c.4-.8.79-1.6,1.16-2.41Z" transform="translate(-213.99 -103.25)"/><path class="cls-2" d="M503.89,582l-.22-2.52c-.83.06-1.68.11-2.52.14l.07,2.54C502.12,582.14,503,582.09,503.89,582Z" transform="translate(-213.99 -103.25)"/><rect class="cls-2" x="369.01" y="377.01" width="2.54" height="2.6"/><rect class="cls-2" x="369.01" y="387.29" width="2.54" height="2.6"/><path class="cls-2" d="M582.51,503.25l2.52.31c.09-.89.18-1.78.24-2.67l-2.53-.15C582.68,501.58,582.6,502.42,582.51,503.25Z" transform="translate(-213.99 -103.25)"/><path class="cls-2" d="M570.34,538.88c-.44.71-.89,1.43-1.36,2.13l2.1,1.42q.74-1.11,1.44-2.25Z" transform="translate(-213.99 -103.25)"/><path class="cls-2" d="M530.64,573l1,2.35c.83-.35,1.65-.71,2.46-1.09L533,572C532.19,572.34,531.42,572.68,530.64,573Z" transform="translate(-213.99 -103.25)"/><path class="cls-2" d="M521.09,576.39l.67,2.45c.86-.25,1.71-.51,2.56-.78l-.81-2.41C522.71,575.91,521.9,576.16,521.09,576.39Z" transform="translate(-213.99 -103.25)"/><path class="cls-2" d="M514.22,580.65l-.52-2.48-2.48.44.37,2.51C512.46,581,513.34,580.82,514.22,580.65Z" transform="translate(-213.99 -103.25)"/><path class="cls-2" d="M548.21,563l1.48,2.07c.72-.54,1.43-1.08,2.13-1.63l-1.6-2Q549.23,562.22,548.21,563Z" transform="translate(-213.99 -103.25)"/><path class="cls-2" d="M556,556.48l1.71,1.88c.66-.62,1.3-1.24,1.93-1.87l-1.82-1.77C557.2,555.32,556.6,555.9,556,556.48Z" transform="translate(-213.99 -103.25)"/><path class="cls-2" d="M564.54,547.17c-.53.66-1.06,1.31-1.6,2l1.92,1.66c.57-.68,1.14-1.38,1.69-2.08Z" transform="translate(-213.99 -103.25)"/><path class="cls-2" d="M539.73,568.51l1.22,2.22c.78-.44,1.55-.9,2.31-1.36l-1.35-2.15Z" transform="translate(-213.99 -103.25)"/><path class="cls-2" d="M602.63,493.08a105.42,105.42,0,0,1-104,105.29v2.53A108,108,0,0,0,605.17,493.08V453.7h-2.54Z" transform="translate(-213.99 -103.25)"/><path class="cls-2" d="M377.51,269.38a34.19,34.19,0,0,0-34.14,34.18V331h2.54V303.56a31.61,31.61,0,1,1,63.22,0V461h2.54V303.56A34.21,34.21,0,0,0,377.51,269.38Z" transform="translate(-213.99 -103.25)"/><path class="cls-2" d="M583.12,360.75V461h2.54V360.75a23.23,23.23,0,0,1,23.21-23.21H649.7V335H608.87A25.78,25.78,0,0,0,583.12,360.75Z" transform="translate(-213.99 -103.25)"/><rect class="cls-3" x="201.55" y="108.98" width="85.01" height="29.18"/><rect class="cls-2" x="223.76" y="122.3" width="40.6" height="2.54"/><rect class="cls-2" x="216.25" y="84.41" width="38.68" height="2.54"/><rect class="cls-2" x="216.25" y="93.85" width="38.68" height="2.54"/><rect class="cls-3" x="200.82" y="83.18" width="9.14" height="9.15"/><rect class="cls-1" x="262.56" y="82.99" width="24.95" height="14.8"/><rect class="cls-2" x="269.98" y="89.13" width="10.12" height="2.54"/><path class="cls-2" d="M546.7,350.94H524a9.71,9.71,0,0,0-1.38.11h-7.4l2.45-8.63v-11.6a11.45,11.45,0,0,0-11.43-11.43h-3.38l-.47,0-1.22.05v16.36L497.51,341,482.82,357a19.17,19.17,0,0,0-4.17,6.82l-.3.84h-3.74v2.54h5.73l.23-1a16.72,16.72,0,0,1,4.1-7.5l14.71-16.07,4.33-6.06v-14.7h2.53a8.9,8.9,0,0,1,8.89,8.89v11.25l-3.26,11.52h10.65l.32,0a7.18,7.18,0,0,1,1.16-.1h22.7a6.84,6.84,0,1,1,0,13.68h-3.06v2.65a6.84,6.84,0,0,1-1.27,13.56h-.89V386a6.84,6.84,0,0,1-1.27,13.56H535v2.65a6.84,6.84,0,0,1-1.26,13.56l-37,0a16.49,16.49,0,0,1-13.3-6.69l-.38-.51h-8.4v2.54h7.13l.38.45a19.08,19.08,0,0,0,14.57,6.75H526.6l7.13,0a9.37,9.37,0,0,0,7.83-14.52l-1-1.53,1.77-.41a9.45,9.45,0,0,0,7.26-9.13,9.35,9.35,0,0,0-2.48-6.35l-1-1.12,1.28-.81a9.37,9.37,0,0,0,2.49-13.59l-1-1.3,1.49-.63a9.38,9.38,0,0,0-3.66-18Z" transform="translate(-213.99 -103.25)"/><rect class="cls-3" x="221.73" y="259.4" width="33.85" height="63.78"/><rect class="cls-4" x="244.01" y="312.15" width="4.19" height="3.81"/><rect class="cls-1" x="435.22" y="191.19" width="195.16" height="145.41"/><rect class="cls-5" x="412.44" y="216.5" width="192.62" height="142.88"/><path class="cls-2" d="M623.89,465.17H821.58V317.22H623.89Zm2.53-145.42H819.05V462.63H626.42Z" transform="translate(-213.99 -103.25)"/><polygon class="cls-4" points="428.19 227.19 428.19 292.36 457.99 252.69 487.24 291.65 506.17 266.45 530.26 298.53 535.55 305.58 589.3 305.58 589.3 227.19 428.19 227.19"/><path class="cls-1" d="M779.18,360.29a13.78,13.78,0,1,1-13.78-13.78A13.77,13.77,0,0,1,779.18,360.29Z" transform="translate(-213.99 -103.25)"/><polygon class="cls-2" points="166.63 272.75 173.74 272.75 173.74 320.01 86.43 320.01 86.43 272.75 93.07 272.75 93.07 270.21 83.9 270.21 83.9 322.55 176.28 322.55 176.28 270.21 166.63 270.21 166.63 272.75"/><rect class="cls-2" x="296.02" y="411.57" width="33.82" height="2.54" transform="translate(-410.56 215.99) rotate(-42.43)"/><rect class="cls-2" x="373.94" y="395.93" width="2.54" height="33.82" transform="translate(-396.64 308.01) rotate(-47.57)"/><path class="cls-1" d="M389,374.73H299.07v3.09h0l0,0h0l11.2,9.56,7.89,6.73,3.35,2.86L332,406l8.64,7.36a5.34,5.34,0,0,0,6.71,0L356,406l10.5-8.95,3.35-2.86,7.89-6.73,11.2-9.56h0v0h0Z" transform="translate(-213.99 -103.25)"/><path class="cls-5" d="M341.49,412.35a3.92,3.92,0,0,0,2.53.85,4,4,0,0,0,2.54-.85L389.17,376h-90.3Z" transform="translate(-213.99 -103.25)"/><path class="cls-2" d="M389,373.46H299.07a1.27,1.27,0,0,0-1.27,1.27v3a1.22,1.22,0,0,0,0,.46,1.42,1.42,0,0,0,.54.74l41.46,35.36a6.64,6.64,0,0,0,8.36,0l41.49-35.38a1.24,1.24,0,0,0,.39-.43,1.37,1.37,0,0,0,.17-.82v-2.92A1.27,1.27,0,0,0,389,373.46Zm-42.42,38.89a4,4,0,0,1-2.54.85,3.92,3.92,0,0,1-2.53-.85L298.87,376h90.3Z" transform="translate(-213.99 -103.25)"/><rect class="cls-2" x="128.77" y="240.84" width="2.54" height="5.68"/><rect class="cls-2" x="329.04" y="345.9" width="2.54" height="5.69" transform="translate(-293.02 -5.84) rotate(-15.01)"/><rect class="cls-2" x="316.26" y="351.19" width="2.54" height="5.68" transform="matrix(0.87, -0.5, 0.5, 0.87, -348.47, 102.96)"/><rect class="cls-2" x="314.69" y="444.53" width="5.69" height="2.54" transform="translate(-441.31 394.46) rotate(-59.98)"/><rect class="cls-2" x="327.46" y="449.82" width="5.68" height="2.54" transform="translate(-404.94 550) rotate(-74.98)"/><rect class="cls-2" x="128.76" y="346.8" width="2.54" height="5.68"/><rect class="cls-2" x="356.46" y="448.25" width="2.54" height="5.68" transform="translate(-318.49 4.63) rotate(-14.99)"/><rect class="cls-2" x="369.24" y="442.96" width="2.54" height="5.68" transform="translate(-387.2 141.6) rotate(-29.99)"/><rect class="cls-2" x="367.67" y="352.77" width="5.68" height="2.54" transform="translate(-335.3 394.76) rotate(-60.01)"/><rect class="cls-2" x="354.9" y="347.47" width="5.68" height="2.54" transform="matrix(0.26, -0.97, 0.97, 0.26, -285.64, 500.87)"/><path class="cls-5" d="M626,216.71H532.12a5.08,5.08,0,0,0-4.84,5.29v74.42a5.08,5.08,0,0,0,4.84,5.29h13.12v23.13l27.32-23.13H626a5.09,5.09,0,0,0,4.86-5.29V222A5.09,5.09,0,0,0,626,216.71Z" transform="translate(-213.99 -103.25)"/><path class="cls-2" d="M626,214.17H532.12a7.62,7.62,0,0,0-7.38,7.83v74.42a7.62,7.62,0,0,0,7.38,7.83h10.59v26.07l30.78-26.07H626a7.63,7.63,0,0,0,7.4-7.83V222A7.63,7.63,0,0,0,626,214.17Zm4.86,82.25a5.09,5.09,0,0,1-4.86,5.29H572.56l-27.32,23.13V301.71H532.12a5.08,5.08,0,0,1-4.84-5.29V222a5.08,5.08,0,0,1,4.84-5.29H626a5.09,5.09,0,0,1,4.86,5.29Z" transform="translate(-213.99 -103.25)"/><polygon class="cls-3" points="339.32 190.4 321.35 190.4 321.35 121.51 408.84 121.51 408.84 190.4 355.62 190.4 339.32 204.21 339.32 190.4"/><path class="cls-5" d="M590.57,255.07a1.37,1.37,0,0,0-1.36-1.37H551.69a1.38,1.38,0,0,0-1.37,1.37v24a1.37,1.37,0,0,0,1.37,1.37h37.52a1.35,1.35,0,0,0,1.36-1.37V272.3l14.18,7V254.75l-14.18,7.05Z" transform="translate(-213.99 -103.25)"/><path class="cls-2" d="M593.11,255.07a3.91,3.91,0,0,0-3.9-3.9H551.69a3.91,3.91,0,0,0-3.9,3.9v24a3.91,3.91,0,0,0,3.9,3.91h37.52a3.91,3.91,0,0,0,3.9-3.91V276.4l14.17,7V250.66l-14.17,7Zm11.64-.32v24.59l-14.18-7V279a1.35,1.35,0,0,1-1.36,1.37H551.69a1.37,1.37,0,0,1-1.37-1.37v-24a1.38,1.38,0,0,1,1.37-1.37h37.52a1.37,1.37,0,0,1,1.36,1.37v6.73Z" transform="translate(-213.99 -103.25)"/><path class="cls-5" d="M559.33,234.7a7.73,7.73,0,1,0,7.73,7.73A7.74,7.74,0,0,0,559.33,234.7Z" transform="translate(-213.99 -103.25)"/><path class="cls-2" d="M569.6,242.43a10.27,10.27,0,1,0-10.27,10.27A10.29,10.29,0,0,0,569.6,242.43Zm-10.27,7.73a7.73,7.73,0,1,1,7.73-7.73A7.74,7.74,0,0,1,559.33,250.16Z" transform="translate(-213.99 -103.25)"/><path class="cls-5" d="M578.65,234.7a7.73,7.73,0,1,0,7.72,7.73A7.74,7.74,0,0,0,578.65,234.7Z" transform="translate(-213.99 -103.25)"/><path class="cls-2" d="M578.65,232.16a10.27,10.27,0,1,0,10.26,10.27A10.29,10.29,0,0,0,578.65,232.16Zm0,18a7.73,7.73,0,1,1,7.72-7.73A7.74,7.74,0,0,1,578.65,250.16Z" transform="translate(-213.99 -103.25)"/><path class="cls-5" d="M443.89,105.79a30.67,30.67,0,1,0,30.67,30.66A30.7,30.7,0,0,0,443.89,105.79Z" transform="translate(-213.99 -103.25)"/><path class="cls-2" d="M443.89,103.25a33.21,33.21,0,1,0,33.21,33.2A33.25,33.25,0,0,0,443.89,103.25Zm0,63.87a30.67,30.67,0,1,1,30.67-30.67A30.7,30.7,0,0,1,443.89,167.12Z" transform="translate(-213.99 -103.25)"/><path class="cls-1" d="M466.61,136.45a22.72,22.72,0,1,1-22.72-22.71A22.72,22.72,0,0,1,466.61,136.45Z" transform="translate(-213.99 -103.25)"/><path class="cls-4" d="M451.87,133.79a8,8,0,1,1-8-8A8,8,0,0,1,451.87,133.79Z" transform="translate(-213.99 -103.25)"/><path class="cls-5" d="M443.89,127.08a6.71,6.71,0,1,0,6.71,6.71A6.72,6.72,0,0,0,443.89,127.08Z" transform="translate(-213.99 -103.25)"/><path class="cls-2" d="M443.89,124.54a9.25,9.25,0,1,0,9.25,9.25A9.25,9.25,0,0,0,443.89,124.54Zm0,16a6.71,6.71,0,1,1,6.71-6.71A6.72,6.72,0,0,1,443.89,140.5Z" transform="translate(-213.99 -103.25)"/><path class="cls-4" d="M449.88,142.66h-12a8,8,0,0,0-8,8v.65a20.32,20.32,0,0,0,27.93,0v-.65A8,8,0,0,0,449.88,142.66Z" transform="translate(-213.99 -103.25)"/><path class="cls-5" d="M449.88,143.93h-12a6.76,6.76,0,0,0-6.69,6.13l-.06.66.51.42a19,19,0,0,0,24.44,0l.51-.42-.05-.66A6.76,6.76,0,0,0,449.88,143.93Z" transform="translate(-213.99 -103.25)"/><path class="cls-2" d="M449.88,141.39h-12a9.26,9.26,0,0,0-9.25,9.25v1.2l.4.37a21.57,21.57,0,0,0,29.67,0l.4-.37v-1.2A9.26,9.26,0,0,0,449.88,141.39Zm6.74,9.33-.51.42a19,19,0,0,1-24.44,0l-.51-.42.06-.66a6.76,6.76,0,0,1,6.69-6.13h12a6.76,6.76,0,0,1,6.69,6.13Z" transform="translate(-213.99 -103.25)"/><rect class="cls-2" x="293.62" y="8.96" width="2.54" height="13.53"/><rect class="cls-2" x="288.12" y="14.46" width="13.53" height="2.54"/><rect class="cls-2" x="167.59" y="102.42" width="2.54" height="16.07"/><rect class="cls-2" x="160.83" y="109.19" width="16.07" height="2.54"/><rect class="cls-2" x="410.55" y="379.07" width="144.64" height="2.54"/><rect class="cls-2" x="410.55" y="394.29" width="144.64" height="2.54"/><rect class="cls-2" x="410.55" y="409.52" width="125.09" height="2.54"/><path class="cls-1" d="M392.17,309.09l1.14-1.14a10.54,10.54,0,0,0,0-14.9l-.16-.15a10.53,10.53,0,0,0-14.9,0L377.12,294,376,292.9a10.54,10.54,0,0,0-14.91,0l-.15.15a10.53,10.53,0,0,0,0,14.9l1.13,1.14,15.06,15.05Z" transform="translate(-213.99 -103.25)"/><path class="cls-6" d="M494.81,540.07" transform="translate(-213.99 -103.25)"/><path class="cls-5" d="M516.85,491.88a30.93,30.93,0,0,0-22-9.12h0a31.19,31.19,0,0,0-1.25,62.35v1.29l2.53,0,0-1.32a31.2,31.2,0,0,0,20.73-53.23Z" transform="translate(-213.99 -103.25)"/><path class="cls-2" d="M528.53,513.94a33.73,33.73,0,1,0-33.71,33.73h.06a33.68,33.68,0,0,0,33.65-33.73Zm-32.41,31.17,0,1.32-2.53,0v-1.29a31.19,31.19,0,0,1,1.25-62.35h0a31.19,31.19,0,0,1,1.31,62.35Z" transform="translate(-213.99 -103.25)"/><path class="cls-3" d="M512.53,531.59a25,25,0,1,1,7.3-17.64A24.85,24.85,0,0,1,512.53,531.59Z" transform="translate(-213.99 -103.25)"/><path class="cls-4" d="M478.13,514h-5.07a21.27,21.27,0,0,1,21.25-21.27v5.07A16.22,16.22,0,0,0,478.13,514Z" transform="translate(-213.99 -103.25)"/><path class="cls-2" d="M556.89,508.15l2.07-1.48c-16.87-23.14-39-36.05-62.55-36.5v2.54C519.12,473.16,540.52,485.69,556.89,508.15Z" transform="translate(-213.99 -103.25)"/><path class="cls-5" d="M495.14,481.58c-20.48,0-40,11.22-55.1,31.6l-.56.75.56.76c15.06,20.37,34.62,31.6,55.1,31.6s40-11.23,55.1-31.6l.55-.76-.55-.75C535.18,492.8,515.61,481.58,495.14,481.58Z" transform="translate(-213.99 -103.25)"/><path class="cls-2" d="M495.14,479c-21.86,0-42.55,12.13-58.25,34.16l-.52.73.52.74c15.7,22,36.39,34.15,58.25,34.15s42.55-12.13,58.25-34.15l.52-.74-.52-.73C537.69,491.17,517,479,495.14,479Zm55.1,35.65c-15.06,20.37-34.63,31.6-55.1,31.6s-40-11.23-55.1-31.6l-.56-.76.56-.75c15.06-20.38,34.62-31.6,55.1-31.6s40,11.22,55.1,31.6l.55.75Z" transform="translate(-213.99 -103.25)"/><polygon class="cls-5" points="487.94 554.94 512.2 531.6 592.28 531.6 592.28 453.68 467.7 453.68 467.7 531.6 487.94 531.6 487.94 554.94"/><path class="cls-2" d="M678.54,638h20.24v27.59L727.45,638h82V553.79H678.54Zm3.15-81.07H806.27v77.92H726.18l-24.26,23.34V634.85H681.69Z" transform="translate(-213.99 -103.25)"/><rect class="cls-2" x="492.66" y="475.33" width="74.68" height="3.15"/><rect class="cls-2" x="492.66" y="490.26" width="74.68" height="3.15"/><rect class="cls-2" x="492.66" y="505.2" width="74.68" height="3.15"/><path class="cls-2" d="M875.15,497.84a6.39,6.39,0,0,1,6.26,5.12H884a8.93,8.93,0,0,0-17.77,1.27v32.94h2.54V504.23A6.4,6.4,0,0,1,875.15,497.84Z" transform="translate(-213.99 -103.25)"/><rect class="cls-2" x="645.99" y="409.41" width="17.36" height="2.54"/><rect class="cls-2" x="256.19" y="525.26" width="38.68" height="2.54"/><rect class="cls-2" x="256.19" y="534.69" width="38.68" height="2.54"/><rect class="cls-3" x="240.75" y="524.02" width="9.14" height="9.15"/><rect class="cls-1" x="302.5" y="523.84" width="24.95" height="14.8"/><rect class="cls-2" x="309.91" y="529.97" width="10.12" height="2.54"/><path class="cls-2" d="M263,483.66l1.49,3.58a22.87,22.87,0,0,0,4.17-2.8L266,481.71A19.54,19.54,0,0,1,263,483.66Z" transform="translate(-213.99 -103.25)"/><path class="cls-2" d="M234,477.58a22,22,0,0,0,2.8,4.17l2.73-2.74a19.6,19.6,0,0,1-2-2.92Z" transform="translate(-213.99 -103.25)"/><path class="cls-2" d="M236.05,461.79l-3.59-1.48a22.7,22.7,0,0,0-1,4.91l3.87,0A18.72,18.72,0,0,1,236.05,461.79Z" transform="translate(-213.99 -103.25)"/><path class="cls-2" d="M256,444.54l0,3.87a18.77,18.77,0,0,1,3.4.67l1.47-3.59A21.79,21.79,0,0,0,256,444.54Z" transform="translate(-213.99 -103.25)"/><path class="cls-2" d="M245.1,450.59,243.6,447a22.51,22.51,0,0,0-4.16,2.81l2.74,2.73A19.16,19.16,0,0,1,245.1,450.59Z" transform="translate(-213.99 -103.25)"/><path class="cls-2" d="M274.17,456.62a22.92,22.92,0,0,0-2.81-4.17l-2.73,2.75a18.45,18.45,0,0,1,2,2.92Z" transform="translate(-213.99 -103.25)"/><path class="cls-2" d="M248.73,485.15l-1.48,3.58a22.22,22.22,0,0,0,4.92,1v-3.87A18.93,18.93,0,0,1,248.73,485.15Z" transform="translate(-213.99 -103.25)"/><path class="cls-2" d="M272.11,472.49l3.58,1.49a22.73,22.73,0,0,0,1-5l-3.88,0A17.66,17.66,0,0,1,272.11,472.49Z" transform="translate(-213.99 -103.25)"/><rect class="cls-2" x="28.75" y="284.35" width="2.54" height="16.07"/><rect class="cls-2" x="21.98" y="291.12" width="16.07" height="2.54"/></g><g id="Layer_5" data-name="Layer 5"><path class="cls-5" d="M309.57,225.09A19.46,19.46,0,1,0,329,244.55,19.48,19.48,0,0,0,309.57,225.09Z" transform="translate(-213.99 -103.25)"/><path class="cls-2" d="M309.57,222.55a22,22,0,1,0,22,22A22,22,0,0,0,309.57,222.55Zm0,41.45A19.46,19.46,0,1,1,329,244.55,19.48,19.48,0,0,1,309.57,264Z" transform="translate(-213.99 -103.25)"/><path class="cls-5" d="M309.57,234.82a9.73,9.73,0,1,0,9.72,9.73A9.73,9.73,0,0,0,309.57,234.82Z" transform="translate(-213.99 -103.25)"/><path class="cls-2" d="M309.57,232.28a12.27,12.27,0,1,0,12.26,12.27A12.28,12.28,0,0,0,309.57,232.28Zm0,22a9.73,9.73,0,1,1,9.72-9.72A9.73,9.73,0,0,1,309.57,254.27Z" transform="translate(-213.99 -103.25)"/><path class="cls-5" d="M236,186.6a19.46,19.46,0,1,0,19.45,19.46A19.48,19.48,0,0,0,236,186.6Z" transform="translate(-213.99 -103.25)"/><path class="cls-2" d="M236,184.07a22,22,0,1,0,22,22A22,22,0,0,0,236,184.07Zm0,41.45a19.46,19.46,0,1,1,19.45-19.46A19.48,19.48,0,0,1,236,225.52Z" transform="translate(-213.99 -103.25)"/><path class="cls-3" d="M225,206.06a11,11,0,1,0,11-11A11,11,0,0,0,225,206.06Z" transform="translate(-213.99 -103.25)"/><path class="cls-5" d="M236,263.58A19.46,19.46,0,1,0,255.43,283,19.47,19.47,0,0,0,236,263.58Z" transform="translate(-213.99 -103.25)"/><path class="cls-2" d="M236,261a22,22,0,1,0,22,22A22,22,0,0,0,236,261Zm0,41.45A19.46,19.46,0,1,1,255.43,283,19.48,19.48,0,0,1,236,302.49Z" transform="translate(-213.99 -103.25)"/><path class="cls-1" d="M225,283a11,11,0,1,0,11-11A11,11,0,0,0,225,283Z" transform="translate(-213.99 -103.25)"/><rect class="cls-2" x="253.77" y="265.14" width="40.88" height="2.54" transform="translate(-305 50.13) rotate(-26.98)"/><rect class="cls-2" x="273.29" y="202.6" width="2.54" height="40.59" transform="translate(-262.61 263.25) rotate(-63.03)"/></g><g id="Layer_3" data-name="Layer 3"><path class="cls-1" d="M350.07,516.72a14.8,14.8,0,1,1-14.8-14.8A14.8,14.8,0,0,1,350.07,516.72Z" transform="translate(-213.99 -103.25)"/><path class="cls-5" d="M335.27,503.18a13.54,13.54,0,1,0,13.54,13.54A13.55,13.55,0,0,0,335.27,503.18Z" transform="translate(-213.99 -103.25)"/><path class="cls-2" d="M335.27,500.65a16.07,16.07,0,1,0,16.07,16.07A16.09,16.09,0,0,0,335.27,500.65Zm0,29.6a13.54,13.54,0,1,1,13.54-13.53A13.55,13.55,0,0,1,335.27,530.25Z" transform="translate(-213.99 -103.25)"/><path class="cls-4" d="M152,439.05h.5a6,6,0,0,1,6,6v10.93a6,6,0,0,1-6,6H152a6,6,0,0,1-6-6V445A6,6,0,0,1,152,439.05Z"/><rect class="cls-5" x="147.36" y="440.32" width="9.87" height="20.3" rx="4.69"/><path class="cls-2" d="M366.53,541H366a7.24,7.24,0,0,0-7.22,7.23v10.92a7.23,7.23,0,0,0,7.22,7.23h.5a7.23,7.23,0,0,0,7.23-7.23V548.26A7.24,7.24,0,0,0,366.53,541Zm4.69,18.15a4.69,4.69,0,0,1-4.69,4.69H366a4.69,4.69,0,0,1-4.68-4.69V548.26a4.69,4.69,0,0,1,4.68-4.69h.5a4.7,4.7,0,0,1,4.69,4.69Z" transform="translate(-213.99 -103.25)"/><path class="cls-4" d="M292.19,630.5V615.56c0-6.6,6.05-11.95,13.5-11.95H365c7.46,0,13.5,5.35,13.5,11.95V630.5Z" transform="translate(-213.99 -103.25)"/><path class="cls-2" d="M365,602.34H305.69c-8.14,0-14.77,5.93-14.77,13.22v13.68h2.54V615.56c0-5.89,5.49-10.68,12.23-10.68H365c6.75,0,12.23,4.79,12.23,10.68v13.68h2.54V615.56C379.73,608.27,373.11,602.34,365,602.34Z" transform="translate(-213.99 -103.25)"/><path class="cls-4" d="M365.5,565.26a30.18,30.18,0,0,1-30.17,30.18h0a30.18,30.18,0,0,1-30.18-30.18V541.12A30.18,30.18,0,0,1,335.33,511h0a30.17,30.17,0,0,1,30.17,30.17Z" transform="translate(-213.99 -103.25)"/><path class="cls-5" d="M335.33,512.22a28.94,28.94,0,0,0-28.91,28.9v24.14a28.91,28.91,0,1,0,57.81,0V541.12A28.94,28.94,0,0,0,335.33,512.22Z" transform="translate(-213.99 -103.25)"/><path class="cls-2" d="M335.33,509.69a31.47,31.47,0,0,0-31.44,31.43v24.14a31.44,31.44,0,1,0,62.88,0V541.12A31.47,31.47,0,0,0,335.33,509.69Zm28.9,55.57a28.91,28.91,0,1,1-57.81,0V541.12a28.91,28.91,0,0,1,57.81,0Z" transform="translate(-213.99 -103.25)"/><path class="cls-4" d="M305.15,542.37c-3,.31-7.87,2.81-7.87,5.89v10.92c0,3.08,4.88,5.59,7.87,5.9Z" transform="translate(-213.99 -103.25)"/><path class="cls-5" d="M298.54,548.26v10.92c0,1.78,2.69,3.24,3.52,3.64l1.83.9v-20l-1.83.89C301.23,545,298.54,546.48,298.54,548.26Z" transform="translate(-213.99 -103.25)"/><path class="cls-2" d="M296,548.26v10.92c0,3.86,5.25,6.77,9,7.16l1.4.15V541l-1.4.14C301.26,541.5,296,544.41,296,548.26Zm7.88,15.46-1.83-.9c-.83-.4-3.52-1.86-3.52-3.64V548.26c0-1.78,2.69-3.23,3.52-3.64l1.83-.89Z" transform="translate(-213.99 -103.25)"/><rect class="cls-2" x="120.44" y="509.89" width="2.54" height="2.43"/><rect class="cls-2" x="120.44" y="521" width="2.54" height="2.43"/><path class="cls-1" d="M335.33,511a30.18,30.18,0,0,0-30.18,30.17v5.63h39.23l5.27-9.14,5.28,9.14H365.5v-5.63A30.17,30.17,0,0,0,335.33,511Z" transform="translate(-213.99 -103.25)"/><path class="cls-5" d="M335.33,512.22a28.94,28.94,0,0,0-28.91,28.9v4.36h37.23l6-10.4,6,10.4h8.57v-4.36A28.94,28.94,0,0,0,335.33,512.22Z" transform="translate(-213.99 -103.25)"/><path class="cls-2" d="M335.33,509.69a31.47,31.47,0,0,0-31.44,31.43V548h41.22l4.54-7.86,4.54,7.86h12.58v-6.89A31.47,31.47,0,0,0,335.33,509.69Zm28.9,35.79h-8.57l-6-10.4-6,10.4H306.42v-4.36a28.91,28.91,0,0,1,57.81,0Z" transform="translate(-213.99 -103.25)"/></g><g id="Layer_2" data-name="Layer 2"><rect class="cls-5" x="587.18" y="78.52" width="9.88" height="20.3" rx="4.69"/><path class="cls-2" d="M806.35,179.23h-.49a7.23,7.23,0,0,0-7.23,7.23v10.92a7.24,7.24,0,0,0,7.23,7.23h.49a7.24,7.24,0,0,0,7.23-7.23V186.46A7.23,7.23,0,0,0,806.35,179.23ZM811,197.38a4.7,4.7,0,0,1-4.69,4.69h-.49a4.7,4.7,0,0,1-4.69-4.69V186.46a4.69,4.69,0,0,1,4.69-4.69h.49a4.69,4.69,0,0,1,4.69,4.69Z" transform="translate(-213.99 -103.25)"/><path class="cls-4" d="M732,268.7V253.76c0-6.6,6-11.95,13.51-11.95h59.26c7.46,0,13.51,5.35,13.51,11.95V268.7Z" transform="translate(-213.99 -103.25)"/><path class="cls-4" d="M733.28,267.43V253.76c0-5.89,5.49-10.68,12.24-10.68h59.26c6.75,0,12.24,4.79,12.24,10.68v13.67Z" transform="translate(-213.99 -103.25)"/><path class="cls-2" d="M804.78,240.54H745.52c-8.15,0-14.78,5.93-14.78,13.22v13.67h2.54V253.76c0-5.89,5.49-10.68,12.24-10.68h59.26c6.75,0,12.24,4.79,12.24,10.68v13.67h2.53V253.76C819.55,246.47,812.93,240.54,804.78,240.54Z" transform="translate(-213.99 -103.25)"/><path class="cls-4" d="M805.32,203.46a30.17,30.17,0,0,1-30.17,30.17h0A30.18,30.18,0,0,1,745,203.46V179.32a30.18,30.18,0,0,1,30.18-30.17h0a30.17,30.17,0,0,1,30.17,30.17Z" transform="translate(-213.99 -103.25)"/><path class="cls-5" d="M775.15,150.42a28.94,28.94,0,0,0-28.91,28.9v24.14a28.91,28.91,0,0,0,57.81,0V179.32A28.93,28.93,0,0,0,775.15,150.42Z" transform="translate(-213.99 -103.25)"/><path class="cls-2" d="M775.15,147.88a31.47,31.47,0,0,0-31.44,31.44v24.14a31.44,31.44,0,0,0,62.88,0V179.32A31.48,31.48,0,0,0,775.15,147.88Zm28.9,55.58a28.91,28.91,0,0,1-57.81,0V179.32a28.91,28.91,0,0,1,57.81,0Z" transform="translate(-213.99 -103.25)"/><path class="cls-3" d="M764.37,147.51a14,14,0,0,0-11.67,6.31h-4.79a10.82,10.82,0,0,0-10.82,10.82V204h7.62V180.5a7.61,7.61,0,0,1,7.61-7.61h48.85a14,14,0,0,0,14-14V147.51Z" transform="translate(-213.99 -103.25)"/><path class="cls-5" d="M753.76,154.52l-.37.57h-5.48a9.56,9.56,0,0,0-9.55,9.55V202.7h5.08V180.5a8.89,8.89,0,0,1,8.88-8.88h48.85a12.71,12.71,0,0,0,12.69-12.69V148.78H764.37A12.67,12.67,0,0,0,753.76,154.52Z" transform="translate(-213.99 -103.25)"/><path class="cls-2" d="M752.4,152.07l-.38.48h-4.11a12.1,12.1,0,0,0-12.08,12.09v40.6H746V180.5a6.35,6.35,0,0,1,6.34-6.35h48.85a15.24,15.24,0,0,0,15.22-15.22V146.24h-52A15.15,15.15,0,0,0,752.4,152.07Zm61.46,6.86a12.71,12.71,0,0,1-12.69,12.69H752.32a8.89,8.89,0,0,0-8.88,8.88v22.2h-5.08V164.64a9.56,9.56,0,0,1,9.55-9.55h5.48l.37-.57a12.67,12.67,0,0,1,10.61-5.74h49.49Z" transform="translate(-213.99 -103.25)"/><path class="cls-4" d="M745,180.56c-3,.31-7.88,2.82-7.88,5.9v10.92c0,3.08,4.89,5.58,7.88,5.89Z" transform="translate(-213.99 -103.25)"/><path class="cls-5" d="M738.36,186.46v10.92c0,1.78,2.69,3.23,3.52,3.64l1.83.89v-20l-1.83.89C741.05,183.22,738.36,184.68,738.36,186.46Z" transform="translate(-213.99 -103.25)"/><path class="cls-2" d="M735.83,186.46v10.92c0,3.85,5.25,6.76,9,7.16l1.39.14V179.15l-1.39.15C741.08,179.69,735.83,182.6,735.83,186.46Zm7.88,15.45-1.83-.89c-.83-.41-3.52-1.86-3.52-3.64V186.46c0-1.78,2.69-3.24,3.52-3.65l1.83-.89Z" transform="translate(-213.99 -103.25)"/><rect class="cls-2" x="567.87" y="141.47" width="2.54" height="11.43"/><rect class="cls-2" x="557.72" y="141.47" width="2.54" height="11.43"/></g></svg>