<svg xmlns="http://www.w3.org/2000/svg" xmlns:xlink="http://www.w3.org/1999/xlink" viewBox="0 0 1170 390.1"><defs><style>.cls-1,.cls-8{fill:none;}.cls-2{fill:#1b2c38;}.cls-3,.cls-6{fill:#fff;}.cls-4{fill:#27c7cd;}.cls-5{fill:#95d133;}.cls-6,.cls-8{stroke:#282d33;stroke-width:4px;}.cls-7{fill:#fc3e59;}.cls-9{fill:#ffcb05;}.cls-10{fill:#949fac;}.cls-11{fill:#f8c44f;}.cls-12{clip-path:url(#clip-path);}.cls-13{clip-path:url(#clip-path-2);}.cls-14{clip-path:url(#clip-path-3);}.cls-15{clip-path:url(#clip-path-4);}</style><clipPath id="clip-path" transform="translate(-11.23 -183.55)"><circle class="cls-1" cx="538.54" cy="499.04" r="45.74"/></clipPath><clipPath id="clip-path-2" transform="translate(-11.23 -183.55)"><circle class="cls-1" cx="744.09" cy="486.99" r="31.6"/></clipPath><clipPath id="clip-path-3" transform="translate(-11.23 -183.55)"><circle class="cls-1" cx="478.47" cy="233.55" r="29.24"/></clipPath><clipPath id="clip-path-4" transform="translate(-11.23 -183.55)"><circle class="cls-1" cx="765.12" cy="234.48" r="40.67"/></clipPath></defs><title>04-slide</title><g id="Layer_4" data-name="Layer 4"><rect class="cls-2" x="368.72" y="168.93" width="20.99" height="2.73"/><rect class="cls-2" x="306.01" y="206.14" width="20.99" height="2.73"/><rect class="cls-2" x="293.97" y="206.14" width="5.65" height="2.73"/><rect class="cls-2" x="289.99" y="196.05" width="20.99" height="2.73"/><rect class="cls-2" x="277.95" y="196.05" width="5.65" height="2.73"/><rect class="cls-2" x="1038.13" y="288.01" width="20.99" height="2.73"/><rect class="cls-2" x="1026.08" y="288.01" width="5.65" height="2.73"/><rect class="cls-2" x="1022.11" y="277.93" width="20.99" height="2.73"/><rect class="cls-2" x="1010.07" y="277.93" width="5.65" height="2.73"/><rect class="cls-2" x="1146.11" y="170.54" width="20.99" height="2.73"/><rect class="cls-2" x="1134.06" y="170.54" width="5.65" height="2.73"/><rect class="cls-2" x="1130.09" y="160.46" width="20.99" height="2.73"/><rect class="cls-2" x="1118.04" y="160.46" width="5.65" height="2.73"/><rect class="cls-2" x="1134.07" y="241.94" width="2.73" height="6.24"/><rect class="cls-2" x="1133.96" y="430.19" width="2.74" height="6.24" transform="translate(15.15 746.73) rotate(-45.03)"/><rect class="cls-2" x="1116.27" y="259.74" width="6.24" height="2.73"/><rect class="cls-2" x="1132.2" y="454.64" width="6.24" height="2.73" transform="translate(-1.09 752.93) rotate(-45.01)"/><rect class="cls-2" x="1134.07" y="274.04" width="2.73" height="6.24"/><rect class="cls-2" x="1156.65" y="452.88" width="2.73" height="6.24" transform="translate(5.37 768.57) rotate(-44.99)"/><rect class="cls-2" x="1148.37" y="259.74" width="6.24" height="2.73"/><rect class="cls-2" x="1154.9" y="431.94" width="6.24" height="2.74" transform="translate(21.49 762.09) rotate(-44.99)"/><rect class="cls-2" x="304.66" y="275.15" width="2.37" height="4.75"/><rect class="cls-2" x="305.67" y="276.15" width="0.36" height="2.73"/><path class="cls-2" d="M333.78,463.44H329.9v-4.75h3.88Zm-7.76,0h-3.88v-4.75H326Z" transform="translate(-11.23 -183.55)"/><path class="cls-2" d="M330.9,462.43V459.7h1.87v2.73Zm-7.75,0V459.7H325v2.73Z" transform="translate(-11.23 -183.55)"/><rect class="cls-2" x="326.42" y="275.15" width="2.37" height="4.75"/><rect class="cls-2" x="327.43" y="276.15" width="0.36" height="2.73"/><rect class="cls-2" x="98.05" y="441.35" width="2.74" height="5.15" transform="translate(-295.97 16.7) rotate(-44.99)"/><rect class="cls-2" x="94.24" y="453.88" width="5.15" height="2.73" transform="translate(-125.8 -142.96) rotate(-15.01)"/><rect class="cls-2" x="102.75" y="461.8" width="5.15" height="2.73" transform="translate(-380.54 261.25) rotate(-74.97)"/><path class="cls-3" d="M113.9,457.22l5.07,5.06Z" transform="translate(-11.23 -183.55)"/><rect class="cls-2" x="116.46" y="447.06" width="5.15" height="2.73" transform="translate(-123.3 -137.42) rotate(-15.01)"/><rect class="cls-2" x="107.95" y="439.15" width="5.15" height="2.73" transform="translate(-354.82 249.68) rotate(-75)"/><polygon class="cls-1" points="113.53 278.01 103.85 275.32 106.37 285.05 113.53 278.01"/><path class="cls-2" d="M130.06,460.19,111.25,455l4.88,18.9Zm-5.3,1.37-7.16,7-2.51-9.73Z" transform="translate(-11.23 -183.55)"/><rect class="cls-2" x="123.73" y="465.72" width="2.73" height="6.68" transform="translate(-304 38.41) rotate(-44.47)"/><rect class="cls-1" x="834.24" y="96.35" width="8.72" height="51.86"/><path class="cls-2" d="M842.73,334.49h14.19V277.16H842.73Zm2.74-54.59h8.71v51.85h-8.71Z" transform="translate(-11.23 -183.55)"/><rect class="cls-1" x="813.67" y="125.62" width="8.71" height="22.59"/><path class="cls-2" d="M822.17,334.49h14.18V306.43H822.17Zm2.73-25.33h8.71v22.59H824.9Z" transform="translate(-11.23 -183.55)"/><rect class="cls-1" x="793.1" y="121.66" width="8.72" height="26.54"/><path class="cls-2" d="M801.6,334.49h14.18v-32H801.6Zm2.73-29.28h8.72v26.54h-8.72Z" transform="translate(-11.23 -183.55)"/><rect class="cls-1" x="772.54" y="138.27" width="8.71" height="9.93"/><path class="cls-2" d="M781,334.49h14.19v-15.4H781Zm2.74-12.67h8.71v9.93h-8.71Z" transform="translate(-11.23 -183.55)"/><polygon class="cls-4" points="96.92 355.29 89.34 359.66 81.77 364.04 81.77 355.29 81.77 346.54 89.34 350.92 96.92 355.29"/><rect class="cls-2" x="40.44" y="266.9" width="2.73" height="12.82"/><rect class="cls-2" x="35.4" y="271.94" width="12.82" height="2.73"/><path class="cls-5" d="M11.87,354.48a6.38,6.38,0,1,0,6.37-6.38A6.37,6.37,0,0,0,11.87,354.48Z" transform="translate(-11.23 -183.55)"/><path class="cls-5" d="M889.93,324.81a6.38,6.38,0,1,0,6.38-6.37A6.38,6.38,0,0,0,889.93,324.81Z" transform="translate(-11.23 -183.55)"/><rect class="cls-2" x="173.94" y="156.57" width="2.73" height="12.82"/><rect class="cls-2" x="168.89" y="161.62" width="12.82" height="2.73"/><rect class="cls-2" x="328.19" y="160.13" width="2.73" height="12.82"/><rect class="cls-2" x="323.15" y="165.18" width="12.82" height="2.73"/><path class="cls-1" d="M140.11,284.3a3.74,3.74,0,1,0,3.73,3.73A3.74,3.74,0,0,0,140.11,284.3Z" transform="translate(-11.23 -183.55)"/><path class="cls-2" d="M140.11,281.56a6.47,6.47,0,1,0,6.46,6.47A6.47,6.47,0,0,0,140.11,281.56Zm0,10.21a3.74,3.74,0,1,1,3.73-3.74A3.75,3.75,0,0,1,140.11,291.77Z" transform="translate(-11.23 -183.55)"/><rect class="cls-2" x="870.46" y="206.41" width="2.73" height="12.82"/><rect class="cls-2" x="865.42" y="211.45" width="12.82" height="2.73"/><circle class="cls-1" cx="792.53" cy="181.48" r="3.73"/><path class="cls-2" d="M810.23,365a6.47,6.47,0,1,0-6.47,6.47A6.48,6.48,0,0,0,810.23,365Zm-6.47,3.73a3.73,3.73,0,1,1,3.73-3.73A3.74,3.74,0,0,1,803.76,368.76Z" transform="translate(-11.23 -183.55)"/><rect class="cls-2" x="1000.98" y="309.64" width="2.73" height="12.82"/><rect class="cls-2" x="995.94" y="314.68" width="12.82" height="2.73"/><rect class="cls-2" x="1158.8" y="377.28" width="2.73" height="12.82"/><rect class="cls-2" x="1153.75" y="382.32" width="12.82" height="2.73"/><path class="cls-1" d="M896.31,433.68a3.74,3.74,0,1,0,3.73,3.73A3.73,3.73,0,0,0,896.31,433.68Z" transform="translate(-11.23 -183.55)"/><path class="cls-2" d="M902.78,437.41a6.47,6.47,0,1,0-6.47,6.47A6.48,6.48,0,0,0,902.78,437.41Zm-6.47,3.74a3.74,3.74,0,1,1,3.73-3.74A3.74,3.74,0,0,1,896.31,441.15Z" transform="translate(-11.23 -183.55)"/><rect class="cls-2" x="1037.97" y="151.76" width="2.73" height="12.82"/><rect class="cls-2" x="1032.92" y="156.81" width="12.82" height="2.73"/><path class="cls-1" d="M1014.61,309.21a3.74,3.74,0,1,0,3.74,3.74A3.74,3.74,0,0,0,1014.61,309.21Z" transform="translate(-11.23 -183.55)"/><path class="cls-2" d="M1021.08,313a6.47,6.47,0,1,0-6.47,6.47A6.47,6.47,0,0,0,1021.08,313Zm-6.47,3.73a3.74,3.74,0,1,1,3.74-3.73A3.73,3.73,0,0,1,1014.61,316.68Z" transform="translate(-11.23 -183.55)"/><path class="cls-3" d="M11.23,568.42h0Z" transform="translate(-11.23 -183.55)"/><rect class="cls-2" x="1.01" y="383.51" width="21.5" height="2.73"/><rect class="cls-2" x="257.89" y="245.25" width="33.59" height="2.73"/><rect class="cls-2" x="1025.61" y="333.06" width="33.59" height="2.73"/><rect class="cls-2" x="230.6" y="105.23" width="33.59" height="2.73"/><rect class="cls-2" x="905.76" y="252.5" width="33.59" height="2.73"/><path class="cls-3" d="M1078.55,394.7" transform="translate(-11.23 -183.55)"/><rect class="cls-2" x="1068.32" y="209.78" width="33.59" height="2.73"/><rect class="cls-2" x="808.46" y="180.11" width="33.59" height="2.73"/><path class="cls-1" d="M1107.75,368a12.1,12.1,0,0,0-24.19,0c0,5.81,10.25,15.4,11.41,16.48l.68.62.69-.62C1097.5,383.37,1107.75,373.78,1107.75,368Z" transform="translate(-11.23 -183.55)"/><path class="cls-2" d="M1110.48,368a14.83,14.83,0,1,0-29.65,0c0,6.37,8.76,15.54,13.94,19.95l.88.76.89-.76C1101.72,383.51,1110.48,374.33,1110.48,368Zm-14.83,17.1-.68-.62c-1.16-1.08-11.41-10.67-11.41-16.48a12.1,12.1,0,0,1,24.19,0c0,5.81-10.25,15.4-11.41,16.48Z" transform="translate(-11.23 -183.55)"/><path class="cls-4" d="M1095.65,374.65a6.68,6.68,0,1,1,6.68-6.68A6.68,6.68,0,0,1,1095.65,374.65Z" transform="translate(-11.23 -183.55)"/><rect class="cls-2" x="1157.95" y="50.96" width="2.73" height="3.53"/><rect class="cls-2" x="1161.5" y="239.4" width="2.73" height="3.53" transform="translate(360.99 943.79) rotate(-59.98)"/><rect class="cls-2" x="1161.5" y="248.89" width="3.53" height="2.73" transform="translate(19.26 430.91) rotate(-29.96)"/><rect class="cls-2" x="1158.74" y="69.15" width="2.73" height="3.53"/><rect class="cls-2" x="1177.65" y="247.81" width="2.73" height="3.53" transform="translate(362.14 962.3) rotate(-60)"/><rect class="cls-2" x="1176.86" y="239.11" width="3.53" height="2.73" transform="translate(26.47 438.09) rotate(-30.01)"/><rect class="cls-2" x="1078.17" y="246.24" width="2.73" height="3.52"/><rect class="cls-2" x="1081.72" y="434.68" width="2.73" height="3.53" transform="translate(152.21 972.49) rotate(-59.99)"/><rect class="cls-2" x="1081.72" y="444.18" width="3.53" height="2.73" transform="translate(-88.89 417.53) rotate(-29.98)"/><rect class="cls-2" x="1078.96" y="264.44" width="2.73" height="3.53"/><rect class="cls-2" x="1097.87" y="443.09" width="2.73" height="3.53" transform="translate(153 990.68) rotate(-59.99)"/><rect class="cls-2" x="1097.08" y="434.39" width="3.53" height="2.73" transform="translate(-81.81 424.83) rotate(-30.03)"/><rect class="cls-2" x="142.49" y="25.59" width="2.73" height="3.53"/><rect class="cls-2" x="146.05" y="214.03" width="2.73" height="3.53" transform="translate(-124.42 51.91) rotate(-59.98)"/><rect class="cls-2" x="146.05" y="223.52" width="3.53" height="2.73" transform="translate(-103.87 -79.53) rotate(-30)"/><rect class="cls-2" x="143.29" y="43.79" width="2.73" height="3.53"/><rect class="cls-2" x="162.2" y="222.44" width="2.73" height="3.53" transform="translate(-123.62 70.2) rotate(-60)"/><rect class="cls-2" x="161.41" y="213.74" width="3.53" height="2.73" transform="translate(-96.93 -73.14) rotate(-30)"/><path class="cls-3" d="M184.58,407.12a20.86,20.86,0,1,1-20.86-20.85A20.86,20.86,0,0,1,184.58,407.12Z" transform="translate(-11.23 -183.55)"/><polygon class="cls-2" points="145.56 217.91 147.52 219.8 151.09 216.11 151.09 230.95 153.82 230.95 153.82 213.4 151 212.26 145.56 217.91"/><rect class="cls-2" x="148.92" y="230.52" width="6.96" height="2.73"/><rect class="cls-2" x="150.82" y="192.85" width="2.73" height="4.7"/><rect class="cls-2" x="147.9" y="380.35" width="2.73" height="4.7" transform="translate(-182.6 -57.61) rotate(-30)"/><rect class="cls-2" x="137.63" y="390.85" width="2.73" height="4.7" transform="translate(-282.24 133.35) rotate(-59.99)"/><rect class="cls-2" x="121.76" y="222.51" width="4.7" height="2.73"/><rect class="cls-2" x="136.95" y="420.21" width="4.7" height="2.73" transform="translate(-203.27 -57.52) rotate(-29.98)"/><rect class="cls-2" x="147.45" y="430.48" width="4.7" height="2.74" transform="translate(-310.32 162.06) rotate(-59.99)"/><rect class="cls-2" x="151.43" y="249.6" width="2.73" height="4.7"/><rect class="cls-2" x="176.81" y="429.19" width="2.73" height="4.7" transform="translate(-203.16 -36.61) rotate(-30)"/><rect class="cls-2" x="187.08" y="418.7" width="2.73" height="4.7" transform="matrix(0.5, -0.87, 0.87, 0.5, -281.66, 190.32)"/><rect class="cls-2" x="178.52" y="221.9" width="4.7" height="2.73"/><rect class="cls-2" x="185.79" y="391.3" width="4.7" height="2.73" transform="matrix(0.87, -0.5, 0.5, 0.87, -182.37, -36.86)"/><rect class="cls-2" x="175.3" y="381.03" width="4.7" height="2.73" transform="translate(-253.57 161.5) rotate(-60)"/><rect class="cls-1" x="169.05" y="268.17" width="72.74" height="38.74"/><path class="cls-2" d="M177.55,493.19h78.2V449h-78.2Zm2.73-41.47H253v38.74H180.28Z" transform="translate(-11.23 -183.55)"/><path class="cls-5" d="M244.07,486.12a5.53,5.53,0,0,1,4.62-4.48V460.45a5.52,5.52,0,0,1-4.6-4.4H189.21a5.52,5.52,0,0,1-4.6,4.4v21.19a5.53,5.53,0,0,1,4.62,4.48Z" transform="translate(-11.23 -183.55)"/><path class="cls-1" d="M216.65,463.68a7.41,7.41,0,1,0,7.4,7.41A7.42,7.42,0,0,0,216.65,463.68Z" transform="translate(-11.23 -183.55)"/><path class="cls-2" d="M216.65,461a10.14,10.14,0,1,0,10.14,10.14A10.15,10.15,0,0,0,216.65,461Zm0,17.54a7.41,7.41,0,1,1,7.4-7.4A7.41,7.41,0,0,1,216.65,478.49Z" transform="translate(-11.23 -183.55)"/><rect class="cls-2" x="179.98" y="286.17" width="10.96" height="2.73"/><path class="cls-6" d="M193.52,465.75" transform="translate(-11.23 -183.55)"/><path class="cls-6" d="M203.18,465.75" transform="translate(-11.23 -183.55)"/><rect class="cls-2" x="219.89" y="286.17" width="10.96" height="2.73"/><circle class="cls-7" cx="954.5" cy="296.71" r="23.14"/><polygon class="cls-3" points="964.58 296.71 957 301.08 949.43 305.45 949.43 296.71 949.43 287.96 957 292.33 964.58 296.71"/><rect class="cls-5" x="1134.78" y="202.31" width="15.56" height="15.56"/><rect class="cls-2" x="147.01" y="170.2" width="2.73" height="2.73"/><rect class="cls-2" x="124.79" y="170.2" width="3.54" height="2.73"/><rect class="cls-2" x="135.9" y="170.2" width="3.54" height="2.73"/><rect class="cls-2" x="114.49" y="170.2" width="2.73" height="2.73"/><rect class="cls-2" x="114.49" y="147.98" width="2.73" height="3.54"/><rect class="cls-2" x="114.49" y="159.09" width="2.73" height="3.54"/><rect class="cls-2" x="114.49" y="137.67" width="2.73" height="2.73"/><rect class="cls-2" x="124.79" y="137.67" width="3.54" height="2.73"/><rect class="cls-2" x="135.9" y="137.67" width="3.54" height="2.73"/><rect class="cls-2" x="147.01" y="137.67" width="2.73" height="2.73"/><rect class="cls-2" x="147.01" y="159.09" width="2.73" height="3.54"/><rect class="cls-2" x="147.01" y="147.98" width="2.73" height="3.55"/><path class="cls-7" d="M335.93,301.67a169.62,169.62,0,0,1-40.78,0,61.12,61.12,0,0,1,0-29,169.62,169.62,0,0,1,40.78,0A61.38,61.38,0,0,1,335.93,301.67Z" transform="translate(-11.23 -183.55)"/><polygon class="cls-1" points="300.76 109.76 311.35 103.65 300.76 97.53 300.76 109.76"/><path class="cls-2" d="M325.84,287.19a2.36,2.36,0,0,0-1.29-2l-11.79-6.81a2.61,2.61,0,0,0-1.33-.39,2.22,2.22,0,0,0-2.17,2.4V294a2.21,2.21,0,0,0,2.17,2.39,2.68,2.68,0,0,0,1.33-.37l11.79-6.82A2.36,2.36,0,0,0,325.84,287.19ZM312,293.31V281.08l10.59,6.11Z" transform="translate(-11.23 -183.55)"/><rect class="cls-2" x="216.59" y="254.44" width="3.45" height="2.73" transform="translate(-128.63 92.15) rotate(-52.91)"/><path class="cls-1" d="M205.46,254.83a15.64,15.64,0,1,0,15.64,15.64A15.65,15.65,0,0,0,205.46,254.83Z" transform="translate(-11.23 -183.55)"/><path class="cls-2" d="M223.83,270.47a18.38,18.38,0,1,0-18.37,18.37A18.39,18.39,0,0,0,223.83,270.47Zm-18.37,15.64a15.64,15.64,0,1,1,15.64-15.64A15.66,15.66,0,0,1,205.46,286.11Z" transform="translate(-11.23 -183.55)"/><rect class="cls-2" x="192.86" y="76.42" width="2.73" height="9.49"/><rect class="cls-2" x="190.53" y="63.09" width="7.4" height="2.73"/><rect class="cls-2" x="192.86" y="66.91" width="2.73" height="2"/><rect class="cls-1" x="346.38" y="114.59" width="29.47" height="30.15"/><path class="cls-2" d="M386.52,295.41H358.18a3.3,3.3,0,0,0-3.3,3.3v29a3.3,3.3,0,0,0,3.3,3.3h28.34a3.3,3.3,0,0,0,3.3-3.3v-29A3.3,3.3,0,0,0,386.52,295.41Zm.57,32.88H357.62V298.14h29.47Z" transform="translate(-11.23 -183.55)"/><path class="cls-2" d="M377.43,285.89H367.27a3.3,3.3,0,0,0-3.3,3.3v11.09h2.73V288.63H378v11.65h2.73V289.19A3.3,3.3,0,0,0,377.43,285.89Z" transform="translate(-11.23 -183.55)"/><path class="cls-1" d="M380.72,384.08h-1a30.92,30.92,0,0,0-1,61.82c.34,0,.69,0,1,0a30.92,30.92,0,0,0,1-61.83Z" transform="translate(-11.23 -183.55)"/><path class="cls-2" d="M380.81,381.35l-1.11,0a33.66,33.66,0,0,0-1.08,67.3h1.1a33.65,33.65,0,0,0,1.09-67.29ZM410.62,416a30.78,30.78,0,0,1-30.88,29.92c-.34,0-.69,0-1,0a30.92,30.92,0,0,1,1-61.82h1A30.95,30.95,0,0,1,410.62,416Z" transform="translate(-11.23 -183.55)"/><path class="cls-4" d="M408.91,407.41,406.23,412l-4.64,8.74L399,415.14l-4.23,2.66-2.64-5.08-2.46,2.94-1.19-.34-3.79-1.61.63,4,2.9,1.26-5.51,12.42-2.29,1.38-1.93-4.74-1.11-7.88-3.85-.28-1.57-2.95,2.35-5.93,3.25-.65,2,1.38,4.78-1-5.13-3-4.34-.88-.18-1.32,4.28-2.3-1.7-2.81,4.39-3.73,4.5,1.74,7.63-2.12s3.14-1.55,6.66-3.25A30.24,30.24,0,0,1,408.91,407.41Z" transform="translate(-11.23 -183.55)"/><path class="cls-4" d="M361.51,390.92l-1.82,2.91-3.15,5.36a.44.44,0,0,0,0,.47l2,3.41a.51.51,0,0,0,.4.23.42.42,0,0,0,.39-.21l1.86-2.84,3.42,4.44-7.09,5.94-3.91.25a.45.45,0,0,0-.41.3l-.91,2.36a.46.46,0,0,0,.06.44l2.5,3.4-4.14-2.07-1.16-1.48A30.18,30.18,0,0,1,361.51,390.92Z" transform="translate(-11.23 -183.55)"/><path class="cls-4" d="M359.48,427.8,357,422.52l3-6.19,8,7.68-7.35,14-1.31-3.26.27-6.7A.43.43,0,0,0,359.48,427.8Z" transform="translate(-11.23 -183.55)"/><path class="cls-4" d="M367.32,399.54l-3.19-7.22a28.13,28.13,0,0,1,9.6-2.9L372.07,396Z" transform="translate(-11.23 -183.55)"/><polygon class="cls-2" points="1138.63 356.06 1109.4 372.94 1080.16 356.06 1080.16 319.6 1077.43 319.6 1077.43 357.63 1109.4 376.09 1141.37 357.63 1141.37 319.6 1138.63 319.6 1138.63 356.06"/><polygon class="cls-2" points="1109.4 298.21 1078.8 315.88 1080.17 318.25 1109.4 301.37 1138.63 318.25 1140 315.88 1109.4 298.21"/><rect class="cls-2" x="1108.03" y="334.22" width="2.73" height="36.76"/><polygon class="cls-3" points="1141.5 314.85 1109.4 333.37 1123.76 341.66 1155.86 323.14 1141.5 314.85"/><polygon class="cls-3" points="1077.3 314.85 1109.4 333.37 1095.05 341.66 1062.94 323.14 1077.3 314.85"/><polygon class="cls-3" points="1077.3 315.89 1109.4 297.37 1095.05 289.08 1062.94 307.6 1077.3 315.89"/><polygon class="cls-3" points="1141.5 315.89 1109.4 297.37 1123.76 289.08 1155.86 307.6 1141.5 315.89"/><path class="cls-7" d="M82.74,510.6,84,509.32a11.94,11.94,0,0,0,0-16.88l-.17-.18a11.94,11.94,0,0,0-16.88,0l-1.28,1.28-1.29-1.28a11.93,11.93,0,0,0-16.87,0l-.18.18a11.94,11.94,0,0,0,0,16.88l1.28,1.28,17.06,17.06Z" transform="translate(-11.23 -183.55)"/><path class="cls-2" d="M85,491.48l-.18-.18a13.29,13.29,0,0,0-18.81,0l-.57.57.4.39-1.68,1.68,1.54,1.54,2.24-2.25a10.57,10.57,0,0,1,14.95,0l.18.19a10.59,10.59,0,0,1,0,14.94L65.43,526l1.93,1.93L85,510.28a13.3,13.3,0,0,0,0-18.8Z" transform="translate(-11.23 -183.55)"/><path class="cls-8" d="M47.35,492.44" transform="translate(-11.23 -183.55)"/><path class="cls-2" d="M860.87,418.57a32.23,32.23,0,0,0-31.19-32.18v2.73a29.47,29.47,0,1,1-30.45,30.45h-2.74a32.2,32.2,0,0,0,64.38-1Z" transform="translate(-11.23 -183.55)"/><line class="cls-2" x1="788.98" y1="235.02" x2="784.24" y2="235.02"/><path class="cls-2" d="M820.84,390.16l-.64-2.66a29.7,29.7,0,0,0-2.9.94l1,2.53C819.16,390.66,820,390.39,820.84,390.16Z" transform="translate(-11.23 -183.55)"/><path class="cls-2" d="M798.54,407.21a29.7,29.7,0,0,0-.94,2.9l2.66.64c.23-.85.5-1.68.81-2.5Z" transform="translate(-11.23 -183.55)"/><path class="cls-2" d="M803.54,398.44c-.63.79-1.24,1.62-1.79,2.47l2.33,1.43c.48-.73,1-1.44,1.54-2.12Z" transform="translate(-11.23 -183.55)"/><path class="cls-2" d="M808.53,393.44l1.78,2.08c.69-.54,1.4-1.06,2.13-1.54L811,391.65C810.16,392.21,809.33,392.81,808.53,393.44Z" transform="translate(-11.23 -183.55)"/><path class="cls-5" d="M850.64,418.57a22,22,0,1,1-22-22A22,22,0,0,1,850.64,418.57Z" transform="translate(-11.23 -183.55)"/><polygon class="cls-2" points="828.32 226.23 812.93 241.62 807.26 235.94 805.32 237.88 812.93 245.49 830.25 228.17 828.32 226.23"/><circle class="cls-4" cx="255.52" cy="345.31" r="26.82" transform="translate(-150.11 332.01) rotate(-76.85)"/><path class="cls-1" d="M255.5,360.84a15.39,15.39,0,0,0,1.66-.09,15.52,15.52,0,1,0-3.28-30.87,16.94,16.94,0,0,0-2.38.44l-1.34.36.76,1.16a8,8,0,0,1-9.54,11.82l-1.29-.5-.07,1.38a15.09,15.09,0,0,0,.07,2.42A15.48,15.48,0,0,0,255.5,360.84Z" transform="translate(-11.23 -183.55)"/><path class="cls-2" d="M255.5,363.57a18.06,18.06,0,0,0,1.95-.1,18.26,18.26,0,0,0-1.91-36.41,18.1,18.1,0,0,0-8.68,2.19l-2.16,1.16,2.13,1.23a5.25,5.25,0,0,1-2.05,9.78,5.07,5.07,0,0,1-.55,0,5.29,5.29,0,0,1-3.91-1.75l-1.65-1.83-.68,2.36a18.25,18.25,0,0,0,17.51,23.34Zm-15.48-19,.07-1.38,1.29.5a7.93,7.93,0,0,0,2.84.52,8.06,8.06,0,0,0,.85,0,8,8,0,0,0,5.85-12.3l-.76-1.16,1.34-.36a16.94,16.94,0,0,1,2.38-.44,15.67,15.67,0,0,1,1.66-.09A15.53,15.53,0,1,1,240.09,347,15.09,15.09,0,0,1,240,344.54Z" transform="translate(-11.23 -183.55)"/><path class="cls-1" d="M255.52,329c-14.7,0-28.48,5.84-36.86,15.62l-.56.65.56.66c8.38,9.78,22.16,15.62,36.86,15.62S284,355.75,292.38,346l.56-.66-.56-.65C284,334.88,270.22,329,255.52,329Z" transform="translate(-11.23 -183.55)"/><path class="cls-2" d="M255.52,326.3c-16.4,0-31.45,6.8-40.24,18.18l-.64.83.64.84c8.79,11.38,23.84,18.18,40.24,18.18s31.45-6.8,40.24-18.18l.65-.84-.65-.83C287,333.1,271.93,326.3,255.52,326.3ZM292.38,346c-8.38,9.78-22.16,15.62-36.86,15.62S227,355.75,218.66,346l-.56-.66.56-.65C227,334.88,240.82,329,255.52,329s28.48,5.84,36.86,15.62l.56.65Z" transform="translate(-11.23 -183.55)"/><rect class="cls-2" x="26.01" width="36.54" height="2.73"/><rect class="cls-2" x="26.01" y="8.6" width="36.54" height="2.73"/><polygon class="cls-2" points="17.38 1.01 12.82 6.73 10.78 5.42 9.3 7.71 13.41 10.37 19.52 2.71 17.38 1.01"/><rect class="cls-2" x="26.01" y="25.64" width="36.54" height="2.73"/><rect class="cls-2" x="26.01" y="34.24" width="18.74" height="2.73"/><polygon class="cls-2" points="17.38 26.65 12.82 32.37 10.78 31.05 9.29 33.35 13.41 36.01 19.52 28.35 17.38 26.65"/><rect class="cls-2" x="26.01" y="51.28" width="18.74" height="2.73"/><rect class="cls-2" x="26.01" y="59.87" width="18.74" height="2.73"/><polygon class="cls-2" points="17.38 52.28 12.82 58.01 10.78 56.69 9.3 58.99 13.41 61.65 19.52 53.99 17.38 52.28"/><path class="cls-1" d="M106.51,209.43a3.55,3.55,0,0,0-3.59-3.8,4.33,4.33,0,0,0-1.06.13,7.1,7.1,0,0,0-5.19,6.45v.27l0,4.63,4.75-1.13A7.1,7.1,0,0,0,106.51,209.43Z" transform="translate(-11.23 -183.55)"/><path class="cls-2" d="M109.24,209.41a6.29,6.29,0,0,0-6.28-6.52,7.37,7.37,0,0,0-1.73.21,10,10,0,0,0-7,7.22L94,211l-.1,0,.06,9.55,9.2-2.17v-.07l.56-.28A9.91,9.91,0,0,0,109.24,209.41Zm-12.55,7.7,0-4.63v-.27a7.1,7.1,0,0,1,5.19-6.45,4.33,4.33,0,0,1,1.06-.13,3.55,3.55,0,0,1,3.59,3.8,7.1,7.1,0,0,1-5.07,6.55Z" transform="translate(-11.23 -183.55)"/><path class="cls-1" d="M89.26,216l.35.09,4.42,1,0-4.58v-.33a7.08,7.08,0,0,0-5.18-6.44,4.41,4.41,0,0,0-1.07-.13,3.55,3.55,0,0,0-3.59,3.79A7.12,7.12,0,0,0,89.26,216Z" transform="translate(-11.23 -183.55)"/><path class="cls-2" d="M81.48,209.41A9.93,9.93,0,0,0,87,218l.56.28v.08l9.2,2.16L96.8,211h-.1l-.16-.68a10,10,0,0,0-7-7.17,7.37,7.37,0,0,0-1.73-.21A6.29,6.29,0,0,0,81.48,209.41Zm6.32-3.78a4.41,4.41,0,0,1,1.07.13,7.08,7.08,0,0,1,5.18,6.44v.33l0,4.58-4.42-1-.35-.09a7.12,7.12,0,0,1-5.05-6.56A3.55,3.55,0,0,1,87.8,205.63Z" transform="translate(-11.23 -183.55)"/><rect class="cls-9" x="52.85" y="35.54" width="62.56" height="11.63"/><rect class="cls-1" x="54.22" y="36.91" width="59.82" height="8.9"/><path class="cls-2" d="M62.72,232.09H128V217.72H62.72Zm2.73-11.63h59.82v8.9H65.45Z" transform="translate(-11.23 -183.55)"/><rect class="cls-9" x="54.77" y="47.18" width="58.72" height="36.68"/><rect class="cls-1" x="56.14" y="48.54" width="55.98" height="33.94"/><path class="cls-2" d="M64.64,268.77h61.45V229.36H64.64Zm2.73-36.68h56V266h-56Z" transform="translate(-11.23 -183.55)"/><rect class="cls-3" x="78.52" y="37.92" width="11.23" height="6.89"/><rect class="cls-3" x="78.83" y="49.55" width="10.61" height="31.93"/><polygon class="cls-2" points="950.57 209.84 966.02 230.22 972.41 225.4 964.41 203.02 944.54 183.32 942.61 185.26 962.04 204.52 969.15 224.43 966.55 226.39 952.73 208.17 927.92 183.33 925.99 185.26 950.57 209.84"/><path class="cls-1" d="M999.35,423.89a12.09,12.09,0,1,0,0,17.1A12,12,0,0,0,999.35,423.89Z" transform="translate(-11.23 -183.55)"/><path class="cls-2" d="M1001.28,422a14.84,14.84,0,1,0,0,21A14.74,14.74,0,0,0,1001.28,422Zm-10.49,22.58a12.09,12.09,0,1,1,8.56-3.54A12,12,0,0,1,990.79,444.53Z" transform="translate(-11.23 -183.55)"/><path class="cls-1" d="M1016,368.39a12.1,12.1,0,0,0-1,24.15V394h2v-1.41a12.1,12.1,0,0,0-1-24.15Z" transform="translate(-11.23 -183.55)"/><path class="cls-2" d="M1016,365.66a14.83,14.83,0,1,0,0,29.66h0a14.83,14.83,0,0,0,0-29.66Zm1,26.88V394h-2v-1.41a12.1,12.1,0,1,1,2,0Z" transform="translate(-11.23 -183.55)"/><path class="cls-1" d="M967.91,390.33H916.72V393a6.28,6.28,0,0,0,6.26,6.27l49.25.25,19.11-9.05-.45-3.23Z" transform="translate(-11.23 -183.55)"/><path class="cls-2" d="M993.22,384.12l-25.34,3.48H914V393a9,9,0,0,0,9,9l49.86.25L994.33,392Zm-21,15.36L923,399.23a6.28,6.28,0,0,1-6.26-6.27v-2.63h51.19l23-3.13.45,3.23Z" transform="translate(-11.23 -183.55)"/><path class="cls-3" d="M970.41,392.32a2.32,2.32,0,1,1,0,3.28A2.32,2.32,0,0,1,970.41,392.32Z" transform="translate(-11.23 -183.55)"/><path class="cls-2" d="M972.05,391.64a2.32,2.32,0,0,0-1.64,4,2.31,2.31,0,0,0,3.27,0,2.32,2.32,0,0,0-1.63-4Z" transform="translate(-11.23 -183.55)"/><path class="cls-2" d="M972.05,395.28a1.32,1.32,0,0,1-.93-2.25,1.34,1.34,0,0,1,.93-.38,1.31,1.31,0,0,1,1.31,1.32,1.3,1.3,0,0,1-.39.92A1.29,1.29,0,0,1,972.05,395.28Z" transform="translate(-11.23 -183.55)"/><path class="cls-2" d="M980.49,368.52v-2.73H983v2.73Zm-9,0v-2.73H974v2.73Zm-9,0v-2.73H965v2.73Zm-9,0v-2.73H956v2.73Zm-9,0v-2.73H947v2.73Zm-9,0v-2.73H938v2.73Zm-9,0v-2.73h2.49v2.73Z" transform="translate(-11.23 -183.55)"/><rect class="cls-2" x="980.84" y="410.7" width="2.73" height="8.24" transform="translate(-89.56 341.18) rotate(-28.81)"/><rect class="cls-2" x="994.17" y="384.92" width="7.08" height="2.73" transform="translate(-57.51 -31.2) rotate(-8.53)"/><polygon class="cls-3" points="971.85 147.63 971.62 147.53 966.02 149.91 960.43 147.53 954.83 149.91 949.24 147.53 943.65 149.91 938.05 147.53 932.46 149.91 926.87 147.53 921.28 149.91 915.69 147.53 915.48 147.62 915.48 184.61 971.85 184.61 971.85 147.63"/><polygon class="cls-1" points="960.43 149.02 954.83 151.39 949.24 149.02 943.65 151.39 938.05 149.02 932.46 151.39 926.87 149.02 921.28 151.39 916.85 149.51 916.85 183.25 970.48 183.25 970.48 149.5 966.02 151.39 960.43 149.02"/><path class="cls-2" d="M977.25,332l-5.59-2.38L966.07,332l-5.6-2.38L954.88,332l-5.6-2.38L943.69,332l-5.59-2.38L932.51,332l-5.59-2.38-1.57.68v39.26h59.09V330.27l-1.59-.68Zm4.46,34.82H928.08V333.06l4.43,1.88,5.59-2.37,5.59,2.37,5.59-2.37,5.6,2.37,5.59-2.37,5.6,2.37,5.59-2.37,5.59,2.37,4.46-1.89Z" transform="translate(-11.23 -183.55)"/><rect class="cls-2" x="923.26" y="159.68" width="18.95" height="2.73"/><rect class="cls-2" x="956.88" y="159.68" width="5.11" height="2.73"/><rect class="cls-2" x="923.26" y="169.56" width="22.51" height="2.73"/><rect class="cls-2" x="956.88" y="169.56" width="5.11" height="2.73"/><path class="cls-1" d="M97.38,359.35H53.77a1.92,1.92,0,0,0-1.8,2v38.45a1.93,1.93,0,0,0,1.8,2h7.49V413L74.4,401.84h23a1.92,1.92,0,0,0,1.79-2V361.37A1.91,1.91,0,0,0,97.38,359.35Z" transform="translate(-11.23 -183.55)"/><path class="cls-2" d="M97.38,356.61H53.77a4.66,4.66,0,0,0-4.53,4.76v38.45a4.65,4.65,0,0,0,4.53,4.75h4.75v14.3l16.88-14.3h22a4.65,4.65,0,0,0,4.53-4.75V361.37A4.66,4.66,0,0,0,97.38,356.61Zm1.79,43.21a1.92,1.92,0,0,1-1.79,2h-23L61.26,413V401.84H53.77a1.93,1.93,0,0,1-1.8-2V361.37a1.92,1.92,0,0,1,1.8-2H97.38a1.91,1.91,0,0,1,1.79,2Z" transform="translate(-11.23 -183.55)"/><path class="cls-1" d="M65.48,368.09a4.62,4.62,0,1,0,4.61,4.61A4.62,4.62,0,0,0,65.48,368.09Z" transform="translate(-11.23 -183.55)"/><path class="cls-2" d="M65.48,365.35a7.35,7.35,0,1,0,7.35,7.35A7.36,7.36,0,0,0,65.48,365.35Zm0,12a4.62,4.62,0,1,1,4.61-4.62A4.62,4.62,0,0,1,65.48,377.32Z" transform="translate(-11.23 -183.55)"/><path class="cls-1" d="M84.74,384.27a4.62,4.62,0,1,0,4.62,4.62A4.62,4.62,0,0,0,84.74,384.27Z" transform="translate(-11.23 -183.55)"/><path class="cls-2" d="M92.09,388.89a7.35,7.35,0,1,0-7.35,7.35A7.36,7.36,0,0,0,92.09,388.89Zm-7.35,4.61a4.62,4.62,0,1,1,4.62-4.61A4.62,4.62,0,0,1,84.74,393.5Z" transform="translate(-11.23 -183.55)"/><rect class="cls-2" x="55.93" y="379.6" width="38.71" height="2.73" transform="translate(-258.57 -18.73) rotate(-45)"/><rect class="cls-2" x="1061.5" y="20.1" width="36.54" height="2.73"/><rect class="cls-2" x="1061.5" y="28.92" width="36.54" height="2.73"/><rect class="cls-4" x="1047.25" y="19.12" width="8.55" height="8.55"/><rect class="cls-7" x="1047.94" y="71.73" width="79.5" height="27.29"/><rect class="cls-2" x="1068.52" y="84.01" width="38.33" height="2.73"/><rect class="cls-2" x="1111.75" y="24.5" width="9.83" height="2.73"/><rect class="cls-2" x="1061.5" y="48.58" width="36.54" height="2.73"/><rect class="cls-2" x="1061.5" y="57.4" width="36.54" height="2.73"/><rect class="cls-4" x="1047.25" y="47.6" width="8.55" height="8.55"/><rect class="cls-2" x="1111.75" y="52.98" width="9.83" height="2.73"/><rect class="cls-2" x="1085.92" y="96.41" width="2.73" height="4.83"/><rect class="cls-2" x="1087.74" y="285.85" width="2.73" height="4.83" transform="translate(283.67 903.77) rotate(-60)"/><rect class="cls-2" x="1087.1" y="297.99" width="4.83" height="2.74" transform="translate(-15.08 400.78) rotate(-29.97)"/><path class="cls-3" d="M1099.32,301.14v0Z" transform="translate(-11.23 -183.55)"/><rect class="cls-2" x="1107.36" y="296.25" width="2.73" height="4.83" transform="translate(284.64 926.13) rotate(-60.01)"/><rect class="cls-2" x="1105.91" y="286.2" width="4.83" height="2.73" transform="translate(-6.47 409.34) rotate(-30.01)"/><polygon class="cls-1" points="1087.77 119.63 1083.01 127.72 1092.39 127.8 1087.77 119.63"/><path class="cls-2" d="M1099.05,297.71,1089.47,314l18.86.17Zm0,5.47,4.62,8.17-9.38-.08Z" transform="translate(-11.23 -183.55)"/><rect class="cls-2" x="1095.73" y="315.34" width="6.29" height="2.73" transform="translate(761.09 1229.15) rotate(-89.49)"/><path class="cls-2" d="M97.54,323c-1.2-1.86-2.69-4.19-5.73-4.19s-4.53,2.33-5.73,4.19-2,2.93-3.43,2.93-2.25-1.11-3.42-2.93-2.69-4.19-5.73-4.19S69,321.1,67.78,323s-2,2.93-3.43,2.93-2.26-1.11-3.43-2.93-2.69-4.19-5.72-4.19-4.53,2.33-5.73,4.19-2,2.93-3.42,2.93-2.26-1.11-3.43-2.93c-1.06-1.65-2.34-3.65-4.72-4.09v2.85c.89.4,1.55,1.37,2.42,2.72,1.2,1.87,2.69,4.19,5.73,4.19s4.52-2.32,5.72-4.19,2-2.93,3.43-2.93,2.26,1.11,3.42,2.93,2.69,4.19,5.73,4.19,4.53-2.32,5.73-4.19,2-2.93,3.42-2.93,2.26,1.11,3.43,2.93,2.69,4.19,5.72,4.19,4.53-2.32,5.73-4.19,2-2.93,3.43-2.93,2.26,1.11,3.43,2.93c1.06,1.65,2.35,3.65,4.73,4.1v-2.86C99.08,325.28,98.41,324.32,97.54,323Z" transform="translate(-11.23 -183.55)"/><path class="cls-4" d="M986.71,259.55a5.67,5.67,0,0,0-1.65-4.07L970,240.41l-3.62-3.62L962.61,233c-.41.35-.81.71-1.2,1.1-9.69,9.69-7.73,27.36,4.39,39.47.67.68,1.36,1.32,2.07,1.93a5.65,5.65,0,0,0,2.39.48Z" transform="translate(-11.23 -183.55)"/><path class="cls-1" d="M1012.5,259.81h0l-.24-1.14a17.65,17.65,0,0,0-2.19-5.24l-.07-.11c-.25-.4-.48-.73-.72-1L1009,252c-.24-.31-.47-.6-.72-.87l-.31-.35c-.24-.25-.48-.51-.74-.76l-.45-.42c-.26-.23-.47-.42-.7-.6l-.35-.26c-.48-.37-1-.71-1.48-1l-.23-.13c-.18-.12-.32-.2-.46-.28l-.43-.22-.24-.12-.79-.38-.55-.23c-.4-.16-.69-.26-1-.36l-.66-.21q-.48-.14-1-.24l-.15,0-.49-.1c-.36-.07-.72-.12-1.09-.17l-.25,0-.3,0c-.61-.06-1.16-.09-1.67-.09s-.94,0-1.4.07a17.75,17.75,0,0,0-16.08,14.7l-3.1.24a4.31,4.31,0,0,0-3.83-2.35H940.12l0,1c.54,12.7,13.55,22.64,29.63,22.64.75,0,1.51,0,2.33-.07l.2,0,.18-.09a4.29,4.29,0,0,0,1.72-1.55l3,.56c0,4.62,0,12.23,0,12.23l.84.14a26.79,26.79,0,0,0,4.67.4c1,0,1.94-.05,3-.14l.57-.07.4-.06c.64-.08,1.28-.16,1.91-.27l.62-.13.51-.11c.54-.12,1.1-.25,1.65-.4.38-.1.76-.23,1.15-.35s1-.33,1.51-.51l1.15-.46c.47-.2.94-.41,1.4-.63s.75-.36,1.12-.56.86-.48,1.29-.73l.14-.08c.37-.22.66-.39.94-.57s.79-.55,1.18-.83l.27-.19.75-.55c.28-.22.53-.44.78-.66l.69-.59c.21-.18.4-.34.58-.51.6-.56,1.19-1.16,1.75-1.79.21-.24.41-.49.61-.74l.5-.62.54-.68c.26-.34.48-.69.71-1l.23-.35c.18-.27.35-.52.51-.78s.43-.76.64-1.14l.2-.38.41-.79c.2-.43.39-.87.58-1.32s.29-.73.42-1.09.33-.91.47-1.38.22-.76.31-1.13.24-.95.34-1.42l0-.2,0-.35a26.18,26.18,0,0,0,.43-4.6,28.75,28.75,0,0,0-.51-4.18Z" transform="translate(-11.23 -183.55)"/><path class="cls-2" d="M1015.42,260.54a18,18,0,0,0-.52-2.36l0-.16a20.49,20.49,0,0,0-2.54-6.06c0-.05-.07-.11-.11-.17-.25-.39-.51-.76-.81-1.17l-.23-.31c-.27-.34-.54-.68-.82-1-.08-.1-.36-.4-.36-.4-.28-.3-.56-.6-.85-.88l-.53-.48c-.26-.24-.53-.48-.8-.7l-.32-.24-.1-.07a18.37,18.37,0,0,0-1.71-1.18l-.2-.13-.58-.34-.56-.29-.21-.1-.91-.44-.77-.32-1-.37c-.25-.08-.5-.16-.77-.23s-.72-.2-1.1-.29l-.18,0-.55-.12c-.42-.08-.84-.14-1.27-.19l-.19,0-.45-.06c-.73-.06-1.34-.09-1.92-.09a15.76,15.76,0,0,0-1.64.08,20.51,20.51,0,0,0-17.52,13.18l-.44,1.16-1-.66a6.94,6.94,0,0,0-3.77-1.11h-33l-.1,1.26c0,.69-.07,1.22-.07,1.73,0,14.43,14.52,26.18,32.38,26.18.93,0,1.89,0,2.93-.11l.2,0,.26-.1,1.34-.47,0,11.23,1.07.23a31.94,31.94,0,0,0,7.24.83c1,0,2.08-.05,3.21-.15l.69-.09.35,0c.69-.09,1.38-.18,2.07-.3L990,295l.37-.08c.6-.13,1.21-.27,1.8-.43l1.26-.38c.55-.18,1.1-.36,1.64-.56l1.25-.5c.51-.21,1-.44,1.52-.68l1.22-.61c.48-.25.94-.52,1.4-.8l.16-.09c.35-.2.68-.4,1-.62s.87-.6,1.29-.9l.25-.18.86-.63c.32-.25.62-.52.94-.79l.6-.51.69-.61c.65-.61,1.29-1.27,1.92-2,.26-.3.52-.62.77-.94l.4-.5c.22-.26.43-.52.64-.79s.55-.78.81-1.18l.2-.31c.2-.3.4-.6.58-.9s.49-.85.72-1.28l.14-.27c.18-.33.35-.65.51-1s.44-1,.64-1.45.33-.8.47-1.2.36-1,.51-1.51.24-.84.35-1.26.27-1.05.39-1.66a1.72,1.72,0,0,0,0-.2l.06-.46a29.32,29.32,0,0,0,.45-4.93A26.59,26.59,0,0,0,1015.42,260.54Zm-2.68,8.87,0,.35,0,.2c-.1.47-.21.94-.34,1.42s-.19.75-.31,1.13-.3.92-.47,1.38-.27.72-.42,1.09-.38.89-.58,1.32l-.41.79-.2.38c-.21.38-.41.76-.64,1.14s-.33.51-.51.78l-.23.35c-.23.35-.45.7-.71,1l-.54.68-.5.62c-.2.25-.4.5-.61.74-.56.63-1.15,1.23-1.75,1.79-.18.17-.37.33-.58.51l-.69.59c-.25.22-.5.44-.78.66l-.75.55-.27.19c-.39.28-.78.57-1.18.83s-.57.35-.94.57l-.14.08c-.43.25-.85.5-1.29.73s-.75.38-1.12.56-.93.43-1.4.63l-1.15.46c-.49.18-1,.35-1.51.51s-.77.25-1.15.35c-.55.15-1.11.28-1.65.4l-.51.11-.62.13c-.63.11-1.27.19-1.91.27l-.4.06-.57.07c-1.08.09-2.06.14-3,.14a26.79,26.79,0,0,1-4.67-.4l-.84-.14s0-7.61,0-12.23l-3-.56a4.29,4.29,0,0,1-1.72,1.55l-.18.09-.2,0c-.82.05-1.58.07-2.33.07-16.08,0-29.09-9.94-29.63-22.64l0-1h30.49a4.31,4.31,0,0,1,3.83,2.35l3.1-.24a17.75,17.75,0,0,1,16.08-14.7c.46,0,.91-.07,1.4-.07s1.06,0,1.67.09l.3,0,.25,0c.37.05.73.1,1.09.17l.49.1.15,0q.48.1,1,.24l.66.21c.29.1.58.2,1,.36l.55.23.79.38.24.12.43.22c.14.08.28.16.46.28l.23.13c.51.32,1,.66,1.48,1l.35.26c.23.18.44.37.7.6l.45.42c.26.25.5.51.74.76l.31.35c.25.27.48.56.72.87l.21.28c.24.32.47.65.72,1l.07.11a17.65,17.65,0,0,1,2.19,5.24l.24,1.14h0l.16.82a28.75,28.75,0,0,1,.51,4.18A26.18,26.18,0,0,1,1012.74,269.41Z" transform="translate(-11.23 -183.55)"/><path class="cls-2" d="M984.34,293h-2.27c-.26,0-.52,0-.78,0-.63,0-1.27-.11-1.92-.18l-.37,0-.6-.07c-1-.15-2-.33-2.91-.55a29.07,29.07,0,0,1-5.37-1.87l-1.2,2.46a31.65,31.65,0,0,0,5.93,2.06c1,.25,2,.44,3.16.61l.73.08.31,0c.7.08,1.39.16,2.08.2l.9,0h2.5Z" transform="translate(-11.23 -183.55)"/><path class="cls-3" d="M1003.75,256.89a2.66,2.66,0,1,1-2.66-2.67A2.66,2.66,0,0,1,1003.75,256.89Z" transform="translate(-11.23 -183.55)"/><path class="cls-1" d="M1001.09,255.59a1.3,1.3,0,0,0-1.3,1.3,1.3,1.3,0,0,0,2.59,0A1.3,1.3,0,0,0,1001.09,255.59Z" transform="translate(-11.23 -183.55)"/><path class="cls-2" d="M1001.09,252.86a4,4,0,1,0,4,4A4,4,0,0,0,1001.09,252.86Zm0,5.27a1.25,1.25,0,0,1-1.3-1.24,1.3,1.3,0,1,1,2.59,0A1.25,1.25,0,0,1,1001.09,258.13Z" transform="translate(-11.23 -183.55)"/><rect class="cls-2" x="993.53" y="71.97" width="15.94" height="2.73"/><rect class="cls-2" x="1004.32" y="251.95" width="15.74" height="2.73" transform="translate(-39.81 143.92) rotate(-18.13)"/><path class="cls-4" d="M992.54,291.51a20.71,20.71,0,0,1-.2-2.83c0-11.3,9.11-20.61,20.7-21.65a26.43,26.43,0,0,1-.38,2.72l0,.19v.1c0,.07,0,.13,0,.19-.11.49-.23,1-.35,1.43s-.21.76-.33,1.13-.32.94-.5,1.4-.28.72-.44,1.08-.41.91-.63,1.35-.34.63-.51.95l-.05.08c-.24.42-.48.85-.74,1.27-.17.27-.35.52-.53.77l-.28.4c-.24.34-.47.68-.72,1s-.39.46-.58.69l-.5.58c-.22.26-.44.53-.68.78-.6.64-1.22,1.25-1.85,1.81a7.22,7.22,0,0,1-.6.5l-.71.58c-.28.23-.55.46-.84.68l-.79.54-.3.21c-.45.31-.85.58-1.26.84s-.62.36-.94.54l-.2.12c-.46.25-.91.5-1.37.73s-.79.38-1.19.57l-1.48.63-1.22.46Z" transform="translate(-11.23 -183.55)"/><rect class="cls-2" x="29.07" y="327.85" width="20.99" height="2.73"/><rect class="cls-2" x="17.03" y="327.85" width="5.65" height="2.73"/><rect class="cls-2" x="13.06" y="317.76" width="20.99" height="2.73"/><rect class="cls-2" x="1.01" y="317.76" width="5.65" height="2.73"/><rect class="cls-2" x="900.91" y="88.28" width="20.99" height="2.73"/><rect class="cls-2" x="888.87" y="88.28" width="5.65" height="2.73"/><rect class="cls-2" x="884.9" y="78.2" width="20.99" height="2.73"/><rect class="cls-2" x="872.85" y="78.2" width="5.65" height="2.73"/></g><g id="Layer_6" data-name="Layer 6"><path class="cls-2" d="M668.82,328.79H623.39a1.92,1.92,0,0,0-1.91,1.91V561a1.92,1.92,0,0,0,3.83,0V332.62h41.6V561a1.91,1.91,0,1,0,3.82,0V330.7A1.92,1.92,0,0,0,668.82,328.79Z" transform="translate(-11.23 -183.55)"/><path class="cls-10" d="M584.7,424.9V321.15a52.32,52.32,0,1,0-104.63,0V424.9Z" transform="translate(-11.23 -183.55)"/><path class="cls-1" d="M532.38,270.74A50.46,50.46,0,0,0,482,321.15V423H582.79V321.15A50.46,50.46,0,0,0,532.38,270.74Z" transform="translate(-11.23 -183.55)"/><path class="cls-2" d="M532.38,266.92a54.28,54.28,0,0,0-54.22,54.23V424.9a1.91,1.91,0,0,0,1.91,1.91H584.7a1.91,1.91,0,0,0,1.91-1.91V321.15A54.28,54.28,0,0,0,532.38,266.92ZM582.79,423H482V321.15a50.41,50.41,0,1,1,100.81,0Z" transform="translate(-11.23 -183.55)"/><path class="cls-2" d="M668.82,442.35H636.71a1.92,1.92,0,0,0,0,3.83h32.11a1.92,1.92,0,0,0,0-3.83Z" transform="translate(-11.23 -183.55)"/><path class="cls-2" d="M668.82,461.15H648.46a1.92,1.92,0,1,0,0,3.83h20.36a1.92,1.92,0,0,0,0-3.83Z" transform="translate(-11.23 -183.55)"/><rect class="cls-3" x="428.08" y="115.14" width="178.85" height="103"/><rect class="cls-1" x="430" y="117.05" width="175.02" height="99.17"/><path class="cls-2" d="M437.4,403.59H620.07V296.77H437.4Zm3.83-103h175v99.17h-175Z" transform="translate(-11.23 -183.55)"/><path class="cls-3" d="M618,298.57H439.29l22.34,19.06L477.31,331c1.83,1.56,4.25,3.62,6.66,5.69l20.87,17.8L522,369.12a10.68,10.68,0,0,0,13.34,0l17.15-14.63,20.86-17.8L580,331l15.67-13.37Z" transform="translate(-11.23 -183.55)"/><path class="cls-1" d="M444.48,300.48l35.41,30.22c1.6,1.36,3.47,2.94,5.33,4.54l38,32.42a9,9,0,0,0,10.86,0l78.76-67.18Z" transform="translate(-11.23 -183.55)"/><path class="cls-2" d="M575.59,337.29c2.07-1.77,4.08-3.49,5.67-4.83l37-31.57-1.56-4.23H440.62l-1.56,4.23,81.69,69.68a12.57,12.57,0,0,0,15.82,0Zm-46.93,32.19a8.42,8.42,0,0,1-5.43-1.82l-38-32.42c-1.86-1.6-3.73-3.18-5.33-4.54l-35.41-30.22H612.85l-78.76,67.18A8.44,8.44,0,0,1,528.66,369.48Z" transform="translate(-11.23 -183.55)"/><path class="cls-3" d="M440,401" transform="translate(-11.23 -183.55)"/><rect class="cls-2" x="432.33" y="373.35" width="74.83" height="3.82" transform="translate(-142.28 214.6) rotate(-40.8)"/><rect class="cls-2" x="586.34" y="337.85" width="3.82" height="74.83" transform="translate(-91.43 391.8) rotate(-49.2)"/><path class="cls-9" d="M700.81,268.83c-.32,0-.62,0-.94.05v-.1H535.41v.2a52.27,52.27,0,0,1,49.29,52.17V424.9H753.12V321.15A52.31,52.31,0,0,0,700.81,268.83Z" transform="translate(-11.23 -183.55)"/><path class="cls-1" d="M700.81,270.74l-.9.05a2.46,2.46,0,0,1-.49-.05l-.21-.05H553.38l6.16,3.56a54.39,54.39,0,0,1,27.07,46.9V423h164.6V321.15A50.46,50.46,0,0,0,700.81,270.74Z" transform="translate(-11.23 -183.55)"/><path class="cls-2" d="M700.81,266.92h-.41l-.19,0c-.11,0-.22,0-.34,0H535.41a1.92,1.92,0,0,0-1.91,1.92v.2a1.92,1.92,0,0,0,1.8,1.91,50.39,50.39,0,0,1,47.49,50.26V424.9a1.92,1.92,0,0,0,1.91,1.91H753.12A1.92,1.92,0,0,0,755,424.9V321.15A54.29,54.29,0,0,0,700.81,266.92ZM751.21,423H586.61V321.15a54.39,54.39,0,0,0-27.07-46.9l-6.16-3.56H699.21l.21.05a2.46,2.46,0,0,0,.49.05l.9-.05a50.46,50.46,0,0,1,50.4,50.41Z" transform="translate(-11.23 -183.55)"/><path class="cls-11" d="M617.31,336.18" transform="translate(-11.23 -183.55)"/><rect class="cls-2" x="604.17" y="20.46" width="3.82" height="130.26"/><polygon class="cls-7" points="606.08 68.83 606.08 51.08 606.08 33.32 667.4 33.32 654.1 51.08 667.4 68.83 606.08 68.83"/><polygon class="cls-1" points="651.71 51.08 663.58 35.23 608 35.23 608 66.91 663.58 66.91 651.71 51.08"/><path class="cls-2" d="M667.72,234.62,682.46,215H615.4v39.32h67.06Zm-48.49-15.84h55.58l-11.87,15.84,11.87,15.84H619.23Z" transform="translate(-11.23 -183.55)"/></g><g id="Layer_5" data-name="Layer 5"><g class="cls-12"><path class="cls-3" d="M563.73,494.37a5.81,5.81,0,0,1-5.82,5.82H517.44a5.82,5.82,0,0,1-5.83-5.82h0a5.82,5.82,0,0,1,5.83-5.82h40.47a5.81,5.81,0,0,1,5.82,5.82Z" transform="translate(-11.23 -183.55)"/><path class="cls-2" d="M557.91,501.76H517.44a7.39,7.39,0,0,1,0-14.78h40.47a7.39,7.39,0,0,1,0,14.78Zm-40.47-11.65a4.26,4.26,0,0,0,0,8.52h40.47a4.26,4.26,0,0,0,0-8.52Z" transform="translate(-11.23 -183.55)"/><path class="cls-10" d="M507.5,546.59V531.43c0-4.62,4.23-8.37,9.46-8.37h41.53c5.23,0,9.47,3.75,9.47,8.37v15.16Z" transform="translate(-11.23 -183.55)"/><path class="cls-2" d="M569.52,546.59h-3.13V531.43c0-3.75-3.54-6.81-7.9-6.81H517c-4.35,0-7.9,3.06-7.9,6.81v15.16h-3.13V531.43c0-5.48,4.95-9.94,11-9.94h41.53c6.08,0,11,4.46,11,9.94Z" transform="translate(-11.23 -183.55)"/><rect class="cls-3" x="506.26" y="281.37" width="41.35" height="58.13" rx="16.28"/><path class="cls-2" d="M542.56,524.62h-8.78a17.87,17.87,0,0,1-17.85-17.85V481.2a17.86,17.86,0,0,1,17.85-17.84h8.78a17.86,17.86,0,0,1,17.85,17.84v25.57A17.87,17.87,0,0,1,542.56,524.62Zm-8.78-58.14a14.73,14.73,0,0,0-14.72,14.72v25.57a14.73,14.73,0,0,0,14.72,14.72h8.78a14.73,14.73,0,0,0,14.72-14.72V481.2a14.73,14.73,0,0,0-14.72-14.72Z" transform="translate(-11.23 -183.55)"/><path class="cls-4" d="M558.84,509.64V482.07A16.23,16.23,0,0,0,553.45,470a22.29,22.29,0,0,1,.15,2.47V498s-1.23,8.13-3.23,11c-1.91-3.66-6.65-6.25-12.2-6.25s-10.29,2.59-12.2,6.25c-2-2.9-3.23-11-3.23-11V480.83a20.1,20.1,0,0,0,5.76-14.41c0-.2,0-.4,0-.6a16.28,16.28,0,0,0-11,15.38V522a5.62,5.62,0,0,0,5.62,5.61h.53a5.55,5.55,0,0,0,3.78-1.48,5.61,5.61,0,0,0,5.57,5h.54a5.6,5.6,0,0,0,4.67-2.51,5.63,5.63,0,0,0,4.68,2.51h.53a5.6,5.6,0,0,0,5.57-5,5.58,5.58,0,0,0,3.79,1.48h.53a5.61,5.61,0,0,0,5.61-5.61V510.47A5.57,5.57,0,0,0,558.84,509.64Z" transform="translate(-11.23 -183.55)"/><path class="cls-2" d="M543.41,532.62h-.53a7.16,7.16,0,0,1-4.68-1.73,7.11,7.11,0,0,1-4.67,1.73H533a7.17,7.17,0,0,1-6.48-4.09,7.2,7.2,0,0,1-2.87.6h-.53a7.18,7.18,0,0,1-7.18-7.17V481.2a17.86,17.86,0,0,1,12-16.86l2-.69.08,2.32c0,.15,0,.3,0,.45a21.77,21.77,0,0,1-5.76,15.05v16.45a51,51,0,0,0,1.93,8.09,17.34,17.34,0,0,1,23.87,0,50.09,50.09,0,0,0,1.94-8.09V472.46a19.89,19.89,0,0,0-.15-2.29l-.47-4.11,3.07,2.77a17.86,17.86,0,0,1,5.92,13.24v27.45a8.34,8.34,0,0,1,.07,1V522a7.18,7.18,0,0,1-7.18,7.17h-.53a7.25,7.25,0,0,1-2.88-.6A7.16,7.16,0,0,1,543.41,532.62Zm-5.21-6.9,1.3,2a4.05,4.05,0,0,0,3.38,1.82h.53a4,4,0,0,0,4-3.58l.35-3,2.26,2.07a4,4,0,0,0,2.73,1.06h.53a4.05,4.05,0,0,0,4.05-4V510.47a4.68,4.68,0,0,0-.05-.6l0-.23V482.07a14.7,14.7,0,0,0-2.11-7.56l0,23.76c-.13.87-1.35,8.58-3.5,11.69l-1.47,2.14-1.2-2.31c-1.69-3.23-6-5.41-10.81-5.41s-9.12,2.18-10.81,5.41l-1.2,2.31L524.68,510c-2.14-3.11-3.36-10.82-3.49-11.69l0-.23V480.17l.48-.46a18.28,18.28,0,0,0,5.21-11.49,14.71,14.71,0,0,0-7.8,13V522a4,4,0,0,0,4.05,4h.53a4,4,0,0,0,2.73-1.06l2.26-2.07.35,3a4,4,0,0,0,4,3.58h.54a4,4,0,0,0,3.37-1.82Z" transform="translate(-11.23 -183.55)"/><path class="cls-2" d="M549.9,480.79c-12.88,0-23-6.06-23-13.79h3.12c0,5.78,9.09,10.67,19.84,10.67a31.16,31.16,0,0,0,12.71-2.54l1.3,2.85A34,34,0,0,1,549.9,480.79Z" transform="translate(-11.23 -183.55)"/><path class="cls-4" d="M558.55,478.19a16.28,16.28,0,0,0-16-13.27h-8.78a16.34,16.34,0,0,0-5.17.85,7.21,7.21,0,0,0-.11,1.23c0,6.75,9.58,12.23,21.4,12.23A35.35,35.35,0,0,0,558.55,478.19Z" transform="translate(-11.23 -183.55)"/><path class="cls-2" d="M549.9,480.79c-12.88,0-23-6.06-23-13.79a8.44,8.44,0,0,1,.13-1.5l.16-.92.88-.29a17.78,17.78,0,0,1,5.67-.93h8.78a17.83,17.83,0,0,1,17.53,14.54l.27,1.44-1.42.36A36.7,36.7,0,0,1,549.9,480.79ZM530.06,467v0c0,5.78,9.09,10.67,19.84,10.67a33.92,33.92,0,0,0,6.76-.66,14.71,14.71,0,0,0-14.1-10.53h-8.78A14.67,14.67,0,0,0,530.06,467Z" transform="translate(-11.23 -183.55)"/><path class="cls-3" d="M541.69,500.38a3.44,3.44,0,0,1-3.44,3.44h0a3.44,3.44,0,0,1-3.44-3.44Z" transform="translate(-11.23 -183.55)"/><path class="cls-2" d="M538.25,505.38a5,5,0,0,1-5-5h3.13a1.88,1.88,0,0,0,3.75,0h3.13A5,5,0,0,1,538.25,505.38Z" transform="translate(-11.23 -183.55)"/><path class="cls-2" d="M534.33,487.69a3.86,3.86,0,0,0-5.45,0l-2.21-2.21a7,7,0,0,1,9.88,0Z" transform="translate(-11.23 -183.55)"/><rect class="cls-2" x="518.48" y="306.35" width="3.79" height="3.13"/><path class="cls-2" d="M547,487.69a3.86,3.86,0,0,0-5.45,0l-2.21-2.21a7,7,0,0,1,9.87,0Z" transform="translate(-11.23 -183.55)"/><rect class="cls-2" x="531.15" y="306.35" width="3.79" height="3.13"/><path class="cls-3" d="M534.24,511.82v1.52a2.91,2.91,0,0,0,2.91,2.91h2a2.91,2.91,0,0,0,2.91-2.91v-1.52Z" transform="translate(-11.23 -183.55)"/><path class="cls-2" d="M539.19,517.81h-2a4.48,4.48,0,0,1-4.48-4.47v-3.08h11v3.08A4.48,4.48,0,0,1,539.19,517.81Zm-3.39-4.43a1.35,1.35,0,0,0,1.35,1.31h2a1.36,1.36,0,0,0,1.35-1.31Z" transform="translate(-11.23 -183.55)"/></g><path class="cls-2" d="M538.54,546.34a47.3,47.3,0,1,1,47.3-47.3A47.36,47.36,0,0,1,538.54,546.34Zm0-91.47A44.17,44.17,0,1,0,582.71,499,44.21,44.21,0,0,0,538.54,454.87Z" transform="translate(-11.23 -183.55)"/><g class="cls-13"><path class="cls-4" d="M723.76,521v-5.72a11.07,11.07,0,0,1,11.07-11.07h15.93a11.06,11.06,0,0,1,11.06,11.07V521Z" transform="translate(-11.23 -183.55)"/><path class="cls-2" d="M762.9,521h-2.16v-5.72a10,10,0,0,0-10-10H734.83a10,10,0,0,0-10,10V521h-2.16v-5.72a12.16,12.16,0,0,1,12.15-12.15h15.93a12.16,12.16,0,0,1,12.14,12.15Z" transform="translate(-11.23 -183.55)"/><path class="cls-3" d="M742.79,512.05a5,5,0,0,1-4.95-4.95V480.59a5,5,0,0,1,4.95-4.95h0a5,5,0,0,1,5,4.95V507.1a5,5,0,0,1-5,4.95Z" transform="translate(-11.23 -183.55)"/><path class="cls-2" d="M742.79,513.13a6,6,0,0,1-6-6V480.59a6,6,0,0,1,12.07,0V507.1A6,6,0,0,1,742.79,513.13Zm0-36.41a3.88,3.88,0,0,0-3.87,3.87V507.1a3.88,3.88,0,0,0,7.75,0V480.59A3.88,3.88,0,0,0,742.79,476.72Z" transform="translate(-11.23 -183.55)"/><path class="cls-7" d="M763.55,481.81a7.68,7.68,0,0,0-5.21-7.21,4.34,4.34,0,0,0-4.31-5.51h-.11a15.58,15.58,0,0,0-26.38,8.1,7.53,7.53,0,0,0-.75,12.59,5.53,5.53,0,0,0-.52,2.31c0,3.49,3.34,6.31,7.47,6.31s7.48-2.82,7.48-6.31a5.75,5.75,0,0,0-.09-.93h11A4.56,4.56,0,1,0,760.3,488,7.56,7.56,0,0,0,763.55,481.81Z" transform="translate(-11.23 -183.55)"/><path class="cls-2" d="M733.74,499.49c-4.72,0-8.55-3.31-8.55-7.39a6.4,6.4,0,0,1,.31-2,8.6,8.6,0,0,1,1.07-13.59,16.67,16.67,0,0,1,27.8-8.51,5.49,5.49,0,0,1,5.21,5.43c0,.16,0,.32,0,.48a8.63,8.63,0,0,1,2.16,14.32,5.64,5.64,0,1,1-10.5,4H742.3C742.2,496.26,738.4,499.49,733.74,499.49Zm9.12-33.92A14.52,14.52,0,0,0,728.6,477.4l-.09.48-.42.25a6.45,6.45,0,0,0-.65,10.8l.7.53-.37.79a4.34,4.34,0,0,0-.42,1.85c0,2.88,2.87,5.23,6.39,5.23s6.4-2.35,6.4-5.23a3.47,3.47,0,0,0-.08-.74l-.22-1.27H753.1l.09,1a3.48,3.48,0,1,0,6.25-2.42l-.67-.88.91-.65a6.47,6.47,0,0,0,2.79-5.31,6.6,6.6,0,0,0-4.49-6.19l-1-.34.27-1a3.24,3.24,0,0,0,.12-.86,3.34,3.34,0,0,0-3.39-3.28l-.55,0-.32-.33A14.42,14.42,0,0,0,742.86,465.57Z" transform="translate(-11.23 -183.55)"/><path class="cls-3" d="M756.72,481.28v7.61c0,6.77-6.2,12.25-13.86,12.25h0c-7.65,0-13.85-5.48-13.85-12.25v-8.26l6-3.33,2.33-3.86,1.24-2.38,1.46,2.38,6,5.15,6,1.67,4.7.44Z" transform="translate(-11.23 -183.55)"/><path class="cls-3" d="M755.74,481.39a4.1,4.1,0,0,1,1.45-.26,4.23,4.23,0,0,1,0,8.45Z" transform="translate(-11.23 -183.55)"/><path class="cls-2" d="M757.19,490.66V488.5a3.15,3.15,0,0,0,0-6.29,3,3,0,0,0-1.08.19l-.74-2a5.31,5.31,0,1,1,1.82,10.29Z" transform="translate(-11.23 -183.55)"/><path class="cls-3" d="M729.81,489.58a4.23,4.23,0,0,1,0-8.45Z" transform="translate(-11.23 -183.55)"/><path class="cls-2" d="M729.81,490.66a5.31,5.31,0,0,1,0-10.61v2.16a3.15,3.15,0,0,0,0,6.29Z" transform="translate(-11.23 -183.55)"/><path class="cls-2" d="M742.86,502.22a15,15,0,0,1-14.93-14.93v-6.42h2.16v6.42a12.78,12.78,0,0,0,25.55,0v-6.42h2.16v6.42A15,15,0,0,1,742.86,502.22Z" transform="translate(-11.23 -183.55)"/><path class="cls-2" d="M742.89,496.79a10.93,10.93,0,0,1-4-.79l.8-2a8.68,8.68,0,0,0,7.35-.39l1,1.91A10.87,10.87,0,0,1,742.89,496.79Z" transform="translate(-11.23 -183.55)"/><path class="cls-2" d="M728.82,482.44l-.71-2a16.71,16.71,0,0,0,2.51-1.1,13.57,13.57,0,0,0,7.12-10.21l2.06-.31,2,4.23c2.64,5.72,9.48,7.42,15,7.11l.13,2.16c-6.24.35-14-1.66-17.1-8.37l-.66-1.41a15.6,15.6,0,0,1-7.51,8.71A18.23,18.23,0,0,1,728.82,482.44Z" transform="translate(-11.23 -183.55)"/><rect class="cls-2" x="725.02" y="300.01" width="2.52" height="2.16"/><rect class="cls-2" x="735.14" y="300.01" width="2.52" height="2.16"/><polygon class="cls-2" points="733.48 307.72 729.68 307.72 729.68 299.65 731.84 299.65 731.84 305.56 733.48 305.56 733.48 307.72"/></g><path class="cls-2" d="M744.09,519.67A32.68,32.68,0,1,1,776.77,487,32.72,32.72,0,0,1,744.09,519.67Zm0-63.2A30.52,30.52,0,1,0,774.6,487,30.55,30.55,0,0,0,744.09,456.47Z" transform="translate(-11.23 -183.55)"/><g class="cls-14"><path class="cls-9" d="M491.75,235a8.49,8.49,0,0,1-8.5,8.49h0a8.5,8.5,0,0,1-8.5-8.49v-2.84a8.5,8.5,0,0,1,8.5-8.49h0a8.49,8.49,0,0,1,8.5,8.49Z" transform="translate(-11.23 -183.55)"/><path class="cls-2" d="M483.25,244.44a9.51,9.51,0,0,1-9.5-9.49v-2.84a9.5,9.5,0,0,1,19,0V235A9.51,9.51,0,0,1,483.25,244.44Zm0-19.83a7.52,7.52,0,0,0-7.5,7.5V235a7.5,7.5,0,0,0,15,0v-2.84A7.51,7.51,0,0,0,483.25,224.61Z" transform="translate(-11.23 -183.55)"/><path class="cls-3" d="M493.26,232.28a3.63,3.63,0,1,1-3.59-3.05A3.35,3.35,0,0,1,493.26,232.28Z" transform="translate(-11.23 -183.55)"/><path class="cls-2" d="M489.67,236.33a4.08,4.08,0,1,1,4.59-4.05A4.35,4.35,0,0,1,489.67,236.33Zm0-6.1a2.11,2.11,0,1,0,2.59,2.05A2.37,2.37,0,0,0,489.67,230.23Z" transform="translate(-11.23 -183.55)"/><path class="cls-3" d="M477.89,257.36a4.59,4.59,0,0,1-4.58-4.59V228.24a4.58,4.58,0,0,1,4.58-4.58h0a4.58,4.58,0,0,1,4.58,4.58v24.53a4.59,4.59,0,0,1-4.58,4.59Z" transform="translate(-11.23 -183.55)"/><path class="cls-2" d="M477.89,258.36a5.59,5.59,0,0,1-5.58-5.59V228.24a5.58,5.58,0,0,1,11.16,0v24.53A5.59,5.59,0,0,1,477.89,258.36Zm0-33.7a3.59,3.59,0,0,0-3.58,3.58v24.53a3.58,3.58,0,1,0,7.16,0V228.24A3.58,3.58,0,0,0,477.89,224.66Z" transform="translate(-11.23 -183.55)"/><path class="cls-3" d="M489.22,230.9a11.89,11.89,0,0,1-11.89,11.89h0a11.88,11.88,0,0,1-11.88-11.89v-5A11.88,11.88,0,0,1,477.33,214h0a11.89,11.89,0,0,1,11.89,11.89Z" transform="translate(-11.23 -183.55)"/><path class="cls-2" d="M477.33,243.79a12.9,12.9,0,0,1-12.88-12.89v-5a12.89,12.89,0,1,1,25.77,0v5A12.9,12.9,0,0,1,477.33,243.79Zm0-28.79a10.9,10.9,0,0,0-10.88,10.89v5a10.89,10.89,0,1,0,21.77,0v-5A10.9,10.9,0,0,0,477.33,215Z" transform="translate(-11.23 -183.55)"/><path class="cls-3" d="M474.69,237.14a2.83,2.83,0,0,0,5.13,0Z" transform="translate(-11.23 -183.55)"/><path class="cls-2" d="M477.25,239.78a4,4,0,0,1-3.42-2.14l1.73-1a1.83,1.83,0,0,0,3.39,0l1.73,1A4,4,0,0,1,477.25,239.78Z" transform="translate(-11.23 -183.55)"/><path class="cls-4" d="M463.46,262.67v-9.39a4,4,0,0,1,4-3.95h20.5a4,4,0,0,1,3.95,3.95v9.39Z" transform="translate(-11.23 -183.55)"/><path class="cls-2" d="M492.86,262.67h-2v-9.39a3,3,0,0,0-2.95-2.95h-20.5a3,3,0,0,0-3,2.95v9.39h-2v-9.39a5,5,0,0,1,5-4.95h20.5a5,5,0,0,1,4.95,4.95Z" transform="translate(-11.23 -183.55)"/><path class="cls-2" d="M483.39,231.55a4.08,4.08,0,0,1-2.9-1.2l1.41-1.41a2.13,2.13,0,0,0,1.49.61,2.09,2.09,0,0,0,1.48-.61l1.42,1.41A4.11,4.11,0,0,1,483.39,231.55Z" transform="translate(-11.23 -183.55)"/><path class="cls-9" d="M462.59,228.47v15.47h2.17c6.62,0,12-8.87,12-15.49v-15A15,15,0,0,0,462.59,228.47Z" transform="translate(-11.23 -183.55)"/><path class="cls-2" d="M464.76,244.94h-3.17V228.47a16,16,0,0,1,15.11-16l1.05-.06v16C477.75,235.87,471.76,244.94,464.76,244.94Zm-1.17-2h1.17c5.82,0,11-8.1,11-14.49V214.57a14,14,0,0,0-12.16,13.9Z" transform="translate(-11.23 -183.55)"/><path class="cls-2" d="M460.27,244.94h-2v-2h2c5.6,0,10.15-4.93,10.15-11h2C472.42,239.11,467,244.94,460.27,244.94Z" transform="translate(-11.23 -183.55)"/><path class="cls-9" d="M477.92,213.48v1.1a17.21,17.21,0,0,0,14.16,14.79v-.9A15,15,0,0,0,477.92,213.48Z" transform="translate(-11.23 -183.55)"/><path class="cls-2" d="M493.08,230.55l-1.16-.2a18.28,18.28,0,0,1-15-15.64v-2.29l1.06.06a16,16,0,0,1,15.1,16Zm-14.15-16a16.28,16.28,0,0,0,12.15,13.57A14,14,0,0,0,478.93,214.57Z" transform="translate(-11.23 -183.55)"/><rect class="cls-4" x="460.96" y="63.06" width="11.33" height="6.5" rx="1"/><path class="cls-2" d="M482.52,254.11h-9.33a2,2,0,0,1-2-2v-4.5a2,2,0,0,1,2-2h9.33a2,2,0,0,1,2,2v4.5A2,2,0,0,1,482.52,254.11Zm-9.33-6.5v4.5h9.33v-4.5Z" transform="translate(-11.23 -183.55)"/><rect class="cls-2" x="463.52" y="65.39" width="2" height="3.83"/></g><path class="cls-2" d="M478.47,263.79a30.25,30.25,0,1,1,30.25-30.24A30.28,30.28,0,0,1,478.47,263.79Zm0-58.49a28.25,28.25,0,1,0,28.25,28.25A28.28,28.28,0,0,0,478.47,205.3Z" transform="translate(-11.23 -183.55)"/><g class="cls-15"><path class="cls-11" d="M738.24,279.4V267.64a8.33,8.33,0,0,1,8.34-8.34h24.68a8.34,8.34,0,0,1,8.34,8.34V279.4Z" transform="translate(-11.23 -183.55)"/><path class="cls-2" d="M781,279.4h-2.78V267.64a7,7,0,0,0-7-6.95H746.58a7,7,0,0,0-7,6.95V279.4h-2.78V267.64a9.73,9.73,0,0,1,9.73-9.73h24.68a9.74,9.74,0,0,1,9.73,9.73Z" transform="translate(-11.23 -183.55)"/><polygon class="cls-3" points="754.76 80.7 747.69 84.78 740.62 80.7 740.62 65.27 747.69 65.27 754.76 65.27 754.76 80.7"/><path class="cls-2" d="M758.92,269.94l-8.46-4.89V247.42h16.92v17.63Zm-5.68-6.49,5.68,3.28,5.68-3.28V250.2H753.24Z" transform="translate(-11.23 -183.55)"/><path class="cls-3" d="M734.93,50.83h.27a3.26,3.26,0,0,1,3.26,3.26v3.2a3.26,3.26,0,0,1-3.26,3.26h-.27a3.26,3.26,0,0,1-3.26-3.26v-3.2A3.27,3.27,0,0,1,734.93,50.83Z"/><path class="cls-2" d="M746.44,245.5h-.28a4.66,4.66,0,0,1-4.65-4.66v-3.2a4.66,4.66,0,0,1,4.65-4.66h.28a4.66,4.66,0,0,1,4.65,4.66v3.2A4.66,4.66,0,0,1,746.44,245.5Zm-.28-9.74a1.88,1.88,0,0,0-1.87,1.88v3.2a1.88,1.88,0,0,0,1.87,1.88h.28a1.88,1.88,0,0,0,1.87-1.88v-3.2a1.88,1.88,0,0,0-1.87-1.88Z" transform="translate(-11.23 -183.55)"/><path class="cls-3" d="M768.3,50.83h.27a3.26,3.26,0,0,1,3.26,3.26v3.2a3.26,3.26,0,0,1-3.26,3.26h-.27A3.26,3.26,0,0,1,765,57.29v-3.2A3.27,3.27,0,0,1,768.3,50.83Z"/><path class="cls-2" d="M779.8,245.5h-.27a4.66,4.66,0,0,1-4.65-4.66v-3.2a4.66,4.66,0,0,1,4.65-4.66h.27a4.66,4.66,0,0,1,4.66,4.66v3.2A4.66,4.66,0,0,1,779.8,245.5Zm-.27-9.74a1.88,1.88,0,0,0-1.87,1.88v3.2a1.88,1.88,0,0,0,1.87,1.88h.27a1.88,1.88,0,0,0,1.88-1.88v-3.2a1.88,1.88,0,0,0-1.88-1.88Z" transform="translate(-11.23 -183.55)"/><rect class="cls-3" x="735.15" y="29.93" width="32.67" height="41.36" rx="8.34"/><path class="cls-2" d="M770.71,256.23h-16A9.74,9.74,0,0,1,745,246.5V221.82a9.73,9.73,0,0,1,9.73-9.73h16a9.74,9.74,0,0,1,9.73,9.73V246.5A9.75,9.75,0,0,1,770.71,256.23Zm-16-41.36a7,7,0,0,0-7,6.95V246.5a7,7,0,0,0,7,6.95h16a7,7,0,0,0,6.95-6.95V221.82a7,7,0,0,0-6.95-6.95Z" transform="translate(-11.23 -183.55)"/><path class="cls-3" d="M752.4,240.07v6a2.75,2.75,0,0,0,2.75,2.74h6Z" transform="translate(-11.23 -183.55)"/><path class="cls-2" d="M764.5,250.2h-9.35a4.14,4.14,0,0,1-4.14-4.13v-9.36Zm-10.71-6.78v2.65a1.36,1.36,0,0,0,1.36,1.35h2.64Z" transform="translate(-11.23 -183.55)"/><path class="cls-2" d="M757.89,234a6.18,6.18,0,0,1-4.39-1.81l2-2a3.43,3.43,0,0,0,4.85,0l2,2A6.18,6.18,0,0,1,757.89,234Z" transform="translate(-11.23 -183.55)"/><path class="cls-2" d="M772.72,234a6.18,6.18,0,0,1-4.39-1.81l2-2a3.43,3.43,0,0,0,4.85,0l2,2A6.18,6.18,0,0,1,772.72,234Z" transform="translate(-11.23 -183.55)"/><path class="cls-10" d="M757.56,206.35a11.33,11.33,0,0,0-11,8.56,8.34,8.34,0,0,0-3.67,6.91v13.86h.73a8.33,8.33,0,0,0,8.34-8.34v-4a8.43,8.43,0,0,0,2.57.41h21.9a8.33,8.33,0,0,0,8.34-8.34v-9Z" transform="translate(-11.23 -183.55)"/><path class="cls-2" d="M743.63,237.07h-2.12V221.82a9.73,9.73,0,0,1,3.85-7.75,12.72,12.72,0,0,1,12.2-9.11h28.61v10.43a9.74,9.74,0,0,1-9.73,9.73h-21.9a9.45,9.45,0,0,1-1.18-.07v2.29A9.73,9.73,0,0,1,743.63,237.07Zm13.93-29.33a10,10,0,0,0-9.65,7.51l-.13.51-.43.3a6.94,6.94,0,0,0-3.06,5.76v12.44a7,7,0,0,0,6.29-6.92v-5.93l1.82.59a7.24,7.24,0,0,0,2.14.34h21.9a7,7,0,0,0,6.95-7v-7.65Z" transform="translate(-11.23 -183.55)"/><path class="cls-2" d="M769.7,244.06v-2.78a1.39,1.39,0,1,0-1.39-1.39h-2.78a4.18,4.18,0,1,1,4.17,4.17Z" transform="translate(-11.23 -183.55)"/><rect class="cls-2" x="753.95" y="40.36" width="2.78" height="15.99"/></g><path class="cls-2" d="M765.12,276.54a42.06,42.06,0,1,1,42.06-42.06A42.11,42.11,0,0,1,765.12,276.54Zm0-81.33a39.28,39.28,0,1,0,39.28,39.27A39.32,39.32,0,0,0,765.12,195.21Z" transform="translate(-11.23 -183.55)"/></g></svg>