<svg xmlns="http://www.w3.org/2000/svg" viewBox="0 0 570 522.72"><defs><style>.cls-1{fill:#ffcb05;}.cls-2{fill:#fff;}.cls-3{fill:none;}.cls-4{fill:#1b2c38;}.cls-5{fill:#27c7cd;}.cls-6{fill:#f7f8fc;}.cls-7{fill:#636c78;}</style></defs><title>05-slide</title><g id="Layer_4" data-name="Layer 4"><path class="cls-1" d="M764.13,430.33a46.53,46.53,0,1,1-46.53-46.52A46.53,46.53,0,0,1,764.13,430.33Z" transform="translate(-217.54 -40.91)"/><path class="cls-2" d="M746,430.33A28.39,28.39,0,1,1,717.6,402,28.39,28.39,0,0,1,746,430.33Z" transform="translate(-217.54 -40.91)"/><path class="cls-3" d="M717.6,403.55a26.78,26.78,0,1,0,26.78,26.78A26.8,26.8,0,0,0,717.6,403.55Z" transform="translate(-217.54 -40.91)"/><path class="cls-4" d="M717.6,400.34a30,30,0,1,0,30,30A30,30,0,0,0,717.6,400.34Zm0,56.77a26.78,26.78,0,1,1,26.78-26.78A26.81,26.81,0,0,1,717.6,457.11Z" transform="translate(-217.54 -40.91)"/><path class="cls-3" d="M717.6,401.33c-26.29,0-50.71,10.6-65.34,28.36l-.53.64.53.64c14.62,17.75,39,28.35,65.34,28.35S768.33,448.72,783,431l.53-.64-.53-.64C768.33,411.93,743.9,401.33,717.6,401.33Z" transform="translate(-217.54 -40.91)"/><path class="cls-4" d="M717.6,398.12c-28.21,0-54.07,11.68-69.18,31.23l-.75,1,.75,1c15.11,19.55,41,31.22,69.18,31.22s54.08-11.67,69.19-31.22l.75-1-.75-1C771.68,409.8,745.82,398.12,717.6,398.12ZM783,431c-14.62,17.75-39.05,28.35-65.35,28.35s-50.72-10.6-65.34-28.35l-.53-.64.53-.64c14.63-17.76,39-28.36,65.34-28.36s50.73,10.6,65.35,28.36l.53.64Z" transform="translate(-217.54 -40.91)"/><path class="cls-4" d="M747.41,379.07l-1.57,2.8c.91.53,1.82,1.09,2.7,1.68l1.82-2.64C749.39,380.27,748.41,379.65,747.41,379.07Z" transform="translate(-217.54 -40.91)"/><path class="cls-4" d="M684.88,380.89l1.82,2.64c.88-.58,1.79-1.15,2.7-1.68l-1.56-2.8C686.84,379.63,685.85,380.25,684.88,380.89Z" transform="translate(-217.54 -40.91)"/><path class="cls-4" d="M694.54,375.7l1.3,2.93c1-.41,2-.8,3-1.15l-1-3.05C696.69,374.82,695.61,375.24,694.54,375.7Z" transform="translate(-217.54 -40.91)"/><path class="cls-4" d="M671.3,393.31q-1.08,1.37-2.1,2.79l2.65,1.81q.93-1.31,1.92-2.55Z" transform="translate(-217.54 -40.91)"/><path class="cls-4" d="M676.34,387.77l2.27,2.27c.77-.75,1.55-1.46,2.35-2.16l-2.05-2.46C678,386.17,677.17,387,676.34,387.77Z" transform="translate(-217.54 -40.91)"/><path class="cls-4" d="M766,396.13c-.67-.95-1.37-1.88-2.09-2.79l-2.47,2.05c.66.83,1.3,1.68,1.91,2.54Z" transform="translate(-217.54 -40.91)"/><path class="cls-4" d="M708.87,374.92l-.44-3.17c-1.15.17-2.3.39-3.43.63l.73,3.13C706.77,375.28,707.82,375.09,708.87,374.92Z" transform="translate(-217.54 -40.91)"/><path class="cls-4" d="M717.29,371l-1.4,0,.15,3.21c.52,0,1,0,1.57,0h0l1.6,0,.15-3.21-1.73,0Z" transform="translate(-217.54 -40.91)"/><path class="cls-4" d="M737.46,374.45l-1,3c1,.36,2,.74,3,1.16l1.31-2.94C739.64,375.26,738.55,374.84,737.46,374.45Z" transform="translate(-217.54 -40.91)"/><path class="cls-4" d="M756.33,385.44l-2.06,2.47c.81.69,1.59,1.41,2.35,2.15l2.28-2.27C758.06,387,757.2,386.2,756.33,385.44Z" transform="translate(-217.54 -40.91)"/><path class="cls-4" d="M726.39,374.93c1.05.17,2.1.36,3.13.59l.74-3.13c-1.13-.24-2.28-.46-3.43-.64Z" transform="translate(-217.54 -40.91)"/><path class="cls-4" d="M686.67,477.11l-1.82,2.64c1,.64,1.95,1.26,2.95,1.84l1.57-2.8C688.46,478.26,687.55,477.69,686.67,477.11Z" transform="translate(-217.54 -40.91)"/><path class="cls-4" d="M695.8,482,694.5,485c1.07.45,2.15.87,3.25,1.26l1-3C697.77,482.81,696.78,482.43,695.8,482Z" transform="translate(-217.54 -40.91)"/><path class="cls-4" d="M705,488.26c1.13.25,2.28.46,3.42.64l.45-3.18c-1.05-.16-2.1-.36-3.13-.58Z" transform="translate(-217.54 -40.91)"/><path class="cls-4" d="M678.59,470.6l-2.28,2.26c.84.81,1.7,1.6,2.57,2.36l2.06-2.47C680.13,472.06,679.35,471.34,678.59,470.6Z" transform="translate(-217.54 -40.91)"/><path class="cls-4" d="M673.75,465.27q-1-1.25-1.92-2.55l-2.65,1.81c.67,1,1.37,1.88,2.1,2.78Z" transform="translate(-217.54 -40.91)"/><path class="cls-4" d="M736.4,483.18l1,3c1.09-.38,2.18-.81,3.25-1.26l-1.3-2.93C738.39,482.44,737.4,482.82,736.4,483.18Z" transform="translate(-217.54 -40.91)"/><path class="cls-4" d="M754.25,472.77l2,2.47c.88-.76,1.74-1.54,2.57-2.35l-2.27-2.27C755.84,471.36,755.05,472.08,754.25,472.77Z" transform="translate(-217.54 -40.91)"/><path class="cls-4" d="M745.81,478.81l1.56,2.8c1-.59,2-1.2,3-1.84l-1.82-2.65C747.63,477.71,746.72,478.27,745.81,478.81Z" transform="translate(-217.54 -40.91)"/><path class="cls-4" d="M730.21,488.27l-.73-3.12c-1,.22-2.09.42-3.14.58l.44,3.18C727.92,488.73,729.07,488.52,730.21,488.27Z" transform="translate(-217.54 -40.91)"/><path class="cls-4" d="M763.36,462.75c-.62.87-1.26,1.72-1.92,2.54l2.47,2c.72-.9,1.42-1.83,2.1-2.78Z" transform="translate(-217.54 -40.91)"/><path class="cls-4" d="M719.17,486.39l-1.57,0h0l-1.11,0H716l-.14,3.21q.85,0,1.71,0l1.77,0Z" transform="translate(-217.54 -40.91)"/><path class="cls-4" d="M719.67,415h-4.13a6.77,6.77,0,0,0-6.76,6.76v3.51c0,1.38.62,3.41,3.58,5.32l7.29,2.84,1.14-3L714,427.81l-.1-.06c-.89-.6-1.94-1.52-1.94-2.52v-3.51a3.56,3.56,0,0,1,3.55-3.55h4.13a3.56,3.56,0,0,1,3.55,3.55v.64h3.21v-.64A6.77,6.77,0,0,0,719.67,415Z" transform="translate(-217.54 -40.91)"/><path class="cls-4" d="M722.76,431.22l-6.92-2.71-1.15,3L721.1,434l.09.06c1.29.87,2,1.82,2,2.6v3.51a3.55,3.55,0,0,1-3.55,3.55h-4.13a3.55,3.55,0,0,1-3.55-3.55v-.63h-3.21v.63a6.76,6.76,0,0,0,6.76,6.76h4.13a6.76,6.76,0,0,0,6.76-6.76v-3.51C726.43,435.24,725.79,433.17,722.76,431.22Z" transform="translate(-217.54 -40.91)"/><rect class="cls-4" x="498.77" y="369.61" width="3.21" height="5.69"/><rect class="cls-4" x="498.77" y="404.15" width="3.21" height="5.69"/></g><g id="Layer_7" data-name="Layer 7"><polygon class="cls-1" points="115.58 438.23 93.34 451.07 71.09 463.92 71.09 438.23 71.09 412.54 93.34 425.38 115.58 438.23"/><path class="cls-4" d="M279.25,458.81c-.35-.7-.69-1.41-1-2.12l-2.17,1q.53,1.14,1.08,2.25Z" transform="translate(-217.54 -40.91)"/><path class="cls-4" d="M299.79,481.22l-1.27,2c.7.43,1.41.85,2.14,1.26l1.14-2.08C301.13,482,300.45,481.63,299.79,481.22Z" transform="translate(-217.54 -40.91)"/><path class="cls-4" d="M294.38,477.41l-1.5,1.84c.65.51,1.31,1,2,1.51l1.38-1.93C295.62,478.37,295,477.89,294.38,477.41Z" transform="translate(-217.54 -40.91)"/><path class="cls-4" d="M289.46,473l-1.71,1.65c.58.59,1.18,1.17,1.79,1.74l1.6-1.76C290.57,474.08,290,473.53,289.46,473Z" transform="translate(-217.54 -40.91)"/><path class="cls-4" d="M317.66,490.81c.81.16,1.63.31,2.45.44l.35-2.35c-.77-.12-1.54-.26-2.31-.41Z" transform="translate(-217.54 -40.91)"/><rect class="cls-4" x="167.65" y="376.45" width="2.37" height="2.42"/><path class="cls-4" d="M286.57,469.83c-.51-.6-1-1.21-1.49-1.82l-1.88,1.44c.51.65,1,1.3,1.57,1.93Z" transform="translate(-217.54 -40.91)"/><path class="cls-4" d="M311.75,486.8l-.76,2.25c.79.26,1.59.5,2.38.73l.62-2.29C313.24,487.27,312.49,487,311.75,486.8Z" transform="translate(-217.54 -40.91)"/><rect class="cls-4" x="53.34" y="383.15" width="2.37" height="2.42"/><path class="cls-4" d="M324.5,491.77c.82.06,1.65.11,2.48.14l.07-2.37c-.78,0-1.57-.08-2.34-.14Z" transform="translate(-217.54 -40.91)"/><polygon class="cls-4" points="55.71 392.33 55.71 389.92 53.34 389.92 53.34 392.34 55.71 392.33"/><rect class="cls-4" x="53.34" y="376.39" width="2.37" height="2.42"/><path class="cls-4" d="M273.6,439.85q-.12-1.17-.21-2.34l-2.37.15c.06.82.14,1.65.23,2.47Z" transform="translate(-217.54 -40.91)"/><path class="cls-4" d="M282.58,464.53c-.43-.64-.85-1.31-1.26-2l-2,1.21c.43.71.88,1.41,1.34,2.1Z" transform="translate(-217.54 -40.91)"/><path class="cls-4" d="M276.62,452.72c-.27-.73-.53-1.48-.76-2.22l-2.27.69c.25.79.52,1.58.8,2.36Z" transform="translate(-217.54 -40.91)"/><path class="cls-4" d="M274.73,446.37c-.18-.76-.34-1.52-.49-2.29l-2.34.42c.16.82.33,1.63.52,2.43Z" transform="translate(-217.54 -40.91)"/><path class="cls-4" d="M305.6,484.37l-1,2.14c.74.35,1.51.68,2.27,1l.89-2.2C307,485,306.31,484.69,305.6,484.37Z" transform="translate(-217.54 -40.91)"/><path class="cls-4" d="M382.57,450.56c-.24.74-.49,1.48-.76,2.22l2.22.83c.29-.77.56-1.56.81-2.35Z" transform="translate(-217.54 -40.91)"/><path class="cls-4" d="M377.1,462.57q-.6,1-1.26,2l2,1.33c.46-.68.9-1.39,1.33-2.09Z" transform="translate(-217.54 -40.91)"/><path class="cls-4" d="M380.19,456.73c-.32.71-.66,1.41-1,2.11l2.11,1.09c.37-.74.73-1.49,1.07-2.24Z" transform="translate(-217.54 -40.91)"/><path class="cls-4" d="M384.2,444.14c-.15.77-.31,1.54-.49,2.3L386,447c.19-.8.36-1.62.51-2.43Z" transform="translate(-217.54 -40.91)"/><path class="cls-4" d="M384.84,439.92l2.36.28c.09-.82.17-1.65.23-2.47l-2.37-.15C385,438.36,384.93,439.14,384.84,439.92Z" transform="translate(-217.54 -40.91)"/><rect class="cls-4" x="167.65" y="383.22" width="2.37" height="2.42"/><rect class="cls-4" x="385.18" y="430.91" width="2.42" height="2.37" transform="translate(-264.33 776.38) rotate(-89.84)"/><path class="cls-4" d="M356.6,482.42l1.15,2.08c.71-.41,1.43-.83,2.14-1.27l-1.27-2C358,481.64,357.28,482,356.6,482.42Z" transform="translate(-217.54 -40.91)"/><path class="cls-4" d="M373.34,468c-.48.61-1,1.22-1.48,1.82l1.79,1.55c.54-.63,1.06-1.27,1.57-1.93Z" transform="translate(-217.54 -40.91)"/><path class="cls-4" d="M350.64,485.32l.89,2.2c.77-.32,1.54-.65,2.28-1l-1-2.15C352.08,484.7,351.36,485,350.64,485.32Z" transform="translate(-217.54 -40.91)"/><path class="cls-4" d="M337.92,488.91l.34,2.34c.82-.13,1.64-.27,2.45-.43l-.49-2.33C339.46,488.65,338.69,488.78,337.92,488.91Z" transform="translate(-217.54 -40.91)"/><path class="cls-4" d="M344.38,487.49l.63,2.29c.79-.22,1.59-.46,2.37-.72l-.75-2.25C345.88,487.05,345.13,487.28,344.38,487.49Z" transform="translate(-217.54 -40.91)"/><path class="cls-4" d="M333.88,491.77l-.21-2.36c-.78.06-1.56.1-2.34.13l.06,2.37C332.23,491.88,333.06,491.83,333.88,491.77Z" transform="translate(-217.54 -40.91)"/><path class="cls-4" d="M367.28,474.62l1.6,1.75c.61-.56,1.2-1.14,1.79-1.73L369,473C368.41,473.54,367.85,474.09,367.28,474.62Z" transform="translate(-217.54 -40.91)"/><path class="cls-4" d="M362.17,478.83l1.38,1.93c.67-.49,1.33-1,2-1.51L364,477.41C363.43,477.89,362.8,478.37,362.17,478.83Z" transform="translate(-217.54 -40.91)"/><rect class="cls-4" x="167.17" y="370.85" width="3.34" height="1.67"/><path class="cls-4" d="M398.12,432.91a69,69,0,0,1-68.44,68.94v2.38a71.41,71.41,0,0,0,70.82-71.32V406.65h-2.38Z" transform="translate(-217.54 -40.91)"/><path class="cls-4" d="M250.32,320.74a22.85,22.85,0,0,0-22.81,22.84V362h2.37v-18.4a20.45,20.45,0,1,1,40.9,0v68.6h2.38v-68.6A22.86,22.86,0,0,0,250.32,320.74Z" transform="translate(-217.54 -40.91)"/><path class="cls-2" d="M260,347.22l.74-.75a6.93,6.93,0,0,0,0-9.81l-.1-.1a6.93,6.93,0,0,0-9.81,0l-.74.75-.75-.75a6.92,6.92,0,0,0-9.8,0l-.11.1a6.93,6.93,0,0,0,0,9.81l.75.75,9.91,9.91Z" transform="translate(-217.54 -40.91)"/></g><g id="Layer_5" data-name="Layer 5"><path class="cls-5" d="M316,192.9a29.4,29.4,0,0,1-58.06,0Z" transform="translate(-217.54 -40.91)"/><path class="cls-4" d="M297.91,148.32l-.68-.18v-18h2.6V113.24h-25.9v16.91h2.6v18l-.67.18a41.83,41.83,0,0,0-25,19.39,42.53,42.53,0,0,0-2,3.87l2.6,1.08a36.83,36.83,0,0,1,1.79-3.55,38.8,38.8,0,0,1,24.93-18.49l1.09-.25v-23h-2.6V116.05H297v11.29h-2.61v23l1.09.25a38.65,38.65,0,1,1-17.95,75.18l-.75,2.71a42,42,0,0,0,10.07,1.23,41.5,41.5,0,0,0,41.45-41.46A41,41,0,0,0,297.91,148.32Z" transform="translate(-217.54 -40.91)"/><rect class="cls-4" x="66.95" y="117.63" width="2.81" height="2.71"/><rect class="cls-4" x="293.7" y="163.55" width="2.72" height="2.81" transform="translate(-260.48 128.9) rotate(-30.03)"/><rect class="cls-4" x="293.86" y="174.05" width="2.81" height="2.72" transform="translate(-221.74 302.64) rotate(-60.03)"/><rect class="cls-4" x="67.35" y="138.55" width="2.81" height="2.71"/><rect class="cls-4" x="275.78" y="174.35" width="2.71" height="2.81" transform="translate(-268.29 121.2) rotate(-30)"/><rect class="cls-4" x="275.54" y="163.94" width="2.81" height="2.72" transform="translate(-222.13 281.75) rotate(-60.03)"/><path class="cls-3" d="M246.68,182.13A26.34,26.34,0,1,0,273,208.46,26.36,26.36,0,0,0,246.68,182.13Z" transform="translate(-217.54 -40.91)"/><path class="cls-4" d="M246.68,179.33a29.14,29.14,0,1,0,29.15,29.13A29.17,29.17,0,0,0,246.68,179.33Zm0,55.47A26.34,26.34,0,1,1,273,208.46,26.37,26.37,0,0,1,246.68,234.8Z" transform="translate(-217.54 -40.91)"/><path class="cls-1" d="M246.68,229a20.56,20.56,0,1,1,20.56-20.56A20.58,20.58,0,0,1,246.68,229Z" transform="translate(-217.54 -40.91)"/><path class="cls-4" d="M248.4,195.4H245a5.68,5.68,0,0,0-5.68,5.68V204c0,1.16.52,2.87,3,4.47l6,2.33,1-2.62-5.52-2.11-.09-.06c-.71-.48-1.56-1.22-1.56-2v-2.91A2.88,2.88,0,0,1,245,198.2h3.43a2.88,2.88,0,0,1,2.87,2.88v.43h2.81v-.43A5.68,5.68,0,0,0,248.4,195.4Z" transform="translate(-217.54 -40.91)"/><path class="cls-4" d="M251,208.9l-5.68-2.23-1,2.62,5.23,2,.08.06c.5.33,1.64,1.2,1.64,2.08v2.91a2.87,2.87,0,0,1-2.87,2.87H245a2.87,2.87,0,0,1-2.87-2.87v-.43h-2.81v.43A5.68,5.68,0,0,0,245,222h3.43a5.68,5.68,0,0,0,5.68-5.68v-2.91C254.08,212.27,253.54,210.54,251,208.9Z" transform="translate(-217.54 -40.91)"/><rect class="cls-4" x="28" y="150.97" width="2.81" height="4.54"/><rect class="cls-4" x="28" y="179.61" width="2.81" height="4.54"/></g><g id="Layer_2" data-name="Layer 2"><polygon class="cls-4" points="347.36 277.58 377.65 248.5 376.13 246.93 347.02 274.87 317.18 257.82 287.47 288.74 289.04 290.25 317.58 260.56 347.36 277.58"/><path class="cls-2" d="M511.19,331.13A6.09,6.09,0,1,1,505.1,325,6.09,6.09,0,0,1,511.19,331.13Z" transform="translate(-217.54 -40.91)"/><path class="cls-4" d="M505.1,339.31a8.18,8.18,0,1,1,8.18-8.18A8.19,8.19,0,0,1,505.1,339.31Zm0-12.17a4,4,0,1,0,4,4A4,4,0,0,0,505.1,327.14Z" transform="translate(-217.54 -40.91)"/><path class="cls-4" d="M505.1,338.3a7.18,7.18,0,1,1,7.18-7.17A7.18,7.18,0,0,1,505.1,338.3Zm0-12.16a5,5,0,1,0,5,5A5,5,0,0,0,505.1,326.14Z" transform="translate(-217.54 -40.91)"/><path class="cls-2" d="M541,300.09a6.09,6.09,0,1,1-6.08-6.08A6.08,6.08,0,0,1,541,300.09Z" transform="translate(-217.54 -40.91)"/><path class="cls-4" d="M534.92,308.27a8.18,8.18,0,1,1,8.18-8.18A8.19,8.19,0,0,1,534.92,308.27Zm0-12.16a4,4,0,1,0,4,4A4,4,0,0,0,534.92,296.11Z" transform="translate(-217.54 -40.91)"/><path class="cls-4" d="M534.92,307.27a7.18,7.18,0,1,1,7.18-7.18A7.19,7.19,0,0,1,534.92,307.27Zm0-12.17a5,5,0,1,0,5,5A5,5,0,0,0,534.92,295.1Z" transform="translate(-217.54 -40.91)"/><path class="cls-2" d="M570.82,317.13a6.09,6.09,0,1,1-6.09-6.08A6.09,6.09,0,0,1,570.82,317.13Z" transform="translate(-217.54 -40.91)"/><path class="cls-3" d="M564.73,312.14a5,5,0,1,0,5,5A5,5,0,0,0,564.73,312.14Z" transform="translate(-217.54 -40.91)"/><path class="cls-4" d="M571.91,317.13a7.18,7.18,0,1,0-7.18,7.18A7.19,7.19,0,0,0,571.91,317.13Zm-7.18,5a5,5,0,1,1,5-5A5,5,0,0,1,564.73,322.13Z" transform="translate(-217.54 -40.91)"/><path class="cls-2" d="M601.24,287.93a6.09,6.09,0,1,1-6.08-6.09A6.08,6.08,0,0,1,601.24,287.93Z" transform="translate(-217.54 -40.91)"/><path class="cls-4" d="M595.16,296.11a8.19,8.19,0,1,1,8.18-8.18A8.19,8.19,0,0,1,595.16,296.11Zm0-12.17a4,4,0,1,0,4,4A4,4,0,0,0,595.16,283.94Z" transform="translate(-217.54 -40.91)"/><path class="cls-4" d="M595.16,295.1a7.18,7.18,0,1,1,7.17-7.17A7.18,7.18,0,0,1,595.16,295.1Zm0-12.17a5,5,0,1,0,5,5A5,5,0,0,0,595.16,282.93Z" transform="translate(-217.54 -40.91)"/><path class="cls-1" d="M640.13,221.22h-26.4V137.73a70.36,70.36,0,1,0-140.72,0V267.66h-26.4V137.73a96.76,96.76,0,1,1,193.52,0Z" transform="translate(-217.54 -40.91)"/><path class="cls-4" d="M587.78,65.63l-1.13,1.87c1.72,1.07,3.42,2.21,5.05,3.39L593,69.14C591.31,67.91,589.56,66.73,587.78,65.63Z" transform="translate(-217.54 -40.91)"/><path class="cls-4" d="M601,75.69l-1.47,1.62c1.48,1.38,2.92,2.83,4.3,4.31l1.62-1.47C604,78.61,602.5,77.12,601,75.69Z" transform="translate(-217.54 -40.91)"/><rect class="cls-4" x="408.29" y="159.32" width="2.19" height="6.19"/><path class="cls-4" d="M572.88,58.33l-.74,2.05c1.9.71,3.78,1.5,5.62,2.34l.94-2C576.79,59.87,574.84,59.06,572.88,58.33Z" transform="translate(-217.54 -40.91)"/><path class="cls-4" d="M622.74,108.25c-.73-2-1.54-3.91-2.41-5.81l-2,.94c.85,1.84,1.63,3.72,2.33,5.61Z" transform="translate(-217.54 -40.91)"/><path class="cls-4" d="M556.52,56.25c2,.32,4,.72,6,1.19l.53-2.12c-2-.49-4.11-.9-6.17-1.23Z" transform="translate(-217.54 -40.91)"/><path class="cls-4" d="M610.2,89.42q1.78,2.46,3.39,5.06l1.87-1.13c-1.1-1.78-2.27-3.54-3.5-5.23Z" transform="translate(-217.54 -40.91)"/><path class="cls-4" d="M627,124.3c-.34-2.08-.75-4.15-1.23-6.18l-2.12.53c.47,2,.86,4,1.18,6Z" transform="translate(-217.54 -40.91)"/><path class="cls-4" d="M628,140.8v-3.07c0-1,0-2.11-.06-3.17l-2.18.1c0,1,.05,2.06.05,3.07v3.07Z" transform="translate(-217.54 -40.91)"/><rect class="cls-4" x="408.29" y="142.92" width="2.19" height="6.2"/><rect class="cls-4" x="408.29" y="126.51" width="2.19" height="6.19"/><rect class="cls-4" x="408.29" y="110.11" width="2.19" height="6.2"/><rect class="cls-4" x="407.29" y="174.76" width="4.19" height="4.19"/><rect class="cls-4" x="408.29" y="175.76" width="2.19" height="2.19"/><path class="cls-1" d="M551.49,312.84a90.95,90.95,0,1,0-90.95,90.94A90.94,90.94,0,0,0,551.49,312.84Z" transform="translate(-217.54 -40.91)"/><rect class="cls-4" x="248.61" y="131.66" width="2.19" height="2.25"/><rect class="cls-4" x="248.61" y="54.97" width="2.19" height="2.25"/><rect class="cls-4" x="248.61" y="63.49" width="2.19" height="2.25"/><path class="cls-4" d="M466.83,80.94c-.23-.76-.48-1.51-.77-2.26l-2,.83c.25.66.48,1.33.68,2Z" transform="translate(-217.54 -40.91)"/><rect class="cls-4" x="248.61" y="72.01" width="2.19" height="2.25"/><rect class="cls-4" x="248.61" y="80.53" width="2.19" height="2.25"/><path class="cls-4" d="M440.51,56.65l-.4,2.15c.69.15,1.38.32,2.05.52l.67-2.09C442.06,57,441.29,56.82,440.51,56.65Z" transform="translate(-217.54 -40.91)"/><path class="cls-4" d="M448.79,59.56l-.92,2q.94.48,1.86,1l1.16-1.86Q449.86,60.1,448.79,59.56Z" transform="translate(-217.54 -40.91)"/><path class="cls-4" d="M456.26,67.56l1.58-1.51c-.56-.56-1.15-1.1-1.75-1.62l-1.38,1.69C455.24,66.59,455.76,67.07,456.26,67.56Z" transform="translate(-217.54 -40.91)"/><rect class="cls-4" x="248.61" y="165.75" width="2.19" height="2.25"/><path class="cls-4" d="M463.27,72.93c-.41-.68-.85-1.34-1.31-2l-1.75,1.3c.4.58.79,1.17,1.15,1.77Z" transform="translate(-217.54 -40.91)"/><rect class="cls-4" x="248.61" y="157.22" width="2.19" height="2.25"/><rect class="cls-4" x="248.61" y="140.18" width="2.19" height="2.25"/><rect class="cls-4" x="248.61" y="148.7" width="2.19" height="2.25"/><path class="cls-4" d="M468.31,89.59c0-.8-.1-1.59-.19-2.38l-2.17.3c.08.7.14,1.41.17,2.11Z" transform="translate(-217.54 -40.91)"/><rect class="cls-4" x="248.61" y="123.14" width="2.19" height="2.25"/><rect class="cls-4" x="248.61" y="89.05" width="2.19" height="2.25"/><rect class="cls-4" x="248.61" y="106.1" width="2.19" height="2.25"/><rect class="cls-4" x="248.61" y="97.57" width="2.19" height="2.25"/><rect class="cls-4" x="248.61" y="114.62" width="2.19" height="2.25"/><path class="cls-4" d="M491.73,128.7a10.58,10.58,0,0,1,10.54,9.59h2.19a12.77,12.77,0,0,0-12.73-11.77A12.79,12.79,0,0,0,479,139.29v79.14h2.19V139.29A10.59,10.59,0,0,1,491.73,128.7Z" transform="translate(-217.54 -40.91)"/><path class="cls-4" d="M510.43,148a21.1,21.1,0,0,0-9.17-28.41,21.25,21.25,0,0,0-9.61-2.33,20.9,20.9,0,0,0-8.13,1.64l.93,2a18.8,18.8,0,0,1,7.2-1.43,19,19,0,0,1,8.62,2.09,18.93,18.93,0,0,1-8.64,35.77h-.25l-.14,2.18h.39A21,21,0,0,0,510.43,148Z" transform="translate(-217.54 -40.91)"/><rect class="cls-4" x="133.87" y="293.83" width="2.19" height="9.55"/><rect class="cls-4" x="130.18" y="297.51" width="9.55" height="2.19"/><rect class="cls-4" x="95.08" y="337.86" width="2.19" height="9.55"/><rect class="cls-4" x="91.4" y="341.54" width="9.55" height="2.19"/><rect class="cls-4" x="301.6" y="273.91" width="2.19" height="9.55"/><rect class="cls-4" x="297.92" y="277.59" width="9.55" height="2.19"/><rect class="cls-4" x="488.29" y="251.53" width="2.19" height="13.88"/><rect class="cls-4" x="482.43" y="257.38" width="13.89" height="2.19"/><rect class="cls-4" x="134.92" y="370.29" width="2.19" height="13.88"/><rect class="cls-4" x="129.06" y="376.13" width="13.89" height="2.19"/><path class="cls-4" d="M597.26,361.68a16.7,16.7,0,0,1,.2,1.87l2.19,0a20.8,20.8,0,0,0-.26-2.39Z" transform="translate(-217.54 -40.91)"/><path class="cls-4" d="M575.44,348l-.48-2.14a19.42,19.42,0,0,0-2.22.77l1,2A15.77,15.77,0,0,1,575.44,348Z" transform="translate(-217.54 -40.91)"/><path class="cls-4" d="M567.37,350a20,20,0,0,0-1.67,1.65l1.71,1.37a18.12,18.12,0,0,1,1.32-1.31Z" transform="translate(-217.54 -40.91)"/><path class="cls-4" d="M570.25,378.6l-1.37,1.71a19.48,19.48,0,0,0,2,1.26l1-2A18.15,18.15,0,0,1,570.25,378.6Z" transform="translate(-217.54 -40.91)"/><path class="cls-4" d="M563.67,359.69a18.18,18.18,0,0,1,.62-1.75l-2-1a18.3,18.3,0,0,0-.78,2.22Z" transform="translate(-217.54 -40.91)"/><path class="cls-4" d="M566.12,374.45a15.94,15.94,0,0,1-1-1.57l-2,.94a19.58,19.58,0,0,0,1.24,2Z" transform="translate(-217.54 -40.91)"/><path class="cls-4" d="M563.21,367.35c-.1-.6-.16-1.21-.2-1.82l-2.19,0a19.83,19.83,0,0,0,.26,2.32Z" transform="translate(-217.54 -40.91)"/><path class="cls-4" d="M593.07,379.13a20,20,0,0,0,1.67-1.65L593,376.1a18.26,18.26,0,0,1-1.32,1.32Z" transform="translate(-217.54 -40.91)"/><path class="cls-4" d="M590.2,350.45l1.36-1.71a19.48,19.48,0,0,0-2-1.26l-1,2C589.17,349.76,589.69,350.09,590.2,350.45Z" transform="translate(-217.54 -40.91)"/><path class="cls-4" d="M594.33,354.59a15.94,15.94,0,0,1,1,1.57l2-1a21.45,21.45,0,0,0-1.25-2Z" transform="translate(-217.54 -40.91)"/><path class="cls-4" d="M596.79,369.42c-.18.59-.38,1.17-.62,1.75l2,.95a19.32,19.32,0,0,0,.78-2.21Z" transform="translate(-217.54 -40.91)"/><path class="cls-4" d="M583.59,345.39a18.27,18.27,0,0,0-2.33-.27v2.19c.62,0,1.24.11,1.85.21Z" transform="translate(-217.54 -40.91)"/><path class="cls-4" d="M576.84,383.68a20.25,20.25,0,0,0,2.33.26v-2.18a16.38,16.38,0,0,1-1.85-.22Z" transform="translate(-217.54 -40.91)"/><path class="cls-4" d="M585,381.12l.48,2.14a19.58,19.58,0,0,0,2.23-.77l-1-2A17.35,17.35,0,0,1,585,381.12Z" transform="translate(-217.54 -40.91)"/><rect class="cls-4" x="392.98" y="362.37" width="18.31" height="2.19"/><rect class="cls-4" x="417.17" y="362.37" width="4.76" height="2.19"/><rect class="cls-4" x="467.01" y="95.14" width="2.19" height="5.28"/><rect class="cls-4" x="672.98" y="133.44" width="5.28" height="2.19" transform="translate(-114.85 476.14) rotate(-44.99)"/><rect class="cls-4" x="451.28" y="82.51" width="5.28" height="2.19"/><rect class="cls-4" x="674.53" y="111.84" width="2.18" height="5.28" transform="translate(-100.67 470.27) rotate(-44.99)"/><rect class="cls-4" x="467.01" y="66.78" width="2.19" height="5.28"/><rect class="cls-4" x="693.03" y="113.39" width="5.29" height="2.19" transform="translate(-94.71 484.58) rotate(-45)"/><rect class="cls-4" x="479.64" y="82.51" width="5.28" height="2.19"/><rect class="cls-4" x="694.58" y="131.89" width="2.19" height="5.28" transform="translate(-108.84 490.53) rotate(-45.01)"/><path class="cls-6" d="M663,217.24a53.69,53.69,0,1,0,0,75.92A53.74,53.74,0,0,0,663,217.24Z" transform="translate(-217.54 -40.91)"/><path class="cls-2" d="M664.17,216.1a55.31,55.31,0,1,0,0,78.2A55.38,55.38,0,0,0,664.17,216.1Z" transform="translate(-217.54 -40.91)"/><path class="cls-5" d="M654.7,225.57a41.92,41.92,0,1,0,0,59.27A41.95,41.95,0,0,0,654.7,225.57Z" transform="translate(-217.54 -40.91)"/><path class="cls-2" d="M645.4,234.87a28.77,28.77,0,1,0,0,40.67A28.79,28.79,0,0,0,645.4,234.87Z" transform="translate(-217.54 -40.91)"/><path class="cls-1" d="M634.31,246a13.08,13.08,0,1,0,0,18.49A13.1,13.1,0,0,0,634.31,246Z" transform="translate(-217.54 -40.91)"/><path class="cls-3" d="M663.73,216.53a54.66,54.66,0,1,0,16,38.68A54.31,54.31,0,0,0,663.73,216.53Z" transform="translate(-217.54 -40.91)"/><path class="cls-4" d="M665.28,215a56.88,56.88,0,1,0-40.21,97.08h0A56.87,56.87,0,0,0,665.28,215Zm-1.55,78.88a54.66,54.66,0,1,1,16-38.66A54.27,54.27,0,0,1,663.73,293.87Z" transform="translate(-217.54 -40.91)"/><polygon class="cls-1" points="451.01 169.45 447.52 158.99 467.28 139.22 470.77 149.69 451.01 169.45"/><polygon class="cls-1" points="451.01 169.45 461.47 172.94 481.23 153.18 470.77 149.69 451.01 169.45"/><polygon class="cls-3" points="469.52 149.4 466.81 141.25 448.77 159.28 451.49 167.43 469.52 149.4"/><path class="cls-4" d="M689.56,190.89l-4.26-12.78L663.81,199.6l4.26,12.78Zm-5.21-8.74,2.71,8.15-18,18-2.72-8.15Z" transform="translate(-217.54 -40.91)"/><polygon class="cls-3" points="471.06 150.94 453.03 168.97 461.18 171.69 479.21 153.66 471.06 150.94"/><path class="cls-4" d="M688,189.35l-21.49,21.49,12.78,4.26,21.49-21.49Zm-9.3,23.25-8.15-2.72,18-18,8.14,2.71Z" transform="translate(-217.54 -40.91)"/><path class="cls-4" d="M691.31,186.62a1.08,1.08,0,0,0-.78.32l-66.92,66.93a1.06,1.06,0,0,0-.32.77,1.1,1.1,0,0,0,1.87.77l66.92-66.92a1.11,1.11,0,0,0,0-1.55A1.07,1.07,0,0,0,691.31,186.62Z" transform="translate(-217.54 -40.91)"/><path class="cls-4" d="M397.2,340.12a33.92,33.92,0,1,1-67.83,0V320h-2.19v20.09a36.1,36.1,0,1,0,72.2,0V111.45H397.2Z" transform="translate(-217.54 -40.91)"/><path class="cls-4" d="M425.48,75.06a28.31,28.31,0,0,0-28.27,28.28v10.74h2.18V103.34a26.08,26.08,0,1,1,52.16,0v97.2h2.18v-97.2A28.3,28.3,0,0,0,425.48,75.06Z" transform="translate(-217.54 -40.91)"/><path class="cls-4" d="M425.59,118.83a15.71,15.71,0,0,0-15.69,15.7v5.3h2.18v-5.3a13.5,13.5,0,1,1,27,0v80.76h2.18V134.53A15.7,15.7,0,0,0,425.59,118.83Z" transform="translate(-217.54 -40.91)"/><path class="cls-3" d="M328.27,271a23.2,23.2,0,1,0,23.19,23.2A23.22,23.22,0,0,0,328.27,271Z" transform="translate(-217.54 -40.91)"/><path class="cls-4" d="M328.27,268.82a25.38,25.38,0,1,0,25.38,25.38A25.41,25.41,0,0,0,328.27,268.82Zm0,48.58a23.2,23.2,0,1,1,23.19-23.2A23.22,23.22,0,0,1,328.27,317.4Z" transform="translate(-217.54 -40.91)"/><path class="cls-1" d="M328.27,312.2a18,18,0,1,1,18-18A18,18,0,0,1,328.27,312.2Z" transform="translate(-217.54 -40.91)"/><path class="cls-4" d="M329.77,282.89h-3a4.84,4.84,0,0,0-4.83,4.84v2.55c0,1.4.88,2.71,2.54,3.79l5,2,.78-2-4.67-1.79-.1-.06c-.93-.63-1.42-1.28-1.42-1.87v-2.55a2.65,2.65,0,0,1,2.65-2.65h3a2.65,2.65,0,0,1,2.65,2.65v.19h2.18v-.19A4.84,4.84,0,0,0,329.77,282.89Z" transform="translate(-217.54 -40.91)"/><path class="cls-4" d="M332,294.71l-4.79-1.88-.78,2,4.41,1.7.09.06c.95.64,1.49,1.35,1.49,1.94v2.55a2.65,2.65,0,0,1-2.65,2.65h-3a2.65,2.65,0,0,1-2.65-2.65v-.19h-2.18v.19a4.83,4.83,0,0,0,4.83,4.83h3a4.83,4.83,0,0,0,4.83-4.83v-2.55C334.6,297.14,333.7,295.81,332,294.71Z" transform="translate(-217.54 -40.91)"/><rect class="cls-4" x="109.86" y="238.96" width="2.19" height="3.58"/><rect class="cls-4" x="109.86" y="264.05" width="2.19" height="3.58"/><path class="cls-3" d="M642,354a6.57,6.57,0,1,0,6.57,6.57A6.58,6.58,0,0,0,642,354Z" transform="translate(-217.54 -40.91)"/><path class="cls-4" d="M650.75,360.53a8.76,8.76,0,1,0-8.76,8.76A8.77,8.77,0,0,0,650.75,360.53ZM642,367.1a6.57,6.57,0,1,1,6.57-6.57A6.57,6.57,0,0,1,642,367.1Z" transform="translate(-217.54 -40.91)"/><rect class="cls-4" x="241.04" y="212.12" width="4.19" height="14.55"/><rect class="cls-4" x="425.15" y="267.52" width="4.19" height="14.55" transform="translate(-286.72 341.68) rotate(-45)"/><rect class="cls-4" x="189.02" y="265.7" width="14.55" height="4.19"/><rect class="cls-4" x="421.06" y="340.05" width="14.55" height="4.18" transform="translate(-333.99 362.43) rotate(-45.03)"/><rect class="cls-4" x="240.51" y="305.27" width="8.37" height="18.73"/><rect class="cls-4" x="242.61" y="307.36" width="4.19" height="14.55"/><rect class="cls-4" x="493.59" y="333.77" width="4.19" height="14.55" transform="translate(-313.55 409.28) rotate(-44.98)"/><rect class="cls-4" x="284.26" y="264.14" width="14.55" height="4.19"/><rect class="cls-4" x="487.31" y="271.6" width="14.55" height="4.19" transform="translate(-266.2 389.04) rotate(-45.01)"/><rect class="cls-7" x="241.59" y="467.16" width="104.65" height="55.55"/><path class="cls-2" d="M540.1,502.05V490.3a34.62,34.62,0,0,0,14-27.79V402.22l-.65-13.32A12.92,12.92,0,0,0,540.5,376c-7.13,0-12.92,2.55-12.92,9.68v-3.22a12.92,12.92,0,1,0-25.83,0V376a12.92,12.92,0,1,0-25.83,0v6.62c0-3.12-.12-73.78-.12-73.78a13.37,13.37,0,0,0-26.73,0L449,439.4l-.26-6.37v-26.7A19.72,19.72,0,0,0,429,386.61h-6.56c-.29,0,.27,0,0,0v24.7s-.05,0,0,0v32.78l37.4,44.46s9.7,6.14,15.67,7.6v5.84Z" transform="translate(-217.54 -40.91)"/><path class="cls-4" d="M556.16,462.51V402.12l-.64-13.22a15,15,0,0,0-15-15,19.44,19.44,0,0,0-9.77,2.2l-1.85,1.07-1-1.88a15,15,0,0,0-22.24-4.81L503.55,372l-1.1-2.35a15,15,0,0,0-21.31-6.59L478,365l-.09-56.16a15.46,15.46,0,0,0-30.92,0l0,84.26L443.45,390A21.82,21.82,0,0,0,429,384.51h-8.71l-.12,3.94.17,0v21.44l-.16.06.16,1.64v33.29l38.11,45.29.27.17a88.69,88.69,0,0,0,13.35,6.94l1.35.51V500h4.19v-5.38l-1.6-.39c-5.09-1.24-13.54-6.41-14.49-7l-.29-.18-36.7-43.63v-30.6l.25-.09-.25-1.56V388.7H429a17.66,17.66,0,0,1,17.65,17.63v26.79l.18,4.32,4.27-.09.07-128.53a11.27,11.27,0,1,1,22.54,0s.1,59.41.12,71.68H478V376a10.82,10.82,0,1,1,21.64,0v4.36H504a10.83,10.83,0,0,1,21.45,2.1v1.13h4.43c.92-3.65,4.47-5.5,10.58-5.5A10.92,10.92,0,0,1,551.33,389l.65,13.22v60.29a32.35,32.35,0,0,1-13.14,26.12l-.83.63V500h4.18v-8.6l.75-.63A36.62,36.62,0,0,0,556.16,462.51Z" transform="translate(-217.54 -40.91)"/><rect class="cls-4" x="330.25" y="481.44" width="8.37" height="9.12"/><rect class="cls-4" x="332.34" y="483.53" width="4.19" height="4.94"/></g></svg>