<svg id="Layer_1" data-name="Layer 1" xmlns="http://www.w3.org/2000/svg" viewBox="0 0 569.57 273.87"><defs><style>.cls-1,.cls-12,.cls-15,.cls-21,.cls-23,.cls-28{fill:#fff;}.cls-1,.cls-4,.cls-5,.cls-7,.cls-8{stroke:#1b2c38;}.cls-1,.cls-14,.cls-15,.cls-16,.cls-17,.cls-18,.cls-22,.cls-27,.cls-28,.cls-4,.cls-5,.cls-6,.cls-7,.cls-8{stroke-width:2px;}.cls-1,.cls-3,.cls-5,.cls-6{fill-rule:evenodd;}.cls-2,.cls-3{fill:#c2c5cb;}.cls-4{fill:#b3b2b3;}.cls-5{fill:#e6e6e6;}.cls-6{fill:#333d44;}.cls-14,.cls-15,.cls-16,.cls-17,.cls-18,.cls-20,.cls-21,.cls-22,.cls-23,.cls-25,.cls-26,.cls-27,.cls-28,.cls-6{stroke:#231f20;}.cls-7{fill:none;}.cls-8{fill:#c1c6cc;}.cls-9{fill:#3c474c;}.cls-10,.cls-18{fill:#ffd86f;}.cls-11{fill:#231f20;}.cls-13,.cls-25,.cls-26,.cls-27{fill:#8d96a1;}.cls-14{fill:#cfeaf3;}.cls-14,.cls-15,.cls-16,.cls-17,.cls-18,.cls-22,.cls-27{stroke-miterlimit:10;}.cls-16{fill:#27c7cd;}.cls-17{fill:#f1f1f1;}.cls-19{fill:#cac8c8;}.cls-20{fill:#fc3e59;}.cls-20,.cls-23{stroke-miterlimit:10;}.cls-20,.cls-21,.cls-23{stroke-width:2px;}.cls-22{fill:#f89b22;}.cls-24{fill:#95d133;}.cls-25{stroke-miterlimit:10;stroke-width:2px;}.cls-26{stroke-miterlimit:10;stroke-width:2px;}.cls-28{stroke-linecap:round;stroke-linejoin:round;}.cls-29{fill:#f16839;}.cls-30{fill:#f5cd2d;}.cls-31{fill:#1a3a45;}</style></defs><title>06-seo-score</title><g id="Isolation_Mode" data-name="Isolation Mode"><path class="cls-1" d="M400.56,194.88a11.27,11.27,0,0,1-11,11.5H193.89a11.3,11.3,0,0,1-11-11.52V88.58a11.29,11.29,0,0,1,11-11.51h195.6a11.27,11.27,0,0,1,11.07,11.47h0V194.88Z" transform="translate(0 0)"/><path class="cls-2" d="M378.82,85h6.71a1.38,1.38,0,0,1,1.38,1.37h0v5a1.39,1.39,0,0,1-1.39,1.39h-6.7a1.38,1.38,0,0,1-1.38-1.38h0v-5A1.37,1.37,0,0,1,378.79,85h0Z" transform="translate(0 0)"/><rect class="cls-2" x="377.44" y="94.48" width="9.47" height="10.13" rx="1.69"/><path class="cls-3" d="M365.79,85h6.7a1.39,1.39,0,0,1,1.39,1.39h0v5a1.4,1.4,0,0,1-1.39,1.38h-6.7a1.4,1.4,0,0,1-1.39-1.38h0v-5A1.39,1.39,0,0,1,365.79,85h0Z" transform="translate(0 0)"/><rect class="cls-2" x="353.46" y="94.48" width="20.41" height="10.13" rx="1.81"/><rect class="cls-2" x="361.17" y="106.36" width="12.7" height="10.13" rx="1.81"/><rect class="cls-2" x="376.78" y="130.82" width="10.13" height="21.74" rx="1.81"/><path class="cls-3" d="M386.91,109.06v18.12a1.83,1.83,0,0,1-1.8,1.82h-6.55a1.82,1.82,0,0,1-1.81-1.82V109.06a1.82,1.82,0,0,1,1.81-1.81h6.52a1.81,1.81,0,0,1,1.83,1.77h0Z" transform="translate(0 0)"/><rect class="cls-2" x="354.13" y="130.13" width="9.47" height="10.13" rx="1.69"/><rect class="cls-2" x="348.17" y="130.13" width="27" height="10.13" rx="1.69"/><path class="cls-2" d="M354.84,85h5.8A1.38,1.38,0,0,1,362,86.38h0v5a1.39,1.39,0,0,1-1.39,1.39h-5.8a1.38,1.38,0,0,1-1.38-1.38h0v-5A1.37,1.37,0,0,1,354.8,85h0Z" transform="translate(0 0)"/><path class="cls-2" d="M343.7,85h5.8a1.38,1.38,0,0,1,1.38,1.37h0v5a1.39,1.39,0,0,1-1.39,1.39H343.7a1.38,1.38,0,0,1-1.38-1.38h0v-5A1.37,1.37,0,0,1,343.69,85Z" transform="translate(0 0)"/><path class="cls-2" d="M332.62,85h5.8a1.38,1.38,0,0,1,1.38,1.37h0v5a1.39,1.39,0,0,1-1.39,1.39h-5.8a1.39,1.39,0,0,1-1.39-1.39h0v-5a1.39,1.39,0,0,1,1.4-1.38h0Z" transform="translate(0 0)"/><path class="cls-2" d="M321.5,85h5.8a1.37,1.37,0,0,1,1.4,1.34v0h0v5a1.39,1.39,0,0,1-1.39,1.39h-5.8a1.38,1.38,0,0,1-1.38-1.38h0v-5A1.39,1.39,0,0,1,321.5,85Z" transform="translate(0 0)"/><path class="cls-2" d="M310.38,85h5.8a1.38,1.38,0,0,1,1.38,1.37h0v5a1.39,1.39,0,0,1-1.39,1.39h-5.8A1.38,1.38,0,0,1,309,91.39h0v-5A1.37,1.37,0,0,1,310.34,85h0Z" transform="translate(0 0)"/><path class="cls-2" d="M299.26,85h5.8a1.39,1.39,0,0,1,1.39,1.37h0v5a1.39,1.39,0,0,1-1.39,1.39h-5.8a1.39,1.39,0,0,1-1.39-1.39h0v-5A1.37,1.37,0,0,1,299.22,85h0Z" transform="translate(0 0)"/><path class="cls-2" d="M288.15,85H294a1.38,1.38,0,0,1,1.38,1.37h0v5a1.39,1.39,0,0,1-1.39,1.39h-5.8a1.39,1.39,0,0,1-1.39-1.39h0v-5A1.38,1.38,0,0,1,288.12,85h0Z" transform="translate(0 0)"/><path class="cls-3" d="M277,85h5.8a1.37,1.37,0,0,1,1.38,1.36v5a1.38,1.38,0,0,1-1.38,1.38H277a1.4,1.4,0,0,1-1.34-1.38v-5A1.39,1.39,0,0,1,277.09,85h0Z" transform="translate(0 0)"/><path class="cls-2" d="M265.92,85h5.78a1.38,1.38,0,0,1,1.38,1.37h0v5a1.4,1.4,0,0,1-1.38,1.36h-5.8a1.39,1.39,0,0,1-1.39-1.36h0v-5A1.37,1.37,0,0,1,265.88,85Z" transform="translate(0 0)"/><path class="cls-2" d="M254.8,85h5.8A1.39,1.39,0,0,1,262,86.38h0v5a1.39,1.39,0,0,1-1.39,1.39h-5.8a1.39,1.39,0,0,1-1.39-1.39v-5A1.37,1.37,0,0,1,254.76,85h0Z" transform="translate(0 0)"/><path class="cls-2" d="M243.7,85h5.8a1.38,1.38,0,0,1,1.38,1.37h0v5a1.39,1.39,0,0,1-1.39,1.39H243.7a1.38,1.38,0,0,1-1.38-1.38h0v-5A1.37,1.37,0,0,1,243.69,85Z" transform="translate(0 0)"/><path class="cls-2" d="M232.57,85h5.8a1.38,1.38,0,0,1,1.38,1.37h0v5a1.39,1.39,0,0,1-1.39,1.39h-5.8a1.39,1.39,0,0,1-1.39-1.39v-5A1.38,1.38,0,0,1,232.54,85h0Z" transform="translate(0 0)"/><path class="cls-2" d="M221.45,85h5.8a1.38,1.38,0,0,1,1.38,1.37h0v5a1.39,1.39,0,0,1-1.39,1.39h-5.8a1.39,1.39,0,0,1-1.39-1.39v-5A1.38,1.38,0,0,1,221.42,85h0Z" transform="translate(0 0)"/><path class="cls-2" d="M210.34,85h5.8a1.38,1.38,0,0,1,1.38,1.37h0v5a1.39,1.39,0,0,1-1.39,1.39h-5.8a1.39,1.39,0,0,1-1.39-1.39v-5a1.39,1.39,0,0,1,1.4-1.38h0Z" transform="translate(0 0)"/><path class="cls-2" d="M197.85,85h6.71a1.38,1.38,0,0,1,1.38,1.37h0v5a1.39,1.39,0,0,1-1.39,1.39h-6.7a1.38,1.38,0,0,1-1.38-1.38h0v-5A1.37,1.37,0,0,1,197.82,85h0Z" transform="translate(0 0)"/><rect class="cls-2" x="341.62" y="94.48" width="9.3" height="10.13" rx="1.66"/><rect class="cls-2" x="329.56" y="94.48" width="9.3" height="10.13" rx="1.66"/><rect class="cls-2" x="317.5" y="94.48" width="9.3" height="10.13" rx="1.66"/><rect class="cls-2" x="305.44" y="94.48" width="9.3" height="10.13" rx="1.66"/><rect class="cls-2" x="293.38" y="94.48" width="9.29" height="10.13" rx="1.66"/><rect class="cls-2" x="281.32" y="94.48" width="9.3" height="10.13" rx="1.66"/><rect class="cls-2" x="269.26" y="94.48" width="9.29" height="10.13" rx="1.66"/><rect class="cls-2" x="257.2" y="94.48" width="9.3" height="10.13" rx="1.66"/><rect class="cls-2" x="245.13" y="94.48" width="9.3" height="10.13" rx="1.66"/><rect class="cls-2" x="233.08" y="94.48" width="9.3" height="10.13" rx="1.66"/><rect class="cls-2" x="221.01" y="94.48" width="9.3" height="10.13" rx="1.66"/><rect class="cls-2" x="208.96" y="94.48" width="9.3" height="10.13" rx="1.66"/><rect class="cls-2" x="196.47" y="94.48" width="9.47" height="10.13" rx="1.69"/><rect class="cls-2" x="196.47" y="106.36" width="16.15" height="10.13" rx="1.81"/><rect class="cls-2" x="196.47" y="118.24" width="18.51" height="10.13" rx="1.81"/><rect class="cls-2" x="196.47" y="130.13" width="24.97" height="10.13" rx="1.81"/><rect class="cls-2" x="214.12" y="106.36" width="9.96" height="10.13" rx="1.78"/><path class="cls-3" d="M228.19,106.38h6.37a1.78,1.78,0,0,1,1.78,1.78h0v6.57a1.78,1.78,0,0,1-1.78,1.78h-6.4a1.78,1.78,0,0,1-1.78-1.78h0v-6.55a1.77,1.77,0,0,1,1.73-1.81h.08Z" transform="translate(0 0)"/><rect class="cls-2" x="238.7" y="106.36" width="9.96" height="10.13" rx="1.78"/><rect class="cls-2" x="250.98" y="106.36" width="9.96" height="10.13" rx="1.78"/><rect class="cls-2" x="263.27" y="106.36" width="9.96" height="10.13" rx="1.78"/><path class="cls-3" d="M277.33,106.38h6.37a1.79,1.79,0,0,1,1.82,1.75v6.63a1.8,1.8,0,0,1-1.78,1.78h-6.41a1.79,1.79,0,0,1-1.77-1.78v-6.58a1.77,1.77,0,0,1,1.74-1.8Z" transform="translate(0 0)"/><rect class="cls-2" x="287.84" y="106.36" width="9.96" height="10.13" rx="1.78"/><rect class="cls-2" x="300.13" y="106.36" width="9.96" height="10.13" rx="1.78"/><rect class="cls-2" x="312.41" y="106.36" width="9.96" height="10.13" rx="1.78"/><path class="cls-3" d="M326.48,106.38h6.4a1.77,1.77,0,0,1,1.78,1.76h0v6.61a1.78,1.78,0,0,1-1.78,1.78h-6.4a1.8,1.8,0,0,1-1.78-1.78v-6.58a1.79,1.79,0,0,1,1.77-1.81h0Z" transform="translate(0 0)"/><rect class="cls-2" x="336.99" y="106.36" width="9.96" height="10.13" rx="1.78"/><rect class="cls-2" x="349.27" y="106.36" width="9.96" height="10.13" rx="1.78"/><rect class="cls-2" x="217.54" y="118.24" width="9.96" height="10.13" rx="1.78"/><rect class="cls-2" x="229.83" y="118.24" width="9.96" height="10.13" rx="1.78"/><rect class="cls-2" x="242.11" y="118.24" width="9.96" height="10.13" rx="1.78"/><rect class="cls-2" x="254.4" y="118.24" width="9.96" height="10.13" rx="1.78"/><rect class="cls-2" x="266.69" y="118.24" width="9.96" height="10.13" rx="1.78"/><rect class="cls-2" x="278.97" y="118.24" width="9.95" height="10.13" rx="1.78"/><rect class="cls-2" x="291.26" y="118.24" width="9.96" height="10.13" rx="1.78"/><rect class="cls-2" x="303.55" y="118.24" width="9.96" height="10.13" rx="1.78"/><rect class="cls-2" x="315.83" y="118.24" width="9.96" height="10.13" rx="1.78"/><rect class="cls-2" x="328.12" y="118.24" width="9.96" height="10.13" rx="1.78"/><rect class="cls-2" x="340.41" y="118.24" width="9.95" height="10.13" rx="1.78"/><rect class="cls-2" x="352.75" y="118.24" width="9.96" height="10.13" rx="1.78"/><rect class="cls-2" x="365.1" y="118.24" width="9.96" height="10.13" rx="1.78"/><rect class="cls-2" x="217.11" y="130.13" width="9.96" height="10.13" rx="1.78"/><path class="cls-3" d="M232,130.18h6.4A1.78,1.78,0,0,1,240.2,132h0v6.57a1.78,1.78,0,0,1-1.78,1.78H232a1.78,1.78,0,0,1-1.78-1.78h0V132A1.78,1.78,0,0,1,232,130.18Z" transform="translate(0 0)"/><rect class="cls-2" x="243.37" y="130.13" width="9.96" height="10.13" rx="1.78"/><rect class="cls-2" x="256.5" y="130.13" width="9.96" height="10.13" rx="1.78"/><rect class="cls-2" x="269.64" y="130.13" width="9.96" height="10.13" rx="1.78"/><rect class="cls-2" x="282.77" y="130.13" width="9.96" height="10.13" rx="1.78"/><rect class="cls-2" x="295.9" y="130.13" width="9.95" height="10.13" rx="1.78"/><rect class="cls-2" x="309.03" y="130.13" width="9.96" height="10.13" rx="1.78"/><rect class="cls-2" x="322.16" y="130.13" width="9.96" height="10.13" rx="1.78"/><rect class="cls-2" x="335.29" y="130.13" width="9.96" height="10.13" rx="1.78"/><path class="cls-3" d="M198.32,142.44h6.38a1.78,1.78,0,0,1,1.78,1.78h0v6.57a1.78,1.78,0,0,1-1.78,1.78h-6.4a1.78,1.78,0,0,1-1.78-1.78h0v-6.61a1.77,1.77,0,0,1,1.8-1.74Z" transform="translate(0 0)"/><rect class="cls-2" x="209.42" y="142.43" width="9.96" height="10.13" rx="1.78"/><rect class="cls-2" x="222.3" y="142.43" width="9.96" height="10.13" rx="1.78"/><rect class="cls-2" x="235.18" y="142.43" width="9.96" height="10.13" rx="1.78"/><rect class="cls-2" x="248.06" y="142.43" width="9.96" height="10.13" rx="1.78"/><path class="cls-3" d="M261.7,142.44h59v10.13H249.84V142.44Z" transform="translate(0 0)"/><rect class="cls-2" x="312.46" y="142.43" width="9.96" height="10.13" rx="1.78"/><rect class="cls-2" x="338.47" y="142.43" width="35.23" height="10.13" rx="1.69"/><rect class="cls-2" x="325.59" y="142.43" width="9.47" height="10.13" rx="1.69"/><path class="cls-3" d="M259.77,160.68h63.85a1.65,1.65,0,0,1,1.77,1.47V187.6a1.63,1.63,0,0,1-1.77,1.46H259.77A1.63,1.63,0,0,1,258,187.6V162.18a1.64,1.64,0,0,1,1.77-1.5Z" transform="translate(0 0)"/><rect class="cls-2" x="258" y="191.36" width="32.49" height="7.11" rx="0.37"/><rect class="cls-2" x="292.9" y="191.36" width="32.49" height="7.11" rx="0.37"/><rect class="cls-4" x="212.35" y="78.88" width="15.23" height="3.17"/><rect class="cls-4" x="355.79" y="78.88" width="15.23" height="3.17"/><path class="cls-5" d="M162.32,1.38a3.17,3.17,0,0,0-3.14,3.2h0a3.37,3.37,0,0,0,.14.89L180.7,75c.8,2.61,6,4.71,11.61,4.71H391c5.59,0,10.82-2.1,11.62-4.71L424.08,5.45a3.17,3.17,0,0,0-2.05-4h0a3.13,3.13,0,0,0-.91-.13Z" transform="translate(0 0)"/><path class="cls-6" d="M405.91,64.45l18-58.38a3.64,3.64,0,0,0-2.41-4.55h0a3.43,3.43,0,0,0-1.06-.14H163A3.62,3.62,0,0,0,159.34,5h0a3.64,3.64,0,0,0,.16,1.09l18,58.38A3.64,3.64,0,0,0,181,67H402.43A3.65,3.65,0,0,0,405.91,64.45Z" transform="translate(0 0)"/><polygon class="cls-7" points="187.69 65.66 395.69 65.66 411.92 7.97 171.46 7.97 187.69 65.66"/><path class="cls-8" d="M158.44,4.72l18.37,59.66a8.07,8.07,0,0,0,7.72,5.7H399.7a7,7,0,0,0,6.66-4.83L426.08,4.76a2.87,2.87,0,0,0-1.84-3.62h0a3.17,3.17,0,0,0-.87-.14H161.18a2.88,2.88,0,0,0-2.87,2.88A3,3,0,0,0,158.44,4.72ZM393.56,65.38H189.79a2.86,2.86,0,0,1-2.75-2l-14.65-52a2.88,2.88,0,0,1,2-3.54,3.33,3.33,0,0,1,.77-.11H408.24a2.87,2.87,0,0,1,2.86,2.87,2.94,2.94,0,0,1-.11.78l-14.64,52A2.91,2.91,0,0,1,393.56,65.38Z" transform="translate(0 0)"/></g><g id="Layer_7" data-name="Layer 7"><rect class="cls-9" x="223.19" y="35.71" width="140" height="4" rx="1.83"/><rect class="cls-10" x="223.19" y="35.71" width="70" height="4" rx="1.83"/></g><g id="Layer_6" data-name="Layer 6"><path class="cls-11" d="M205.3,193.68a2,2,0,1,1-2-2A2,2,0,0,1,205.3,193.68Z" transform="translate(0 0)"/><path class="cls-10" d="M238.7,156.75c3.14-9.9,13.44-23.57,13.44-23.57-.74-4-6.81-4.54-11.36,0l-8.55,10.07-.84-19.72h0l-1-22.28a3.89,3.89,0,0,0-7.78.37h0l.58,21.91H221.7l-1.16-27.24a3.9,3.9,0,0,0-7.79.36l.71,26.61h-1.82l-.94-20.79a3.9,3.9,0,0,0-7.8.24v.13l.56,21a3.32,3.32,0,0,0-1.33.81l-.59-12.85a3.51,3.51,0,1,0-7-.59,3,3,0,0,0,0,.52v.41l.45,17a3.86,3.86,0,0,0,0,.68l.53,25.81c-.36,8,2.44,12.47,7.16,20.09l1.26,39.55,24.84-17.89-.48-20.08C228.7,176.81,234,171.7,238.7,156.75Z" transform="translate(0 0)"/><path class="cls-11" d="M202.81,217.6l-1.33-41.53c-4.7-7.59-7.54-12.17-7.17-20.5l-.53-25.74a4.09,4.09,0,0,1,0-.7l-.45-17a4.73,4.73,0,0,1,4.5-4.93h.23a4.68,4.68,0,0,1,3.78,1.87l-.17-6.23a5.13,5.13,0,0,1,4.87-5.34h.25a5.06,5.06,0,0,1,4.77,3.29l-.11-4.15a5.12,5.12,0,0,1,4.87-5.34h.24a5.11,5.11,0,0,1,5.14,4.88l.13,3.12a5.16,5.16,0,0,1,4.43-3h.33a5.14,5.14,0,0,1,5.11,4.88l1.7,38.9,6.54-7.71a11.47,11.47,0,0,1,7.85-3.64c3,0,5.17,1.66,5.65,4.23l.09.53-.32.42c-.1.14-10.21,13.62-13.26,23.21-4.23,13.34-8.91,19.06-10.36,20.61l.49,20.2Zm-4.72-107.92A2.3,2.3,0,0,0,195.8,112h0v.06l.46,17.1v.07a4.51,4.51,0,0,0,0,.52l.53,25.85c-.34,7.66,2.2,11.76,6.82,19.2l.33.54,1.2,37.59,22.42-16.24-.49-20,.4-.37c.22-.21,5.42-5.21,10.1-20,2.88-9.06,11.4-20.9,13.28-23.46a3,3,0,0,0-3.11-1.75,8.89,8.89,0,0,0-6.06,2.86l-10.5,12.39-2-45.12a2.65,2.65,0,0,0-2.67-2.54h-.13a2.7,2.7,0,0,0-2.55,2.8l.62,23.19h-4L219.24,96.3a2.66,2.66,0,0,0-2.68-2.51h-.13a2.66,2.66,0,0,0-2.55,2.78v0l.74,27.94-1.3-.06a12.06,12.06,0,0,0-1.7,0l-1.24.06-.93-22a2.65,2.65,0,0,0-2.67-2.54h-.08a2.66,2.66,0,0,0-2.55,2.78v0l.58,21.9-.81.31a2.08,2.08,0,0,0-.83.47l-2,2.38-.68-16A2.29,2.29,0,0,0,198.09,109.68Z" transform="translate(0 0)"/><rect class="cls-12" x="198.52" y="181.83" width="35.95" height="5.33"/><path class="cls-11" d="M235.7,188.38H197.3v-7.77h38.4Zm-35.95-2.44h33.51v-2.89H199.75Z" transform="translate(0 0)"/><rect class="cls-13" x="198.52" y="185.45" width="35.95" height="88.42"/><polygon class="cls-11" points="199.74 273.87 199.74 186.67 233.26 186.67 233.26 273.87 235.7 273.87 235.7 184.23 197.3 184.23 197.3 273.87 199.74 273.87"/></g><path class="cls-10" d="M342.2,271.2v2.67H367l.59-4.44c4.62-7.6,7.36-12,6.92-20l.29-25.63a5,5,0,0,0-4.77-5.22h0a5.13,5.13,0,0,0-2.22.41,5,5,0,0,0-4.34-2.83A6,6,0,0,0,359.2,218c-.89-1.06-1.92-2.87-5.26-2.87a12.59,12.59,0,0,0-5.21,1.82l.68-23.38a5,5,0,0,0-10-.38L338,237.49l-8.58-9.93c-4.57-4.45-10.58-3.9-11.28.12,0,0,10.35,13.48,13.57,23.27C336.51,265.75,341.75,270.78,342.2,271.2Z" transform="translate(0 0)"/><path class="cls-11" d="M330.51,251.31c4.34,13.22,9,18.84,10.48,20.37v2.19h2.42l.1-3.14-.41-.37c-.2-.2-5.4-5.07-10.2-19.72-2.95-8.95-11.51-20.63-13.41-23.15.59-1.62,2.51-1.76,3.12-1.76a8.88,8.88,0,0,1,5.92,2.7l10.61,12.28,1.58-47.44a3.76,3.76,0,0,1,3.78-3.65h.19a3.78,3.78,0,0,1,3.61,3.94l-.76,26,2.06-1.65a12,12,0,0,1,4.45-1.56,4.36,4.36,0,0,1,4,2l.32.39.89,1.07.94-1a4.85,4.85,0,0,1,3.31-1.41,3.79,3.79,0,0,1,3.28,2.15l.51,1,1.07-.45a3.55,3.55,0,0,1,1.51-.31h.18a3.8,3.8,0,0,1,3.59,4l-.29,25.7c.41,7.48-2.07,11.56-6.59,19l-.32.54v4.79h2.15l.24-4.11c4.6-7.58,7.38-12.16,6.93-20.35l.29-25.59a6.26,6.26,0,0,0-6-6.47h-.2a7,7,0,0,0-1.44.16,6.22,6.22,0,0,0-4.84-2.6h-.22a7.45,7.45,0,0,0-3.93,1.29,6.69,6.69,0,0,0-5.42-2.35,13.37,13.37,0,0,0-3.93,1l.62-21.29a6.26,6.26,0,0,0-6-6.47h-.26a6.22,6.22,0,0,0-6.22,6l-1.37,41.21-6.61-7.64a11.38,11.38,0,0,0-7.69-3.47c-3,0-5.2,1.68-5.65,4.25l-.09.53.33.44C317.24,228.54,327.4,241.82,330.51,251.31Z" transform="translate(0 0)"/><g id="Layer_4" data-name="Layer 4"><path class="cls-14" d="M509.7,162.76a40.51,40.51,0,1,1,40.51-40.51,40.51,40.51,0,0,1-40.51,40.51Z" transform="translate(0 0)"/><path class="cls-15" d="M509.7,154.64a32.4,32.4,0,1,1,32.4-32.4h0A32.44,32.44,0,0,1,509.7,154.64Z" transform="translate(0 0)"/><path class="cls-16" d="M509.7,146.53A24.29,24.29,0,1,1,534,122.23h0A24.32,24.32,0,0,1,509.7,146.53Z" transform="translate(0 0)"/><path class="cls-17" d="M509.7,138.38a16.17,16.17,0,1,1,16.17-16.18h0A16.2,16.2,0,0,1,509.7,138.38Z" transform="translate(0 0)"/><path class="cls-16" d="M517.7,122.25a8.06,8.06,0,1,1-8.06-8.06h0A8.06,8.06,0,0,1,517.7,122.25Z" transform="translate(0 0)"/><polygon class="cls-18" points="545.71 87.75 556.83 89.71 567.34 79.6 555.85 78.3 545.71 87.75"/><polygon class="cls-18" points="544.22 86.48 542.25 75.38 552.37 64.85 553.67 76.35 544.22 86.48"/><path class="cls-11" d="M510.87,123.43h0a1.72,1.72,0,1,1-2.56-2.3,1.07,1.07,0,0,1,.19-.18h0l45.06-45,2.3,2.29Z" transform="translate(0 0)"/><path class="cls-19" d="M482.7,92.27c-1.11.89-1.19,1.15-2.67,2.45l28.12,28.19,1.29-1.43,1.17-1Z" transform="translate(0 0)"/></g><g id="Layer_3" data-name="Layer 3"><rect class="cls-20" x="46.65" y="71.58" width="77.46" height="97.87" rx="3.48" transform="translate(-24.75 22.1) rotate(-12.9)"/><rect class="cls-21" x="52.91" y="77.84" width="64.94" height="85.35" transform="translate(-24.75 22.1) rotate(-12.9)"/><path class="cls-22" d="M91.56,80l-.78-3.39A2.06,2.06,0,0,0,88.32,75h0L63,80.8a2.1,2.1,0,0,0-1.57,2.5l.78,3.41Z" transform="translate(0 0)"/><path class="cls-18" d="M91.25,78.5l-.77-3.39A2.08,2.08,0,0,0,88,73.53h0L62.7,79.38a2.05,2.05,0,0,0-1.56,2.47v0h0l.77,3.39Z" transform="translate(0 0)"/><path class="cls-18" d="M80,75.18a4.87,4.87,0,1,1-5.84-3.67A4.88,4.88,0,0,1,80,75.18Z" transform="translate(0 0)"/><circle class="cls-23" cx="75.23" cy="76.22" r="2.09"/><rect class="cls-11" x="64.36" y="106.37" width="40.48" height="2.13" transform="translate(-21.85 21.6) rotate(-12.9)"/><rect class="cls-11" x="66.31" y="114.88" width="40.48" height="2.12" transform="translate(-23.7 22.25) rotate(-12.9)"/><rect class="cls-11" x="68.25" y="123.4" width="40.48" height="2.13" transform="translate(-25.55 22.9) rotate(-12.9)"/><rect class="cls-11" x="70.2" y="131.92" width="40.48" height="2.13" transform="translate(-27.4 23.55) rotate(-12.9)"/><path class="cls-24" d="M59.16,118.87a1.07,1.07,0,0,1-.76-.14l-1.93-1.27a1,1,0,0,1,1.09-1.63l1,.67,2-4a1,1,0,0,1,1.41-.12h0a1,1,0,0,1,.33,1l-2.47,5a1,1,0,0,1-.62.51Z" transform="translate(0 0)"/><path class="cls-24" d="M61,127.05a1,1,0,0,1-.75-.14l-1.93-1.27A1,1,0,1,1,59.42,124l1,.65,2-4a1,1,0,0,1,1.41-.15,1,1,0,0,1,.34,1l-2.48,5a1,1,0,0,1-.61.5Z" transform="translate(0 0)"/><path class="cls-24" d="M62.9,135.23a1,1,0,0,1-.75-.14l-1.93-1.28a1,1,0,0,1-.63-1.27,1,1,0,0,1,1.27-.62,1,1,0,0,1,.43.28l1,.66,2-4a1,1,0,0,1,1.95.45,1,1,0,0,1-.21.42l-2.47,5a1,1,0,0,1-.62.5Z" transform="translate(0 0)"/></g><g id="Layer_2" data-name="Layer 2"><rect class="cls-25" x="17.48" y="146.52" width="28.74" height="7.99" transform="translate(-89.15 55.5) rotate(-39.91)"/><rect class="cls-26" x="19.18" y="148.7" width="19.47" height="8.5" transform="translate(-91.37 54.16) rotate(-39.9)"/><path class="cls-27" d="M11.87,176.18a6.8,6.8,0,0,1-8.73-10.4L25.3,147.23a6.76,6.76,0,0,1,5.7-1.45l5.46,6.52A6.83,6.83,0,0,1,34,157.66Z" transform="translate(0 0)"/><path class="cls-28" d="M85.7,105.47A29.55,29.55,0,1,0,82,147.09h0a29.51,29.51,0,0,0,3.72-41.57h0Zm-7.23,37.39a24,24,0,1,1,3-33.85,24,24,0,0,1-3,33.85Z" transform="translate(0 0)"/></g><g id="Layer_8" data-name="Layer 8"><path class="cls-12" d="M442.14,122.38a2.77,2.77,0,1,0-5.47-.88,2.6,2.6,0,0,0,0,.88Z" transform="translate(0 0)"/><path class="cls-11" d="M439.41,118.82a3.41,3.41,0,0,1,3.14,3.58v.42h-6.3v-.44A3.41,3.41,0,0,1,439.41,118.82ZM441.7,122a2.3,2.3,0,1,0-4.59-.31,1.61,1.61,0,0,0,0,.31Z" transform="translate(0 0)"/><rect class="cls-29" x="436.66" y="124.27" width="5.48" height="53.73"/><path class="cls-11" d="M436.26,123.87h6.3v54.51h-6.3Zm5.48.81h-4.67V177.6h4.63Z" transform="translate(0 0)"/><rect class="cls-30" x="438.7" y="124.27" width="1.4" height="53.73"/><rect class="cls-31" x="436.66" y="122.35" width="5.48" height="3.37"/><path class="cls-11" d="M436.26,122h6.3v4.23h-6.3Zm5.48.82h-4.67v2.55h4.63Z" transform="translate(0 0)"/><polygon class="cls-12" points="440.51 185.49 442.16 177.99 436.65 177.99 438.3 185.49 440.51 185.49"/><path class="cls-11" d="M436.15,177.59h6.55l-1.83,8.32H438Zm5.5.82h-4.49l1.47,6.68h1.55Z" transform="translate(0 0)"/><polygon class="cls-31" points="438.29 185.45 439.41 190.54 440.52 185.45 438.29 185.45"/><path class="cls-11" d="M437.79,185.05H441l-1.62,7.41Zm2.22.82H438.8l.61,2.77Z" transform="translate(0 0)"/></g></svg>