<svg xmlns="http://www.w3.org/2000/svg" viewBox="0 0 570 384.9"><defs><style>.cls-1{fill:#e2e7ec;}.cls-12,.cls-19,.cls-2,.cls-5{fill:none;}.cls-2{stroke:#e2e7ec;stroke-linecap:round;stroke-linejoin:round;}.cls-2,.cls-5{stroke-width:2px;}.cls-3{fill:#fff;}.cls-4{fill:#e6e7e8;}.cls-12,.cls-5{stroke:#1b2c38;}.cls-12,.cls-19,.cls-5{stroke-miterlimit:10;}.cls-6{fill:#e7643e;}.cls-7{fill:#47cbd7;}.cls-8{fill:#f5ab35;}.cls-9{fill:#cfeaf3;}.cls-10{fill:#f2f3f4;}.cls-11{fill:#f1f2f2;}.cls-13{fill:#fc3e59;}.cls-14{fill:#e52e51;}.cls-15{fill:#ffd86f;}.cls-16{fill:#ffcb05;}.cls-17{fill:#1b2c38;}.cls-18{fill:#27c7cd;}.cls-19{stroke:#414042;}</style></defs><title>07-we-offer</title><g id="Layer_3" data-name="Layer 3"><path class="cls-1" d="M244.74,324H202.52a1.25,1.25,0,1,1,0-2.5h42.22a50.31,50.31,0,1,0-18.51-97.05,1.25,1.25,0,0,1-1,0,1.27,1.27,0,0,1-.65-.8A78,78,0,0,0,71.3,240.19a1.27,1.27,0,0,1-.59,1,1.25,1.25,0,0,1-1.16.08,41.87,41.87,0,1,0-16.8,80.22h96.71a1.25,1.25,0,1,1,0,2.5H52.75a44.38,44.38,0,0,1,0-88.75A44,44,0,0,1,68.9,238.3a80.46,80.46,0,0,1,157.72-16.67A52.79,52.79,0,1,1,244.74,324Z" transform="translate(-8.38 -25.96)"/><path class="cls-1" d="M556.89,240.25H383.61a35.39,35.39,0,1,1,0-70.78,35.06,35.06,0,0,1,11.85,2.06,53.78,53.78,0,0,1,105.29,11,29.74,29.74,0,0,1,38.59,18.18,23.44,23.44,0,0,1,17.55-7.82,1.13,1.13,0,0,1,0,2.26,21.22,21.22,0,0,0-17.11,8.59,1.11,1.11,0,0,1-1.12.43,1.12,1.12,0,0,1-.88-.82,27.48,27.48,0,0,0-37.62-18.14,1.15,1.15,0,0,1-1.05-.07,1.12,1.12,0,0,1-.53-.92,51.51,51.51,0,0,0-101.27-10.95,1.11,1.11,0,0,1-.58.72,1.12,1.12,0,0,1-.93,0A33.12,33.12,0,1,0,383.61,238H556.89a21.49,21.49,0,0,0,19.33-12.23,1.14,1.14,0,0,1,1.51-.53,1.12,1.12,0,0,1,.54,1.5A23.79,23.79,0,0,1,556.89,240.25Z" transform="translate(-8.38 -25.96)"/><path class="cls-2" d="M417.48,27.69A25.76,25.76,0,0,1,423.6,27a26.14,26.14,0,0,1,25.26,19.45,17,17,0,1,1,6.25,32.79H441.19" transform="translate(-8.38 -25.96)"/><path class="cls-2" d="M401.42,39.3a26.13,26.13,0,0,1,10.46-9.56" transform="translate(-8.38 -25.96)"/><path class="cls-2" d="M383,53.83A14.2,14.2,0,0,1,397.51,52a25.83,25.83,0,0,1,1.65-8.08" transform="translate(-8.38 -25.96)"/><path class="cls-2" d="M423.7,79.2H391.81A14.22,14.22,0,0,1,377.59,65" transform="translate(-8.38 -25.96)"/><line class="cls-2" x1="428.01" y1="53.24" x2="420.12" y2="53.24"/></g><g id="Seo"><path class="cls-3" d="M158.87,63.86H426a3,3,0,0,1,3,3v317a0,0,0,0,1,0,0H155.87a0,0,0,0,1,0,0v-317A3,3,0,0,1,158.87,63.86Z"/><path class="cls-4" d="M158.87,63.86H426a3,3,0,0,1,3,3V92.46a0,0,0,0,1,0,0H155.87a0,0,0,0,1,0,0V66.86A3,3,0,0,1,158.87,63.86Z"/><path class="cls-5" d="M164.25,409.86v-317a3,3,0,0,1,3-3H434.39a3,3,0,0,1,3,3v317" transform="translate(-8.38 -25.96)"/><path class="cls-6" d="M192.47,104.12A3.17,3.17,0,1,1,189.3,101,3.17,3.17,0,0,1,192.47,104.12Z" transform="translate(-8.38 -25.96)"/><path class="cls-7" d="M204.48,104.12a3.16,3.16,0,1,1-3.16-3.16A3.16,3.16,0,0,1,204.48,104.12Z" transform="translate(-8.38 -25.96)"/><circle class="cls-8" cx="204.96" cy="78.16" r="3.16"/><rect class="cls-3" x="228.69" y="74.84" width="165.49" height="7.15"/><line class="cls-5" x1="155.42" y1="92.41" x2="429.01" y2="92.41"/><rect class="cls-9" x="205.59" y="121.1" width="173.7" height="67.07"/><rect class="cls-10" x="205.59" y="194.57" width="84.78" height="56.58"/><rect class="cls-10" x="296.37" y="194.57" width="82.92" height="56.58"/><rect class="cls-4" x="241.8" y="264.19" width="101.59" height="6.71"/><rect class="cls-11" x="208.77" y="285.79" width="173.91" height="4.82"/><rect class="cls-11" x="208.77" y="294.54" width="173.91" height="4.82"/><rect class="cls-11" x="237.56" y="303.3" width="116.33" height="4.82"/><rect class="cls-4" x="207.91" y="332.03" width="171.38" height="43.77"/><line class="cls-12" x1="434.57" y1="134.62" x2="430.92" y2="140.44"/><line class="cls-12" x1="453.69" y1="141.09" x2="444.2" y2="150.6"/><line class="cls-12" x1="460.21" y1="160.49" x2="454.4" y2="163.86"/><line class="cls-12" x1="473.8" y1="175.79" x2="460.82" y2="179.3"/><line class="cls-12" x1="469.76" y1="196.03" x2="463.04" y2="195.87"/><line class="cls-12" x1="473.89" y1="215.9" x2="460.91" y2="212.46"/><line class="cls-12" x1="460.82" y1="231.27" x2="454.55" y2="227.93"/><line class="cls-12" x1="453.95" y1="250.7" x2="444.42" y2="241.23"/><line class="cls-12" x1="434.57" y1="257.27" x2="431.19" y2="251.47"/><path class="cls-13" d="M465.66,231.43l.55-11.3-11.27-.55a47.29,47.29,0,0,0-2.63-13.39l10.23-5.26-5.18-10.06-10,5.17a48.1,48.1,0,0,0-9-10.27l6.22-9.69L435.05,170l-6.1,9.5a47.3,47.3,0,0,0-12.92-4.4l.54-11.49-11.3-.53-.53,11.27a47.21,47.21,0,0,0-13,2.53l-5.2-10.26-10.09,5.11,5.11,10.08a47.79,47.79,0,0,0-10.33,8.91l-9.64-6.29-6.18,9.48,9.46,6.16a47.35,47.35,0,0,0-4.48,12.89l-11.49-.61-.6,11.29,11.28.6a47.38,47.38,0,0,0,2.57,13.4l-10.26,5.22L357,252.91l10.06-5.13A48.13,48.13,0,0,0,376,258.09l-6.27,9.66,9.49,6.15,6.14-9.47a47.59,47.59,0,0,0,12.9,4.45l-.59,11.49L409,281l.58-11.27a48,48,0,0,0,13.39-2.6l5.24,10.24,10.07-5.16-5.15-10.05a48.36,48.36,0,0,0,10.29-9l9.67,6.25,6.14-9.51-9.49-6.12a47.2,47.2,0,0,0,4.42-12.9ZM379.76,223a27.52,27.52,0,1,1,24,26.34A27.53,27.53,0,0,1,379.76,223Z" transform="translate(-8.38 -25.96)"/><path class="cls-14" d="M407.26,187.34a34.47,34.47,0,1,0,34.46,34.46A34.46,34.46,0,0,0,407.26,187.34ZM406,249.48a27.52,27.52,0,1,1,28.77-26.2A27.51,27.51,0,0,1,406,249.48Z" transform="translate(-8.38 -25.96)"/><path class="cls-15" d="M235.83,255.86l-5.23-28.35A53.91,53.91,0,1,0,210,251.13Z" transform="translate(-8.38 -25.96)"/><path class="cls-12" d="M181.54,259.36a53.42,53.42,0,0,0,28.5-8.23l25.79,4.73-5.23-28.35" transform="translate(-8.38 -25.96)"/><circle class="cls-16" cx="180.98" cy="205.77" r="38.19" transform="translate(-38.29 4.82) rotate(-8.98)"/><path class="cls-17" d="M180.5,230.33V226a25.87,25.87,0,0,1-14.68-6.51l4.36-5.18a20.6,20.6,0,0,0,10.32,5.18V207.9q-6.75-1.6-9.88-4.23c-2.08-1.75-3.13-4.34-3.13-7.79a10.86,10.86,0,0,1,3.61-8.43,14.61,14.61,0,0,1,9.4-3.58v-3h3.81v3a24.87,24.87,0,0,1,12.41,4.47l-3.88,5.49a19.23,19.23,0,0,0-8.53-3.46v11.21h.18q6.85,1.61,10.08,4.36t3.22,8a10.82,10.82,0,0,1-3.7,8.5,15.41,15.41,0,0,1-9.78,3.58v4.29Zm-4.21-38.5a4.59,4.59,0,0,0-.33,6.5,11.92,11.92,0,0,0,4.54,2.24V190.25A7.18,7.18,0,0,0,176.29,191.83ZM188.85,218a4.28,4.28,0,0,0,1.67-3.46,4.35,4.35,0,0,0-1.31-3.31,13.21,13.21,0,0,0-4.9-2.29v10.73A8.28,8.28,0,0,0,188.85,218Z" transform="translate(-8.38 -25.96)"/><path class="cls-17" d="M157.36,262.52a2.91,2.91,0,1,0,3.74-1.71A2.91,2.91,0,0,0,157.36,262.52Z" transform="translate(-8.38 -25.96)"/><path class="cls-17" d="M139.35,251a2.91,2.91,0,1,0,4.1-.34A2.91,2.91,0,0,0,139.35,251Z" transform="translate(-8.38 -25.96)"/><path class="cls-17" d="M126.37,234a2.91,2.91,0,1,0,4,1.09A2.91,2.91,0,0,0,126.37,234Z" transform="translate(-8.38 -25.96)"/><path class="cls-17" d="M120,213.58a2.91,2.91,0,1,0,3.35,2.39A2.91,2.91,0,0,0,120,213.58Z" transform="translate(-8.38 -25.96)"/><path class="cls-17" d="M121,192.22a2.91,2.91,0,1,0,2.33,3.39A2.91,2.91,0,0,0,121,192.22Z" transform="translate(-8.38 -25.96)"/><path class="cls-17" d="M129.29,172.5a2.91,2.91,0,1,0,1,4A2.9,2.9,0,0,0,129.29,172.5Z" transform="translate(-8.38 -25.96)"/><path class="cls-17" d="M143.81,156.8a2.91,2.91,0,1,0-.39,4.1A2.9,2.9,0,0,0,143.81,156.8Z" transform="translate(-8.38 -25.96)"/><path class="cls-17" d="M162.84,147a2.91,2.91,0,1,0-1.78,3.71A2.91,2.91,0,0,0,162.84,147Z" transform="translate(-8.38 -25.96)"/><polygon class="cls-16" points="427.02 320.83 415.01 320.83 405.12 307.33 387.99 302.39 372.14 310.16 359.6 320.83 338.5 325.45 318.71 313.7 295.39 274.06 284.87 287.83 269.24 322.18 230.33 336.13 210.8 329.46 194.72 336.13 177.84 329.46 157.25 342.81 157.25 384.09 427.02 384.09 427.02 320.83"/><polygon class="cls-15" points="427.19 329.46 415.01 343.54 405.12 342.81 387.99 325.45 372.14 336.71 359.6 343.54 334.44 353.28 318.71 338.98 300.9 307.42 290.8 296.03 269.24 344.41 239.79 359.64 210.8 342.81 194.72 353.35 177.84 349.07 157.25 357.63 157.25 384.09 427.02 384.09 427.19 329.46"/><rect class="cls-17" x="288.81" y="321.42" width="6.55" height="37.82"/><rect class="cls-13" x="279.38" y="340.33" width="12.71" height="43.32"/><rect class="cls-13" x="292.08" y="340.33" width="12.7" height="43.32"/><line class="cls-12" x1="278.76" y1="354.36" x2="305.41" y2="354.36"/><line class="cls-12" x1="278.76" y1="363.31" x2="305.41" y2="363.31"/><path class="cls-18" d="M363.91,306.66l0-11.91-11.89,0a50.09,50.09,0,0,0-3.42-14l10.5-6-5.94-10.33-10.32,5.94A50.18,50.18,0,0,0,332.91,260l6.08-10.5-10.32-6-5.95,10.29a50.18,50.18,0,0,0-13.81-4V237.68H297v11.89a49.4,49.4,0,0,0-13.56,3.3l-6-10.55L267.1,248.2,273,258.55a50.71,50.71,0,0,0-10.43,9.89l-10.46-6.14-6,10.28,10.25,6a50,50,0,0,0-4.08,13.78l-12.12-.07L240,304.21l11.89.08a50.09,50.09,0,0,0,3.36,14l-10.53,6,5.9,10.35L261,328.72a50.44,50.44,0,0,0,9.91,10.41l-6.12,10.47,10.29,6,6-10.27a49.6,49.6,0,0,0,13.79,4.05l-.05,12.12,11.91.05,0-11.89a50,50,0,0,0,14-3.39l6,10.51,10.34-5.92-5.91-10.32a50.65,50.65,0,0,0,10.38-9.93l10.49,6.09,6-10.3-10.28-6a50,50,0,0,0,4-13.79ZM264.6,302a37.47,37.47,0,1,1,34.95,35A37.47,37.47,0,0,1,264.6,302Z" transform="translate(-8.38 -25.96)"/><path class="cls-5" d="M363.91,306.66l0-11.91-11.89,0a50.09,50.09,0,0,0-3.42-14l10.5-6-5.94-10.33-10.32,5.94A50.18,50.18,0,0,0,332.91,260l6.08-10.5-10.32-6-5.95,10.29a50.18,50.18,0,0,0-13.81-4V237.68H297v11.89a49.4,49.4,0,0,0-13.56,3.3l-6-10.55L267.1,248.2,273,258.55a50.71,50.71,0,0,0-10.43,9.89l-10.46-6.14-6,10.28,10.25,6a50,50,0,0,0-4.08,13.78l-12.12-.07L240,304.21l11.89.08a50.09,50.09,0,0,0,3.36,14l-10.53,6,5.9,10.35L261,328.72a50.44,50.44,0,0,0,9.91,10.41l-6.12,10.47,10.29,6,6-10.27a49.6,49.6,0,0,0,13.79,4.05l-.05,12.12,11.91.05,0-11.89a50,50,0,0,0,14-3.39l6,10.51,10.34-5.92-5.91-10.32a50.65,50.65,0,0,0,10.38-9.93l10.49,6.09,6-10.3-10.28-6a50,50,0,0,0,4-13.79Zm-99.39-7.05A37.47,37.47,0,1,1,302,337.08,37.48,37.48,0,0,1,264.52,299.61Z" transform="translate(-8.38 -25.96)"/><line class="cls-5" x1="109.15" y1="383.9" x2="478.86" y2="383.9"/><path class="cls-12" d="M348,60a2.7,2.7,0,1,1-2.7-2.7A2.7,2.7,0,0,1,348,60Z" transform="translate(-8.38 -25.96)"/><path class="cls-12" d="M460.54,309.76a2.7,2.7,0,1,1-2.69-2.7A2.69,2.69,0,0,1,460.54,309.76Z" transform="translate(-8.38 -25.96)"/><line class="cls-12" x1="154.19" y1="48.74" x2="223.14" y2="48.74"/><line class="cls-12" x1="231.65" y1="48.74" x2="226.02" y2="48.74"/><line class="cls-12" x1="240.15" y1="48.74" x2="235.09" y2="48.74"/><line class="cls-12" x1="249.5" y1="48.74" x2="259.11" y2="48.74"/><line class="cls-12" x1="254.3" y1="53.55" x2="254.3" y2="43.93"/><line class="cls-12" x1="471.58" y1="311.11" x2="481.19" y2="311.11"/><line class="cls-12" x1="476.38" y1="315.92" x2="476.38" y2="306.31"/><line class="cls-12" x1="119.96" y1="81.99" x2="129.57" y2="81.99"/><line class="cls-12" x1="124.77" y1="86.8" x2="124.77" y2="77.19"/><line class="cls-12" x1="88.81" y1="233.4" x2="98.42" y2="233.4"/><line class="cls-12" x1="93.62" y1="238.21" x2="93.62" y2="228.59"/><line class="cls-12" x1="231.66" y1="34.05" x2="318.56" y2="34.05"/><line class="cls-12" x1="321.38" y1="48.74" x2="359.01" y2="48.74"/><line class="cls-12" x1="437.65" y1="310.91" x2="457" y2="310.91"/><line class="cls-19" x1="95.07" y1="329.08" x2="143.74" y2="329.08"/><polygon class="cls-12" points="302.76 48.74 310.43 53.17 310.43 44.31 302.76 48.74 310.43 53.17 310.43 44.31 302.76 48.74"/><polygon class="cls-12" points="463.47 267.55 471.15 271.98 471.15 263.12 463.47 267.55 471.15 271.98 471.15 263.12 463.47 267.55"/><polygon class="cls-12" points="418.61 35.62 410.93 40.05 410.93 31.19 418.61 35.62 410.93 40.05 410.93 31.19 418.61 35.62"/><polygon class="cls-12" points="123.24 115.97 115.57 120.4 115.57 111.54 123.24 115.97 115.57 120.4 115.57 111.54 123.24 115.97"/></g></svg>