<svg id="Seo" xmlns="http://www.w3.org/2000/svg" viewBox="0 0 569.9 388.66"><defs><style>.cls-1{fill:#e23052;}.cls-2{fill:#d12850;}.cls-3{fill:#f1f2ec;}.cls-4{fill:#1b2c38;}.cls-5{fill:#ffcb05;}.cls-6{fill:#f8d87e;}.cls-7{fill:#fc3e59;}</style></defs><title>09-story-company</title><polygon class="cls-1" points="204.68 140.17 137.36 140.17 147.8 106.19 137.36 72.21 204.68 72.21 204.68 140.17"/><polygon class="cls-2" points="173.38 78.13 204.68 72.21 203.62 90.98 173.38 78.13"/><path class="cls-3" d="M293.91,328.65h-5.74a8.75,8.75,0,0,1-8.72-8.72h0a8.75,8.75,0,0,1,8.72-8.72h5.74a8.75,8.75,0,0,1,8.72,8.72h0A8.75,8.75,0,0,1,293.91,328.65Z" transform="translate(-0.08 -25.72)"/><path class="cls-4" d="M293.91,330.12h-5.74a10.2,10.2,0,1,1,0-20.39h5.74a10.2,10.2,0,1,1,0,20.39Zm-5.74-17.43a7.24,7.24,0,0,0,0,14.48h5.74a7.24,7.24,0,0,0,0-14.48Z" transform="translate(-0.08 -25.72)"/><path class="cls-4" d="M295.27,375h-1.36v-3h1.35c1.51,0,3,0,4.51-.08l.1,3C298.35,375,296.82,375,295.27,375Zm-7.35-.2c-2-.11-4-.26-6-.47l.3-2.94c1.94.2,3.88.35,5.84.46Zm17.94-.22-.24-2.94q2.92-.26,5.82-.61l.37,2.94Q308.85,374.37,305.86,374.6Zm-29.85-1q-3-.44-5.91-1l.58-2.9c1.9.37,3.83.7,5.76,1Zm41.72-.51-.51-2.91q2.89-.51,5.74-1.14l.64,2.89Q320.69,372.59,317.73,373.1Zm-53.47-1.78q-2.91-.7-5.78-1.55l.83-2.84c1.87.55,3.75,1.05,5.65,1.52Zm65.15-.8-.77-2.86c1.89-.51,3.75-1.06,5.6-1.65l.9,2.82Q332.31,369.73,329.41,370.52Zm11.38-3.64-1-2.78q2.75-1,5.43-2.16l1.15,2.72Q343.61,365.83,340.79,366.88Zm11-4.69-1.28-2.66c1.76-.85,3.5-1.73,5.21-2.66l1.4,2.61Q354.5,360.91,351.79,362.19Zm10.53-5.67L360.8,354q2.51-1.51,4.94-3.12l1.64,2.46C365.72,354.43,364,355.5,362.32,356.52Zm10-6.61-1.75-2.39q2.35-1.72,4.65-3.56l1.85,2.31Q374.7,348.15,372.29,349.91Zm9.33-7.49-2-2.22c1.46-1.29,2.89-2.62,4.3-4l2.05,2.13C384.58,339.75,383.11,341.1,381.62,342.42Zm8.6-8.32-2.15-2c1.34-1.42,2.65-2.86,3.92-4.34l2.24,1.93Q392.28,331.93,390.22,334.1ZM398,325l-2.33-1.83c1.2-1.53,2.38-3.09,3.51-4.68l2.41,1.72Q399.89,322.68,398,325ZM405,315.3l-2.48-1.61q1.59-2.46,3.07-5l2.55,1.49C407.12,311.92,406.08,313.63,405,315.3ZM411,305l-2.63-1.37c.91-1.73,1.77-3.48,2.6-5.25l2.68,1.25C412.85,301.41,412,303.19,411,305Z" transform="translate(-0.08 -25.72)"/><path class="cls-4" d="M422.73,237.18q-.11-1.89-.27-3.75l3-.25c.11,1.27.2,2.54.27,3.83Zm-.9-9.56c-.25-2-.55-3.87-.89-5.78l2.91-.52c.35,2,.66,3.93.92,5.91Zm-2.05-11.52c-.43-1.9-.91-3.8-1.42-5.67l2.85-.78q.8,2.88,1.46,5.8Zm-3.1-11.27c-.61-1.85-1.25-3.69-1.94-5.51l2.77-1q1,2.79,2,5.63Zm-4.13-10.92q-1.16-2.68-2.43-5.31l2.66-1.29q1.31,2.69,2.49,5.43Zm-5.11-10.5q-1.4-2.57-2.91-5.06l2.53-1.54c1,1.7,2,3.43,3,5.18Zm-6.05-10q-1.63-2.44-3.37-4.78l2.38-1.76q1.77,2.4,3.45,4.89Zm-6.94-9.4c-1.23-1.52-2.49-3-3.79-4.46l2.21-2q2,2.24,3.87,4.56Zm-7.78-8.74c-1.36-1.4-2.76-2.76-4.18-4.1l2-2.16c1.46,1.36,2.88,2.76,4.28,4.19Zm-8.54-8c-1.48-1.26-3-2.5-4.54-3.69l1.82-2.34q2.35,1.84,4.64,3.78Zm-9.24-7.18c-1.59-1.12-3.21-2.22-4.85-3.27l1.59-2.49c1.69,1.08,3.35,2.19,5,3.35ZM359,133.79c-1.69-1-3.4-1.91-5.14-2.81l1.36-2.63q2.67,1.38,5.26,2.88Zm-10.4-5.39q-2.65-1.22-5.37-2.33l1.11-2.74c1.86.76,3.69,1.55,5.5,2.39ZM337.79,124c-1.84-.65-3.69-1.26-5.57-1.83l.86-2.83q2.87.87,5.7,1.86Zm-11.21-3.39c-1.89-.47-3.79-.91-5.71-1.3l.59-2.9c2,.4,3.91.85,5.84,1.33Z" transform="translate(-0.08 -25.72)"/><circle class="cls-5" cx="295.84" cy="220.09" r="113.21"/><path class="cls-6" d="M369.54,159.85H301.9c-6.35,0-11.49,4.5-11.49,10v1.83c0,5.54,5.14,10,11.49,10h32.38c5.77,0,10.44,4.08,10.44,9.12S340.05,200,334.28,200h-9.07c-6.35,0-11.49,4.49-11.49,10s5.14,10,11.49,10h80.94A113.07,113.07,0,0,0,369.54,159.85Z" transform="translate(-0.08 -25.72)"/><path class="cls-4" d="M406.15,221.57H325.21c-7.15,0-13-5.17-13-11.52s5.82-11.52,13-11.52h9.07v3h-9.07c-5.52,0-10,3.84-10,8.56s4.49,8.56,10,8.56h80.94Z" transform="translate(-0.08 -25.72)"/><rect class="cls-4" x="316.62" y="154.56" width="17.58" height="2.96"/><path class="cls-4" d="M291.89,169.89h-3c0-6.35,5.82-11.52,13-11.52h52.85v3H301.9C296.38,161.33,291.89,165.17,291.89,169.89Z" transform="translate(-0.08 -25.72)"/><path class="cls-6" d="M319.44,259.17H183.51a113,113,0,0,0,35.69,69.89h73.2c7.36,0,13.33-5.22,13.33-11.65s-6-11.65-13.33-11.65H281.87c-6.69,0-12.12-4.74-12.12-10.59s5.43-10.59,12.12-10.59h37.57c7.36,0,13.33-5.21,13.33-11.65v-2.11C332.77,264.38,326.8,259.17,319.44,259.17Z" transform="translate(-0.08 -25.72)"/><path class="cls-4" d="M292.4,330.54H219.2v-3h73.2c6.53,0,11.85-4.57,11.85-10.17h3C307.21,324.65,300.57,330.54,292.4,330.54Z" transform="translate(-0.08 -25.72)"/><rect class="cls-4" x="183.43" y="231.97" width="135.93" height="2.96"/><path class="cls-4" d="M319.44,286.06H281.87v-3h37.57c6.54,0,11.85-4.56,11.85-10.17h3C334.25,280.17,327.61,286.06,319.44,286.06Z" transform="translate(-0.08 -25.72)"/><polygon class="cls-7" points="173.38 147.73 274.73 147.73 292.66 78.13 173.38 78.13 173.38 147.73"/><rect class="cls-4" x="197.34" y="166.82" width="157.33" height="3.92" transform="translate(43.53 368.14) rotate(-75.53)"/><path class="cls-3" d="M455.68,309.36h-3a8.11,8.11,0,0,0-1.21-.68c-1.14-.56-2.87-1.41-2.87-3.33s1.73-2.77,2.87-3.33a5,5,0,0,0,1.23-.74l-1.23-.61c-1.14-.56-2.87-1.4-2.87-3.32s1.73-2.77,2.87-3.33a5.33,5.33,0,0,0,1.23-.74l2.94.07c0,1.92-1.73,2.76-2.87,3.32a5.33,5.33,0,0,0-1.23.74l1.23.61c1.14.56,2.87,1.4,2.87,3.32s-1.73,2.77-2.87,3.33a5,5,0,0,0-1.23.75l1.23.61C454,306.59,455.68,307.44,455.68,309.36Z" transform="translate(-0.08 -25.72)"/><path class="cls-3" d="M98,346a4.08,4.08,0,0,0-.69-.38c-.82-.41-2.21-1.09-2.21-2.69s1.39-2.29,2.21-2.69l.07,0-.07,0c-.82-.4-2.21-1.08-2.21-2.68s1.39-2.29,2.21-2.7a3.48,3.48,0,0,0,.69-.38.56.56,0,0,0-.13.36h3c0,1.6-1.38,2.28-2.21,2.68l-.07,0,.07,0c.82.41,2.21,1.09,2.21,2.69s-1.38,2.29-2.21,2.69l-.07,0,.07,0c.83.41,2.21,1.09,2.21,2.69h-3A.55.55,0,0,0,98,346Z" transform="translate(-0.08 -25.72)"/><path class="cls-3" d="M183.54,62.27a4.28,4.28,0,0,0-.68-.39c-.83-.4-2.22-1.09-2.22-2.69s1.39-2.28,2.22-2.69l.06,0-.06,0c-.83-.41-2.22-1.09-2.22-2.69s1.39-2.28,2.22-2.69a4.35,4.35,0,0,0,.68-.38.55.55,0,0,0-.13.35h3c0,1.6-1.38,2.28-2.21,2.69l-.06,0,.06,0c.83.41,2.21,1.08,2.21,2.69s-1.38,2.28-2.21,2.69l-.07,0,.07,0c.83.4,2.21,1.08,2.21,2.69h-3A.55.55,0,0,0,183.54,62.27Z" transform="translate(-0.08 -25.72)"/><rect class="cls-3" y="199.36" width="55.41" height="2.96"/><rect class="cls-3" x="57.77" y="199.36" width="4.79" height="2.96"/><rect class="cls-3" x="64.86" y="199.36" width="4.79" height="2.96"/><rect class="cls-3" x="319.85" y="374.42" width="55.41" height="2.96"/><rect class="cls-3" x="377.62" y="374.42" width="4.79" height="2.96"/><rect class="cls-3" x="384.71" y="374.42" width="4.79" height="2.96"/><rect class="cls-3" x="450.14" y="123.55" width="55.41" height="2.96"/><rect class="cls-3" x="442.99" y="123.55" width="4.79" height="2.96"/><rect class="cls-3" x="435.89" y="123.55" width="4.79" height="2.96"/><rect class="cls-3" x="482.5" y="280.32" width="8.2" height="2.96"/><rect class="cls-3" x="485.13" y="277.7" width="2.96" height="8.2"/><rect class="cls-3" x="76.76" y="232.55" width="8.2" height="2.96"/><rect class="cls-3" x="79.38" y="229.93" width="2.96" height="8.2"/><rect class="cls-3" x="138.75" y="52.87" width="8.2" height="2.96"/><rect class="cls-3" x="141.37" y="50.25" width="2.96" height="8.2"/><rect class="cls-4" x="360.11" y="56.84" width="5.16" height="2.96"/><rect class="cls-4" x="366.31" y="50.64" width="2.96" height="5.21"/><rect class="cls-4" x="370.3" y="56.84" width="5.16" height="2.96"/><rect class="cls-4" x="366.31" y="60.78" width="2.96" height="5.21"/><rect class="cls-4" x="134.03" y="310.19" width="4.83" height="2.96"/><rect class="cls-4" x="139.74" y="304.49" width="2.96" height="4.88"/><rect class="cls-4" x="143.57" y="310.19" width="4.83" height="2.96"/><rect class="cls-4" x="139.74" y="313.98" width="2.96" height="4.88"/><rect class="cls-3" x="23.8" y="167.62" width="3.94" height="2.96"/><rect class="cls-3" x="28.17" y="163.25" width="2.96" height="3.97"/><rect class="cls-3" x="31.56" y="167.62" width="3.93" height="2.96"/><rect class="cls-3" x="28.17" y="170.98" width="2.96" height="3.97"/><rect class="cls-3" x="48.53" y="187.66" width="50.15" height="2.96"/><rect class="cls-3" x="452.08" y="235.16" width="117.81" height="2.96"/><rect class="cls-4" x="399.06" y="192.88" width="50.15" height="2.96"/><rect class="cls-4" x="119.57" y="231.97" width="76.7" height="2.96"/><rect class="cls-3" x="190.94" y="385.7" width="153.56" height="2.96"/><rect class="cls-4" x="248.63" y="34.72" width="147.26" height="2.96"/><path class="cls-3" d="M239.58,37.59a7.44,7.44,0,1,1-7.44-7.43A7.44,7.44,0,0,1,239.58,37.59Z" transform="translate(-0.08 -25.72)"/><path class="cls-3" d="M224.73,40.56a7.42,7.42,0,1,1,7.42-7.42A7.43,7.43,0,0,1,224.73,40.56Zm0-11.88a4.46,4.46,0,1,0,4.46,4.46A4.46,4.46,0,0,0,224.73,28.68Z" transform="translate(-0.08 -25.72)"/><path class="cls-3" d="M527.43,294.83a7.43,7.43,0,1,1-7.43-7.44A7.43,7.43,0,0,1,527.43,294.83Z" transform="translate(-0.08 -25.72)"/><path class="cls-3" d="M512.58,297.79a7.42,7.42,0,1,1,7.42-7.42A7.43,7.43,0,0,1,512.58,297.79Zm0-11.88a4.46,4.46,0,1,0,4.46,4.46A4.46,4.46,0,0,0,512.58,285.91Z" transform="translate(-0.08 -25.72)"/><path class="cls-3" d="M110.41,295.59a7.44,7.44,0,1,1-7.44-7.43A7.43,7.43,0,0,1,110.41,295.59Z" transform="translate(-0.08 -25.72)"/><path class="cls-3" d="M95.56,298.56a7.42,7.42,0,1,1,7.42-7.42A7.43,7.43,0,0,1,95.56,298.56Zm0-11.88a4.46,4.46,0,1,0,4.46,4.46A4.46,4.46,0,0,0,95.56,286.68Z" transform="translate(-0.08 -25.72)"/></svg>