<svg xmlns="http://www.w3.org/2000/svg" viewBox="0 0 570 303.41"><defs><style>.cls-1{fill:#f1f2ec;}.cls-2{fill:#6c6ff2;}.cls-21,.cls-24,.cls-3,.cls-4,.cls-5,.cls-9{fill:none;}.cls-13,.cls-19,.cls-24,.cls-3,.cls-4{stroke:#1b2c38;}.cls-13,.cls-19,.cls-21,.cls-24,.cls-3,.cls-4,.cls-5,.cls-9{stroke-miterlimit:10;}.cls-3{stroke-width:2px;}.cls-5{stroke:#fff;}.cls-6{fill:#d9dfe7;}.cls-7{fill:#636c78;}.cls-8{fill:#fff;}.cls-9{stroke:#414042;}.cls-10{fill:#27c7cd;}.cls-11{fill:#91e0e7;}.cls-12{fill:#e7643e;}.cls-13,.cls-14{fill:#fc3e59;}.cls-15{fill:#757474;}.cls-16{fill:#ffcb05;}.cls-17{fill:#e6e7e8;}.cls-18{fill:#535151;}.cls-19,.cls-23{fill:#e22b4f;}.cls-20{fill:#1b2c38;}.cls-21{stroke:#181e23;}.cls-22{fill:#f1f2f2;}.cls-24{stroke-dasharray:2;}.cls-25{fill:#f2d889;}</style></defs><title>10-we-work</title><g id="My_office" data-name="My office"><rect class="cls-1" x="104.88" y="13.72" width="93.38" height="116.2"/><rect class="cls-2" x="112.78" y="23.55" width="77.59" height="96.55"/><rect class="cls-3" x="104.88" y="13.72" width="93.38" height="116.2"/><rect class="cls-4" x="112.78" y="23.55" width="77.59" height="96.55"/><line class="cls-5" x1="127.62" y1="46.51" x2="175.52" y2="46.51"/><line class="cls-5" x1="127.62" y1="56.94" x2="175.52" y2="56.94"/><line class="cls-5" x1="127.62" y1="67.36" x2="175.52" y2="67.36"/><line class="cls-5" x1="127.62" y1="77.79" x2="175.52" y2="77.79"/><line class="cls-5" x1="127.62" y1="88.21" x2="175.52" y2="88.21"/><line class="cls-5" x1="127.62" y1="98.64" x2="175.52" y2="98.64"/><rect class="cls-1" x="243.66" y="256.7" width="77.21" height="45.71"/><rect class="cls-6" x="243.66" y="256.7" width="77.21" height="22.85"/><rect class="cls-3" x="243.66" y="256.7" width="77.21" height="45.71"/><rect class="cls-7" x="155.21" y="81.17" width="253.8" height="152.43"/><rect class="cls-1" x="168.04" y="96.07" width="228.75" height="120.4"/><rect class="cls-8" x="156.57" y="228" width="250.63" height="34.61"/><rect class="cls-3" x="156.57" y="228" width="251.44" height="34.61"/><line class="cls-9" x1="228.65" y1="302.41" x2="336.89" y2="302.41"/><path class="cls-3" d="M291.21,380.91a10.16,10.16,0,1,1-10.16-10.17A10.16,10.16,0,0,1,291.21,380.91Z" transform="translate(62.43 -88.66)"/><path class="cls-3" d="M290.78,378.89a5.58,5.58,0,0,1,11.16,0" transform="translate(62.43 -88.66)"/><path class="cls-3" d="M322,380.91a10.16,10.16,0,1,1-10.16-10.17A10.16,10.16,0,0,1,322,380.91Z" transform="translate(62.43 -88.66)"/><line class="cls-3" x1="333.32" y1="292.24" x2="382.31" y2="298.42"/><line class="cls-3" x1="335.07" y1="298.42" x2="384.06" y2="292.24"/><path class="cls-10" d="M142.12,331.39H84.7v17.45a49.45,49.45,0,0,0,13.07,33.51h0v8.72h31.28v-8.72h0a49.45,49.45,0,0,0,13.07-33.51Z" transform="translate(62.43 -88.66)"/><path class="cls-11" d="M130.31,331.39v17.45a49.49,49.49,0,0,1-13.07,33.51h0v8.72H124v-8.72h0a49.49,49.49,0,0,0,13.07-33.51V331.39Z" transform="translate(62.43 -88.66)"/><path class="cls-3" d="M142.12,331.39H84.7v17.45a49.45,49.45,0,0,0,13.07,33.51h0v8.72h31.28v-8.72h0a49.45,49.45,0,0,0,13.07-33.51Z" transform="translate(62.43 -88.66)"/><path class="cls-3" d="M87.61,364.42H78.17a12.31,12.31,0,0,1-12.28-12.27h0a12.31,12.31,0,0,1,12.28-12.28h6.07" transform="translate(62.43 -88.66)"/><path class="cls-3" d="M106.15,325.16v-3.43a9.2,9.2,0,0,1,9.21-9.2h8.48a3.32,3.32,0,0,0,3.31-3.32h0a3.31,3.31,0,0,0-3.31-3.31H97.16a3,3,0,0,1-3-3h0a3,3,0,0,1,3-3h11.21" transform="translate(62.43 -88.66)"/><path class="cls-3" d="M113,300.49h9.65a3.4,3.4,0,0,0,3.39-3.4h0a3.39,3.39,0,0,0-3.39-3.39H97.82A3.68,3.68,0,0,1,94.14,290h0a3.68,3.68,0,0,1,3.68-3.68H133.9" transform="translate(62.43 -88.66)"/><path class="cls-12" d="M94.14,331.39v8a3.71,3.71,0,0,0,3.71,3.72h0a3.71,3.71,0,0,0,3.72-3.72h0a3.17,3.17,0,0,1,3.17-3.17h0a3.17,3.17,0,0,1,3.17,3.17V348a4.12,4.12,0,0,0,4.12,4.12h0a4.12,4.12,0,0,0,4.11-4.12V331.39Z" transform="translate(62.43 -88.66)"/><path class="cls-13" d="M94.14,331.39v8a3.71,3.71,0,0,0,3.71,3.72h0a3.71,3.71,0,0,0,3.72-3.72h0a3.17,3.17,0,0,1,3.17-3.17h0a3.17,3.17,0,0,1,3.17,3.17V348a4.12,4.12,0,0,0,4.12,4.12h0a4.12,4.12,0,0,0,4.11-4.12V331.39Z" transform="translate(62.43 -88.66)"/><path class="cls-14" d="M393,384.84V360.68c0-6.61,4.32-12,9.6-12h0c5.28,0,9.61,5.4,9.61,12v24.16Z" transform="translate(62.43 -88.66)"/><path class="cls-4" d="M393,384.84V360.68c0-6.61,4.32-12,9.6-12h0c5.28,0,9.61,5.4,9.61,12v24.16Z" transform="translate(62.43 -88.66)"/><line class="cls-4" x1="428.02" y1="123.45" x2="490.74" y2="179.99"/><line class="cls-4" x1="423.11" y1="128.9" x2="485.82" y2="185.44"/><line class="cls-4" x1="461.64" y1="267.3" x2="486.13" y2="186.49"/><line class="cls-4" x1="468.67" y1="269.43" x2="493.16" y2="188.62"/><path class="cls-15" d="M338.36,222.5l17.6-4.56a8.53,8.53,0,0,0,6.1-10.36h0a8.54,8.54,0,0,0-10.37-6.1L334.09,206A8.53,8.53,0,0,0,328,216.41h0A8.52,8.52,0,0,0,338.36,222.5Z" transform="translate(62.43 -88.66)"/><path class="cls-4" d="M338.36,222.5l17.6-4.56a8.53,8.53,0,0,0,6.1-10.36h0a8.54,8.54,0,0,0-10.37-6.1L334.09,206A8.53,8.53,0,0,0,328,216.41h0A8.52,8.52,0,0,0,338.36,222.5Z" transform="translate(62.43 -88.66)"/><path class="cls-16" d="M304.1,250.72a10.82,10.82,0,1,0,13.39-7.39A10.82,10.82,0,0,0,304.1,250.72Z" transform="translate(62.43 -88.66)"/><path class="cls-17" d="M315.2,207.22A11.84,11.84,0,1,1,338,213.78Z" transform="translate(62.43 -88.66)"/><polygon class="cls-14" points="352.56 157.62 401.3 171.68 405.86 134.7 367.87 123.74 352.56 157.62"/><rect class="cls-18" x="321.67" y="194.35" width="7.65" height="39.4" transform="translate(683.77 -128.05) rotate(106.09)"/><path class="cls-4" d="M315.2,207.22A11.84,11.84,0,1,1,338,213.78Z" transform="translate(62.43 -88.66)"/><polyline class="cls-19" points="405.79 134.52 407.91 127.17 370.05 116.26 367.93 123.6"/><polygon class="cls-4" points="352.48 157.79 401.21 171.84 405.78 134.86 367.79 123.91 352.48 157.79"/><path class="cls-20" d="M347.12,211.45a9.5,9.5,0,1,0,6.81-11.58A9.5,9.5,0,0,0,347.12,211.45Z" transform="translate(62.43 -88.66)"/><path class="cls-21" d="M347.12,211.45a9.5,9.5,0,1,0,6.81-11.58A9.5,9.5,0,0,0,347.12,211.45Z" transform="translate(62.43 -88.66)"/><path class="cls-22" d="M352.21,210.13a4.25,4.25,0,1,0,3-5.18A4.24,4.24,0,0,0,352.21,210.13Z" transform="translate(62.43 -88.66)"/><path class="cls-20" d="M418.57,273.36a9.5,9.5,0,1,0,9.5-9.5A9.5,9.5,0,0,0,418.57,273.36Z" transform="translate(62.43 -88.66)"/><path class="cls-21" d="M418.57,273.36a9.5,9.5,0,1,0,9.5-9.5A9.5,9.5,0,0,0,418.57,273.36Z" transform="translate(62.43 -88.66)"/><path class="cls-22" d="M423.82,273.36a4.25,4.25,0,1,0,4.25-4.24A4.25,4.25,0,0,0,423.82,273.36Z" transform="translate(62.43 -88.66)"/><path class="cls-20" d="M393,358.32a9.5,9.5,0,1,0,9.5-9.5A9.5,9.5,0,0,0,393,358.32Z" transform="translate(62.43 -88.66)"/><path class="cls-21" d="M393,358.32a9.5,9.5,0,1,0,9.5-9.5A9.5,9.5,0,0,0,393,358.32Z" transform="translate(62.43 -88.66)"/><path class="cls-22" d="M398.2,358.32a4.25,4.25,0,1,0,4.25-4.25A4.25,4.25,0,0,0,398.2,358.32Z" transform="translate(62.43 -88.66)"/><line class="cls-4" x1="461.07" y1="153.24" x2="456.63" y2="159.13"/><line class="cls-4" x1="474.58" y1="224.59" x2="480.91" y2="226.78"/><rect class="cls-23" x="350.36" y="383" width="77" height="8.07" transform="translate(840.16 685.41) rotate(180)"/><rect class="cls-4" x="350.36" y="383" width="77" height="8.07" transform="translate(840.16 685.41) rotate(180)"/><line class="cls-4" x1="314.36" y1="22" x2="318.83" y2="22"/><line class="cls-4" x1="325.93" y1="22" x2="330.41" y2="22"/><line class="cls-4" x1="322.38" y1="30.02" x2="322.38" y2="25.55"/><line class="cls-4" x1="322.38" y1="18.45" x2="322.38" y2="13.98"/><line class="cls-4" x1="82.09" y1="165.4" x2="86.57" y2="165.4"/><line class="cls-4" x1="93.67" y1="165.4" x2="98.14" y2="165.4"/><line class="cls-4" x1="90.12" y1="173.42" x2="90.12" y2="168.95"/><line class="cls-4" x1="90.12" y1="161.85" x2="90.12" y2="157.38"/><line class="cls-4" x1="291.69" y1="46.51" x2="340.48" y2="46.51"/><line class="cls-4" x1="90.59" y1="143.48" x2="139.38" y2="143.48"/><path class="cls-4" d="M70.11,251.27a2.79,2.79,0,1,1-2.79-2.79A2.79,2.79,0,0,1,70.11,251.27Z" transform="translate(62.43 -88.66)"/><path class="cls-4" d="M330.54,145.6a2.79,2.79,0,1,1-2.79-2.79A2.79,2.79,0,0,1,330.54,145.6Z" transform="translate(62.43 -88.66)"/><path class="cls-4" d="M221.32,92a2.79,2.79,0,1,1-2.79-2.79A2.79,2.79,0,0,1,221.32,92Z" transform="translate(62.43 -88.66)"/><line class="cls-4" x1="226.95" y1="56.94" x2="298.29" y2="56.94"/><line class="cls-4" x1="307.1" y1="56.94" x2="301.26" y2="56.94"/><line class="cls-4" x1="315.89" y1="56.94" x2="310.65" y2="56.94"/><line class="cls-4" x1="324.29" y1="198.34" x2="365.85" y2="198.34"/><line class="cls-4" x1="370.98" y1="198.34" x2="367.58" y2="198.34"/><line class="cls-4" x1="376.1" y1="198.34" x2="373.05" y2="198.34"/><line class="cls-4" x1="70" y1="194.2" x2="111.55" y2="194.2"/><line class="cls-4" x1="116.68" y1="194.2" x2="113.29" y2="194.2"/><line class="cls-4" x1="121.8" y1="194.2" x2="118.75" y2="194.2"/><line class="cls-4" x1="277.54" y1="46.51" x2="286.33" y2="46.51"/><line class="cls-4" x1="281.94" y1="50.9" x2="281.94" y2="42.12"/><line class="cls-4" x1="478.2" y1="115.2" x2="486.98" y2="115.2"/><line class="cls-4" x1="482.59" y1="119.59" x2="482.59" y2="110.81"/><line class="cls-4" x1="239.27" y1="13.98" x2="248.06" y2="13.98"/><line class="cls-4" x1="243.66" y1="18.37" x2="243.66" y2="9.58"/><line class="cls-4" x1="79.94" y1="75.47" x2="88.72" y2="75.47"/><line class="cls-4" x1="84.33" y1="79.87" x2="84.33" y2="71.08"/><rect class="cls-16" x="298.19" y="100.97" width="20.62" height="20.62" transform="translate(74.1 162.07) rotate(-45)"/><rect class="cls-4" x="295.34" y="112.37" width="20.62" height="20.62" transform="translate(65.2 163.4) rotate(-45)"/><path class="cls-24" d="M385.75,176.32a24,24,0,1,1,0-48.06" transform="translate(62.43 -88.66)"/><path class="cls-4" d="M385.75,128.26a24,24,0,0,1,0,48.06" transform="translate(62.43 -88.66)"/><line class="cls-4" x1="443.68" y1="63.62" x2="452.69" y2="63.62"/><line class="cls-4" x1="448.18" y1="68.13" x2="448.18" y2="59.12"/><circle class="cls-24" cx="219.14" cy="34.02" r="10.88"/><circle class="cls-2" cx="433.98" cy="196.99" r="10.88"/><path class="cls-24" d="M393.83,285.65A10.88,10.88,0,1,1,383,274.78,10.88,10.88,0,0,1,393.83,285.65Z" transform="translate(62.43 -88.66)"/><circle class="cls-16" cx="220.68" cy="250.13" r="43.15" transform="translate(-10.68 319.42) rotate(-76.84)"/><path class="cls-25" d="M253.67,250.13a33,33,0,1,1-33-33A33,33,0,0,1,253.67,250.13Z" transform="translate(62.43 -88.66)"/><path class="cls-20" d="M218.7,269.76v-3.48a21.68,21.68,0,0,1-11.16-5.49L212,255.4a19.4,19.4,0,0,0,6.73,4.15v-7.11q-5-1.29-7.35-3.46a8.12,8.12,0,0,1-2.33-6.25,9,9,0,0,1,2.67-6.72,11.59,11.59,0,0,1,7-3.18v-2.34h5.06v2.44a21.84,21.84,0,0,1,9.5,4l-3.92,5.63a18.33,18.33,0,0,0-5.58-2.87v6.88a17.93,17.93,0,0,1,7.61,3.58,8.14,8.14,0,0,1,2.46,6.34,9.06,9.06,0,0,1-2.75,6.78,12.13,12.13,0,0,1-7.32,3.19v3.34Zm0-30.3a2.66,2.66,0,0,0-2,2.63,3.15,3.15,0,0,0,2,2.91Zm7.49,17.37a2.62,2.62,0,0,0-.52-1.67,4.76,4.76,0,0,0-1.91-1.24v5.87A3,3,0,0,0,226.19,256.83Z" transform="translate(62.43 -88.66)"/><line class="cls-4" x1="200.03" y1="135.71" x2="204.5" y2="135.71"/><line class="cls-4" x1="211.6" y1="135.71" x2="216.08" y2="135.71"/><line class="cls-4" x1="208.05" y1="143.73" x2="208.05" y2="139.26"/><line class="cls-4" x1="208.05" y1="132.16" x2="208.05" y2="127.69"/><path class="cls-4" d="M276,210.86a2.79,2.79,0,1,1-2.79-2.79A2.79,2.79,0,0,1,276,210.86Z" transform="translate(62.43 -88.66)"/></g><g id="Layer_2" data-name="Layer 2"><line class="cls-3" y1="302.41" x2="570" y2="302.41"/></g></svg>