<svg id="Layer_1" data-name="Layer 1" xmlns="http://www.w3.org/2000/svg" viewBox="0 0 370 270.16"><defs><style>.cls-1{fill:#f2d889;}.cls-2{fill:#f1f2ec;}.cls-3{fill:#fc3e59;}.cls-4{fill:#1b2c38;}.cls-5{fill:#27c7cd;}.cls-6{fill:#414042;}.cls-7{fill:#95d133;}.cls-8{fill:#f9d657;}.cls-9{fill:#ffcb05;}.cls-10{fill:#e7643e;}</style></defs><title>11-our-vision</title><path class="cls-1" d="M306.07,174.33a124.29,124.29,0,0,1-45,95.82H102a124.53,124.53,0,1,1,204.08-95.82Z"/><polygon class="cls-2" points="226.84 270.16 212.13 115.23 142.98 115.23 129.26 270.16 226.84 270.16"/><polygon class="cls-3" points="142.67 118.73 138.77 162.75 198.31 115.23 147.29 115.23 142.67 118.73"/><polygon class="cls-3" points="134.45 211.57 129.53 267.18 218.97 187.25 214.84 143.8 134.45 211.57"/><polygon class="cls-3" points="226.84 270.16 223.52 235.19 186.71 270.16 226.84 270.16"/><polygon class="cls-4" points="130.27 270.16 143.9 116.23 211.22 116.23 225.83 270.16 227.84 270.16 213.04 114.23 142.06 114.23 128.26 270.16 130.27 270.16"/><path class="cls-4" d="M56.64,270.16a158.33,158.33,0,0,1-34.25-98.49c0-87.76,71.39-159.15,159.15-159.15S340.69,83.91,340.69,171.67a158.33,158.33,0,0,1-34.25,98.49H309a160.33,160.33,0,0,0,33.7-98.49c0-88.86-72.29-161.15-161.15-161.15S20.39,82.81,20.39,171.67a160.27,160.27,0,0,0,33.73,98.49Z"/><rect class="cls-4" x="243.5" y="165.03" width="7.37" height="2"/><rect class="cls-4" x="262.56" y="165.03" width="7.37" height="2"/><rect class="cls-4" x="255.71" y="171.88" width="2" height="7.37"/><rect class="cls-4" x="255.71" y="152.82" width="2" height="7.37"/><rect class="cls-4" x="74.4" y="65.23" width="5.83" height="2"/><rect class="cls-4" x="89.49" y="65.23" width="5.83" height="2"/><rect class="cls-4" x="83.86" y="70.87" width="2" height="5.83"/><rect class="cls-4" x="83.86" y="55.77" width="2" height="5.83"/><rect class="cls-4" x="230.68" y="82.1" width="5.83" height="2"/><rect class="cls-4" x="245.77" y="82.1" width="5.83" height="2"/><rect class="cls-4" x="240.14" y="87.73" width="2" height="5.83"/><rect class="cls-4" x="240.14" y="72.63" width="2" height="5.83"/><rect class="cls-4" x="93.53" y="152.88" width="6.83" height="2"/><rect class="cls-4" x="111.21" y="152.88" width="6.83" height="2"/><rect class="cls-4" x="104.79" y="159.31" width="2" height="6.83"/><rect class="cls-4" x="104.79" y="141.62" width="2" height="6.83"/><rect class="cls-4" x="51.8" y="205.62" width="5.83" height="2"/><rect class="cls-4" x="66.89" y="205.62" width="5.83" height="2"/><rect class="cls-4" x="61.26" y="211.25" width="2" height="5.83"/><rect class="cls-4" x="61.26" y="196.15" width="2" height="5.83"/><rect class="cls-4" x="272.13" y="227.18" width="8.08" height="2"/><rect class="cls-4" x="293.06" y="227.18" width="8.08" height="2"/><rect class="cls-4" x="285.64" y="234.6" width="2" height="8.08"/><rect class="cls-4" x="285.64" y="213.67" width="2" height="8.08"/><rect class="cls-2" x="145.49" y="46.77" width="21.85" height="53.65"/><rect class="cls-2" x="167.34" y="46.77" width="21.85" height="53.65"/><rect class="cls-2" x="189.19" y="46.77" width="21.85" height="53.65"/><path class="cls-4" d="M212,101.42H144.49V45.77H212Zm-65.55-2H210V47.77H146.49Z"/><rect class="cls-2" x="130.94" y="103.07" width="92.87" height="16.01"/><path class="cls-4" d="M223.56,120.08H131.19a1.25,1.25,0,0,1-1.25-1.25V103.32a1.25,1.25,0,0,1,1.25-1.25h92.37a1.25,1.25,0,0,1,1.25,1.25v15.51A1.25,1.25,0,0,1,223.56,120.08Zm-91.62-2h90.87v-14H131.94Z"/><path class="cls-4" d="M.61,157.22,0,155.32l2.85-.91.61,1.91Zm5.7-1.81-.6-1.91,2.85-.9.61,1.9ZM12,153.59l-.6-1.9,2.85-.91.61,1.9Zm5.71-1.82-.6-1.9L20,149l.6,1.91ZM23.44,150l-.61-1.9,2.86-.91.6,1.9Zm5.71-1.82-.61-1.9,2.86-.91.6,1.9Zm5.71-1.81-.61-1.91,2.85-.91.61,1.91Zm5.7-1.82-.6-1.9,2.85-.91.61,1.9Zm5.71-1.82-.6-1.9,2.85-.91.61,1.91ZM52,140.88l-.6-1.91,2.85-.9.6,1.9Zm5.71-1.82-.61-1.9,2.86-.91.6,1.9Zm5.71-1.82-.61-1.9,2.86-.91.6,1.91Zm5.71-1.81-.61-1.91,2.85-.9.61,1.9Zm5.7-1.82-.6-1.9,2.85-.91.61,1.9Zm5.71-1.81-.6-1.91,2.85-.91.61,1.91ZM86.23,130l-.6-1.9,2.85-.91.6,1.9Zm5.71-1.82-.61-1.9,2.86-.91.6,1.9Zm5.71-1.81L97,124.44l2.86-.9.6,1.9Zm5.71-1.82-.61-1.9,2.85-.91.61,1.9Zm5.7-1.82-.6-1.9,2.85-.91.61,1.91Zm5.71-1.81-.6-1.9.15,0,.6,1.9Z"/><path class="cls-4" d="M114.32,40.2l-2.86-.89.6-1.91,2.86.9Zm-5.72-1.79-2.87-.9.6-1.91,2.87.9Zm-5.73-1.8-2.86-.9.6-1.91,2.86.9Zm-5.72-1.8-2.86-.9.59-1.9,2.87.89ZM91.42,33l-2.86-.9.6-1.91,2.86.9Zm-5.72-1.8-2.86-.9.6-1.91,2.86.9ZM80,29.42l-2.86-.9.6-1.91,2.86.9Zm-5.72-1.8-2.86-.89.6-1.91,2.86.9Zm-5.73-1.79-2.86-.9.6-1.91,2.86.9ZM62.8,24l-2.86-.9.6-1.91,2.86.9Zm-5.72-1.8-2.87-.9.6-1.9,2.86.89Zm-5.73-1.79-2.86-.9.6-1.91,2.86.9Zm-5.72-1.8-2.87-.9.6-1.91,2.87.9Zm-5.73-1.8L37,15.94l.6-1.91,2.86.9ZM34.18,15l-2.86-.89.59-1.91,2.87.9Zm-5.73-1.79-2.86-.9.6-1.91,2.86.9Zm-5.72-1.8-2.86-.9.59-1.91,2.87.9ZM17,9.65l-2.86-.9.6-1.9,2.86.9ZM11.28,7.86,8.57,7l.6-1.91L11.88,6Z"/><path class="cls-4" d="M369.41,160.35l-2.86-.88.59-1.91,2.86.88Zm-5.72-1.76-2.87-.88.59-1.91,2.86.88ZM358,156.83,355.1,156l.59-1.91,2.86.88Zm-5.72-1.76-2.87-.88.59-1.91,2.86.88Zm-5.73-1.76-2.86-.88.58-1.91,2.87.88Zm-5.72-1.76-2.87-.88.59-1.91,2.86.88Zm-5.73-1.76-2.86-.89.58-1.9,2.87.88ZM329.33,148l-2.86-.88.59-1.91,2.86.88Zm-5.72-1.76-2.86-.88.58-1.91,2.87.88Zm-5.73-1.76-2.86-.88.59-1.91,2.86.88Zm-5.72-1.76-2.86-.88.58-1.91,2.86.88ZM306.43,141l-2.86-.88.59-1.91,2.86.88Zm-5.72-1.76-2.87-.88.59-1.91,2.86.88ZM295,137.46l-2.86-.88.58-1.91,2.87.88Zm-5.72-1.77-2.87-.88.59-1.9,2.86.88Zm-5.73-1.76-2.86-.88.58-1.91,2.87.88Zm-5.73-1.76-2.86-.88.59-1.91,2.86.88Zm-5.72-1.76-2.86-.88.58-1.91,2.87.88Zm-5.73-1.76-2.86-.88.59-1.91,2.86.88Zm-5.72-1.76-2.87-.88.59-1.91,2.86.88Zm-5.73-1.76-2.86-.88.59-1.91,2.86.88Zm-5.72-1.76-2.87-.89.59-1.9,2.86.88Zm-5.73-1.77-1.19-.36.59-1.91,1.19.37Z"/><path class="cls-4" d="M241.59,40.21,241,38.29l2.87-.87.58,1.91Zm5.74-1.75-.58-1.91,2.87-.87.58,1.91Zm5.74-1.74-.58-1.92,2.87-.87.58,1.92ZM258.81,35l-.58-1.91,2.87-.87.58,1.91Zm5.74-1.74L264,31.31l2.87-.87.58,1.92Zm5.74-1.75-.58-1.91,2.87-.87.58,1.91ZM276,29.74l-.58-1.91,2.87-.88.59,1.92ZM281.78,28l-.59-1.91,2.87-.87.59,1.91Zm5.74-1.74-.59-1.91,2.87-.88.59,1.92Zm5.74-1.74-.59-1.92,2.87-.87.59,1.91ZM299,22.76l-.58-1.91,2.87-.87.58,1.91ZM304.74,21l-.58-1.92,2.87-.87.58,1.91Zm5.74-1.75-.58-1.91,2.87-.87.58,1.91Zm5.74-1.74-.58-1.92,2.87-.87.58,1.92ZM322,15.78l-.58-1.91,2.87-.87.58,1.91ZM327.7,14l-.58-1.91,2.87-.88.58,1.92Zm5.74-1.75-.58-1.91,2.87-.87.58,1.91Zm5.74-1.74-.58-1.91,2.87-.88.58,1.92Zm5.74-1.74-.58-1.92L347.21,6l.58,1.91Z"/><circle class="cls-5" cx="178.27" cy="73.59" r="17.44" transform="translate(65.8 230.27) rotate(-76.76)"/><path class="cls-4" d="M178.27,92a18.45,18.45,0,1,1,18.44-18.45A18.48,18.48,0,0,1,178.27,92Zm0-34.89a16.45,16.45,0,1,0,16.44,16.44A16.46,16.46,0,0,0,178.27,57.15Z"/><path class="cls-6" d="M184.81,73.59a6.55,6.55,0,1,1-6.54-6.54A6.54,6.54,0,0,1,184.81,73.59Z"/><path class="cls-2" d="M130.46,47.27H181L179,1C153.45,1,130.46,21.71,130.46,47.27Z"/><path class="cls-2" d="M176.73,1V47.27H223A46.27,46.27,0,0,0,176.73,1Z"/><path class="cls-4" d="M224,48.27H129.46v-1a47.27,47.27,0,0,1,94.54,0Zm-92.54-2H222a45.28,45.28,0,0,0-90.53,0Z"/><path class="cls-7" d="M32,95.7a9,9,0,1,1-9-9A9,9,0,0,1,32,95.7Z"/><path class="cls-6" d="M23,105.79A10.09,10.09,0,1,1,33.05,95.7,10.1,10.1,0,0,1,23,105.79Zm0-18.05a8,8,0,1,0,8,8A8,8,0,0,0,23,87.74Z"/><path class="cls-3" d="M323.81,81.41a9,9,0,1,1-9-9A9,9,0,0,1,323.81,81.41Z"/><path class="cls-4" d="M314.79,91.5a10.09,10.09,0,1,1,10.09-10.09A10.09,10.09,0,0,1,314.79,91.5Zm0-18a8,8,0,1,0,8,8A8,8,0,0,0,314.79,73.45Z"/><path class="cls-4" d="M344,110.45a10,10,0,1,1,10-10A10,10,0,0,1,344,110.45Zm0-18.06a8,8,0,1,0,8,8A8,8,0,0,0,344,92.39Z"/><path class="cls-4" d="M266.78,74.1a10,10,0,1,1,10-10A10,10,0,0,1,266.78,74.1Zm0-18a8,8,0,1,0,8,8A8,8,0,0,0,266.78,56.05Z"/><circle class="cls-8" cx="37.56" cy="47.43" r="15.99"/><circle class="cls-9" cx="37.56" cy="47.43" r="15.99"/><path class="cls-4" d="M37.56,64.41a17,17,0,1,1,17-17A17,17,0,0,1,37.56,64.41Zm0-32a15,15,0,1,0,15,15A15,15,0,0,0,37.56,32.44Z"/><path class="cls-4" d="M37.56,64.41a17,17,0,1,1,17-17A17,17,0,0,1,37.56,64.41Zm0-32a15,15,0,1,0,15,15A15,15,0,0,0,37.56,32.44Z"/><path class="cls-8" d="M82.2,112.34A12.39,12.39,0,1,1,69.81,100,12.39,12.39,0,0,1,82.2,112.34Z"/><path class="cls-7" d="M82.2,112.34A12.39,12.39,0,1,1,69.81,100,12.39,12.39,0,0,1,82.2,112.34Z"/><path class="cls-6" d="M69.81,125.72A13.39,13.39,0,1,1,83.2,112.34,13.4,13.4,0,0,1,69.81,125.72Zm0-24.77A11.39,11.39,0,1,0,81.2,112.34,11.4,11.4,0,0,0,69.81,101Z"/><path class="cls-10" d="M131.89,84.29a8.63,8.63,0,1,1-8.63-8.63A8.63,8.63,0,0,1,131.89,84.29Z"/><path class="cls-3" d="M131.89,84.29a8.63,8.63,0,1,1-8.63-8.63A8.63,8.63,0,0,1,131.89,84.29Z"/><path class="cls-4" d="M123.26,93.92a9.63,9.63,0,1,1,9.63-9.63A9.64,9.64,0,0,1,123.26,93.92Zm0-17.26a7.63,7.63,0,1,0,7.63,7.63A7.64,7.64,0,0,0,123.26,76.66Z"/><circle class="cls-8" cx="322.41" cy="42.98" r="15.99"/><circle class="cls-7" cx="322.41" cy="42.98" r="15.99"/><path class="cls-6" d="M322.41,60a17,17,0,1,1,17-17A17,17,0,0,1,322.41,60Zm0-32a15,15,0,1,0,15,15A15,15,0,0,0,322.41,28Z"/><path class="cls-3" d="M299.14,104.15a11.38,11.38,0,1,1-11.38-11.37A11.38,11.38,0,0,1,299.14,104.15Z"/><path class="cls-9" d="M299.14,104.15a11.38,11.38,0,1,1-11.38-11.37A11.38,11.38,0,0,1,299.14,104.15Z"/><path class="cls-4" d="M287.76,116.52a12.37,12.37,0,1,1,12.38-12.37A12.39,12.39,0,0,1,287.76,116.52Zm0-22.74a10.37,10.37,0,1,0,10.38,10.37A10.38,10.38,0,0,0,287.76,93.78Z"/></svg>