<svg id="Analysis" xmlns="http://www.w3.org/2000/svg" viewBox="0 0 250 250"><defs><style>.cls-1{fill:#f1f2ec;}.cls-2{fill:#e8e9e1;}.cls-3{fill:#1b2c38;}.cls-4{fill:#e6e7e8;}.cls-5{fill:#636c78;}.cls-6{fill:#27c7cd;}.cls-7{fill:#fff;}.cls-8{fill:#231f20;opacity:0.1;}.cls-9{fill:#ffcb05;}.cls-10{fill:#fc3e59;}</style></defs><title>12-seo-service</title><circle class="cls-1" cx="124.74" cy="139.4" r="108.96"/><path class="cls-1" d="M325.64,313c-21.31,33.06-55.51,54.5-94.06,54.5s-72.69-21.39-94-54.39Z" transform="translate(-106.77 -118.33)"/><path class="cls-2" d="M326.14,313.39l-.52-.57-189.2.09c.9,1.21,1.82,2.39,2.76,3.56l175.15,11.74C318.81,323.87,322.39,318.39,326.14,313.39Z" transform="translate(-106.77 -118.33)"/><path class="cls-3" d="M231.51,368.33a110,110,0,1,1,110-110A110.12,110.12,0,0,1,231.51,368.33Zm0-217.93A107.93,107.93,0,1,0,339.43,258.33,108.06,108.06,0,0,0,231.51,150.4Z" transform="translate(-106.77 -118.33)"/><rect class="cls-3" y="193.07" width="4.85" height="1.99"/><path class="cls-4" d="M272.13,141.35c-.14-7.69,1.64-21.69-12.17-21.9H189.88v80.82h82.26Z" transform="translate(-106.77 -118.33)"/><path class="cls-3" d="M273.14,205.35H244.06v-2h27.09v-62c0-.82,0-1.74,0-2.7.06-8,.14-18-11.19-18.2H189.88v-2H260c13.32.2,13.23,12.24,13.17,20.2,0,1,0,1.85,0,2.67Z" transform="translate(-106.77 -118.33)"/><rect class="cls-5" x="53.48" y="81.27" width="173.09" height="107.21" rx="1"/><path class="cls-3" d="M332.34,307.81H161.25a2,2,0,0,1-2-2V200.6a2,2,0,0,1,2-2H332.34a2,2,0,0,1,2,2V305.81A2,2,0,0,1,332.34,307.81Zm0-2v0ZM161.25,200.6V305.81H332.34V200.6Z" transform="translate(-106.77 -118.33)"/><rect class="cls-6" x="61.89" y="91.06" width="155.34" height="83.76"/><path class="cls-7" d="M331.19,312.4H162.24a8.29,8.29,0,0,1-8.18-6.94l-1.2-7.34H341.53l-1,6.38A9.42,9.42,0,0,1,331.19,312.4Z" transform="translate(-106.77 -118.33)"/><path class="cls-3" d="M331.19,313.39H162.24a9.25,9.25,0,0,1-9.16-7.77l-1.39-8.5h191l-1.23,7.54A10.38,10.38,0,0,1,331.19,313.39ZM154,299.11l1,6.19a7.26,7.26,0,0,0,7.19,6.1h169a8.39,8.39,0,0,0,8.31-7.06l.86-5.23Z" transform="translate(-106.77 -118.33)"/><rect class="cls-3" x="127.68" y="184.33" width="25.28" height="1.99"/><path class="cls-8" d="M194.06,119.33c-7.14,0-13.86,4.35-14,13.91V254.55h5.2c2.68,6.82-.28,18.11-12.07,19.09h70.08c13.81-.21,12-14.21,12.17-21.9h0V133.24c0-6.32,2.24-11.84,8.36-13.42l-9.15-.49Z" transform="translate(-106.77 -118.33)"/><path class="cls-7" d="M189,119.33c-7.14,0-13.86,4.35-14,13.91V254.55h5.2c2.68,6.82-.28,18.11-12.08,19.09h70.09c13.81-.21,12-14.21,12.17-21.9h-.05V133.24a13.86,13.86,0,0,1,10.4-13.42v-.49Z" transform="translate(-106.77 -118.33)"/><path class="cls-8" d="M231.45,259.72V199h.06c-.14-7.69,1.64-21.69-12.17-21.9H149.26c11.3.94,14.48,11.36,12.37,18.22h-5.51v64.43c.15,9.55,6.88,13.91,14,13.91h71.72v-.5A13.86,13.86,0,0,1,231.45,259.72Z" transform="translate(-106.77 -118.33)"/><path class="cls-4" d="M227.39,259.72V199h.06c-.15-7.69,1.64-21.69-12.18-21.9H145.19c11.31.94,14.49,11.36,12.37,18.22h-5.51v64.43c.16,9.55,6.88,13.91,14,13.91h71.71v-.5A13.86,13.86,0,0,1,227.39,259.72Z" transform="translate(-106.77 -118.33)"/><path class="cls-3" d="M168.08,274.63l-.08-2c5.66-.46,8.59-3.37,10.06-5.73a14.14,14.14,0,0,0,1.4-11.36H174V133.24c.13-7.43,4.81-14.91,15-14.91h72.71v2.26l-.75.19a12.87,12.87,0,0,0-9.65,12.46V250.75h0l0,1c0,.82,0,1.72,0,2.66.06,8,.16,20-13.15,20.21Zm6.83-2h63.26c11.31-.17,11.23-10.17,11.17-18.2,0-.66,0-1.29,0-1.9l0-.8V133.24a14.86,14.86,0,0,1,7.51-12.92H189c-5.91,0-12.87,3.39-13,12.93V253.56h4.87l.25.63A15.88,15.88,0,0,1,179.75,268,13.62,13.62,0,0,1,174.91,272.64Z" transform="translate(-106.77 -118.33)"/><path class="cls-3" d="M238.78,274.63H166.07c-10.2,0-14.89-7.48-15-14.89V194.3h5.74a14,14,0,0,0-1.89-10.88,12.58,12.58,0,0,0-9.8-5.35l.08-2h70.08c13.32.19,13.23,12.24,13.17,20.2q0,1.43,0,2.67l0,1h-.08v59.75A12.87,12.87,0,0,0,238,272.18l.75.19ZM153.05,196.3v63.43c.15,9.52,7.11,12.91,13,12.91h67.84a14.83,14.83,0,0,1-7.52-12.92V198h.05c0-.54,0-1.11,0-1.7.06-8,.14-18-11.19-18.2H152a13.71,13.71,0,0,1,4.55,4.22,15.9,15.9,0,0,1,1.95,13.29l-.22.71Z" transform="translate(-106.77 -118.33)"/><path class="cls-8" d="M133.46,191V312.31h75.33V191c0-6.32,2.25-11.84,8.36-13.41l-8.13-.5H147.47C140.34,177.08,133.61,181.44,133.46,191Z" transform="translate(-106.77 -118.33)"/><path class="cls-7" d="M128.37,191V312.31h75.34V191a13.84,13.84,0,0,1,10.4-13.41v-.5H142.39C135.25,177.08,128.53,181.44,128.37,191Z" transform="translate(-106.77 -118.33)"/><path class="cls-3" d="M204.71,313.3H127.38V191c.12-7.42,4.81-14.89,15-14.89H215.1v2.26l-.75.19A12.86,12.86,0,0,0,204.71,191Zm-75.34-2h73.34V191a14.85,14.85,0,0,1,7.52-12.91H142.39c-5.91,0-12.86,3.38-13,12.92Z" transform="translate(-106.77 -118.33)"/><rect class="cls-9" x="31.17" y="90.91" width="5.05" height="49.09"/><rect class="cls-10" x="38.48" y="115.56" width="5.05" height="24.44"/><rect class="cls-10" x="45.78" y="121.73" width="5.05" height="18.28"/><rect class="cls-9" x="53.09" y="103.98" width="5.05" height="36.02"/><rect class="cls-10" x="60.39" y="94.42" width="5.05" height="45.58"/><rect class="cls-10" x="67.7" y="111.39" width="5.05" height="28.62"/><rect class="cls-9" x="75" y="122.57" width="5.05" height="17.44"/><rect class="cls-10" x="82.31" y="105.08" width="5.05" height="34.92"/><rect class="cls-4" x="29.77" y="79.48" width="24.3" height="4.01"/><rect class="cls-4" x="75.92" y="17.59" width="57.81" height="4.01"/><rect class="cls-4" x="75.92" y="28.23" width="38.43" height="4.01"/><rect class="cls-4" x="117.31" y="28.23" width="16.43" height="4.01"/><rect class="cls-4" x="75.92" y="38.86" width="17.98" height="4.01"/><rect class="cls-4" x="96.61" y="38.86" width="37.13" height="4.01"/><rect class="cls-4" x="75.92" y="49.5" width="31.69" height="4.01"/><rect class="cls-4" x="29.77" y="145.32" width="42.17" height="4.01"/><rect class="cls-4" x="31.07" y="156.57" width="22.23" height="4.14"/><rect class="cls-4" x="30.99" y="165.16" width="47.19" height="4.14"/><rect class="cls-4" x="30.83" y="174.44" width="25.32" height="4.14"/><rect class="cls-4" x="57.41" y="156.57" width="11.42" height="4.14"/><rect class="cls-4" x="72.84" y="156.57" width="18.7" height="4.14"/><path class="cls-8" d="M353.57,202.53a43.75,43.75,0,1,0-45.74,47v2.17h-5.34a2.15,2.15,0,0,0-2.15,2.28l3.5,39h15.84V253.83a2.16,2.16,0,0,0-2.16-2.15h-5.47v-2.17A43.77,43.77,0,0,0,353.57,202.53Zm-37.34,34.61c-22.15-.28-35.47-15.18-35.47-31.27s18.33-31.28,34.42-31.28a29.21,29.21,0,0,1,29.18,29.18C344.36,219.86,332.32,237.35,316.23,237.14Z" transform="translate(-106.77 -118.33)"/><rect class="cls-3" x="206.37" y="124.17" width="1.99" height="16"/><path class="cls-7" d="M314.13,164.23a41.64,41.64,0,1,0,41.64,41.64A41.69,41.69,0,0,0,314.13,164.23Zm0,72.93a31.3,31.3,0,1,1,31.29-31.29A31.33,31.33,0,0,1,314.13,237.16Z" transform="translate(-106.77 -118.33)"/><path class="cls-3" d="M314.13,248.5a42.64,42.64,0,1,1,42.64-42.63A42.67,42.67,0,0,1,314.13,248.5Zm0-83.28a40.65,40.65,0,1,0,40.65,40.65A40.69,40.69,0,0,0,314.13,165.22Zm0,72.93h0a32.29,32.29,0,1,1,32.29-32.28A32.32,32.32,0,0,1,314.13,238.15Zm0-62.58a30.3,30.3,0,1,0,30.3,30.3A30.33,30.33,0,0,0,314.13,175.57Z" transform="translate(-106.77 -118.33)"/><rect class="cls-10" x="199.74" y="135.45" width="7.63" height="39.5"/><rect class="cls-10" x="207.36" y="135.45" width="7.63" height="39.5"/><path class="cls-3" d="M322.76,293h-2V256a1.26,1.26,0,0,0-1.26-1.26H308.76A1.27,1.27,0,0,0,307.5,256V293h-2V256a3.26,3.26,0,0,1,3.25-3.25H319.5a3.26,3.26,0,0,1,3.26,3.25Z" transform="translate(-106.77 -118.33)"/><rect class="cls-3" x="199.37" y="145.44" width="16" height="1.99"/><rect class="cls-3" x="199.37" y="152.09" width="16" height="1.99"/><path class="cls-3" d="M305.88,184.14l-.78-1.83a25.08,25.08,0,0,1,4.77-1.48,25.78,25.78,0,0,1,5.12-.52v2a23.5,23.5,0,0,0-9.11,1.84Z" transform="translate(-106.77 -118.33)"/><path class="cls-3" d="M297,223.66a25.4,25.4,0,0,1-3.1-3.76,25.22,25.22,0,0,1-3.82-9.08,25.42,25.42,0,0,1,0-10.23,25.22,25.22,0,0,1,3.82-9.08,25.4,25.4,0,0,1,3.1-3.76l1.41,1.41a23.34,23.34,0,0,0-5,7.44,24,24,0,0,0-1.36,4.39,23.89,23.89,0,0,0,0,9.43,23.76,23.76,0,0,0,1.36,4.39,23.2,23.2,0,0,0,2.16,4,23.68,23.68,0,0,0,2.86,3.46Z" transform="translate(-106.77 -118.33)"/><rect class="cls-3" x="7.56" y="193.07" width="216.22" height="1.99"/></svg>