<svg id="Layer_1" data-name="Layer 1" xmlns="http://www.w3.org/2000/svg" viewBox="0 0 250 250"><defs><style>.cls-1{fill:#1b2c38;}.cls-2{fill:#f1f2ec;}.cls-3{fill:#ffcb05;}.cls-4{fill:#27c7cd;}.cls-5{fill:#1ab7b7;}.cls-6{fill:#fc3e59;}.cls-7{fill:#dd2f51;}.cls-8{fill:#fff;}</style></defs><title>13-local-seo-service</title><rect class="cls-1" x="246.87" y="120.32" width="3.13" height="1.99"/><rect class="cls-1" x="240.87" y="120.32" width="3.13" height="1.99"/><circle class="cls-2" cx="125.08" cy="140.37" r="109.08"/><circle class="cls-3" cx="123.56" cy="136.33" r="76.66"/><path class="cls-4" d="M41.93,211.18a50.13,50.13,0,0,0,4.72,5.16,57.78,57.78,0,0,0,5.81,4.54c4.13,3,8,6.34,12,9.48a59.67,59.67,0,0,0,12.81,8.06c4,1.74,8.17,3,12,5,2.46.74,4.78,1.93,7.3,2.5,2.7.6,5.45,1.08,8.19,1.49a100.93,100.93,0,0,0,16.75,1.16,1.85,1.85,0,0,1,1.29.45,1.92,1.92,0,0,1,.71-.11c4.23.05,8.53.12,12.82,0a77.88,77.88,0,0,0,7.73-1.15c6.7-1.4,13.15-4.11,19.65-6.22a2,2,0,0,1,.77-.09,1.8,1.8,0,0,1,1.59-.81c2.56,0,4.9-1.38,7-2.66s4.39-2.69,6.67-3.93c5-2.71,8.91-7,14.08-9.43l.26-.1a1.89,1.89,0,0,1,.5-.92c5-5.3,11.91-8.8,16-15a54.26,54.26,0,0,1,3.14-4.81,98.52,98.52,0,0,0-181.44-6.07,10.54,10.54,0,0,1,2.12,3C36.86,204.22,39.23,207.82,41.93,211.18Z" transform="translate(0 0)"/><path class="cls-5" d="M77.27,238.42c4,1.74,8.17,3,12,5,2.46.74,4.78,1.93,7.3,2.5,2.7.6,5.45,1.08,8.19,1.49a100.93,100.93,0,0,0,16.75,1.16,1.85,1.85,0,0,1,1.29.45,1.92,1.92,0,0,1,.71-.11c4.23.05,8.53.12,12.82,0a77.88,77.88,0,0,0,7.73-1.15c6.7-1.4,13.15-4.11,19.65-6.22a2,2,0,0,1,.77-.09,1.8,1.8,0,0,1,1.59-.81c2.56,0,4.9-1.38,7-2.66s4.39-2.69,6.67-3.93c3.35-1.82,6.23-4.37,9.33-6.58A68.36,68.36,0,0,0,55.21,223c3.11,2.41,6.12,5,9.21,7.37A59.81,59.81,0,0,0,77.27,238.42Z" transform="translate(0 0)"/><path class="cls-1" d="M121.73,141.49A97.59,97.59,0,0,1,213,204.75a14,14,0,0,1,1.52-1.91,99.53,99.53,0,0,0-182.31-7.35c.51.53,1,1,1.56,1.57A97.58,97.58,0,0,1,121.73,141.49Z" transform="translate(0 0)"/><path class="cls-1" d="M179.78,234c.52-.28,1-.59,1.53-.9-.88-32.35-9.35-63-24.09-86.92l-1.78,1.11c14.72,23.86,23.1,54.62,23.79,87Z" transform="translate(0 0)"/><path class="cls-1" d="M66.78,232.13c1-31.62,9.35-61.54,23.75-84.87l-1.78-1.11c-14.36,23.28-22.76,53-24,84.44C65.42,231.07,66.1,231.62,66.78,232.13Z" transform="translate(0 0)"/><path class="cls-1" d="M121.54,248.54a1.81,1.81,0,0,1,1.24.41V140.44h-2.1v108.1Z" transform="translate(0 0)"/><path class="cls-1" d="M173.11,237.9h-97c.39.18.78.37,1.17.54,1.27.55,2.56,1.06,3.85,1.55h88A24,24,0,0,0,173.11,237.9Z" transform="translate(0 0)"/><rect class="cls-1" x="33.53" y="191.07" width="174.96" height="2.09"/><path class="cls-1" d="M125,250A110,110,0,1,1,235,140,110,110,0,0,1,125,250Zm0-217.93A107.93,107.93,0,1,0,232.92,140h0A108,108,0,0,0,125,32.07Z" transform="translate(0 0)"/><path class="cls-6" d="M121.78,1.07A57.53,57.53,0,0,0,64.26,58.61h0c0,31.77,57.52,96.66,57.52,96.66s57.53-64.89,57.53-96.66A57.53,57.53,0,0,0,121.8,1.07Zm0,85.23a33.37,33.37,0,1,1,33.37-33.37h0a33.37,33.37,0,0,1-33.33,33.39h0Z" transform="translate(0 0)"/><path class="cls-7" d="M163.26,53a41.44,41.44,0,1,0-41.45,41.43h0A41.43,41.43,0,0,0,163.26,53ZM87.39,53A34.44,34.44,0,1,1,121.83,87.4h0A34.44,34.44,0,0,1,87.39,53Z" transform="translate(0 0)"/><path class="cls-1" d="M121.78,156.93,121,156c-.14-.17-14.58-16.5-28.83-36.51-19.22-27-29-47.47-29-60.88a58.62,58.62,0,0,1,117.24,0c0,13.41-9.75,33.89-29,60.88-14.25,20-28.69,36.34-28.83,36.51Zm0-154.75A56.5,56.5,0,0,0,65.35,58.62c0,29,49.43,86.94,56.43,95,7-8.06,56.44-66.06,56.44-95A56.52,56.52,0,0,0,121.78,2.18Zm0,85.23A34.46,34.46,0,1,1,156.24,53h0A34.5,34.5,0,0,1,121.78,87.41Zm0-66.73A32.27,32.27,0,1,0,154.06,53,32.27,32.27,0,0,0,121.78,20.68Z" transform="translate(0 0)"/><path class="cls-2" d="M232.87,123.17a37.15,37.15,0,0,0-1.2-5.73c-1-3.82-2.27-7.58-3.58-11.31-1.2-3.42-2.61-6.75-3.85-10.16a28.1,28.1,0,0,0-2.34-5.33,16.25,16.25,0,0,0-12.13,2.26,22.4,22.4,0,0,0-43.53-3.23,15.35,15.35,0,0,0-18.84,10.76c-.14.54-.26,1.09-.35,1.64h-2.5a11.53,11.53,0,0,0-11.5,11.49v.85a11.53,11.53,0,0,0,11.5,11.49H233A19.69,19.69,0,0,0,232.87,123.17Z" transform="translate(0 0)"/><path class="cls-8" d="M231.67,117.44c-1-3.75-2.22-7.45-3.51-11.11a9.25,9.25,0,0,0-2.16-.26h-.37a13.63,13.63,0,0,0-16.88-9.31,13.23,13.23,0,0,0-3.59,1.63,18.68,18.68,0,0,0-36.29-2.69,13.42,13.42,0,0,0-3.33-.45,12.83,12.83,0,0,0-12.68,10.82h-2.09a9.62,9.62,0,0,0-9.58,9.58v.71a9.62,9.62,0,0,0,9.58,9.58H226a9.54,9.54,0,0,0,6.86-2.91A36.82,36.82,0,0,0,231.67,117.44Z" transform="translate(0 0)"/><path class="cls-1" d="M202.48,91.65a17.61,17.61,0,0,0-23.76-5.58l-1.06-1.8a19.71,19.71,0,0,1,26.58,6.24Z" transform="translate(0 0)"/><path class="cls-1" d="M233,124.89H144.55a10.46,10.46,0,0,1-10.45-10.44v-.85a10.46,10.46,0,0,1,10.45-10.45H148l.14-.88a14.25,14.25,0,0,1,14.15-12.09,14.7,14.7,0,0,1,3.73.5l1,.27.3-1a21.35,21.35,0,0,1,41.41,3.12l.25,1.59,1.36-.87A15.07,15.07,0,0,1,222.6,91.9a12.43,12.43,0,0,0-1.6-2.47,16.46,16.46,0,0,0-2.43-.18,17.46,17.46,0,0,0-8.07,2,23.45,23.45,0,0,0-45-2.81,16.36,16.36,0,0,0-19.32,12.63h-1.63A12.55,12.55,0,0,0,132,113.6v.85A12.56,12.56,0,0,0,144.54,127H233Z" transform="translate(0 0)"/><path class="cls-1" d="M170.94,100.31,169,99.55a7.06,7.06,0,0,0,.28-.89l2,.49A8.08,8.08,0,0,1,170.94,100.31Z" transform="translate(0 0)"/><path class="cls-1" d="M171.55,97.07h-2.09a6.94,6.94,0,0,0-6.88-7h-.05v-2a9,9,0,0,1,9,9Z" transform="translate(0 0)"/><path class="cls-2" d="M85.9,45.07h-.37A13.64,13.64,0,0,0,65,37.38a18.7,18.7,0,0,0-36.3-2.69,13.44,13.44,0,0,0-3.34-.45A12.86,12.86,0,0,0,12.68,45.07H10.59A9.63,9.63,0,0,0,1,54.67v.7A9.63,9.63,0,0,0,10.59,65H85.9a9.63,9.63,0,0,0,9.6-9.6v-.7A9.63,9.63,0,0,0,85.9,45.07Z" transform="translate(0 0)"/><path class="cls-8" d="M79.41,48.38H79.1A11.38,11.38,0,0,0,65,40.6,11.53,11.53,0,0,0,62,42a15.59,15.59,0,0,0-30.29-2.24,10.64,10.64,0,0,0-13.09,7.45,9.47,9.47,0,0,0-.26,1.2H16.62a8,8,0,0,0-8,8V57a8,8,0,0,0,8,8H79.41a8,8,0,0,0,8-8v-.59A8,8,0,0,0,79.41,48.38Z" transform="translate(0 0)"/><path class="cls-1" d="M58.85,36.41a14.6,14.6,0,0,0-19.67-4.62l-1-1.71a16.58,16.58,0,0,1,22.35,5.25Z" transform="translate(0 0)"/><path class="cls-1" d="M85.9,66H10.59A10.6,10.6,0,0,1,0,55.37v-.7a10.6,10.6,0,0,1,10.59-10.6h1.27A13.73,13.73,0,0,1,28,33.52a19.7,19.7,0,0,1,37.71,2.3,14.66,14.66,0,0,1,19.74,6.35,15.94,15.94,0,0,1,.81,1.9,10.6,10.6,0,0,1,10.23,10.6v.7A10.6,10.6,0,0,1,85.9,66ZM10.59,46.07A8.62,8.62,0,0,0,2,54.67v.7A8.61,8.61,0,0,0,10.6,64H85.9a8.61,8.61,0,0,0,8.6-8.6v-.7a8.61,8.61,0,0,0-8.6-8.6H84.78l-.21-.72a12.64,12.64,0,0,0-19-7.13l-1.29.85-.23-1.51A17.7,17.7,0,0,0,29.65,35l-.28.91-.93-.24A11.79,11.79,0,0,0,14,43.93a12.42,12.42,0,0,0-.28,1.32l-.14.84Z" transform="translate(0 0)"/><path class="cls-1" d="M32.74,43.62l-1.86-.72a6.18,6.18,0,0,0,.23-.73l1.93.47A8.51,8.51,0,0,1,32.74,43.62Z" transform="translate(0 0)"/><path class="cls-1" d="M33.26,40.84h-2a5.68,5.68,0,0,0-5.66-5.66v-2A7.66,7.66,0,0,1,33.26,40.84Z" transform="translate(0 0)"/><rect class="cls-1" x="210.67" y="120.32" width="27.33" height="1.99"/><path class="cls-1" d="M125,250A110.13,110.13,0,0,1,15,140,109,109,0,0,1,37.72,73.07l1.65,1.26A107.93,107.93,0,1,0,208,71.07l1.6-1.32A110,110,0,0,1,125,250Z" transform="translate(0 0)"/></svg>