<svg id="social_Media" data-name="social Media" xmlns="http://www.w3.org/2000/svg" viewBox="0 0 250 250"><defs><style>.cls-1{fill:#f1f2ec;}.cls-2{fill:#27c7cd;}.cls-3{fill:#e8e9e1;}.cls-11,.cls-4{fill:#1b2c38;}.cls-5{fill:#fff;}.cls-6{fill:#ffcb05;}.cls-12,.cls-7{opacity:0.1;}.cls-12,.cls-8{fill:#231f20;}.cls-9{fill:#6c6ff2;}.cls-10{fill:#636c78;}.cls-11{opacity:0.37;}.cls-13{fill:#fc3e59;}.cls-14{fill:#e7643e;}</style></defs><title>14-smm-service</title><circle class="cls-1" cx="125.1" cy="140.44" r="108.54"/><circle class="cls-2" cx="127.39" cy="131.28" r="91.84"/><path class="cls-1" d="M301.91,395.07c-21.1,23-50.35,37.26-82.67,37.26S158,418.22,136.87,395.41Z" transform="translate(-93.89 -183.75)"/><path class="cls-3" d="M220,423.24a112.46,112.46,0,0,1-56.17-25.88l-25.44,0c20.79,21.58,49.52,34.93,81.24,34.93a111.15,111.15,0,0,0,54.52-14.26A110.45,110.45,0,0,1,220,423.24Z" transform="translate(-93.89 -183.75)"/><path class="cls-4" d="M218.89,433.75a110,110,0,1,1,110-110A110.12,110.12,0,0,1,218.89,433.75Zm0-218.09A108.09,108.09,0,1,0,327,323.75,108.22,108.22,0,0,0,218.89,215.66Z" transform="translate(-93.89 -183.75)"/><rect class="cls-4" y="211.54" width="5.94" height="1.99"/><rect class="cls-4" x="238.59" y="211.54" width="11.41" height="1.99"/><path class="cls-5" d="M243.13,394.23V308.18a9.93,9.93,0,0,1,9.9-9.9h55.51a9.93,9.93,0,0,1,9.9,9.9v86.05Z" transform="translate(-93.89 -183.75)"/><path class="cls-4" d="M319.43,396.29h-2V306.13a6.86,6.86,0,0,0-6.85-6.86H251a6.86,6.86,0,0,0-6.85,6.86v90.16h-2V306.13a8.86,8.86,0,0,1,8.84-8.85h59.61a8.86,8.86,0,0,1,8.84,8.85Z" transform="translate(-93.89 -183.75)"/><rect class="cls-4" x="178.37" y="122.36" width="17.73" height="1.99"/><rect class="cls-6" x="152.84" y="130.66" width="67.79" height="81.87"/><circle class="cls-4" cx="202.35" cy="123.35" r="1.05"/><g class="cls-7"><path class="cls-8" d="M243.11,307.43v19.85a42,42,0,0,0,24.75-29.69H253A9.87,9.87,0,0,0,243.11,307.43Z" transform="translate(-93.89 -183.75)"/><path class="cls-8" d="M285.53,376c0-24.73-15.87-41.66-42.42-46.75v67.63h4v-1.63h38.38Z" transform="translate(-93.89 -183.75)"/></g><rect class="cls-5" x="22.41" y="152.89" width="95.78" height="59.65" rx="1.49"/><path class="cls-4" d="M210.6,397.28H117.78a2.48,2.48,0,0,1-2.48-2.47V338.12a2.47,2.47,0,0,1,2.48-2.47H210.6a2.47,2.47,0,0,1,2.47,2.47v56.69A2.48,2.48,0,0,1,210.6,397.28Zm-92.82-59.65a.49.49,0,0,0-.49.49v56.69a.49.49,0,0,0,.49.48H210.6a.49.49,0,0,0,.49-.48V338.12a.49.49,0,0,0-.49-.49Z" transform="translate(-93.89 -183.75)"/><rect class="cls-9" x="30.93" y="161.35" width="78.75" height="43.23"/><polygon class="cls-10" points="73.1 203.73 53.95 179.11 33.74 203.73 73.1 203.73"/><path class="cls-5" d="M199.22,363.8a1,1,0,0,0-1.43-.9,1.39,1.39,0,0,0-1-.75,1.59,1.59,0,0,0,.06-.3,1.66,1.66,0,0,0-2.79-1.22,3.05,3.05,0,0,0-6-.6,1.86,1.86,0,0,0-.42,0,2.09,2.09,0,0,0-2,1.57,2.09,2.09,0,0,0-.71-.14,1.87,1.87,0,0,0-1.62,2.88h15.76A.94.94,0,0,0,199.22,363.8Z" transform="translate(-93.89 -183.75)"/><path class="cls-5" d="M139.2,365.84a.56.56,0,0,0-.57-.56.59.59,0,0,0-.23.05.81.81,0,0,0-.56-.42.85.85,0,0,0,0-.17.94.94,0,0,0-.94-.93.92.92,0,0,0-.63.25,1.72,1.72,0,0,0-3.37-.34l-.23,0a1.17,1.17,0,0,0-1.14.88,1.06,1.06,0,0,0-.4-.08,1.05,1.05,0,0,0-.91,1.61h8.86A.61.61,0,0,0,139.2,365.84Z" transform="translate(-93.89 -183.75)"/><path class="cls-5" d="M161.29,357a.86.86,0,0,0-.86-.87.92.92,0,0,0-.37.09,1.21,1.21,0,0,0-.85-.65,1,1,0,0,0,0-.26,1.44,1.44,0,0,0-1.44-1.44,1.46,1.46,0,0,0-1,.39,2.63,2.63,0,0,0-5.17-.52l-.36,0a1.8,1.8,0,0,0-1.75,1.35A1.58,1.58,0,0,0,149,355a1.65,1.65,0,0,0-1.66,1.65,1.6,1.6,0,0,0,.26.83h13.61A.86.86,0,0,0,161.29,357Z" transform="translate(-93.89 -183.75)"/><polygon class="cls-11" points="61.47 188.78 38.77 203.23 61.47 203.23 61.47 188.78"/><polygon class="cls-10" points="100.19 203.23 75.58 171.6 49.62 203.23 100.19 203.23"/><rect class="cls-4" x="30.78" y="203.34" width="79.05" height="0.99"/><path class="cls-12" d="M190.13,396.29V336.17h-7.41c-22,6.24-35,21.23-35,42.22v17.9Z" transform="translate(-93.89 -183.75)"/><path class="cls-13" d="M272.47,396.29V377.36c0-31.88-26.28-46.51-58.15-46.51h0c-31.88,0-57.75,14.63-57.75,46.51v18.93Z" transform="translate(-93.89 -183.75)"/><rect class="cls-5" x="63.64" y="185.06" width="18.86" height="27.48"/><polygon class="cls-4" points="83.81 212.53 81.82 212.53 81.82 186.05 63.64 186.05 63.64 184.07 83.81 184.07 83.81 212.53"/><rect class="cls-5" x="252.65" y="368.81" width="18.86" height="27.48" transform="translate(430.27 581.35) rotate(180)"/><polygon class="cls-4" points="159.44 212.53 157.46 212.53 157.46 184.07 176.48 184.07 176.48 186.05 159.44 186.05 159.44 212.53"/><path class="cls-4" d="M273.46,397.28H155.57V377.36c0-29.3,22.51-47.51,58.75-47.51,36.48,0,59.14,18.21,59.14,47.51Zm-115.9-2H271.48V377.36c0-33.56-29.53-45.52-57.16-45.52-16.39,0-30.3,3.84-40.24,11.11-11,8-16.52,19.59-16.52,34.41Z" transform="translate(-93.89 -183.75)"/><circle class="cls-5" cx="81.54" cy="101.55" r="7.44"/><path class="cls-4" d="M175.43,293.47a8.43,8.43,0,1,1,8.43-8.42A8.44,8.44,0,0,1,175.43,293.47Zm0-14.87a6.45,6.45,0,1,0,6.44,6.45A6.45,6.45,0,0,0,175.43,278.6Z" transform="translate(-93.89 -183.75)"/><path class="cls-5" d="M264,285.31a7.44,7.44,0,1,1-7.44-7.44A7.44,7.44,0,0,1,264,285.31Z" transform="translate(-93.89 -183.75)"/><path class="cls-4" d="M256.59,293.47a8.43,8.43,0,1,1,8.43-8.42A8.44,8.44,0,0,1,256.59,293.47Zm0-14.87a6.45,6.45,0,1,0,6.44,6.45A6.45,6.45,0,0,0,256.59,278.6Z" transform="translate(-93.89 -183.75)"/><path class="cls-5" d="M200.74,292.87v52.48h0a14.7,14.7,0,0,0,26.9-.23l.63-1.44V292.87Z" transform="translate(-93.89 -183.75)"/><path class="cls-4" d="M214.49,354.13a16,16,0,0,1-12.79-6.36,10.27,10.27,0,0,1-1.95-6.07v-36a13.84,13.84,0,0,1,13.82-13.82h1.87a13.84,13.84,0,0,1,13.82,13.82v34.52A13.41,13.41,0,0,1,224.15,351,16.16,16.16,0,0,1,214.49,354.13Zm-.92-60.27a11.85,11.85,0,0,0-11.83,11.84v36a8.28,8.28,0,0,0,1.56,4.89,13.69,13.69,0,0,0,9.12,5.41A14.26,14.26,0,0,0,223,349.37a11.4,11.4,0,0,0,4.32-9.15V305.7a11.85,11.85,0,0,0-11.83-11.84Z" transform="translate(-93.89 -183.75)"/><path class="cls-12" d="M200.74,332.82c5.31,2.59,8.74,4.09,15,4.09,5.31,0,7.85-1.05,12.49-2.93V295H200.74Z" transform="translate(-93.89 -183.75)"/><path class="cls-5" d="M175.77,247.9v41.89a40,40,0,0,0,40,40h0a40,40,0,0,0,40-40V247.9h-80Z" transform="translate(-93.89 -183.75)"/><path class="cls-4" d="M215.78,330.8a41,41,0,0,1-41-41V246.91h82v42.88A41,41,0,0,1,215.78,330.8Zm-39-81.91v40.9a39,39,0,1,0,78,0v-40.9Z" transform="translate(-93.89 -183.75)"/><path class="cls-4" d="M193.21,278.51l-1.94-.43a7.17,7.17,0,0,1,7-5.57,7.1,7.1,0,0,1,7,5.53l-1.94.44a5.12,5.12,0,0,0-5-4A5.17,5.17,0,0,0,193.21,278.51Z" transform="translate(-93.89 -183.75)"/><path class="cls-4" d="M228.06,278.51l-1.94-.43a7.18,7.18,0,0,1,7-5.57A7.1,7.1,0,0,1,240,278l-1.94.44a5.12,5.12,0,0,0-5-4A5.18,5.18,0,0,0,228.06,278.51Z" transform="translate(-93.89 -183.75)"/><path class="cls-12" d="M176.22,245.12a17.34,17.34,0,0,0-.21,2.51l-.24-.07v14.93a9.71,9.71,0,0,1,5.86-2.08h66a16.51,16.51,0,0,0,8.18-2.17V245.12H176.22Z" transform="translate(-93.89 -183.75)"/><path class="cls-4" d="M216.19,298.66a6.63,6.63,0,0,1-6.62-6.62h2a4.63,4.63,0,0,0,9.26,0h2A6.63,6.63,0,0,1,216.19,298.66Z" transform="translate(-93.89 -183.75)"/><path class="cls-4" d="M200,278.29a1.78,1.78,0,1,1-1.78-1.77A1.78,1.78,0,0,1,200,278.29Z" transform="translate(-93.89 -183.75)"/><path class="cls-4" d="M234.86,278.29a1.78,1.78,0,1,1-1.78-1.77A1.78,1.78,0,0,1,234.86,278.29Z" transform="translate(-93.89 -183.75)"/><path class="cls-4" d="M216.18,313.16a15.94,15.94,0,0,1-9.76-3.14l1.22-1.57a14.77,14.77,0,0,0,17.08,0l1.21,1.57A15.93,15.93,0,0,1,216.18,313.16Z" transform="translate(-93.89 -183.75)"/><path class="cls-6" d="M202.63,293.86a1.89,1.89,0,1,1-1.89-1.89A1.89,1.89,0,0,1,202.63,293.86Z" transform="translate(-93.89 -183.75)"/><path class="cls-6" d="M194.12,293.74a1.89,1.89,0,1,1-1.88-1.89A1.89,1.89,0,0,1,194.12,293.74Z" transform="translate(-93.89 -183.75)"/><path class="cls-6" d="M198.34,299.55a1.89,1.89,0,1,1-1.89-1.89A1.89,1.89,0,0,1,198.34,299.55Z" transform="translate(-93.89 -183.75)"/><path class="cls-6" d="M241,293.86a1.89,1.89,0,1,1-1.89-1.89A1.89,1.89,0,0,1,241,293.86Z" transform="translate(-93.89 -183.75)"/><path class="cls-6" d="M232.49,293.74a1.89,1.89,0,1,1-1.88-1.89A1.89,1.89,0,0,1,232.49,293.74Z" transform="translate(-93.89 -183.75)"/><path class="cls-6" d="M236.71,299.55a1.89,1.89,0,1,1-1.89-1.89A1.89,1.89,0,0,1,236.71,299.55Z" transform="translate(-93.89 -183.75)"/><path class="cls-6" d="M266.86,222v17.23a16.58,16.58,0,0,1-16.58,16.58h-66a8.3,8.3,0,0,0-8.29,8.3V275a1.66,1.66,0,0,1-1.66,1.66h-8.26a1.67,1.67,0,0,1-1.65-1.66V243.48c2.6-7.8,11.57-4.87,11.57-4.87A16.59,16.59,0,0,1,192.59,222Z" transform="translate(-93.89 -183.75)"/><path class="cls-6" d="M181.63,251.39h66a16.58,16.58,0,0,0,16.58-16.59V222h-71.6A16.59,16.59,0,0,0,176,238.61s-9-2.93-11.57,4.87V274h6.35a1.66,1.66,0,0,0,1.66-1.66V259.68C172.45,255.11,177.06,251.39,181.63,251.39Z" transform="translate(-93.89 -183.75)"/><path class="cls-4" d="M174.35,277.64h-8.26a2.65,2.65,0,0,1-2.65-2.65V243.32l.06-.16c2.05-6.14,7.89-6.59,11.56-5.83A17.6,17.6,0,0,1,192.59,221h75.26v18.22a17.6,17.6,0,0,1-17.57,17.58h-66a7.31,7.31,0,0,0-7.3,7.3V275A2.65,2.65,0,0,1,174.35,277.64Zm-8.92-34V275a.67.67,0,0,0,.66.66h8.26A.67.67,0,0,0,175,275V264.13a9.3,9.3,0,0,1,9.28-9.29h66a15.61,15.61,0,0,0,15.59-15.59V223H192.59A15.61,15.61,0,0,0,177,238.61V240l-1.3-.42C175.38,239.45,167.75,237.07,165.43,243.64Z" transform="translate(-93.89 -183.75)"/><path class="cls-14" d="M189,190.1v35.46a4.91,4.91,0,0,1-4.91,4.91h0a1,1,0,0,0-1,1v14.18a.86.86,0,0,1-1.51.55l-18.92-15.47a.94.94,0,0,0-.6-.22H109.28a4.31,4.31,0,0,1-4.32-4.31V190.25a5.42,5.42,0,0,1,5.42-5.42h73.31A5.27,5.27,0,0,1,189,190.1Z" transform="translate(-93.89 -183.75)"/><path class="cls-4" d="M182.24,247.55a1.92,1.92,0,0,1-1.39-.61L162,231.55H109.83a6,6,0,0,1-5.94-5.94V189.69a6,6,0,0,1,5.94-5.94H184.1a6,6,0,0,1,6,5.94v35.92a6,6,0,0,1-5.87,5.94v14.06a1.93,1.93,0,0,1-1.27,1.82A2,2,0,0,1,182.24,247.55Zm-72.41-61.64a3.79,3.79,0,0,0-3.79,3.78v35.92a3.79,3.79,0,0,0,3.79,3.79h53L182,245.12V229.4h2.08a3.79,3.79,0,0,0,3.79-3.79V189.69a3.79,3.79,0,0,0-3.79-3.78Z" transform="translate(-93.89 -183.75)"/><path class="cls-5" d="M160.43,202.43a8.66,8.66,0,0,0-14.85-6.07,8.66,8.66,0,0,0-12.43,12.07l12.39,12.34,12.71-12.6c.14-.16.5-.62.5-.62A8.67,8.67,0,0,0,160.43,202.43Z" transform="translate(-93.89 -183.75)"/><path class="cls-4" d="M269.05,268.15a5.66,5.66,0,1,1,5.66-5.66A5.67,5.67,0,0,1,269.05,268.15Zm0-9.34a3.68,3.68,0,1,0,3.67,3.68A3.67,3.67,0,0,0,269.05,258.81Z" transform="translate(-93.89 -183.75)"/><path class="cls-4" d="M155.36,319.23a4.82,4.82,0,1,1,4.81-4.82A4.82,4.82,0,0,1,155.36,319.23Zm0-7.65a2.83,2.83,0,1,0,2.83,2.83A2.83,2.83,0,0,0,155.36,311.58Z" transform="translate(-93.89 -183.75)"/><path class="cls-4" d="M301.91,290.69a4.39,4.39,0,1,1,4.39-4.38A4.39,4.39,0,0,1,301.91,290.69Zm0-6.78a2.4,2.4,0,1,0,2.4,2.4A2.4,2.4,0,0,0,301.91,283.91Z" transform="translate(-93.89 -183.75)"/><path class="cls-4" d="M144,273.87a6.53,6.53,0,1,1,6.54-6.53A6.54,6.54,0,0,1,144,273.87Zm0-11.07a4.54,4.54,0,1,0,4.55,4.54A4.54,4.54,0,0,0,144,262.8Z" transform="translate(-93.89 -183.75)"/><path class="cls-4" d="M337.35,244.28a6.53,6.53,0,1,1,6.54-6.53A6.53,6.53,0,0,1,337.35,244.28Zm0-11.07a4.55,4.55,0,1,0,4.55,4.54A4.55,4.55,0,0,0,337.35,233.21Z" transform="translate(-93.89 -183.75)"/><path class="cls-4" d="M100.42,289.44a6.54,6.54,0,1,1,6.53-6.53A6.53,6.53,0,0,1,100.42,289.44Zm0-11.08a4.55,4.55,0,1,0,4.54,4.55A4.55,4.55,0,0,0,100.42,278.36Z" transform="translate(-93.89 -183.75)"/><rect class="cls-4" x="16.41" y="211.54" width="211.93" height="1.99"/></svg>