<svg id="email_marketing" data-name="email marketing" xmlns="http://www.w3.org/2000/svg" viewBox="0 0 250 250"><defs><style>.cls-1{fill:#f1f2ec;}.cls-2{fill:#27c7cd;}.cls-3{fill:#e8e9e1;}.cls-4{fill:#1b2c38;}.cls-5{fill:#bcbec0;}.cls-6{fill:#fff;}.cls-7{fill:#fc3e59;}.cls-8{fill:#e6e7e8;}.cls-9{fill:#231f20;opacity:0.1;isolation:isolate;}.cls-10{fill:#ffcb05;}.cls-11{fill:#fade79;}</style></defs><title>15-email-marketing-service</title><circle class="cls-1" cx="121.55" cy="140.9" r="109.1"/><circle class="cls-2" cx="121.82" cy="142.57" r="97.55"/><path class="cls-1" d="M204.69,210.35c-18,23.47-48.52,38.91-83.12,38.91-34.09,0-64.21-15-82.32-37.89Z"/><path class="cls-3" d="M195.29,212.22c-18,18.94-45.7,31.07-76.77,31.07-30.57,0-57.88-11.75-75.89-30.16H40.75c17.74,21.43,47.25,35.45,80.66,35.45,33.91,0,63.8-14.44,81.45-36.41Z"/><path class="cls-4" d="M121.56,250a110,110,0,1,1,110-110h0A110.13,110.13,0,0,1,121.56,250Zm0-218.2A108.2,108.2,0,1,0,229.75,140h0A108.32,108.32,0,0,0,121.56,31.8Z"/><rect class="cls-4" x="11.49" y="211.65" width="223.31" height="1.99"/><rect class="cls-4" x="239.68" y="211.65" width="10.32" height="1.99"/><rect class="cls-4" y="211.65" width="5.58" height="1.99"/><path class="cls-5" d="M199.07,212.65H48.57a7.52,7.52,0,0,1-7.52-7.52V121.2A11.16,11.16,0,0,1,52.21,110H199.07a7.75,7.75,0,0,1,7.74,7.74V204.9a7.75,7.75,0,0,1-7.73,7.75Z"/><path class="cls-5" d="M49,110l63.65-52.34a19.09,19.09,0,0,1,22.5,0L198.89,110Z"/><path class="cls-4" d="M198.2,110.78,134.55,58.44a18,18,0,0,0-21.28,0l-63.61,52.3L48.4,109.2,112.05,57a20,20,0,0,1,23.72,0l63.7,52.37Z"/><path class="cls-4" d="M198.37,213.65H49.49a9.44,9.44,0,0,1-9.43-9.44V118.47A9.43,9.43,0,0,1,49.49,109H198.37a9.44,9.44,0,0,1,9.44,9.43v85.74a9.44,9.44,0,0,1-9.44,9.44ZM49.49,111a7.44,7.44,0,0,0-7.44,7.44h0v85.74a7.44,7.44,0,0,0,7.44,7.44H198.37a7.45,7.45,0,0,0,7.45-7.44V118.47a7.45,7.45,0,0,0-7.45-7.44Z"/><path class="cls-6" d="M89.39,32.57l-24,23.27V183.62h113.5V42.19a9.61,9.61,0,0,0-9.6-9.62H89.39Z"/><path class="cls-7" d="M90.18,32.57l-24.75,24h20a4.69,4.69,0,0,0,4.71-4.69h0Z"/><path class="cls-4" d="M84.15,58H65.43V56H84.15a5.48,5.48,0,0,0,5.47-5.47v-18h2v18A7.49,7.49,0,0,1,84.15,58Z"/><path class="cls-4" d="M179.89,183.62h-2v-142a8.12,8.12,0,0,0-8.1-8.1H93.08a8.08,8.08,0,0,0-5.64,2.29l-18.56,18a8.15,8.15,0,0,0-2.46,5.81v124h-2V59.69a10.17,10.17,0,0,1,3.06-7.24L86,34.45a10.12,10.12,0,0,1,7-2.85h76.85a10.11,10.11,0,0,1,10,10.06Z"/><path class="cls-1" d="M45.79,210.42s60-46.58,60-50.57L43.44,114.29S41,117,41,125.48V206C41.05,209.65,43.76,210,45.79,210.42Z"/><path class="cls-1" d="M202.4,210.42s-60-46.58-60-50.57l62.36-45.56s2.39,2.66,2.39,11.19V206C207.14,209.65,204.43,210,202.4,210.42Z"/><path class="cls-3" d="M45.79,211.84l66.49-55.3a19.71,19.71,0,0,1,23.5,0l66.49,55.3Z"/><path class="cls-4" d="M201.64,212l-66.49-54.67a18.85,18.85,0,0,0-22.28,0L46.43,212l-1.27-1.54,66.49-54.67a20.89,20.89,0,0,1,24.72,0l66.52,54.65Z"/><rect class="cls-4" x="74.29" y="97.96" width="1.97" height="79.22" transform="translate(-80.21 117.17) rotate(-53.84)"/><rect class="cls-4" x="132.58" y="136.54" width="79.1" height="1.97" transform="translate(-47.98 127.98) rotate(-36.14)"/><path class="cls-4" d="M197.62,213.65H50.25a10.21,10.21,0,0,1-10.19-10.2V119.23A10.2,10.2,0,0,1,50.25,109v2a8.21,8.21,0,0,0-8.2,8.2v84.21a8.21,8.21,0,0,0,8.2,8.2H197.62a8.21,8.21,0,0,0,8.2-8.2V119.23a8.21,8.21,0,0,0-8.2-8.2v-2a10.2,10.2,0,0,1,10.19,10.19v84.23A10.21,10.21,0,0,1,197.62,213.65Z"/><rect class="cls-8" x="78.11" y="67.69" width="86.38" height="6.13"/><rect class="cls-8" x="78.11" y="82.01" width="86.38" height="6.13"/><rect class="cls-8" x="78.11" y="96.32" width="86.38" height="6.13"/><rect class="cls-8" x="78.11" y="110.63" width="86.38" height="6.13"/><rect class="cls-8" x="78.11" y="124.94" width="86.38" height="6.13"/><polygon class="cls-8" points="156.02 145.38 91.17 145.38 82.83 139.25 164.36 139.25 156.02 145.38"/><path class="cls-9" d="M134.61,120.56,139.14,96a46.66,46.66,0,1,1,17.75,20.43Z"/><path class="cls-10" d="M134.61,113.41l4.53-24.52a46.62,46.62,0,1,1,17.75,20.43Z"/><path class="cls-4" d="M181.58,117.44a47.45,47.45,0,0,1-24.86-7.07l-23.36,4.28L138.1,89a47.5,47.5,0,1,1,43.48,28.43Zm-24.46-9.17.33.2a45.56,45.56,0,1,0-17.4-20l.12.29-4.28,23.41Z"/><circle class="cls-11" cx="181.33" cy="69.93" r="28.26" transform="translate(72.55 230.98) rotate(-77.05)"/><rect class="cls-4" x="181.17" width="1.99" height="16.31"/><rect class="cls-4" x="189.69" y="9.51" width="16.31" height="1.99" transform="translate(136.5 198.89) rotate(-75)"/><rect class="cls-4" x="204.2" y="15.81" width="16.31" height="1.99" transform="translate(91.66 192.33) rotate(-60.01)"/><rect class="cls-4" x="216.64" y="25.69" width="16.31" height="1.99" transform="translate(46.97 166.77) rotate(-45)"/><rect class="cls-4" x="226.07" y="38.43" width="16.31" height="1.99" transform="translate(11.68 122.43) rotate(-30.01)"/><rect class="cls-4" x="231.89" y="53.17" width="16.31" height="1.99" transform="translate(-5.84 63.97) rotate(-15)"/><rect class="cls-4" x="233.69" y="68.92" width="16.31" height="1.99"/><rect class="cls-4" x="137.86" y="17.07" width="1.99" height="16.31" transform="translate(22.93 105.72) rotate(-45.07)"/><rect class="cls-4" x="150.6" y="7.62" width="1.99" height="16.31" transform="translate(12.5 78.08) rotate(-30.07)"/><rect class="cls-4" x="165.34" y="1.82" width="1.99" height="16.31" transform="translate(3.13 43.59) rotate(-15.07)"/><path class="cls-4" d="M180.75,88.22V85a19,19,0,0,1-10.81-4.79l3.21-3.83a15.26,15.26,0,0,0,7.6,3.83V71.69a18,18,0,0,1-7.28-3.12,7.08,7.08,0,0,1-2.3-5.74,8,8,0,0,1,2.66-6.22A10.74,10.74,0,0,1,180.75,54v-2.2h2.82V54a18.39,18.39,0,0,1,9.14,3.3l-2.86,4a14.09,14.09,0,0,0-6.28-2.55V67h.13a18,18,0,0,1,7.43,3.21,7.3,7.3,0,0,1,2.37,5.87,8,8,0,0,1-2.72,6.27A11.37,11.37,0,0,1,183.57,85v3.16Zm-3.1-28.38a3.11,3.11,0,0,0-1.12,2.46,3.06,3.06,0,0,0,.88,2.33,8.72,8.72,0,0,0,3.34,1.65V58.67a5.32,5.32,0,0,0-3.1,1.17Zm9.24,19.28a3.39,3.39,0,0,0,.47-4.77l-.21-.23a9.68,9.68,0,0,0-3.6-1.69v7.91A6.13,6.13,0,0,0,186.89,79.12Z"/></svg>