<svg id="ppc" xmlns="http://www.w3.org/2000/svg" viewBox="0 0 250 250"><defs><style>.cls-1{fill:#f1f2ec;}.cls-2{fill:#e8e9e1;}.cls-3{fill:#1b2c38;}.cls-4{fill:#636c78;}.cls-5{fill:#27c7cd;}.cls-6{fill:#fff;}.cls-7{fill:#fc3e59;}.cls-8{fill:#d8d8d8;}.cls-9{fill:#ffcb05;}.cls-10{fill:#231f20;opacity:0.1;}</style></defs><title>16-ppc-service</title><ellipse class="cls-1" cx="125.67" cy="125.91" rx="110" ry="108.33"/><path class="cls-1" d="M333.51,345.26C315,376.18,280.4,397,240.84,397c-38.33,0-72-19.52-90.89-48.86Z" transform="translate(-115.15 -162.74)"/><path class="cls-2" d="M333.06,344.37l-183.78,3.42c1.46,2.71,3,5.32,4.65,7.89l170.65,3.18A126.59,126.59,0,0,0,333.06,344.37Z" transform="translate(-115.15 -162.74)"/><path class="cls-3" d="M240.82,398.55a110,110,0,1,1,110-110A110.12,110.12,0,0,1,240.82,398.55Zm0-217.9a107.91,107.91,0,1,0,107.9,107.9A108,108,0,0,0,240.82,180.65Z" transform="translate(-115.15 -162.74)"/><rect class="cls-3" x="19.15" y="183.83" width="208.35" height="2"/><rect class="cls-3" x="235.19" y="183.83" width="14.81" height="2"/><rect class="cls-3" y="183.83" width="12.33" height="2"/><rect class="cls-4" x="36.76" y="67.85" width="178.72" height="110.7" rx="1"/><path class="cls-3" d="M329.62,342.29H152.91a2,2,0,0,1-2-2V231.59a2,2,0,0,1,2-2H329.62a2,2,0,0,1,2,2v108.7A2,2,0,0,1,329.62,342.29Zm0-2v0ZM152.91,231.59v108.7H329.62V231.59Z" transform="translate(-115.15 -162.74)"/><rect class="cls-5" x="45.44" y="77.96" width="160.39" height="86.48"/><path class="cls-6" d="M328.4,347.06H154a8.56,8.56,0,0,1-8.44-7.17l-1.24-7.58h194.8L338,338.9A9.73,9.73,0,0,1,328.4,347.06Z" transform="translate(-115.15 -162.74)"/><path class="cls-3" d="M328.4,348.05H154a9.51,9.51,0,0,1-9.42-8l-1.44-8.74H340.26L339,339.06A10.7,10.7,0,0,1,328.4,348.05ZM145.46,333.31l1,6.42a7.52,7.52,0,0,0,7.45,6.32H328.4a8.68,8.68,0,0,0,8.61-7.31l.89-5.43Z" transform="translate(-115.15 -162.74)"/><rect class="cls-3" x="113.37" y="174.29" width="26.1" height="2"/><path class="cls-6" d="M304.38,327.35H177.16V181.61a5.41,5.41,0,0,1,5.41-5.42h116a5.83,5.83,0,0,1,5.82,5.82Z" transform="translate(-115.15 -162.74)"/><path class="cls-7" d="M304.38,190.35H177.16v-8.92a5.55,5.55,0,0,1,5.55-5.55h116a5.68,5.68,0,0,1,5.68,5.68Z" transform="translate(-115.15 -162.74)"/><rect class="cls-5" x="69.44" y="36.02" width="58.76" height="55.32"/><path class="cls-6" d="M188.53,183.38a1.64,1.64,0,1,1-1.63-1.62A1.63,1.63,0,0,1,188.53,183.38Z" transform="translate(-115.15 -162.74)"/><path class="cls-6" d="M194.9,183.38a1.64,1.64,0,1,1-1.64-1.62A1.64,1.64,0,0,1,194.9,183.38Z" transform="translate(-115.15 -162.74)"/><path class="cls-6" d="M201.27,183.38a1.64,1.64,0,0,1-3.27,0,1.64,1.64,0,0,1,3.27,0Z" transform="translate(-115.15 -162.74)"/><rect class="cls-8" x="130.51" y="49.82" width="49.89" height="2.75"/><rect class="cls-8" x="130.51" y="57.95" width="49.89" height="2.75"/><rect class="cls-8" x="130.51" y="66.08" width="49.89" height="2.75"/><rect class="cls-8" x="130.51" y="74.21" width="49.89" height="2.75"/><rect class="cls-8" x="130.51" y="82.34" width="34.47" height="2.75"/><rect class="cls-8" x="130.51" y="36.01" width="49.89" height="6.9"/><rect class="cls-8" x="69.69" y="104.4" width="110.71" height="2.75"/><rect class="cls-8" x="80.13" y="113.81" width="89.55" height="2.75"/><rect class="cls-8" x="80.13" y="123.21" width="89.55" height="2.75"/><rect class="cls-8" x="80.13" y="132.62" width="89.55" height="2.75"/><rect class="cls-8" x="80.13" y="142.03" width="89.55" height="2.75"/><rect class="cls-8" x="80.13" y="151.43" width="44.78" height="2.75"/><path class="cls-3" d="M305.38,327.35h-2V181.47a4.28,4.28,0,0,0-4.28-4.28H182.43a4.28,4.28,0,0,0-4.27,4.28V327.35h-2V181.47a6.28,6.28,0,0,1,6.27-6.28H299.1a6.29,6.29,0,0,1,6.28,6.28Z" transform="translate(-115.15 -162.74)"/><rect class="cls-3" x="63.58" y="26.61" width="125.65" height="2"/><path class="cls-9" d="M229.7,228.82A14.68,14.68,0,1,1,215,214.14,14.68,14.68,0,0,1,229.7,228.82Z" transform="translate(-115.15 -162.74)"/><path class="cls-3" d="M214.35,235.5v-1.19a7.39,7.39,0,0,1-3.8-1.86l1.51-1.84a6.4,6.4,0,0,0,2.29,1.41v-2.41a5.88,5.88,0,0,1-2.5-1.18,2.76,2.76,0,0,1-.8-2.13A3.12,3.12,0,0,1,212,224a4,4,0,0,1,2.39-1.08v-.79h1.72V223a7.51,7.51,0,0,1,3.23,1.34L218,226.23a6.11,6.11,0,0,0-1.9-1v2.33a6.19,6.19,0,0,1,2.59,1.22,2.8,2.8,0,0,1,.83,2.16,3.07,3.07,0,0,1-.93,2.3,4.1,4.1,0,0,1-2.49,1.09v1.14Zm0-10.31a.9.9,0,0,0-.7.89,1.05,1.05,0,0,0,.7,1Zm2.55,5.91a.88.88,0,0,0-.18-.57,1.65,1.65,0,0,0-.65-.42v2A1,1,0,0,0,216.9,231.1Z" transform="translate(-115.15 -162.74)"/><rect class="cls-3" x="214.1" y="200.4" width="2" height="7.77" transform="translate(-123.19 -153.92) rotate(-2.31)"/><rect class="cls-3" x="221.12" y="203.07" width="15.52" height="2" transform="translate(-177.6 137.03) rotate(-59.9)"/><rect class="cls-3" x="231.59" y="215" width="7.76" height="2" transform="translate(-191.39 -16.98) rotate(-29.83)"/><rect class="cls-3" x="241.43" y="219.95" width="2" height="15.52" transform="translate(-101.5 306.39) rotate(-89.75)"/><rect class="cls-3" x="214.16" y="247.01" width="2" height="7.76" transform="translate(-120.47 -158.08) rotate(-1.23)"/><rect class="cls-3" x="193.66" y="249.98" width="15.52" height="2" transform="translate(-232.28 133.94) rotate(-59.42)"/><rect class="cls-3" x="191.4" y="238" width="7.44" height="2" transform="translate(-209.79 -29.7) rotate(-30.69)"/><rect class="cls-3" x="187.08" y="219.46" width="2" height="15.52" transform="translate(-156.79 249.5) rotate(-89.23)"/><rect class="cls-3" x="194.25" y="212.07" width="2" height="7.55" transform="translate(-202.29 123.59) rotate(-61.88)"/><rect class="cls-3" x="201.05" y="196.07" width="2" height="15.52" transform="translate(-188.72 -38.93) rotate(-29.06)"/><polygon class="cls-10" points="118.65 81.71 130.99 96.42 125.85 100.73 113.52 86.02 110.01 95.74 100.1 64.8 128.84 79.95 118.65 81.71"/><polygon class="cls-3" points="120.06 80.03 133.63 93.6 128.9 98.33 115.33 84.76 112.67 94.75 100.1 64.8 130.05 77.38 120.06 80.03"/><circle class="cls-10" cx="161.93" cy="98.14" r="17.13"/><circle class="cls-9" cx="277.92" cy="258.82" r="14.89" transform="translate(-193.36 -35.81) rotate(-22.64)"/><path class="cls-3" d="M277.92,274.71a15.89,15.89,0,1,1,15.88-15.89A15.91,15.91,0,0,1,277.92,274.71Zm0-29.78a13.89,13.89,0,1,0,13.88,13.89A13.9,13.9,0,0,0,277.92,244.93Z" transform="translate(-115.15 -162.74)"/><path class="cls-3" d="M277.23,265.59v-1.2a7.55,7.55,0,0,1-3.85-1.89l1.53-1.86a6.82,6.82,0,0,0,2.32,1.43v-2.45a5.91,5.91,0,0,1-2.53-1.2,2.78,2.78,0,0,1-.81-2.15,3.13,3.13,0,0,1,.92-2.32,4,4,0,0,1,2.42-1.1V252H279v.84a7.56,7.56,0,0,1,3.27,1.37l-1.35,1.94a6.24,6.24,0,0,0-1.92-1v2.37a6.15,6.15,0,0,1,2.62,1.23,2.81,2.81,0,0,1,.85,2.19,3.11,3.11,0,0,1-.95,2.34,4.19,4.19,0,0,1-2.52,1.1v1.15Zm0-10.45a.91.91,0,0,0-.7.9,1.09,1.09,0,0,0,.7,1Zm2.59,6a.93.93,0,0,0-.18-.58,1.63,1.63,0,0,0-.66-.42v2A1,1,0,0,0,279.82,261.13Z" transform="translate(-115.15 -162.74)"/><circle class="cls-10" cx="315.68" cy="217.93" r="20.77" transform="translate(-170.3 153.33) rotate(-49.44)"/><path class="cls-9" d="M333.45,225.27a18,18,0,1,1-6.65-24.65A18,18,0,0,1,333.45,225.27Z" transform="translate(-115.15 -162.74)"/><path class="cls-3" d="M317.77,235.32a19,19,0,1,1,16.55-9.55h0A19.07,19.07,0,0,1,317.77,235.32Zm.06-36.09a17,17,0,1,0,8.47,2.26A17.06,17.06,0,0,0,317.83,199.23Z" transform="translate(-115.15 -162.74)"/><path class="cls-3" d="M313,223l.73-1.26a9.18,9.18,0,0,1-2.91-4.32l2.74-1a8.16,8.16,0,0,0,1.57,2.91l1.48-2.58a7.11,7.11,0,0,1-1.94-2.79,3.39,3.39,0,0,1,.46-2.75,3.75,3.75,0,0,1,2.37-1.88,4.81,4.81,0,0,1,3.2.31l.49-.85,1.83,1-.5.89a9.09,9.09,0,0,1,2.61,3.41l-2.59,1.23a7.48,7.48,0,0,0-1.43-2.2l-1.43,2.49a7.65,7.65,0,0,1,2,2.88,3.44,3.44,0,0,1-.44,2.82,3.77,3.77,0,0,1-2.4,1.88,5.06,5.06,0,0,1-3.33-.37l-.69,1.21Zm6.32-11a1.11,1.11,0,0,0-1.29.53,1.3,1.3,0,0,0,.14,1.48Zm-.9,7.86a1,1,0,0,0,.15-.71,1.93,1.93,0,0,0-.43-.85l-1.22,2.13A1.26,1.26,0,0,0,318.41,219.85Z" transform="translate(-115.15 -162.74)"/><path class="cls-10" d="M276.62,211.21a11.08,11.08,0,1,1-15.43-2.73A11.08,11.08,0,0,1,276.62,211.21Z" transform="translate(-115.15 -162.74)"/><path class="cls-9" d="M275.11,210.64a9.63,9.63,0,1,1-13.4-2.37A9.63,9.63,0,0,1,275.11,210.64Z" transform="translate(-115.15 -162.74)"/><path class="cls-3" d="M267.25,226.79a10.73,10.73,0,0,1-1.87-.16,10.65,10.65,0,1,1,1.87.16Zm0-19.26a8.63,8.63,0,1,0,7.09,3.69h0a8.59,8.59,0,0,0-5.57-3.55A8.77,8.77,0,0,0,267.21,207.53Z" transform="translate(-115.15 -162.74)"/><path class="cls-3" d="M269.37,220l-.44-.63a4.82,4.82,0,0,1-2.74.42l.12-1.55a4.37,4.37,0,0,0,1.76-.1l-.91-1.3a3.89,3.89,0,0,1-1.79.31,1.8,1.8,0,0,1-1.22-.85,2,2,0,0,1-.37-1.57,2.58,2.58,0,0,1,.87-1.48l-.3-.42.93-.65.31.44a4.93,4.93,0,0,1,2.24-.49v1.53a4.28,4.28,0,0,0-1.39.19l.88,1.26a4,4,0,0,1,1.85-.32,1.81,1.81,0,0,1,1.26.85,2,2,0,0,1,.36,1.59,2.65,2.65,0,0,1-.93,1.52l.43.61Zm-3.87-5.53a.59.59,0,0,0,0,.74.71.71,0,0,0,.75.27Zm3.59,2.21a.6.6,0,0,0-.31-.24,1.13,1.13,0,0,0-.51,0l.75,1.07A.65.65,0,0,0,269.09,216.68Z" transform="translate(-115.15 -162.74)"/><rect class="cls-3" x="47.46" y="42.8" width="4.25" height="2"/><rect class="cls-3" x="40.14" y="42.8" width="4.25" height="2"/><rect class="cls-3" y="42.8" width="37.08" height="2"/><rect class="cls-3" x="245.75" y="99.73" width="4.25" height="2"/><rect class="cls-3" x="238.43" y="99.73" width="4.25" height="2"/><rect class="cls-3" x="198.28" y="99.73" width="37.08" height="2"/><rect class="cls-3" x="17.78" y="50.2" width="42.24" height="2"/><rect class="cls-3" x="37.46" y="3.81" width="9.62" height="2"/><rect class="cls-3" x="41.27" width="2" height="9.62"/><rect class="cls-3" x="226.72" y="231.86" width="6.82" height="2"/><rect class="cls-3" x="229.13" y="229.45" width="2" height="6.82"/><rect class="cls-3" x="241.78" y="245.03" width="7.94" height="2"/><rect class="cls-3" x="244.75" y="242.06" width="2" height="7.94"/><rect class="cls-3" x="228.73" y="72.66" width="10.15" height="2"/><rect class="cls-3" x="232.8" y="68.59" width="2" height="10.15"/></svg>