<svg xmlns="http://www.w3.org/2000/svg" viewBox="0 0 570 437.02"><defs><style>.cls-1{fill:#e2e7ec;}.cls-2{fill:#1b2c38;}.cls-3{fill:#27c7cd;}.cls-4{fill:#ffcb05;}.cls-5{fill:#6066e2;}.cls-6{fill:#515ace;}.cls-7{fill:#6c6ff2;}.cls-8{fill:#d1d3d4;}.cls-9{fill:#e6e7e8;}.cls-10{fill:#fc3e59;}.cls-11{fill:#ea2f53;}.cls-12{fill:#e7643e;}.cls-13{fill:#95d133;}.cls-14{fill:#f1f2ec;}</style></defs><title>17-local-request</title><g id="Layer_6" data-name="Layer 6"><path class="cls-1" d="M143.54,287.2H116.36a.81.81,0,0,1,0-1.61h27.18a32.37,32.37,0,1,0-11.91-62.45.76.76,0,0,1-.66,0,.79.79,0,0,1-.42-.51,50.17,50.17,0,0,0-98.63,10.67.82.82,0,0,1-.37.65.8.8,0,0,1-.75.05A26.94,26.94,0,1,0,20,285.59H82.22a.81.81,0,1,1,0,1.61H20a28.56,28.56,0,1,1,0-57.11,28.24,28.24,0,0,1,10.39,2,51.78,51.78,0,0,1,101.49-10.73,33.6,33.6,0,0,1,11.67-2.09,34,34,0,1,1,0,68Z" transform="translate(8.57 -18.14)"/><path class="cls-1" d="M508,163.73H403.53a21.34,21.34,0,1,1,7.15-41.44A32.42,32.42,0,0,1,474.16,129a17.92,17.92,0,0,1,23.27,11A14.14,14.14,0,0,1,508,135.2a.68.68,0,1,1,0,1.36,12.8,12.8,0,0,0-10.31,5.18.69.69,0,0,1-.68.26.7.7,0,0,1-.53-.49,16.56,16.56,0,0,0-22.68-10.94.7.7,0,0,1-1-.6,31.06,31.06,0,0,0-61.06-6.6.69.69,0,0,1-.91.46,20,20,0,1,0-7.35,38.54H508A13,13,0,0,0,519.67,155a.69.69,0,0,1,1.24.59A14.36,14.36,0,0,1,508,163.73Z" transform="translate(8.57 -18.14)"/><path class="cls-1" d="M306.69,72.38H292.77a1,1,0,0,1,0-2h13.92a16,16,0,1,0-5.88-30.86,1,1,0,0,1-.82,0,1,1,0,0,1-.52-.64,25.11,25.11,0,0,0-30.17-18,1,1,0,1,1-.47-1.95,27.65,27.65,0,0,1,6.36-.75,27.15,27.15,0,0,1,25.92,19.14,18,18,0,1,1,5.58,35.1Z" transform="translate(8.57 -18.14)"/><path class="cls-1" d="M253,32.48a1,1,0,0,1-.53-.15,1,1,0,0,1-.32-1.38A27.17,27.17,0,0,1,263,21a1,1,0,1,1,.9,1.78A25.19,25.19,0,0,0,253.85,32,1,1,0,0,1,253,32.48Z" transform="translate(8.57 -18.14)"/><path class="cls-1" d="M234.57,47a1,1,0,0,1-.79-.38,1,1,0,0,1,.17-1.4,15.18,15.18,0,0,1,14.24-2.51,26.75,26.75,0,0,1,1.61-7,1,1,0,1,1,1.87.71,25.29,25.29,0,0,0-1.58,7.76,1,1,0,0,1-.46.81,1,1,0,0,1-.94.07,13.15,13.15,0,0,0-13.5,1.74A1.05,1.05,0,0,1,234.57,47Z" transform="translate(8.57 -18.14)"/><path class="cls-1" d="M275.28,72.38H243.39a15.24,15.24,0,0,1-15.22-15.22,1,1,0,0,1,2,0,13.23,13.23,0,0,0,13.22,13.22h31.89a1,1,0,0,1,0,2Z" transform="translate(8.57 -18.14)"/><path class="cls-1" d="M288,72.38h-7.89a1,1,0,0,1,0-2H288a1,1,0,0,1,0,2Z" transform="translate(8.57 -18.14)"/></g><g id="Layer_3" data-name="Layer 3"><path class="cls-2" d="M72.66,121H58.06l7.3-12.64Zm-12.87-1H70.92l-5.56-9.64Z" transform="translate(8.57 -18.14)"/><path class="cls-2" d="M451.45,192.26l-8.67-8.68,8.67-8.67,8.68,8.67Zm-7.26-8.68,7.26,7.27,7.26-7.27-7.26-7.26Z" transform="translate(8.57 -18.14)"/><rect class="cls-3" x="396.17" y="67.1" width="21.29" height="21.29" transform="translate(337.63 466.42) rotate(-90)"/><path class="cls-2" d="M397.23,93.51,381.47,77.75,397.23,62,413,77.75ZM382.88,77.75l14.35,14.34,14.34-14.34L397.23,63.4Z" transform="translate(8.57 -18.14)"/><circle class="cls-4" cx="132.96" cy="127.16" r="20.91"/><path class="cls-2" d="M113.59,159.51q-.6,0-1.17,0l0-1c.64,0,1.3,0,2,0l0,1C114.17,159.51,113.88,159.51,113.59,159.51Zm2.91-.19-.14-1a17.54,17.54,0,0,0,1.92-.35l.23,1C117.85,159.1,117.17,159.22,116.5,159.32Zm-6.12,0a19.31,19.31,0,0,1-2-.4l.25-1a17.44,17.44,0,0,0,1.91.38Zm10.1-.89-.32-.95c.61-.21,1.22-.45,1.81-.72l.41.92C121.76,157.91,121.12,158.16,120.48,158.38Zm-14.07-.1q-1-.34-1.89-.78l.42-.9c.59.27,1.2.52,1.81.74Zm17.79-1.58-.49-.87c.56-.32,1.11-.68,1.64-1.05l.58.82C125.37,156,124.79,156.36,124.2,156.7Zm-21.49-.15c-.58-.35-1.16-.73-1.71-1.13l.59-.81a17.69,17.69,0,0,0,1.63,1.08Zm24.83-2.21-.65-.76c.49-.42,1-.88,1.42-1.34l.72.69C128.56,153.42,128.06,153.89,127.54,154.34Zm-28.14-.2c-.5-.45-1-.93-1.46-1.43l.73-.68c.44.47.91.93,1.4,1.36Zm31-2.75-.79-.62c.4-.51.79-1.05,1.14-1.59l.84.54C131.2,150.29,130.8,150.85,130.38,151.39Zm-33.77-.24c-.41-.53-.8-1.1-1.17-1.68l.85-.53c.35.55.72,1.09,1.12,1.6Zm36-3.2-.89-.46a18.85,18.85,0,0,0,.81-1.77l.93.37A19.59,19.59,0,0,1,132.6,148Zm-38.16-.26a19.37,19.37,0,0,1-.83-1.87l.93-.36c.24.6.5,1.2.79,1.78Zm39.68-3.53-1-.28c.19-.62.34-1.26.47-1.9l1,.19A19.26,19.26,0,0,1,134.12,144.16ZM93,143.88a19.94,19.94,0,0,1-.46-2l1-.17c.12.63.26,1.27.44,1.9Zm41.93-3.73-1-.1q.09-1,.09-2h1C135,138.79,135,139.47,134.9,140.15Zm-42.65-.3c0-.58-.07-1.17-.07-1.75v-.29h1v.28c0,.56,0,1.12.07,1.67Zm41.7-3.13c0-.65-.12-1.3-.23-1.94l1-.16c.11.67.19,1.35.24,2Zm-40.65-.85-1-.11c.08-.67.19-1.35.32-2l1,.21C93.47,134.58,93.37,135.23,93.3,135.87Zm40-3c-.17-.62-.37-1.25-.59-1.86l.94-.34c.23.63.44,1.29.61,2Zm-39.23-.81-1-.3c.2-.65.44-1.3.7-1.92l.92.38C94.5,130.82,94.28,131.44,94.09,132.06ZM132,129.22a18.85,18.85,0,0,0-.93-1.71l.85-.52a18.33,18.33,0,0,1,1,1.79Zm-36.37-.76-.88-.47a19.38,19.38,0,0,1,1.06-1.75l.83.55C96.24,127.33,95.9,127.89,95.59,128.46Zm34.35-2.57c-.39-.52-.81-1-1.24-1.5l.74-.68c.45.51.89,1,1.3,1.58Zm-32.18-.67-.78-.63a19.78,19.78,0,0,1,1.37-1.52l.71.7C98.6,124.23,98.17,124.72,97.76,125.22ZM127.32,123c-.49-.43-1-.85-1.51-1.24l.6-.8c.54.41,1.07.85,1.58,1.3Zm-26.82-.55-.65-.77c.53-.44,1.07-.85,1.63-1.24l.57.83A17.59,17.59,0,0,0,100.5,122.45Zm23.7-1.78c-.56-.34-1.13-.65-1.72-.94l.44-.9c.61.3,1.22.63,1.8,1Zm-20.49-.43-.48-.87c.59-.33,1.21-.64,1.83-.91l.4.92C104.86,119.64,104.28,119.93,103.71,120.24Zm17-1.27a17.46,17.46,0,0,0-1.86-.59l.26-1a20,20,0,0,1,2,.62Zm-13.41-.28-.3-1c.64-.21,1.31-.39,2-.54l.22,1Q108.21,118.39,107.28,118.69Zm9.64-.72c-.64-.11-1.29-.18-1.93-.23l.06-1a20.21,20.21,0,0,1,2,.23Zm-5.83-.12-.12-1c.67-.08,1.36-.13,2-.15l0,1C112.39,117.72,111.73,117.77,111.09,117.85Z" transform="translate(8.57 -18.14)"/><path class="cls-3" d="M134.22,276.85l12-2.11-2.59-14.68-12,2.12a27.72,27.72,0,0,0-2.37-4.14l7.86-9.36-11.42-9.58-7.86,9.36a28.8,28.8,0,0,0-4.48-1.62V234.6H98.44v12.24a28.16,28.16,0,0,0-4.43,1.6l-7.84-9.38-11.44,9.56L82.57,258a29.65,29.65,0,0,0-2.38,4.14l-12-2.15-2.61,14.68,12,2.14a27.88,27.88,0,0,0,.83,4.69L67.8,287.6l7.43,12.92,10.59-6.09a29.82,29.82,0,0,0,3.66,3.06L85.29,309l14,5.12,4.19-11.49c.8.07,1.6.12,2.42.12s1.57-.05,2.35-.12l4.18,11.5,14-5.09-4.18-11.49a27.57,27.57,0,0,0,3.67-3.06l10.58,6.12L144,287.67l-10.6-6.12A28,28,0,0,0,134.22,276.85Zm-17.13-2.58a11.2,11.2,0,1,1-11.19-11.19A11.19,11.19,0,0,1,117.09,274.27Z" transform="translate(8.57 -18.14)"/><path class="cls-2" d="M105.9,286.46a12.19,12.19,0,1,1,12.19-12.19A12.21,12.21,0,0,1,105.9,286.46Zm0-22.38a10.19,10.19,0,1,0,10.19,10.19A10.2,10.2,0,0,0,105.9,264.08Z" transform="translate(8.57 -18.14)"/><path class="cls-2" d="M105.9,295.31h-.4l0-1h.38c.5,0,1,0,1.49-.06l.07,1C107,295.29,106.42,295.31,105.9,295.31Zm-2.36-.13c-.65-.07-1.31-.18-1.94-.31l.2-1a16.55,16.55,0,0,0,1.85.29Zm5.88-.16-.17-1c.62-.11,1.23-.24,1.83-.4l.26,1C110.71,294.77,110.06,294.91,109.42,295Zm-9.73-.64c-.62-.19-1.25-.42-1.85-.67l.38-.92c.58.24,1.17.45,1.76.63Zm13.52-.38-.34-.94a18.47,18.47,0,0,0,1.72-.73l.43.9C114.44,293.51,113.83,293.77,113.21,294Zm-17.15-1.13c-.58-.31-1.15-.64-1.69-1l.54-.84a18.65,18.65,0,0,0,1.62,1Zm20.69-.58-.51-.85c.53-.32,1.06-.68,1.55-1l.6.8A17.94,17.94,0,0,1,116.75,292.29Zm-24-1.57c-.51-.41-1-.85-1.47-1.3l.69-.72a18.25,18.25,0,0,0,1.41,1.23Zm27.14-.76-.66-.75c.46-.41.91-.86,1.34-1.31l.73.68C120.88,289.06,120.4,289.52,119.91,290Zm-30-2c-.42-.5-.83-1-1.21-1.55l.82-.58c.36.51.75,1,1.15,1.48Zm32.65-.91-.8-.61c.38-.49.74-1,1.08-1.54l.84.53C123.36,286,123,286.56,122.59,287.08Zm-34.92-2.3a19.08,19.08,0,0,1-.9-1.74l.9-.42a18.56,18.56,0,0,0,.86,1.66Zm37-1-.89-.45c.28-.55.54-1.13.77-1.71l.93.37A19.21,19.21,0,0,1,124.68,283.75ZM86,281.21a17.63,17.63,0,0,1-.56-1.88l1-.24c.15.6.33,1.21.53,1.79Zm40.09-1.12-1-.27c.17-.6.31-1.21.43-1.82l1,.18C126.45,278.83,126.3,279.47,126.12,280.09Zm-41-2.69a18.59,18.59,0,0,1-.2-2l1-.05a16.75,16.75,0,0,0,.19,1.86Zm41.75-1.17-1-.09c.06-.62.09-1.25.09-1.87h1C126.94,274.92,126.9,275.59,126.84,276.23Zm-.91-2.32c0-.63-.05-1.25-.12-1.87l1-.11c.07.65.11,1.31.12,2Zm-40.06-.4-1,0c0-.66.08-1.32.16-2l1,.13C86,272.26,85.89,272.89,85.87,273.51Zm39.65-3.32c-.13-.61-.28-1.22-.47-1.82l1-.29c.19.62.36,1.26.49,1.9Zm-39.16-.39-1-.22a18.33,18.33,0,0,1,.53-1.89l1,.31A16.6,16.6,0,0,0,86.36,269.8Zm38.06-3.19c-.24-.57-.5-1.14-.8-1.7l.89-.46c.3.58.59,1.18.83,1.78Zm-36.89-.36-.92-.4a19.34,19.34,0,0,1,.87-1.77l.88.49A15.41,15.41,0,0,0,87.53,266.25Zm35.14-2.95c-.34-.52-.71-1-1.1-1.52l.78-.62c.41.51.8,1,1.16,1.59ZM89.34,263l-.82-.56a17.87,17.87,0,0,1,1.18-1.57l.77.64C90.07,262,89.69,262.46,89.34,263Zm31-2.6c-.43-.44-.89-.88-1.36-1.28l.65-.76c.49.43,1,.88,1.43,1.35Zm-28.61-.28-.71-.7c.47-.47,1-.91,1.46-1.33l.64.77C92.64,259.23,92.17,259.65,91.73,260.09Zm25.77-2.16c-.51-.36-1-.7-1.57-1l.5-.87c.56.33,1.12.69,1.65,1.06Zm-22.89-.23-.56-.82a19.38,19.38,0,0,1,1.68-1l.48.87C95.67,257,95.13,257.35,94.61,257.7Zm19.65-1.65c-.56-.26-1.15-.49-1.74-.7l.34-.94a17.79,17.79,0,0,1,1.82.74Zm-16.37-.16-.4-.91c.6-.26,1.22-.5,1.84-.7l.31.95A18.46,18.46,0,0,0,97.89,255.89Zm12.84-1.07a18.72,18.72,0,0,0-1.84-.37l.15-1c.65.1,1.3.23,1.93.39Zm-9.29-.09-.22-1c.64-.14,1.29-.26,1.94-.34l.13,1C102.67,254.48,102.05,254.59,101.44,254.73Zm5.59-.47c-.62,0-1.25,0-1.87,0l0-1c.65,0,1.32,0,2,0Z" transform="translate(8.57 -18.14)"/><path class="cls-2" d="M439.28,384.91c-.68,0-1.37,0-2-.08l.09-1c.64.06,1.3.08,1.95.08Zm-4.07-.35c-.67-.12-1.34-.27-2-.44l.26-1c.62.17,1.27.31,1.91.43Zm-3.94-1.06c-.64-.23-1.27-.5-1.88-.79l.42-.9c.59.27,1.19.53,1.81.75Zm-3.69-1.74c-.58-.34-1.16-.71-1.72-1.1l.58-.82a19.08,19.08,0,0,0,1.64,1.06Zm-3.34-2.35c-.51-.44-1-.9-1.5-1.39l.72-.7c.46.46.94.91,1.43,1.32Zm-2.87-2.9c-.43-.52-.85-1.07-1.23-1.63l.82-.57c.37.54.77,1.06,1.18,1.56Zm-2.32-3.36c-.34-.59-.65-1.2-.94-1.81l.91-.42q.41.88.9,1.74Zm-1.7-3.71q-.35-1-.6-1.95l1-.25c.17.63.36,1.26.58,1.87Zm-1-3.95c-.11-.67-.19-1.35-.24-2l1-.07c.05.65.13,1.3.24,1.94Zm.69-4.06h-1c0-.68,0-1.37.1-2l1,.1C417.05,360.12,417,360.78,417,361.43Zm.37-3.88-1-.19a20.4,20.4,0,0,1,.46-2l1,.27C417.65,356.27,417.5,356.91,417.38,357.55Zm1.05-3.77-.94-.35c.24-.63.51-1.27.81-1.88l.9.44C418.92,352.57,418.66,353.18,418.43,353.78Zm1.69-3.52-.86-.51c.35-.58.73-1.15,1.12-1.71l.82.59C420.82,349.16,420.46,349.71,420.12,350.26Zm2.29-3.17-.76-.65c.44-.51.92-1,1.4-1.49l.7.72C423.28,346.12,422.83,346.6,422.41,347.09Zm2.8-2.72-.63-.78c.52-.42,1.07-.83,1.64-1.22l.56.83C426.24,343.57,425.71,344,425.21,344.37Zm3.23-2.2-.49-.87c.59-.33,1.21-.64,1.83-.92l.41.92C429.59,341.56,429,341.86,428.44,342.17Zm3.56-1.59-.32-.95c.63-.22,1.29-.41,2-.58l.24,1C433.24,340.18,432.61,340.37,432,340.58Zm3.79-.94-.15-1a19.7,19.7,0,0,1,2-.23l.07,1A18.47,18.47,0,0,0,435.79,339.64Z" transform="translate(8.57 -18.14)"/><path class="cls-2" d="M439.28,384.91v-1a22.28,22.28,0,0,0,0-44.55v-1a23.28,23.28,0,0,1,0,46.55Z" transform="translate(8.57 -18.14)"/><rect class="cls-2" x="443.58" y="342.99" width="8.54" height="1"/><rect class="cls-2" x="447.35" y="339.23" width="1" height="8.54"/><path class="cls-2" d="M91.92,383l-2.56-13.14L102,374.24ZM90.67,371.4l1.9,9.73,7.48-6.51Z" transform="translate(8.57 -18.14)"/><path class="cls-2" d="M155.42,196.1l-11.59-6.69,11.59-6.69Zm-9.59-6.69,8.59,5v-9.92Z" transform="translate(8.57 -18.14)"/><rect class="cls-2" x="483.28" y="197.08" width="9.21" height="1"/><rect class="cls-2" x="487.38" y="192.98" width="1" height="9.21"/><rect class="cls-2" x="176.9" y="372.41" width="9.21" height="1"/><rect class="cls-2" x="181.01" y="368.3" width="1" height="9.21"/><polygon class="cls-5" points="355.53 332.44 333.05 332.44 336.54 321.09 333.05 309.74 355.53 309.74 355.53 332.44"/><polygon class="cls-6" points="345.08 311.72 355.53 309.74 355.18 316.01 345.08 311.72"/><rect class="cls-7" x="345.08" y="311.72" width="29.36" height="23.24"/><rect class="cls-2" x="373.94" y="310.26" width="1" height="46.7"/><polygon class="cls-5" points="176.32 337.65 153.84 337.65 157.33 326.31 153.84 314.96 176.32 314.96 176.32 337.65"/><polygon class="cls-6" points="165.87 316.94 176.32 314.96 175.97 321.23 165.87 316.94"/><rect class="cls-7" x="165.87" y="316.93" width="29.36" height="23.24"/><rect class="cls-2" x="194.73" y="315.48" width="1" height="46.7"/><polygon class="cls-8" points="285 285.75 174.03 436.4 395.97 436.4 285 285.75"/><polygon class="cls-9" points="195.56 345.61 128.69 436.4 262.43 436.4 195.56 345.61"/><polygon class="cls-9" points="374.44 345.49 307.57 436.27 441.31 436.27 374.44 345.49"/><path class="cls-2" d="M226,341.08a4.61,4.61,0,1,1,4.61-4.61A4.6,4.6,0,0,1,226,341.08Zm0-8.22a3.61,3.61,0,1,0,3.61,3.61A3.61,3.61,0,0,0,226,332.86Z" transform="translate(8.57 -18.14)"/><path class="cls-10" d="M277.08,132.37a84,84,0,0,0-84,84c0,46.37,84,141.1,84,141.1s84-94.73,84-141.1A84,84,0,0,0,277.08,132.37Zm0,124.4a48.71,48.71,0,1,1,48.71-48.71A48.71,48.71,0,0,1,277.08,256.77Z" transform="translate(8.57 -18.14)"/><path class="cls-11" d="M339.06,208.06a62,62,0,1,0-62,62A62,62,0,0,0,339.06,208.06Zm-110.68,0a48.71,48.71,0,1,1,48.7,48.71A48.71,48.71,0,0,1,228.38,208.06Z" transform="translate(8.57 -18.14)"/><path class="cls-2" d="M277.08,358.94l-.74-.84c-.21-.24-21.27-24.06-42.06-53.24-28-39.29-42.17-69.08-42.17-88.52a85,85,0,0,1,169.94,0c0,19.44-14.18,49.23-42.17,88.52C299.1,334,278,357.86,277.83,358.1Zm0-225.57a83.06,83.06,0,0,0-83,83c0,43.14,74.63,130,83,139.58,8.34-9.57,83-96.44,83-139.58A83.06,83.06,0,0,0,277.08,133.37Zm0,124.4a49.71,49.71,0,1,1,49.71-49.71A49.76,49.76,0,0,1,277.08,257.77Zm0-97.41a47.71,47.71,0,1,0,47.71,47.7A47.76,47.76,0,0,0,277.08,160.36Z" transform="translate(8.57 -18.14)"/><rect class="cls-2" x="285.15" y="89.69" width="1" height="16.51"/><rect class="cls-2" x="286.06" y="111.31" width="32.52" height="1" transform="translate(124.71 356.79) rotate(-75.01)"/><rect class="cls-2" x="313.68" y="128.69" width="15.75" height="1" transform="translate(57.77 325.31) rotate(-60.08)"/><rect class="cls-2" x="330.42" y="135.52" width="32.52" height="1" transform="translate(14.24 267.54) rotate(-45.12)"/><rect class="cls-2" x="348.04" y="160.5" width="13.95" height="1" transform="translate(-24.29 181.75) rotate(-30.12)"/><rect class="cls-2" x="197.63" y="152.38" width="1" height="16.26" transform="translate(-30.47 236.01) rotate(-60.56)"/><rect class="cls-2" x="206.2" y="120.1" width="1" height="32.52" transform="translate(-26.79 170.43) rotate(-45.58)"/><rect class="cls-2" x="230.66" y="119.81" width="1" height="16.26" transform="translate(-24.37 117.4) rotate(-30.61)"/><rect class="cls-2" x="250.14" y="95.04" width="1" height="32.52" transform="translate(-12.16 53.55) rotate(-15.64)"/></g><g id="Layer_9" data-name="Layer 9"><path class="cls-1" d="M3.68,407.91-8.57,395.66,3.68,383.41l12.25,12.25ZM-7.15,395.66,3.68,406.49l10.84-10.83L3.68,384.82Z" transform="translate(8.57 -18.14)"/></g><g id="Layer_8" data-name="Layer 8"><rect class="cls-1" x="452" y="298.65" width="100.65" height="1"/><rect class="cls-1" x="439.01" y="298.65" width="8.7" height="1"/><rect class="cls-1" x="426.13" y="298.65" width="8.7" height="1"/><rect class="cls-1" x="560.79" y="298.65" width="9.21" height="1"/><rect class="cls-1" x="564.89" y="294.54" width="1" height="9.21"/></g><g id="Layer_10" data-name="Layer 10"><path class="cls-12" d="M451.31,250.18A32.27,32.27,0,0,0,419,217.91v32.27Z" transform="translate(8.57 -18.14)"/><path class="cls-13" d="M451.31,250.18A32.27,32.27,0,0,0,419,217.91v32.27Z" transform="translate(8.57 -18.14)"/><path class="cls-2" d="M451.86,250.73H418.49V217.36H419a32.85,32.85,0,0,1,32.82,32.82Zm-32.27-1.1h31.16a31.76,31.76,0,0,0-31.16-31.17Z" transform="translate(8.57 -18.14)"/><path class="cls-4" d="M459.18,250.18A40.15,40.15,0,1,1,419,210v40.14Z" transform="translate(8.57 -18.14)"/><path class="cls-14" d="M440.93,250.18A21.89,21.89,0,1,1,419,228.28v21.9Z" transform="translate(8.57 -18.14)"/><path class="cls-2" d="M419,290.87a40.69,40.69,0,1,1,0-81.38h.55v40.14h40.14v.55A40.74,40.74,0,0,1,419,290.87Zm-.55-80.28a39.59,39.59,0,1,0,40.13,40.14H418.49Z" transform="translate(8.57 -18.14)"/><rect class="cls-2" x="426.29" y="208.83" width="7.33" height="1.1" transform="translate(125.09 552.43) rotate(-75.01)"/><rect class="cls-2" x="434.64" y="209.86" width="14.66" height="1.1" transform="translate(47.61 470.22) rotate(-60.06)"/><rect class="cls-2" x="444.84" y="219.28" width="7.91" height="1.1" transform="translate(2.88 409.49) rotate(-50.67)"/><rect class="cls-2" x="451.44" y="226.64" width="14.66" height="1.1" transform="translate(-43.55 241.88) rotate(-30.02)"/><rect class="cls-2" x="456.09" y="238.41" width="7.47" height="1.1" transform="translate(-43.43 139.68) rotate(-18.45)"/></g><g id="Layer_5" data-name="Layer 5"><rect class="cls-2" x="50" y="435.02" width="470" height="2"/></g></svg>