<svg id="Social_Media" data-name="Social Media" xmlns="http://www.w3.org/2000/svg" xmlns:xlink="http://www.w3.org/1999/xlink" viewBox="0 0 670 560.5"><defs><style>.cls-1{fill:none;}.cls-18,.cls-2{fill:#1b2c38;}.cls-16,.cls-3{fill:#949fac;}.cls-4{fill:#fff;}.cls-5{fill:#d1d3d4;}.cls-6{fill:#fc3e59;}.cls-7{fill:#ffcb05;}.cls-8{fill:#636c78;}.cls-9{fill:#e3e0e2;}.cls-10{fill:#fffffe;}.cls-11{fill:#f1f2ec;}.cls-12{fill:#e8e9e1;}.cls-13{fill:#6c6ff2;}.cls-14{fill:#27c7cd;}.cls-15{fill:#e78967;}.cls-16{opacity:0.3;}.cls-17{fill:#231f20;}.cls-18{opacity:0.2;}.cls-19{clip-path:url(#clip-path);}.cls-20{fill:#f7bc5d;}</style><clipPath id="clip-path" transform="translate(-32.49 -21.75)"><circle class="cls-1" cx="174.57" cy="317.91" r="55.77"/></clipPath></defs><title>18-smm-details</title><rect class="cls-2" x="42.51" y="395.49" width="107.48" height="1"/><rect class="cls-2" x="28.64" y="395.49" width="9.29" height="1"/><rect class="cls-2" x="14.88" y="395.49" width="9.28" height="1"/><rect class="cls-3" x="92.92" y="335.85" width="319.71" height="218.9"/><rect class="cls-4" x="111.84" y="355.51" width="281.87" height="179.58"/><polygon class="cls-4" points="428.29 559.5 77.26 559.5 66.09 532.83 439.45 532.83 428.29 559.5"/><path class="cls-2" d="M461.44,582.25H109.08l-12-28.67H473.44Zm-351-2h349.7l10.33-24.67H100.08Z" transform="translate(-32.49 -21.75)"/><rect class="cls-2" x="229.83" y="544.04" width="45.89" height="1"/><rect class="cls-4" x="148.38" y="204.59" width="192.97" height="326.02"/><rect class="cls-5" x="148.38" y="204.59" width="192.97" height="29.72"/><path class="cls-6" d="M197.54,234.36a2.1,2.1,0,1,1-2.1-2.09A2.09,2.09,0,0,1,197.54,234.36Z" transform="translate(-32.49 -21.75)"/><path class="cls-7" d="M205.38,234.36a2.1,2.1,0,1,1-2.09-2.09A2.09,2.09,0,0,1,205.38,234.36Z" transform="translate(-32.49 -21.75)"/><path class="cls-8" d="M213.22,234.36a2.09,2.09,0,1,1-2.09-2.09A2.08,2.08,0,0,1,213.22,234.36Z" transform="translate(-32.49 -21.75)"/><rect class="cls-9" x="150.11" y="220.63" width="191.24" height="12.07"/><path class="cls-9" d="M254.07,246.2H215.75l2.85-9.67a5.9,5.9,0,0,1,5.66-4.22h21.3a5.9,5.9,0,0,1,5.65,4.22Z" transform="translate(-32.49 -21.75)"/><rect class="cls-10" x="187.42" y="224.29" width="135.53" height="4.75"/><rect class="cls-11" x="236.28" y="327.05" width="86.68" height="22.74"/><rect class="cls-6" x="236.28" y="462.03" width="86.68" height="62.7"/><rect class="cls-12" x="203.99" y="530.65" width="53.35" height="15.82" transform="translate(428.86 1055.38) rotate(180)"/><rect class="cls-11" x="236.28" y="387.68" width="86.68" height="11.37"/><rect class="cls-10" x="255.19" y="391.47" width="58.28" height="3.79"/><rect class="cls-12" x="168.71" y="247.23" width="154.24" height="58.93"/><rect class="cls-13" x="148.38" y="232.7" width="192.97" height="14.53"/><rect class="cls-10" x="172.89" y="238.5" width="23.2" height="2.94"/><rect class="cls-10" x="202.42" y="238.5" width="27.53" height="2.94"/><rect class="cls-10" x="236.28" y="238.5" width="27.53" height="2.94"/><rect class="cls-10" x="270.13" y="238.5" width="27.53" height="2.94"/><rect class="cls-10" x="303.99" y="238.5" width="18.96" height="2.94"/><rect class="cls-2" x="184.35" y="290.25" width="31.83" height="31.83"/><rect class="cls-6" x="242.08" y="333.08" width="13.1" height="13.1"/><rect class="cls-6" x="171.51" y="392.43" width="17.51" height="17.51"/><rect class="cls-11" x="191.23" y="392.43" width="17.51" height="17.51"/><rect class="cls-14" x="210.95" y="392.43" width="17.51" height="17.51"/><rect class="cls-14" x="171.51" y="411.38" width="17.51" height="17.51"/><rect class="cls-8" x="191.23" y="411.38" width="17.51" height="17.51"/><rect class="cls-7" x="210.95" y="411.38" width="17.51" height="17.51"/><rect class="cls-7" x="171.51" y="430.33" width="17.51" height="17.51"/><rect class="cls-11" x="191.23" y="430.33" width="17.51" height="17.51"/><rect class="cls-6" x="210.95" y="430.33" width="17.51" height="17.51"/><rect class="cls-12" x="171.51" y="333.08" width="53.35" height="2.32"/><rect class="cls-8" x="261.46" y="334.24" width="11.19" height="2.32"/><rect class="cls-8" x="261.46" y="340.27" width="26.68" height="2.32"/><rect class="cls-12" x="241.85" y="355.05" width="81.1" height="2.32"/><rect class="cls-12" x="241.85" y="360.85" width="25.21" height="2.32"/><rect class="cls-6" x="241.85" y="367.35" width="10.86" height="2.32"/><rect class="cls-11" x="236.28" y="409.16" width="86.68" height="22.74"/><rect class="cls-14" x="242.08" y="415.19" width="13.1" height="13.1"/><rect class="cls-8" x="261.46" y="416.35" width="11.19" height="2.32"/><rect class="cls-8" x="261.46" y="422.38" width="26.68" height="2.32"/><rect class="cls-12" x="241.85" y="437.16" width="81.1" height="2.32"/><rect class="cls-12" x="241.85" y="442.96" width="25.21" height="2.32"/><rect class="cls-15" x="241.85" y="449.46" width="10.86" height="2.32"/><rect class="cls-12" x="171.51" y="341.43" width="53.35" height="2.32"/><rect class="cls-12" x="171.51" y="460.87" width="53.35" height="2.32"/><rect class="cls-12" x="171.51" y="471.86" width="53.35" height="2.32"/><rect class="cls-12" x="171.51" y="482.86" width="53.35" height="2.32"/><rect class="cls-12" x="171.51" y="493.85" width="34.79" height="2.32"/><rect class="cls-12" x="171.51" y="349.78" width="34.79" height="2.32"/><rect class="cls-12" x="171.51" y="378.51" width="34.79" height="3.98"/><path class="cls-7" d="M282.65,415.11a2.62,2.62,0,1,1-2.62-2.62A2.62,2.62,0,0,1,282.65,415.11Z" transform="translate(-32.49 -21.75)"/><path class="cls-6" d="M242.27,342.52v-1.28a9.54,9.54,0,0,0-9.51-9.52h0a9.54,9.54,0,0,0-9.52,9.52v1.28Z" transform="translate(-32.49 -21.75)"/><path class="cls-4" d="M226.35,328.36H226a.81.81,0,0,1-.8-.81v-1.28a.8.8,0,0,1,.8-.81h.35Z" transform="translate(-32.49 -21.75)"/><path class="cls-4" d="M238.51,328.36h.35a.81.81,0,0,0,.8-.81v-1.28a.8.8,0,0,0-.8-.81h-.35Z" transform="translate(-32.49 -21.75)"/><path class="cls-4" d="M226.07,323v5.44a6.42,6.42,0,0,0,6.41,6.42h0a6.42,6.42,0,0,0,6.41-6.42v-5.12a6.85,6.85,0,0,0-6.8-5.74A7.06,7.06,0,0,0,226.07,323Z" transform="translate(-32.49 -21.75)"/><path class="cls-7" d="M238.89,325s-6.65-7.38-8.63-4.44a22.74,22.74,0,0,1-4.19,4.59s-1.09-6.6,6.15-7.55C232.22,317.58,239,317.38,238.89,325Z" transform="translate(-32.49 -21.75)"/><path class="cls-7" d="M238.56,316.05s-4.54,4.51-8.53,2.54c0,0-1,3.82,4.47,3.46C234.5,322.05,240.1,321.89,238.56,316.05Z" transform="translate(-32.49 -21.75)"/><polygon class="cls-2" points="342.35 530.61 340.35 530.61 340.35 205.59 149.38 205.59 149.38 530.61 147.38 530.61 147.38 203.59 342.35 203.59 342.35 530.61"/><rect class="cls-2" x="148.11" y="231.7" width="193.23" height="2"/><path class="cls-7" d="M339.6,336.06h-3a10.7,10.7,0,0,1-10.7-10.7l-3.66-112.17a40.11,40.11,0,0,1,15-31.3l13.17-10.55C316.29,150.06,325.3,115,325.3,115c15.76,23.64,101.59,23.3,151.49,31a26.85,26.85,0,0,1,22.57,23.08l1.21,9.34h0a17.69,17.69,0,0,1,17.7,17.7l-3.65,129.26a10.7,10.7,0,0,1-10.7,10.7Z" transform="translate(-32.49 -21.75)"/><path class="cls-2" d="M504.37,337.06H336.18a11.27,11.27,0,0,1-11.25-11.26l-3.65-112.58a40.9,40.9,0,0,1,15.4-32.11l12.07-9.68c-31.58-20.54-25.32-52.74-24.49-56.39a1.14,1.14,0,0,1,.87-.85,1.18,1.18,0,0,1,1.16.48c11.51,16.65,60.73,21.19,104.17,25.2,16.93,1.56,32.92,3,46.48,5.12a28,28,0,0,1,23.41,23.94l1.1,8.49a18.72,18.72,0,0,1,17.82,18.68l-3.65,129.73A11.26,11.26,0,0,1,504.37,337.06ZM325.85,117.38c-1.3,7.92-3.41,35.33,25.15,53.11l1.2.75-14.27,11.43a39,39,0,0,0-14.66,30.52l3.66,112.58a9.27,9.27,0,0,0,9.25,9.29H504.37a9.26,9.26,0,0,0,9.25-9.26l3.65-129.73a16.71,16.71,0,0,0-16.7-16.67h-.88l-1.32-10.21A26,26,0,0,0,476.64,147c-13.51-2.08-29.47-3.55-46.37-5.11C385.67,137.74,339.6,133.49,325.85,117.38Z" transform="translate(-32.49 -21.75)"/><path class="cls-4" d="M518,299.91a11.32,11.32,0,0,1-11.31,11.31h0a11.32,11.32,0,0,1-11.31-11.31V289a11.31,11.31,0,0,1,11.31-11.31h0A11.31,11.31,0,0,1,518,289Z" transform="translate(-32.49 -21.75)"/><path class="cls-2" d="M506.7,312.22a12.32,12.32,0,0,1-12.31-12.31V289A12.31,12.31,0,0,1,519,289v11A12.32,12.32,0,0,1,506.7,312.22Zm0-33.57A10.32,10.32,0,0,0,496.39,289v11a10.31,10.31,0,0,0,20.62,0V289A10.33,10.33,0,0,0,506.7,278.65Z" transform="translate(-32.49 -21.75)"/><path class="cls-4" d="M346.32,299.91A11.33,11.33,0,0,1,335,311.22h0a11.31,11.31,0,0,1-11.3-11.31V289A11.3,11.3,0,0,1,335,277.65h0A11.32,11.32,0,0,1,346.32,289Z" transform="translate(-32.49 -21.75)"/><path class="cls-2" d="M335,312.22a12.32,12.32,0,0,1-12.3-12.31V289a12.31,12.31,0,1,1,24.62,0v11A12.33,12.33,0,0,1,335,312.22Zm0-33.57A10.32,10.32,0,0,0,324.7,289v11a10.31,10.31,0,1,0,20.62,0V289A10.33,10.33,0,0,0,335,278.65Z" transform="translate(-32.49 -21.75)"/><path class="cls-14" d="M523.47,582.25V507.7c0-57-46.64-103.63-103.63-103.63h0c-57,0-103.63,46.63-103.63,103.63v74.55Z" transform="translate(-32.49 -21.75)"/><rect class="cls-2" x="336.43" y="478.75" width="2" height="81.74"/><rect class="cls-2" x="442.18" y="478.75" width="2" height="81.74"/><path class="cls-4" d="M418,446h0a22.6,22.6,0,0,1-22.59-22.59V372.45a19.39,19.39,0,0,1,19.39-19.39h6.41a19.39,19.39,0,0,1,19.39,19.39v50.93A22.6,22.6,0,0,1,418,446Z" transform="translate(-32.49 -21.75)"/><path class="cls-2" d="M441.57,429.67h-2V369.36a15.32,15.32,0,0,0-15.3-15.3H411.68a15.32,15.32,0,0,0-15.3,15.3v60.31h-2V369.36a17.32,17.32,0,0,1,17.3-17.3h12.59a17.32,17.32,0,0,1,17.3,17.3Z" transform="translate(-32.49 -21.75)"/><path class="cls-4" d="M419.84,401.4h0a86.16,86.16,0,0,1-85.91-85.91V257.25a86.16,86.16,0,0,1,85.91-85.91h0a86.16,86.16,0,0,1,85.91,85.91v58.24A86.16,86.16,0,0,1,419.84,401.4Z" transform="translate(-32.49 -21.75)"/><path class="cls-16" d="M425.34,401.2a86.29,86.29,0,0,0,76.2-59.27c-18.89-1.09-50.11,8.52-50.11,8.52v-4.33a9.73,9.73,0,0,0-9.73-9.73h-48a9.73,9.73,0,0,0-9.73,9.73v4.33s-28.05-8.77-45.74-8.2a86.32,86.32,0,0,0,76.09,58.95l1.61.1c1.3.06,2.59.1,3.9.1h0c1.3,0,2.6,0,3.89-.1Z" transform="translate(-32.49 -21.75)"/><path class="cls-2" d="M419.84,402.4a87,87,0,0,1-86.91-86.91V257.25a86.91,86.91,0,0,1,173.82,0v58.24A87,87,0,0,1,419.84,402.4Zm0-230.06a85,85,0,0,0-84.91,84.91v58.24a84.91,84.91,0,0,0,169.82,0V257.25A85,85,0,0,0,419.84,172.34Z" transform="translate(-32.49 -21.75)"/><path class="cls-7" d="M454.47,161.11s-53.38-15-107.69,25.8l-21.32,44s100.47,31.24,159.16-51.73C501.54,155.3,454.47,161.11,454.47,161.11Z" transform="translate(-32.49 -21.75)"/><path class="cls-7" d="M468.28,181.84s-13.86,54,45.73,66.55V222l-3.47-22.17Z" transform="translate(-32.49 -21.75)"/><path class="cls-2" d="M510.58,248.63c-37.95-8-43.7-31.84-44.58-49.34a156.76,156.76,0,0,1-92.36,36.94c-26.18,1.62-44.87-3.47-45.05-3.52l.53-1.93c.19.05,18.62,5.07,44.47,3.45a154.78,154.78,0,0,0,91.48-36.78,1.76,1.76,0,0,1,1.86-.29,1.74,1.74,0,0,1,1,1.52c.77,16.89,6,40.23,43,48Z" transform="translate(-32.49 -21.75)"/><path class="cls-2" d="M424.6,330.56H414.35v-2H424.6a5.33,5.33,0,0,0,5.33-5.33v-.58a5.34,5.34,0,0,0-5.33-5.34h-6.19V298.23h2v17.08h4.19a7.34,7.34,0,0,1,7.33,7.34v.58A7.34,7.34,0,0,1,424.6,330.56Z" transform="translate(-32.49 -21.75)"/><path class="cls-10" d="M442.87,351.29a22.6,22.6,0,0,1-45.19,0Z" transform="translate(-32.49 -21.75)"/><path class="cls-2" d="M420.27,374.88a23.62,23.62,0,0,1-23.59-23.59v-1h47.19v1A23.62,23.62,0,0,1,420.27,374.88Zm-21.56-22.59a21.59,21.59,0,0,0,43.13,0Z" transform="translate(-32.49 -21.75)"/><path class="cls-2" d="M390.65,282.59h-2a8.87,8.87,0,0,0-17.74,0h-2a10.87,10.87,0,0,1,21.74,0Z" transform="translate(-32.49 -21.75)"/><path class="cls-2" d="M470,282.59h-2a8.87,8.87,0,0,0-17.74,0h-2a10.87,10.87,0,0,1,21.74,0Z" transform="translate(-32.49 -21.75)"/><path class="cls-6" d="M582.05,205.69a9.77,9.77,0,0,0-16.75-6.84,9.77,9.77,0,0,0-14,13.61l14,13.91,14.33-14.21.56-.69A9.74,9.74,0,0,0,582.05,205.69Z" transform="translate(-32.49 -21.75)"/><path class="cls-2" d="M565.26,227.78l-14.68-14.61a10.77,10.77,0,0,1,14.72-15.69,10.67,10.67,0,0,1,7-2.57A10.77,10.77,0,0,1,581,212.06l-.61.76Zm-6.94-30.87A8.77,8.77,0,0,0,552,211.77L565.26,225l13.62-13.51c.1-.11.48-.6.48-.6a8.66,8.66,0,0,0,1.69-5.16,8.77,8.77,0,0,0-15-6.14l-.71.73-.72-.73A8.68,8.68,0,0,0,558.32,196.91Z" transform="translate(-32.49 -21.75)"/><path class="cls-6" d="M652.24,136.43a12.7,12.7,0,0,0-21.79-8.89,12.7,12.7,0,0,0-18.23,17.7l18.18,18.08L649,144.85l.73-.91A12.61,12.61,0,0,0,652.24,136.43Z" transform="translate(-32.49 -21.75)"/><path class="cls-2" d="M630.4,164.73,611.52,146a13.7,13.7,0,0,1,18.93-19.79,13.58,13.58,0,0,1,9.07-3.45,13.74,13.74,0,0,1,13.72,13.72,13.59,13.59,0,0,1-2.67,8.11s-.57.72-.78,1Zm-9-40a11.7,11.7,0,0,0-8.44,19.83l17.46,17.37,17.93-17.77c.15-.17.65-.81.65-.81a11.7,11.7,0,0,0-17.82-15.09l-.71.73-.71-.73A11.63,11.63,0,0,0,621.38,124.71Z" transform="translate(-32.49 -21.75)"/><rect class="cls-4" x="478.29" y="361.25" width="109.03" height="198.25"/><path class="cls-2" d="M620.82,582.25h-111V382h111Zm-109-2h107V384h-107Z" transform="translate(-32.49 -21.75)"/><rect class="cls-7" x="488.44" y="379.69" width="88.75" height="161.37"/><rect class="cls-17" x="520.68" y="370.24" width="24.27" height="1"/><rect class="cls-17" x="547.68" y="370.24" width="1.93" height="1"/><path class="cls-14" d="M590,456a24.71,24.71,0,1,1-24.7-24.7A24.7,24.7,0,0,1,590,456Z" transform="translate(-32.49 -21.75)"/><rect class="cls-10" x="503.1" y="464.86" width="59.43" height="10.5"/><rect class="cls-10" x="503.1" y="481.25" width="59.43" height="10.5"/><rect class="cls-6" x="517.39" y="498.16" width="30.83" height="13.03"/><path class="cls-2" d="M542.21,491.87a1,1,0,1,1-1-1A1,1,0,0,1,542.21,491.87Z" transform="translate(-32.49 -21.75)"/><circle class="cls-2" cx="516.62" cy="470.12" r="1.01"/><path class="cls-2" d="M558,491.87a1,1,0,1,1-1-1A1,1,0,0,1,558,491.87Z" transform="translate(-32.49 -21.75)"/><circle class="cls-2" cx="532.43" cy="470.12" r="1.01"/><circle class="cls-2" cx="540.33" cy="470.12" r="1.01"/><circle class="cls-2" cx="548.24" cy="470.12" r="1.01"/><path class="cls-2" d="M589.63,491.87a1,1,0,1,1-1-1A1,1,0,0,1,589.63,491.87Z" transform="translate(-32.49 -21.75)"/><path class="cls-2" d="M542.21,508.25a1,1,0,1,1-1-1A1,1,0,0,1,542.21,508.25Z" transform="translate(-32.49 -21.75)"/><circle class="cls-2" cx="516.62" cy="486.5" r="1.01"/><path class="cls-2" d="M558,508.25a1,1,0,1,1-1-1A1,1,0,0,1,558,508.25Z" transform="translate(-32.49 -21.75)"/><circle class="cls-2" cx="532.43" cy="486.5" r="1.01"/><circle class="cls-2" cx="540.33" cy="486.5" r="1.01"/><circle class="cls-2" cx="548.24" cy="486.5" r="1.01"/><path class="cls-2" d="M589.63,508.25a1,1,0,1,1-1-1A1,1,0,0,1,589.63,508.25Z" transform="translate(-32.49 -21.75)"/><path class="cls-2" d="M572.62,461.27l-.18.27c-.31-.21-.62-.4-1-.58a8.93,8.93,0,0,0,2.37-5.87,1.4,1.4,0,0,0,1-1.35V452a1.42,1.42,0,0,0-1-1.36V449a8.91,8.91,0,0,0-1.26-4.56l.13-.17c1.11-1.48,1.34-3.51.67-6l-.14-.54-.4.39a17.76,17.76,0,0,1-4.06,2.86A8.92,8.92,0,0,0,556,449v1.67a1.42,1.42,0,0,0-1.17,1.39v1.72a1.42,1.42,0,0,0,1.19,1.39,8.86,8.86,0,0,0,2.62,6.11,10.22,10.22,0,0,0-.87.59l-.19-.27a13.19,13.19,0,0,0-5.38,10.58v1.71h26.24v-1.71A13.12,13.12,0,0,0,572.62,461.27Z" transform="translate(-32.49 -21.75)"/><path class="cls-6" d="M655.36,333.61l-9.56-5.52V317a1.45,1.45,0,0,0-1.44-1.44H532.68a1.44,1.44,0,0,0-1.44,1.44v35a1.43,1.43,0,0,0,1.44,1.44H644.36A1.44,1.44,0,0,0,645.8,352V340.9l9.56-5.52A1,1,0,0,0,655.36,333.61Z" transform="translate(-32.49 -21.75)"/><path class="cls-2" d="M644.36,353.91H532.68v-1H644.36a.94.94,0,0,0,.94-.94V340.61l9.81-5.66.5.86-9.31,5.38V352A1.94,1.94,0,0,1,644.36,353.91Z" transform="translate(-32.49 -21.75)"/><rect class="cls-18" x="505.72" y="300.77" width="23.96" height="23.96"/><rect class="cls-18" x="532.81" y="300.68" width="72.73" height="2.11"/><rect class="cls-18" x="532.81" y="310.64" width="72.73" height="2.11"/><rect class="cls-18" x="532.81" y="320.59" width="33.37" height="2.11"/><path class="cls-14" d="M576.22,273l9.56-5.53V256.42a1.45,1.45,0,0,1,1.44-1.44H698.9a1.44,1.44,0,0,1,1.44,1.44v34.95a1.43,1.43,0,0,1-1.44,1.44H587.22a1.44,1.44,0,0,1-1.44-1.44V280.3l-9.56-5.52A1,1,0,0,1,576.22,273Z" transform="translate(-32.49 -21.75)"/><path class="cls-2" d="M698.9,293.31H587.22a1.94,1.94,0,0,1-1.94-1.94V280.59L576,275.21l.5-.86,9.81,5.66v11.36a.94.94,0,0,0,.94.94H698.9Z" transform="translate(-32.49 -21.75)"/><rect class="cls-18" x="669.42" y="261.92" width="23.96" height="23.96" transform="translate(1330.31 526.04) rotate(180)"/><rect class="cls-18" x="593.55" y="261.83" width="72.73" height="2.11" transform="translate(1227.35 504.02) rotate(180)"/><rect class="cls-18" x="593.55" y="271.79" width="72.73" height="2.11" transform="translate(1227.35 523.93) rotate(180)"/><rect class="cls-18" x="632.91" y="281.74" width="33.37" height="2.11" transform="translate(1266.71 543.85) rotate(180)"/><circle class="cls-6" cx="142.08" cy="296.16" r="55.77"/><g class="cls-19"><path class="cls-7" d="M203.35,333.74c-4.73-10.84-1.59-30.72-1.59-30.72a28.38,28.38,0,0,0-28.38-28.38h0A28.38,28.38,0,0,0,145,303s3.78,19.63-1.36,30.65a4.56,4.56,0,0,0,3,6.42l27.5,6.85,26.25-6.83A4.61,4.61,0,0,0,203.35,333.74Z" transform="translate(-32.49 -21.75)"/><path class="cls-14" d="M201.16,376.83V368.7a27.52,27.52,0,0,0-27.44-27.44h0a27.53,27.53,0,0,0-27.45,27.44v8.13Z" transform="translate(-32.49 -21.75)"/><path class="cls-4" d="M163.11,356.78l1.55,1a17.57,17.57,0,0,0,19.17-.36h0a12.51,12.51,0,0,0,5.46-10.33v-.91a27.25,27.25,0,0,0-31.15,0v1.66A10.58,10.58,0,0,0,163.11,356.78Z" transform="translate(-32.49 -21.75)"/><path class="cls-4" d="M173.72,348.43h0a6,6,0,0,1-6-6V329.81a6,6,0,0,1,6-6h0a6,6,0,0,1,6,6v12.64A6,6,0,0,1,173.72,348.43Z" transform="translate(-32.49 -21.75)"/><path class="cls-4" d="M156.34,313.51a4.2,4.2,0,1,1-4.2-4.2A4.2,4.2,0,0,1,156.34,313.51Z" transform="translate(-32.49 -21.75)"/><path class="cls-4" d="M200.83,313.51a4.2,4.2,0,1,1-4.2-4.2A4.2,4.2,0,0,1,200.83,313.51Z" transform="translate(-32.49 -21.75)"/><path class="cls-4" d="M166.33,291.82a14.67,14.67,0,0,0-14.68,14.67v9a22.6,22.6,0,0,0,22.6,22.6h0a22.6,22.6,0,0,0,22.6-22.6V306c0-8.16-5.74-14.17-6.59-14.17Z" transform="translate(-32.49 -21.75)"/><rect class="cls-2" x="140.53" y="310.12" width="3.11" height="1.45"/><path class="cls-7" d="M154.48,289s22.78,18.24,43.33,10.74v-7.91l-15.5-9.77-25,1.67Z" transform="translate(-32.49 -21.75)"/><path class="cls-20" d="M154.78,287.61l-.3.56.07.06Z" transform="translate(-32.49 -21.75)"/><path class="cls-7" d="M162.71,294.12a12.71,12.71,0,0,1-13,10l-1.13-4.87,4.45-11.14Z" transform="translate(-32.49 -21.75)"/><path class="cls-2" d="M185,310.9h-1.45a1.95,1.95,0,1,0-3.9,0h-1.45a3.4,3.4,0,0,1,6.8,0Z" transform="translate(-32.49 -21.75)"/><path class="cls-2" d="M170.16,310.9h-1.45a1.95,1.95,0,0,0-3.9,0h-1.45a3.4,3.4,0,0,1,6.8,0Z" transform="translate(-32.49 -21.75)"/><path class="cls-6" d="M180.64,324.17a6.08,6.08,0,1,1-12.15,0Z" transform="translate(-32.49 -21.75)"/><path class="cls-2" d="M174.74,319.66h-1.27v-1.45h1.27a.82.82,0,1,0,0-1.63h-.9v-4.71h1.45v3.33a2.26,2.26,0,0,1-.55,4.46Z" transform="translate(-32.49 -21.75)"/></g><path class="cls-2" d="M174.57,374.68a56.77,56.77,0,1,1,56.76-56.77A56.84,56.84,0,0,1,174.57,374.68Zm0-111.53a54.77,54.77,0,1,0,54.76,54.76A54.82,54.82,0,0,0,174.57,263.15Z" transform="translate(-32.49 -21.75)"/><rect class="cls-2" x="141.58" y="216.77" width="1" height="14.25"/><rect class="cls-2" x="164.14" y="389.21" width="12.3" height="1" transform="translate(-269.05 491.81) rotate(-83.33)"/><rect class="cls-2" x="135.81" y="393.88" width="28.5" height="1" transform="translate(-303.06 406.14) rotate(-73.72)"/><rect class="cls-2" x="127.61" y="379.07" width="14.25" height="1" transform="translate(-291.89 274.9) rotate(-58.58)"/><rect class="cls-2" x="100.67" y="371.76" width="28.5" height="1" transform="translate(-257.16 159.57) rotate(-43.5)"/><rect class="cls-2" x="102" y="351.25" width="14.25" height="1" transform="translate(-186.62 72.45) rotate(-28.39)"/><rect class="cls-2" x="81.42" y="334.97" width="28.5" height="1" transform="translate(-107.19 9.31) rotate(-13.32)"/><rect class="cls-2" x="100.48" y="307.47" width="1" height="14.27" transform="translate(-251.82 373.92) rotate(-86.41)"/><rect class="cls-2" x="97.05" y="279.74" width="1" height="28.5" transform="translate(-244.59 280.13) rotate(-73.1)"/><rect class="cls-2" x="111.7" y="271.43" width="1" height="14.79" transform="translate(-217.31 211.17) rotate(-59.29)"/><rect class="cls-2" x="119.53" y="244.84" width="1" height="28.5" transform="translate(-176.76 129.26) rotate(-42.9)"/><rect class="cls-2" x="140.1" y="248.88" width="1" height="11.95" transform="translate(-150.5 99.55) rotate(-33.8)"/><rect class="cls-2" x="156.52" y="225.98" width="1" height="28.5" transform="translate(-81.47 18.66) rotate(-12.7)"/><path class="cls-4" d="M285.8,165.7h-2.44a6.19,6.19,0,0,0,0-12.37H244.94s5.1-12.83,5.1-18.91c0-2.78.63-8.39-1.08-11.06-.69-1.08-5.63-1.1-6.33,0,0,0-4.69,14.56-7.8,18.82-1.77,2.41-8.54,11.19-8.54,11.19h-10.5l-5.5,39.89h13.44a5,5,0,0,1,3.56,1.5l6.16,6.29a5.88,5.88,0,0,0,4.22,1.78h35.16a6.19,6.19,0,0,0,0-12.37h6.49a6.18,6.18,0,1,0,0-12.36h6.48a6.18,6.18,0,0,0,0-12.36Z" transform="translate(-32.49 -21.75)"/><path class="cls-11" d="M244.94,148.24h1.86C248.26,144,250,138,250,134.42c0-1.64.21-4.27,0-6.7,0,.59,0,1.14,0,1.61C250,135.4,244.94,148.24,244.94,148.24Z" transform="translate(-32.49 -21.75)"/><path class="cls-2" d="M285.18,179.06H274.62v-2h10.56a5.18,5.18,0,0,0,0-10.36H274.62v-2h10.56a7.18,7.18,0,0,1,0,14.36Z" transform="translate(-32.49 -21.75)"/><path class="cls-2" d="M278.69,191.42H263.77v-2h14.92a5.18,5.18,0,1,0,0-10.36H263.77v-2h14.92a7.18,7.18,0,1,1,0,14.36Z" transform="translate(-32.49 -21.75)"/><path class="cls-2" d="M272.2,203.79H237.05a7,7,0,0,1-4.94-2.08L226,195.42a4,4,0,0,0-2.85-1.2H209.66v-2H223.1a6,6,0,0,1,4.28,1.8l6.16,6.29a4.93,4.93,0,0,0,3.51,1.48H272.2a5.19,5.19,0,0,0,0-10.37h-5.82v-2h5.82a7.19,7.19,0,0,1,0,14.37Z" transform="translate(-32.49 -21.75)"/><path class="cls-2" d="M282.73,166.7h-19v-2h19a5.19,5.19,0,0,0,0-10.37H242.84l.54-1.37c.06-.12,5-12.72,5-18.54,0-.54,0-1.2.05-1.92.1-2.67.25-6.71-1-8.61-.57-.47-3.8-.5-4.61,0-.65,2-4.89,14.78-7.87,18.86-1.75,2.4-8.28,10.86-8.56,11.21l-.3.39h-11v-2h10c1.33-1.72,6.7-8.69,8.23-10.78,3-4.08,7.61-18.39,7.65-18.53l.12-.25c.71-1.09,2.83-1.25,4-1.23s3.29.18,4,1.28c1.55,2.42,1.39,6.66,1.28,9.76,0,.69-.05,1.32-.05,1.84,0,5.07-3.32,14.4-4.64,17.91h37a7.19,7.19,0,0,1,0,14.37Z" transform="translate(-32.49 -21.75)"/><rect class="cls-14" x="173.52" y="152.4" width="52.6" height="41.03" transform="translate(340.25 -48.65) rotate(90)"/><circle class="cls-6" cx="387.33" cy="39.35" r="38.35"/><path class="cls-2" d="M419.82,100.44A39.35,39.35,0,1,1,459.16,61.1,39.39,39.39,0,0,1,419.82,100.44Zm0-76.69A37.35,37.35,0,1,0,457.16,61.1,37.39,37.39,0,0,0,419.82,23.75Z" transform="translate(-32.49 -21.75)"/><polygon class="cls-4" points="400.97 39.35 373.69 23.59 373.69 55.1 400.97 39.35"/><path class="cls-2" d="M613.09,206.94h-1c0-1.13-1.28-1.76-2.64-2.43s-3.2-1.57-3.2-3.32,1.7-2.58,3.2-3.32,2.64-1.3,2.64-2.42-1.28-1.76-2.64-2.42-3.2-1.57-3.2-3.32,1.7-2.58,3.2-3.32,2.64-1.29,2.64-2.41h1c0,1.74-1.7,2.58-3.2,3.31s-2.64,1.3-2.64,2.42,1.28,1.75,2.64,2.42,3.2,1.57,3.2,3.32-1.7,2.58-3.2,3.32-2.64,1.3-2.64,2.42,1.28,1.76,2.64,2.42S613.09,205.19,613.09,206.94Z" transform="translate(-32.49 -21.75)"/><path class="cls-2" d="M551.52,271.73h-1c0-1.13-1.28-1.76-2.64-2.43s-3.2-1.57-3.2-3.32,1.7-2.58,3.2-3.32,2.64-1.3,2.64-2.42-1.28-1.76-2.64-2.42-3.2-1.57-3.2-3.32,1.7-2.58,3.2-3.32,2.64-1.29,2.64-2.41h1c0,1.74-1.7,2.58-3.2,3.31s-2.64,1.3-2.64,2.42,1.28,1.75,2.64,2.42,3.2,1.57,3.2,3.32-1.7,2.58-3.2,3.32-2.64,1.3-2.64,2.42,1.28,1.76,2.64,2.42S551.52,270,551.52,271.73Z" transform="translate(-32.49 -21.75)"/><path class="cls-2" d="M138.16,74.28h-1c0-1.12-1.29-1.75-2.65-2.42s-3.2-1.57-3.2-3.32,1.7-2.59,3.21-3.32c1.35-.67,2.64-1.3,2.64-2.43s-1.29-1.75-2.64-2.42c-1.51-.73-3.21-1.57-3.21-3.31s1.7-2.58,3.21-3.32c1.35-.67,2.64-1.3,2.64-2.42h1c0,1.75-1.7,2.58-3.2,3.32s-2.65,1.3-2.65,2.42,1.29,1.75,2.65,2.42,3.2,1.57,3.2,3.31-1.7,2.59-3.2,3.32-2.65,1.3-2.65,2.43S133.6,70.29,135,71,138.16,72.54,138.16,74.28Z" transform="translate(-32.49 -21.75)"/><path class="cls-2" d="M92.34,218.76V193.9l21.53,12.43Zm1-23.13V217l18.53-10.7Z" transform="translate(-32.49 -21.75)"/><path class="cls-2" d="M655.75,197.08V183.92l11.4,6.58Zm1-11.42v9.69l8.4-4.85Z" transform="translate(-32.49 -21.75)"/><path class="cls-2" d="M136.83,199,120,189.22l16.84-9.72ZM122,189.22l13.84,8v-16Z" transform="translate(-32.49 -21.75)"/><rect class="cls-2" x="141.2" y="77.19" width="107.48" height="1"/><rect class="cls-2" x="253.26" y="77.19" width="9.29" height="1"/><rect class="cls-2" x="267.01" y="77.19" width="9.29" height="1"/><rect class="cls-2" x="566.85" y="210.06" width="82.06" height="1"/><rect class="cls-2" x="652.41" y="210.06" width="7.09" height="1"/><rect class="cls-2" x="662.91" y="210.06" width="7.09" height="1"/><rect class="cls-2" x="296.08" y="77.19" width="15.81" height="1"/><rect class="cls-2" x="303.49" y="69.78" width="1" height="15.81"/><rect class="cls-2" x="72.48" y="100.29" width="15.81" height="1"/><rect class="cls-2" x="79.89" y="92.88" width="1" height="15.81"/><rect class="cls-2" x="629.03" y="54.6" width="15.81" height="1"/><rect class="cls-2" x="636.43" y="47.19" width="1" height="15.81"/><rect class="cls-2" x="250.98" y="54.6" width="57.27" height="1"/><rect class="cls-2" y="363.4" width="57.27" height="1"/><path class="cls-2" d="M531.24,136.58c-.68,0-1.36,0-2-.05l0-1c.66,0,1.31.05,2,.05Zm-4-.22q-1-.11-2-.27l.16-1c.65.11,1.3.2,2,.27Zm-4-.65c-.66-.15-1.32-.31-2-.49l.27-1c.63.18,1.26.34,1.91.48Zm-3.9-1.09c-.64-.22-1.28-.46-1.9-.71l.37-.93c.61.25,1.23.48,1.85.69Zm-3.77-1.52c-.61-.28-1.21-.59-1.81-.91l.47-.88c.58.31,1.17.61,1.77.89ZM512,131.19c-.58-.36-1.15-.72-1.7-1.11l.56-.82c.54.37,1.1.73,1.66,1.07Zm-3.34-2.3c-.54-.41-1.06-.84-1.58-1.28l.66-.76c.49.43,1,.85,1.53,1.25Zm-3.08-2.64c-.49-.47-1-1-1.42-1.44l.73-.69q.68.72,1.38,1.41Zm-2.76-3q-.66-.78-1.26-1.59l.8-.6c.39.53.8,1.05,1.22,1.55Zm-2.43-3.24q-.57-.84-1.08-1.71l.86-.51c.33.56.68,1.12,1.05,1.67Zm-2.07-3.48c-.31-.6-.6-1.21-.88-1.82l.91-.41c.27.6.56,1.19.86,1.77Zm-1.66-3.69c-.25-.62-.48-1.26-.69-1.9l1-.31c.2.62.42,1.24.66,1.85ZM495.35,109c-.17-.65-.33-1.3-.47-2l1-.2c.13.64.29,1.28.46,1.92Zm-.83-4c-.1-.67-.18-1.34-.25-2l1-.1c.06.66.14,1.31.24,2Zm-.39-4c0-.53,0-1.06,0-1.6V99h1v.42c0,.52,0,1,0,1.55Zm1.05-4-1-.06c0-.68.11-1.35.19-2l1,.12C495.28,95.74,495.22,96.39,495.18,97.05Zm.47-3.91-1-.18c.12-.66.25-1.33.41-2l1,.22C495.89,91.84,495.76,92.49,495.65,93.14Zm.89-3.84-1-.28c.19-.65.4-1.3.62-1.93l.94.33C496.93,88,496.73,88.66,496.54,89.3Zm1.31-3.72-.92-.39c.26-.62.54-1.24.83-1.85l.9.43C498.38,84.37,498.11,85,497.85,85.58ZM499.57,82l-.88-.48c.33-.6.67-1.18,1-1.75l.85.53C500.22,80.88,499.88,81.44,499.57,82Zm2.09-3.35-.82-.57c.39-.55.79-1.1,1.21-1.63l.79.62C502.43,77.61,502,78.14,501.66,78.67Zm2.44-3.09-.75-.67c.44-.5.9-1,1.38-1.48l.71.7C505,74.6,504.53,75.08,504.1,75.58Zm2.76-2.82-.67-.74q.74-.67,1.53-1.32l.63.77C507.84,71.89,507.35,72.32,506.86,72.76Zm3.05-2.5-.59-.8c.54-.4,1.1-.79,1.66-1.15l.55.83C511,69.5,510.44,69.88,509.91,70.26Zm3.3-2.15-.5-.86c.58-.34,1.18-.66,1.78-1l.45.9C514.36,67.47,513.78,67.79,513.21,68.11Zm3.51-1.77-.4-.92c.62-.27,1.24-.52,1.87-.76l.35.93C517.93,65.83,517.32,66.07,516.72,66.34ZM520.41,65l-.3-1c.64-.2,1.29-.39,1.95-.55l.24,1C521.67,64.58,521,64.76,520.41,65Zm3.82-1L524,63c.66-.13,1.32-.24,2-.34l.13,1C525.52,63.75,524.87,63.85,524.23,64Zm3.9-.55-.08-1c.67-.06,1.34-.1,2-.12l0,1C529.44,63.34,528.78,63.38,528.13,63.43Z" transform="translate(-32.49 -21.75)"/><path class="cls-2" d="M531.24,136.58v-1a36.14,36.14,0,0,0,0-72.28v-1a37.14,37.14,0,0,1,0,74.28Z" transform="translate(-32.49 -21.75)"/><rect class="cls-2" x="491.88" y="77.19" width="13.73" height="1"/><rect class="cls-2" x="498.25" y="70.83" width="1" height="13.73"/></svg>