<svg xmlns="http://www.w3.org/2000/svg" viewBox="0 0 370 396.4"><defs><style>.cls-1{isolation:isolate;}.cls-2,.cls-6{fill:#fff;}.cls-2,.cls-5{fill-rule:evenodd;}.cls-3{fill:#1b2c38;}.cls-4{fill:#21464f;}.cls-5{fill:#949fac;}.cls-7{fill:#95d133;}.cls-8{fill:#f1f2ec;}.cls-9{fill:#fc3e59;}.cls-10{fill:#cac8c8;opacity:0.5;mix-blend-mode:darken;}.cls-11{fill:#ffe9a4;}.cls-12{fill:#636c78;}.cls-13{fill:#f1f3ee;}.cls-14{fill:#434244;}.cls-15{fill:#ffcb05;}.cls-16{fill:#eab200;}</style></defs><title>19-social-media-promo</title><g class="cls-1"><g id="Isolation_Mode" data-name="Isolation Mode"><path class="cls-2" d="M55.73,969.35a8.33,8.33,0,0,0-.38,2.46A8.15,8.15,0,0,0,63.5,980H287.8a8.15,8.15,0,0,0,8.15-8.14,8,8,0,0,0-.38-2.46Z" transform="translate(-11.92 -688.52)"/><path class="cls-3" d="M287.8,981H63.5a9.24,9.24,0,0,1-9.22-9.22A9.37,9.37,0,0,1,54.7,969l.24-.76H296.37l.23.76a9.22,9.22,0,0,1-8.8,12ZM56.57,970.42a7.2,7.2,0,0,0-.14,1.39,7.08,7.08,0,0,0,7.07,7.07H287.8a7.08,7.08,0,0,0,7.08-7.07,7.28,7.28,0,0,0-.14-1.39Z" transform="translate(-11.92 -688.52)"/><path class="cls-4" d="M205,974.65a1.07,1.07,0,0,1-1.08,1.07H151a1.07,1.07,0,0,1-1.08-1.07h0a1.08,1.08,0,0,1,1.08-1.07h53a1.07,1.07,0,0,1,1.08,1.07Z" transform="translate(-11.92 -688.52)"/><path class="cls-5" d="M84.38,851.58H266.91a9.36,9.36,0,0,1,9.34,9.34v99.33a9.37,9.37,0,0,1-9.34,9.35H84.38A9.37,9.37,0,0,1,75,960.25V860.92A9.36,9.36,0,0,1,84.38,851.58Z" transform="translate(-11.92 -688.52)"/><path class="cls-3" d="M266.91,970.67H84.38A10.43,10.43,0,0,1,74,960.25V860.92A10.43,10.43,0,0,1,84.38,850.5H266.91a10.43,10.43,0,0,1,10.42,10.42v99.33A10.43,10.43,0,0,1,266.91,970.67Zm-182.53-118a8.27,8.27,0,0,0-8.27,8.26v99.33a8.28,8.28,0,0,0,8.27,8.27H266.91a8.28,8.28,0,0,0,8.27-8.27V860.92a8.27,8.27,0,0,0-8.27-8.26Z" transform="translate(-11.92 -688.52)"/><path class="cls-6" d="M266.93,851.58H84.39a9.36,9.36,0,0,0-9.34,9.34V961a9.37,9.37,0,0,0,9.34,9.34H266.93a9.38,9.38,0,0,0,9.34-9.34V860.92A9.37,9.37,0,0,0,266.93,851.58Zm.64,109.4a.67.67,0,0,1-.64.64H84.39a.67.67,0,0,1-.64-.64V860.92a.66.66,0,0,1,.64-.64H266.93a.66.66,0,0,1,.64.64Z" transform="translate(-11.92 -688.52)"/><path class="cls-3" d="M266.93,971.4H84.39A10.43,10.43,0,0,1,74,961V860.92A10.42,10.42,0,0,1,84.39,850.5H266.93a10.42,10.42,0,0,1,10.41,10.42V961A10.43,10.43,0,0,1,266.93,971.4ZM84.39,852.66a8.27,8.27,0,0,0-8.26,8.26V961a8.27,8.27,0,0,0,8.26,8.26H266.93a8.27,8.27,0,0,0,8.26-8.26V860.92a8.27,8.27,0,0,0-8.26-8.26Zm182.54,110H84.39A1.75,1.75,0,0,1,82.67,961V860.92a1.75,1.75,0,0,1,1.72-1.72H266.93a1.74,1.74,0,0,1,1.71,1.72V961A1.74,1.74,0,0,1,266.93,962.7Zm-182.1-2.15H266.49V861.36H84.83Z" transform="translate(-11.92 -688.52)"/><path class="cls-7" d="M166,818.92a53,53,0,1,1,53-53A53.06,53.06,0,0,1,166,818.92Z" transform="translate(-11.92 -688.52)"/><path class="cls-3" d="M166,820a54,54,0,1,1,54-54.05A54.12,54.12,0,0,1,166,820Zm0-106A51.94,51.94,0,1,0,218,765.92,52,52,0,0,0,166,714Z" transform="translate(-11.92 -688.52)"/><path class="cls-8" d="M166,808.3a42.38,42.38,0,1,1,42.37-42.38A42.42,42.42,0,0,1,166,808.3Z" transform="translate(-11.92 -688.52)"/><path class="cls-3" d="M166,809.35a43.43,43.43,0,1,1,43.42-43.43A43.48,43.48,0,0,1,166,809.35Zm0-84.75a41.33,41.33,0,1,0,41.32,41.32A41.37,41.37,0,0,0,166,724.6Z" transform="translate(-11.92 -688.52)"/><path class="cls-7" d="M166,797.69a31.77,31.77,0,1,1,31.76-31.77A31.8,31.8,0,0,1,166,797.69Z" transform="translate(-11.92 -688.52)"/><path class="cls-3" d="M166,798.74a32.82,32.82,0,1,1,32.81-32.82A32.85,32.85,0,0,1,166,798.74Zm0-63.52a30.71,30.71,0,1,0,30.71,30.7A30.74,30.74,0,0,0,166,735.22Z" transform="translate(-11.92 -688.52)"/><path class="cls-8" d="M166,787.08a21.16,21.16,0,1,1,21.14-21.16A21.18,21.18,0,0,1,166,787.08Z" transform="translate(-11.92 -688.52)"/><path class="cls-3" d="M166,788.13a22.21,22.21,0,1,1,22.2-22.21A22.23,22.23,0,0,1,166,788.13Zm0-42.31a20.1,20.1,0,1,0,20.09,20.1A20.13,20.13,0,0,0,166,745.82Z" transform="translate(-11.92 -688.52)"/><path class="cls-7" d="M176.58,765.92A10.55,10.55,0,1,1,166,755.39,10.54,10.54,0,0,1,176.58,765.92Z" transform="translate(-11.92 -688.52)"/><path class="cls-3" d="M166,777.52a11.59,11.59,0,1,1,11.59-11.6A11.61,11.61,0,0,1,166,777.52Zm0-21.08a9.49,9.49,0,1,0,9.48,9.48A9.5,9.5,0,0,0,166,756.44Z" transform="translate(-11.92 -688.52)"/><polygon class="cls-9" points="201.25 32.29 215.8 34.86 229.55 21.64 214.51 19.93 201.25 32.29"/><path class="cls-3" d="M228.06,724.51l-17.15-3,15.16-14.13,17.74,2Zm-12.63-4.37,11.94,2.11L239.13,711l-12.34-1.4Z" transform="translate(-11.92 -688.52)"/><polygon class="cls-9" points="199.3 30.63 196.72 16.11 209.96 2.34 211.66 17.38 199.3 30.63"/><path class="cls-3" d="M210.55,721.41l-3-17.13,15.15-15.76,2,17.74ZM209.77,705l2.11,11.92,10.6-11.36-1.4-12.33Z" transform="translate(-11.92 -688.52)"/><path class="cls-3" d="M167.6,767.47h0a2.27,2.27,0,0,1-3.89-1.59,2.25,2.25,0,0,1,.78-1.72h0l59-58.74,3,3Z" transform="translate(-11.92 -688.52)"/><path class="cls-10" d="M130.72,726.71c-1.45,1.16-1.56,1.51-3.5,3.2L164,766.79l1.68-1.87,1.53-1.34Z" transform="translate(-11.92 -688.52)"/><path class="cls-11" d="M165.07,919c0-5.24-3.8-9.52-8.45-9.52H127.9c-4.65,0-8.45,4.28-8.45,9.52l-4.78,35.66-8.3-2.1,11.57,12.17c2.13,4,4.91,7.9,7.35,9.79v29h37V963.09a10.06,10.06,0,0,0,2.8-7.05Z" transform="translate(-11.92 -688.52)"/><path class="cls-3" d="M163.34,1004.58H124.21V975.07a35.45,35.45,0,0,1-7.15-9.66l-14-14.76,10.75,2.71,4.6-34.39c0-5.81,4.3-10.53,9.53-10.53h28.72c5.25,0,9.53,4.76,9.53,10.6v37a11.24,11.24,0,0,1-2.81,7.48Zm-37-2.15h34.82V962.65l.31-.31A9.07,9.07,0,0,0,164,956V919c0-4.66-3.31-8.45-7.37-8.45H127.9c-4.07,0-7.37,3.79-7.37,8.45v.14L115.58,956l-5.87-1.48,9.18,9.7c2.24,4.19,5,7.81,7.06,9.45l.42.32Z" transform="translate(-11.92 -688.52)"/><rect class="cls-12" x="101.06" y="190.26" width="28.24" height="88.96"/><path class="cls-3" d="M142.25,968.84l-30.39,0,.09-91.12,30.39,0ZM114,966.66l26.08,0,.09-86.8-26.09,0Z" transform="translate(-11.92 -688.52)"/><path class="cls-9" d="M152,851.29a5.93,5.93,0,0,0,5.93,5.94l15.78,0a5.94,5.94,0,0,0,5.94-5.93V837.44a5.93,5.93,0,0,0-5.93-5.94H158a5.92,5.92,0,0,0-5.94,5.92Z" transform="translate(-11.92 -688.52)"/><path class="cls-3" d="M173.75,858.32H158a7,7,0,0,1-7-7V837.41a7,7,0,0,1,7-7h15.79a7,7,0,0,1,7,7l0,13.88A7,7,0,0,1,173.75,858.32Zm-20.63-7a4.85,4.85,0,0,0,4.85,4.86l15.78,0a4.86,4.86,0,0,0,4.86-4.85V837.44a4.83,4.83,0,0,0-4.85-4.86l-15.78,0h0a4.87,4.87,0,0,0-4.86,4.85Z" transform="translate(-11.92 -688.52)"/><path class="cls-9" d="M15.35,844.84c0,41,3.85,74.17,8.69,74.17s8.8-33.2,8.84-74.16S29,770.68,24.19,770.67,15.39,803.87,15.35,844.84Z" transform="translate(-11.92 -688.52)"/><path class="cls-3" d="M24,920.09h0c-1.25,0-4.59,0-7.25-22.68a474.24,474.24,0,0,1-2.52-52.58c0-19.85,1-38.52,2.63-52.57,2.7-22.66,6-22.68,7.29-22.66s4.59,0,7.24,22.68C33.08,806.33,34,825,34,844.85,33.93,870.87,31.83,920.09,24,920.09Zm-7.62-75.25c0,19.59.86,38.06,2.48,52C21.24,917.05,24,917.93,24,917.93s2.81-.88,5.19-21.1a473.09,473.09,0,0,0,2.57-52,473.43,473.43,0,0,0-2.46-52c-2.34-20.23-5.13-21.11-5.15-21.12s-2.81.88-5.19,21.1a472.9,472.9,0,0,0-2.58,52Z" transform="translate(-11.92 -688.52)"/><path class="cls-9" d="M108.78,968.16a1.31,1.31,0,0,0,1.31,1.31l33.92,0a1.33,1.33,0,0,0,1.32-1.32v-4.33a1.33,1.33,0,0,0-1.32-1.32l-33.92,0a1.32,1.32,0,0,0-1.32,1.31Z" transform="translate(-11.92 -688.52)"/><path class="cls-3" d="M144,970.58l-33.92,0a2.4,2.4,0,0,1-2.39-2.4v-4.33a2.41,2.41,0,0,1,.7-1.69,2.38,2.38,0,0,1,1.69-.7h0l33.92,0a2.38,2.38,0,0,1,1.69.7,2.3,2.3,0,0,1,.7,1.69v4.33A2.4,2.4,0,0,1,144,970.58Zm-33.91-7a.23.23,0,0,0-.17.07.27.27,0,0,0-.07.16v4.34a.24.24,0,0,0,.24.24l33.92,0a.24.24,0,0,0,.24-.24v-4.33a.24.24,0,0,0-.24-.24l-33.92,0Z" transform="translate(-11.92 -688.52)"/><path class="cls-13" d="M25.07,772.12s38.72,32.29,69.15,32.32H107.8l-.07,77.88h-12c-33.78,0-69.07,34.92-69.07,34.92a702.25,702.25,0,0,0,4.43-73.92A449.75,449.75,0,0,0,25.07,772.12Z" transform="translate(-11.92 -688.52)"/><path class="cls-3" d="M25.18,920.18l.38-3.07A707.18,707.18,0,0,0,30,843.32a451.28,451.28,0,0,0-6-71l-.52-2.92,2.27,1.9c.39.32,38.77,32.05,68.46,32.08H108c.48.06,1.08.26,1.08,1.06a1.23,1.23,0,0,1-.16.58l-.07,78.37H95.65c-32.95,0-67.92,34.27-68.27,34.61ZM26.6,774.72a459.85,459.85,0,0,1,5.52,68.6A709.56,709.56,0,0,1,28,914.44a172.4,172.4,0,0,1,19.86-15.57c12-8,30.05-17.63,47.76-17.63h11l.07-75.72H94.22c-12.82,0-28.48-5.51-46.54-16.33A214,214,0,0,1,26.6,774.72Z" transform="translate(-11.92 -688.52)"/><path class="cls-9" d="M140.91,804.49A31.15,31.15,0,0,1,172,835.67l0,15.57a31.14,31.14,0,0,1-31.18,31.12l-33.62,0,.07-77.88Z" transform="translate(-11.92 -688.52)"/><path class="cls-3" d="M140.87,883.44h0l-34.7,0,.07-80,34.71,0a32.28,32.28,0,0,1,32.2,32.26l0,15.57a32.23,32.23,0,0,1-32.22,32.2Zm-32.59-2.19,32.55,0h0a30.06,30.06,0,0,0,30.07-30V835.67a30.11,30.11,0,0,0-30-30.11l-32.55,0Z" transform="translate(-11.92 -688.52)"/><path class="cls-9" d="M24.16,791.16c.25,1.93.49,4.08.73,6.47,1.3,13.15,2,29.93,2,47.22s-.76,34-2.08,47.2c-.25,2.39-.49,4.54-.74,6.47-.24-1.93-.49-4.08-.72-6.47-1.3-13.15-2-29.92-2-47.21s.76-34.06,2.08-47.21c.24-2.39.49-4.54.73-6.47m-.68-20.25c-4.52,3.05-8.09,35-8.13,73.93,0,41,3.85,74.17,8.69,74.17a1.24,1.24,0,0,0,.71-.24c4.51-3,8.09-35,8.13-73.92,0-41-3.85-74.17-8.69-74.18a1.24,1.24,0,0,0-.71.24Z" transform="translate(-11.92 -688.52)"/><path class="cls-3" d="M24,920.09c-1.25,0-4.59,0-7.25-22.68a474.24,474.24,0,0,1-2.52-52.58c0-34.31,3-71,8.6-74.81a2.1,2.1,0,0,1,1.33-.42c1.24,0,4.58,0,7.23,22.68C33.08,806.33,34,825,34,844.85c0,34.31-3,71-8.6,74.82A2.42,2.42,0,0,1,24,920.09Zm.15-148.34a.22.22,0,0,0-.11,0h0c-.5.34-3.1,3-5.28,22.73a487.71,487.71,0,0,0-2.38,50.31c0,19.59.86,38.06,2.48,52C21.23,917,24,917.93,24,917.93a.22.22,0,0,0,.11,0c.5-.34,3.09-3,5.27-22.73a482.07,482.07,0,0,0,2.38-50.3,473.43,473.43,0,0,0-2.46-52c-2.34-20.23-5.13-21.11-5.15-21.12Zm-.14,135.37L23,898.65c-.28-2.27-.52-4.39-.72-6.5-1.3-13.21-2-30-2-47.31s.76-34.14,2.09-47.31c.23-2.24.47-4.43.74-6.5l1.06-8.41,1.07,8.4c.27,2.07.51,4.25.73,6.51,1.3,13.15,2,30,2,47.32s-.75,34.09-2.08,47.3c-.25,2.48-.5,4.61-.74,6.5Zm.11-105.69c-1.1,12.48-1.71,27.72-1.73,43.41s.56,30.92,1.64,43.43c1.1-12.51,1.71-27.76,1.73-43.42S25.23,813.9,24.16,801.43Z" transform="translate(-11.92 -688.52)"/><path class="cls-14" d="M13,843.32A19.54,19.54,0,0,1,25.57,825.1c-.52,12.26-.46,24.34,0,36.5A19.53,19.53,0,0,1,13,843.32Z" transform="translate(-11.92 -688.52)"/><path class="cls-3" d="M26.76,863.18l-1.53-.57a20.69,20.69,0,0,1-13.31-19.29h0a20.73,20.73,0,0,1,13.26-19.23l1.53-.58-.07,1.63c-.49,11.75-.48,23.66.05,36.42ZM14.07,843.32a18.56,18.56,0,0,0,10.4,16.62c-.44-11.56-.45-22.44,0-33.17a18.59,18.59,0,0,0-10.35,16.55Z" transform="translate(-11.92 -688.52)"/><polygon class="cls-13" points="97.72 238.49 101.06 238.57 101.08 220.98 97.73 220.9 97.72 238.49"/><path class="cls-3" d="M114.05,928.19l-5.49-.13,0-19.74,5.49.13ZM110.72,926l1.18,0,0-15.44-1.19,0Z" transform="translate(-11.92 -688.52)"/><path class="cls-11" d="M121.16,916.06a6.84,6.84,0,0,1,4,8.83h0a6.85,6.85,0,0,1-8.83,4l-9.6-3.66a6.83,6.83,0,0,1-4-8.82h0a6.84,6.84,0,0,1,8.83-4Z" transform="translate(-11.92 -688.52)"/><path class="cls-3" d="M118.72,930.37a7.72,7.72,0,0,1-2.81-.52l-9.6-3.65A7.93,7.93,0,0,1,101.73,916,7.91,7.91,0,0,1,112,911.4l9.6,3.65a7.92,7.92,0,0,1-2.83,15.32ZM109.13,913a5.77,5.77,0,0,0-2.36.51,5.77,5.77,0,0,0,.31,10.65l9.6,3.65a5.77,5.77,0,0,0,4.1-10.78l-9.6-3.65A5.81,5.81,0,0,0,109.13,913Z" transform="translate(-11.92 -688.52)"/><path class="cls-11" d="M117,930.29a6.24,6.24,0,0,1,4.55,7.59h0a6.26,6.26,0,0,1-7.6,4.55l-9.11-2.28a6.27,6.27,0,0,1-4.55-7.6h0a6.26,6.26,0,0,1,7.6-4.55Z" transform="translate(-11.92 -688.52)"/><path class="cls-3" d="M115.48,943.7a7.29,7.29,0,0,1-1.78-.22l-9.11-2.29A7.34,7.34,0,1,1,108.16,927l9.11,2.29a7.34,7.34,0,0,1-1.79,14.46Zm-9.12-14.82a5.19,5.19,0,0,0-1.25,10.22l9.11,2.29a5.19,5.19,0,1,0,2.53-10.06h0L107.64,929A5.54,5.54,0,0,0,106.36,928.88Z" transform="translate(-11.92 -688.52)"/><path class="cls-11" d="M117.3,944.51a5.57,5.57,0,0,1,4,6.76h0a5.57,5.57,0,0,1-6.75,4.05l-8.09-2a5.57,5.57,0,0,1-4-6.75h0a5.57,5.57,0,0,1,6.75-4Z" transform="translate(-11.92 -688.52)"/><path class="cls-3" d="M116,956.56a6.42,6.42,0,0,1-1.62-.2l-8.1-2a6.63,6.63,0,0,1-4.83-8.05,6.65,6.65,0,0,1,8.06-4.83l8.1,2A6.64,6.64,0,0,1,116,956.56Zm-8.1-13.17a4.5,4.5,0,0,0-4.36,3.4,4.44,4.44,0,0,0,.52,3.41,4.36,4.36,0,0,0,2.75,2l8.09,2a4.49,4.49,0,1,0,2.19-8.71l-8.1-2A4.53,4.53,0,0,0,107.85,943.39Z" transform="translate(-11.92 -688.52)"/><path class="cls-11" d="M122.83,899.55a7,7,0,0,1,4.07,9.07h0a7,7,0,0,1-9.08,4.07L108,908.93a7,7,0,0,1-4.06-9.07h0a7,7,0,0,1,9.07-4.07Z" transform="translate(-11.92 -688.52)"/><path class="cls-3" d="M120.31,914.22a8.08,8.08,0,0,1-2.87-.53l-9.86-3.75a8.11,8.11,0,0,1,5.77-15.15l9.86,3.75a8.11,8.11,0,0,1-2.9,15.68Zm-9.84-17.81a5.93,5.93,0,0,0-5.56,3.84,6,6,0,0,0,3.44,7.68l9.86,3.75a5.95,5.95,0,1,0,4.23-11.12l-9.85-3.76A6,6,0,0,0,110.47,896.41Z" transform="translate(-11.92 -688.52)"/><path class="cls-11" d="M154.82,909.59l-21.77.18a6.7,6.7,0,1,0,.18,13.39l21.59.17Z" transform="translate(-11.92 -688.52)"/><path class="cls-3" d="M154.82,922.19,133.13,922a5.56,5.56,0,0,1-.07-11.11l22.91-.18v-2.28l-22.94.18a7.84,7.84,0,0,0,.19,15.68h0l21.6.16Z" transform="translate(-11.92 -688.52)"/><polygon class="cls-6" points="106.04 302.75 106.04 310.47 154.81 311.27 154.81 303.56 106.04 302.75"/><path class="cls-3" d="M167.87,1001l-51.05-.84v-10l51.05.84Zm-48.76-3.09,46.47.77V993.2l-46.47-.77Z" transform="translate(-11.92 -688.52)"/><polygon class="cls-3" points="154.81 396.4 154.81 308.52 106.04 308.09 106.04 396.4 154.81 396.4"/><polygon class="cls-3" points="107.19 396.4 107.19 309.35 153.66 309.76 153.66 396.4 155.95 396.4 155.95 307.29 104.9 306.83 104.9 396.4 107.19 396.4"/><polygon class="cls-3" points="107.19 396.07 107.19 309.36 129.44 309.76 129 396.07 131.29 396.07 131.74 307.32 104.9 306.83 104.9 396.07 107.19 396.07"/><path class="cls-6" d="M158.38,1009.1a3,3,0,1,0,3-2.9A2.95,2.95,0,0,0,158.38,1009.1Z" transform="translate(-11.92 -688.52)"/><path class="cls-3" d="M161.34,1013.24h-.08a4.12,4.12,0,1,1,.08,0Zm0-5.9a1.83,1.83,0,0,0-1.83,1.78,1.79,1.79,0,0,0,.51,1.29,1.81,1.81,0,0,0,1.27.55l0,1.14V1011a1.81,1.81,0,0,0,0-3.62Z" transform="translate(-11.92 -688.52)"/><path class="cls-11" d="M229.76,941.24l11.45-11.5-8.08,1.4.69-35.63c0-5.24,2.59-22.22-2.06-22.22L191.09,886c-4.65,0-8.45,4.29-8.45,9.53v37a10,10,0,0,0,2.8,7.06V980h37V951C224.85,949.13,227.64,945.2,229.76,941.24Z" transform="translate(-11.92 -688.52)"/><path class="cls-3" d="M223.49,981.05H184.36V940a11.28,11.28,0,0,1-2.8-7.48v-37c0-5.79,4.18-10.5,9.36-10.6l40.68-12.7h.16a2.77,2.77,0,0,1,2.08.93c2.25,2.42,1.93,9.35,1.33,17.49-.14,2-.27,3.74-.27,4.88l-.67,34.34,10.13-1.74-13.73,13.78a35.26,35.26,0,0,1-7.14,9.64Zm-37-2.16h34.82v-28.4l.42-.32c2.11-1.64,4.81-5.25,7.05-9.44l.19-.25,9.06-9.1-6,1,.73-36.93c0-1.19.13-3,.28-5,.38-5.21,1-13.94-.77-15.86a.67.67,0,0,0-.37-.23l-40.64,12.68h-.17c-4.06,0-7.37,3.79-7.37,8.45v37a9,9,0,0,0,2.5,6.3l.31.32Z" transform="translate(-11.92 -688.52)"/><polygon class="cls-3" points="198.72 270.93 192.48 270.31 229.84 64.04 235.29 65.04 198.72 270.93"/><path class="cls-3" d="M211.52,960.62l-8.39-.83L240.89,751.3l7.57,1.4Zm-5.85-2.74,4.08.4L246,754.43l-3.33-.62Z" transform="translate(-11.92 -688.52)"/><path class="cls-3" d="M250.76,748.26a5.4,5.4,0,1,1-4.34-6.29A5.41,5.41,0,0,1,250.76,748.26Z" transform="translate(-11.92 -688.52)"/><path class="cls-3" d="M245.44,753.77a6.68,6.68,0,0,1-1.17-.1,6.49,6.49,0,1,1,7.55-5.21h0A6.49,6.49,0,0,1,245.44,753.77Zm0-10.82a4.37,4.37,0,1,0,.8.08A4.33,4.33,0,0,0,245.43,743Z" transform="translate(-11.92 -688.52)"/><path class="cls-15" d="M344.66,851.7l34.51-23.91-19.95-3.68L290.09,810.9a7.9,7.9,0,0,1-3.45-1.56,7.64,7.64,0,0,1-2.85-7.4l-10.35,56.25a9.45,9.45,0,0,0-.11,2.54c-.26,3.08.38,7.44,6.24,8.51L314,875.4l54.59,10Z" transform="translate(-11.92 -688.52)"/><path class="cls-3" d="M371,887l-57.2-10.52-34.4-6.16c-5-.92-7.54-4.32-7.13-9.57a10.38,10.38,0,0,1,.13-2.74l10.35-56.24,2.11.39a6.58,6.58,0,0,0,2.46,6.35,6.84,6.84,0,0,0,3,1.35l69.13,13.22,22.5,4.14L346.17,852Zm-87.17-79.24-9.31,50.64a8.41,8.41,0,0,0-.1,2.25v.19c-.35,4.23,1.41,6.64,5.36,7.36l34.4,6.16,52,9.56-23-32.47,33.28-23L359,825.17,289.89,812a9,9,0,0,1-3.92-1.76A8.83,8.83,0,0,1,283.81,807.74Z" transform="translate(-11.92 -688.52)"/><path class="cls-16" d="M324.49,834.25l-30-5.56-15-2.78-3.68,20-.13,0-2.26,12.28a9.38,9.38,0,0,0-.11,2.53,16.38,16.38,0,0,1,.22-1.64l.66-3.58a9.51,9.51,0,0,1,8.44-7.7,10.14,10.14,0,0,1,2.9.11l5.21,1,31.2,5.74c4-.33,7.24-2.74,8-6.88l.66-3.59C331.15,841.26,331.5,835.54,324.49,834.25Z" transform="translate(-11.92 -688.52)"/><path class="cls-3" d="M272.26,860.82a10.24,10.24,0,0,1,.12-2.83l2.46-13.34.13,0,3.68-20,46,8.53a8.68,8.68,0,0,1,5.87,3.41c1.33,1.94,1.71,4.54,1.12,7.74l-.66,3.58c-.81,4.4-4.25,7.37-9,7.77h-.14l-.14,0L285.36,849a9.44,9.44,0,0,0-2.6-.1,8.43,8.43,0,0,0-7.49,6.83l-.66,3.58c-.09.48-.16,1-.21,1.54Zm11.45-14.15a10.68,10.68,0,0,1,2,.19L322,853.53c3.69-.36,6.26-2.59,6.89-6l.66-3.59c.48-2.61.22-4.67-.78-6.12a6.6,6.6,0,0,0-4.48-2.51h0l-43.92-8.14-3.69,20-.13,0-.47,2.57a10.74,10.74,0,0,1,6.45-3A11.46,11.46,0,0,1,283.71,846.67Z" transform="translate(-11.92 -688.52)"/><path class="cls-15" d="M333.09,776.64l-87.24-16L235.3,817.92l89.18,16.39c6.76,1.24,6.68,6.9,6.15,9.78L341,787.85A9.69,9.69,0,0,0,333.09,776.64Z" transform="translate(-11.92 -688.52)"/><path class="cls-3" d="M331.69,844.28l-2.12-.38h0c.61-3.34.19-7.52-5.28-8.52l-90.24-16.58L245,759.34l88.31,16.24A10.77,10.77,0,0,1,342,788l-10.34,56.24Zm-95.13-27.22,88.12,16.19a8.5,8.5,0,0,1,6.12,4l9.11-49.55a8.61,8.61,0,0,0-7-9.95l-86.19-15.86Z" transform="translate(-11.92 -688.52)"/><path class="cls-11" d="M226.54,892.52a6.84,6.84,0,0,0-4,8.83h0a6.83,6.83,0,0,0,8.83,4l9.6-3.65a6.84,6.84,0,0,0,4-8.83h0a6.83,6.83,0,0,0-8.82-4Z" transform="translate(-11.92 -688.52)"/><path class="cls-3" d="M229,906.84a7.92,7.92,0,0,1-2.83-15.32h0l9.6-3.66a7.92,7.92,0,0,1,5.63,14.81l-9.6,3.65A7.88,7.88,0,0,1,229,906.84Zm-2.07-13.31a5.77,5.77,0,1,0,4.1,10.78l9.61-3.66a5.76,5.76,0,1,0-4.11-10.77Z" transform="translate(-11.92 -688.52)"/><path class="cls-11" d="M230.69,906.75a6.25,6.25,0,0,0-4.55,7.59h0a6.26,6.26,0,0,0,7.6,4.56l9.12-2.29a6.26,6.26,0,0,0,4.55-7.59h0a6.27,6.27,0,0,0-7.6-4.56Z" transform="translate(-11.92 -688.52)"/><path class="cls-3" d="M232.22,920.16a7.33,7.33,0,0,1-1.79-14.45l9.11-2.29a7.34,7.34,0,0,1,8.91,5.33,7.36,7.36,0,0,1-5.33,8.91L234,919.94A7.37,7.37,0,0,1,232.22,920.16Zm9.12-14.81a5,5,0,0,0-1.27.16L231,907.8a5.19,5.19,0,0,0-3.77,6.28,5.2,5.2,0,0,0,6.3,3.77l9.11-2.28a5.19,5.19,0,0,0-1.25-10.22Z" transform="translate(-11.92 -688.52)"/><path class="cls-11" d="M230.41,921a5.57,5.57,0,0,0-4,6.76h0a5.56,5.56,0,0,0,6.75,4l8.1-2a5.57,5.57,0,0,0,4-6.75h0a5.57,5.57,0,0,0-6.76-4Z" transform="translate(-11.92 -688.52)"/><path class="cls-3" d="M231.75,933a6.65,6.65,0,0,1-1.6-13.1l8.09-2a6.64,6.64,0,0,1,7.3,9.88,6.53,6.53,0,0,1-4.08,3l-8.08,2A6.51,6.51,0,0,1,231.75,933Zm8.11-13.17a4.51,4.51,0,0,0-1.09.13l-8.1,2a4.49,4.49,0,0,0,2.18,8.72l8.09-2a4.49,4.49,0,0,0-1.08-8.84Z" transform="translate(-11.92 -688.52)"/><path class="cls-11" d="M224.88,876a7,7,0,0,0-4.07,9.07h0a7,7,0,0,0,9.07,4.07l9.86-3.75a7,7,0,0,0,4.06-9.07h0a7,7,0,0,0-9.07-4.07Z" transform="translate(-11.92 -688.52)"/><path class="cls-3" d="M227.39,890.69A8.1,8.1,0,0,1,224.5,875l9.85-3.76a8.11,8.11,0,0,1,5.78,15.15l-9.87,3.76A8,8,0,0,1,227.39,890.69ZM225.26,877a6,6,0,0,0,4.24,11.12l9.86-3.75a6,6,0,0,0-4.24-11.12Z" transform="translate(-11.92 -688.52)"/><path class="cls-11" d="M214.66,886.24l-21-.18v13.73l20.84-.16a6.7,6.7,0,0,0,.18-13.39Z" transform="translate(-11.92 -688.52)"/><path class="cls-3" d="M214.67,885.09l-22.17-.17v2.29l22.14.17a5.55,5.55,0,1,1-.17,11.1h0l-20.83.16v2.29l20.93-.16a7.84,7.84,0,0,0,.1-15.68Z" transform="translate(-11.92 -688.52)"/><polygon class="cls-6" points="168.65 280.03 168.65 287.75 217.41 286.94 217.41 279.23 168.65 280.03"/><path class="cls-3" d="M179.42,977.43v-10l51.05-.84v10Zm2.29-7.76v5.43l46.48-.76v-5.43Z" transform="translate(-11.92 -688.52)"/><polygon class="cls-3" points="217.41 396.4 217.41 284.89 168.65 285.44 168.65 396.4 217.41 396.4"/><polygon class="cls-3" points="169.79 396.4 169.79 287 216.27 286.47 216.27 396.4 218.56 396.4 218.56 283.3 167.5 283.88 167.5 396.4 169.79 396.4"/><polygon class="cls-3" points="194.87 395.74 194.43 286.99 216.27 286.49 216.27 395.74 218.56 395.74 218.56 283.31 192.13 283.91 192.58 395.74 194.87 395.74"/><path class="cls-6" d="M189.33,985.57a3,3,0,1,1-3-2.9A2.94,2.94,0,0,1,189.33,985.57Z" transform="translate(-11.92 -688.52)"/><path class="cls-3" d="M186.37,989.71a4.1,4.1,0,0,1-.06-8.19h0a4.13,4.13,0,0,1,4.16,4,4.1,4.1,0,0,1-4,4.16Zm0-5.9a1.81,1.81,0,1,0,0,3.61v1.14l0-1.14a1.81,1.81,0,0,0,0-3.61Z" transform="translate(-11.92 -688.52)"/><g id="Layer_2" data-name="Layer 2"><path class="cls-3" d="M73.37,1019.41l3-1.48-.2-.49a10.86,10.86,0,0,1-.72-2.92l0-.52-3.28.09a15.84,15.84,0,0,0-1.3-2.44l1.83-2.73-.42-.33a10.92,10.92,0,0,1-2.08-2.16l-.31-.43-2.75,1.7a15.08,15.08,0,0,0-2.39-1.45l.22-3.27-.52-.08a10.69,10.69,0,0,1-2.88-.83l-.49-.22-1.55,2.89a14.84,14.84,0,0,0-2.75,0l-1.47-3-.49.2a10.41,10.41,0,0,1-2.92.72l-.52.06.1,3.38a14.91,14.91,0,0,0-2.3,1.3l-2.88-1.93-.32.41a10.7,10.7,0,0,1-2.17,2.08l-.42.31,1.84,3a16.15,16.15,0,0,0-1.28,2.16l-3.59-.24-.07.52a10.76,10.76,0,0,1-.83,2.89l-.22.48,3.22,1.74a14.66,14.66,0,0,0,0,2.39l-3.34,1.64.2.49a11.15,11.15,0,0,1,.72,2.92l.05.52,3.75-.11a14.78,14.78,0,0,0,1.12,2l-2.12,3.16.41.33a10.7,10.7,0,0,1,2.09,2.16l.31.43,3.21-2a16.38,16.38,0,0,0,2,1.21l-.26,3.8.52.07a11.22,11.22,0,0,1,2.9.84l.47.21,1.78-3.29a15.27,15.27,0,0,0,2.34.09l1.66,3.36.49-.19a10.43,10.43,0,0,1,2.91-.72l.53-.06-.11-3.64a15.27,15.27,0,0,0,2.16-1.13l3,2,.32-.42a10.92,10.92,0,0,1,2.16-2.08l.43-.31-1.84-3a14.87,14.87,0,0,0,1.38-2.18l3.49.24.07-.52a10.76,10.76,0,0,1,.83-2.89l.22-.48-3-1.6A15.18,15.18,0,0,0,73.37,1019.41Zm1.4,4.79a12.75,12.75,0,0,0-.63,2.19l-3.2-.22-.17.34a14.59,14.59,0,0,1-1.66,2.63l-.25.31,1.71,2.77a12.18,12.18,0,0,0-1.64,1.57l-2.78-1.86-.32.2a14.13,14.13,0,0,1-2.64,1.39l-.37.15.1,3.38a11.81,11.81,0,0,0-2.2.55l-1.53-3.11-.38,0a14.72,14.72,0,0,1-2.89-.11l-.39-.05-1.65,3.06a12,12,0,0,0-2.18-.63l.24-3.53-.35-.16a15,15,0,0,1-2.42-1.49l-.31-.24-3,1.85a11.68,11.68,0,0,0-1.58-1.64l2-2.93-.22-.32a15,15,0,0,1-1.39-2.51l-.15-.35-3.47.1a11.34,11.34,0,0,0-.55-2.21l3.11-1.52,0-.39a14.44,14.44,0,0,1,0-2.94l0-.38-3-1.6a12,12,0,0,0,.64-2.19l3.33.23.16-.36a14.19,14.19,0,0,1,1.55-2.63l.23-.31-1.7-2.76a12.8,12.8,0,0,0,1.64-1.57l2.66,1.78.32-.23a14.14,14.14,0,0,1,2.76-1.55l.35-.16-.08-3.1a12.65,12.65,0,0,0,2.2-.55l1.36,2.77.39,0a14.28,14.28,0,0,1,3.27,0l.39.05,1.43-2.65a11.6,11.6,0,0,0,2.18.63l-.2,3,.35.16a14.22,14.22,0,0,1,2.83,1.73l.32.24,2.53-1.57a11.14,11.14,0,0,0,1.58,1.64l-1.68,2.51.22.31a14.75,14.75,0,0,1,1.55,2.91l.15.37,3-.09a12.08,12.08,0,0,0,.54,2.21l-2.76,1.36,0,.38a14,14,0,0,1-.13,3.22l-.06.39Z" transform="translate(-11.92 -688.52)"/><path class="cls-3" d="M57.86,1007.66a12.43,12.43,0,1,0,12.43,12.43A12.44,12.44,0,0,0,57.86,1007.66Zm9.79,7.11a11.08,11.08,0,0,1,.95,8.49,11.2,11.2,0,0,1-10.72,8.07,10.85,10.85,0,0,1-3.1-.44,11.17,11.17,0,0,1-7.64-13.82A11.16,11.16,0,0,1,61,1009.44,11.09,11.09,0,0,1,67.65,1014.77Z" transform="translate(-11.92 -688.52)"/><path class="cls-3" d="M52,1020.09a5.83,5.83,0,1,0,5.83-5.83A5.84,5.84,0,0,0,52,1020.09Zm10.53,0a4.7,4.7,0,1,1-4.7-4.7A4.71,4.71,0,0,1,62.56,1020.09Z" transform="translate(-11.92 -688.52)"/></g><g id="Layer_5" data-name="Layer 5"><rect class="cls-3" x="305.51" y="307.81" width="1.63" height="2.27"/><rect class="cls-3" x="305.51" y="302.44" width="1.63" height="2.27"/><rect class="cls-3" x="305.51" y="297.07" width="1.63" height="2.27"/><rect class="cls-3" x="305.51" y="291.71" width="1.63" height="2.27"/><rect class="cls-3" x="305.51" y="286.34" width="1.63" height="2.27"/><rect class="cls-3" x="305.51" y="280.97" width="1.63" height="2.27"/><rect class="cls-3" x="305.51" y="275.61" width="1.63" height="2.27"/><rect class="cls-3" x="305.51" y="270.24" width="1.63" height="2.27"/><rect class="cls-3" x="305.51" y="264.87" width="1.63" height="2.27"/><rect class="cls-3" x="305.51" y="259.51" width="1.63" height="2.27"/><rect class="cls-3" x="305.51" y="254.14" width="1.63" height="2.27"/><rect class="cls-3" x="305.51" y="248.77" width="1.63" height="2.27"/><rect class="cls-3" x="305.51" y="243.41" width="1.63" height="2.27"/></g><g id="Layer_6" data-name="Layer 6"><rect class="cls-3" x="73.13" y="85.2" width="1.36" height="1.88"/><rect class="cls-3" x="73.13" y="80.74" width="1.36" height="1.88"/><rect class="cls-3" x="73.13" y="76.29" width="1.36" height="1.88"/><rect class="cls-3" x="73.13" y="71.84" width="1.36" height="1.88"/><rect class="cls-3" x="73.13" y="67.38" width="1.36" height="1.88"/><rect class="cls-3" x="73.13" y="62.93" width="1.36" height="1.88"/><rect class="cls-3" x="73.13" y="58.47" width="1.36" height="1.88"/><rect class="cls-3" x="73.13" y="54.02" width="1.36" height="1.88"/><rect class="cls-3" x="73.13" y="49.57" width="1.36" height="1.88"/><rect class="cls-3" x="73.13" y="45.11" width="1.36" height="1.88"/><rect class="cls-3" x="73.13" y="40.66" width="1.36" height="1.88"/><rect class="cls-3" x="73.13" y="36.2" width="1.36" height="1.88"/><rect class="cls-3" x="73.13" y="31.75" width="1.36" height="1.88"/></g><g id="Layer_7" data-name="Layer 7"><rect class="cls-3" x="279.34" y="50.63" width="18.6" height="1.16"/><rect class="cls-3" x="303.17" y="50.63" width="18.6" height="1.16"/><rect class="cls-3" x="325.25" y="50.63" width="1.74" height="1.16"/></g><path class="cls-3" d="M277.91,1050.61a13.11,13.11,0,0,1-4.71-2.27,12.87,12.87,0,0,1-3.36-3.76,13.14,13.14,0,0,1-1.46-10,13.17,13.17,0,0,1,2.26-4.71,13.13,13.13,0,0,1,13.74-4.82,13.17,13.17,0,0,1-6.47,25.53Zm.71-.83.65-.07h.1l.19,0h0l.15,0h0l.17,0h0l.18-.07h0l.14-.06.06,0,.18-.08,0,0,.16-.07.06,0,.13-.08.05,0,.18-.11,0,0,.14-.09.06,0,.14-.1h0l0,0,.16-.13.05,0v0l.13-.1.06-.05.15-.13.05,0,.14-.13.07-.07.11-.1.06-.06h0l.17-.17.05-.06.12-.12.07-.08.11-.12h0l.06-.06.16-.18.06-.09.1-.12.08-.09.07-.1,0,0a.44.44,0,0,1,.08-.11l.11-.15.31-.42-.54-.26-.12-.06-.13-.06-.53-.23-.11,0h0l-.47-.19,0,0-.08,0-.55-.2-.14,0-.53-.18h-.06l-.36-.11-.52-.16Zm-1.54-.66.07.05.54.38,1.38-5.46-.53-.11-.37-.08h-.07l-.54-.1-.15,0-.58-.09h-.13l-.49-.05-.15,0-.56,0h-.3l-.58,0,.08.58a1.11,1.11,0,0,1,0,.17v0a2,2,0,0,0,0,.24v.08c0,.07,0,.13,0,.2l0,.08a1.69,1.69,0,0,0,.05.24v.07a1.16,1.16,0,0,1,0,.18l0,.09c0,.06,0,.12,0,.18l0,.07a1.87,1.87,0,0,0,.07.22l0,.08c0,.06,0,.11.05.16l0,.08a1.07,1.07,0,0,0,.07.19l0,0a1.59,1.59,0,0,0,.07.2l0,.07.06.15h0l0,0,.09.2,0,0a1.09,1.09,0,0,0,.08.15l0,.05h0l.08.15,0,0,.11.18,0,0,.08.13,0,0a.91.91,0,0,0,.11.16h0l.12.16,0,0a1.47,1.47,0,0,0,.1.13l0,0a3.83,3.83,0,0,0,.28.29l0,0,.12.1,0,0,.16.12Zm-4.59-2.72.09.09c.22.22.46.44.7.64l.1.09.43.33,1.26,1-.59-1.47,0-.07a1.8,1.8,0,0,1-.08-.21l0-.12-.08-.23,0-.11-.09-.27a.45.45,0,0,0,0-.08c0-.11-.06-.23-.09-.37h0c0-.12-.05-.23-.08-.35l0-.11-.06-.28a.43.43,0,0,0,0-.12c0-.1,0-.19,0-.28l0-.13c0-.1,0-.2,0-.3v-.09l-.05-.4-.52,0h-.29l-.26,0-.26,0-.27,0-.25,0-.25,0-.26,0-.11,0-.65.12.36.55a12.12,12.12,0,0,0,.9,1.23c.22.26.44.5.67.73Zm12.31.31-.06.08-.17.22-.06.09,0,0-.15.2a.39.39,0,0,0-.08.1l0,0-.16.19v0l-.08.09-.21.23,0,.06-.25.27-.08.07-.18.19-.09.08-.17.16-.1.09-.17.15-.06,0-1.2,1,1.55-.23.41-.07a12.23,12.23,0,0,0,3.63-1.31l.57-.32-.54-.43-.07-.06-.19-.15-.21-.15-.2-.15-.23-.15-.2-.14-.24-.16-.22-.14-.12-.06-.34-.21Zm-15.65-10.93a12,12,0,0,0-.09,3.49,12.22,12.22,0,0,0,.92,3.41l.14.33.36-.08.21,0h.06l.46-.09h.11l.47-.08h0l.47,0h.09l.5,0h.27l.44,0h0v-.49a3.84,3.84,0,0,1,0-.48v-.11c0-.2,0-.38,0-.56v-.1c0-.16,0-.33,0-.49,0,0,0-.1,0-.12,0-.2,0-.39.05-.58v-.09l.06-.5,0-.14c0-.22.06-.4.08-.57a.13.13,0,0,0,0-.06v0c0-.17.05-.34.08-.5l0-.16h0l.12-.56.09-.43-.42-.11-4.56-1.15Zm16.4,9.8.37.22.11.07,0,0,.08,0,.41.27.09.06.37.26,0,0,.38.28.1.08.34.28.05,0,.05,0,.13.11.27.24.28-.22a.39.39,0,0,0,.1-.08h0c.26-.21.51-.43.75-.65l.6-.61.11-.13.12-.14a12.12,12.12,0,0,0,1.75-2.66c.1-.22.21-.45.3-.69s.19-.47.27-.7l.15-.45-5-1.26-.14.4v0l-.17.55,0,0a.76.76,0,0,1,0,.11l-.15.47,0,.09c-.05.17-.12.34-.19.54l-.06.15-.18.44,0,.11-.22.51-.06.13c-.07.14-.13.29-.2.43l-.05.1-.25.49-.05.11c-.08.13-.15.27-.23.41l0,0-.22.39Zm-10.75-7c0,.16-.05.33-.07.53l0,.12c0,.37-.08.74-.11,1.11,0,0,0,.12,0,.12,0,.19,0,.35,0,.5v0c0,.16,0,.33,0,.53v.13c0,.15,0,.3,0,.44v.49l.42,0,.51,0h.06l.58.05h.15c.42,0,.85.1,1.27.16l.16,0,.55.1.11,0,.53.11.42.09,1.26-5-5.43-1.38-.1.44s0,0,0,0c0,.17-.07.34-.1.51l0,.12-.09.55Zm5.43,4.87.4.12.52.15.14,0,.48.16.19.06.58.22.06,0,.53.21.12,0,.05,0,.47.2.1,0,.46.22.38.18.21-.39.24-.44,0-.09.24-.48,0,0,.21-.45.06-.13.22-.5v0c.07-.16.14-.32.2-.49l.06-.14c0-.15.11-.31.17-.46l0-.07c.06-.15.11-.32.17-.51l.06-.16.13-.43.16-.52-5.44-1.38Zm11.59-10.65-.17,0-.13,0-.44.08-.11,0-.47.07h0l-.47.06h-.09l-.5,0h-.29l-.42,0v.5c0,.15,0,.31,0,.47v.11c0,.19,0,.37,0,.56,0,0,0,.09,0,.12s0,.31,0,.46v.14c0,.19,0,.38-.05.56v.11l-.06.48v0a.5.5,0,0,0,0,.12c0,.21-.05.39-.08.56a.58.58,0,0,0,0,.1c0,.16,0,.32-.08.48l0,.18c-.05.22-.08.4-.12.56v0l-.07.41.41.1,4.55,1.16.08-.47a12,12,0,0,0,.09-3.49,12.22,12.22,0,0,0-.92-3.41l-.14-.33Zm-4.5.37a24.49,24.49,0,0,1-3.92-.51l-.42-.09-1.26,5,5.44,1.37.1-.49c0-.17.07-.34.1-.5l0-.13c0-.2.06-.38.09-.56v0c0-.16,0-.33.07-.53a1.23,1.23,0,0,0,0-.13c0-.18,0-.36.06-.52v0c0-.17,0-.35.05-.55v-.13l0-.5v0c0-.18,0-.36,0-.53v-.12a3.69,3.69,0,0,0,0-.47v-.47Zm-11.44,1.13c-.06.16-.11.34-.18.54l0,.12-.15.5-.15.47.45.12,5,1.26,1.26-5-.41-.11-.53-.17-.07,0-.56-.18-.14-.06-.61-.22h0l-.58-.23-.11,0,0,0-.5-.22-.09,0-.45-.21-.38-.19-.2.37,0,.06-.21.38-.06.12c-.1.18-.17.33-.24.48l0,0-.22.45a.37.37,0,0,1-.05.11c-.15.34-.29.69-.43,1l0,.12c-.06.15-.13.33-.19.51Zm-2.26-6a12,12,0,0,0-2.43,2.56,12.19,12.19,0,0,0-1.57,3.12l-.16.44,5,1.26.12-.4v0c.05-.16.1-.34.16-.55l.06-.16c0-.16.1-.32.16-.48l0-.08c.06-.17.12-.35.2-.54l.05-.14.18-.46,0-.09.23-.52a.37.37,0,0,1,.05-.11,4.69,4.69,0,0,1,.21-.45l0-.09c.07-.16.16-.32.25-.5l0-.1c.08-.14.15-.28.23-.41l0,0,.22-.4h0l-.38-.23-.09-.05-.14-.09-.41-.27-.09-.06-.38-.26,0,0-.37-.28-.09-.07-.35-.29-.1-.08-.13-.11-.27-.24Zm5.28.43-.14.18a.1.1,0,0,0,0,0c-.1.12-.21.26-.31.4l-.31.43.53.25.13.06.13.06c.18.09.36.16.53.23l.12.06.47.19.11,0,.56.2.13.05.54.18.06,0,.4.12.48.14,1.38-5.45-.63.06h-.12l-.19,0h0l-.17,0h0l-.38.12h0l-.16.06,0,0-.19.08h0l-.16.08,0,0-.15.09,0,0-.18.11,0,0-.16.1-.05,0-.15.11,0,0-.18.14,0,0-.14.11-.05,0c-.12.1-.24.2-.36.32l-.05.05-.14.13,0,0-.17.18,0,0-.15.17-.05,0-.15.17,0,0-.18.21Zm4.32,2.89.44.1a22.3,22.3,0,0,0,3.48.46l.53,0-.07-.52c-.34-2.47-1.22-4.3-2.49-5.17l-.51-.35Zm-3.91-5.78-.41.07a12.21,12.21,0,0,0-3.63,1.3l-.57.31.52.43.08.06.2.16.2.15.22.16.21.14.22.15.22.14.24.15.1.07.35.2.24-.33,0,0,0,0a1.77,1.77,0,0,1,.16-.22l.09-.12.16-.21h0l.09-.1.17-.22,0,0,0-.06.24-.27,0,0,.26-.28.05,0,.21-.21.08-.08.18-.17.08-.07.19-.16,0,0,1.24-1Zm8.5,2.83a12.25,12.25,0,0,1,.76,3.14l.05.4.53,0,.28,0,.25,0,.29,0,.24,0,.26,0,.25,0,.25,0,.13,0,.63-.13-.34-.54a12.15,12.15,0,0,0-2.58-2.87l-.33-.26-1.24-.94Z" transform="translate(-11.92 -688.52)"/></g></g></svg>