<svg xmlns="http://www.w3.org/2000/svg" viewBox="0 0 570 345.76"><defs><style>.cls-1{fill:#e2e7ec;}.cls-2{fill:#949fac;}.cls-3{fill:#fff;}.cls-4{fill:#1b2c38;}.cls-5{fill:#e8b100;}.cls-6{fill:#636c78;}.cls-7{fill:#ffcb05;}.cls-8{fill:#f1f2ec;}.cls-9{fill:#fc3e59;}.cls-10{fill:#27c7cd;}</style></defs><title>20-email-marketing-details</title><g id="Layer_2" data-name="Layer 2"><path class="cls-1" d="M173.89,287H137a1.1,1.1,0,0,1,0-2.19h36.88a43.93,43.93,0,1,0-16.17-84.75,1.09,1.09,0,0,1-1.45-.73A68.09,68.09,0,0,0,22.42,213.8a1.12,1.12,0,0,1-.52.89,1.09,1.09,0,0,1-1,.07,36.22,36.22,0,0,0-14.67-3.08,36.57,36.57,0,1,0,0,73.13H90.68a1.1,1.1,0,0,1,0,2.19H6.22a38.76,38.76,0,1,1,14.1-74.84A70.27,70.27,0,0,1,158.06,197.6a45.68,45.68,0,0,1,15.83-2.83,46.12,46.12,0,0,1,0,92.23Z" transform="translate(62.13 -7.55)"/><path class="cls-1" d="M435.92,278.2H275a32.88,32.88,0,1,1,11-63.84,50,50,0,0,1,97.81,10.26,27.61,27.61,0,0,1,35.85,16.89,21.76,21.76,0,0,1,16.3-7.27,1.05,1.05,0,1,1,0,2.1,19.7,19.7,0,0,0-15.89,8,1.06,1.06,0,0,1-1,.4,1,1,0,0,1-.81-.76,25.52,25.52,0,0,0-34.95-16.85,1,1,0,0,1-1.47-.92A47.85,47.85,0,0,0,287.68,216a1,1,0,0,1-.54.67,1.07,1.07,0,0,1-.86,0A30.77,30.77,0,1,0,275,276.1h161a20,20,0,0,0,18-11.36,1.05,1.05,0,1,1,1.9.9A22.1,22.1,0,0,1,435.92,278.2Z" transform="translate(62.13 -7.55)"/></g><g id="Email_Marketing" data-name="Email Marketing"><rect class="cls-2" x="143.8" y="146.56" width="283.34" height="194"/><rect class="cls-3" x="160.57" y="163.98" width="249.81" height="159.16"/><polygon class="cls-3" points="441.02 344.76 129.92 344.76 120.03 321.13 450.92 321.13 441.02 344.76"/><path class="cls-4" d="M379.56,353.31H67.13L56.4,327.68H390.29Zm-311.1-2H378.23l9.06-21.63H59.4Z" transform="translate(62.13 -7.55)"/><rect class="cls-4" x="265.14" y="331.01" width="40.67" height="1"/><rect class="cls-5" x="187.51" y="209.71" width="194.09" height="111.13"/><path class="cls-5" d="M323.31,219.4c0,.32-2.6.58-5.79.58h-190c-3.19,0-5.78-.26-5.78-.58s2.23-1.88,5-3.49L217.5,163a10.92,10.92,0,0,1,10,0l90.8,52.9C321.07,217.52,323.31,219.08,323.31,219.4Z" transform="translate(62.13 -7.55)"/><polygon class="cls-3" points="238.86 67.81 200.22 106.45 200.22 284 368.55 284 368.55 67.81 238.86 67.81"/><path class="cls-4" d="M307.42,292.54H137.09v-179l39.22-39.22H307.42Zm-168.33-2H305.42V76.36H177.14l-38,38.05Z" transform="translate(62.13 -7.55)"/><polygon class="cls-6" points="238.49 106.1 238.49 66.79 199.1 106.1 238.49 106.1"/><path class="cls-7" d="M121.71,221.71V325.47c0,3.14,2.23,4.4,5,2.82l90.57-51.84c2.76-1.57,2.76-4.14,0-5.7l-90.57-51.84C123.94,217.33,121.71,218.58,121.71,221.71Z" transform="translate(62.13 -7.55)"/><path class="cls-7" d="M227.26,276.18l91,52.1c2.77,1.59,5,.33,5-2.83V221.17c0-3.15-2.25-4.41-5-2.82l-91,52.1C224.48,272,224.48,274.6,227.26,276.18Z" transform="translate(62.13 -7.55)"/><path class="cls-5" d="M121.7,328.39c0,.32,2.59.58,5.78.58H317c3.19,0,5.78-.26,5.78-.58s-2.23-1.87-5-3.47l-95.57-61.33-95.56,61.33C123.93,326.52,121.7,328.09,121.7,328.39Z" transform="translate(62.13 -7.55)"/><polygon class="cls-4" points="385.94 321.84 182.83 321.84 182.84 211.67 195.15 203.53 196.25 205.2 184.84 212.74 184.83 319.84 383.95 319.84 384.44 212.21 373.05 205.21 374.1 203.51 386.44 211.09 386.44 211.66 385.94 321.84"/><rect class="cls-4" x="228.36" y="156.81" width="103.95" height="2"/><rect class="cls-4" x="228.36" y="140.41" width="103.95" height="2"/><rect class="cls-4" x="228.36" y="124.02" width="103.95" height="2"/><rect class="cls-4" x="228.36" y="107.62" width="103.95" height="2"/><rect class="cls-4" x="228.36" y="220.75" width="103.95" height="2"/><rect class="cls-4" x="228.36" y="204.35" width="103.95" height="2"/><rect class="cls-4" x="228.36" y="187.96" width="103.95" height="2"/><rect class="cls-4" x="228.36" y="171.56" width="103.95" height="2"/><path class="cls-7" d="M149.31,204l-4.93-26.69A50.81,50.81,0,1,0,125,199.53Z" transform="translate(62.13 -7.55)"/><path class="cls-4" d="M98.19,208.29a51.68,51.68,0,0,1-51.62-51.62h2a49.54,49.54,0,0,0,75.92,42l.33-.2L149.49,203l-.36,2-23.9-4.39A51.47,51.47,0,0,1,98.19,208.29Z" transform="translate(62.13 -7.55)"/><ellipse class="cls-8" cx="160.57" cy="149.12" rx="36.74" ry="35.89"/><path class="cls-4" d="M96.29,178v-3.79a23.6,23.6,0,0,1-12.15-6L89,162.41a20.92,20.92,0,0,0,7.32,4.51v-7.74c-3.64-.93-6.3-2.18-8-3.76s-2.54-3.84-2.54-6.8a9.86,9.86,0,0,1,2.91-7.32,12.6,12.6,0,0,1,7.63-3.45v-2.54h5.5V138a23.94,23.94,0,0,1,10.33,4.31l-4.26,6.13a19.84,19.84,0,0,0-6.07-3.12v7.48q5.61,1.45,8.28,3.89a8.89,8.89,0,0,1,2.67,6.91,9.86,9.86,0,0,1-3,7.37,13.19,13.19,0,0,1-8,3.48V178Zm0-33a2.87,2.87,0,0,0-2.24,2.85,3.44,3.44,0,0,0,2.24,3.17ZM104.44,164a2.87,2.87,0,0,0-.57-1.82,5.32,5.32,0,0,0-2.08-1.35v6.39C103.55,166.63,104.44,165.55,104.44,164Z" transform="translate(62.13 -7.55)"/><path class="cls-9" d="M370.12,163.13a43.82,43.82,0,1,1-43.82-43.82A43.82,43.82,0,0,1,370.12,163.13Z" transform="translate(62.13 -7.55)"/><path class="cls-8" d="M342.3,161.86l-30.52-17.63a1.47,1.47,0,0,0-2.2,1.28v35.24a1.47,1.47,0,0,0,2.2,1.27L342.3,164.4a1.46,1.46,0,0,0,0-2.54l-30.52-17.63a1.47,1.47,0,0,0-2.2,1.28v35.24a1.47,1.47,0,0,0,2.2,1.27L342.3,164.4A1.46,1.46,0,0,0,342.3,161.86Z" transform="translate(62.13 -7.55)"/><path class="cls-4" d="M311,183.22a2.5,2.5,0,0,1-1.23-.33,2.46,2.46,0,0,1-1.23-2.14V145.51a2.47,2.47,0,0,1,3.7-2.14L342.8,161l0,0a2.44,2.44,0,0,1,1.18,1.88,1.93,1.93,0,0,1,0,.24,2.46,2.46,0,0,1-1.23,2.14l-30.52,17.62A2.5,2.5,0,0,1,311,183.22Zm-.46-2.47a.44.44,0,0,0,.23.4.45.45,0,0,0,.47,0l30.52-17.62a.44.44,0,0,0,.23-.4.47.47,0,0,0-.23-.41L311.28,145.1a.47.47,0,0,0-.7.41Z" transform="translate(62.13 -7.55)"/><rect class="cls-4" x="391.35" y="90" width="1" height="14.63"/><rect class="cls-4" x="311" y="107.86" width="1" height="7.52" transform="translate(42.87 94.71) rotate(-18.09)"/><rect class="cls-4" x="291.98" y="109.63" width="1" height="16.13" transform="translate(55.03 208.36) rotate(-40.07)"/><rect class="cls-4" x="378.97" y="182.76" width="1" height="14.85" transform="translate(88.93 418.84) rotate(-60.43)"/><rect class="cls-4" x="381.87" y="167.25" width="1" height="7.25" transform="matrix(0.19, -0.98, 0.98, 0.19, 205.38, 507.16)"/><rect class="cls-4" x="378.54" y="151.05" width="14.63" height="1" transform="matrix(0.98, -0.18, 0.18, 0.98, 41.02, 65.06)"/><rect class="cls-4" x="372.2" y="134.75" width="5.56" height="1" transform="matrix(0.86, -0.51, 0.51, 0.86, 45.4, 201.64)"/><rect class="cls-4" x="358.77" y="117.59" width="14.03" height="1" transform="translate(104.58 318.37) rotate(-50.62)"/><rect class="cls-4" x="343.78" y="111.03" width="7.37" height="1" transform="translate(189.04 394.71) rotate(-70.61)"/><path class="cls-9" d="M174,35.56a20.87,20.87,0,0,1-20.87,20.86V35.56Z" transform="translate(62.13 -7.55)"/><path class="cls-10" d="M179.1,35.56a26,26,0,1,0-26,25.95V35.56Z" transform="translate(62.13 -7.55)"/><path class="cls-8" d="M167.3,35.56a14.16,14.16,0,1,0-14.16,14.15V35.56Z" transform="translate(62.13 -7.55)"/><path class="cls-4" d="M133.3,72a.86.86,0,0,1-.72-.38L123.9,59.26H82.17v-1h42.25l8.86,12.61L139,58.26h12.85v1h-12.2l-5.58,12.2a.91.91,0,0,1-.73.52Z" transform="translate(62.13 -7.55)"/><rect class="cls-4" x="248.21" y="50.71" width="29.32" height="1"/><path class="cls-4" d="M187.4,60.18,168.89,8.6h-.14L150.54,60.18l-.95-.34L167.81,8.27a1.05,1.05,0,0,1,1-.72,1,1,0,0,1,1,.71l18.51,51.58Z" transform="translate(62.13 -7.55)"/><path class="cls-4" d="M64.92,64.05a3.72,3.72,0,1,1,3.72-3.72A3.73,3.73,0,0,1,64.92,64.05Zm0-6.44a2.72,2.72,0,1,0,2.72,2.72A2.72,2.72,0,0,0,64.92,57.61Z" transform="translate(62.13 -7.55)"/><path class="cls-4" d="M378.66,99.31a3.72,3.72,0,1,1,3.72-3.72A3.73,3.73,0,0,1,378.66,99.31Zm0-6.43a2.72,2.72,0,1,0,2.72,2.71A2.72,2.72,0,0,0,378.66,92.88Z" transform="translate(62.13 -7.55)"/><path class="cls-4" d="M447,123.64a4.64,4.64,0,1,1,4.64-4.64A4.65,4.65,0,0,1,447,123.64Zm0-8.28a3.64,3.64,0,1,0,3.64,3.64A3.65,3.65,0,0,0,447,115.36Z" transform="translate(62.13 -7.55)"/><path class="cls-4" d="M-8.4,174.35A4.65,4.65,0,0,1-13,169.7a4.64,4.64,0,0,1,4.64-4.64,4.65,4.65,0,0,1,4.65,4.64A4.65,4.65,0,0,1-8.4,174.35Zm0-8.29A3.65,3.65,0,0,0-12,169.7a3.66,3.66,0,0,0,3.64,3.65,3.66,3.66,0,0,0,3.65-3.65A3.65,3.65,0,0,0-8.4,166.06Z" transform="translate(62.13 -7.55)"/><rect class="cls-4" x="273.41" y="29.46" width="78.95" height="1"/><rect class="cls-4" x="355.73" y="29.46" width="6.82" height="1"/><rect class="cls-4" x="365.83" y="29.46" width="6.82" height="1"/><rect class="cls-4" x="384.23" y="29.46" width="8.42" height="1"/><rect class="cls-4" x="387.93" y="25.76" width="1" height="8.42"/><rect class="cls-4" x="67.37" y="185.65" width="8.42" height="1"/><rect class="cls-4" x="71.08" y="181.95" width="1" height="8.42"/><rect class="cls-4" x="481.46" y="33.67" width="8.42" height="1"/><rect class="cls-4" x="485.17" y="29.96" width="1" height="8.42"/><rect class="cls-4" x="84.61" y="77.69" width="70.84" height="1"/><rect class="cls-4" x="436.54" y="224.86" width="27.43" height="1"/><rect class="cls-4" x="83.03" y="186.17" width="27.43" height="1"/><rect class="cls-4" x="470.35" y="224.86" width="11.02" height="1"/><rect class="cls-4" x="388.04" y="52.28" width="70.84" height="1"/><polygon class="cls-9" points="94.81 236.53 86.01 221.28 94.81 206.03 112.42 206.03 121.22 221.28 112.42 236.53 94.81 236.53"/><path class="cls-4" d="M43.71,258.31H25.52l-9.09-15.74,9.09-15.75H43.71l9.09,15.75Zm-17.61-1h17l8.52-14.74-8.52-14.75h-17l-8.51,14.75Z" transform="translate(62.13 -7.55)"/><polygon class="cls-9" points="473.85 97.01 468.67 88.04 473.85 79.08 484.2 79.08 489.38 88.04 484.2 97.01 473.85 97.01"/><path class="cls-4" d="M418.32,113.13H407.39l-5.46-9.46,5.46-9.47h10.93l5.46,9.47Zm-10.35-1h9.77l4.89-8.46-4.89-8.47H408l-4.89,8.47Z" transform="translate(62.13 -7.55)"/><path class="cls-7" d="M457.46,203.41a21,21,0,1,1-20.95-20.95A21,21,0,0,1,457.46,203.41Z" transform="translate(62.13 -7.55)"/><path class="cls-4" d="M423.54,204.21A21.46,21.46,0,1,1,445,182.76,21.48,21.48,0,0,1,423.54,204.21Zm0-41.91A20.46,20.46,0,1,0,444,182.76,20.48,20.48,0,0,0,423.54,162.3Z" transform="translate(62.13 -7.55)"/><path class="cls-10" d="M389.32,31.94a9.75,9.75,0,1,1-9.75-9.75A9.75,9.75,0,0,1,389.32,31.94Z" transform="translate(62.13 -7.55)"/><path class="cls-4" d="M375.19,37.38a10.25,10.25,0,1,1,10.25-10.25A10.26,10.26,0,0,1,375.19,37.38Zm0-19.5a9.25,9.25,0,1,0,9.25,9.25A9.26,9.26,0,0,0,375.19,17.88Z" transform="translate(62.13 -7.55)"/><path class="cls-10" d="M29,136.05a9.76,9.76,0,1,1-9.76-9.76A9.76,9.76,0,0,1,29,136.05Z" transform="translate(62.13 -7.55)"/><path class="cls-4" d="M14.82,141.49a10.25,10.25,0,1,1,10.25-10.25A10.27,10.27,0,0,1,14.82,141.49Zm0-19.5a9.25,9.25,0,1,0,9.25,9.25A9.27,9.27,0,0,0,14.82,122Z" transform="translate(62.13 -7.55)"/><rect class="cls-4" y="343.76" width="570" height="2"/></g></svg>