<svg xmlns="http://www.w3.org/2000/svg" viewBox="0 0 570 467.17"><defs><style>.cls-1{fill:#fff;}.cls-2{fill:none;stroke:#fff;stroke-linecap:round;stroke-linejoin:round;stroke-width:2px;}.cls-3{fill:#636c78;}.cls-10,.cls-4{fill:#1b2c38;}.cls-5{fill:#e8e9e1;}.cls-6{fill:#fc3e59;}.cls-7{fill:#27c7cd;}.cls-8{fill:#d8d8d8;}.cls-9{fill:#ffcb05;}.cls-10{opacity:0.1;}</style></defs><title>21-ppc-details</title><g id="Layer_4" data-name="Layer 4"><path class="cls-1" d="M220.27,155.64H179.73a1.2,1.2,0,1,1,0-2.39h40.54A48.08,48.08,0,1,0,202.5,60.49a1.2,1.2,0,0,1-1,0,1.15,1.15,0,0,1-.62-.76A74.9,74.9,0,0,0,53.75,75.53a1.17,1.17,0,0,1-.56,1,1.2,1.2,0,0,1-1.12.08A40.06,40.06,0,1,0,36,153.25H128.8a1.2,1.2,0,1,1,0,2.39H36a42.42,42.42,0,1,1,15.5-81.91A77.3,77.3,0,0,1,202.87,57.8a50.5,50.5,0,1,1,17.4,97.84Z" transform="translate(6.65 -1.82)"/><path class="cls-1" d="M338.06,421.32H525.13c21.07,0,38.22-16.6,38.22-37s-17.15-37-38.22-37a39,39,0,0,0-12.78,2.16c-7.15-24-29.89-40.59-55.78-40.59-30.63,0-55.73,22.77-57.9,52.14a32.59,32.59,0,0,0-11.29-2A32.11,32.11,0,0,0,357,380a25.65,25.65,0,0,0-18.94-8.17,1.18,1.18,0,1,0,0,2.36,23.16,23.16,0,0,1,18.47,9,1.23,1.23,0,0,0,1.21.45,1.21,1.21,0,0,0,.95-.86c3.45-12.59,15.25-21.39,28.69-21.39a30.32,30.32,0,0,1,11.92,2.43,1.24,1.24,0,0,0,1.14-.08,1.18,1.18,0,0,0,.57-1c1.27-28.9,25.67-51.53,55.56-51.53,25.24,0,47.35,16.48,53.77,40.08a1.2,1.2,0,0,0,.63.76,1.25,1.25,0,0,0,1,0,36.76,36.76,0,0,1,13.16-2.45c19.73,0,35.77,15.54,35.77,34.63S544.86,419,525.13,419H338.06a23.31,23.31,0,0,1-20.88-12.78,1.24,1.24,0,0,0-1.63-.56,1.16,1.16,0,0,0-.57,1.57A25.74,25.74,0,0,0,338.06,421.32Z" transform="translate(6.65 -1.82)"/><path class="cls-2" d="M461.47,61.12a17.24,17.24,0,0,0-4-.46,17,17,0,0,0-16.38,12.6,10.9,10.9,0,0,0-4.05-.78,11,11,0,1,0,0,22h9" transform="translate(6.65 -1.82)"/><path class="cls-2" d="M471.89,68.65a17,17,0,0,0-6.78-6.2" transform="translate(6.65 -1.82)"/><path class="cls-2" d="M483.84,78.08a9.15,9.15,0,0,0-5.72-2,9.28,9.28,0,0,0-3.7.77,16.92,16.92,0,0,0-1.07-5.24" transform="translate(6.65 -1.82)"/><path class="cls-2" d="M457.44,94.52h20.68a9.22,9.22,0,0,0,9.22-9.22" transform="translate(6.65 -1.82)"/><line class="cls-2" x1="455.87" y1="92.7" x2="460.99" y2="92.7"/></g><g id="ppc"><rect class="cls-3" x="119.11" y="175.95" width="335.99" height="208.11" rx="1"/><path class="cls-4" d="M447.44,386.88h-334a2,2,0,0,1-2-2V178.77a2,2,0,0,1,2-2h334a2,2,0,0,1,2,2V384.88A2,2,0,0,1,447.44,386.88Zm0-2v0Zm-334-206.11V384.88h334V178.77Z" transform="translate(6.65 -1.82)"/><rect class="cls-5" x="135.42" y="194.95" width="301.53" height="162.58"/><path class="cls-1" d="M444.26,396.73H116.31a16.08,16.08,0,0,1-15.86-13.48L98.11,369H464.34l-2,12.39A18.29,18.29,0,0,1,444.26,396.73Z" transform="translate(6.65 -1.82)"/><path class="cls-4" d="M444.26,397.73H116.31a17,17,0,0,1-16.85-14.31L96.93,368H465.52l-2.23,13.55A19.21,19.21,0,0,1,444.26,397.73ZM99.29,370l2.14,13.08a15,15,0,0,0,14.88,12.64h328a17.23,17.23,0,0,0,17.06-14.49L463.16,370Z" transform="translate(6.65 -1.82)"/><rect class="cls-4" x="263.14" y="376.93" width="49.07" height="2"/><path class="cls-1" d="M399.1,359.67H159.92V84.6a9.1,9.1,0,0,1,9.1-9.1H388a11.1,11.1,0,0,1,11.1,11.1Z" transform="translate(6.65 -1.82)"/><path class="cls-6" d="M396.67,102.12H159.92V85.49a9.76,9.76,0,0,1,9.76-9.76H389.36a9.74,9.74,0,0,1,9.74,9.74V99.7A2.42,2.42,0,0,1,396.67,102.12Z" transform="translate(6.65 -1.82)"/><rect class="cls-7" x="180.56" y="116.1" width="110.48" height="103.99"/><path class="cls-1" d="M181.3,89a3.07,3.07,0,1,1-3.07-3A3.08,3.08,0,0,1,181.3,89Z" transform="translate(6.65 -1.82)"/><path class="cls-1" d="M193.27,89a3.07,3.07,0,1,1-3.07-3A3.07,3.07,0,0,1,193.27,89Z" transform="translate(6.65 -1.82)"/><path class="cls-1" d="M205.25,89a3.07,3.07,0,1,1-3.08-3A3.08,3.08,0,0,1,205.25,89Z" transform="translate(6.65 -1.82)"/><rect class="cls-8" x="295.37" y="142.05" width="93.78" height="5.18"/><rect class="cls-8" x="295.37" y="157.34" width="93.78" height="5.18"/><rect class="cls-8" x="295.37" y="172.62" width="93.78" height="5.18"/><rect class="cls-8" x="295.37" y="187.9" width="93.78" height="5.18"/><rect class="cls-8" x="295.37" y="203.18" width="64.8" height="5.18"/><rect class="cls-8" x="295.37" y="116.08" width="93.78" height="12.98"/><rect class="cls-8" x="181.02" y="244.66" width="208.13" height="5.18"/><rect class="cls-8" x="200.65" y="262.34" width="168.36" height="5.18"/><rect class="cls-8" x="200.65" y="280.03" width="168.36" height="5.18"/><rect class="cls-8" x="200.65" y="297.71" width="168.36" height="5.18"/><rect class="cls-8" x="200.65" y="315.4" width="168.36" height="5.18"/><rect class="cls-8" x="200.65" y="333.08" width="84.18" height="5.18"/><path class="cls-4" d="M400.1,359.67h-2V85.42a8.93,8.93,0,0,0-8.92-8.92H169.84a8.93,8.93,0,0,0-8.92,8.92V359.67h-2V85.42A10.93,10.93,0,0,1,169.84,74.5H389.18A10.93,10.93,0,0,1,400.1,85.42Z" transform="translate(6.65 -1.82)"/><rect class="cls-4" x="169.54" y="99.3" width="236.21" height="2"/><path class="cls-9" d="M258.7,174.44a27.6,27.6,0,1,1-27.59-27.59A27.6,27.6,0,0,1,258.7,174.44Z" transform="translate(6.65 -1.82)"/><path class="cls-4" d="M229.84,187v-2.23a13.9,13.9,0,0,1-7.14-3.51l2.84-3.45a12.36,12.36,0,0,0,4.3,2.66v-4.55a10.84,10.84,0,0,1-4.7-2.21,5.22,5.22,0,0,1-1.49-4,5.82,5.82,0,0,1,1.7-4.3,7.41,7.41,0,0,1,4.49-2v-1.49h3.24v1.55a14.18,14.18,0,0,1,6.07,2.53l-2.51,3.6a12,12,0,0,0-3.56-1.83v4.4a11.47,11.47,0,0,1,4.86,2.29,5.2,5.2,0,0,1,1.57,4.06,5.78,5.78,0,0,1-1.75,4.33,7.72,7.72,0,0,1-4.68,2V187Zm0-19.38a1.71,1.71,0,0,0-1.31,1.68,2,2,0,0,0,1.31,1.86Zm4.79,11.11a1.71,1.71,0,0,0-.33-1.07,3.13,3.13,0,0,0-1.22-.79v3.75A1.89,1.89,0,0,0,234.63,178.73Z" transform="translate(6.65 -1.82)"/><rect class="cls-4" x="230.25" y="121.02" width="2" height="14.6" transform="translate(1.68 7.58) rotate(-2.3)"/><rect class="cls-4" x="242.57" y="126.91" width="29.18" height="2" transform="translate(24.19 284.44) rotate(-59.9)"/><rect class="cls-4" x="262.25" y="149.34" width="14.59" height="2" transform="translate(-32.41 152.18) rotate(-29.83)"/><rect class="cls-4" x="281.64" y="157.77" width="2" height="29.18" transform="matrix(0, -1, 1, 0, 115.69, 452.41)"/><rect class="cls-4" x="230.37" y="208.63" width="2" height="14.59" transform="translate(2.08 3.18) rotate(-1.23)"/><rect class="cls-4" x="190.94" y="215.11" width="29.18" height="2" transform="translate(-78.44 281.27) rotate(-59.42)"/><rect class="cls-4" x="186.7" y="192.58" width="13.99" height="2" transform="translate(-65.04 124.24) rotate(-30.71)"/><rect class="cls-4" x="179.45" y="156.85" width="2" height="29.18" transform="translate(13.26 347.75) rotate(-89.23)"/><rect class="cls-4" x="192.94" y="142.96" width="2" height="14.2" transform="translate(-23.16 248.56) rotate(-61.88)"/><rect class="cls-4" x="205.72" y="112.87" width="2" height="29.18" transform="translate(-29.23 114.64) rotate(-29.06)"/><polygon class="cls-10" points="273.06 202.01 296.25 229.66 286.6 237.75 263.42 210.1 256.81 228.38 238.19 170.21 292.21 198.69 273.06 202.01"/><polygon class="cls-4" points="275.71 198.83 301.23 224.35 292.33 233.26 266.81 207.74 261.83 226.52 238.19 170.21 294.5 193.85 275.71 198.83"/><circle class="cls-10" cx="354.43" cy="232.88" r="32.21"/><circle class="cls-9" cx="349.35" cy="230.84" r="27.99" transform="translate(-55.29 150.44) rotate(-22.64)"/><path class="cls-4" d="M349.35,259.83a29,29,0,1,1,29-29A29,29,0,0,1,349.35,259.83Zm0-56a27,27,0,1,0,27,27A27,27,0,0,0,349.35,203.85Z" transform="translate(6.65 -1.82)"/><path class="cls-4" d="M348.06,243.58v-2.26a14.09,14.09,0,0,1-7.24-3.56l2.88-3.5a12.37,12.37,0,0,0,4.36,2.69v-4.61a10.94,10.94,0,0,1-4.76-2.24,5.27,5.27,0,0,1-1.52-4.06,5.91,5.91,0,0,1,1.73-4.36,7.61,7.61,0,0,1,4.55-2.06v-1.51h3.29v1.58a14.12,14.12,0,0,1,6.15,2.56L355,225.91a11.89,11.89,0,0,0-3.62-1.86v4.46a11.56,11.56,0,0,1,4.93,2.32,5.3,5.3,0,0,1,1.6,4.11,5.91,5.91,0,0,1-1.78,4.4,7.92,7.92,0,0,1-4.75,2.07v2.17Zm0-19.65a1.71,1.71,0,0,0-1.33,1.7,2.07,2.07,0,0,0,1.33,1.89Zm4.86,11.26a1.68,1.68,0,0,0-.34-1.08,3,3,0,0,0-1.23-.81v3.81A1.92,1.92,0,0,0,352.92,235.19Z" transform="translate(6.65 -1.82)"/><circle class="cls-10" cx="420.35" cy="153.97" r="39.05" transform="translate(36.71 371.39) rotate(-49.44)"/><path class="cls-9" d="M453.76,167.77a33.93,33.93,0,1,1-12.51-46.33A33.94,33.94,0,0,1,453.76,167.77Z" transform="translate(6.65 -1.82)"/><path class="cls-4" d="M424.28,185.78a34.93,34.93,0,1,1,30.35-17.52h0A35,35,0,0,1,424.28,185.78Zm.11-67.85a32.93,32.93,0,1,0,28.5,49.34h0a32.92,32.92,0,0,0-28.5-49.34Z" transform="translate(6.65 -1.82)"/><path class="cls-4" d="M415.3,163.47l1.36-2.38A17.05,17.05,0,0,1,411.2,153l5.14-1.94a15.13,15.13,0,0,0,3,5.47l2.78-4.85a13.33,13.33,0,0,1-3.65-5.24,6.39,6.39,0,0,1,.85-5.18,7.17,7.17,0,0,1,4.46-3.54,9.15,9.15,0,0,1,6,.59l.91-1.59,3.45,2-.95,1.66a17.33,17.33,0,0,1,4.92,6.42l-4.88,2.3a14.18,14.18,0,0,0-2.68-4.14l-2.69,4.69a14.1,14.1,0,0,1,3.78,5.42,6.35,6.35,0,0,1-.81,5.29,7.1,7.1,0,0,1-4.52,3.54,9.51,9.51,0,0,1-6.25-.69l-1.31,2.28Zm11.87-20.66a2.09,2.09,0,0,0-2.43,1,2.46,2.46,0,0,0,.26,2.78Zm-1.7,14.78a2.12,2.12,0,0,0,.3-1.35,3.76,3.76,0,0,0-.82-1.59l-2.3,4A2.34,2.34,0,0,0,425.47,157.59Z" transform="translate(6.65 -1.82)"/><path class="cls-10" d="M346.92,141.34a20.83,20.83,0,1,1-29-5.13A20.84,20.84,0,0,1,346.92,141.34Z" transform="translate(6.65 -1.82)"/><path class="cls-9" d="M344.08,140.27a18.1,18.1,0,1,1-25.2-4.45A18.1,18.1,0,0,1,344.08,140.27Z" transform="translate(6.65 -1.82)"/><path class="cls-4" d="M329.28,169.74a19.1,19.1,0,1,1,15.62-30h0a19.09,19.09,0,0,1-15.62,30Zm-.07-36.2a17.1,17.1,0,0,0-14,26.91,17.1,17.1,0,1,0,28-19.61h0a16.93,16.93,0,0,0-11-7A17.21,17.21,0,0,0,329.21,133.54Z" transform="translate(6.65 -1.82)"/><path class="cls-4" d="M333.29,157.87l-.84-1.2a9,9,0,0,1-5.15.8l.23-2.92a8,8,0,0,0,3.31-.19l-1.71-2.44a7.17,7.17,0,0,1-3.36.58,3.44,3.44,0,0,1-2.31-1.59,3.84,3.84,0,0,1-.7-2.95,4.89,4.89,0,0,1,1.65-2.78l-.56-.8,1.74-1.22.58.84a9.21,9.21,0,0,1,4.22-.93V146a7.65,7.65,0,0,0-2.61.36l1.65,2.36a7.56,7.56,0,0,1,3.48-.6,3.43,3.43,0,0,1,2.37,1.59,3.8,3.8,0,0,1,.69,3,5.2,5.2,0,0,1-1.75,2.86l.8,1.15ZM326,147.46a1.11,1.11,0,0,0-.08,1.39,1.33,1.33,0,0,0,1.41.51Zm6.75,4.17a1.11,1.11,0,0,0-.59-.45,1.94,1.94,0,0,0-.95,0l1.41,2A1.24,1.24,0,0,0,332.76,151.63Z" transform="translate(6.65 -1.82)"/><rect class="cls-4" x="139.23" y="119.72" width="7.99" height="2"/><rect class="cls-4" x="125.47" y="119.72" width="7.99" height="2"/><rect class="cls-4" x="50" y="119.72" width="69.7" height="2"/><rect class="cls-4" x="512.01" y="236.75" width="7.99" height="2"/><rect class="cls-4" x="498.24" y="236.75" width="7.99" height="2"/><rect class="cls-4" x="422.77" y="236.75" width="69.7" height="2"/><rect class="cls-4" x="136.63" y="428.74" width="79.41" height="2"/><rect class="cls-4" x="120.42" y="91.6" width="18.09" height="2"/><rect class="cls-4" x="128.47" y="83.55" width="2" height="18.09"/><rect class="cls-4" x="81.53" y="179.65" width="12.83" height="2"/><rect class="cls-4" x="86.94" y="174.24" width="2" height="12.83"/><rect class="cls-4" x="504.55" y="273.55" width="14.92" height="2"/><rect class="cls-4" x="511.01" y="267.09" width="2" height="14.92"/><rect class="cls-4" x="480" y="185.87" width="19.08" height="2"/><rect class="cls-4" x="488.54" y="177.33" width="2" height="19.08"/><rect class="cls-4" x="226.97" y="458.71" width="14.92" height="2"/><rect class="cls-4" x="233.43" y="452.25" width="2" height="14.92"/><path class="cls-9" d="M75.54,269.44a12.81,12.81,0,1,1-7-16.72A12.82,12.82,0,0,1,75.54,269.44Z" transform="translate(6.65 -1.82)"/><path class="cls-4" d="M50.94,260.07a13.52,13.52,0,1,1,16.35,17.52h0a13.51,13.51,0,0,1-16.35-17.52Zm24.17,8.51A12.1,12.1,0,0,0,60.46,252.9a12.1,12.1,0,0,0,6.46,23.33h0a12,12,0,0,0,7.3-5.7A12.2,12.2,0,0,0,75.11,268.58Z" transform="translate(6.65 -1.82)"/><path class="cls-4" d="M60.93,269.73l.39-1A6.37,6.37,0,0,1,58.88,266l1.82-1a5.72,5.72,0,0,0,1.38,1.9l.8-1.95a5,5,0,0,1-1.62-1.78,2.37,2.37,0,0,1,.06-2,2.74,2.74,0,0,1,1.49-1.55,3.49,3.49,0,0,1,2.29-.08l.26-.64,1.39.57-.27.67a6.54,6.54,0,0,1,2.16,2.16l-1.71,1.1A5.64,5.64,0,0,0,65.72,262l-.78,1.89a5.41,5.41,0,0,1,1.69,1.84,2.42,2.42,0,0,1,0,2,2.65,2.65,0,0,1-1.51,1.55,3.63,3.63,0,0,1-2.38.05l-.37.92Zm3.42-8.32a.79.79,0,0,0-.86.49.94.94,0,0,0,.23,1Zm.1,5.62a.79.79,0,0,0,0-.52,1.36,1.36,0,0,0-.38-.55l-.67,1.61A.9.9,0,0,0,64.45,267Z" transform="translate(6.65 -1.82)"/></g></svg>