<svg id="Layer_1" data-name="Layer 1" xmlns="http://www.w3.org/2000/svg" viewBox="0 0 80 80"><defs><style>.cls-1{fill:#fc3e59;}.cls-2{fill:#e8e9e1;}.cls-3{fill:#6c6ff2;}.cls-4{fill:#f1f2ec;}.cls-5{fill:#95d133;}.cls-6{fill:#1b2c38;}</style></defs><title>Content-Marketing</title><path class="cls-1" d="M233.87,294.85H276a3.75,3.75,0,0,0,3.75-3.75V231.73A3.75,3.75,0,0,0,276,228H234.5a3.75,3.75,0,0,0-3.75,3.75v60A3.12,3.12,0,0,0,233.87,294.85Z" transform="translate(-214.5 -226.41)"/><path class="cls-2" d="M266.05,238H219.81a3.75,3.75,0,0,0-3.75,3.75V301.1a3.75,3.75,0,0,0,3.75,3.75h46.24a3.75,3.75,0,0,0,3.75-3.75V241.73A3.75,3.75,0,0,0,266.05,238Z" transform="translate(-214.5 -226.41)"/><path class="cls-3" d="M279.48,276.81,291.67,289a4.34,4.34,0,1,1-6.14,6.14L273.34,283Z" transform="translate(-214.5 -226.41)"/><path class="cls-4" d="M281.78,267.7a17.54,17.54,0,1,1-17.54-17.54A17.54,17.54,0,0,1,281.78,267.7Z" transform="translate(-214.5 -226.41)"/><path class="cls-5" d="M269.15,260.16l-6.58,6.59-3.24-3.24-4.25,4.24,3.24,3.24,4.25,4.25,10.83-10.83Z" transform="translate(-214.5 -226.41)"/><path class="cls-6" d="M292.78,287.89l-11.52-11.52a19.2,19.2,0,0,0,.1-17.15V231.73a5.33,5.33,0,0,0-5.32-5.32H234.5a5.33,5.33,0,0,0-5.32,5.32v4.68h-9.37a5.32,5.32,0,0,0-5.31,5.32V301.1a5.31,5.31,0,0,0,5.31,5.31h46.24a5.31,5.31,0,0,0,5.31-5.31v-4.69H276a5.32,5.32,0,0,0,5-3.54l3.37,3.38a5.91,5.91,0,1,0,8.36-8.36Zm-60.47-56.16a2.19,2.19,0,0,1,2.19-2.19H276a2.19,2.19,0,0,1,2.19,2.19v23l-.49-.51a19,19,0,0,0-6.38-4.21v-8.25a5.32,5.32,0,0,0-5.31-5.32H232.31Zm-.08,4.68h0S232.22,236.4,232.23,236.41Zm-2.95,0h0S229.28,236.39,229.28,236.41Zm39,64.69a2.19,2.19,0,0,1-2.18,2.19H219.81a2.19,2.19,0,0,1-2.18-2.19V241.73a2.19,2.19,0,0,1,2.18-2.19h46.24a2.19,2.19,0,0,1,2.18,2.19V249a19.09,19.09,0,0,0-17.49,5.16,18.84,18.84,0,0,0-3.28,4.39h-23a1.57,1.57,0,0,0,0,3.13h21.61a19.23,19.23,0,0,0-.84,8.14H224.5a1.57,1.57,0,0,0,0,3.13h21.39a19.09,19.09,0,0,0,18.35,13.82,19.11,19.11,0,0,0,4-.42ZM252.94,279a16,16,0,1,1,22.6,0A16,16,0,0,1,252.94,279Zm25.29,12.1a2.19,2.19,0,0,1-2.19,2.19h-4.68v-7.86c.52-.21,1-.44,1.55-.7l5.32,5.32ZM290.57,294a2.8,2.8,0,0,1-3.94,0l-11-11a17.2,17.2,0,0,0,2.11-1.82,19.07,19.07,0,0,0,1.83-2.11l11,11A2.8,2.8,0,0,1,290.57,294Z" transform="translate(-214.5 -226.41)"/><path class="cls-6" d="M270.25,259.06a1.55,1.55,0,0,0-2.2,0l-5.48,5.48-2.14-2.14a1.55,1.55,0,0,0-2.2,0L254,266.65a1.57,1.57,0,0,0-.46,1.1,1.59,1.59,0,0,0,.46,1.11l7.49,7.49a1.57,1.57,0,0,0,2.2,0l10.83-10.83a1.59,1.59,0,0,0,.46-1.11,1.57,1.57,0,0,0-.46-1.1Zm-7.68,14-5.28-5.28,2-2,2.14,2.13a1.55,1.55,0,0,0,2.2,0l5.48-5.48,2,2Z" transform="translate(-214.5 -226.41)"/><path class="cls-6" d="M224.5,284.21h21.85a1.57,1.57,0,1,0,0-3.13H224.5a1.57,1.57,0,0,0,0,3.13Z" transform="translate(-214.5 -226.41)"/><path class="cls-6" d="M254.51,292.35a1.57,1.57,0,0,0-1.1.46,1.56,1.56,0,0,0,0,2.21,1.56,1.56,0,1,0,1.1-2.67Z" transform="translate(-214.5 -226.41)"/><path class="cls-6" d="M248.23,292.35H224.5a1.57,1.57,0,0,0,0,3.13h23.73a1.57,1.57,0,0,0,0-3.13Z" transform="translate(-214.5 -226.41)"/><path class="cls-6" d="M224.5,250.48h23.69a1.57,1.57,0,0,0,0-3.13H224.5a1.57,1.57,0,0,0,0,3.13Z" transform="translate(-214.5 -226.41)"/></svg>