<svg id="Capa_1" data-name="Capa 1" xmlns="http://www.w3.org/2000/svg" viewBox="0 0 70 70"><defs><style>.cls-1{fill:#ffcb05;}.cls-2{fill:#e8e9e1;}.cls-3{fill:#f1f2ec;}.cls-4{fill:#fc3e59;}.cls-5{fill:#1b2c38;}</style></defs><title>mail</title><polygon class="cls-1" points="68.97 68.97 1.03 68.97 1.03 26.23 35 1.03 68.97 26.23 68.97 68.97"/><rect class="cls-2" x="5.41" y="28.42" width="59.18" height="26.3"/><rect class="cls-3" x="5.41" y="5.41" width="59.18" height="26.3"/><polygon class="cls-1" points="68.97 68.97 1.03 68.97 68.97 26.23 68.97 68.97"/><polygon class="cls-1" points="68.97 68.97 1.03 68.97 1.03 26.23 68.97 68.97"/><rect class="cls-4" x="48.15" y="13.08" width="8.77" height="10.96"/><path class="cls-5" d="M70,69.09A.49.49,0,0,0,70,69V26.23a1,1,0,0,0-.42-.82l-4-2.95v-17a1,1,0,0,0-1-1H41.22S35.61.2,35.61.2a1,1,0,0,0-1.22,0L28.75,4.38H5.41a1,1,0,0,0-1,1V22.46l-4,2.95a1,1,0,0,0-.42.82V69a1,1,0,0,0,1,1H69A1,1,0,0,0,70,69.09ZM36.93,47.6,68,28.09v39ZM67.15,26.16l-1.53,1V25ZM35,2.31l2.8,2.07H32.2ZM63.56,6.44v22L60,30.68H50a1,1,0,0,0,0,2.06h6.7L35,46.39,13.3,32.74H45.07a1,1,0,0,0,0-2.06H10L6.44,28.42v-22ZM4.38,27.13l-1.53-1L4.38,25ZM2.05,67.94V28.09L65.41,67.94Z" transform="translate(0 0)"/><path class="cls-5" d="M48.15,25.07h8.77a1,1,0,0,0,1-1v-11a1,1,0,0,0-1-1H48.15a1,1,0,0,0-1,1V24A1,1,0,0,0,48.15,25.07Zm1-11h6.71V23H49.18Z" transform="translate(0 0)"/><path class="cls-5" d="M13.08,14.11H43.77a1,1,0,0,0,0-2.06H13.08a1,1,0,0,0,0,2.06Z" transform="translate(0 0)"/><path class="cls-5" d="M13.08,19.59H29.59a1,1,0,1,0,0-2.06H13.08a1,1,0,1,0,0,2.06Z" transform="translate(0 0)"/><path class="cls-5" d="M43.77,17.53H33.9a1,1,0,0,0,0,2.06h9.87a1,1,0,0,0,0-2.06Z" transform="translate(0 0)"/><path class="cls-5" d="M13.08,25.07h22a1,1,0,1,0,0-2.06h-22a1,1,0,1,0,0,2.06Z" transform="translate(0 0)"/><path class="cls-5" d="M43.77,23H39.38a1,1,0,0,0,0,2.06h4.39a1,1,0,0,0,0-2.06Z" transform="translate(0 0)"/><path class="cls-5" d="M40.48,35.07a1,1,0,1,0,0,2H46a1,1,0,1,0,0-2Z" transform="translate(0 0)"/><path class="cls-5" d="M37.12,36.09a1,1,0,0,0-1-1H24a1,1,0,1,0,0,2H36.1A1,1,0,0,0,37.12,36.09Z" transform="translate(0 0)"/><path class="cls-5" d="M32.88,40.55H29.52a1,1,0,1,0,0,2.05h3.36a1,1,0,0,0,0-2.05Z" transform="translate(0 0)"/><path class="cls-5" d="M39.38,40.55H37.19a1,1,0,1,0,0,2.05h2.19a1,1,0,1,0,0-2.05Z" transform="translate(0 0)"/></svg>