<svg xmlns="http://www.w3.org/2000/svg" viewBox="0 0 130 130"><defs><style>.cls-1{fill:#ffcb05;}.cls-2{fill:#f1f2ec;}.cls-3{fill:#95d133;}.cls-4{fill:#fc3e59;}.cls-5{fill:#1b2c38;}</style></defs><title>Link-Building</title><g id="Layer_2" data-name="Layer 2"><circle class="cls-1" cx="65" cy="65" r="65"/></g><g id="Layer_1" data-name="Layer 1"><path class="cls-2" d="M284.6,268.17a10,10,0,1,0,0,14.18A10,10,0,0,0,284.6,268.17Z" transform="translate(-200.12 -191.16)"/><path class="cls-3" d="M269.24,269.5a15.89,15.89,0,0,1-11.31-4.68l-1.46-1.47a4.07,4.07,0,0,1,5.75-5.75l1.46,1.47a7.86,7.86,0,0,0,11.11,0l9-9a7.85,7.85,0,0,0,0-11.1l-1.47-1.47a7.85,7.85,0,0,0-11.1,0,4.07,4.07,0,0,1-5.75-5.75,16,16,0,0,1,22.6,0l1.47,1.47a16,16,0,0,1,0,22.6l-9,9A15.87,15.87,0,0,1,269.24,269.5Z" transform="translate(-200.12 -191.16)"/><path class="cls-4" d="M253.44,285.28a16,16,0,0,1-11.3-4.67l-1.47-1.47a16,16,0,0,1,0-22.6l9-9a16,16,0,0,1,22.61,0l1.47,1.46a16,16,0,0,1,0,22.61l-9,9A16,16,0,0,1,253.44,285.28ZM261,251a7.8,7.8,0,0,0-5.56,2.3l-9,9a7.86,7.86,0,0,0,0,11.1l1.47,1.47a7.86,7.86,0,0,0,11.11,0l9-9a7.86,7.86,0,0,0,0-11.11l-1.47-1.46A7.77,7.77,0,0,0,261,251Z" transform="translate(-200.12 -191.16)"/><path class="cls-3" d="M259.34,264.55a4,4,0,0,1-2.87-1.2,16,16,0,0,1,0-22.6l9-9a4.07,4.07,0,0,1,5.75,5.75l-9,9a7.86,7.86,0,0,0,0,11.1,4.08,4.08,0,0,1-2.88,6.95Z" transform="translate(-200.12 -191.16)"/><path class="cls-5" d="M281.23,274.38H273.8a.88.88,0,1,0,0,1.76h7.43a.88.88,0,0,0,0-1.76Zm9-41.81-1.47-1.47a16.87,16.87,0,0,0-21.91-1.67.88.88,0,0,0-.18,1.23.89.89,0,0,0,1.23.19,15.11,15.11,0,0,1,19.62,1.49l1.47,1.47a15.12,15.12,0,0,1,0,21.36l-9,9a15.84,15.84,0,0,1-1.38,1.22,16.87,16.87,0,0,0,.31-9.17l5.59-5.59a8.72,8.72,0,0,0,0-12.34L283,236.85a8.72,8.72,0,0,0-12.34,0l-9,9a8.73,8.73,0,0,0,0,12.34h0l1.46,1.46a8.65,8.65,0,0,0,6.1,2.56,6.93,6.93,0,0,1-1.76,3l-2.72,2.72a15.1,15.1,0,0,1-6.12-3.73l-1.47-1.47a15,15,0,0,1-3.87-6.64h0a15.1,15.1,0,0,1,3.87-14.71l7.81-7.81a.88.88,0,0,0,0-1.24.89.89,0,0,0-1.25,0l-7.8,7.81A16.57,16.57,0,0,0,253,244a16.59,16.59,0,0,0-3.88,2.9l-9,9a16.88,16.88,0,0,0,0,23.84l1.47,1.47a.89.89,0,0,0,.62.26.88.88,0,0,0,.62-1.5l-1.47-1.47a15.14,15.14,0,0,1,0-21.36l9-9a13.57,13.57,0,0,1,1.39-1.23,16.92,16.92,0,0,0-.32,9.17l-5.6,5.6a8.74,8.74,0,0,0,0,12.34l1.47,1.47a8.73,8.73,0,0,0,12.35,0l5.95-6h0l3.08-3.08a8.75,8.75,0,0,0,0-12.35l-1.47-1.47a8.66,8.66,0,0,0-6.1-2.55,7,7,0,0,1,1.76-3l2.71-2.71a15,15,0,0,1,6.14,3.72l1.46,1.47a15.09,15.09,0,0,1,0,21.36l-9,9a15,15,0,0,1-10.68,4.41,15.21,15.21,0,0,1-7.52-2,.88.88,0,1,0-.87,1.52,16.9,16.9,0,0,0,20.32-2.7l2-2a10.91,10.91,0,0,0,21.06-4,10.91,10.91,0,0,0-6.93-10.15l8.7-8.7A16.86,16.86,0,0,0,290.19,232.57Zm-31.82,41.67a7,7,0,0,1-9.86,0l-1.46-1.47a7,7,0,0,1,0-9.86L252,258a16.84,16.84,0,0,0,3.87,6l1.46,1.46a16.93,16.93,0,0,0,6,3.87Zm7.57-20.36,1.46,1.47a6.9,6.9,0,0,1,2.05,4.93c0,.07,0,.14,0,.21h-.2a6.89,6.89,0,0,1-4.93-2L262.85,257h0a6.89,6.89,0,0,1-2-4.93,1.48,1.48,0,0,1,0-.21h.2A6.92,6.92,0,0,1,265.94,253.88Zm8.46-5.53-1.47-1.46a16.68,16.68,0,0,0-6-3.86l4.94-4.94a7,7,0,0,1,9.86,0l1.47,1.47a7,7,0,0,1,0,9.86l-4.93,4.93A16.87,16.87,0,0,0,274.4,248.35Zm10.25,21.19a9,9,0,0,1,2,5.72,9.15,9.15,0,0,1-17.92,2.59l4.74-4.74a.87.87,0,0,0,.32.06h7.43a.88.88,0,1,0,0-1.75h-6.1a17.45,17.45,0,0,0,2.16-3.08,17.54,17.54,0,0,0,2.75-1.87A9.16,9.16,0,0,1,284.65,269.54Zm-3.42,7.8H273.8a.88.88,0,0,0,0,1.76h7.43a.88.88,0,1,0,0-1.76Z" transform="translate(-200.12 -191.16)"/></g></svg>