<svg id="Layer_1" data-name="Layer 1" xmlns="http://www.w3.org/2000/svg" viewBox="0 0 70 70"><defs><style>.cls-1{fill:#fed2a4;}.cls-2{fill:#95d133;}.cls-3{fill:#fff5f5;}.cls-4{fill:#1b2c38;}.cls-5{fill:#ffcb05;}</style></defs><title>Awesome-Team</title><path class="cls-1" d="M68.58,36.36a4.25,4.25,0,0,0-4.26-4.24H52.66a2.13,2.13,0,0,1-2-2.84,22.2,22.2,0,0,0,1.25-8.52,6.17,6.17,0,0,0-12.13-1.19,22.88,22.88,0,0,1-2,5.15,14,14,0,0,1-12.39,7.4H17.9v29.5A15.92,15.92,0,0,0,31,68.45H59.36a4.64,4.64,0,1,0,0-9.28h4.57a4.64,4.64,0,1,0,0-9.28,4.64,4.64,0,1,0,0-9.28h.39A4.25,4.25,0,0,0,68.58,36.36Z" transform="translate(0.02 0.08)"/><path class="cls-2" d="M15.09,68.52H4.19a2.79,2.79,0,0,1-2.8-2.79V32a2.79,2.79,0,0,1,2.8-2.79h10.9A2.8,2.8,0,0,1,17.9,32V65.73A2.8,2.8,0,0,1,15.09,68.52Z" transform="translate(0.02 0.08)"/><path class="cls-3" d="M13.8,56.77a4.16,4.16,0,1,1-4.16-4.15A4.15,4.15,0,0,1,13.8,56.77Z" transform="translate(0.02 0.08)"/><path class="cls-4" d="M9.64,51.23a5.54,5.54,0,1,0,5.56,5.54A5.56,5.56,0,0,0,9.64,51.23Zm0,8.29a2.75,2.75,0,1,1,2.76-2.75A2.76,2.76,0,0,1,9.64,59.52Z" transform="translate(0.02 0.08)"/><path class="cls-5" d="M33.94,12a11,11,0,1,1-11-11A11,11,0,0,1,33.94,12Z" transform="translate(0.02 0.08)"/><path class="cls-4" d="M70,36.36a5.66,5.66,0,0,0-5.66-5.64H52.66a.73.73,0,0,1-.69-1,23.5,23.5,0,0,0,1.33-9.06,7.57,7.57,0,0,0-14.89-1.46,21.93,21.93,0,0,1-1.87,4.83,12.58,12.58,0,0,1-11.16,6.66H19.11a4.22,4.22,0,0,0-4-2.94H4.19A4.21,4.21,0,0,0,0,32V65.73a4.21,4.21,0,0,0,4.21,4.19h10.9a4.21,4.21,0,0,0,4.21-4.19v-.41A17.33,17.33,0,0,0,31,69.84h2.84a1.4,1.4,0,1,0,0-2.79H31A14.53,14.53,0,0,1,19.3,61.17V33.51h6.08A15.37,15.37,0,0,0,39,25.37a24.71,24.71,0,0,0,2.12-5.45,4.76,4.76,0,0,1,9.37.91,20.69,20.69,0,0,1-1.17,8,3.52,3.52,0,0,0,3.33,4.7H64.32a2.85,2.85,0,1,1,0,5.7H48.64a1.4,1.4,0,0,0,0,2.8H63.93a3.24,3.24,0,1,1,0,6.48H48.64a1.4,1.4,0,1,0,0,2.79H63.93a3.25,3.25,0,1,1,0,6.49H48.64a1.4,1.4,0,1,0,0,2.79H59.36a3.25,3.25,0,1,1,0,6.49h-19a1.4,1.4,0,1,0,0,2.79h19a6,6,0,0,0,5.09-9.3A6,6,0,0,0,67.8,49.89,6,6,0,0,0,70,45.25a6,6,0,0,0-2.06-4.53A5.64,5.64,0,0,0,70,36.36ZM16.5,32.12V65.73a1.41,1.41,0,0,1-1.41,1.4H4.19a1.4,1.4,0,0,1-1.4-1.4V32a1.4,1.4,0,0,1,1.4-1.4h10.9A1.41,1.41,0,0,1,16.5,32Z" transform="translate(0.02 0.08)"/><path class="cls-4" d="M22.91,24.12A12.1,12.1,0,1,0,10.77,12,12.14,12.14,0,0,0,22.91,24.12Zm0-22A9.87,9.87,0,1,1,13,12,9.9,9.9,0,0,1,22.91,2.15Z" transform="translate(0.02 0.08)"/><path class="cls-4" d="M19.15,16.23a4.31,4.31,0,0,0,7.53,0,1.12,1.12,0,0,0-.44-1.52,1.13,1.13,0,0,0-1.53.44,2.06,2.06,0,0,1-1.8,1.06,2.09,2.09,0,0,1-1.8-1.06,1.12,1.12,0,0,0-2,1.08Z" transform="translate(0.02 0.08)"/><path class="cls-4" d="M18.86,12.48A1.12,1.12,0,0,0,20,11.36V9.52a1.12,1.12,0,0,0-2.24,0v1.84A1.12,1.12,0,0,0,18.86,12.48Z" transform="translate(0.02 0.08)"/><path class="cls-4" d="M27,12.48a1.12,1.12,0,0,0,1.12-1.12V9.52a1.12,1.12,0,0,0-2.24,0v1.84A1.12,1.12,0,0,0,27,12.48Z" transform="translate(0.02 0.08)"/></svg>