<svg id="Layer_1" data-name="Layer 1" xmlns="http://www.w3.org/2000/svg" viewBox="0 0 70 70"><defs><style>.cls-1{fill:#95d133;}.cls-2{fill:#f1f2ec;}.cls-3{fill:#949fac;}.cls-4{fill:#1b2c38;}</style></defs><title>ctr</title><path class="cls-1" d="M273.83,240A33.83,33.83,0,1,1,240,206.17,33.82,33.82,0,0,1,273.83,240Z" transform="translate(-205 -205)"/><path class="cls-2" d="M243.5,221.33v7h-5.83v1.17h-5.84V233h-4.66v13l1.16,4.52h21V221.33Z" transform="translate(-205 -205)"/><path class="cls-2" d="M249.33,235.33V250.5l4.67-5.83v-10.5h-4.67Z" transform="translate(-205 -205)"/><path class="cls-3" d="M226,250.5v8.17h26.83V250.5Z" transform="translate(-205 -205)"/><path class="cls-4" d="M240,205a35,35,0,1,0,35,35A35,35,0,0,0,240,205Zm0,67.67A32.67,32.67,0,1,1,272.67,240,32.67,32.67,0,0,1,240,272.67Z" transform="translate(-205 -205)"/><path class="cls-4" d="M254,233h-3.5V221.33a1.16,1.16,0,0,0-1.17-1.16H243.5a1.17,1.17,0,0,0-1.17,1.16v5.84h-4.66a1.16,1.16,0,0,0-1.17,1.16h-4.67a1.17,1.17,0,0,0-1.16,1.17v2.33h-3.5A1.17,1.17,0,0,0,226,233v13a.92.92,0,0,0,0,.29l.79,3.06H226a1.18,1.18,0,0,0-1.17,1.17v8.17a1.17,1.17,0,0,0,1.17,1.16h26.83a1.16,1.16,0,0,0,1.17-1.16V250.5a1.17,1.17,0,0,0-1.17-1.17h-1.07l3.15-3.93a1.16,1.16,0,0,0,.26-.73v-10.5A1.17,1.17,0,0,0,254,233Zm-25.67,12.83V234.17h2.34v2.33H233v-5.83h3.5v5.83h2.33v-7h3.5v7h2.34v-14h3.5v26.83H229.24Zm23.34,11.67h-24.5v-5.83h24.5Zm1.16-13.24-2.33,2.91V235.33h2.33Z" transform="translate(-205 -205)"/></svg>