<svg id="Capa_1" data-name="Capa 1" xmlns="http://www.w3.org/2000/svg" viewBox="0 0 70 80.77"><defs><style>.cls-1{fill:#1b2c38;}.cls-2{fill:#27c7cd;}.cls-3{fill:#ffcb05;}.cls-4{fill:#f1f2ec;}</style></defs><title>PPC-Remarketing</title><path class="cls-1" d="M206.35,253.46h5.38a1.35,1.35,0,1,0,0-2.69h-5.38a1.35,1.35,0,1,0,0,2.69Z" transform="translate(-205 -199.62)"/><path class="cls-1" d="M212.25,256.38l-5.06,1.84a1.35,1.35,0,0,0,.87,2.55l.05,0,5.06-1.84a1.35,1.35,0,0,0-.82-2.57l-.1,0Z" transform="translate(-205 -199.62)"/><path class="cls-1" d="M213.17,245.33l-5.06-1.84a1.35,1.35,0,0,0-1,2.51l.05,0,5.06,1.84a1.44,1.44,0,0,0,.46.08,1.35,1.35,0,0,0,.46-2.61Z" transform="translate(-205 -199.62)"/><path class="cls-1" d="M275,252.12a1.34,1.34,0,0,0-1.34-1.35h-5.39a1.35,1.35,0,0,0,0,2.69h5.39A1.34,1.34,0,0,0,275,252.12Z" transform="translate(-205 -199.62)"/><path class="cls-1" d="M267.3,247.94a1.07,1.07,0,0,0,.46-.08l5.06-1.84a1.35,1.35,0,0,0-.87-2.55l-.05,0-5.06,1.84a1.34,1.34,0,0,0-.8,1.73,1.33,1.33,0,0,0,1.26.88Z" transform="translate(-205 -199.62)"/><path class="cls-1" d="M266.84,258.91l5.06,1.84a1.35,1.35,0,1,0,1-2.51l-.05,0-5.06-1.84a1.35,1.35,0,1,0-1,2.49l.1,0Z" transform="translate(-205 -199.62)"/><path class="cls-2" d="M227.89,241.35h24.23a10.77,10.77,0,0,1,10.77,10.77h0a10.77,10.77,0,0,1-10.77,10.77H227.89a10.77,10.77,0,0,1-10.77-10.77h0A10.77,10.77,0,0,1,227.89,241.35Z" transform="translate(-205 -199.62)"/><circle class="cls-3" cx="16.15" cy="21.54" r="14.81"/><circle class="cls-3" cx="53.85" cy="16.15" r="14.81"/><path class="cls-4" d="M240,276.35l5.39-5.39,4,8.08,5.38-2.69-4-8.08h8.08L240,249.43v26.92Z" transform="translate(-205 -199.62)"/><path class="cls-1" d="M264.23,252.12A12.12,12.12,0,0,0,252.12,240H227.89a12.12,12.12,0,1,0,0,24.23h10.77v12.12a1.34,1.34,0,0,0,2.29.95l4.07-4.06,3.19,6.4a1.35,1.35,0,0,0,1.81.61h0l5.39-2.7a1.35,1.35,0,0,0,.6-1.8h0L253,269.62h5.9a1.35,1.35,0,0,0,.95-2.3l-3.75-3.75a12.11,12.11,0,0,0,8.18-11.45Zm-13.46,14.81a1.33,1.33,0,0,0-1.35,1.33,1.4,1.4,0,0,0,.14.61l3.44,6.88-3,1.48-3.42-6.87a1.3,1.3,0,0,0-1-.72.82.82,0,0,0-.22,0,1.34,1.34,0,0,0-.95.39l-3.09,3.09V252.68l14.25,14.25Zm3.08-5.56L241,248.47a1.35,1.35,0,0,0-1.9,0,1.38,1.38,0,0,0-.39,1v12.11H227.89a9.43,9.43,0,1,1,0-18.85h24.23a9.42,9.42,0,0,1,1.73,18.68Z" transform="translate(-205 -199.62)"/><path class="cls-1" d="M221.16,237.31A16.16,16.16,0,1,0,205,221.16,16.15,16.15,0,0,0,221.16,237.31Zm0-29.62a13.47,13.47,0,1,1-13.46,13.47A13.47,13.47,0,0,1,221.16,207.69Z" transform="translate(-205 -199.62)"/><path class="cls-1" d="M258.85,231.93a16.16,16.16,0,1,0-16.15-16.16A16.16,16.16,0,0,0,258.85,231.93Zm0-29.62a13.46,13.46,0,1,1-13.46,13.46A13.46,13.46,0,0,1,258.85,202.31Z" transform="translate(-205 -199.62)"/><path class="cls-1" d="M222.5,226.54h-2.69a1.35,1.35,0,0,1-1.35-1.35,1.35,1.35,0,0,0-2.69,0,4,4,0,0,0,4,4v1.35a1.35,1.35,0,1,0,2.69,0v-1.35a4,4,0,0,0,4-4v-1.34a4,4,0,0,0-4-4h-2.69a1.35,1.35,0,0,1-1.35-1.35v-1.34a1.35,1.35,0,0,1,1.35-1.35h2.69a1.34,1.34,0,0,1,1.35,1.35,1.35,1.35,0,0,0,2.69,0,4,4,0,0,0-4-4v-1.35a1.35,1.35,0,0,0-2.69,0v1.35a4,4,0,0,0-4,4v1.34a4,4,0,0,0,4,4h2.69a1.35,1.35,0,0,1,1.35,1.35v1.34A1.34,1.34,0,0,1,222.5,226.54Z" transform="translate(-205 -199.62)"/><path class="cls-1" d="M260.2,221.16h-2.7a1.35,1.35,0,0,1-1.34-1.35,1.35,1.35,0,0,0-2.7,0,4,4,0,0,0,4,4v1.34a1.35,1.35,0,1,0,2.7,0v-1.34a4,4,0,0,0,4-4v-1.35a4,4,0,0,0-4-4h-2.7a1.35,1.35,0,0,1-1.34-1.35v-1.35a1.34,1.34,0,0,1,1.34-1.34h2.7a1.34,1.34,0,0,1,1.34,1.34,1.35,1.35,0,1,0,2.69,0,4,4,0,0,0-4-4v-1.34a1.35,1.35,0,1,0-2.7,0v1.34a4,4,0,0,0-4,4v1.35a4,4,0,0,0,4,4h2.7a1.34,1.34,0,0,1,1.34,1.34v1.35A1.35,1.35,0,0,1,260.2,221.16Z" transform="translate(-205 -199.62)"/></svg>