<svg id="Icon_Set" data-name="Icon Set" xmlns="http://www.w3.org/2000/svg" viewBox="0 0 130 130"><defs><style>.cls-1{fill:#263238;}.cls-2{fill:#fc3e59;}.cls-3{fill:#ffcb05;}.cls-4{fill:#27c7cd;}</style></defs><title>Strategy</title><path class="cls-1" d="M32,78.76A10.26,10.26,0,1,1,42.26,68.5,10.27,10.27,0,0,1,32,78.76Zm0-18.24a8,8,0,1,0,8,8A8,8,0,0,0,32,60.52Z" transform="translate(33 -3.5)"/><path class="cls-2" d="M56.19,44.31,29.48,59.77A9,9,0,0,1,40.73,71Z" transform="translate(33 -3.5)"/><path class="cls-1" d="M40.73,72.16a1.17,1.17,0,0,1-.45-.09,1.15,1.15,0,0,1-.65-1.37A7.71,7.71,0,0,0,40,68.5a8,8,0,0,0-8-8,7.88,7.88,0,0,0-2.21.35,1.14,1.14,0,0,1-1.36-.65,1.13,1.13,0,0,1,.48-1.43L55.62,43.32A1.12,1.12,0,0,1,57,43.5a1.14,1.14,0,0,1,.18,1.38L41.71,71.59A1.14,1.14,0,0,1,40.73,72.16ZM34.05,58.44a10.3,10.3,0,0,1,8,8l11-19Z" transform="translate(33 -3.5)"/><path class="cls-3" d="M32,77.62a9.12,9.12,0,0,1-9.12-9.12,8.86,8.86,0,0,1,.4-2.53L7.81,92.69,34.52,77.22A8.74,8.74,0,0,1,32,77.62Z" transform="translate(33 -3.5)"/><path class="cls-1" d="M7.81,93.83A1.2,1.2,0,0,1,7,93.5a1.15,1.15,0,0,1-.18-1.38L22.29,65.4a1.14,1.14,0,0,1,2.08.89A7.88,7.88,0,0,0,24,68.5a7.87,7.87,0,0,0,10.19,7.63,1.14,1.14,0,0,1,.88,2.08L8.38,93.68A1.18,1.18,0,0,1,7.81,93.83ZM21.94,70.55l-11,19,19-11A10.28,10.28,0,0,1,21.94,70.55Z" transform="translate(33 -3.5)"/><path class="cls-1" d="M-31.86,69.64A1.14,1.14,0,0,1-33,68.5a65.08,65.08,0,0,1,65-65,1.14,1.14,0,1,1,0,2.28A62.8,62.8,0,0,0-30.72,68.5,1.14,1.14,0,0,1-31.86,69.64Z" transform="translate(33 -3.5)"/><path class="cls-1" d="M38.84,5.78H36.56a1.14,1.14,0,0,1,0-2.28h2.28a1.14,1.14,0,1,1,0,2.28Z" transform="translate(33 -3.5)"/><path class="cls-1" d="M32,133.5a1.14,1.14,0,0,1,0-2.28A62.8,62.8,0,0,0,94.72,68.5a1.14,1.14,0,0,1,2.28,0A65.08,65.08,0,0,1,32,133.5Z" transform="translate(33 -3.5)"/><path class="cls-1" d="M27.44,133.5H25.16a1.14,1.14,0,0,1,0-2.28h2.28a1.14,1.14,0,1,1,0,2.28Z" transform="translate(33 -3.5)"/><path class="cls-4" d="M32,13.76A54.74,54.74,0,1,0,86.74,68.5,54.74,54.74,0,0,0,32,13.76Zm0,98.07A43.33,43.33,0,1,1,75.33,68.5,43.33,43.33,0,0,1,32,111.83Z" transform="translate(33 -3.5)"/><path class="cls-1" d="M32,124.38A55.88,55.88,0,1,1,87.88,68.5,55.95,55.95,0,0,1,32,124.38ZM32,14.9A53.6,53.6,0,1,0,85.6,68.5,53.67,53.67,0,0,0,32,14.9ZM32,113A44.47,44.47,0,1,1,76.47,68.5,44.52,44.52,0,0,1,32,113Zm0-86.66A42.19,42.19,0,1,0,74.19,68.5,42.23,42.23,0,0,0,32,26.31Z" transform="translate(33 -3.5)"/><path class="cls-1" d="M79.89,10.34H70.77a1.14,1.14,0,0,1,0-2.28h9.12a1.14,1.14,0,1,1,0,2.28Z" transform="translate(33 -3.5)"/><path class="cls-1" d="M75.33,14.9a1.14,1.14,0,0,1-1.14-1.14V4.64a1.14,1.14,0,0,1,2.28,0v9.12A1.14,1.14,0,0,1,75.33,14.9Z" transform="translate(33 -3.5)"/><path class="cls-1" d="M95.86,25.17H86.74a1.15,1.15,0,0,1,0-2.29h9.12a1.15,1.15,0,0,1,0,2.29Z" transform="translate(33 -3.5)"/><path class="cls-1" d="M91.3,29.73a1.14,1.14,0,0,1-1.14-1.14V19.46a1.14,1.14,0,0,1,2.28,0v9.13A1.14,1.14,0,0,1,91.3,29.73Z" transform="translate(33 -3.5)"/></svg>