<svg id="Layer_1" data-name="Layer 1" xmlns="http://www.w3.org/2000/svg" viewBox="0 0 70 55.2"><defs><style>.cls-1{fill:#27c7cd;}.cls-2,.cls-6{fill:#1b2c38;}.cls-2{opacity:0.18;}.cls-3{fill:#95d133;}.cls-4{fill:#fc3e59;}.cls-5{fill:#f1f2ec;}</style></defs><title>Local-Search-Strategy</title><path class="cls-1" d="M290,108.17H222a34,34,0,1,1,67.94,0Z" transform="translate(-221 -54)"/><path class="cls-2" d="M264.47,91.39c0-1.32-3.79-2.4-8.47-2.4s-8.47,1.08-8.47,2.4,3.79,2.4,8.47,2.4S264.47,92.72,264.47,91.39Z" transform="translate(-221 -54)"/><path class="cls-3" d="M258.87,99.73a3.58,3.58,0,0,1-3.58,3.58H222.37A33.75,33.75,0,0,1,228,89h12.44A3.58,3.58,0,0,1,244,92.57a3.58,3.58,0,0,0,3.58,3.58h7.74a3.58,3.58,0,0,1,3.58,3.58Z" transform="translate(-221 -54)"/><path class="cls-3" d="M290,108.17H276.29a4.16,4.16,0,0,1,0-8.32H289A34,34,0,0,1,290,108.17Z" transform="translate(-221 -54)"/><path class="cls-3" d="M283.7,88.49H258.49a3.72,3.72,0,1,1,0-7.43h18A34.2,34.2,0,0,1,283.7,88.49Z" transform="translate(-221 -54)"/><path class="cls-4" d="M270,69c0,6.44-9.74,17.59-12.94,21.08a1.37,1.37,0,0,1-2,0c-3.2-3.49-12.94-14.64-12.94-21.08A14,14,0,0,1,270,69Z" transform="translate(-221 -54)"/><path class="cls-5" d="M263.59,68.68A7.59,7.59,0,1,1,256,61.09,7.58,7.58,0,0,1,263.59,68.68Z" transform="translate(-221 -54)"/><path class="cls-6" d="M284.55,87.92a35,35,0,0,0-15.61-12.28A15.54,15.54,0,0,0,271,69,15,15,0,0,0,241,69a15.35,15.35,0,0,0,2,6.68,33.9,33.9,0,0,0-5.29,2.64,1,1,0,0,0-.34,1.41,1,1,0,0,0,.88.49,1,1,0,0,0,.53-.15,32.36,32.36,0,0,1,5.21-2.58,64,64,0,0,0,4.39,6.4,1,1,0,1,0,1.62-1.25c-4.56-6-7-10.66-7-13.64a12.92,12.92,0,0,1,25.84,0c0,2.51-1.76,6.33-5.08,11.06a98.56,98.56,0,0,1-7.59,9.33.34.34,0,0,1-.5,0c-.62-.68-1.6-1.77-2.73-3.1a1,1,0,0,0-1.57,1.32c1.15,1.36,2.15,2.47,2.79,3.17a2.4,2.4,0,0,0,3.52,0c.34-.37.71-.78,1.11-1.24h24.29a32.82,32.82,0,0,1,4.45,9.31h-2.87a1,1,0,0,0,0,2.05h3.4a32.9,32.9,0,0,1,.79,6.28H276.29a3.14,3.14,0,0,1,0-6.27h3a1,1,0,1,0,0-2.05h-3a5.2,5.2,0,0,0-4.13,8.33H223.07c0-1,.1-1.88.2-2.81h32a4.61,4.61,0,1,0,0-9.21h-7.74A2.56,2.56,0,0,1,245,92.57a4.6,4.6,0,0,0-4.6-4.6H230a32.72,32.72,0,0,1,5.09-5.24,1,1,0,0,0-1.3-1.58,34.9,34.9,0,0,0-12.76,27,1,1,0,0,0,1,1H290a1,1,0,0,0,1-1A34.77,34.77,0,0,0,284.55,87.92ZM273.16,80h-6.83c.57-.85,1.11-1.72,1.62-2.58A33.66,33.66,0,0,1,273.16,80Zm-8.26,2h11.24a33.65,33.65,0,0,1,5.49,5.38h-21C262,85.88,263.48,84,264.9,82.08ZM240.39,90a2.55,2.55,0,0,1,2.55,2.55,4.62,4.62,0,0,0,4.61,4.61h7.74a2.56,2.56,0,0,1,2.56,2.55,2.56,2.56,0,0,1-2.56,2.56H223.58A32.68,32.68,0,0,1,228.5,90Z" transform="translate(-221 -54)"/><path class="cls-6" d="M264.61,68.68A8.61,8.61,0,1,0,256,77.29,8.63,8.63,0,0,0,264.61,68.68Zm-15.17,0A6.56,6.56,0,1,1,256,75.24,6.57,6.57,0,0,1,249.44,68.68Z" transform="translate(-221 -54)"/><path class="cls-6" d="M276.9,65.73h0a1,1,0,0,0-1,1,1,1,0,0,0,1,1h1.53a1,1,0,1,0,0-2.05Z" transform="translate(-221 -54)"/><path class="cls-6" d="M276.25,64.12a1,1,0,0,0,.51-.13l1.33-.76a1,1,0,1,0-1-1.78l-1.33.76a1,1,0,0,0,.51,1.91Z" transform="translate(-221 -54)"/><path class="cls-6" d="M275.71,71.3l1.33.77a1,1,0,0,0,.51.14,1,1,0,0,0,.52-1.91l-1.33-.77a1,1,0,0,0-1,1.77Z" transform="translate(-221 -54)"/><path class="cls-6" d="M233.57,67.78h1.53a1,1,0,0,0,1-1,1,1,0,0,0-1-1h-1.53a1,1,0,1,0,0,2Z" transform="translate(-221 -54)"/><path class="cls-6" d="M235.24,69.54l-1.33.76a1,1,0,0,0,.51,1.91.94.94,0,0,0,.51-.14l1.33-.76a1,1,0,1,0-1-1.77Z" transform="translate(-221 -54)"/><path class="cls-6" d="M233.93,63.22l1.33.77a1,1,0,0,0,.51.14,1,1,0,0,0,.52-1.91L235,61.45a1,1,0,1,0-1,1.77Z" transform="translate(-221 -54)"/></svg>