<svg id="Capa_1" data-name="Capa 1" xmlns="http://www.w3.org/2000/svg" viewBox="0 0 70 70"><defs><style>.cls-1{fill:#27c7cd;}.cls-2{fill:#fc3e59;}.cls-3{fill:#ffcb05;}.cls-4{fill:#b3e59f;}.cls-5{fill:#f1f2ec;}.cls-6{fill:#1b2c38;}</style></defs><title>Social-Advertising</title><path class="cls-1" d="M286.61,282.22a4.39,4.39,0,1,0,4.39,4.39A4.4,4.4,0,0,0,286.61,282.22Z" transform="translate(-221 -221)"/><path class="cls-2" d="M231.08,237.89a4.39,4.39,0,1,0,4.39,4.39A4.4,4.4,0,0,0,231.08,237.89Z" transform="translate(-221 -221)"/><path class="cls-3" d="M250.73,221a4.39,4.39,0,1,0,4.39,4.39A4.4,4.4,0,0,0,250.73,221Z" transform="translate(-221 -221)"/><path class="cls-4" d="M283.56,249.34a4.39,4.39,0,1,0,4.39,4.39A4.4,4.4,0,0,0,283.56,249.34Z" transform="translate(-221 -221)"/><path class="cls-2" d="M277.53,226.61a4.39,4.39,0,1,0,4.39,4.39A4.4,4.4,0,0,0,277.53,226.61Z" transform="translate(-221 -221)"/><path class="cls-3" d="M248.41,275.33a4.39,4.39,0,1,0,4.39,4.39A4.4,4.4,0,0,0,248.41,275.33Z" transform="translate(-221 -221)"/><path class="cls-4" d="M225.39,266.08a4.39,4.39,0,1,0,4.39,4.39A4.4,4.4,0,0,0,225.39,266.08Z" transform="translate(-221 -221)"/><circle class="cls-1" cx="34.85" cy="34.97" r="13.51"/><path class="cls-5" d="M261.52,253a5.63,5.63,0,1,1-5.62-5.62A5.62,5.62,0,0,1,261.52,253Z" transform="translate(-221 -221)"/><path class="cls-2" d="M247.92,266.91c.18-4.73,3.5-8.29,8-8.29a8.1,8.1,0,0,1,8,8.19,12.88,12.88,0,0,1-8.06,2.67A13.07,13.07,0,0,1,247.92,266.91Z" transform="translate(-221 -221)"/><path class="cls-3" d="M255.9,247.39a5.62,5.62,0,0,0-5.63,5.62,5.87,5.87,0,0,0,.15,1.26l7.48-2.46,3.48,2.44a5.68,5.68,0,0,0,.14-1.24A5.62,5.62,0,0,0,255.9,247.39Z" transform="translate(-221 -221)"/><path class="cls-6" d="M286.61,282.22a4.34,4.34,0,0,0-2.23.61l-17.19-17.75a14.63,14.63,0,0,0,3.2-9.11l9-.83a4.38,4.38,0,1,0-.19-2l-9,.82a14.65,14.65,0,0,0-4.4-8.51l9.6-10.54a4.39,4.39,0,1,0-2.31-3.87,4.32,4.32,0,0,0,.79,2.5l-9.67,10.6a14.6,14.6,0,0,0-9.69-2.62l-2.1-12.06a4.39,4.39,0,1,0-2,.35l2.1,12a14.69,14.69,0,0,0-8.63,5.85l-8.57-4.35a4.17,4.17,0,0,0,.12-.94,4.39,4.39,0,1,0-1.05,2.77l8.45,4.28a14.64,14.64,0,0,0-.74,11.33l-13.41,6.87a4.35,4.35,0,1,0,.94,1.83l13.28-6.81a14.55,14.55,0,0,0,7.47,6.82l-1.76,5.89h-.24a4.41,4.41,0,1,0,2.2.6l1.75-5.85a14.65,14.65,0,0,0,4.42.4,1,1,0,0,0-.13-2.05,12.5,12.5,0,0,1-7.68-2.05,6.95,6.95,0,0,1,13.89-.07,13.65,13.65,0,0,1-1.54.88,1,1,0,0,0,.89,1.85,14.65,14.65,0,0,0,3.58-2.45l17.11,17.67a4.39,4.39,0,1,0,3.71-2Zm-9.08-53.56a2.34,2.34,0,1,1-2.34,2.34A2.34,2.34,0,0,1,277.53,228.66Zm-29.14-3.27a2.34,2.34,0,1,1,2.34,2.34A2.34,2.34,0,0,1,248.39,225.39ZM231,244.62a2.34,2.34,0,1,1,2.38-2.3A2.34,2.34,0,0,1,231,244.62Zm-5.65,28.19a2.34,2.34,0,1,1,2.34-2.34A2.34,2.34,0,0,1,225.39,272.81Zm23,9.25a2.34,2.34,0,1,1,2.34-2.34A2.34,2.34,0,0,1,248.41,282.06Zm35.15-30.67a2.34,2.34,0,1,1-2.34,2.34A2.34,2.34,0,0,1,283.56,251.39Zm-31.84,3.53,6-2,2.45,1.71A4.63,4.63,0,0,1,251.72,254.92Zm6.77-3.95c-.63-.44-1.6.1-2.23.31l-5,1.62a4.59,4.59,0,0,1,9.14-.56Zm1.21,7.48a6.64,6.64,0,1,0-7.6,0,9.25,9.25,0,0,0-5,6.43A12.62,12.62,0,0,1,244,252.05a12.48,12.48,0,1,1,20.68,12.75A9.24,9.24,0,0,0,259.7,258.45ZM286.61,289a2.34,2.34,0,1,1,2.34-2.34A2.34,2.34,0,0,1,286.61,289Z" transform="translate(-221 -221)"/></svg>