<svg id="Layer_1" data-name="Layer 1" xmlns="http://www.w3.org/2000/svg" viewBox="0 0 70 70"><defs><style>.cls-1{fill:#fc3e59;}.cls-2{fill:#ffcb05;}.cls-3{fill:#1b2c38;}</style></defs><title>cpa</title><path class="cls-1" d="M240,206.17A33.83,33.83,0,1,0,273.83,240,33.82,33.82,0,0,0,240,206.17Zm0,56A22.17,22.17,0,1,1,262.17,240,22.18,22.18,0,0,1,240,262.17Z" transform="translate(-205 -205)"/><path class="cls-2" d="M262.17,240A22.17,22.17,0,1,1,240,217.83,22.18,22.18,0,0,1,262.17,240Z" transform="translate(-205 -205)"/><path class="cls-3" d="M240,205a35,35,0,1,0,35,35A35,35,0,0,0,240,205Zm0,67.67A32.67,32.67,0,1,1,272.67,240,32.67,32.67,0,0,1,240,272.67Z" transform="translate(-205 -205)"/><path class="cls-3" d="M245.83,234.17h2.34c0-3.52-3-6.44-7-6.92v-2.42h-2.34v2.42c-4,.48-7,3.4-7,6.92s3,6.43,7,6.92v9.32c-2.66-.44-4.66-2.32-4.66-4.58h-2.34c0,3.52,3,6.44,7,6.92v2.42h2.34v-2.42c4-.48,7-3.4,7-6.92s-3-6.43-7-6.92v-9.32C243.83,230,245.83,231.91,245.83,234.17Zm-11.66,0c0-2.26,2-4.14,4.66-4.58v9.15C236.17,238.3,234.17,236.42,234.17,234.17Zm11.66,11.66c0,2.26-2,4.14-4.66,4.58v-9.15C243.83,241.7,245.83,243.58,245.83,245.83Z" transform="translate(-205 -205)"/><path class="cls-3" d="M265.67,238.83h-2.4a23.29,23.29,0,0,0-22.1-22.1v-2.4h-2.34v2.4a23.29,23.29,0,0,0-22.1,22.1h-2.4v2.34h2.4a23.29,23.29,0,0,0,22.1,22.1v2.4h2.34v-2.4a23.29,23.29,0,0,0,22.1-22.1h2.4Zm-24.5,22.11v-2.27h-2.34v2.27a21,21,0,0,1-19.77-19.77h2.27v-2.34h-2.27a21,21,0,0,1,19.77-19.77v2.27h2.34v-2.27a21,21,0,0,1,19.77,19.77h-2.27v2.34h2.27A21,21,0,0,1,241.17,260.94Z" transform="translate(-205 -205)"/></svg>