<svg id="Capa_1" data-name="Capa 1" xmlns="http://www.w3.org/2000/svg" viewBox="0 0 70 70"><defs><style>.cls-1{fill:#546e7a;}.cls-2{fill:#f1f2ec;}.cls-3{fill:#fc3e59;}.cls-4{fill:#1b2c38;}</style></defs><title>Excellent-Support</title><path class="cls-1" d="M227.77,479.46h-3.28A2.46,2.46,0,0,1,222,477h0a2.46,2.46,0,0,1,2.46-2.46h3.28a2.46,2.46,0,0,1,2.46,2.46h0A2.46,2.46,0,0,1,227.77,479.46Z" transform="translate(-221 -442)"/><path class="cls-1" d="M287.51,479.46h-3.28a2.46,2.46,0,0,1-2.46-2.46h0a2.46,2.46,0,0,1,2.46-2.46h3.28A2.46,2.46,0,0,1,290,477h0A2.46,2.46,0,0,1,287.51,479.46Z" transform="translate(-221 -442)"/><path class="cls-2" d="M256,448.49A28.51,28.51,0,1,0,284.51,477,28.52,28.52,0,0,0,256,448.49Zm0,41.34A12.83,12.83,0,1,1,268.83,477,12.84,12.84,0,0,1,256,489.83Z" transform="translate(-221 -442)"/><path class="cls-3" d="M262.84,449.32v16.82a12.84,12.84,0,0,0-14.91.89V449.65a28.63,28.63,0,0,1,14.91-.33Z" transform="translate(-221 -442)"/><path class="cls-3" d="M262.84,487.86v16.82a28.63,28.63,0,0,1-14.91-.33V487a12.84,12.84,0,0,0,14.91.89Z" transform="translate(-221 -442)"/><path class="cls-3" d="M284.51,477a28.27,28.27,0,0,1-.9,7.11H266.68a12.82,12.82,0,0,0-.49-14.9h17.24A28.57,28.57,0,0,1,284.51,477Z" transform="translate(-221 -442)"/><path class="cls-3" d="M243.17,477a12.76,12.76,0,0,0,2.15,7.11H228.39a28.27,28.27,0,0,1-.9-7.11,28.57,28.57,0,0,1,1.08-7.79h17.24A12.8,12.8,0,0,0,243.17,477Z" transform="translate(-221 -442)"/><path class="cls-4" d="M291,477a3.49,3.49,0,0,0-3.49-3.49,34,34,0,0,0,.94-8.87A21.53,21.53,0,0,0,284.26,452c-5.06-6.63-14.46-10-27.92-10s-23,3.38-28.25,10.06a22.17,22.17,0,0,0-4.51,12.59,34.56,34.56,0,0,0,.69,8.87,3.49,3.49,0,0,0,.22,7c-1,4.38-1.9,11.55,1.13,18a1,1,0,0,0,.92.59,1,1,0,0,0,.44-.1,1,1,0,0,0,.49-1.36c-1.28-2.73-3.05-8.52-.88-17.13h.08a29.54,29.54,0,0,0,58.66,0h.3a32.07,32.07,0,0,1,.74,8.74,20.25,20.25,0,0,1-4.07,11.45c-4.84,6.15-13.8,9.27-26.64,9.27-12.53,0-21.28-3-26-8.83a1,1,0,1,0-1.59,1.28c5.13,6.37,14.42,9.6,27.6,9.6,13.51,0,23-3.38,28.25-10.06a22.17,22.17,0,0,0,4.51-12.59,34.56,34.56,0,0,0-.69-8.87A3.49,3.49,0,0,0,291,477Zm-35,11.8A11.8,11.8,0,1,1,267.8,477,11.81,11.81,0,0,1,256,488.8Zm0-39.28a27.35,27.35,0,0,1,5.81.61v14.3a13.85,13.85,0,0,0-12.85.64V450.43A27.73,27.73,0,0,1,256,449.52Zm-9.09,17a14.32,14.32,0,0,0-1.59,1.62H230a27.61,27.61,0,0,1,16.94-17.11ZM228.52,477a27.53,27.53,0,0,1,.84-6.77h14.56a13.82,13.82,0,0,0-.36,12.85H229.2A27,27,0,0,1,228.52,477Zm39.56-6.77h14.56a27.84,27.84,0,0,1,.84,6.77,27,27,0,0,1-.68,6.08H268.44a13.82,13.82,0,0,0-.36-12.85Zm-42.45-5.46a20.25,20.25,0,0,1,4.07-11.45c4.84-6.15,13.8-9.27,26.64-9.27s21.63,3.09,26.29,9.2a19.51,19.51,0,0,1,3.78,11.46,32.5,32.5,0,0,1-1,8.8h-.07a29.48,29.48,0,0,0-7.59-16.5,1,1,0,0,0-1.51,1.39,27.4,27.4,0,0,1,5.8,9.78H266.68a14.4,14.4,0,0,0-2.82-2.58v-15a27.26,27.26,0,0,1,9.29,4.87,1,1,0,0,0,1.44-.16,1,1,0,0,0-.16-1.44,29.56,29.56,0,0,0-26.7-5.27l-.17.05a29.62,29.62,0,0,0-20.89,24.81h-.3A32.07,32.07,0,0,1,225.63,464.77ZM223.05,477a1.44,1.44,0,0,1,1.44-1.44h2q0,.72,0,1.44t0,1.44h-2A1.44,1.44,0,0,1,223.05,477Zm6.7,8.13h15a13.69,13.69,0,0,0,2.12,2.31v15.49A27.59,27.59,0,0,1,229.75,485.13Zm34.11,18.2v-.11a1,1,0,1,0-2.05,0v.64a27.14,27.14,0,0,1-5.81.62,27.73,27.73,0,0,1-7-.91V488.93a13.85,13.85,0,0,0,12.85.64v9.24a1,1,0,0,0,2.05,0V488.4a14.06,14.06,0,0,0,3.35-3.27h15A27.56,27.56,0,0,1,263.86,503.33Zm23.65-24.89h-2q0-.72,0-1.44t0-1.44h2a1.44,1.44,0,0,1,0,2.88Z" transform="translate(-221 -442)"/></svg>