<svg xmlns="http://www.w3.org/2000/svg" viewBox="0 0 130 130"><defs><style>.cls-1{fill:#fc3e59;}.cls-2{fill:#ffcb05;}.cls-3{fill:#e8e9e1;}.cls-4{fill:#f1f2ec;}.cls-5{fill:#1b2c38;}</style></defs><title>Template-Design</title><g id="Layer_1" data-name="Layer 1"><circle class="cls-1" cx="65" cy="65" r="65"/></g><g id="Layer_2" data-name="Layer 2"><polygon class="cls-2" points="98.97 98.97 31.03 98.97 31.03 56.23 65 31.03 98.97 56.23 98.97 98.97"/><rect class="cls-3" x="35.41" y="58.42" width="59.18" height="26.3"/><rect class="cls-4" x="35.41" y="35.41" width="59.18" height="26.3"/><polygon class="cls-2" points="98.97 98.97 31.03 98.97 98.97 56.23 98.97 98.97"/><polygon class="cls-2" points="98.97 98.97 31.03 98.97 31.03 56.23 98.97 98.97"/><rect class="cls-1" x="78.15" y="43.08" width="8.77" height="10.96"/><path class="cls-5" d="M370.74,407.59a.49.49,0,0,0,0-.12V364.73a1,1,0,0,0-.42-.82l-4-3v-17a1,1,0,0,0-1-1H342s-5.61-4.18-5.61-4.18a1,1,0,0,0-1.22,0l-5.64,4.18H306.16a1,1,0,0,0-1,1v17l-4,3a1,1,0,0,0-.42.82v42.74a1,1,0,0,0,1,1h67.94A1,1,0,0,0,370.74,407.59ZM337.68,386.1l31-19.51v39Zm30.22-21.44-1.53,1v-2.11Zm-32.15-23.85,2.8,2.07H333Zm28.56,4.13v22l-3.59,2.26h-10a1,1,0,1,0,0,2.06h6.7l-21.7,13.65-21.7-13.65h31.77a1,1,0,1,0,0-2.06h-35l-3.59-2.26v-22Zm-59.18,20.69-1.53-1,1.53-1.14Zm-2.33,40.82V366.59l63.36,39.86Z" transform="translate(-270.75 -308.5)"/><path class="cls-5" d="M348.9,363.57h8.77a1,1,0,0,0,1-1v-11a1,1,0,0,0-1-1H348.9a1,1,0,0,0-1,1v11A1,1,0,0,0,348.9,363.57Zm1-11h6.71v8.9h-6.71Z" transform="translate(-270.75 -308.5)"/><path class="cls-5" d="M313.83,352.61h30.69a1,1,0,0,0,0-2.06H313.83a1,1,0,1,0,0,2.06Z" transform="translate(-270.75 -308.5)"/><path class="cls-5" d="M313.83,358.09h16.51a1,1,0,0,0,0-2.06H313.83a1,1,0,0,0,0,2.06Z" transform="translate(-270.75 -308.5)"/><path class="cls-5" d="M344.52,356h-9.87a1,1,0,0,0,0,2.06h9.87a1,1,0,0,0,0-2.06Z" transform="translate(-270.75 -308.5)"/><path class="cls-5" d="M313.83,363.57h22a1,1,0,0,0,0-2.06h-22a1,1,0,0,0,0,2.06Z" transform="translate(-270.75 -308.5)"/><path class="cls-5" d="M344.52,361.51h-4.39a1,1,0,0,0,0,2.06h4.39a1,1,0,0,0,0-2.06Z" transform="translate(-270.75 -308.5)"/><path class="cls-5" d="M341.23,373.57a1,1,0,1,0,0,2.05h5.48a1,1,0,1,0,0-2.05Z" transform="translate(-270.75 -308.5)"/><path class="cls-5" d="M337.87,374.6a1,1,0,0,0-1-1H324.79a1,1,0,1,0,0,2.05h12.06A1,1,0,0,0,337.87,374.6Z" transform="translate(-270.75 -308.5)"/><path class="cls-5" d="M333.63,379.05h-3.36a1,1,0,1,0,0,2.05h3.36a1,1,0,0,0,0-2.05Z" transform="translate(-270.75 -308.5)"/><path class="cls-5" d="M340.13,379.05h-2.19a1,1,0,1,0,0,2.05h2.19a1,1,0,1,0,0-2.05Z" transform="translate(-270.75 -308.5)"/></g></svg>