<svg id="Layer_1" data-name="Layer 1" xmlns="http://www.w3.org/2000/svg" viewBox="0 0 70 59.12"><defs><style>.cls-1{fill:#e8e9e1;}.cls-2{fill:#f1f2ec;}.cls-3{fill:#ffcb05;}.cls-4{fill:#fc3e59;}.cls-5{fill:#1b2c38;}</style></defs><title>Display-Advertising</title><path class="cls-1" d="M284.39,284.25H233.85a4.09,4.09,0,0,1-4.08-4.09V243.43a4.09,4.09,0,0,1,4.09-4.09h50.53a4.09,4.09,0,0,1,4.09,4.09v36.73A4.09,4.09,0,0,1,284.39,284.25Z" transform="translate(-219.5 -226.15)"/><path class="cls-2" d="M276.92,273.55H224.75a4.22,4.22,0,0,1-4.22-4.22V231.4a4.22,4.22,0,0,1,4.22-4.22h52.17a4.22,4.22,0,0,1,4.22,4.22v37.93A4.22,4.22,0,0,1,276.92,273.55Z" transform="translate(-219.5 -226.15)"/><path class="cls-3" d="M281.14,236.47H220.53V231.4a4.22,4.22,0,0,1,4.22-4.22h52.17a4.22,4.22,0,0,1,4.22,4.22Z" transform="translate(-219.5 -226.15)"/><path class="cls-4" d="M274.63,267.8H261.84a1.13,1.13,0,0,1-1.14-1.13v-22a1.14,1.14,0,0,1,1.14-1.13h12.79a1.13,1.13,0,0,1,1.13,1.13v22A1.12,1.12,0,0,1,274.63,267.8Z" transform="translate(-219.5 -226.15)"/><path class="cls-5" d="M229.31,231.82a1.2,1.2,0,1,1-1.2-1.2A1.21,1.21,0,0,1,229.31,231.82Z" transform="translate(-219.5 -226.15)"/><path class="cls-5" d="M233.6,231.82a1.21,1.21,0,1,1-1.2-1.2A1.21,1.21,0,0,1,233.6,231.82Z" transform="translate(-219.5 -226.15)"/><path class="cls-5" d="M237.89,231.82a1.21,1.21,0,1,1-1.2-1.2A1.21,1.21,0,0,1,237.89,231.82Z" transform="translate(-219.5 -226.15)"/><path class="cls-5" d="M284.39,238.32h-2.22V231.4a5.26,5.26,0,0,0-5.25-5.25H224.75a5.26,5.26,0,0,0-5.25,5.25v37.93a5.25,5.25,0,0,0,5.25,5.24h4v5.59a5.13,5.13,0,0,0,5.11,5.12h37.08a1,1,0,1,0,0-2.06H233.85a3.07,3.07,0,0,1-3.06-3.06v-5.59h46.13a5.25,5.25,0,0,0,5.25-5.24v-29h2.22a3.06,3.06,0,0,1,3.06,3.06v36.73a3.06,3.06,0,0,1-3.06,3.06h-8.7a1,1,0,0,0,0,2.06h8.7a5.12,5.12,0,0,0,5.11-5.12V243.43A5.11,5.11,0,0,0,284.39,238.32Zm-4.27,31a3.19,3.19,0,0,1-3.2,3.19H224.75a3.2,3.2,0,0,1-3.2-3.19V237.49h58.57Zm0-33.89H221.55v-4a3.21,3.21,0,0,1,3.2-3.2h52.17a3.21,3.21,0,0,1,3.2,3.2Z" transform="translate(-219.5 -226.15)"/><path class="cls-5" d="M261.84,268.83h12.79a2.16,2.16,0,0,0,2.16-2.16v-22a2.16,2.16,0,0,0-2.16-2.15H261.84a2.15,2.15,0,0,0-2.16,2.15v6.4a1,1,0,0,0,2.05,0v-6.4a.11.11,0,0,1,.11-.1h12.79a.11.11,0,0,1,.11.1v22a.11.11,0,0,1-.11.11H261.84a.11.11,0,0,1-.11-.11V255.86a1,1,0,0,0-2.05,0v10.81A2.16,2.16,0,0,0,261.84,268.83Z" transform="translate(-219.5 -226.15)"/><path class="cls-5" d="M252.54,259.82h2.67a1,1,0,0,0,0-2.05h-2.67a1,1,0,1,0,0,2.05Z" transform="translate(-219.5 -226.15)"/><path class="cls-5" d="M226.91,259.82h19a1,1,0,0,0,0-2.05h-19a1,1,0,1,0,0,2.05Z" transform="translate(-219.5 -226.15)"/><path class="cls-5" d="M235.92,266.78h-9a1,1,0,1,0,0,2.05h9a1,1,0,0,0,0-2.05Z" transform="translate(-219.5 -226.15)"/><path class="cls-5" d="M244.71,266.78h-2.2a1,1,0,1,0,0,2.05h2.2a1,1,0,1,0,0-2.05Z" transform="translate(-219.5 -226.15)"/><path class="cls-5" d="M255.21,262.27h-28.3a1,1,0,1,0,0,2.05h28.3a1,1,0,0,0,0-2.05Z" transform="translate(-219.5 -226.15)"/><path class="cls-5" d="M225.21,252.71s0-.09,0-.15l2.77-9a1.45,1.45,0,0,1,2.39,0l2.77,9a1,1,0,0,1,0,.15c0,.44-.68.77-1.18.77-.31,0-.56-.1-.63-.37l-.54-1.91h-3.29l-.54,1.91c-.07.27-.32.37-.63.37C225.89,253.48,225.21,253.16,225.21,252.71Zm5.23-3-1.24-4.4-1.25,4.4Z" transform="translate(-219.5 -226.15)"/><path class="cls-5" d="M237.54,243c1.89,0,3.36.88,3.36,3.28v3.91c0,2.39-1.47,3.28-3.36,3.28H235c-.49,0-.82-.27-.82-.57v-9.33c0-.3.33-.57.82-.57Zm-1.49,1.63v7.21h1.49c.94,0,1.5-.53,1.5-1.65v-3.91c0-1.12-.56-1.65-1.5-1.65Z" transform="translate(-219.5 -226.15)"/><path class="cls-5" d="M246.84,250.69c0-2.15-4.6-1.49-4.6-4.89,0-2.14,1.83-2.87,3.48-2.87.84,0,2.72.2,2.72,1.15,0,.33-.23,1-.74,1s-.78-.55-2-.55c-1,0-1.62.42-1.62,1.11,0,1.77,4.6,1.16,4.6,4.87,0,2.05-1.43,3.11-3.41,3.11s-3.31-1-3.31-1.78c0-.4.37-1,.82-1s1,1.1,2.43,1.1C246.09,251.93,246.84,251.55,246.84,250.69Z" transform="translate(-219.5 -226.15)"/></svg>