<svg xmlns="http://www.w3.org/2000/svg" viewBox="0 0 130 130"><defs><style>.cls-1{fill:#95d133;}.cls-2{fill:#27c7cd;}.cls-3{fill:#f1f2ec;}.cls-4{fill:#ffb541;}.cls-5{fill:#e8e9e1;}.cls-6{fill:#1b2c38;}.cls-7{fill:#fc3e59;}.cls-8{fill:#ffcb05;}</style></defs><title>Marketing-Campaigns</title><g id="Layer_1" data-name="Layer 1"><circle class="cls-1" cx="65" cy="65" r="65"/></g><g id="Layer_2" data-name="Layer 2"><path class="cls-2" d="M319.58,382s-5.13,7.38-4.64,14.81a3.12,3.12,0,0,0,3.65,2.87l8.73-1.52Z" transform="translate(-268.36 -315.7)"/><path class="cls-2" d="M344.15,382s5.13,7.38,4.64,14.81a3.13,3.13,0,0,1-3.66,2.87l-8.73-1.52Z" transform="translate(-268.36 -315.7)"/><path class="cls-3" d="M333.32,347a3.39,3.39,0,0,0-2.82,0,23,23,0,0,0-14,22.49s.46,14.07,9.11,25.94h12.49c8.65-11.87,9.11-25.94,9.11-25.94A23,23,0,0,0,333.32,347Z" transform="translate(-268.36 -315.7)"/><path class="cls-4" d="M340.62,371a8.73,8.73,0,1,1-8.73-8.73A8.73,8.73,0,0,1,340.62,371Z" transform="translate(-268.36 -315.7)"/><path class="cls-5" d="M336.43,371a4.54,4.54,0,1,1-4.54-4.54A4.54,4.54,0,0,1,336.43,371Z" transform="translate(-268.36 -315.7)"/><path class="cls-6" d="M322.16,354.68h19.46A23.66,23.66,0,0,0,332.9,348a2.46,2.46,0,0,0-2,0A23.79,23.79,0,0,0,322.16,354.68Z" transform="translate(-268.36 -315.7)"/><path class="cls-7" d="M343.62,355.71H320.16A24.49,24.49,0,0,1,330.49,347a3.41,3.41,0,0,1,2.83,0A24.41,24.41,0,0,1,343.62,355.71Z" transform="translate(-268.36 -315.7)"/><path class="cls-8" d="M327.27,409.7l3.27,4.32a1.66,1.66,0,0,0,2.65,0l3.27-4.32c3.43-4.47-.69-8.93-.69-8.93H328S323.83,405.23,327.27,409.7Z" transform="translate(-268.36 -315.7)"/><path class="cls-8" d="M329.74,404.89l1.51,2a.77.77,0,0,0,1.22,0l1.51-2c1.58-2.06-.32-4.12-.32-4.12h-3.6S328.16,402.83,329.74,404.89Z" transform="translate(-268.36 -315.7)"/><path class="cls-7" d="M336.07,400.77h-8.41a2.09,2.09,0,0,1-2.09-2.09v-3.22h12.59v3.22A2.1,2.1,0,0,1,336.07,400.77Z" transform="translate(-268.36 -315.7)"/><path class="cls-8" d="M308.39,399.6a13.84,13.84,0,0,1-6.55,6.14.67.67,0,0,0,0,1.21,13.79,13.79,0,0,1,6.55,6.14.67.67,0,0,0,1.19,0,13.83,13.83,0,0,1,6.56-6.14.68.68,0,0,0,0-1.21,13.87,13.87,0,0,1-6.56-6.14A.67.67,0,0,0,308.39,399.6Z" transform="translate(-268.36 -315.7)"/><path class="cls-8" d="M358.11,395.35a12.21,12.21,0,0,1-5.77,5.41.58.58,0,0,0,0,1.06,12.21,12.21,0,0,1,5.77,5.41.59.59,0,0,0,1.05,0,12.16,12.16,0,0,1,5.77-5.41.58.58,0,0,0,0-1.06,12.16,12.16,0,0,1-5.77-5.41A.59.59,0,0,0,358.11,395.35Z" transform="translate(-268.36 -315.7)"/><path class="cls-8" d="M355.41,381.09a10.27,10.27,0,0,1-4.86,4.55.5.5,0,0,0,0,.9,10.24,10.24,0,0,1,4.86,4.56.5.5,0,0,0,.89,0,10.19,10.19,0,0,1,4.86-4.56.5.5,0,0,0,0-.9,10.22,10.22,0,0,1-4.86-4.55A.5.5,0,0,0,355.41,381.09Z" transform="translate(-268.36 -315.7)"/><path class="cls-6" d="M322.13,371a9.76,9.76,0,1,0,9.76-9.75A9.77,9.77,0,0,0,322.13,371Zm17.46,0a7.71,7.71,0,1,1-7.7-7.7A7.71,7.71,0,0,1,339.59,371Z" transform="translate(-268.36 -315.7)"/><path class="cls-6" d="M326.32,371a5.57,5.57,0,1,0,5.57-5.56A5.57,5.57,0,0,0,326.32,371Zm9.08,0a3.52,3.52,0,1,1-3.51-3.51A3.52,3.52,0,0,1,335.4,371Z" transform="translate(-268.36 -315.7)"/><path class="cls-6" d="M346.92,378.28a47.11,47.11,0,0,0,1.34-8.73,27.45,27.45,0,0,0-.48-6.21,1,1,0,1,0-2,.4,25.62,25.62,0,0,1,.43,5.75c0,.13-.53,13.55-8.6,24.95H326.16c-8.06-11.38-8.6-24.82-8.6-24.95a22.43,22.43,0,0,1,3.16-12.76h22.33a19.76,19.76,0,0,1,1.38,2.63,1,1,0,0,0,1.34.54,1,1,0,0,0,.54-1.35,22.29,22.29,0,0,0-1.81-3.36l0,0a25.4,25.4,0,0,0-10.74-9.06c-.22-.09-.44-.17-.67-.24a4.52,4.52,0,0,0-2.55.07l-.45.17a24.3,24.3,0,0,0-13.33,14.35,26.31,26.31,0,0,0-1.23,9.11,47.11,47.11,0,0,0,1.34,8.73c.3,1.25.69,2.67,1.18,4.2-1.44,2.39-4.51,8.29-4.12,14.35a4.16,4.16,0,0,0,4.15,3.87,4.25,4.25,0,0,0,.71-.06l5.92-1a3.14,3.14,0,0,0,1.52,1.83,10.85,10.85,0,0,0-.85,1.77,7.2,7.2,0,0,0,1.09,7.11l3.27,4.32a2.67,2.67,0,0,0,2.14,1.06,2.7,2.7,0,0,0,2.15-1.06l3.26-4.32a7.18,7.18,0,0,0,1.1-7.11,10.08,10.08,0,0,0-.86-1.77,3.16,3.16,0,0,0,1.53-1.83l5.92,1a4.15,4.15,0,0,0,4.85-3.81c.4-6-2.63-11.88-4.08-14.3C346.23,381,346.62,379.55,346.92,378.28ZM322.3,354.51l0-.05.32-.38a24.16,24.16,0,0,1,8.25-6.12l.24-.09a2.44,2.44,0,0,1,1.51,0l.24.09a24,24,0,0,1,8.71,6.72H322.16C322.21,354.63,322.25,354.57,322.3,354.51Zm2.25,43.05-6.13,1.06a2.11,2.11,0,0,1-2.46-1.93c-.29-4.44,1.57-8.93,3-11.63a47.63,47.63,0,0,0,5.61,10.63Zm11.09,11.52-3.27,4.32a.62.62,0,0,1-.51.25.63.63,0,0,1-.51-.25l-3.26-4.32h0a5.74,5.74,0,0,1,.15-7,3.84,3.84,0,0,0,.7,3.44l1.51,2a1.79,1.79,0,0,0,2.85,0l1.5-2a3.82,3.82,0,0,0,.7-3.43A5.71,5.71,0,0,1,335.64,409.08Zm-5.07-7.29h2.59a2.07,2.07,0,0,1,0,2.48l-1.3,1.72-1.3-1.72h0A2.05,2.05,0,0,1,330.57,401.79Zm6.56-3.11a1.05,1.05,0,0,1-1.06,1.06h-8.41a1.06,1.06,0,0,1-1.07-1.06v-2.2h10.54Zm10.64-2a2.11,2.11,0,0,1-2.46,1.93l-6.13-1.06v-1.81a47.18,47.18,0,0,0,5.63-10.64C346.22,387.81,348.06,392.27,347.77,396.69Z" transform="translate(-268.36 -315.7)"/><path class="cls-6" d="M316.58,404.82a16.49,16.49,0,0,1-1.75-1,1,1,0,1,0-1.12,1.72c.43.28.89.54,1.35.79A14.72,14.72,0,0,0,309,412a14.82,14.82,0,0,0-6.08-5.7,14.81,14.81,0,0,0,6.08-5.69,12.72,12.72,0,0,0,1,1.48,1,1,0,1,0,1.62-1.25,11.24,11.24,0,0,1-1.1-1.74,1.69,1.69,0,0,0-3,0,12.67,12.67,0,0,1-6.08,5.68,1.69,1.69,0,0,0,0,3.05,12.67,12.67,0,0,1,6.08,5.68,1.7,1.7,0,0,0,3,0,12.72,12.72,0,0,1,6.08-5.68,1.69,1.69,0,0,0,0-3.05Z" transform="translate(-268.36 -315.7)"/><path class="cls-6" d="M365.38,399.84a11.08,11.08,0,0,1-5.3-4.95,1.62,1.62,0,0,0-2.89,0,11.08,11.08,0,0,1-5.3,4.95,1.61,1.61,0,0,0,0,2.9,11.08,11.08,0,0,1,5.3,4.95,1.62,1.62,0,0,0,2.89,0,11.08,11.08,0,0,1,5.3-4.95,1.61,1.61,0,0,0,0-2.9Zm-6.36-4Zm-.39,10.25a13.16,13.16,0,0,0-5.09-4.77,13.16,13.16,0,0,0,5.09-4.77,13.12,13.12,0,0,0,5.1,4.77A13.12,13.12,0,0,0,358.63,406.06Z" transform="translate(-268.36 -315.7)"/><path class="cls-6" d="M354.5,391.55a1.48,1.48,0,0,0,1.35.84,1.51,1.51,0,0,0,1.36-.84,9.23,9.23,0,0,1,4.39-4.09,1.52,1.52,0,0,0,0-2.74,9.19,9.19,0,0,1-4.39-4.09,1.51,1.51,0,0,0-1.36-.84,1.48,1.48,0,0,0-1.35.84,9.17,9.17,0,0,1-4.4,4.09,1.52,1.52,0,0,0,0,2.74A9.22,9.22,0,0,1,354.5,391.55Zm1.35-9.17a11.28,11.28,0,0,0,4,3.71,11.28,11.28,0,0,0-4,3.71,11.11,11.11,0,0,0-4-3.71A11.11,11.11,0,0,0,355.85,382.38Z" transform="translate(-268.36 -315.7)"/></g></svg>