<svg id="Capa_1" data-name="Capa 1" xmlns="http://www.w3.org/2000/svg" viewBox="0 0 70 70"><defs><style>.cls-1{fill:#ffcb05;}.cls-2{fill:#27c7cd;}.cls-3{fill:#edecf1;}.cls-4{fill:#fc3e59;}.cls-5{fill:#1b2c38;}</style></defs><title>Custom-Email-Design</title><polygon class="cls-1" points="68.97 68.97 1.03 68.97 1.03 26.23 35 1.03 68.97 26.23 68.97 68.97"/><rect class="cls-2" x="5.41" y="28.42" width="59.18" height="26.3"/><rect class="cls-3" x="5.41" y="5.41" width="59.18" height="26.3"/><polygon class="cls-1" points="68.97 68.97 1.03 68.97 68.97 26.23 68.97 68.97"/><polygon class="cls-1" points="68.97 68.97 1.03 68.97 1.03 26.23 68.97 68.97"/><rect class="cls-4" x="48.15" y="13.08" width="8.77" height="10.96"/><path class="cls-5" d="M291,69.09a.49.49,0,0,0,0-.12V26.23a1,1,0,0,0-.42-.82l-4-2.95v-17a1,1,0,0,0-1-1H262.22S256.61.2,256.61.2a1,1,0,0,0-1.22,0l-5.64,4.18H226.41a1,1,0,0,0-1,1V22.46l-4,2.95a1,1,0,0,0-.42.82V69a1,1,0,0,0,1,1H290A1,1,0,0,0,291,69.09ZM257.93,47.6l31-19.51v39Zm30.22-21.44-1.53,1V25ZM256,2.31l2.8,2.07h-5.6Zm28.56,4.13v22L281,30.68H271a1,1,0,1,0,0,2.06h6.7L256,46.39,234.3,32.74h31.77a1,1,0,1,0,0-2.06H231l-3.59-2.26v-22ZM225.38,27.13l-1.53-1L225.38,25Zm-2.33,40.81V28.09l63.36,39.85Z" transform="translate(-221 0)"/><path class="cls-5" d="M269.15,25.07h8.77a1,1,0,0,0,1-1v-11a1,1,0,0,0-1-1h-8.77a1,1,0,0,0-1,1V24A1,1,0,0,0,269.15,25.07Zm1-11h6.71V23h-6.71Z" transform="translate(-221 0)"/><path class="cls-5" d="M234.08,14.11h30.69a1,1,0,0,0,0-2.06H234.08a1,1,0,0,0,0,2.06Z" transform="translate(-221 0)"/><path class="cls-5" d="M234.08,19.59h16.51a1,1,0,1,0,0-2.06H234.08a1,1,0,0,0,0,2.06Z" transform="translate(-221 0)"/><path class="cls-5" d="M264.77,17.53H254.9a1,1,0,0,0,0,2.06h9.87a1,1,0,0,0,0-2.06Z" transform="translate(-221 0)"/><path class="cls-5" d="M234.08,25.07h22a1,1,0,0,0,0-2.06h-22a1,1,0,0,0,0,2.06Z" transform="translate(-221 0)"/><path class="cls-5" d="M264.77,23h-4.39a1,1,0,0,0,0,2.06h4.39a1,1,0,0,0,0-2.06Z" transform="translate(-221 0)"/><path class="cls-5" d="M261.48,35.07a1,1,0,1,0,0,2H267a1,1,0,1,0,0-2Z" transform="translate(-221 0)"/><path class="cls-5" d="M258.12,36.09a1,1,0,0,0-1-1H245a1,1,0,1,0,0,2H257.1A1,1,0,0,0,258.12,36.09Z" transform="translate(-221 0)"/><path class="cls-5" d="M253.88,40.55h-3.36a1,1,0,1,0,0,2.05h3.36a1,1,0,0,0,0-2.05Z" transform="translate(-221 0)"/><path class="cls-5" d="M260.38,40.55h-2.19a1,1,0,1,0,0,2.05h2.19a1,1,0,1,0,0-2.05Z" transform="translate(-221 0)"/></svg>