<svg id="Layer_1" data-name="Layer 1" xmlns="http://www.w3.org/2000/svg" viewBox="0 0 70 70"><defs><style>.cls-1{fill:#fff5f5;}.cls-2{fill:#fc3e59;}.cls-3{fill:#7c8388;}.cls-4{fill:#27c7cd;}.cls-5{fill:#1b2c38;}</style></defs><title>Keyword-Research</title><path class="cls-1" d="M290,256a34,34,0,1,1-34-34A34,34,0,0,1,290,256Z" transform="translate(-221 -221)"/><path class="cls-2" d="M281.6,256c0-13.65-11.46-24.72-25.6-24.72S230.4,242.35,230.4,256s11.46,24.72,25.6,24.72S281.6,269.65,281.6,256Z" transform="translate(-221 -221)"/><path class="cls-1" d="M272.63,256c0-8.87-7.45-16.05-16.63-16.05s-16.63,7.18-16.63,16.05,7.45,16.05,16.63,16.05S272.63,264.87,272.63,256Z" transform="translate(-221 -221)"/><path class="cls-2" d="M264,256a8,8,0,1,0-8,7.68A7.83,7.83,0,0,0,264,256Z" transform="translate(-221 -221)"/><path class="cls-3" d="M269.61,246.35l9.88,2.58a2.22,2.22,0,0,0,2.12-.57L288,242a2.21,2.21,0,0,0-.84-3.65l-7.09-2.42Z" transform="translate(-221 -221)"/><path class="cls-3" d="M265.78,242.52l-2.58-9.88a2.22,2.22,0,0,1,.57-2.12l6.38-6.37a2.21,2.21,0,0,1,3.65.84l2.42,7.09Z" transform="translate(-221 -221)"/><path class="cls-4" d="M276.22,232.08l3.83,3.83-21.83,21.7a2.71,2.71,0,0,1-3.83-3.83Z" transform="translate(-221 -221)"/><path class="cls-5" d="M288.49,242.93l.22-.22a3.23,3.23,0,0,0-1.24-5.35l-2.36-.81a35.3,35.3,0,0,0-9.55-9.58l-.79-2.31a3.24,3.24,0,0,0-5.35-1.24l-.17.17a34.92,34.92,0,1,0,19.24,19.34Zm-9.2-10.22a32,32,0,0,1,2.41,2.68l-1.09-.38-3.49-3.49-.39-1.12A32.74,32.74,0,0,1,279.29,232.71Zm-25.63,25.63a3.74,3.74,0,0,0,5.28,0l3.82-3.79a6.32,6.32,0,0,1,.17,1.45,6.94,6.94,0,1,1-6.93-6.65,7.71,7.71,0,0,1,1.28.11l-3.62,3.59A3.74,3.74,0,0,0,253.66,258.34Zm2.34-11a8.71,8.71,0,1,0,9,8.71,8.32,8.32,0,0,0-.59-3.08l4.86-4.83A14.57,14.57,0,0,1,271.6,256c0,8.29-7,15-15.6,15s-15.6-6.74-15.6-15,7-15,15.6-15a16,16,0,0,1,7.79,2L259,247.78A9.11,9.11,0,0,0,256,247.29Zm1.49,9.6a1.68,1.68,0,0,1-2.38-2.38l11.16-11.09a.8.8,0,0,0,.24-.18l9.71-9.71,2.38,2.38Zm14.21-32.36.28,0a1.16,1.16,0,0,1,.85.77L275,231.8l-8.73,8.68-2.12-8.1a1.18,1.18,0,0,1,.31-1.13l6.38-6.38A1.15,1.15,0,0,1,271.7,224.53Zm7.59,54.76a32.92,32.92,0,1,1-11.63-54.11l-4.61,4.61a3.36,3.36,0,0,0-.76,1.19,27.69,27.69,0,0,0-6.29-.73,27,27,0,0,0-18.26,7,1,1,0,0,0,1.39,1.52A25,25,0,0,1,256,232.31a25.66,25.66,0,0,1,6.25.78l2.06,7.84a18.08,18.08,0,0,0-8.31-2c-9.74,0-17.66,7.66-17.66,17.08s7.92,17.08,17.66,17.08,17.66-7.66,17.66-17.08a16.54,16.54,0,0,0-2.11-8.08l7.68,2a4.85,4.85,0,0,0,.55.09,23.13,23.13,0,0,1,.79,6c0,13.06-11,23.69-24.57,23.69S231.43,269.06,231.43,256a23,23,0,0,1,4.62-13.83,1,1,0,0,0-1.65-1.23,25,25,0,0,0-5,15.06c0,14.2,11.95,25.75,26.63,25.75S282.63,270.2,282.63,256a24.75,24.75,0,0,0-.86-6.47,2.7,2.7,0,0,0,.56-.45l.66-.65a1,1,0,0,0,0-1.46,1,1,0,0,0-1.45,0l-.66.66a1.18,1.18,0,0,1-1.13.31l-8.14-2.13,8.72-8.72,6.47,2.21a1.16,1.16,0,0,1,.77.85,1.14,1.14,0,0,1-.31,1.1l-2.33,2.33a1,1,0,0,0,0,1.45,1,1,0,0,0,1.46,0l.5-.51a33,33,0,0,1-7.6,34.77Z" transform="translate(-221 -221)"/></svg>