<svg id="Layer_1" data-name="Layer 1" xmlns="http://www.w3.org/2000/svg" viewBox="0 0 70 60.16"><defs><style>.cls-1{fill:#ffcb05;}.cls-2{fill:#27c7cd;}.cls-3{fill:#f1f2ec;}.cls-4{fill:#95d133;}.cls-5{fill:#fc3e59;}.cls-6{fill:#1b2c38;}</style></defs><title>Maps-Search-Optimization</title><path class="cls-1" d="M290,45.49V86.25a1.36,1.36,0,0,1-.91,1.29l-21.28,7.52a1.33,1.33,0,0,1-.91,0l-21.74-7.68a1.33,1.33,0,0,0-.91,0l-20.37,7.2A1.37,1.37,0,0,1,222,93.29V52.53a1.36,1.36,0,0,1,.91-1.29l21.28-7.52a1.33,1.33,0,0,1,.91,0l3.28,1.16,18.46,6.52a1.33,1.33,0,0,0,.91,0l8.12-2.87,12.25-4.33A1.37,1.37,0,0,1,290,45.49Z" transform="translate(-221 -36)"/><path class="cls-2" d="M244.68,43.64V87.3a1.44,1.44,0,0,0-.46.08l-20.37,7.2A1.37,1.37,0,0,1,222,93.29V52.53a1.36,1.36,0,0,1,.91-1.29l21.28-7.52A1.44,1.44,0,0,1,244.68,43.64Z" transform="translate(-221 -36)"/><path class="cls-3" d="M222,84.54l22.65-8V65.45l-22.65,8Z" transform="translate(-221 -36)"/><path class="cls-3" d="M222,65.89l22.65-8V53.44l-22.65,8Z" transform="translate(-221 -36)"/><path class="cls-4" d="M267.32,51.48V95.14a1.42,1.42,0,0,1-.45-.08l-21.74-7.68a1.42,1.42,0,0,0-.45-.08V43.64a1.42,1.42,0,0,1,.45.08l3.28,1.16,18.46,6.52A1.42,1.42,0,0,0,267.32,51.48Z" transform="translate(-221 -36)"/><path class="cls-5" d="M274.15,49.37c0,5.69-8.62,15.56-11.46,18.66a1.21,1.21,0,0,1-1.78,0c-2.83-3.1-11.45-13-11.45-18.66a12.35,12.35,0,0,1,24.69,0Z" transform="translate(-221 -36)"/><path class="cls-3" d="M267.37,49a5.57,5.57,0,1,1-5.57-5.57A5.56,5.56,0,0,1,267.37,49Z" transform="translate(-221 -36)"/><path class="cls-6" d="M290,52.33a1,1,0,0,0,1-1V45.49a2.39,2.39,0,0,0-3.19-2.25l-12.74,4.5a13.37,13.37,0,0,0-25.58-3.57l-4-1.42a2.41,2.41,0,0,0-1.59,0L222.6,50.27a2.39,2.39,0,0,0-1.6,2.26V93.29a2.41,2.41,0,0,0,1,1.95,2.38,2.38,0,0,0,1.38.44,2.21,2.21,0,0,0,.8-.14l7.05-2.49a1,1,0,1,0-.68-1.93l-7.05,2.49a.33.33,0,0,1-.31,0,.33.33,0,0,1-.15-.28v-8L243.65,78v8.5L235,89.55a1,1,0,0,0,.68,1.93l8.87-3.13a.3.3,0,0,1,.23,0L266.53,96a2.5,2.5,0,0,0,1.59,0l21.28-7.52a2.4,2.4,0,0,0,1.6-2.26V56A1,1,0,1,0,289,56V86.25a.32.32,0,0,1-.23.32l-20.37,7.2V62.92c.66-.85,1.33-1.74,2-2.66,3-4.28,4.64-7.77,4.83-10.38l13.34-4.71a.33.33,0,0,1,.31,0,.33.33,0,0,1,.15.28v5.82A1,1,0,0,0,290,52.33ZM223.05,66.62l20.6-7.28v5.38L223.05,72Zm20.6-9.46-20.6,7.28V62.17l20.6-7.28Zm-20.6,17,20.6-7.28v3l-20.6,7.27Zm.23-22L243.65,45v7.7L223.05,60V52.53A.32.32,0,0,1,223.28,52.21Zm-.23,30.88V79.31L243.65,72v3.78Zm38.89-15.76a.19.19,0,0,1-.14.06.17.17,0,0,1-.13-.06c-1.12-1.21-3.3-3.68-5.45-6.52a1,1,0,0,0-1.64,1.24c2.2,2.91,4.44,5.43,5.58,6.67a2.24,2.24,0,0,0,3.29,0c.7-.77,1.71-1.9,2.85-3.25v28.3l-20.6-7.28V45l3.14,1.11a12.92,12.92,0,0,0-.4,3.25c0,2.21,1.13,5.12,3.36,8.67a1,1,0,1,0,1.73-1.1c-2-3.16-3-5.78-3-7.57a11.32,11.32,0,1,1,22.63,0C273.12,53.62,267.34,61.44,261.94,67.33Z" transform="translate(-221 -36)"/><path class="cls-6" d="M261.8,42.36a6.6,6.6,0,1,0,6.59,6.6A6.6,6.6,0,0,0,261.8,42.36Zm0,11.14A4.54,4.54,0,1,1,266.34,49,4.55,4.55,0,0,1,261.8,53.5Z" transform="translate(-221 -36)"/><path class="cls-6" d="M249.66,70.34l3,1.07a1,1,0,0,0,.34.06,1,1,0,0,0,1-.69,1,1,0,0,0-.63-1.31l-3-1.06a1,1,0,1,0-.69,1.93Z" transform="translate(-221 -36)"/><path class="cls-6" d="M249,75.61a1,1,0,0,0,.62,1.31l10.88,3.84a1,1,0,0,0,.34.06,1,1,0,0,0,.34-2L250.35,75A1,1,0,0,0,249,75.61Z" transform="translate(-221 -36)"/><path class="cls-6" d="M261.22,83.19l-10.88-3.84A1,1,0,0,0,249,80a1,1,0,0,0,.62,1.31l10.88,3.84a1,1,0,0,0,.34.06,1,1,0,0,0,.34-2Z" transform="translate(-221 -36)"/><path class="cls-6" d="M280.14,59.58h-.33v-.34a1,1,0,0,0-2.05,0v.34h-.33a1,1,0,1,0,0,2.05h.33V62a1,1,0,0,0,2.05,0v-.33h.33a1,1,0,1,0,0-2.05Z" transform="translate(-221 -36)"/><path class="cls-6" d="M280.14,69.16h-.33v-.33a1,1,0,1,0-2.05,0v.33h-.33a1,1,0,1,0,0,2h.33v.33a1,1,0,1,0,2.05,0v-.33h.33a1,1,0,1,0,0-2Z" transform="translate(-221 -36)"/><path class="cls-6" d="M278.79,82.15a1,1,0,0,0,1-1V80.8h.33a1,1,0,1,0,0-2h-.33v-.34a1,1,0,0,0-2.05,0v.34h-.33a1,1,0,1,0,0,2h.33v.33A1,1,0,0,0,278.79,82.15Z" transform="translate(-221 -36)"/></svg>