<svg xmlns="http://www.w3.org/2000/svg" viewBox="0 0 130 130"><defs><style>.cls-1{fill:#ffcb05;}.cls-2{fill:#fff5f5;}.cls-3{fill:#6c6ff2;}.cls-4{fill:#fc3e59;}.cls-5{fill:#1b2c38;}</style></defs><title>Tracking-Reporting</title><g id="Layer_1" data-name="Layer 1"><circle class="cls-1" cx="65" cy="65" r="65"/></g><g id="Layer_2" data-name="Layer 2"><path class="cls-2" d="M312.87,352.63h64v36.9h-64Z" transform="translate(-279.88 -315.4)"/><path class="cls-3" d="M376.88,352.63h-64a2,2,0,0,1-2-2V348.4a2,2,0,0,1,2-2h64a2,2,0,0,1,2,2v2.26A2,2,0,0,1,376.88,352.63Z" transform="translate(-279.88 -315.4)"/><path class="cls-3" d="M376.88,395.73h-64a2,2,0,0,1-2-2V391.5a2,2,0,0,1,2-2h64a2,2,0,0,1,2,2v2.27A2,2,0,0,1,376.88,395.73Z" transform="translate(-279.88 -315.4)"/><path class="cls-1" d="M348,401.41v-5.68H341.8v5.68a1.66,1.66,0,0,1-.68,1.33,6.42,6.42,0,1,0,7.5,0A1.66,1.66,0,0,1,348,401.41Z" transform="translate(-279.88 -315.4)"/><path class="cls-2" d="M347.48,408a2.61,2.61,0,1,1-2.6-2.61A2.6,2.6,0,0,1,347.48,408Z" transform="translate(-279.88 -315.4)"/><path class="cls-4" d="M338.46,371.08a9.13,9.13,0,1,1-9.13-9.14A9.14,9.14,0,0,1,338.46,371.08Z" transform="translate(-279.88 -315.4)"/><path class="cls-1" d="M338.46,371.08a9.13,9.13,0,1,1-9.13-9.14v6.79a2.35,2.35,0,0,0,2.35,2.35Z" transform="translate(-279.88 -315.4)"/><path class="cls-5" d="M344.88,411.59a3.64,3.64,0,1,0-3.64-3.64A3.64,3.64,0,0,0,344.88,411.59Zm0-5.23a1.59,1.59,0,1,1-1.59,1.59A1.59,1.59,0,0,1,344.88,406.36Z" transform="translate(-279.88 -315.4)"/><path class="cls-5" d="M376.88,360a1,1,0,0,0,1-1v-5.47a3,3,0,0,0,2-2.82V348.4a3,3,0,0,0-3-3h-64a3,3,0,0,0-3,3v2.26a3,3,0,0,0,2,2.82v35.21a3,3,0,0,0-2,2.81v2.27a3,3,0,0,0,3,3h27.9v4.65a.61.61,0,0,1-.26.5,7.46,7.46,0,0,0,4.08,13.49h.29a7.44,7.44,0,0,0,7.44-7.45,7.48,7.48,0,0,0-3.1-6.05.62.62,0,0,1-.24-.49v-4.65h8.48a1,1,0,1,0,0-2.05H312.87a1,1,0,0,1-.94-.94V391.5a.94.94,0,0,1,.94-.94h64a.94.94,0,0,1,.94.94v2.27a1,1,0,0,1-.94.94H362.14a1,1,0,1,0,0,2.05h14.74a3,3,0,0,0,3-3V391.5a3,3,0,0,0-2-2.81v-25a1,1,0,0,0-2.05,0v24.8h-62V353.66h62V359A1,1,0,0,0,376.88,360Zm-35.16,43.59a2.69,2.69,0,0,0,1.11-2.16v-4.65h4.09v4.65a2.7,2.7,0,0,0,1.1,2.16,5.39,5.39,0,0,1,.59,8.27,5.3,5.3,0,0,1-3.95,1.5,5.4,5.4,0,0,1-2.94-9.77Zm-28.85-52a.94.94,0,0,1-.94-.94V348.4a.94.94,0,0,1,.94-.94h64a.94.94,0,0,1,.94.94v2.26a.94.94,0,0,1-.94.94Z" transform="translate(-279.88 -315.4)"/><path class="cls-5" d="M319.17,371.08a10.16,10.16,0,0,0,20.26,1,8.94,8.94,0,0,0,.05-1,10.16,10.16,0,1,0-20.31,0Zm18.18,1.14a8.07,8.07,0,0,1-.4,1.61,8.21,8.21,0,0,1-1.33,2.36,8.24,8.24,0,0,1-2.7,2.16,8.07,8.07,0,0,1-11.2-4.48,8.31,8.31,0,0,1-.16-5.1,8.5,8.5,0,0,1,1.39-2.69,8,8,0,0,1,3.58-2.59,8.47,8.47,0,0,1,1.78-.46c-.09,1.89,0,3.81,0,5.7a3.39,3.39,0,0,0,3.38,3.38h5.68S337.35,372.18,337.35,372.22Zm-7-9.19a8.13,8.13,0,0,1,7,7h-5.68a1.33,1.33,0,0,1-1.33-1.32V363Z" transform="translate(-279.88 -315.4)"/><path class="cls-5" d="M343.7,367h1.95a1,1,0,0,0,0-2.06H343.7a1,1,0,0,0,0,2.06Z" transform="translate(-279.88 -315.4)"/><path class="cls-5" d="M369.55,365H350.46a1,1,0,0,0,0,2.06h19.09a1,1,0,0,0,0-2.06Z" transform="translate(-279.88 -315.4)"/><path class="cls-5" d="M369.55,375.15h-7.92a1,1,0,0,0,0,2.05h7.92a1,1,0,1,0,0-2.05Z" transform="translate(-279.88 -315.4)"/><path class="cls-5" d="M343.7,375.15a1,1,0,1,0,0,2.05h13.12a1,1,0,0,0,0-2.05Z" transform="translate(-279.88 -315.4)"/><path class="cls-5" d="M369.55,370.05H343.7a1,1,0,1,0,0,2.06h25.85a1,1,0,0,0,0-2.06Z" transform="translate(-279.88 -315.4)"/></g></svg>