<svg id="Layer_1" data-name="Layer 1" xmlns="http://www.w3.org/2000/svg" viewBox="0 0 70 70"><defs><style>.cls-1{fill:#6c6ff2;}.cls-2{fill:#ffcb05;}.cls-3{fill:#1b2c38;}</style></defs><title>phone</title><path class="cls-1" d="M35,1.13a33.87,33.87,0,0,0-28,53L2.57,67.43,15.91,63A33.87,33.87,0,1,0,35,1.13Z"/><path class="cls-2" d="M50.84,45.13a66.1,66.1,0,0,0-5.29-4.71l-4,4-16-16,4-4a66.1,66.1,0,0,0-4.71-5.29,68.14,68.14,0,0,0-5.29-4.71s-4.78,4.4-5.11,7.88C14,27,19,35.49,26.75,43.25S43,56,47.67,55.53c3.48-.33,7.88-5.11,7.88-5.11A68.14,68.14,0,0,0,50.84,45.13Z"/><path class="cls-3" d="M51.64,44.33a67.51,67.51,0,0,0-5.39-4.8,1.14,1.14,0,0,0-1.5.09l-3.19,3.19L33,34.24a1.13,1.13,0,0,0-1.6,1.6l9.37,9.37a1.13,1.13,0,0,0,1.6,0l3.27-3.27c1,.81,2.75,2.32,4.42,4s3.18,3.44,4,4.42c-1.51,1.48-4.36,3.86-6.48,4-4.35.4-12.58-4.51-20-11.94s-12.35-15.67-12-20c.19-2.12,2.57-5,4-6.48,1,.81,2.75,2.32,4.42,4s3.18,3.43,4,4.41l-3.27,3.27a1.15,1.15,0,0,0-.33.8,1.14,1.14,0,0,0,.33.8l3.41,3.41a1.13,1.13,0,1,0,1.6-1.6l-2.61-2.61,3.19-3.19a1.13,1.13,0,0,0,.09-1.49,64.86,64.86,0,0,0-4.8-5.4,64.86,64.86,0,0,0-5.4-4.8,1.12,1.12,0,0,0-1.46.06c-.52.48-5.11,4.8-5.46,8.61C12.88,27.28,18,36.05,26,44.05c7.66,7.66,16,12.63,21.16,12.63q.33,0,.66,0c3.81-.35,8.13-4.94,8.61-5.46a1.12,1.12,0,0,0,.06-1.46A64.86,64.86,0,0,0,51.64,44.33Z"/><path class="cls-3" d="M59.75,10.25a35,35,0,0,0-54,44L1.5,67.08A1.12,1.12,0,0,0,2.92,68.5l12.83-4.27a35,35,0,0,0,44-54ZM35,67.74a32.6,32.6,0,0,1-18.45-5.69,1.13,1.13,0,0,0-.64-.2,1,1,0,0,0-.35.06L4.35,65.65,8.09,54.44a1.12,1.12,0,0,0-.14-1A32.74,32.74,0,1,1,35,67.74Z"/></svg>