<svg id="Layer_1" data-name="Layer 1" xmlns="http://www.w3.org/2000/svg" viewBox="0 0 70 70"><defs><style>.cls-1{fill:#ffcb05;}.cls-2{fill:#636c78;}.cls-3{fill:#27c7cd;}.cls-4{fill:#f1f2ec;}.cls-5{fill:#949fac;}.cls-6{fill:#fc3e59;}.cls-7{fill:#1b2c38;}</style></defs><title>Faster-Performance</title><path class="cls-1" d="M61.85,31.55l-2.49-7.66L65,22.07a2.14,2.14,0,0,1,2.69,1.37L68.85,27a2.13,2.13,0,0,1-1.37,2.69Z" transform="translate(0.01 -0.06)"/><path class="cls-1" d="M45.73,12.29,38,10.08,39.6,4.39a2.14,2.14,0,0,1,2.64-1.47l3.64,1A2.13,2.13,0,0,1,47.35,6.6Z" transform="translate(0.01 -0.06)"/><path class="cls-2" d="M62.5,14.8,54.87,8.05a1.92,1.92,0,0,1-.17-2.71l3.2-3.61a1.92,1.92,0,0,1,2.71-.16l7.63,6.75A1.9,1.9,0,0,1,68.4,11l-3.19,3.61A1.93,1.93,0,0,1,62.5,14.8Z" transform="translate(0.01 -0.06)"/><path class="cls-2" d="M55.49,8.6l6.39,5.65-5.65,6.38L49.84,15Z" transform="translate(0.01 -0.06)"/><path class="cls-3" d="M65.35,38.58A30.48,30.48,0,1,1,34.87,8.12,30.47,30.47,0,0,1,65.35,38.58Z" transform="translate(0.01 -0.06)"/><path class="cls-4" d="M58.77,38.58A23.9,23.9,0,1,1,34.87,14.7,23.89,23.89,0,0,1,58.77,38.58Z" transform="translate(0.01 -0.06)"/><path class="cls-5" d="M37,39.74a3.11,3.11,0,0,1,4.29-1l7.23,4.59a3.11,3.11,0,1,1-3.34,5.25L38,44A3.1,3.1,0,0,1,37,39.74Z" transform="translate(0.01 -0.06)"/><path class="cls-6" d="M42.58,38.58a7.71,7.71,0,1,1-7.71-7.7A7.71,7.71,0,0,1,42.58,38.58Z" transform="translate(0.01 -0.06)"/><path class="cls-7" d="M26.15,38.58A8.72,8.72,0,0,0,39.29,46.1L41,47.19a1,1,0,0,0,1.1-1.73l-1.1-.7A8.72,8.72,0,0,0,43.2,41.2l4.78,3a2.09,2.09,0,0,1-2,3.67,1,1,0,0,0-.84,1.87,4.14,4.14,0,0,0,3.92-7.27L43.59,39c0-.15,0-.29,0-.44a8.73,8.73,0,0,0-17.45,0Zm8.72-6.67a6.67,6.67,0,1,1-6.67,6.67A6.68,6.68,0,0,1,34.87,31.91Z" transform="translate(0.01 -0.06)"/><path class="cls-7" d="M69.83,26.72l-1.16-3.59a3.19,3.19,0,0,0-4-2l-3,1a30.21,30.21,0,0,0-2.4-3.36l2.67-3a2.94,2.94,0,0,0,1.8.61H64a2.93,2.93,0,0,0,2-1l3.19-3.61a2.94,2.94,0,0,0-.25-4.15L61.29.8a3,3,0,0,0-4.16.25l-3.2,3.61a3,3,0,0,0,.12,4l-2.7,3.05a32.39,32.39,0,0,0-3.83-2l.82-2.85A3.17,3.17,0,0,0,46.16,3l-3.64-1a3.17,3.17,0,0,0-3.91,2.18l-.88,3.12c-.95-.09-1.9-.13-2.86-.13A31.48,31.48,0,0,0,12.6,60.84a31.51,31.51,0,0,0,53-29.41l2.23-.72A3.17,3.17,0,0,0,69.83,26.72ZM55.47,6l3.19-3.61a.91.91,0,0,1,.67-.3.92.92,0,0,1,.6.23l7.63,6.74a.9.9,0,0,1,.08,1.26L64.44,14a.89.89,0,0,1-1.26.08h0L55.55,7.28A.89.89,0,0,1,55.47,6Zm.11,4,4.85,4.28-2.49,2.82c-.26-.28-.52-.56-.79-.83a32.23,32.23,0,0,0-4.07-3.44Zm-15-5.38A1.11,1.11,0,0,1,42,3.91l3.64,1a1.11,1.11,0,0,1,.76,1.37L45.61,9a31.26,31.26,0,0,0-5.82-1.49ZM55.7,59.39a29.43,29.43,0,1,1,8.62-20.81A29.28,29.28,0,0,1,55.7,59.39ZM67.81,28.2a1.12,1.12,0,0,1-.65.56L65,29.44a31,31,0,0,0-2.29-5.56L65.31,23a1.14,1.14,0,0,1,.85.07,1.1,1.1,0,0,1,.55.65l1.17,3.6A1.07,1.07,0,0,1,67.81,28.2Z" transform="translate(0.01 -0.06)"/><path class="cls-7" d="M35.9,21.21v-2.6a1,1,0,1,0-2,0v2.6a1,1,0,0,0,2,0Z" transform="translate(0.01 -0.06)"/><path class="cls-7" d="M33.85,56v2.6a1,1,0,1,0,2,0V56a1,1,0,0,0-2,0Z" transform="translate(0.01 -0.06)"/><path class="cls-7" d="M34.87,13.67a24.76,24.76,0,0,0-8.74,1.58,1,1,0,0,0,.72,1.92A22.85,22.85,0,1,1,15,27.31a23.15,23.15,0,0,1,7.83-8.15,1,1,0,1,0-1.08-1.74,25.11,25.11,0,0,0-8.53,8.88A24.93,24.93,0,1,0,34.87,13.67Z" transform="translate(0.01 -0.06)"/><path class="cls-7" d="M54.86,39.61a1,1,0,0,0,0-2.06h-2.6a1,1,0,0,0,0,2.06Z" transform="translate(0.01 -0.06)"/><path class="cls-7" d="M14.89,37.55a1,1,0,0,0,0,2.06h2.6a1,1,0,0,0,0-2.06Z" transform="translate(0.01 -0.06)"/><path class="cls-7" d="M3.34,13.93v-2.6a1,1,0,0,0-2.06,0v2.6a1,1,0,0,0,2.06,0Z" transform="translate(0.01 -0.06)"/><path class="cls-7" d="M1,13.66h2.6a1,1,0,1,0,0-2.06H1a1,1,0,0,0,0,2.06Z" transform="translate(0.01 -0.06)"/><path class="cls-7" d="M10.38,7.89V5.29a1,1,0,0,0-2.06,0v2.6a1,1,0,0,0,2.06,0Z" transform="translate(0.01 -0.06)"/><path class="cls-7" d="M8.05,7.62h2.6a1,1,0,0,0,0-2H8.05a1,1,0,1,0,0,2.05Z" transform="translate(0.01 -0.06)"/></svg>