<svg id="Layer_1" data-name="Layer 1" xmlns="http://www.w3.org/2000/svg" viewBox="0 0 70 70"><defs><style>.cls-1{fill:#95d133;}.cls-2{fill:#ffcb05;}.cls-3{fill:#27c7cd;}.cls-4{fill:#8eafe2;}.cls-5{fill:#1b2c38;}</style></defs><title>Link-Building-Content</title><path class="cls-1" d="M278.72,49a11.69,11.69,0,1,0,0,16.54A11.68,11.68,0,0,0,278.72,49Z" transform="translate(-221)"/><path class="cls-2" d="M260.8,50.57a18.54,18.54,0,0,1-13.19-5.46l-1.71-1.72a4.74,4.74,0,1,1,6.71-6.7l1.71,1.71a9.16,9.16,0,0,0,12.95,0l10.54-10.54a9.16,9.16,0,0,0,0-12.95L276.1,13.2a9.15,9.15,0,0,0-13,0,4.74,4.74,0,1,1-6.7-6.71,18.65,18.65,0,0,1,26.37,0l1.71,1.71a18.67,18.67,0,0,1,0,26.37L274,45.11A18.52,18.52,0,0,1,260.8,50.57Z" transform="translate(-221)"/><path class="cls-3" d="M242.37,69a18.56,18.56,0,0,1-13.18-5.46l-1.72-1.71a18.67,18.67,0,0,1,0-26.37L238,24.9a18.67,18.67,0,0,1,26.37,0l1.71,1.72a18.65,18.65,0,0,1,0,26.37L255.56,63.52A18.59,18.59,0,0,1,242.37,69Zm8.82-40.05a9.09,9.09,0,0,0-6.47,2.68L234.18,42.15a9.17,9.17,0,0,0,0,13l1.71,1.71a9.15,9.15,0,0,0,13,0l10.53-10.53a9.15,9.15,0,0,0,0-13l-1.71-1.71A9.1,9.1,0,0,0,251.19,28.93Z" transform="translate(-221)"/><path class="cls-4" d="M229.14,44.28a1,1,0,0,1-1-1V40.35a1,1,0,1,1,2.06,0v2.91A1,1,0,0,1,229.14,44.28Z" transform="translate(-221)"/><path class="cls-4" d="M226.51,49.73a1,1,0,0,1-1-1V47.11a1,1,0,1,1,2.05,0V48.7A1,1,0,0,1,226.51,49.73Z" transform="translate(-221)"/><path class="cls-2" d="M249.25,44.78a4.72,4.72,0,0,1-3.35-1.39,18.67,18.67,0,0,1,0-26.37L256.44,6.49a4.74,4.74,0,0,1,6.7,6.71L252.61,23.73a9.18,9.18,0,0,0,0,13,4.74,4.74,0,0,1-3.36,8.09Z" transform="translate(-221)"/><path class="cls-5" d="M274.79,56.26h-8.67a1,1,0,0,0,0,2.05h8.67a1,1,0,0,0,0-2.05ZM285.24,7.47l-1.71-1.71A19.68,19.68,0,0,0,258,3.82a1,1,0,0,0-.22,1.43,1,1,0,0,0,1.44.22,17.62,17.62,0,0,1,22.89,1.74l1.71,1.71a17.65,17.65,0,0,1,0,24.93L273.26,44.38a18,18,0,0,1-1.61,1.42A19.86,19.86,0,0,0,272,35.11l6.52-6.52a10.2,10.2,0,0,0,0-14.41l-1.72-1.71a10.19,10.19,0,0,0-14.4,0L251.88,23a10.19,10.19,0,0,0,0,14.39h0l1.71,1.71a10.1,10.1,0,0,0,7.12,3,8,8,0,0,1-2,3.45l-3.18,3.18a17.61,17.61,0,0,1-7.14-4.35l-1.72-1.71a17.56,17.56,0,0,1-4.51-7.75h0a17.62,17.62,0,0,1,4.51-17.16l9.11-9.11a1,1,0,0,0-1.45-1.45l-9.11,9.11a19.66,19.66,0,0,0-3.37,4.51,19.72,19.72,0,0,0-4.52,3.37L226.75,34.71a19.71,19.71,0,0,0,0,27.83l1.71,1.71a1,1,0,0,0,1.45-1.45l-1.71-1.71a17.65,17.65,0,0,1,0-24.93l10.53-10.53a18.33,18.33,0,0,1,1.63-1.43A19.85,19.85,0,0,0,240,34.9l-6.52,6.52a10.2,10.2,0,0,0,0,14.41l1.71,1.71a10.19,10.19,0,0,0,14.4,0l6.94-6.94h0l3.59-3.6a10.19,10.19,0,0,0,0-14.4l-1.71-1.71a10.1,10.1,0,0,0-7.12-3,8.07,8.07,0,0,1,2.05-3.45l3.17-3.17a17.63,17.63,0,0,1,7.16,4.34l1.71,1.71a17.62,17.62,0,0,1,0,24.92L254.83,62.8a17.66,17.66,0,0,1-21.23,2.82,1,1,0,0,0-1.4.38,1,1,0,0,0,.38,1.4,19.71,19.71,0,0,0,23.7-3.15l2.33-2.33A12.72,12.72,0,1,0,275.1,45.44L285.24,35.3A19.71,19.71,0,0,0,285.24,7.47ZM248.12,56.09a8.14,8.14,0,0,1-11.5,0l-1.71-1.71a8.15,8.15,0,0,1,0-11.51l5.76-5.76a19.48,19.48,0,0,0,4.5,7l1.72,1.71a19.74,19.74,0,0,0,7,4.51ZM257,32.34l1.71,1.71A8.07,8.07,0,0,1,261,39.8v.25h-.24A8.08,8.08,0,0,1,255,37.67l-1.7-1.7h0A8.09,8.09,0,0,1,251,30.21V30h.23A8.09,8.09,0,0,1,257,32.34Zm9.87-6.45-1.71-1.71a19.62,19.62,0,0,0-7-4.5l5.76-5.76a8.14,8.14,0,0,1,11.5,0l1.72,1.71a8.15,8.15,0,0,1,0,11.51l-5.76,5.75A19.54,19.54,0,0,0,266.82,25.89Zm12,24.72a10.57,10.57,0,0,1,2.34,6.67,10.67,10.67,0,0,1-20.9,3l5.53-5.53a1.16,1.16,0,0,0,.37.07h8.67a1,1,0,0,0,0-2.05h-7.12a19.54,19.54,0,0,0,2.52-3.59A19.36,19.36,0,0,0,273.4,47,10.79,10.79,0,0,1,278.78,50.61Zm-4,9.1h-8.67a1,1,0,0,0,0,2h8.67a1,1,0,0,0,0-2Z" transform="translate(-221)"/></svg>