<svg id="Layer_1" data-name="Layer 1" xmlns="http://www.w3.org/2000/svg" viewBox="0 0 70 70"><defs><style>.cls-1{fill:#27c7cd;}.cls-2{fill:#20afab;}.cls-3{fill:#fc3e59;}.cls-4{fill:#fff;}.cls-5{fill:#1b2c38;}</style></defs><title>location</title><polygon class="cls-1" points="68.87 18.17 68.87 68.87 51.94 62.85 47.42 37.5 51.94 12.15 68.87 18.17"/><polygon class="cls-2" points="51.94 12.15 51.94 62.85 35 68.87 31.99 43.52 35 18.17 51.94 12.15"/><polygon class="cls-1" points="35 18.17 35 68.87 18.06 62.85 13.55 37.5 18.06 12.15 35 18.17"/><polygon class="cls-2" points="18.06 12.15 18.06 62.85 1.13 68.87 1.13 18.17 18.06 12.15"/><path class="cls-3" d="M58.77,16.43C58.77,28.67,44.94,40,44.94,40A2.43,2.43,0,0,1,42,40S28.17,28.67,28.17,16.43a15.3,15.3,0,0,1,30.6,0Z" transform="translate(0)"/><path class="cls-4" d="M43.47,24.12a7.7,7.7,0,1,1,7.7-7.69A7.71,7.71,0,0,1,43.47,24.12Z" transform="translate(0)"/><path class="cls-5" d="M69.25,17.11l-5.51-2A1.13,1.13,0,1,0,63,17.28L67.74,19v48.3L53.07,62.05V39.58a1.13,1.13,0,0,0-2.26,0V62.05L36.13,67.27V39.59a1.13,1.13,0,0,0-2.26,0V67.27L19.2,62.05V22.69a1.13,1.13,0,1,0-2.26,0V62.05L2.26,67.27V19l14.68-5.22v4.42a1.13,1.13,0,0,0,2.26,0V13.75l4.21,1.5a1.13,1.13,0,0,0,.75-2.13l-5.72-2h0l-.16,0h0l-.17,0h0l-.18,0h0l-.17,0h0l-16.94,6A1.12,1.12,0,0,0,0,18.17v50.7a1.13,1.13,0,0,0,1.51,1.06l16.56-5.88,16.55,5.88h0l.17,0h.4l.17,0h0l16.56-5.88,16.55,5.88a1.06,1.06,0,0,0,.38.07,1.1,1.1,0,0,0,.65-.21,1.12,1.12,0,0,0,.48-.92V18.17A1.12,1.12,0,0,0,69.25,17.11Z" transform="translate(0)"/><path class="cls-5" d="M41.28,40.89a3.48,3.48,0,0,0,2.19.75,3.43,3.43,0,0,0,2.18-.75,51.71,51.71,0,0,0,7.09-7.38c4.75-6,7.15-11.74,7.15-17.08a16.43,16.43,0,1,0-32.85,0c0,5.34,2.41,11.09,7.16,17.08A52.61,52.61,0,0,0,41.28,40.89ZM43.47,2.26A14.18,14.18,0,0,1,57.64,16.43C57.64,28,44.36,39,44.22,39.14a1.26,1.26,0,0,1-1.5,0C42.58,39,29.3,28,29.3,16.43A14.18,14.18,0,0,1,43.47,2.26Z" transform="translate(0)"/><path class="cls-5" d="M52.29,16.43a8.83,8.83,0,1,0-8.82,8.82A8.83,8.83,0,0,0,52.29,16.43Zm-15.39,0A6.57,6.57,0,1,1,43.47,23,6.57,6.57,0,0,1,36.9,16.43Z" transform="translate(0)"/></svg>