<svg id="Layer_1" data-name="Layer 1" xmlns="http://www.w3.org/2000/svg" viewBox="0 0 70 70"><defs><style>.cls-1{fill:#27c7cd;}.cls-2{fill:#ffcb05;}.cls-3{fill:#1b2c38;}</style></defs><title>roi</title><path class="cls-1" d="M273.83,240A33.83,33.83,0,1,1,240,206.17,33.82,33.82,0,0,1,273.83,240Z" transform="translate(-205 -205)"/><path class="cls-2" d="M262.17,240A22.17,22.17,0,1,1,240,217.83,22.18,22.18,0,0,1,262.17,240Z" transform="translate(-205 -205)"/><path class="cls-3" d="M240,205a35,35,0,1,0,35,35A35,35,0,0,0,240,205Zm0,67.67A32.67,32.67,0,1,1,272.67,240,32.67,32.67,0,0,1,240,272.67Z" transform="translate(-205 -205)"/><path class="cls-3" d="M260,228.05a23.33,23.33,0,1,0-20,35.28V261a21,21,0,1,1,17.69-32.31l-5.43,1.48,9.91,9.83,3.56-13.5Z" transform="translate(-205 -205)"/><path class="cls-3" d="M241.17,255.17v-2.42c4-.48,7-3.4,7-6.92s-3-6.43-7-6.92v-9.32c2.66.44,4.66,2.32,4.66,4.58h2.34c0-3.52-3-6.44-7-6.92v-2.42h-2.34v2.42c-4,.48-7,3.4-7,6.92s3,6.43,7,6.92v9.32c-2.66-.44-4.66-2.32-4.66-4.58h-2.34c0,3.52,3,6.44,7,6.92v2.42Zm4.66-9.34c0,2.26-2,4.14-4.66,4.58v-9.15C243.83,241.7,245.83,243.58,245.83,245.83Zm-11.66-11.66c0-2.26,2-4.14,4.66-4.58v9.15C236.17,238.3,234.17,236.42,234.17,234.17Z" transform="translate(-205 -205)"/><path class="cls-3" d="M258.49,250l2.06,1.1a23.13,23.13,0,0,0,1.75-4.17l-2.23-.69A20.65,20.65,0,0,1,258.49,250Z" transform="translate(-205 -205)"/><path class="cls-3" d="M246.21,260.07l.69,2.23a24.2,24.2,0,0,0,4.17-1.75L250,258.49A20.55,20.55,0,0,1,246.21,260.07Z" transform="translate(-205 -205)"/><path class="cls-3" d="M253.34,256.22l1.48,1.8a23.6,23.6,0,0,0,3.2-3.2l-1.8-1.48A21.77,21.77,0,0,1,253.34,256.22Z" transform="translate(-205 -205)"/></svg>