<svg id="Layer_1" data-name="Layer 1" xmlns="http://www.w3.org/2000/svg" viewBox="0 0 70 64.43"><defs><style>.cls-1{fill:#949fac;}.cls-2{fill:#f1f2ec;}.cls-3{fill:#fc3e59;}.cls-4{fill:#fff;}.cls-5{fill:#1b2c38;}</style></defs><title>Video-Advertising</title><polygon class="cls-1" points="68.87 51.26 68.87 63.3 1.13 63.3 1.13 51.26 35 46.74 68.87 51.26"/><rect class="cls-2" x="1.13" y="1.13" width="67.74" height="50.13"/><circle class="cls-3" cx="34.92" cy="26.19" r="16.43"/><polygon class="cls-4" points="29.49 16.77 45.82 26.19 29.49 35.62 29.49 16.77"/><path class="cls-5" d="M250.49,260.54a1.16,1.16,0,0,0,.57-.15L267.39,251a1.14,1.14,0,0,0,.56-1,1.13,1.13,0,0,0-.56-1l-16.33-9.43a1.14,1.14,0,0,0-1.7,1v18.86a1.15,1.15,0,0,0,.57,1A1.12,1.12,0,0,0,250.49,260.54Zm1.13-18L264.56,250l-12.94,7.47V242.51Z" transform="translate(-221 -223.78)"/><path class="cls-5" d="M255.92,232.42a17.55,17.55,0,0,0-17.39,15.15,1.13,1.13,0,1,0,2.23.3,15.31,15.31,0,1,1,0,4.21,1.13,1.13,0,0,0-2.23.31,17.56,17.56,0,1,0,17.39-20Z" transform="translate(-221 -223.78)"/><path class="cls-5" d="M283.85,279.94h-55.7a1.13,1.13,0,1,0,0,2.25h55.7a1.13,1.13,0,1,0,0-2.25Z" transform="translate(-221 -223.78)"/><path class="cls-5" d="M289.87,223.78H222.13a1.14,1.14,0,0,0-1.13,1.13v62.18a1.14,1.14,0,0,0,1.13,1.13h67.74a1.14,1.14,0,0,0,1.13-1.13V224.91A1.14,1.14,0,0,0,289.87,223.78ZM223.26,226h65.48v47.87H223.26Zm0,59.92v-9.79h65.48V286Z" transform="translate(-221 -223.78)"/></svg>