<svg id="Layer_1" data-name="Layer 1" xmlns="http://www.w3.org/2000/svg" viewBox="0 0 70 70"><defs><style>.cls-1{fill:#f1f2ec;}.cls-2{fill:#27c7cd;}.cls-3{fill:#fc3e59;}.cls-4{fill:#e6e7e8;}.cls-5{fill:#ffcb05;}.cls-6{fill:#95d133;}.cls-7{fill:#1b2c38;}</style></defs><title>Custom-Website-Design</title><path class="cls-1" d="M286.49,69h-61A3.48,3.48,0,0,1,222,65.49v-61A3.48,3.48,0,0,1,225.51,1h61A3.48,3.48,0,0,1,290,4.51v61A3.48,3.48,0,0,1,286.49,69Z" transform="translate(-221)"/><path class="cls-2" d="M280.54,37H268.09a3.68,3.68,0,0,1-3.68-3.68V22.54a3.68,3.68,0,0,1,3.68-3.68h12.45a3.68,3.68,0,0,1,3.68,3.68v10.8A3.68,3.68,0,0,1,280.54,37Z" transform="translate(-221)"/><path class="cls-3" d="M280.54,62.55H268.09a3.68,3.68,0,0,1-3.68-3.68V48.07a3.68,3.68,0,0,1,3.68-3.68h12.45a3.68,3.68,0,0,1,3.68,3.68v10.8A3.68,3.68,0,0,1,280.54,62.55Z" transform="translate(-221)"/><path class="cls-4" d="M290,12.93H222V4.51A3.48,3.48,0,0,1,225.51,1h61A3.48,3.48,0,0,1,290,4.51Z" transform="translate(-221)"/><path class="cls-3" d="M230.47,7a2,2,0,1,1-2-2A2,2,0,0,1,230.47,7Z" transform="translate(-221)"/><path class="cls-5" d="M238.13,7a2,2,0,1,1-2-2A2,2,0,0,1,238.13,7Z" transform="translate(-221)"/><path class="cls-6" d="M245.8,7a2,2,0,1,1-2-2A2,2,0,0,1,245.8,7Z" transform="translate(-221)"/><path class="cls-7" d="M222,14a1,1,0,0,1-1-1V4.51A4.51,4.51,0,0,1,225.51,0h21.65a1,1,0,0,1,0,2.05H225.51a2.47,2.47,0,0,0-2.46,2.46v8.42A1,1,0,0,1,222,14Z" transform="translate(-221)"/><path class="cls-5" d="M255.06,62.55H230.18a3.68,3.68,0,0,1-3.68-3.68V22.54a3.68,3.68,0,0,1,3.68-3.68h24.88a3.67,3.67,0,0,1,3.67,3.68V58.87A3.67,3.67,0,0,1,255.06,62.55Z" transform="translate(-221)"/><path class="cls-7" d="M286.49,0H253.63a1,1,0,1,0,0,2.05h32.86A2.47,2.47,0,0,1,289,4.51V11.9h-65.9V4.51a2.47,2.47,0,0,1,2.46-2.46h21.65a1,1,0,0,0,0-2H225.51A4.51,4.51,0,0,0,221,4.51v61A4.51,4.51,0,0,0,225.51,70h61A4.51,4.51,0,0,0,291,65.49v-61A4.51,4.51,0,0,0,286.49,0ZM289,65.49A2.47,2.47,0,0,1,286.49,68h-61a2.47,2.47,0,0,1-2.46-2.46V14H289Z" transform="translate(-221)"/><path class="cls-7" d="M226.5,25.07a1,1,0,0,0,1-1v-1.5a2.65,2.65,0,0,1,.43-1.45A1,1,0,0,0,226.25,20a4.65,4.65,0,0,0-.77,2.58V24A1,1,0,0,0,226.5,25.07Z" transform="translate(-221)"/><path class="cls-7" d="M229.43,63.51a4.74,4.74,0,0,0,.75.06h3a1,1,0,0,0,0-2h-3l-.42,0a1,1,0,1,0-.33,2Z" transform="translate(-221)"/><path class="cls-7" d="M230.18,19.89h3.63a1,1,0,1,0,0-2.05h-3.64a1,1,0,0,0-1,1A1,1,0,0,0,230.18,19.89Z" transform="translate(-221)"/><path class="cls-7" d="M236.87,63.57h3.63a1,1,0,1,0,0-2h-3.63a1,1,0,1,0,0,2Z" transform="translate(-221)"/><path class="cls-7" d="M237.45,19.89h3.64a1,1,0,0,0,0-2.05h-3.64a1,1,0,1,0,0,2.05Z" transform="translate(-221)"/><path class="cls-7" d="M226.5,32.34a1,1,0,0,0,1-1V27.68a1,1,0,0,0-2.05,0v3.64A1,1,0,0,0,226.5,32.34Z" transform="translate(-221)"/><path class="cls-7" d="M226.83,61.4a1,1,0,0,0,.41-.09,1,1,0,0,0,.52-1.35,2.73,2.73,0,0,1-.23-1.09V56.78a1,1,0,0,0-2.05,0v2.09a4.74,4.74,0,0,0,.41,1.93A1,1,0,0,0,226.83,61.4Z" transform="translate(-221)"/><path class="cls-7" d="M244.14,63.57h3.64a1,1,0,1,0,0-2h-3.64a1,1,0,0,0,0,2Z" transform="translate(-221)"/><path class="cls-7" d="M226.5,39.62a1,1,0,0,0,1-1V35a1,1,0,1,0-2.05,0v3.63A1,1,0,0,0,226.5,39.62Z" transform="translate(-221)"/><path class="cls-7" d="M226.5,54.17a1,1,0,0,0,1-1V49.51a1,1,0,1,0-2.05,0v3.64A1,1,0,0,0,226.5,54.17Z" transform="translate(-221)"/><path class="cls-7" d="M226.5,46.9a1,1,0,0,0,1-1V42.23a1,1,0,0,0-2.05,0v3.64A1,1,0,0,0,226.5,46.9Z" transform="translate(-221)"/><path class="cls-7" d="M258.73,34.51a1,1,0,0,0-1,1v3.64a1,1,0,1,0,2.05,0V35.53A1,1,0,0,0,258.73,34.51Z" transform="translate(-221)"/><path class="cls-7" d="M258.73,27.23a1,1,0,0,0-1,1V31.9a1,1,0,0,0,2.05,0V28.26A1,1,0,0,0,258.73,27.23Z" transform="translate(-221)"/><path class="cls-7" d="M258.73,41.78a1,1,0,0,0-1,1v3.64a1,1,0,0,0,2.05,0V42.81A1,1,0,0,0,258.73,41.78Z" transform="translate(-221)"/><path class="cls-7" d="M257.71,22.54v2.08a1,1,0,1,0,2.05,0V22.54a4.6,4.6,0,0,0-.42-1.93,1,1,0,1,0-1.86.84A2.7,2.7,0,0,1,257.71,22.54Z" transform="translate(-221)"/><path class="cls-7" d="M258.73,49.06a1,1,0,0,0-1,1v3.64a1,1,0,1,0,2.05,0V50.08A1,1,0,0,0,258.73,49.06Z" transform="translate(-221)"/><path class="cls-7" d="M252,19.89h3.06a3,3,0,0,1,.42,0h.16a1,1,0,0,0,1-.86,1,1,0,0,0-.85-1.17,4.71,4.71,0,0,0-.74-.06H252a1,1,0,0,0,0,2.05Z" transform="translate(-221)"/><path class="cls-7" d="M244.73,19.89h3.63a1,1,0,1,0,0-2.05h-3.63a1,1,0,1,0,0,2.05Z" transform="translate(-221)"/><path class="cls-7" d="M251.42,63.57h3.65a1,1,0,1,0,0-2h-3.65a1,1,0,1,0,0,2Z" transform="translate(-221)"/><path class="cls-7" d="M257.58,61.74a1,1,0,0,0,1.41-.3,4.67,4.67,0,0,0,.77-2.57V57.36a1,1,0,1,0-2.05,0v1.51a2.65,2.65,0,0,1-.43,1.45A1,1,0,0,0,257.58,61.74Z" transform="translate(-221)"/><path class="cls-7" d="M264.61,36.54a1.06,1.06,0,0,0,.2.17,4.69,4.69,0,0,0,3.28,1.34h2.82a1,1,0,0,0,0-2.06h-2.82a2.73,2.73,0,0,1-1.07-.22l7.28-6.44,7.29,6.45a2.66,2.66,0,0,1-1,.21H277a1,1,0,1,0,0,2.06h3.5a4.73,4.73,0,0,0,3.38-1.44.46.46,0,0,1,.07-.07v0a4.68,4.68,0,0,0,1.24-3.18V22.54a4.71,4.71,0,0,0-4.7-4.7H268.09a4.7,4.7,0,0,0-3.41,1.46l-.07.08,0,0a4.72,4.72,0,0,0-1.2,3.13v10.8a4.68,4.68,0,0,0,1.09,3A.85.85,0,0,0,264.61,36.54Zm18.58-14v10.8a2.77,2.77,0,0,1-.18,1L275.84,28,283,21.61A2.6,2.6,0,0,1,283.19,22.54Zm-15.1-2.65h12.45a2.57,2.57,0,0,1,1.07.23l-7.31,6.47L267,20.13A2.49,2.49,0,0,1,268.09,19.89Zm-2.65,2.65a2.72,2.72,0,0,1,.16-.91L272.75,28l-7.14,6.32a2.66,2.66,0,0,1-.17-.94Z" transform="translate(-221)"/><path class="cls-7" d="M264.62,62.05l.07.07a4.67,4.67,0,0,0,3.4,1.45h12.45a4.65,4.65,0,0,0,3.39-1.45l.07-.07,0,0a4.66,4.66,0,0,0,1.22-3.16V48.07A4.66,4.66,0,0,0,284,44.91l0,0-.07-.08a4.7,4.7,0,0,0-3.39-1.45H268.09a4.69,4.69,0,0,0-3.39,1.45.6.6,0,0,0-.08.08v0a4.67,4.67,0,0,0-1.23,3.16v10.8A4.67,4.67,0,0,0,264.61,62Zm15.92-.53H268.09A2.73,2.73,0,0,1,267,61.3l7.29-6.46,7.3,6.46A2.73,2.73,0,0,1,280.54,61.52Zm2.65-13.45v10.8a2.6,2.6,0,0,1-.17.93l-7.16-6.33L283,47.14A2.6,2.6,0,0,1,283.19,48.07Zm-15.1-2.65h12.45a2.73,2.73,0,0,1,1.07.22l-7.3,6.46L267,45.64A2.73,2.73,0,0,1,268.09,45.42Zm-2.65,2.65a2.6,2.6,0,0,1,.17-.93l7.16,6.33-7.16,6.33a2.6,2.6,0,0,1-.17-.93Z" transform="translate(-221)"/></svg>