<svg xmlns="http://www.w3.org/2000/svg" viewBox="0 0 130 130"><defs><style>.cls-1{fill:#27c7cd;}.cls-2{fill:#ffcb05;}.cls-3{fill:#7c8388;}.cls-4{fill:#636c78;}.cls-5{fill:#fc3e59;}.cls-6{fill:#e8e9e1;}.cls-7{fill:#1b2c38;}</style></defs><title>Organic-Search</title><g id="Layer_2" data-name="Layer 2"><circle class="cls-1" cx="65" cy="65" r="65"/></g><g id="Layer_3" data-name="Layer 3"><path class="cls-2" d="M48,82.27A8.42,8.42,0,0,1,44,86a.4.4,0,0,0,0,.73,8.42,8.42,0,0,1,4,3.76.42.42,0,0,0,.74,0,8.42,8.42,0,0,1,4-3.76.4.4,0,0,0,0-.73,8.42,8.42,0,0,1-4-3.76A.42.42,0,0,0,48,82.27Z" transform="translate(0.98 -3.35)"/><path class="cls-2" d="M87.45,44.82a8.46,8.46,0,0,1-4,3.76.41.41,0,0,0,0,.74,8.45,8.45,0,0,1,4,3.75.41.41,0,0,0,.73,0,8.41,8.41,0,0,1,4-3.75.41.41,0,0,0,0-.74,8.42,8.42,0,0,1-4-3.76A.41.41,0,0,0,87.45,44.82Z" transform="translate(0.98 -3.35)"/><path class="cls-3" d="M81.44,76.11l-6.75,6.75a2.35,2.35,0,0,1-3.31,0l-3-3a2.35,2.35,0,0,1,0-3.31l6.75-6.75a2.35,2.35,0,0,1,3.31,0l3,3A2.35,2.35,0,0,1,81.44,76.11Z" transform="translate(0.98 -3.35)"/><path class="cls-4" d="M91.83,93.25a4.78,4.78,0,0,1-6.75,0L74.75,82.92l6.75-6.75L91.83,86.5A4.78,4.78,0,0,1,91.83,93.25Z" transform="translate(0.98 -3.35)"/><path class="cls-5" d="M80.57,62a20,20,0,1,1-20-20A20,20,0,0,1,80.57,62Z" transform="translate(0.98 -3.35)"/><path class="cls-2" d="M82.74,54.61a10.86,10.86,0,0,1-5.16,4.83.53.53,0,0,0,0,1,10.86,10.86,0,0,1,5.16,4.84.53.53,0,0,0,.94,0,10.82,10.82,0,0,1,5.16-4.84.53.53,0,0,0,0-1,10.86,10.86,0,0,1-5.16-4.83A.52.52,0,0,0,82.74,54.61Z" transform="translate(0.98 -3.35)"/><path class="cls-6" d="M75.86,62A15.26,15.26,0,1,1,60.6,46.76,15.26,15.26,0,0,1,75.86,62Z" transform="translate(0.98 -3.35)"/><path class="cls-7" d="M53.11,85.31a7.55,7.55,0,0,1-3.64-3.4,1.21,1.21,0,0,0-2.16,0,4.6,4.6,0,0,1-.37.64.8.8,0,0,0,1.33.88l.12-.19a9.13,9.13,0,0,0,3.36,3.15,9.3,9.3,0,0,0-3.36,3.15A9.22,9.22,0,0,0,45,86.39l.37-.21a.8.8,0,0,0-.84-1.36,8.45,8.45,0,0,1-.89.49,1.21,1.21,0,0,0,0,2.17,7.55,7.55,0,0,1,3.64,3.4,1.21,1.21,0,0,0,2.16,0,7.55,7.55,0,0,1,3.64-3.4,1.21,1.21,0,0,0,0-2.17Z" transform="translate(0.98 -3.35)"/><path class="cls-7" d="M83.09,50a7.63,7.63,0,0,1,3.65,3.4,1.18,1.18,0,0,0,1.07.66,1.2,1.2,0,0,0,1.08-.66A7.6,7.6,0,0,1,92.53,50,1.18,1.18,0,0,0,93.21,49a1.21,1.21,0,0,0-.68-1.09,7.63,7.63,0,0,1-3.64-3.39,1.21,1.21,0,0,0-1.08-.67h0a1.19,1.19,0,0,0-1.07.67h0a7.66,7.66,0,0,1-3.65,3.39A1.21,1.21,0,0,0,82.41,49,1.18,1.18,0,0,0,83.09,50Zm4.72-4.23A9.3,9.3,0,0,0,91.17,49a9.22,9.22,0,0,0-3.36,3.15A9.13,9.13,0,0,0,84.45,49,9.22,9.22,0,0,0,87.81,45.8Z" transform="translate(0.98 -3.35)"/><path class="cls-7" d="M92.39,85.94,82.49,76a3.13,3.13,0,0,0-.49-3.8L79.78,70a20.87,20.87,0,0,0,1.46-5.7A9.08,9.08,0,0,1,82,65.58a1.32,1.32,0,0,0,2.36,0,10,10,0,0,1,4.79-4.47,1.31,1.31,0,0,0,.75-1.19,1.33,1.33,0,0,0-.75-1.2,10,10,0,0,1-4.79-4.47,1.32,1.32,0,0,0-2.36,0,9.28,9.28,0,0,1-1.45,2.07,20.74,20.74,0,1,0-12,24.88l2.23,2.22a3.13,3.13,0,0,0,3.8.49l9.9,9.9a5.56,5.56,0,1,0,7.87-7.87ZM83.21,55.41A11.59,11.59,0,0,0,88,59.92a11.57,11.57,0,0,0-4.8,4.5,11.64,11.64,0,0,0-4.8-4.5A11.65,11.65,0,0,0,83.21,55.41ZM60.6,81.19A19.17,19.17,0,1,1,79.24,57.51a11.77,11.77,0,0,1-2,1.21,1.33,1.33,0,0,0-.75,1.08A16,16,0,0,0,72,50.66a16.9,16.9,0,0,0-3-2.38.8.8,0,0,0-1.1.27.81.81,0,0,0,.27,1.09,14.5,14.5,0,1,1-3.22-1.44.8.8,0,1,0,.47-1.53A16.07,16.07,0,1,0,76.56,60.34a1.32,1.32,0,0,0,.68.77,11.66,11.66,0,0,1,2.52,1.62A19.16,19.16,0,0,1,60.6,81.19Zm13.53,1.1a1.53,1.53,0,0,1-2.19,0l-1.81-1.81a21.06,21.06,0,0,0,8.93-8.93l1.82,1.81a1.56,1.56,0,0,1,0,2.19ZM91.26,92.68a3.95,3.95,0,0,1-5.61,0l-9.77-9.76L81.5,77.3l9.76,9.77a3.95,3.95,0,0,1,0,5.61Z" transform="translate(0.98 -3.35)"/><path class="cls-7" d="M56,69.43a.42.42,0,0,1-.24-.09L43.25,59.46,34.75,69a.39.39,0,0,1-.61,0,.54.54,0,0,1,0-.7l8.75-9.85a.4.4,0,0,1,.55-.06L56,68.29,68.85,53.8a.39.39,0,0,1,.61,0,.56.56,0,0,1,0,.7L56.32,69.28A.38.38,0,0,1,56,69.43Z" transform="translate(0.98 -3.35)"/></g></svg>