<svg id="Icon_Set" data-name="Icon Set" xmlns="http://www.w3.org/2000/svg" viewBox="0 0 130 130"><defs><style>.cls-1{fill:#ff5252;}.cls-2{fill:#263238;}.cls-3{fill:#fc3e59;}.cls-4{fill:#ffcb05;}</style></defs><title>Technology</title><path class="cls-1" d="M33.2,120.56a49.32,49.32,0,0,1-12.76-1.68l3.1-11.63a38.46,38.46,0,0,0,4.8,1,37.62,37.62,0,0,0,14.53-1L46,118.88a49,49,0,0,1-6.34,1.26A51.09,51.09,0,0,1,33.2,120.56Z" transform="translate(33 -5)"/><path class="cls-2" d="M33.2,121.76a52,52,0,0,1-6.58-.43,51.52,51.52,0,0,1-6.5-1.28,1.21,1.21,0,0,1-.85-1.48l3.1-11.63a1.18,1.18,0,0,1,.56-.73,1.21,1.21,0,0,1,.91-.12,37.65,37.65,0,0,0,4.66.92,36.67,36.67,0,0,0,9.42,0,39.24,39.24,0,0,0,4.64-.92,1.2,1.2,0,0,1,1.47.85l3.1,11.63a1.2,1.2,0,0,1-.85,1.47,50.68,50.68,0,0,1-6.49,1.29A51.48,51.48,0,0,1,33.2,121.76ZM21.91,118c1.64.39,3.33.7,5,.93a48.29,48.29,0,0,0,12.54,0,47.18,47.18,0,0,0,5-.93L42,108.71a37.93,37.93,0,0,1-3.78.68,38.78,38.78,0,0,1-10,0c-1.28-.17-2.55-.4-3.8-.69Z" transform="translate(33 -5)"/><path class="cls-1" d="M57.89,114l-6-10.42a36.85,36.85,0,0,0,4.06-2.72,37.25,37.25,0,0,0,3.67-3.22l8.51,8.51a50.32,50.32,0,0,1-4.84,4.26A49.71,49.71,0,0,1,57.89,114Z" transform="translate(33 -5)"/><path class="cls-2" d="M57.89,115.16a1.19,1.19,0,0,1-1-.61l-6-10.42a1.2,1.2,0,0,1,.44-1.64,35.64,35.64,0,0,0,7.47-5.75,1.21,1.21,0,0,1,1.71,0l8.51,8.5a1.21,1.21,0,0,1,.35.86A1.19,1.19,0,0,1,69,107a51.39,51.39,0,0,1-5,4.36,50.67,50.67,0,0,1-5.5,3.68A1.21,1.21,0,0,1,57.89,115.16ZM53.5,104l4.82,8.34a47.57,47.57,0,0,0,4.21-2.89,50.64,50.64,0,0,0,3.86-3.31l-6.82-6.81a36.38,36.38,0,0,1-2.91,2.49C55.64,102.55,54.58,103.28,53.5,104Z" transform="translate(33 -5)"/><path class="cls-1" d="M8.71,114.06a49.72,49.72,0,0,1-5.41-3.59,51.45,51.45,0,0,1-5-4.37l8.52-8.51a36.85,36.85,0,0,0,3.78,3.31,35.2,35.2,0,0,0,4.08,2.71Z" transform="translate(33 -5)"/><path class="cls-2" d="M8.71,115.27a1.2,1.2,0,0,1-.6-.16A50.13,50.13,0,0,1-2.55,107a1.2,1.2,0,0,1,0-1.7L6,96.74a1.21,1.21,0,0,1,1.71,0,35.79,35.79,0,0,0,7.61,5.83,1.22,1.22,0,0,1,.45,1.64l-6,10.45A1.22,1.22,0,0,1,8.71,115.27ZM0,106.09a48,48,0,0,0,4,3.42,50.4,50.4,0,0,0,4.24,2.9L13.05,104a38.16,38.16,0,0,1-3.18-2.19,36.89,36.89,0,0,1-3-2.57Z" transform="translate(33 -5)"/><path class="cls-2" d="M-5.31,12.22h-9.63A1.21,1.21,0,0,1-16.15,11a1.21,1.21,0,0,1,1.21-1.21h9.63A1.21,1.21,0,0,1-4.11,11,1.2,1.2,0,0,1-5.31,12.22Z" transform="translate(33 -5)"/><path class="cls-2" d="M-10.13,17a1.21,1.21,0,0,1-1.2-1.21V6.2A1.2,1.2,0,0,1-10.13,5a1.2,1.2,0,0,1,1.2,1.2v9.63A1.21,1.21,0,0,1-10.13,17Z" transform="translate(33 -5)"/><path class="cls-2" d="M-22.17,27.87H-31.8a1.2,1.2,0,0,1-1.2-1.2,1.21,1.21,0,0,1,1.2-1.21h9.63A1.21,1.21,0,0,1-21,26.67,1.21,1.21,0,0,1-22.17,27.87Z" transform="translate(33 -5)"/><path class="cls-2" d="M-27,32.69a1.21,1.21,0,0,1-1.21-1.21V21.85A1.21,1.21,0,0,1-27,20.65a1.2,1.2,0,0,1,1.2,1.2v9.63A1.21,1.21,0,0,1-27,32.69Z" transform="translate(33 -5)"/><path class="cls-2" d="M33.2,135a63.51,63.51,0,0,1-50.13-24.33A63.17,63.17,0,0,1-30.59,71.2a1.2,1.2,0,0,1,1.2-1.2,1.2,1.2,0,0,1,1.2,1.2,60.81,60.81,0,0,0,13.15,38A61.1,61.1,0,0,0,33.2,132.59a1.21,1.21,0,1,1,0,2.41Z" transform="translate(33 -5)"/><path class="cls-2" d="M95.8,72.41a1.21,1.21,0,0,1-1.21-1.21A61.46,61.46,0,0,0,33.2,9.81a1.2,1.2,0,0,1,0-2.4A63.87,63.87,0,0,1,97,71.2,1.21,1.21,0,0,1,95.8,72.41Z" transform="translate(33 -5)"/><path class="cls-2" d="M28.39,9.81H26a1.2,1.2,0,1,1,0-2.4h2.41a1.2,1.2,0,0,1,0,2.4Z" transform="translate(33 -5)"/><path class="cls-2" d="M40.43,135H38a1.21,1.21,0,1,1,0-2.41h2.41a1.21,1.21,0,0,1,0,2.41Z" transform="translate(33 -5)"/><path class="cls-3" d="M81.05,83.24a49.65,49.65,0,0,0,1.51-12A49.37,49.37,0,0,0,33.2,21.85a49.37,49.37,0,0,0-42.74,74l10.42-6a37.32,37.32,0,1,1,67.65-6.62h-6L75.75,96.48,89,83.24Z" transform="translate(33 -5)"/><path class="cls-2" d="M75.75,97.69a1.19,1.19,0,0,1-.85-.36L61.66,84.09a1.18,1.18,0,0,1-.26-1.31A1.21,1.21,0,0,1,62.51,82h5.15A36.12,36.12,0,1,0,1.91,89.26a1.17,1.17,0,0,1,.12.91,1.22,1.22,0,0,1-.56.74l-10.42,6a1.21,1.21,0,0,1-1.64-.44A50.58,50.58,0,1,1,82.57,82H89a1.2,1.2,0,0,1,.86,2L76.6,97.33A1.17,1.17,0,0,1,75.75,97.69ZM65.42,84.44,75.75,94.78,86.09,84.44h-5a1.21,1.21,0,0,1-1-.46,1.19,1.19,0,0,1-.22-1,48.15,48.15,0,1,0-89,11.28l8.34-4.82a38.52,38.52,0,1,1,70.43-5.78,1.21,1.21,0,0,1-1.14.81Z" transform="translate(33 -5)"/><path class="cls-4" d="M48.1,74.75a16,16,0,0,0,0-7.1l.67-.38,1.66-1.45a2.4,2.4,0,0,0,.5-3l-2.14-3.67a2.41,2.41,0,0,0-2.86-1.07l-2.11.71-.68.38A16.43,16.43,0,0,0,37,55.59v-.76l-.44-2.16a2.4,2.4,0,0,0-2.36-1.93h-4.3a2.42,2.42,0,0,0-2.37,1.93l-.43,2.16v.75a16.58,16.58,0,0,0-6.19,3.57l-.68-.39-2.12-.71a2.43,2.43,0,0,0-2.86,1.08L13.07,62.8a2.41,2.41,0,0,0,.49,3l1.67,1.45.66.38a16,16,0,0,0,0,7.1l-.66.38-1.67,1.45a2.4,2.4,0,0,0-.5,3l2.14,3.67a2.43,2.43,0,0,0,2.86,1.08l2.12-.71.67-.39a16.55,16.55,0,0,0,6.2,3.57v.75l.43,2.16a2.42,2.42,0,0,0,2.37,1.94h4.29a2.4,2.4,0,0,0,2.37-1.94L37,87.57v-.75a16.58,16.58,0,0,0,6.19-3.57l.68.39,2.11.71a2.41,2.41,0,0,0,2.86-1.07l2.14-3.68a2.4,2.4,0,0,0-.5-3l-1.66-1.45Zm-16,4.88a8.43,8.43,0,1,1,8.42-8.43A8.42,8.42,0,0,1,32.07,79.63Z" transform="translate(33 -5)"/><path class="cls-2" d="M34.15,92.87h-4.3A3.64,3.64,0,0,1,26.3,90l-.43-2.28a17.34,17.34,0,0,1-5.17-3l-2.25.77a3.65,3.65,0,0,1-4.29-1.6L12,80.21a3.61,3.61,0,0,1,.74-4.53l1.78-1.52a16.92,16.92,0,0,1,0-5.91l-1.78-1.52A3.61,3.61,0,0,1,12,62.2l2.13-3.68a3.68,3.68,0,0,1,4.29-1.61l2.25.79a17.16,17.16,0,0,1,5.17-3l.43-2.28a3.63,3.63,0,0,1,3.55-2.9h4.29a3.63,3.63,0,0,1,3.55,2.9l.44,2.28a17.59,17.59,0,0,1,5.17,3l2.25-.78a3.63,3.63,0,0,1,4.28,1.61L52,62.19a3.62,3.62,0,0,1-.75,4.54l-1.77,1.52a16.92,16.92,0,0,1,0,5.91l1.77,1.52A3.6,3.6,0,0,1,52,80.21l-2.13,3.68a3.66,3.66,0,0,1-4.29,1.61l-2.25-.79a17.16,17.16,0,0,1-5.17,3L37.7,90A3.64,3.64,0,0,1,34.15,92.87ZM20.86,82.05a1.24,1.24,0,0,1,.81.31,15,15,0,0,0,5.73,3.31,1.21,1.21,0,0,1,.85,1.15v.76l.41,1.92a1.21,1.21,0,0,0,1.19,1h4.3a1.22,1.22,0,0,0,1.19-1l.43-2.16,0-.52a1.21,1.21,0,0,1,.85-1.15,15,15,0,0,0,5.73-3.31,1.21,1.21,0,0,1,1.41-.15l.68.39,1.9.61a1.22,1.22,0,0,0,1.44-.54L49.89,79a1.2,1.2,0,0,0-.25-1.51L48,76.05l-.47-.25a1.22,1.22,0,0,1-.58-1.31,14.77,14.77,0,0,0,0-6.57,1.21,1.21,0,0,1,.58-1.31l.66-.38,1.47-1.31a1.2,1.2,0,0,0,.25-1.51l-2.13-3.67a1.21,1.21,0,0,0-1.44-.54l-2.12.71-.45.29a1.22,1.22,0,0,1-1.41-.15,15.16,15.16,0,0,0-5.74-3.31,1.22,1.22,0,0,1-.85-1.15v-.76l-.41-1.92a1.21,1.21,0,0,0-1.19-1H29.86a1.21,1.21,0,0,0-1.19,1l-.44,2.16,0,.51a1.22,1.22,0,0,1-.84,1.16A15,15,0,0,0,21.67,60a1.19,1.19,0,0,1-1.41.15l-.68-.38-1.9-.62a1.22,1.22,0,0,0-1.43.54l-2.14,3.68a1.19,1.19,0,0,0,.25,1.5L16,66.36l.47.25a1.21,1.21,0,0,1,.58,1.31,14.77,14.77,0,0,0,0,6.57,1.22,1.22,0,0,1-.57,1.31l-.67.38-1.47,1.31A1.21,1.21,0,0,0,14.11,79l2.14,3.67a1.21,1.21,0,0,0,1.44.54l2.11-.71.46-.29A1.15,1.15,0,0,1,20.86,82.05Zm11.21-1.22a9.63,9.63,0,1,1,9.62-9.63A9.63,9.63,0,0,1,32.07,80.83Zm0-16.85a7.23,7.23,0,1,0,7.22,7.22A7.23,7.23,0,0,0,32.07,64Z" transform="translate(33 -5)"/></svg>