<svg id="Layer_1" data-name="Layer 1" xmlns="http://www.w3.org/2000/svg" viewBox="0 0 130 130"><defs><style>.cls-1{fill:#fc3e59;}.cls-2{fill:#263238;}.cls-3{fill:#ffcb05;}.cls-4{fill:#fff;}</style></defs><title>Objective</title><path class="cls-1" d="M76.61,36.79,68.4,45A43.33,43.33,0,1,1,55.5,32.1l8.21-8.21a54.74,54.74,0,1,0,12.9,12.9Z" transform="translate(33 -3.5)"/><path class="cls-2" d="M-31.86,69.64A1.14,1.14,0,0,1-33,68.5a65.08,65.08,0,0,1,65-65,1.14,1.14,0,1,1,0,2.28A62.8,62.8,0,0,0-30.72,68.5,1.14,1.14,0,0,1-31.86,69.64Z" transform="translate(33 -3.5)"/><path class="cls-2" d="M38.84,5.78H36.56a1.14,1.14,0,0,1,0-2.28h2.28a1.14,1.14,0,1,1,0,2.28Z" transform="translate(33 -3.5)"/><path class="cls-2" d="M32,133.5a1.14,1.14,0,0,1,0-2.28A62.8,62.8,0,0,0,94.72,68.5a1.14,1.14,0,0,1,2.28,0A65.08,65.08,0,0,1,32,133.5Z" transform="translate(33 -3.5)"/><path class="cls-2" d="M27.44,133.5H25.16a1.14,1.14,0,0,1,0-2.28h2.28a1.14,1.14,0,1,1,0,2.28Z" transform="translate(33 -3.5)"/><path class="cls-2" d="M68.49,10.34H59.37a1.14,1.14,0,0,1,0-2.28h9.12a1.14,1.14,0,1,1,0,2.28Z" transform="translate(33 -3.5)"/><path class="cls-2" d="M63.93,14.9a1.14,1.14,0,0,1-1.14-1.14V4.64a1.14,1.14,0,1,1,2.28,0v9.12A1.14,1.14,0,0,1,63.93,14.9Z" transform="translate(33 -3.5)"/><path class="cls-2" d="M95.86,38.85H86.74a1.14,1.14,0,1,1,0-2.28h9.12a1.14,1.14,0,0,1,0,2.28Z" transform="translate(33 -3.5)"/><path class="cls-2" d="M91.3,43.41a1.14,1.14,0,0,1-1.14-1.14V33.15a1.14,1.14,0,0,1,2.28,0v9.12A1.14,1.14,0,0,1,91.3,43.41Z" transform="translate(33 -3.5)"/><polygon class="cls-3" points="127.89 15.01 114.99 27.91 103.71 26.29 102.09 15.01 114.99 2.1 116.61 13.39 127.89 15.01"/><path class="cls-2" d="M82,32.55h-.16L70.54,30.92a1.15,1.15,0,0,1-1-1L68,18.67a1.13,1.13,0,0,1,.33-1L81.19,4.8a1.12,1.12,0,0,1,1.16-.28,1.14,1.14,0,0,1,.77.92l1.49,10.44,10.44,1.5a1.13,1.13,0,0,1,.65,1.93L82.8,32.21A1.14,1.14,0,0,1,82,32.55ZM71.71,28.79l9.88,1.41L92.48,19.31l-9-1.29a1.15,1.15,0,0,1-1-1L81.19,8,70.3,18.91Z" transform="translate(33 -3.5)"/><path class="cls-3" d="M70.71,29.79l-.81-5.64L28.78,65.27a4.56,4.56,0,1,0,6.44,6.45L76.35,30.6Z" transform="translate(33 -3.5)"/><path class="cls-2" d="M32,74.2a5.7,5.7,0,0,1-4-9.73L69.09,23.34A1.15,1.15,0,0,1,71,24l.68,4.8,4.8.68a1.15,1.15,0,0,1,.65,1.94L36,72.53A5.69,5.69,0,0,1,32,74.2ZM69.09,26.57,29.58,66.08a3.42,3.42,0,0,0,4.84,4.84L73.93,31.41l-3.39-.49a1.15,1.15,0,0,1-1-1Z" transform="translate(33 -3.5)"/><path class="cls-1" d="M60.08,53.32,51.44,62a20.88,20.88,0,0,1,1,5.51A20.53,20.53,0,0,1,50,78.33,20,20,0,0,1,46.51,83a20.53,20.53,0,1,1-8-33.95l8.65-8.64a31.93,31.93,0,1,0,12.9,12.9Z" transform="translate(33 -3.5)"/><path class="cls-4" d="M68.4,45l-8.32,8.32a31.93,31.93,0,1,1-12.9-12.9L55.5,32.1A43.33,43.33,0,1,0,68.4,45Z" transform="translate(33 -3.5)"/><path class="cls-2" d="M32,124.35A55.86,55.86,0,1,1,64.37,23a1.14,1.14,0,1,1-1.32,1.86A53.6,53.6,0,1,0,75.68,37.45a1.14,1.14,0,1,1,1.86-1.32A55.84,55.84,0,0,1,32,124.35Z" transform="translate(33 -3.5)"/><path class="cls-2" d="M32,113A44.46,44.46,0,1,1,56.12,31.14a1.14,1.14,0,0,1-1.24,1.92,42.36,42.36,0,0,0-52.71,5.6A42.19,42.19,0,0,0,61.83,98.34a42.38,42.38,0,0,0,5.61-52.72,1.14,1.14,0,1,1,1.91-1.23A44.65,44.65,0,0,1,63.44,100,44.29,44.29,0,0,1,32,113Z" transform="translate(33 -3.5)"/><path class="cls-2" d="M32,101.57A33.06,33.06,0,0,1,8.62,45.12a33.27,33.27,0,0,1,39.1-5.71,1.14,1.14,0,0,1-1.09,2,31,31,0,0,0-36.4,5.31A30.79,30.79,0,1,0,53.77,90.27a31,31,0,0,0,5.31-36.41,1.14,1.14,0,1,1,2-1.08,33.26,33.26,0,0,1-5.7,39.1A32.83,32.83,0,0,1,32,101.57Z" transform="translate(33 -3.5)"/><path class="cls-2" d="M32,90.16A21.66,21.66,0,1,1,38.9,48a1.14,1.14,0,1,1-.73,2.16A19.38,19.38,0,1,0,50.36,62.33a1.14,1.14,0,1,1,2.15-.73A21.63,21.63,0,0,1,32,90.16Z" transform="translate(33 -3.5)"/><path class="cls-2" d="M70.71,30.93A1.14,1.14,0,0,1,69.9,29l12.9-12.9a1.14,1.14,0,0,1,1.61,1.61L71.51,30.6A1.13,1.13,0,0,1,70.71,30.93Z" transform="translate(33 -3.5)"/></svg>