<svg xmlns="http://www.w3.org/2000/svg" viewBox="0 0 130 130"><defs><style>.cls-1{fill:#6c6ff2;}.cls-2{fill:#f1f2ec;}.cls-3{fill:#95d133;}.cls-4{fill:#fc3e59;}.cls-5{fill:#ffcb05;}.cls-6{fill:#c9f0ff;}.cls-7{fill:#27c7cd;}.cls-8{fill:#ffd86e;}.cls-9{fill:#1b2c38;}</style></defs><title>On-Page-SEO</title><g id="Layer_2" data-name="Layer 2"><circle class="cls-1" cx="65" cy="65" r="65"/></g><g id="Layer_1" data-name="Layer 1"><path class="cls-2" d="M289.18,285H236.91a3,3,0,0,1-3-3V229.73a3,3,0,0,1,3-3h52.27a3,3,0,0,1,3,3V282A3,3,0,0,1,289.18,285Z" transform="translate(-198.04 -190.86)"/><path class="cls-3" d="M292.17,236.94H233.92v-7.21a3,3,0,0,1,3-3h52.27a3,3,0,0,1,3,3Z" transform="translate(-198.04 -190.86)"/><path class="cls-2" d="M241.16,231.81a1.7,1.7,0,1,1-1.7-1.7A1.7,1.7,0,0,1,241.16,231.81Z" transform="translate(-198.04 -190.86)"/><path class="cls-2" d="M247.73,231.81a1.7,1.7,0,1,1-1.7-1.7A1.7,1.7,0,0,1,247.73,231.81Z" transform="translate(-198.04 -190.86)"/><path class="cls-2" d="M254.3,231.81a1.7,1.7,0,1,1-1.7-1.7A1.7,1.7,0,0,1,254.3,231.81Z" transform="translate(-198.04 -190.86)"/><path class="cls-4" d="M258.62,278.65h-17a1.9,1.9,0,0,1-1.9-1.9v-8.62a1.9,1.9,0,0,1,1.9-1.9h17a1.9,1.9,0,0,1,1.9,1.9v8.62A1.9,1.9,0,0,1,258.62,278.65Z" transform="translate(-198.04 -190.86)"/><path class="cls-5" d="M284.35,278.65h-17a1.9,1.9,0,0,1-1.9-1.9v-8.62a1.9,1.9,0,0,1,1.9-1.9h17a1.9,1.9,0,0,1,1.89,1.9v8.62A1.9,1.9,0,0,1,284.35,278.65Z" transform="translate(-198.04 -190.86)"/><path class="cls-6" d="M284.34,262H241.61a1.9,1.9,0,0,1-1.9-1.9V244a1.9,1.9,0,0,1,1.9-1.9h42.73a1.9,1.9,0,0,1,1.9,1.9v16.09A1.9,1.9,0,0,1,284.34,262Z" transform="translate(-198.04 -190.86)"/><path class="cls-7" d="M244.88,261.89l12.9-12.9a.57.57,0,0,1,.82,0L270,261.89Z" transform="translate(-198.04 -190.86)"/><path class="cls-7" d="M260.72,261.89l10.37-10.36a.56.56,0,0,1,.82,0l9.17,10.33Z" transform="translate(-198.04 -190.86)"/><path class="cls-8" d="M280.13,247.75a2.47,2.47,0,1,1-2.47-2.47A2.47,2.47,0,0,1,280.13,247.75Z" transform="translate(-198.04 -190.86)"/><path class="cls-9" d="M239.46,229.23a2.58,2.58,0,1,0,2.58,2.58A2.59,2.59,0,0,0,239.46,229.23Zm0,3.41a.83.83,0,0,1,0-1.65.83.83,0,0,1,0,1.65Z" transform="translate(-198.04 -190.86)"/><path class="cls-9" d="M246,229.23a2.58,2.58,0,1,0,2.58,2.58A2.59,2.59,0,0,0,246,229.23Zm0,3.41a.83.83,0,1,1,.82-.83A.83.83,0,0,1,246,232.64Z" transform="translate(-198.04 -190.86)"/><path class="cls-9" d="M252.6,229.23a2.58,2.58,0,1,0,2.58,2.58A2.59,2.59,0,0,0,252.6,229.23Zm0,3.41a.83.83,0,1,1,.82-.83A.83.83,0,0,1,252.6,232.64Z" transform="translate(-198.04 -190.86)"/><path class="cls-9" d="M289.18,225.86H236.91a3.88,3.88,0,0,0-3.87,3.87V282a3.88,3.88,0,0,0,3.87,3.87h52.27A3.87,3.87,0,0,0,293,282V268.67a.88.88,0,0,0-1.75,0V282a2.11,2.11,0,0,1-2.11,2.11H236.91A2.11,2.11,0,0,1,234.8,282V237.82h56.49v25.42a.88.88,0,1,0,1.75,0V229.73A3.87,3.87,0,0,0,289.18,225.86Zm2.11,10.2H234.8v-6.33a2.12,2.12,0,0,1,2.11-2.11h52.27a2.12,2.12,0,0,1,2.11,2.11Z" transform="translate(-198.04 -190.86)"/><path class="cls-9" d="M287.12,244a2.77,2.77,0,0,0-2.78-2.78H241.61a2.78,2.78,0,0,0-2.78,2.78v5.16a.88.88,0,0,0,1.76,0V244a1,1,0,0,1,1-1h42.73a1,1,0,0,1,1,1v16.09a1,1,0,0,1-1,1h-2.76l-9-10.16a1.47,1.47,0,0,0-1-.48,1.44,1.44,0,0,0-1.06.42l-4.78,4.77-6.43-7.24a1.42,1.42,0,0,0-1-.49,1.46,1.46,0,0,0-1.07.42L244.4,261.13h-2.79a1,1,0,0,1-1-1v-5.38a.88.88,0,0,0-1.76,0v5.38a2.79,2.79,0,0,0,2.78,2.78h42.73a2.78,2.78,0,0,0,2.78-2.78Zm-40.23,17.11,11.28-11.28,8.55,9.64a.88.88,0,0,0,1.32-1.16L266.86,257l4.61-4.61,7.76,8.74Z" transform="translate(-198.04 -190.86)"/><path class="cls-9" d="M241.61,265.35a2.79,2.79,0,0,0-2.78,2.78v8.62a2.79,2.79,0,0,0,2.78,2.78h17a2.79,2.79,0,0,0,2.78-2.78v-8.62a2.79,2.79,0,0,0-2.78-2.78Zm18,2.78v8.62a1,1,0,0,1-1,1h-17a1,1,0,0,1-1-1v-8.62a1,1,0,0,1,1-1h17A1,1,0,0,1,259.64,268.13Z" transform="translate(-198.04 -190.86)"/><path class="cls-9" d="M267.34,265.35a2.79,2.79,0,0,0-2.78,2.78v8.62a2.79,2.79,0,0,0,2.78,2.78h17a2.78,2.78,0,0,0,2.77-2.78v-8.62a2.78,2.78,0,0,0-2.77-2.78Zm18,2.78v8.62a1,1,0,0,1-1,1h-17a1,1,0,0,1-1-1v-8.62a1,1,0,0,1,1-1h17A1,1,0,0,1,285.37,268.13Z" transform="translate(-198.04 -190.86)"/><path class="cls-9" d="M243.32,270.42h2.37a.88.88,0,1,0,0-1.75h-2.37a.88.88,0,1,0,0,1.75Z" transform="translate(-198.04 -190.86)"/><path class="cls-9" d="M243.32,273.4h1.23a.88.88,0,0,0,0-1.76h-1.23a.88.88,0,1,0,0,1.76Z" transform="translate(-198.04 -190.86)"/><path class="cls-9" d="M256.91,271.64h-3.28a.88.88,0,0,0,0,1.76h3.28a.88.88,0,1,0,0-1.76Z" transform="translate(-198.04 -190.86)"/><path class="cls-9" d="M248.71,270.42h8a.88.88,0,1,0,0-1.75h-8a.88.88,0,1,0,0,1.75Z" transform="translate(-198.04 -190.86)"/><path class="cls-9" d="M256.68,274.46H254.3a.88.88,0,1,0,0,1.76h2.38a.88.88,0,0,0,0-1.76Z" transform="translate(-198.04 -190.86)"/><path class="cls-9" d="M251.29,274.46h-8a.88.88,0,0,0,0,1.76h8a.88.88,0,0,0,0-1.76Z" transform="translate(-198.04 -190.86)"/><path class="cls-9" d="M247.28,273.4h3.42a.88.88,0,1,0,0-1.76h-3.42a.88.88,0,1,0,0,1.76Z" transform="translate(-198.04 -190.86)"/><path class="cls-9" d="M269,270.42h2.38a.88.88,0,1,0,0-1.75H269a.88.88,0,0,0,0,1.75Z" transform="translate(-198.04 -190.86)"/><path class="cls-9" d="M269,273.4h1.24a.88.88,0,0,0,0-1.76H269a.88.88,0,0,0,0,1.76Z" transform="translate(-198.04 -190.86)"/><path class="cls-9" d="M282.64,271.64h-3.28a.88.88,0,0,0,0,1.76h3.28a.88.88,0,0,0,0-1.76Z" transform="translate(-198.04 -190.86)"/><path class="cls-9" d="M274.44,270.42h8a.88.88,0,1,0,0-1.75h-8a.88.88,0,1,0,0,1.75Z" transform="translate(-198.04 -190.86)"/><path class="cls-9" d="M282.41,274.46H280a.88.88,0,0,0,0,1.76h2.38a.88.88,0,0,0,0-1.76Z" transform="translate(-198.04 -190.86)"/><path class="cls-9" d="M277,274.46h-8a.88.88,0,0,0,0,1.76h8a.88.88,0,0,0,0-1.76Z" transform="translate(-198.04 -190.86)"/><path class="cls-9" d="M273,273.4h3.42a.88.88,0,1,0,0-1.76H273a.88.88,0,0,0,0,1.76Z" transform="translate(-198.04 -190.86)"/><path class="cls-9" d="M281,247.75a3.35,3.35,0,1,0-3.35,3.35A3.35,3.35,0,0,0,281,247.75Zm-4.93,0a1.59,1.59,0,1,1,1.58,1.59A1.59,1.59,0,0,1,276.08,247.75Z" transform="translate(-198.04 -190.86)"/></g></svg>