<svg id="Layer_1" data-name="Layer 1" xmlns="http://www.w3.org/2000/svg" viewBox="0 0 70 69.99"><defs><style>.cls-1{fill:#ffcb05;}.cls-2{fill:#7c8388;}.cls-3{fill:#27c7cd;}.cls-4{fill:#fc3e59;}.cls-5{fill:#f1f2ec;}.cls-6{fill:#1b2c38;}</style></defs><title>Paid-Search-Advertising</title><path class="cls-1" d="M231.59,53a10.94,10.94,0,0,1-5.18,4.85.53.53,0,0,0,0,1,10.9,10.9,0,0,1,5.18,4.86.53.53,0,0,0,.94,0,10.85,10.85,0,0,1,5.18-4.86.53.53,0,0,0,0-1A10.89,10.89,0,0,1,232.53,53,.52.52,0,0,0,231.59,53Z" transform="translate(-221 0)"/><path class="cls-1" d="M282.51,4.6a10.85,10.85,0,0,1-5.18,4.86.53.53,0,0,0,0,.95,10.89,10.89,0,0,1,5.18,4.85.52.52,0,0,0,.94,0,10.94,10.94,0,0,1,5.18-4.85.53.53,0,0,0,0-.95,10.9,10.9,0,0,1-5.18-4.86A.53.53,0,0,0,282.51,4.6Z" transform="translate(-221 0)"/><path class="cls-2" d="M274.75,45,266,53.74a3,3,0,0,1-4.29,0l-3.85-3.86a3,3,0,0,1,0-4.28l8.71-8.72a3,3,0,0,1,4.28,0l3.86,3.86A3,3,0,0,1,274.75,45Z" transform="translate(-221 0)"/><path class="cls-3" d="M288.17,67.16a6.17,6.17,0,0,1-8.71,0L266.11,53.81l8.71-8.71,13.35,13.35A6.17,6.17,0,0,1,288.17,67.16Z" transform="translate(-221 0)"/><path class="cls-4" d="M273.63,26.82A25.8,25.8,0,1,1,247.83,1,25.8,25.8,0,0,1,273.63,26.82Z" transform="translate(-221 0)"/><path class="cls-1" d="M276.43,17.24a14.06,14.06,0,0,1-6.66,6.25.67.67,0,0,0,0,1.22A14.06,14.06,0,0,1,276.43,31a.68.68,0,0,0,1.21,0,14.06,14.06,0,0,1,6.66-6.25.67.67,0,0,0,0-1.22,14.06,14.06,0,0,1-6.66-6.25A.68.68,0,0,0,276.43,17.24Z" transform="translate(-221 0)"/><path class="cls-5" d="M267.54,26.82A19.72,19.72,0,1,1,247.83,7.1,19.72,19.72,0,0,1,267.54,26.82Z" transform="translate(-221 0)"/><path class="cls-6" d="M251.23,27.9A16.05,16.05,0,0,0,248.35,26a15.18,15.18,0,0,1-2.52-1.69,2.65,2.65,0,0,1-.45-3.45,2.88,2.88,0,0,1,2.35-1.29,3.08,3.08,0,0,1,2.21.91,1.91,1.91,0,0,1,.61,1.43,1,1,0,1,0,2,.15,3.87,3.87,0,0,0-1.19-3,5.32,5.32,0,0,0-2.53-1.41V15.75a1,1,0,1,0-2.05,0v1.83a4.85,4.85,0,0,0-3.19,2.16,4.71,4.71,0,0,0,.83,6,16.35,16.35,0,0,0,2.87,1.95,14.33,14.33,0,0,1,2.53,1.7,2.67,2.67,0,0,1,.46,3.45A2.94,2.94,0,0,1,248,34.16a3,3,0,0,1-2.21-.91,1.85,1.85,0,0,1-.6-1.43,1,1,0,0,0-2.05-.15,3.91,3.91,0,0,0,1.19,3,5.32,5.32,0,0,0,2.53,1.41v1.83a1,1,0,1,0,2.05,0V36.11a4.88,4.88,0,0,0,3.2-2.16A4.74,4.74,0,0,0,251.23,27.9Z" transform="translate(-221 0)"/><path class="cls-6" d="M238.15,56.9a9.81,9.81,0,0,1-4.7-4.38,1.55,1.55,0,0,0-1.39-.86,1.53,1.53,0,0,0-1.39.86,8.72,8.72,0,0,1-.48.82,1,1,0,0,0,1.72,1.13l.15-.23a11.88,11.88,0,0,0,4.34,4.07,11.72,11.72,0,0,0-4.34,4.07,11.76,11.76,0,0,0-4.35-4.07l.48-.29a1,1,0,1,0-1.08-1.74,12.54,12.54,0,0,1-1.15.62,1.56,1.56,0,0,0,0,2.81,9.85,9.85,0,0,1,4.71,4.39,1.54,1.54,0,0,0,1.39.85,1.56,1.56,0,0,0,1.39-.85,9.82,9.82,0,0,1,4.7-4.39,1.56,1.56,0,0,0,0-2.81Z" transform="translate(-221 0)"/><path class="cls-6" d="M276.89,11.34a9.81,9.81,0,0,1,4.7,4.38,1.55,1.55,0,0,0,1.39.86,1.53,1.53,0,0,0,1.39-.86,9.84,9.84,0,0,1,4.71-4.38,1.56,1.56,0,0,0,0-2.81,9.85,9.85,0,0,1-4.71-4.39A1.54,1.54,0,0,0,283,3.29h0a1.56,1.56,0,0,0-1.39.85h0a9.82,9.82,0,0,1-4.7,4.39,1.56,1.56,0,0,0,0,2.81ZM283,5.86a11.76,11.76,0,0,0,4.35,4.07A11.92,11.92,0,0,0,283,14a11.88,11.88,0,0,0-4.34-4.07A11.72,11.72,0,0,0,283,5.86Z" transform="translate(-221 0)"/><path class="cls-6" d="M288.9,57.72,276.11,44.93a4,4,0,0,0,.55-2A4,4,0,0,0,275.47,40l-2.87-2.88a26.41,26.41,0,0,0,1.89-7.36,10.42,10.42,0,0,1,1,1.64,1.71,1.71,0,0,0,3.05,0,12.93,12.93,0,0,1,6.19-5.78,1.71,1.71,0,0,0,0-3.08,12.93,12.93,0,0,1-6.19-5.78,1.71,1.71,0,0,0-3.05,0,11.18,11.18,0,0,1-1.88,2.67,26.83,26.83,0,1,0-44.77,26.33,26.88,26.88,0,0,0,29.29,5.81L261,54.46a4.06,4.06,0,0,0,4.91.64l12.79,12.78A7.19,7.19,0,0,0,288.9,57.72ZM277,18.29a15.05,15.05,0,0,0,6.21,5.81A15,15,0,0,0,277,29.92a14.9,14.9,0,0,0-6.2-5.82A14.89,14.89,0,0,0,277,18.29Zm-29.2,33.3A24.77,24.77,0,1,1,265.34,9.3,24.5,24.5,0,0,1,271.91,21a15.29,15.29,0,0,1-2.59,1.56,1.7,1.7,0,0,0-1,1.4,20.76,20.76,0,0,0-9.79-14.89,1,1,0,0,0-1.06,1.76A19.15,19.15,0,0,1,261,13.6,18.68,18.68,0,1,1,253.35,9a1,1,0,1,0,.6-2,20.75,20.75,0,1,0,14.49,17.65,1.72,1.72,0,0,0,.88,1,15.3,15.3,0,0,1,3.26,2.1,24.78,24.78,0,0,1-24.75,23.85ZM265.31,53a2,2,0,0,1-2.83,0l-2.34-2.35a26.94,26.94,0,0,0,11.54-11.54L274,41.47a2,2,0,0,1,0,2.83Zm22.13,13.42a5.14,5.14,0,0,1-7.26,0L267.57,53.81l7.25-7.26,12.62,12.62a5.14,5.14,0,0,1,0,7.26Z" transform="translate(-221 0)"/></svg>