<svg id="Layer_1" data-name="Layer 1" xmlns="http://www.w3.org/2000/svg" viewBox="0 0 70 70"><defs><style>.cls-1{fill:#fc3e59;}.cls-2{fill:#95d133;}.cls-3{fill:#27c7cd;}.cls-4{fill:#1b2c38;}.cls-5{fill:#ffcb05;}</style></defs><title>Activity-Reports</title><path class="cls-1" d="M253.9,223.69a33.09,33.09,0,0,0-32.27,32.82c0,18,15.08,33,33.27,33a33.36,33.36,0,0,0,22.84-9,1,1,0,0,0,0-1.39L256.34,258a4.81,4.81,0,0,1-1.43-3.42v-29.9A1,1,0,0,0,253.9,223.69Z" transform="translate(-220.59 -220.5)"/><path class="cls-2" d="M283.06,276.69a30.36,30.36,0,0,0,6.39-20.47,1,1,0,0,0-1.14-.91l-22.46,3.48a1,1,0,0,0-.55,1.65l16.28,16.34A1,1,0,0,0,283.06,276.69Z" transform="translate(-220.59 -220.5)"/><path class="cls-3" d="M260.21,255.34l28.5-4.23a1,1,0,0,0,.83-1.09,33.22,33.22,0,0,0-29.49-28.49,1,1,0,0,0-1.1,1l.13,31.87A1,1,0,0,0,260.21,255.34Z" transform="translate(-220.59 -220.5)"/><path class="cls-4" d="M290.49,256.16a2,2,0,0,0-2.34-1.87l-22.46,3.49a2,2,0,0,0-1.13,3.38l9.21,9.24a1.05,1.05,0,0,0,1.47,0,1,1,0,0,0,0-1.46l-9.13-9.16,22.29-3.46A29.4,29.4,0,0,1,282.28,276l-3.61-3.61a1,1,0,0,0-1.47,0,1,1,0,0,0,0,1.45l3.65,3.66a2,2,0,0,0,1.44.6h.12a2,2,0,0,0,1.49-.78A31.47,31.47,0,0,0,290.49,256.16Z" transform="translate(-220.59 -220.5)"/><path class="cls-4" d="M239.28,253.21a4,4,0,1,0-4,3.94A4,4,0,0,0,239.28,253.21Zm-5.9,0a1.92,1.92,0,1,1,1.92,1.89A1.91,1.91,0,0,1,233.38,253.21Z" transform="translate(-220.59 -220.5)"/><path class="cls-4" d="M245.16,259a3.94,3.94,0,1,0,4,3.94A4,4,0,0,0,245.16,259Zm0,5.83a1.89,1.89,0,1,1,1.91-1.89A1.9,1.9,0,0,1,245.16,264.85Z" transform="translate(-220.59 -220.5)"/><path class="cls-4" d="M245.56,249.88a1.05,1.05,0,0,0-1.43.31l-9.55,14.68a1,1,0,0,0,.31,1.41,1.07,1.07,0,0,0,.56.17,1,1,0,0,0,.87-.47l9.55-14.68A1,1,0,0,0,245.56,249.88Z" transform="translate(-220.59 -220.5)"/><path class="cls-5" d="M278.74,223.84a12.5,12.5,0,0,1-6,5.54.6.6,0,0,0,0,1.09,12.56,12.56,0,0,1,6,5.55.62.62,0,0,0,1.09,0,12.56,12.56,0,0,1,6-5.55.6.6,0,0,0,0-1.09,12.5,12.5,0,0,1-6-5.54A.62.62,0,0,0,278.74,223.84Z" transform="translate(-220.59 -220.5)"/><path class="cls-4" d="M290.57,249.89a33.77,33.77,0,0,0-7.16-16.69,14.28,14.28,0,0,1,2.85-1.8,1.62,1.62,0,0,0,0-2.94,11.53,11.53,0,0,1-5.5-5.08,1.66,1.66,0,0,0-2.95,0,10,10,0,0,1-2.1,2.77,34.61,34.61,0,0,0-15.55-5.64,2,2,0,0,0-1.58.51,2,2,0,0,0-.67,1.49l.13,31.88a2,2,0,0,0,.7,1.51,2.06,2.06,0,0,0,1.32.48,1.51,1.51,0,0,0,.3,0l28.51-4.24A2,2,0,0,0,290.57,249.89ZM279.28,225a13.53,13.53,0,0,0,5.33,4.94,13.59,13.59,0,0,0-5.33,4.93,13.48,13.48,0,0,0-5.32-4.93A13.42,13.42,0,0,0,279.28,225Zm-19.16,29.33L260,222.56a32.59,32.59,0,0,1,14,4.94,13.7,13.7,0,0,1-1.71,1,1.63,1.63,0,0,0,0,2.94,11.42,11.42,0,0,1,5.51,5.08,1.66,1.66,0,0,0,2.95,0,9.47,9.47,0,0,1,1.18-1.8,31.77,31.77,0,0,1,6.56,15.42Z" transform="translate(-220.59 -220.5)"/><path class="cls-5" d="M247.91,270.54a10.32,10.32,0,0,1-4.94,4.57.5.5,0,0,0,0,.9,10.38,10.38,0,0,1,4.94,4.58.51.51,0,0,0,.9,0,10.38,10.38,0,0,1,4.94-4.58.5.5,0,0,0,0-.9,10.32,10.32,0,0,1-4.94-4.57A.5.5,0,0,0,247.91,270.54Z" transform="translate(-220.59 -220.5)"/><path class="cls-5" d="M231.93,274.09a13.9,13.9,0,0,1-6.65,6.16.68.68,0,0,0,0,1.22,13.9,13.9,0,0,1,6.65,6.16.68.68,0,0,0,1.22,0,13.9,13.9,0,0,1,6.65-6.16.67.67,0,0,0,0-1.22,13.9,13.9,0,0,1-6.65-6.16A.69.69,0,0,0,231.93,274.09Z" transform="translate(-220.59 -220.5)"/><path class="cls-4" d="M278.49,278.38l-21.42-21.12a3.83,3.83,0,0,1-1.12-2.69v-29.9a2,2,0,0,0-.62-1.44,2,2,0,0,0-1.46-.57,34.35,34.35,0,0,0-23.55,10.24,33.58,33.58,0,0,0-9.73,23.61,33.93,33.93,0,0,0,7.34,20.87,15,15,0,0,1-3.1,1.95,1.69,1.69,0,0,0,0,3.06,12.92,12.92,0,0,1,6.18,5.7,1.72,1.72,0,0,0,3.07,0,11.5,11.5,0,0,1,2.3-3.07,32.29,32.29,0,0,0,3.34,1.9,1.05,1.05,0,0,0,1.4-.45,1,1,0,0,0-.47-1.38c-.88-.44-1.74-.93-2.58-1.44a15.85,15.85,0,0,1,2.18-1.26,1.68,1.68,0,0,0,0-3.06,12.88,12.88,0,0,1-6.17-5.7,1.72,1.72,0,0,0-3.07,0,11.78,11.78,0,0,1-1.58,2.31c-.62-.8-1.21-1.63-1.76-2.48a31.36,31.36,0,0,1,4.14-39.12,32.25,32.25,0,0,1,22.06-9.62v29.85a5.85,5.85,0,0,0,1.73,4.14L277,279.8a32.3,32.3,0,0,1-22.07,8.64h0a31.87,31.87,0,0,1-9.92-1.58,1,1,0,0,0-1.32.65,1,1,0,0,0,.66,1.3,33.94,33.94,0,0,0,10.58,1.69h0a34.39,34.39,0,0,0,23.55-9.25,2,2,0,0,0,0-2.87Zm-46-3.24a14.93,14.93,0,0,0,6.17,5.72,14.93,14.93,0,0,0-6.17,5.72,14.93,14.93,0,0,0-6.17-5.72A14.93,14.93,0,0,0,232.54,275.14Z" transform="translate(-220.59 -220.5)"/><path class="cls-4" d="M247,281.05a1.55,1.55,0,0,0,2.76,0,9.2,9.2,0,0,1,4.46-4.11,1.52,1.52,0,0,0,.87-1.38,1.5,1.5,0,0,0-.87-1.37,9.29,9.29,0,0,1-4.46-4.11,1.55,1.55,0,0,0-2.76,0,9.29,9.29,0,0,1-4.46,4.11,1.5,1.5,0,0,0-.87,1.37,1.52,1.52,0,0,0,.87,1.38A9.2,9.2,0,0,1,247,281.05Zm1.38-9.21a11.3,11.3,0,0,0,4,3.72,11.31,11.31,0,0,0-4,3.73,11.4,11.4,0,0,0-4-3.73A11.38,11.38,0,0,0,248.36,271.84Z" transform="translate(-220.59 -220.5)"/></svg>