<svg id="Icon_Set" data-name="Icon Set" xmlns="http://www.w3.org/2000/svg" viewBox="0 0 100 100"><defs><style>.cls-1{fill:#fc3e59;}.cls-2{fill:#1b2c38;}.cls-3{fill:#ffcb05;}.cls-4{fill:#95d133;}.cls-5{fill:#27c7cd;}</style></defs><title>Professional</title><polygon class="cls-1" points="18.85 18.03 10.66 15.57 10.66 10.66 18.85 13.12 18.85 18.03"/><path class="cls-2" d="M.85,20.35a.85.85,0,0,1-.23,0l-8.2-2.46a.82.82,0,0,1-.58-.79V12.16a.81.81,0,0,1,.33-.66.81.81,0,0,1,.72-.13l8.2,2.46a.82.82,0,0,1,.58.78v4.92a.81.81,0,0,1-.33.66A.78.78,0,0,1,.85,20.35Zm-7.37-3.89,6.55,2V15.22l-6.55-2Z" transform="translate(18 -1.5)"/><polygon class="cls-1" points="9.02 24.59 17.21 22.13 17.21 17.21 9.02 19.67 9.02 24.59"/><path class="cls-2" d="M-9,26.91a.84.84,0,0,1-.49-.16.82.82,0,0,1-.33-.66V21.17a.8.8,0,0,1,.58-.78L-1,17.93a.81.81,0,0,1,.72.12.82.82,0,0,1,.33.66v4.92a.83.83,0,0,1-.58.79l-8.2,2.46A.85.85,0,0,1-9,26.91Zm.82-5.13V25l6.55-2V19.81Z" transform="translate(18 -1.5)"/><path class="cls-2" d="M-2.43,47.4h-8.19a.82.82,0,0,1-.82-.82.82.82,0,0,1,.82-.82h8.19a.82.82,0,0,1,.82.82A.82.82,0,0,1-2.43,47.4Z" transform="translate(18 -1.5)"/><path class="cls-2" d="M-13.9,47.4h-1.64a.82.82,0,0,1-.82-.82.82.82,0,0,1,.82-.82h1.64a.82.82,0,0,1,.82.82A.82.82,0,0,1-13.9,47.4Z" transform="translate(18 -1.5)"/><path class="cls-2" d="M45.93,40.84H37.74a.82.82,0,0,1,0-1.64h8.19a.82.82,0,0,1,0,1.64Z" transform="translate(18 -1.5)"/><path class="cls-2" d="M50.85,40.84H49.21a.82.82,0,0,1,0-1.64h1.64a.82.82,0,0,1,0,1.64Z" transform="translate(18 -1.5)"/><path class="cls-2" d="M81.18,101.5a.82.82,0,0,1-.82-.82V94.94a3.28,3.28,0,0,0-3.28-3.28H-13.08a3.28,3.28,0,0,0-3.28,3.28v5.74a.82.82,0,0,1-.82.82.82.82,0,0,1-.82-.82V94.94A4.93,4.93,0,0,1-13.08,90H77.08A4.93,4.93,0,0,1,82,94.94v5.74A.82.82,0,0,1,81.18,101.5Z" transform="translate(18 -1.5)"/><path class="cls-2" d="M15.61,47.4A17.18,17.18,0,0,1-.87,35.11,4.92,4.92,0,0,1-5.7,30.19,4.92,4.92,0,0,1-.87,25.27a17.19,17.19,0,0,1,33,0,4.92,4.92,0,0,1,0,9.84A17.2,17.2,0,0,1,15.61,47.4Zm-16-14a.92.92,0,0,1,.89.6,15.55,15.55,0,0,0,30.15,0,.82.82,0,0,1,.9-.61,3.64,3.64,0,0,0,.42,0,3.28,3.28,0,0,0,0-6.56c-.1,0-.2,0-.3,0a1,1,0,0,1-1-.59,15.55,15.55,0,0,0-30.15,0,.83.83,0,0,1-.9.62,3.21,3.21,0,0,0-.42-.05,3.28,3.28,0,0,0-3.28,3.28A3.28,3.28,0,0,0-.79,33.47a3,3,0,0,0,.31,0Z" transform="translate(18 -1.5)"/><path class="cls-2" d="M32,88.39a.82.82,0,0,1-.82-.82V81.83a.82.82,0,1,1,1.64,0v5.74A.82.82,0,0,1,32,88.39Z" transform="translate(18 -1.5)"/><path class="cls-2" d="M5.66,58.88a.84.84,0,0,1-.34-.08.83.83,0,0,1-.48-.67l-.65-7.82a.82.82,0,0,1,.45-.8l4-2a.81.81,0,0,1,1.05.28L13,52.69a.81.81,0,0,1-.2,1.11L6.15,58.72A.87.87,0,0,1,5.66,58.88Zm.21-8.15.49,5.8,4.85-3.59L8.77,49.28Z" transform="translate(18 -1.5)"/><path class="cls-2" d="M25.53,58.88a.84.84,0,0,1-.48-.16L18.4,53.8a.83.83,0,0,1-.2-1.12l3.28-4.91a.81.81,0,0,1,1.05-.28l4,2a.81.81,0,0,1,.44.8l-.67,7.82a.83.83,0,0,1-.48.67A.81.81,0,0,1,25.53,58.88ZM20,52.94l4.84,3.59.5-5.8-2.89-1.45Z" transform="translate(18 -1.5)"/><path class="cls-2" d="M17.25,58.88H14a2.46,2.46,0,0,1-2.46-2.46V54.78A2.46,2.46,0,0,1,14,52.32h3.28a2.46,2.46,0,0,1,2.45,2.46v1.64A2.46,2.46,0,0,1,17.25,58.88ZM14,54a.82.82,0,0,0-.82.82v1.64a.82.82,0,0,0,.82.82h3.28a.82.82,0,0,0,.82-.82V54.78a.82.82,0,0,0-.82-.82Z" transform="translate(18 -1.5)"/><path class="cls-2" d="M15.61,39.2a8.93,8.93,0,0,1-6.38-2.64.82.82,0,0,1,0-1.16.84.84,0,0,1,1.16,0,7.35,7.35,0,0,0,10.43,0,.84.84,0,0,1,1.16,0,.82.82,0,0,1,0,1.16A8.92,8.92,0,0,1,15.61,39.2Z" transform="translate(18 -1.5)"/><path class="cls-2" d="M18.49,54.56a.8.8,0,0,1-.63-.3.84.84,0,0,0-.61-.3H14a.82.82,0,0,0-.62.31.8.8,0,0,1-.67.29.84.84,0,0,1-.64-.37L8.37,48.68a.86.86,0,0,1-.14-.46v-3a.81.81,0,0,1,1.15-.75,15.61,15.61,0,0,0,12.46,0,.82.82,0,0,1,1.15.75v3a.86.86,0,0,1-.14.46l-3.68,5.51a.82.82,0,0,1-.64.37ZM14,52.32h3.28a2.37,2.37,0,0,1,1,.24L21.34,48V46.41a17.11,17.11,0,0,1-11.47,0V48l3.06,4.59A2.3,2.3,0,0,1,14,52.32Z" transform="translate(18 -1.5)"/><path class="cls-3" d="M0,30.19H-.79V22H4.13v4.1A4.1,4.1,0,0,1,0,30.19Z" transform="translate(18 -1.5)"/><path class="cls-2" d="M0,31H-.79a.82.82,0,0,1-.82-.82V22a.82.82,0,0,1,.82-.82H4.13A.82.82,0,0,1,5,22v4.1A4.93,4.93,0,0,1,0,31Zm0-1.64H0Zm0-6.56v6.56a3.28,3.28,0,0,0,3.28-3.28V22.81Z" transform="translate(18 -1.5)"/><path class="cls-3" d="M27.08,22H-.79v-.82A12.3,12.3,0,0,1,11.51,8.88h8.76A24.51,24.51,0,0,0,32.92,5.37L35.28,4V13.8A8.2,8.2,0,0,1,27.08,22Z" transform="translate(18 -1.5)"/><path class="cls-2" d="M27.08,22.81H-.79A.82.82,0,0,1-1.61,22v-.82A13.13,13.13,0,0,1,11.51,8.06h8.76A23.72,23.72,0,0,0,32.5,4.67l2.36-1.41a.78.78,0,0,1,.82,0A.8.8,0,0,1,36.1,4V13.8A9,9,0,0,1,27.08,22.81ZM0,21.17H27.08a7.39,7.39,0,0,0,7.38-7.37V5.41l-1.12.67A25.48,25.48,0,0,1,20.27,9.7H11.51A11.49,11.49,0,0,0,0,21.17Z" transform="translate(18 -1.5)"/><path class="cls-3" d="M27.08,22v4.1a4.11,4.11,0,0,0,4.1,4.1H32V20.31A8.1,8.1,0,0,1,27.08,22Z" transform="translate(18 -1.5)"/><path class="cls-2" d="M32,31h-.82a4.93,4.93,0,0,1-4.92-4.92V22a.82.82,0,0,1,.82-.82,7.3,7.3,0,0,0,4.43-1.51.82.82,0,0,1,1.31.65v9.88A.82.82,0,0,1,32,31Zm-4.1-8.24v3.32a3.28,3.28,0,0,0,3.28,3.28V21.8A8.64,8.64,0,0,1,27.9,22.77Z" transform="translate(18 -1.5)"/><path class="cls-2" d="M59.87,88.39a.82.82,0,0,1-.82-.82V73.63h-8.2V87.57a.82.82,0,0,1-1.64,0V72.81A.82.82,0,0,1,50,72h9.84a.82.82,0,0,1,.82.82V87.57A.82.82,0,0,1,59.87,88.39Z" transform="translate(18 -1.5)"/><path class="cls-2" d="M73.8,80.19H63.15a.82.82,0,0,1,0-1.64H73.8a3.28,3.28,0,0,0,3.28-3.28V50.68A3.28,3.28,0,0,0,73.8,47.4H36.1a3.28,3.28,0,0,0-3.28,3.28V75.27a3.28,3.28,0,0,0,3.28,3.28H46.75a.82.82,0,1,1,0,1.64H36.1a4.93,4.93,0,0,1-4.92-4.92V50.68a4.93,4.93,0,0,1,4.92-4.92H73.8a4.93,4.93,0,0,1,4.92,4.92V75.27A4.93,4.93,0,0,1,73.8,80.19Z" transform="translate(18 -1.5)"/><path class="cls-2" d="M28.72,52.32a.77.77,0,0,1-.36-.09L21.8,49a.82.82,0,1,1,.73-1.46l6.56,3.28a.83.83,0,0,1,.37,1.1A.85.85,0,0,1,28.72,52.32Z" transform="translate(18 -1.5)"/><path class="cls-2" d="M41.84,88.39a.82.82,0,0,1-.82-.82V81.71a.82.82,0,1,1,1.64,0v5.86A.82.82,0,0,1,41.84,88.39Z" transform="translate(18 -1.5)"/><path class="cls-2" d="M55,67.07A4.1,4.1,0,1,1,59.13,63,4.1,4.1,0,0,1,55,67.07Zm0-6.55A2.46,2.46,0,1,0,57.49,63,2.46,2.46,0,0,0,55,60.52Z" transform="translate(18 -1.5)"/><circle class="cls-4" cx="82.79" cy="13.93" r="13.11"/><path class="cls-2" d="M64.79,29.37A13.94,13.94,0,1,1,78.72,15.43,14,14,0,0,1,64.79,29.37Zm0-26.23A12.3,12.3,0,1,0,77.08,15.43,12.31,12.31,0,0,0,64.79,3.14Z" transform="translate(18 -1.5)"/><path class="cls-2" d="M64.79,17.07a.86.86,0,0,1-.41-.1l-5.74-3.28a.82.82,0,0,1,.82-1.43L64,14.84V8.06a.82.82,0,0,1,1.64,0v8.19a.81.81,0,0,1-.41.71A.77.77,0,0,1,64.79,17.07Z" transform="translate(18 -1.5)"/><rect class="cls-1" x="15.57" y="15.57" width="36.07" height="6.56"/><path class="cls-2" d="M33.64,24.45H-2.43a.82.82,0,0,1-.82-.82V17.07a.82.82,0,0,1,.82-.82H33.64a.82.82,0,0,1,.82.82v6.56A.82.82,0,0,1,33.64,24.45ZM-1.61,22.81H32.82V17.89H-1.61Z" transform="translate(18 -1.5)"/><path class="cls-2" d="M17.25,88.39a.82.82,0,0,1-.82-.82V81.83H-.79A.82.82,0,0,1-1.61,81V69.53a.82.82,0,0,1,.82-.82.82.82,0,0,1,.82.82V80.19H17.25a.82.82,0,0,1,.82.82v6.56A.82.82,0,0,1,17.25,88.39Z" transform="translate(18 -1.5)"/><polyline class="cls-5" points="37.86 76.23 35.25 56.56 31.97 56.56 29.36 76.23"/><path class="cls-2" d="M19.86,78.55a.81.81,0,0,1-.81-.71l-2.52-19H14.69l-2.52,19a.82.82,0,0,1-1.63-.22L13.15,58a.83.83,0,0,1,.82-.71h3.28a.82.82,0,0,1,.81.71l2.61,19.67a.82.82,0,0,1-.7.92Z" transform="translate(18 -1.5)"/><path class="cls-2" d="M-8.95,88.39a.83.83,0,0,1-.65-.33,9,9,0,0,1-1.84-5.41V63.12a9,9,0,0,1,5-8.06L8.68,47.49A.82.82,0,0,1,9.42,49L-5.72,56.53A7.31,7.31,0,0,0-9.8,63.12V82.65a7.29,7.29,0,0,0,1.51,4.42.83.83,0,0,1-.16,1.15A.84.84,0,0,1-8.95,88.39Z" transform="translate(18 -1.5)"/><path class="cls-2" d="M27.08,88.39a.82.82,0,0,1-.82-.82V85.11A3.28,3.28,0,0,0,23,81.83H20.52a.82.82,0,1,1,0-1.64H23a4.92,4.92,0,0,1,4.92,4.92v2.46A.82.82,0,0,1,27.08,88.39Z" transform="translate(18 -1.5)"/><path class="cls-2" d="M73,60.52a.82.82,0,0,1-.82-.82V53.14a.82.82,0,0,0-.82-.82H64.79a.82.82,0,1,1,0-1.64h6.55a2.46,2.46,0,0,1,2.46,2.46V59.7A.82.82,0,0,1,73,60.52Z" transform="translate(18 -1.5)"/></svg>