<svg id="Layer_1" data-name="Layer 1" xmlns="http://www.w3.org/2000/svg" viewBox="0 0 100.58 100"><defs><style>.cls-1{fill:#1b2c38;}.cls-2{fill:#ffcb05;}.cls-3{fill:#27c7cd;}</style></defs><title>Personal</title><path class="cls-1" d="M17.55,101.5a.82.82,0,0,1-.82-.75L13.6,64.28,3.21,68.73a11.47,11.47,0,0,0-7,10.55v21.4a.82.82,0,0,1-.82.82.82.82,0,0,1-.82-.82V79.28a13.12,13.12,0,0,1,8-12.06L14,62.33a.78.78,0,0,1,.74.05.81.81,0,0,1,.39.63l3.24,37.6a.83.83,0,0,1-.75.89Z" transform="translate(18.5 -1.5)"/><path class="cls-1" d="M41.34,93.3a.81.81,0,0,1-.82-.82V87.57a.82.82,0,1,1,1.64,0v4.91A.82.82,0,0,1,41.34,93.3Z" transform="translate(18.5 -1.5)"/><path class="cls-1" d="M24.94,60.52A18.76,18.76,0,0,1,6.75,46.58a4.92,4.92,0,0,1,0-9.83,18.84,18.84,0,0,1,36.38,0,4.92,4.92,0,0,1,0,9.83A18.74,18.74,0,0,1,24.94,60.52ZM7.26,44.91a.93.93,0,0,1,.92.62,17.2,17.2,0,0,0,33.52,0,.8.8,0,0,1,.9-.63l.38,0a3.28,3.28,0,0,0,0-6.55l-.24,0a1,1,0,0,1-1-.61,17.2,17.2,0,0,0-33.52,0,.82.82,0,0,1-.89.63l-.38,0a3.28,3.28,0,1,0,0,6.55l.23,0Z" transform="translate(18.5 -1.5)"/><path class="cls-2" d="M8.55,40H7.73V29.37h4.92v6.56A4.1,4.1,0,0,1,8.55,40Z" transform="translate(18.5 -1.5)"/><path class="cls-1" d="M8.55,40.84H7.73A.82.82,0,0,1,6.91,40V29.37a.82.82,0,0,1,.82-.82h4.92a.82.82,0,0,1,.82.82v6.56A4.92,4.92,0,0,1,8.55,40.84Zm0-1.64h0Zm0-9v9a3.28,3.28,0,0,0,3.28-3.27V30.19Z" transform="translate(18.5 -1.5)"/><path class="cls-2" d="M37.24,29.29v6.64A4.09,4.09,0,0,0,41.34,40h.82V27A8.23,8.23,0,0,1,37.24,29.29Z" transform="translate(18.5 -1.5)"/><path class="cls-1" d="M42.16,40.84h-.82a4.91,4.91,0,0,1-4.92-4.91V29.29a.82.82,0,0,1,.74-.82,7.36,7.36,0,0,0,4.42-2A.83.83,0,0,1,43,27V40A.82.82,0,0,1,42.16,40.84ZM38.06,30v5.93a3.28,3.28,0,0,0,3.28,3.27V28.71A9.34,9.34,0,0,1,38.06,30Z" transform="translate(18.5 -1.5)"/><path class="cls-1" d="M24.94,50.68A9,9,0,0,1,18.57,48a.82.82,0,1,1,1.16-1.16,7.38,7.38,0,0,0,10.43,0A.82.82,0,1,1,31.32,48,9,9,0,0,1,24.94,50.68Z" transform="translate(18.5 -1.5)"/><path class="cls-2" d="M36.42,29.37H7.73A12.3,12.3,0,0,1,20,17.07h8.54a24.57,24.57,0,0,0,10.3-2.26l5.75-2.65v9A8.2,8.2,0,0,1,36.42,29.37Z" transform="translate(18.5 -1.5)"/><path class="cls-1" d="M36.42,30.19H7.73a.82.82,0,0,1-.82-.82A13.13,13.13,0,0,1,20,16.25h8.54a24,24,0,0,0,10-2.18l5.75-2.66a.82.82,0,0,1,1.16.75v9A9,9,0,0,1,36.42,30.19ZM8.58,28.55H36.42a7.39,7.39,0,0,0,7.38-7.38V13.44l-4.59,2.11a25.62,25.62,0,0,1-10.65,2.34H20A11.49,11.49,0,0,0,8.58,28.55Z" transform="translate(18.5 -1.5)"/><polygon class="cls-3" points="47.54 94.37 43.44 99.18 39.34 94.37 41.8 69.67 45.08 69.67 47.54 94.37"/><path class="cls-1" d="M24.94,101.5a.78.78,0,0,1-.62-.29l-4.1-4.81a.88.88,0,0,1-.19-.62l2.46-24.69a.81.81,0,0,1,.81-.74h3.28a.82.82,0,0,1,.82.74l2.46,24.69a.88.88,0,0,1-.19.62l-4.1,4.81A.82.82,0,0,1,24.94,101.5ZM21.7,95.6l3.24,3.81,3.25-3.81L25.84,72H24Z" transform="translate(18.5 -1.5)"/><path class="cls-1" d="M8.55,101.5a.82.82,0,0,1-.82-.82V84.29a.82.82,0,1,1,1.64,0v16.39A.82.82,0,0,1,8.55,101.5Z" transform="translate(18.5 -1.5)"/><path class="cls-1" d="M41.34,101.5a.82.82,0,0,1-.82-.82V83.47a.8.8,0,0,1,.37-.69.81.81,0,0,1,.77-.07l11.53,4.94a7.38,7.38,0,0,0,10.28-6.78V65.43H52v9.84a.82.82,0,1,1-1.64,0V64.61a.82.82,0,0,1,.82-.81H64.29a.82.82,0,0,1,.82.81V80.87a9,9,0,0,1-12.57,8.29L42.16,84.71v16A.82.82,0,0,1,41.34,101.5Z" transform="translate(18.5 -1.5)"/><path class="cls-1" d="M15,72a.8.8,0,0,1-.34-.07.83.83,0,0,1-.48-.68l-.68-8.09a.81.81,0,0,1,.49-.82l4.07-1.75a.82.82,0,0,1,1,.3l3.28,4.92a.81.81,0,0,1-.19,1.11l-6.67,4.92A.77.77,0,0,1,15,72Zm.18-8.39.51,6,4.86-3.58-2.47-3.7Z" transform="translate(18.5 -1.5)"/><path class="cls-1" d="M34.87,72a.77.77,0,0,1-.48-.16l-6.66-4.92a.82.82,0,0,1-.19-1.11l3.28-4.92a.82.82,0,0,1,1-.3l4.07,1.75a.83.83,0,0,1,.5.82l-.7,8.09a.83.83,0,0,1-.48.68A.8.8,0,0,1,34.87,72Zm-5.53-5.93,4.84,3.58.52-6-2.9-1.24Z" transform="translate(18.5 -1.5)"/><path class="cls-1" d="M26.58,72H23.3a2.46,2.46,0,0,1-2.46-2.46V67.89a2.47,2.47,0,0,1,2.46-2.46h3.28A2.46,2.46,0,0,1,29,67.89v1.64A2.46,2.46,0,0,1,26.58,72ZM23.3,67.07a.82.82,0,0,0-.82.82v1.64a.82.82,0,0,0,.82.82h3.28a.82.82,0,0,0,.82-.82V67.89a.82.82,0,0,0-.82-.82Z" transform="translate(18.5 -1.5)"/><path class="cls-1" d="M27.82,67.67a.82.82,0,0,1-.63-.29.81.81,0,0,0-.61-.31H23.3a.83.83,0,0,0-.61.31.85.85,0,0,1-.67.29.81.81,0,0,1-.64-.36L17.7,61.79a.79.79,0,0,1-.13-.45V58.45a.84.84,0,0,1,.35-.68.82.82,0,0,1,.76-.08,17.13,17.13,0,0,0,12.52,0,.82.82,0,0,1,1.12.76v2.89a.8.8,0,0,1-.14.45L28.5,67.31a.81.81,0,0,1-.63.36ZM23.3,65.43h3.28a2.34,2.34,0,0,1,1,.25l3.06-4.59V59.61a18.75,18.75,0,0,1-11.48,0v1.48l3.06,4.59A2.38,2.38,0,0,1,23.3,65.43Z" transform="translate(18.5 -1.5)"/><path class="cls-1" d="M-.47,59.7H-12.76a.82.82,0,0,1-.82-.82.82.82,0,0,1,.82-.82H-.47a.81.81,0,0,1,.82.82A.82.82,0,0,1-.47,59.7Z" transform="translate(18.5 -1.5)"/><path class="cls-1" d="M-16,59.7h-1.64a.82.82,0,0,1-.82-.82.82.82,0,0,1,.82-.82H-16a.82.82,0,0,1,.82.82A.82.82,0,0,1-16,59.7Z" transform="translate(18.5 -1.5)"/><path class="cls-1" d="M75.76,96.58H63.47a.82.82,0,0,1,0-1.64H75.76a.82.82,0,1,1,0,1.64Z" transform="translate(18.5 -1.5)"/><path class="cls-1" d="M80.68,96.58H79a.82.82,0,1,1,0-1.64h1.64a.82.82,0,1,1,0,1.64Z" transform="translate(18.5 -1.5)"/><path class="cls-1" d="M52,56H48.71a2.47,2.47,0,0,1-2.46-2.46v-.82a2.46,2.46,0,0,1,2.46-2.46H52a2.46,2.46,0,0,1,2.46,2.46v.82A2.46,2.46,0,0,1,52,56Zm-3.28-4.1a.82.82,0,0,0-.82.82v.82a.82.82,0,0,0,.82.82H52a.82.82,0,0,0,.82-.82v-.82a.82.82,0,0,0-.82-.82Z" transform="translate(18.5 -1.5)"/><path class="cls-1" d="M64.29,54h-.82A2.46,2.46,0,0,1,61,51.5V46.58a2.46,2.46,0,0,1,2.46-2.46h.82a2.47,2.47,0,0,1,2.46,2.46V51.5A2.46,2.46,0,0,1,64.29,54Zm-.82-8.2a.82.82,0,0,0-.82.82V51.5a.82.82,0,0,0,.82.82h.82a.82.82,0,0,0,.82-.82V46.58a.82.82,0,0,0-.82-.82Z" transform="translate(18.5 -1.5)"/><path class="cls-1" d="M60.19,54h-.82a2.46,2.46,0,0,1-2.46-2.46V46.58a2.46,2.46,0,0,1,2.46-2.46h.82a2.47,2.47,0,0,1,2.46,2.46V51.5A2.46,2.46,0,0,1,60.19,54Zm-.82-8.2a.82.82,0,0,0-.82.82V51.5a.82.82,0,0,0,.82.82h.82A.82.82,0,0,0,61,51.5V46.58a.82.82,0,0,0-.82-.82Z" transform="translate(18.5 -1.5)"/><path class="cls-1" d="M56.09,54h-.82a2.46,2.46,0,0,1-2.46-2.46V46.58a2.46,2.46,0,0,1,2.46-2.46h.82a2.46,2.46,0,0,1,2.46,2.46V51.5A2.46,2.46,0,0,1,56.09,54Zm-.82-8.2a.82.82,0,0,0-.82.82V51.5a.82.82,0,0,0,.82.82h.82a.82.82,0,0,0,.82-.82V46.58a.82.82,0,0,0-.82-.82Z" transform="translate(18.5 -1.5)"/><path class="cls-1" d="M61.83,62.16a.82.82,0,1,1,0-1.64,3.28,3.28,0,0,0,3.28-3.28v-4.1a.82.82,0,0,1,1.64,0v4.1A4.93,4.93,0,0,1,61.83,62.16Z" transform="translate(18.5 -1.5)"/><path class="cls-1" d="M53.63,62.16a4.93,4.93,0,0,1-4.92-4.92V55.19a.82.82,0,0,1,1.64,0v2.05a3.28,3.28,0,0,0,3.28,3.28.82.82,0,0,1,0,1.64Z" transform="translate(18.5 -1.5)"/><path class="cls-1" d="M53.63,54a.82.82,0,0,1-.82-.82V38.39a.82.82,0,0,0-.82-.82h-.82a.82.82,0,0,0-.82.82v12.7a.82.82,0,0,1-1.64,0V38.39a2.46,2.46,0,0,1,2.46-2.46H52a2.46,2.46,0,0,1,2.46,2.46V53.14A.82.82,0,0,1,53.63,54Z" transform="translate(18.5 -1.5)"/><path class="cls-1" d="M32.33,101.5h-.07a.82.82,0,0,1-.74-.89L34.75,63a.82.82,0,0,1,.4-.63.81.81,0,0,1,.74-.06L51.5,69a.82.82,0,0,1-.65,1.51L36.29,64.28l-3.14,36.47A.82.82,0,0,1,32.33,101.5Z" transform="translate(18.5 -1.5)"/><path class="cls-1" d="M74.7,16.25h6.56a.82.82,0,1,0,0-1.64H74.7a.82.82,0,0,0,0,1.64Z" transform="translate(18.5 -1.5)"/><path class="cls-1" d="M63.23,6.42h6.56a.82.82,0,1,0,0-1.64H63.23a.82.82,0,0,0,0,1.64Z" transform="translate(18.5 -1.5)"/><path class="cls-1" d="M66.51,9.7a.82.82,0,0,0,.82-.82V2.32a.82.82,0,0,0-1.64,0V8.88A.82.82,0,0,0,66.51,9.7Z" transform="translate(18.5 -1.5)"/><path class="cls-1" d="M78,19.53a.81.81,0,0,0,.82-.82V12.16a.82.82,0,0,0-1.64,0v6.55A.82.82,0,0,0,78,19.53Z" transform="translate(18.5 -1.5)"/></svg>